<svg width="14" height="18" viewBox="0 0 14 18" version="1.1" xmlns="http://www.w3.org/2000/svg" xmlns:xlink="http://www.w3.org/1999/xlink">
<g id="Canvas" transform="translate(9371 -4537)">
<g id="Vector">
<use xlink:href="#path0_fill" transform="translate(-9371 4537)" fill="#222222"/>
</g>
</g>
<defs>
<path id="path0_fill" d="M 12.25 6L 11.375 6L 11.375 4.28571C 11.375 1.92 9.415 0 7 0C 4.585 0 2.625 1.92 2.625 4.28571L 2.625 6L 1.75 6C 0.783125 6 0 6.76714 0 7.71429L 0 16.2857C 0 17.2329 0.783125 18 1.75 18L 12.25 18C 13.2169 18 14 17.2329 14 16.2857L 14 7.71429C 14 6.76714 13.2169 6 12.25 6ZM 7 13.7143C 6.03312 13.7143 5.25 12.9471 5.25 12C 5.25 11.0529 6.03312 10.2857 7 10.2857C 7.96688 10.2857 8.75 11.0529 8.75 12C 8.75 12.9471 7.96688 13.7143 7 13.7143ZM 9.7125 6L 4.2875 6L 4.2875 4.28571C 4.2875 2.82 5.50375 1.62857 7 1.62857C 8.49625 1.62857 9.7125 2.82 9.7125 4.28571L 9.7125 6Z"/>
</defs>
</svg>
