<svg id="home-img2" xmlns="http://www.w3.org/2000/svg" width="302" height="206" viewBox="0 0 302 206">
  <g id="Group_5" data-name="Group 5">
    <rect id="Rectangle_8" data-name="Rectangle 8" width="302" height="206" rx="20" fill="rgba(255,255,255,0.9)"/>
  </g>
  <path id="Path_25" data-name="Path 25" d="M20.14,38l5.2-13.72h2.88L33.4,38H30.8l-1.14-2.98H23.7L22.56,38Zm4.2-4.8H29l-2.28-6.22h-.08Zm14.475,5a4.131,4.131,0,0,1-2.12-.56,3.96,3.96,0,0,1-1.54-1.74,6.848,6.848,0,0,1-.58-3.02v-.22a6.431,6.431,0,0,1,.54-2.8,4.019,4.019,0,0,1,1.46-1.7,3.713,3.713,0,0,1,2.02-.58,3.753,3.753,0,0,1,1.84.42,2.946,2.946,0,0,1,1.16,1.04V23.6h2.32V38h-1.8l-.28-1.38a3.959,3.959,0,0,1-1.24,1.16A3.551,3.551,0,0,1,38.815,38.2Zm.46-1.58a2.055,2.055,0,0,0,2-1.3,4.211,4.211,0,0,0,.32-1.78V32.12a3.614,3.614,0,0,0-.32-1.62,2.112,2.112,0,0,0-.84-.98,2.17,2.17,0,0,0-1.16-.32,2.088,2.088,0,0,0-1.62.74,3.2,3.2,0,0,0-.64,2.18v1.4a4.457,4.457,0,0,0,.3,1.78,2.191,2.191,0,0,0,.8,1A2.169,2.169,0,0,0,39.275,36.62Zm11.4,1.58a4.131,4.131,0,0,1-2.12-.56,3.961,3.961,0,0,1-1.54-1.74,6.849,6.849,0,0,1-.58-3.02v-.22a6.431,6.431,0,0,1,.54-2.8,4.02,4.02,0,0,1,1.46-1.7,3.713,3.713,0,0,1,2.02-.58,3.753,3.753,0,0,1,1.84.42,2.945,2.945,0,0,1,1.16,1.04V23.6h2.32V38h-1.8l-.28-1.38a3.957,3.957,0,0,1-1.24,1.16A3.551,3.551,0,0,1,50.671,38.2Zm.46-1.58a2.055,2.055,0,0,0,2-1.3,4.209,4.209,0,0,0,.32-1.78V32.12a3.613,3.613,0,0,0-.32-1.62,2.112,2.112,0,0,0-.84-.98,2.169,2.169,0,0,0-1.16-.32,2.088,2.088,0,0,0-1.62.74,3.2,3.2,0,0,0-.64,2.18v1.4a4.457,4.457,0,0,0,.3,1.78,2.192,2.192,0,0,0,.8,1A2.17,2.17,0,0,0,51.131,36.62ZM65.8,38.2a4.848,4.848,0,0,1-1.58-.26A2.6,2.6,0,0,1,63,37.06a2.8,2.8,0,0,1-.48-1.72A3.022,3.022,0,0,1,63,33.56a3.128,3.128,0,0,1,1.4-1.04,7.84,7.84,0,0,1,2.16-.48,25.516,25.516,0,0,1,2.8-.14v-.96a1.665,1.665,0,0,0-.52-1.4,2.36,2.36,0,0,0-1.54-.42,2.992,2.992,0,0,0-1.52.38,1.285,1.285,0,0,0-.66,1.2v.2H62.88a.74.74,0,0,1-.02-.18V30.5a2.359,2.359,0,0,1,.54-1.54,3.59,3.59,0,0,1,1.54-1.02,6.471,6.471,0,0,1,2.24-.36h.34a4.892,4.892,0,0,1,3.1.82,2.784,2.784,0,0,1,1.02,2.3v5.22a.693.693,0,0,0,.18.54.588.588,0,0,0,.4.16,1.23,1.23,0,0,0,.42-.08,3.353,3.353,0,0,0,.44-.18v1.42a1.779,1.779,0,0,1-.66.3,3.368,3.368,0,0,1-.96.12,2.276,2.276,0,0,1-1.1-.24,1.64,1.64,0,0,1-.64-.64,2.4,2.4,0,0,1-.26-.94,4.032,4.032,0,0,1-1.5,1.34A4.608,4.608,0,0,1,65.8,38.2Zm1-1.58a2.772,2.772,0,0,0,1.22-.28,2.526,2.526,0,0,0,.96-.88A2.613,2.613,0,0,0,69.36,34v-.78a15.449,15.449,0,0,0-2.4.16,3.217,3.217,0,0,0-1.52.54,1.419,1.419,0,0,0-.52,1.2,1.356,1.356,0,0,0,.48,1.16A2.411,2.411,0,0,0,66.8,36.62ZM75.171,38V27.78h1.7l.3,1.5a3.72,3.72,0,0,1,1.44-1.26,4.154,4.154,0,0,1,1.92-.44,4.108,4.108,0,0,1,1.86.4,2.864,2.864,0,0,1,1.24,1.18,3.571,3.571,0,0,1,.46,1.88V38h-2.32V31.46a2.079,2.079,0,0,0-.54-1.62,2.021,2.021,0,0,0-1.46-.5,2.134,2.134,0,0,0-1.14.32,2.355,2.355,0,0,0-.84.82,2.318,2.318,0,0,0-.3,1.18V38ZM91.64,38V27.78h2.32V38Zm-.06-12.52V23.6h2.44v1.88Zm9.286,12.72a4.132,4.132,0,0,1-2.12-.56,3.961,3.961,0,0,1-1.54-1.74,6.849,6.849,0,0,1-.58-3.02v-.22a6.431,6.431,0,0,1,.54-2.8,4.02,4.02,0,0,1,1.46-1.7,3.713,3.713,0,0,1,2.02-.58,3.754,3.754,0,0,1,1.84.42,2.945,2.945,0,0,1,1.16,1.04V23.6h2.32V38h-1.8l-.28-1.38a3.958,3.958,0,0,1-1.24,1.16A3.551,3.551,0,0,1,100.866,38.2Zm.46-1.58a2.279,2.279,0,0,0,1.16-.3,2.254,2.254,0,0,0,.84-1,4.215,4.215,0,0,0,.32-1.78V32.12a3.618,3.618,0,0,0-.32-1.62,2.112,2.112,0,0,0-.84-.98,2.169,2.169,0,0,0-1.16-.32,2.088,2.088,0,0,0-1.62.74,3.2,3.2,0,0,0-.64,2.18v1.4a4.457,4.457,0,0,0,.3,1.78,2.192,2.192,0,0,0,.8,1A2.169,2.169,0,0,0,101.326,36.62Zm11.835,1.58a5.045,5.045,0,0,1-2.46-.58,4.19,4.19,0,0,1-1.66-1.74,6.038,6.038,0,0,1-.58-2.76v-.46a5.708,5.708,0,0,1,.62-2.76,4.273,4.273,0,0,1,1.72-1.72,5.138,5.138,0,0,1,2.5-.6h.26a4.647,4.647,0,0,1,2.28.54,3.659,3.659,0,0,1,1.52,1.5,4.692,4.692,0,0,1,.54,2.3v1.26h-7.02a5.466,5.466,0,0,0,.28,1.84,2.576,2.576,0,0,0,.82,1.2,2.315,2.315,0,0,0,1.38.4,2.646,2.646,0,0,0,1.2-.26,1.992,1.992,0,0,0,.84-.82,2.583,2.583,0,0,0,.32-1.34h2.18a3.7,3.7,0,0,1-.6,2.1,4.042,4.042,0,0,1-1.62,1.4,5.2,5.2,0,0,1-2.32.5Zm-2.26-6.3h4.72a2.925,2.925,0,0,0-.62-2.06,2.1,2.1,0,0,0-1.66-.68,2.316,2.316,0,0,0-1.7.7A2.967,2.967,0,0,0,110.9,31.9Zm12.2,6.3a4.848,4.848,0,0,1-1.58-.26,2.6,2.6,0,0,1-1.22-.88,2.8,2.8,0,0,1-.48-1.72,3.022,3.022,0,0,1,.48-1.78,3.126,3.126,0,0,1,1.4-1.04,7.84,7.84,0,0,1,2.16-.48,25.513,25.513,0,0,1,2.8-.14v-.96a1.664,1.664,0,0,0-.52-1.4,2.36,2.36,0,0,0-1.54-.42,2.993,2.993,0,0,0-1.52.38,1.285,1.285,0,0,0-.66,1.2v.2h-2.24a.76.76,0,0,1-.02-.18V30.5a2.359,2.359,0,0,1,.54-1.54,3.591,3.591,0,0,1,1.54-1.02,6.47,6.47,0,0,1,2.24-.36h.34a4.891,4.891,0,0,1,3.1.82,2.784,2.784,0,0,1,1.02,2.3v5.22a.693.693,0,0,0,.18.54.587.587,0,0,0,.4.16,1.232,1.232,0,0,0,.42-.08,3.331,3.331,0,0,0,.44-.18v1.42a1.773,1.773,0,0,1-.66.3,3.371,3.371,0,0,1-.96.12,2.275,2.275,0,0,1-1.1-.24,1.642,1.642,0,0,1-.64-.64,2.4,2.4,0,0,1-.26-.94,4.036,4.036,0,0,1-1.5,1.34A4.606,4.606,0,0,1,123.105,38.2Zm1-1.58a2.771,2.771,0,0,0,1.22-.28,2.52,2.52,0,0,0,.96-.88,2.615,2.615,0,0,0,.38-1.46v-.78a15.456,15.456,0,0,0-2.4.16,3.217,3.217,0,0,0-1.52.54,1.419,1.419,0,0,0-.52,1.2,1.356,1.356,0,0,0,.48,1.16A2.412,2.412,0,0,0,124.105,36.62Z" fill="#162466"/>
  <rect id="Rectangle_9" data-name="Rectangle 9" width="258" height="94" rx="10" transform="translate(20 93)" fill="#fff"/>
  <rect id="Rectangle_10" data-name="Rectangle 10" width="258" height="94" rx="10" transform="translate(20 93)" fill="#ffbe00" opacity="0.3"/>
  <path id="Path_26" data-name="Path 26" d="M72.354,121.14a5.631,5.631,0,0,1-1.82-.28,2.737,2.737,0,0,1-1.3-.91,2.663,2.663,0,0,1-.49-1.68v-.126a.792.792,0,0,1,.014-.154h1.386a.943.943,0,0,0-.014.154v.154a1.5,1.5,0,0,0,.28.938,1.673,1.673,0,0,0,.784.546,3.421,3.421,0,0,0,1.162.182,4.137,4.137,0,0,0,1.2-.154,1.476,1.476,0,0,0,.77-.5,1.5,1.5,0,0,0,.28-.938,1.116,1.116,0,0,0-.308-.826,2.069,2.069,0,0,0-.812-.5,9.793,9.793,0,0,0-1.106-.322q-.6-.155-1.2-.336a5.207,5.207,0,0,1-1.092-.476,2.33,2.33,0,0,1-.812-.784,2.305,2.305,0,0,1-.308-1.246,2.227,2.227,0,0,1,.476-1.47,2.933,2.933,0,0,1,1.274-.854,5.31,5.31,0,0,1,3.444-.014,2.6,2.6,0,0,1,1.246.854,2.362,2.362,0,0,1,.462,1.526v.182H74.51v-.224a1.213,1.213,0,0,0-.266-.8,1.558,1.558,0,0,0-.714-.476,2.986,2.986,0,0,0-1.05-.168,3.632,3.632,0,0,0-1.05.14,1.474,1.474,0,0,0-.714.42,1.054,1.054,0,0,0-.266.756,1.033,1.033,0,0,0,.308.784,2.274,2.274,0,0,0,.812.476q.5.168,1.106.308t1.218.322a4.742,4.742,0,0,1,1.106.49,2.183,2.183,0,0,1,1.12,2.044,2.78,2.78,0,0,1-.5,1.736,2.859,2.859,0,0,1-1.358.938A5.822,5.822,0,0,1,72.354,121.14Zm7.991,0a2.514,2.514,0,0,1-1.764-.6,2.474,2.474,0,0,1-.658-1.89v-4.8h1.4v4.466a1.945,1.945,0,0,0,.378,1.344,1.468,1.468,0,0,0,1.106.392,1.827,1.827,0,0,0,.9-.224,1.853,1.853,0,0,0,.672-.644,1.691,1.691,0,0,0,.252-.91v-4.424h1.4v5.824a.5.5,0,0,0,.112.364.41.41,0,0,0,.28.112,1.027,1.027,0,0,0,.322-.056,1.528,1.528,0,0,0,.308-.14v.9a1.256,1.256,0,0,1-.448.21,2.048,2.048,0,0,1-.616.084,1.326,1.326,0,0,1-.714-.168,1.031,1.031,0,0,1-.392-.434,2.543,2.543,0,0,1-.182-.588,2.416,2.416,0,0,1-.994.882A3.114,3.114,0,0,1,80.345,121.14Zm9.773,0a2.676,2.676,0,0,1-2.422-1.288L87.206,121h-.518V110.92h1.4v3.836a2.432,2.432,0,0,1,.84-.742,2.663,2.663,0,0,1,1.3-.308,2.744,2.744,0,0,1,1.4.364,2.551,2.551,0,0,1,1.022,1.12,4.279,4.279,0,0,1,.378,1.918v.28a4.925,4.925,0,0,1-.406,2.142,2.718,2.718,0,0,1-1.05,1.218A2.794,2.794,0,0,1,90.118,121.14Zm-.266-.994a1.526,1.526,0,0,0,1.484-1.008,3.466,3.466,0,0,0,.238-1.4v-.784a3.006,3.006,0,0,0-.224-1.246,1.622,1.622,0,0,0-.6-.742,1.528,1.528,0,0,0-.868-.252,1.706,1.706,0,0,0-1.554.994,2.753,2.753,0,0,0-.252,1.26v.784a3.511,3.511,0,0,0,.238,1.414,1.745,1.745,0,0,0,.644.756A1.828,1.828,0,0,0,89.852,120.146Zm5.08.854v-7.154h1.036l.21,1.05a2.572,2.572,0,0,1,.868-.868,2.2,2.2,0,0,1,1.19-.322,2.688,2.688,0,0,1,1.246.28,1.942,1.942,0,0,1,.854.9,2.388,2.388,0,0,1,.854-.84,2.511,2.511,0,0,1,1.316-.336,2.568,2.568,0,0,1,1.218.28,1.943,1.943,0,0,1,.826.84,2.755,2.755,0,0,1,.308,1.372V121h-1.386v-4.494a1.92,1.92,0,0,0-.364-1.3,1.256,1.256,0,0,0-1.008-.406,1.429,1.429,0,0,0-.784.224,1.54,1.54,0,0,0-.532.63,2.207,2.207,0,0,0-.182.91V121H99.2v-4.494a1.922,1.922,0,0,0-.364-1.3,1.275,1.275,0,0,0-1.022-.406,1.358,1.358,0,0,0-.77.224,1.537,1.537,0,0,0-.532.63,2.2,2.2,0,0,0-.182.91V121Zm12.294,0v-7.154h1.4V121Zm-.042-8.9V110.92h1.484V112.1Zm5.858,9.044a2.5,2.5,0,0,1-.938-.168,1.377,1.377,0,0,1-.644-.532,1.928,1.928,0,0,1-.224-.994v-4.508h-.784v-1.092h.826l.49-2.282h.868v2.282H114.3v1.092h-1.666v4.256q0,.617.252.784a.965.965,0,0,0,.546.168,1.753,1.753,0,0,0,.42-.07,3.288,3.288,0,0,0,.448-.14v.938a1.6,1.6,0,0,1-.378.14,2.252,2.252,0,0,1-.448.1A3.445,3.445,0,0,1,113.042,121.14Zm6.939,2.464a2.609,2.609,0,0,1-.56-.056,2.282,2.282,0,0,1-.49-.14v-1.092a3.571,3.571,0,0,0,.392.112,2.038,2.038,0,0,0,.462.056,1.085,1.085,0,0,0,.6-.154,1.265,1.265,0,0,0,.434-.49,5.27,5.27,0,0,0,.42-.952l-2.8-7.042h1.5l1.988,5.292H122l1.946-5.292h1.386l-2.688,6.86a13.332,13.332,0,0,1-.658,1.456,3.246,3.246,0,0,1-.812,1.05A1.811,1.811,0,0,1,119.981,123.6Zm9.6-2.464a3.242,3.242,0,0,1-1.666-.434,3.035,3.035,0,0,1-1.148-1.246,4.123,4.123,0,0,1-.42-1.918V117.3a4.1,4.1,0,0,1,.42-1.932,2.943,2.943,0,0,1,1.148-1.232,3.242,3.242,0,0,1,1.666-.434h.182a3.194,3.194,0,0,1,1.666.434,3.035,3.035,0,0,1,1.148,1.246,4.069,4.069,0,0,1,.42,1.918v.238a4.123,4.123,0,0,1-.42,1.918,3,3,0,0,1-1.162,1.246,3.166,3.166,0,0,1-1.652.434Zm.084-.994a1.813,1.813,0,0,0,.952-.252,1.78,1.78,0,0,0,.672-.756,2.769,2.769,0,0,0,.252-1.246v-.938a2.716,2.716,0,0,0-.252-1.246,1.78,1.78,0,0,0-.672-.756,1.813,1.813,0,0,0-.952-.252,1.729,1.729,0,0,0-1.61,1.008,2.716,2.716,0,0,0-.252,1.246v.938a2.769,2.769,0,0,0,.252,1.246,1.729,1.729,0,0,0,1.61,1.008Zm7.586.994a2.515,2.515,0,0,1-1.764-.6,2.472,2.472,0,0,1-.658-1.89v-4.8h1.4v4.466a1.945,1.945,0,0,0,.378,1.344,1.469,1.469,0,0,0,1.106.392,1.827,1.827,0,0,0,.9-.224,1.853,1.853,0,0,0,.672-.644,1.691,1.691,0,0,0,.252-.91v-4.424h1.4v5.824a.5.5,0,0,0,.112.364.409.409,0,0,0,.28.112,1.025,1.025,0,0,0,.322-.056,1.52,1.52,0,0,0,.308-.14v.9a1.257,1.257,0,0,1-.448.21,2.048,2.048,0,0,1-.616.084,1.324,1.324,0,0,1-.714-.168,1.033,1.033,0,0,1-.392-.434,2.524,2.524,0,0,1-.182-.588,2.416,2.416,0,0,1-.994.882A3.113,3.113,0,0,1,137.247,121.14Zm6.343-.14v-7.154h1.036l.2,1.05q.015-.029.126-.21a2.349,2.349,0,0,1,.336-.406,2.071,2.071,0,0,1,.6-.406,2.271,2.271,0,0,1,.924-.168,2.205,2.205,0,0,1,1.218.308,1.723,1.723,0,0,1,.714.812A2.779,2.779,0,0,1,148.98,116c0,.093,0,.191-.014.294s-.014.168-.014.224h-1.2v-.266a1.834,1.834,0,0,0-.126-.644,1.14,1.14,0,0,0-.406-.574,1.495,1.495,0,0,0-1.5-.07,1.439,1.439,0,0,0-.434.42,1.924,1.924,0,0,0-.224.532,2.18,2.18,0,0,0-.07.518V121Zm10.161,0v-7.154h1.4V121Zm-.042-8.9V110.92h1.484V112.1Zm6.4,9.044a2.976,2.976,0,0,1-1.484-.378,2.8,2.8,0,0,1-1.064-1.218,4.947,4.947,0,0,1-.392-2.114v-.154a4.5,4.5,0,0,1,.378-1.96,2.914,2.914,0,0,1,1.022-1.2,2.619,2.619,0,0,1,1.428-.406,2.709,2.709,0,0,1,1.3.294,2.075,2.075,0,0,1,.84.756V110.92h1.4V121h-1.064l-.2-.994a2.564,2.564,0,0,1-.9.84A2.6,2.6,0,0,1,160.113,121.14Zm.252-.994a1.747,1.747,0,0,0,.882-.224,1.631,1.631,0,0,0,.644-.756,3.337,3.337,0,0,0,.252-1.414v-.784a2.886,2.886,0,0,0-.238-1.26,1.638,1.638,0,0,0-.644-.742,1.666,1.666,0,0,0-.9-.252,1.578,1.578,0,0,0-1.232.574,2.489,2.489,0,0,0-.5,1.708v.77a3.666,3.666,0,0,0,.224,1.4,1.667,1.667,0,0,0,.63.756A1.8,1.8,0,0,0,160.365,120.146Zm8.271.994a3.391,3.391,0,0,1-1.68-.406,2.9,2.9,0,0,1-1.12-1.218,4.317,4.317,0,0,1-.406-1.946v-.294a4.136,4.136,0,0,1,.42-1.946,2.936,2.936,0,0,1,1.176-1.2,3.381,3.381,0,0,1,1.694-.42h.154a3.177,3.177,0,0,1,1.54.364,2.517,2.517,0,0,1,1.036,1.036,3.2,3.2,0,0,1,.378,1.6v.9h-4.942a4,4,0,0,0,.21,1.372,1.98,1.98,0,0,0,.63.882,1.738,1.738,0,0,0,1.022.294,1.972,1.972,0,0,0,.9-.2,1.494,1.494,0,0,0,.63-.6,1.964,1.964,0,0,0,.238-1.008h1.316a2.677,2.677,0,0,1-.406,1.484,2.74,2.74,0,0,1-1.106.98,3.485,3.485,0,0,1-1.554.336Zm-1.736-4.382h3.556a2.241,2.241,0,0,0-.462-1.554,1.6,1.6,0,0,0-1.26-.5,1.765,1.765,0,0,0-1.274.518A2.228,2.228,0,0,0,166.9,116.758Zm8.685,4.382a3.4,3.4,0,0,1-1.106-.182,1.819,1.819,0,0,1-.854-.616,2.021,2.021,0,0,1-.322-1.2,2.051,2.051,0,0,1,.336-1.232,2.19,2.19,0,0,1,.98-.728,5.673,5.673,0,0,1,1.526-.336q.9-.084,1.96-.084v-.728a1.259,1.259,0,0,0-.378-1.05,1.787,1.787,0,0,0-1.162-.308,2.215,2.215,0,0,0-1.162.294.955.955,0,0,0-.49.9v.168h-1.358a.665.665,0,0,1-.014-.14v-.168a1.6,1.6,0,0,1,.378-1.064,2.422,2.422,0,0,1,1.05-.7,4.322,4.322,0,0,1,1.526-.252h.2a3.286,3.286,0,0,1,2.1.56,1.943,1.943,0,0,1,.7,1.61v3.794a.5.5,0,0,0,.112.364.361.361,0,0,0,.266.112,1.03,1.03,0,0,0,.322-.056,1.461,1.461,0,0,0,.322-.14v.9a1.265,1.265,0,0,1-.448.21,2.108,2.108,0,0,1-.63.084,1.4,1.4,0,0,1-.728-.168,1.077,1.077,0,0,1-.392-.476,2.042,2.042,0,0,1-.154-.658,2.723,2.723,0,0,1-1.064.966A3.229,3.229,0,0,1,175.585,121.14Zm.56-.994a2.188,2.188,0,0,0,.938-.21,1.8,1.8,0,0,0,.728-.672,2,2,0,0,0,.294-1.12v-.532a12.485,12.485,0,0,0-1.806.112,2.528,2.528,0,0,0-1.162.392,1.061,1.061,0,0,0-.392.91,1,1,0,0,0,.35.854A1.724,1.724,0,0,0,176.145,120.146Zm9.509.854v-6.062h-.812v-1.092h.812v-1.3a1.592,1.592,0,0,1,.5-1.316,2,2,0,0,1,1.3-.42,2.3,2.3,0,0,1,.42.042,3.845,3.845,0,0,1,.462.084,2.194,2.194,0,0,1,.378.126V112a2.409,2.409,0,0,0-.448-.126,1.753,1.753,0,0,0-.42-.07,1.108,1.108,0,0,0-.378.07.579.579,0,0,0-.308.238,1.161,1.161,0,0,0-.112.588v1.148h1.666v1.092h-1.666V121Zm7.634.14a3.242,3.242,0,0,1-1.666-.434,3.035,3.035,0,0,1-1.148-1.246,4.123,4.123,0,0,1-.42-1.918V117.3a4.1,4.1,0,0,1,.42-1.932,2.943,2.943,0,0,1,1.148-1.232,3.242,3.242,0,0,1,1.666-.434h.182a3.194,3.194,0,0,1,1.666.434,3.035,3.035,0,0,1,1.148,1.246,4.069,4.069,0,0,1,.42,1.918v.238a4.123,4.123,0,0,1-.42,1.918,3,3,0,0,1-1.162,1.246,3.166,3.166,0,0,1-1.652.434Zm.084-.994a1.813,1.813,0,0,0,.952-.252,1.78,1.78,0,0,0,.672-.756,2.769,2.769,0,0,0,.252-1.246v-.938a2.716,2.716,0,0,0-.252-1.246,1.78,1.78,0,0,0-.672-.756,1.813,1.813,0,0,0-.952-.252,1.729,1.729,0,0,0-1.61,1.008,2.716,2.716,0,0,0-.252,1.246v.938a2.769,2.769,0,0,0,.252,1.246,1.729,1.729,0,0,0,1.61,1.008Zm5.234.854v-7.154h1.036l.2,1.05q.014-.029.126-.21a2.349,2.349,0,0,1,.336-.406,2.057,2.057,0,0,1,.6-.406,2.271,2.271,0,0,1,.924-.168,2.205,2.205,0,0,1,1.218.308,1.723,1.723,0,0,1,.714.812A2.779,2.779,0,0,1,204,116c0,.093-.005.191-.014.294s-.014.168-.014.224h-1.2v-.266a1.834,1.834,0,0,0-.126-.644,1.146,1.146,0,0,0-.406-.574,1.495,1.495,0,0,0-1.5-.07,1.439,1.439,0,0,0-.434.42,1.894,1.894,0,0,0-.224.532,2.13,2.13,0,0,0-.07.518V121Zm12.135.14a2.5,2.5,0,0,1-.938-.168,1.377,1.377,0,0,1-.644-.532,1.928,1.928,0,0,1-.224-.994v-4.508h-.784v-1.092h.826l.49-2.282h.868v2.282H212v1.092h-1.666v4.256q0,.617.252.784a.965.965,0,0,0,.546.168,1.753,1.753,0,0,0,.42-.07,3.288,3.288,0,0,0,.448-.14v.938a1.6,1.6,0,0,1-.378.14,2.252,2.252,0,0,1-.448.1A3.445,3.445,0,0,1,210.741,121.14Zm3.1-.14V110.92h1.4V114.8a2.32,2.32,0,0,1,.966-.812,2.89,2.89,0,0,1,1.232-.28,2.836,2.836,0,0,1,1.288.28,2.064,2.064,0,0,1,.882.84,2.576,2.576,0,0,1,.336,1.372V121h-1.4v-4.564a1.626,1.626,0,0,0-.42-1.26,1.585,1.585,0,0,0-1.148-.392,1.712,1.712,0,0,0-.882.238,1.745,1.745,0,0,0-.854,1.554V121Zm11.224.14a3.391,3.391,0,0,1-1.68-.406,2.9,2.9,0,0,1-1.12-1.218,4.317,4.317,0,0,1-.406-1.946v-.294a4.136,4.136,0,0,1,.42-1.946,2.936,2.936,0,0,1,1.176-1.2,3.381,3.381,0,0,1,1.694-.42h.154a3.177,3.177,0,0,1,1.54.364,2.517,2.517,0,0,1,1.036,1.036,3.2,3.2,0,0,1,.378,1.6v.9H223.31a4,4,0,0,0,.21,1.372,1.98,1.98,0,0,0,.63.882,1.738,1.738,0,0,0,1.022.294,1.972,1.972,0,0,0,.9-.2,1.494,1.494,0,0,0,.63-.6,1.964,1.964,0,0,0,.238-1.008h1.316a2.677,2.677,0,0,1-.406,1.484,2.74,2.74,0,0,1-1.106.98,3.485,3.485,0,0,1-1.554.336Zm-1.736-4.382h3.556a2.241,2.241,0,0,0-.462-1.554,1.6,1.6,0,0,0-1.26-.5,1.765,1.765,0,0,0-1.274.518A2.228,2.228,0,0,0,223.324,116.758Zm10.008,6.776v-9.688h1.05l.2.994a2.424,2.424,0,0,1,.91-.826,2.666,2.666,0,0,1,1.3-.308,2.9,2.9,0,0,1,1.456.364,2.479,2.479,0,0,1,1.05,1.148,4.78,4.78,0,0,1,.392,2.1v.266a4.375,4.375,0,0,1-.392,1.946,2.782,2.782,0,0,1-1.022,1.2,2.526,2.526,0,0,1-1.4.406,2.709,2.709,0,0,1-1.3-.294,2.369,2.369,0,0,1-.84-.756v3.444Zm3.164-3.4a1.6,1.6,0,0,0,.882-.252,1.67,1.67,0,0,0,.616-.756,3.055,3.055,0,0,0,.224-1.246v-.784a3.536,3.536,0,0,0-.224-1.386,1.572,1.572,0,0,0-.616-.77,1.661,1.661,0,0,0-.882-.238,1.712,1.712,0,0,0-.882.238,1.622,1.622,0,0,0-.658.742,3.416,3.416,0,0,0-.238,1.4v.8a2.957,2.957,0,0,0,.238,1.26,1.61,1.61,0,0,0,1.54.994Zm6.928,1.008a3.407,3.407,0,0,1-1.106-.182,1.824,1.824,0,0,1-.854-.616,2.028,2.028,0,0,1-.322-1.2,2.051,2.051,0,0,1,.336-1.232,2.2,2.2,0,0,1,.98-.728,5.682,5.682,0,0,1,1.526-.336q.9-.084,1.96-.084v-.728a1.259,1.259,0,0,0-.378-1.05,1.785,1.785,0,0,0-1.162-.308,2.217,2.217,0,0,0-1.162.294.957.957,0,0,0-.49.9v.168h-1.358a.738.738,0,0,1-.014-.14v-.168a1.6,1.6,0,0,1,.378-1.064,2.434,2.434,0,0,1,1.05-.7,4.326,4.326,0,0,1,1.526-.252h.2a3.282,3.282,0,0,1,2.1.56,1.94,1.94,0,0,1,.7,1.61v3.794a.5.5,0,0,0,.112.364.364.364,0,0,0,.266.112,1.025,1.025,0,0,0,.322-.056,1.421,1.421,0,0,0,.322-.14v.9a1.249,1.249,0,0,1-.448.21,2.1,2.1,0,0,1-.63.084,1.4,1.4,0,0,1-.728-.168,1.083,1.083,0,0,1-.392-.476,2.069,2.069,0,0,1-.154-.658,2.709,2.709,0,0,1-1.064.966A3.224,3.224,0,0,1,243.424,121.14Zm.56-.994a2.181,2.181,0,0,0,.938-.21,1.786,1.786,0,0,0,.728-.672,2,2,0,0,0,.294-1.12v-.532a12.485,12.485,0,0,0-1.806.112,2.532,2.532,0,0,0-1.162.392,1.064,1.064,0,0,0-.392.91,1,1,0,0,0,.35.854A1.728,1.728,0,0,0,243.984,120.146Zm5.974.854v-7.154h1.036l.2,1.05q.014-.029.126-.21a2.261,2.261,0,0,1,.336-.406,2.044,2.044,0,0,1,.6-.406,2.271,2.271,0,0,1,.924-.168,2.21,2.21,0,0,1,1.218.308,1.733,1.733,0,0,1,.714.812,2.794,2.794,0,0,1,.238,1.176c0,.093-.005.191-.014.294a2.157,2.157,0,0,0-.014.224h-1.2v-.266a1.834,1.834,0,0,0-.126-.644,1.146,1.146,0,0,0-.406-.574,1.495,1.495,0,0,0-1.5-.07,1.428,1.428,0,0,0-.434.42,1.865,1.865,0,0,0-.224.532,2.13,2.13,0,0,0-.07.518V121Zm6.877,0V110.92h1.4v6.846l3.3-3.92h1.652l-2.856,3.3,3.024,3.85h-1.694l-2.282-2.884-1.148,1.162V121Z" fill="#162466"/>
  <circle id="Ellipse_3" data-name="Ellipse 3" cx="12.5" cy="12.5" r="12.5" transform="translate(33 104)" fill="#162466"/>
  <rect id="Rectangle_11" data-name="Rectangle 11" width="127" height="10" rx="5" transform="translate(68 138)" fill="#fff"/>
  <rect id="Rectangle_12" data-name="Rectangle 12" width="97" height="10" rx="5" transform="translate(68 155)" fill="#fff"/>
  <path id="Path_27" data-name="Path 27" d="M185,69a9,9,0,0,1,9-9h60.424a9,9,0,0,1,4.787,1.379l12.865,8.081a3,3,0,0,1,0,5.081l-12.865,8.081A9,9,0,0,1,254.424,84H194a9,9,0,0,1-9-9Z" fill="#fff" stroke="#ffbe00" stroke-width="2"/>
  <path id="Path_28" data-name="Path 28" d="M263.648,159.059l-4.5,4.5a1.119,1.119,0,0,1-1.582-1.582l2.567-2.6H247.125A1.11,1.11,0,0,1,246,158.25a1.09,1.09,0,0,1,1.125-1.125h13.008l-2.567-2.566a1.119,1.119,0,0,1,1.582-1.582l4.5,4.5A1.084,1.084,0,0,1,263.648,159.059Z" fill="#162466"/>
  <path id="Path_29" data-name="Path 29" d="M127,69a9,9,0,0,1,9-9h60.424a9,9,0,0,1,4.787,1.379l12.865,8.081a3,3,0,0,1,0,5.081l-12.865,8.081A9,9,0,0,1,196.424,84H136a9,9,0,0,1-9-9Z" fill="#fff" stroke="#ffbe00" stroke-width="2"/>
  <path id="Path_30" data-name="Path 30" d="M66,69a9,9,0,0,1,9-9h60.424a9,9,0,0,1,4.787,1.379l12.865,8.081a3,3,0,0,1,0,5.081l-12.865,8.081A9,9,0,0,1,135.424,84H75a9,9,0,0,1-9-9Z" fill="#fff" stroke="#ffbe00" stroke-width="2"/>
  <path id="Path_31" data-name="Path 31" d="M20,69A10,10,0,0,1,30,59H78.615a10,10,0,0,1,6.075,2.056l10.156,7.766a4,4,0,0,1,0,6.355L84.689,82.944A10,10,0,0,1,78.615,85H30A10,10,0,0,1,20,75Z" fill="#162466"/>
  <path id="Path_32" data-name="Path 32" d="M42.245,121v-1.65h2.55v-6.36h-2.55v-1.215a7.567,7.567,0,0,0,1.215-.21,10.756,10.756,0,0,0,1.365-.435q.69-.27,1.29-.57h.735v8.79h2.505V121Z" fill="#fff"/>
  <path id="Path_33" data-name="Path 33" d="M240.19,77V74.51h-4.6V72.9q.21-.36.51-.93t.63-1.275q.345-.69.66-1.425.33-.75.6-1.455t.435-1.26h1.89a8.986,8.986,0,0,1-.42,1.32q-.285.705-.645,1.455-.345.75-.735,1.44t-.765,1.245a8.155,8.155,0,0,1-.66.9h3.1V70.43a4.088,4.088,0,0,0,.315-.54q.165-.33.33-.69t.315-.7a4.965,4.965,0,0,0,.2-.585h.855v5.01h1.365v1.59H242.2V77Z" fill="#162466"/>
  <path id="Path_34" data-name="Path 34" d="M178.215,77.15a4.512,4.512,0,0,1-1.935-.375,2.818,2.818,0,0,1-1.2-1.05,2.887,2.887,0,0,1-.4-1.515v-.285h1.875a1.46,1.46,0,0,0,.525,1.275,2.469,2.469,0,0,0,1.4.36,2.258,2.258,0,0,0,1.38-.39,1.381,1.381,0,0,0,.54-1.2,1.446,1.446,0,0,0-.24-.87,1.339,1.339,0,0,0-.615-.51,2.172,2.172,0,0,0-.855-.165h-1.395V71.06h1.23a1.989,1.989,0,0,0,.81-.165,1.372,1.372,0,0,0,.615-.495,1.432,1.432,0,0,0,.225-.825,1.266,1.266,0,0,0-.225-.78,1.314,1.314,0,0,0-.615-.465,2.212,2.212,0,0,0-.87-.165,1.9,1.9,0,0,0-1.26.39,1.39,1.39,0,0,0-.45,1.11H174.96V69.35a2.321,2.321,0,0,1,.465-1.44,3.134,3.134,0,0,1,1.26-.99,4.356,4.356,0,0,1,1.815-.36h.3a4.076,4.076,0,0,1,1.755.36,2.836,2.836,0,0,1,1.2.975,2.373,2.373,0,0,1,.45,1.44,2.435,2.435,0,0,1-.2,1,2.25,2.25,0,0,1-.54.75,3.285,3.285,0,0,1-.81.51v.09a2.791,2.791,0,0,1,1.3.855,2.336,2.336,0,0,1,.51,1.59,2.611,2.611,0,0,1-.5,1.56,3.344,3.344,0,0,1-1.365,1.065,4.832,4.832,0,0,1-2,.39Z" fill="#162466"/>
  <path id="Path_35" data-name="Path 35" d="M46.245,77V75.35h2.55V68.99h-2.55V67.775a7.567,7.567,0,0,0,1.215-.21,10.756,10.756,0,0,0,1.365-.435q.69-.27,1.29-.57h.735v8.79h2.505V77Z" fill="#fff"/>
  <path id="Path_36" data-name="Path 36" d="M114.81,77v-.5a3.388,3.388,0,0,1,.36-1.59,3.534,3.534,0,0,1,1.125-1.23l2.85-2.07a2.966,2.966,0,0,0,.75-.795,1.9,1.9,0,0,0,.3-1.05,1.481,1.481,0,0,0-.435-1.14,1.751,1.751,0,0,0-1.26-.4,1.822,1.822,0,0,0-.9.225,1.543,1.543,0,0,0-.615.6,1.629,1.629,0,0,0-.225.855V70.1a1.384,1.384,0,0,0,.015.195h-1.89V70.01a3.477,3.477,0,0,1,.45-1.77,3.321,3.321,0,0,1,1.29-1.23,3.98,3.98,0,0,1,1.935-.45h.285a3.954,3.954,0,0,1,1.845.4,2.739,2.739,0,0,1,1.185,1.1,3.163,3.163,0,0,1,.42,1.65,3.228,3.228,0,0,1-.27,1.365,3.622,3.622,0,0,1-.735,1.05,9.138,9.138,0,0,1-1.08.885l-2.19,1.545q-.12.09-.255.21a1.724,1.724,0,0,0-.24.225.97.97,0,0,0-.135.24h4.935V77Z" fill="#162466"/>
</svg>
