<svg xmlns="http://www.w3.org/2000/svg" width="17" height="17" viewBox="0 0 17 17">
    <path fill="#6B6B6B" fillRule="nonzero" d="M8.5 0A8.496 8.496 0 0 0 0 8.5C0 13.197 3.803 17 8.5 17c1.253 0 2.55-.313 3.803-.895l-.76-1.61c-.985.447-2.014.716-2.998.716A6.702 6.702 0 0 1 1.835 8.5a6.702 6.702 0 0 1 6.71-6.71 6.702 6.702 0 0 1 6.71 6.71c0 2.908-.85 2.908-1.476 2.908-1.3 0-1.208-2.877-1.208-6.263 0-.403-.268-.716-.626-.85C7.724 2.536 3.848 3.813 3.848 8.5c0 4.578 3.58 5.4 7.874 3.758.447.581 1.073.984 2.013.984C17 13.197 17 9.663 17 8.5 17 3.803 13.197 0 8.5 0zM5.592 8.5c0-3.18 2.374-3.719 5.145-2.729 0 2.025-.04 3.5.268 4.832-3.05 1.101-5.413 1.114-5.413-2.103z"/>
</svg>
