<svg width="303" height="223" viewBox="0 0 303 223" fill="none" xmlns="http://www.w3.org/2000/svg">
<rect width="303" height="223" fill="#D7F1F0"/>
<rect x="35" y="35" width="234" height="154" rx="4" fill="white"/>
<path d="M67 73H237V163C237 164.657 235.657 166 234 166H70C68.3432 166 67 164.657 67 163V73Z" fill="#F5FCFC"/>
<rect x="123" y="110" width="58" height="46" rx="8" fill="#024766"/>
<path d="M134 99.7503C134 78.7499 170 78.75 170 99.7502" stroke="#0C7986" stroke-width="8"/>
<path d="M70 55.25H234C236.623 55.25 238.75 57.3767 238.75 60V163C238.75 165.623 236.623 167.75 234 167.75H70C67.3766 167.75 65.25 165.623 65.25 163V60C65.25 57.3766 67.3766 55.25 70 55.25Z" stroke="#408599" stroke-width="2.5"/>
<line x1="66" y1="71.75" x2="240" y2="71.75" stroke="#408599" stroke-width="2.5"/>
<path d="M140.719 127.625L141.797 131.898L143.023 127.625H145.75V139H143.734V135.633L143.828 130.312L142.336 135.25H141.25L139.914 130.523L140.008 135.633V139H137.992V127.625H140.719ZM156.011 135.438C155.975 136.01 155.85 136.526 155.636 136.984C155.428 137.443 155.147 137.833 154.792 138.156C154.438 138.479 154.016 138.729 153.527 138.906C153.037 139.078 152.496 139.164 151.902 139.164C151.433 139.164 150.998 139.104 150.597 138.984C150.201 138.859 149.845 138.682 149.527 138.453C149.235 138.24 148.975 137.982 148.746 137.68C148.522 137.378 148.332 137.044 148.175 136.68C148.024 136.315 147.907 135.914 147.824 135.477C147.746 135.039 147.707 134.576 147.707 134.086V132.555C147.707 132.096 147.743 131.661 147.816 131.25C147.889 130.833 147.998 130.448 148.144 130.094C148.311 129.661 148.529 129.276 148.8 128.938C149.071 128.599 149.378 128.312 149.722 128.078C150.029 127.88 150.365 127.729 150.73 127.625C151.1 127.516 151.496 127.461 151.917 127.461C152.542 127.461 153.097 127.549 153.582 127.727C154.071 127.904 154.488 128.156 154.832 128.484C155.175 128.812 155.446 129.214 155.644 129.688C155.842 130.161 155.967 130.695 156.019 131.289H153.832C153.811 130.951 153.759 130.654 153.675 130.398C153.597 130.143 153.483 129.93 153.332 129.758C153.175 129.591 152.98 129.466 152.746 129.383C152.516 129.294 152.24 129.25 151.917 129.25C151.746 129.25 151.584 129.268 151.433 129.305C151.287 129.341 151.152 129.396 151.027 129.469C150.813 129.594 150.631 129.773 150.48 130.008C150.334 130.237 150.217 130.505 150.128 130.812C150.061 131.052 150.011 131.318 149.98 131.609C149.949 131.896 149.933 132.206 149.933 132.539V134.086C149.933 134.539 149.957 134.945 150.003 135.305C150.056 135.659 150.134 135.969 150.238 136.234C150.311 136.417 150.397 136.578 150.496 136.719C150.6 136.859 150.717 136.977 150.847 137.07C150.988 137.174 151.144 137.253 151.316 137.305C151.493 137.352 151.688 137.375 151.902 137.375C152.188 137.375 152.446 137.339 152.675 137.266C152.904 137.193 153.1 137.078 153.261 136.922C153.423 136.766 153.55 136.565 153.644 136.32C153.738 136.076 153.795 135.781 153.816 135.438H156.011ZM160.538 134.828V139H158.343V127.625H162.233C162.853 127.625 163.413 127.716 163.913 127.898C164.413 128.076 164.84 128.323 165.194 128.641C165.543 128.964 165.812 129.349 165.999 129.797C166.192 130.245 166.288 130.742 166.288 131.289C166.288 131.799 166.192 132.271 165.999 132.703C165.812 133.135 165.543 133.508 165.194 133.82C164.84 134.138 164.413 134.385 163.913 134.562C163.413 134.74 162.853 134.828 162.233 134.828H160.538ZM160.538 133.047H162.233C162.546 133.047 162.817 133 163.046 132.906C163.275 132.812 163.468 132.685 163.624 132.523C163.775 132.362 163.887 132.177 163.96 131.969C164.038 131.755 164.077 131.534 164.077 131.305C164.077 131.039 164.038 130.792 163.96 130.562C163.887 130.333 163.775 130.133 163.624 129.961C163.468 129.789 163.275 129.654 163.046 129.555C162.817 129.456 162.546 129.406 162.233 129.406H160.538V133.047Z" fill="#D5F2F2"/>
<line x1="134" y1="99" x2="134" y2="110" stroke="#0C7986" stroke-width="8"/>
<line x1="170" y1="99" x2="170" y2="110" stroke="#0C7986" stroke-width="8"/>
<circle cx="75" cy="64" r="3" fill="#408599"/>
<circle cx="86" cy="64" r="3" fill="#408599"/>
<circle cx="97" cy="64" r="3" fill="#408599"/>
<path d="M181 126.5C181 126.5 182.5 126.5 185 125.503C187.5 124.505 191.624 120.503 195 116.003C198.377 111.502 205.934 108.596 217.5 110" stroke="#A6DADB"/>
<path d="M85 111C85 111 92 111 97 112C102 113 104.5 115.5 108.5 121C112.5 126.499 113.5 127 123 126.5" stroke="#A6DADB"/>
<path d="M91.5 122C91.5 122 98 122 101 122.5C104 123 104.5 124.5 108.5 128.5C112.5 132.5 120 131.5 123 131.5" stroke="#A6DADB"/>
<path d="M181 131.5C181 131.5 188.5 131.497 191 130.499C193.5 129.502 192.5 128.999 196 125.999C199.5 123 200.5 122.5 205.5 122.5" stroke="#A6DADB"/>
<path d="M181 135.5C181 135.5 187.5 135.25 192.5 137.25C197.5 139.25 196.5 140.25 200 142.25C203.5 144.25 204.5 144.25 210 144.25" stroke="#A6DADB"/>
<circle cx="221" cy="110" r="4" fill="#4DB1B2"/>
<circle cx="210.5" cy="122" r="2" fill="#A9DEE0"/>
<circle cx="215" cy="144.75" r="2" fill="#4BABAC"/>
<circle cx="80" cy="111" r="2" fill="#A3D9D8"/>
<circle cx="86" cy="122" r="2" fill="#2DA1A5"/>
<path d="M98 144.625C98 144.625 102.245 144.625 104.604 143.581C106.962 142.538 109.321 137.32 112.151 136.277C114.981 135.234 120.17 135.5 123 135.5" stroke="#A6DADB"/>
<circle cx="94.5" cy="144.125" r="3.5" fill="#2E9B9D"/>
</svg>
