<svg width="477" height="138" viewBox="0 0 477 138" fill="none" xmlns="http://www.w3.org/2000/svg">
  <rect x="115.014" y="48.6638" width="17" height="17" rx="2" transform="rotate(18 115.014 48.6638)" fill="#80CFD8" />
  <rect opacity="0.0338399" x="16.7603" y="62.6638" width="17" height="17" rx="2" transform="rotate(-170.368 16.7603 62.6638)" fill="#80CFD8" />
  <rect opacity="0.469507" x="269.76" y="83.6638" width="17" height="17" rx="2" transform="rotate(135.379 269.76 83.6638)" fill="#80CFD8" />
  <rect opacity="0.506389" x="338.76" y="100.664" width="12" height="12" rx="2" transform="rotate(-6.08579 338.76 100.664)" fill="#80CFD8" />
  <rect opacity="0.106245" x="457.76" y="29.6638" width="17" height="17" rx="2" transform="rotate(-8.11439 457.76 29.6638)" fill="#80CFD8" />
  <path opacity="0.370054" d="M166.289 119.37L168.749 133.007L155.709 128.319L166.289 119.37Z" fill="#FF672F" />
  <path opacity="0.902804" d="M40.7952 30.7341L28.7648 37.6094L28.8257 23.7532L40.7952 30.7341Z" fill="#FF672F" fill-opacity="0.3" />
  <path opacity="0.567912" d="M413.514 70.5502L399.889 73.0706L404.519 60.0106L413.514 70.5502Z" fill="#FF672F" />
  <circle cx="139.76" cy="93.6638" r="4" fill="#32B67A" />
  <circle opacity="0.706472" cx="335.544" cy="10.5542" r="5.5" transform="rotate(-3.0429 335.544 10.5542)" fill="#32B67A" fill-opacity="0.2" />
  <circle opacity="0.822581" cx="321.864" cy="61.3504" r="6.5" transform="rotate(149.576 321.864 61.3504)" fill="#32B67A" />
  <circle opacity="0.126479" cx="171.211" cy="8.83194" r="6.5" transform="rotate(-151.099 171.211 8.83194)" fill="#32B67A" />
  <circle opacity="0.98217" cx="83.9279" cy="39.3557" r="5" transform="rotate(170.873 83.9279 39.3557)" fill="#32B67A" fill-opacity="0.2" />
  <circle opacity="0.800979" cx="193.015" cy="104.015" r="6.5" transform="rotate(56.2815 193.015 104.015)" fill="#32B67A" />
</svg>
