<svg width="32" height="26" viewBox="0 0 32 26" version="1.1" xmlns="http://www.w3.org/2000/svg" xmlns:xlink="http://www.w3.org/1999/xlink">
<title>Shape</title>
<desc>Created using Figma</desc>
<g id="Canvas" transform="translate(3848 380)">
<g id="Shape">
<use xlink:href="#path0_fill" transform="translate(-3848 -379.606)"/>
</g>
</g>
<defs>
<path id="path0_fill" fill-rule="evenodd" d="M 15.9785 0.000183105C 15.8105 0.00372314 15.6541 0.0584717 15.5034 0.160217L 0.303467 11.9784C -0.0463867 12.255 -0.0959473 12.7654 0.166016 13.0986C 0.424072 13.4271 0.9729 13.4797 1.30347 13.2217L 16.0034 1.79755L 30.7034 13.2217C 31.0339 13.4797 31.5679 13.4251 31.8284 13.0986C 32.0872 12.7747 32.0593 12.2364 31.7034 11.9784L 26.0034 7.54657L 26.0034 0.788025C 26.0034 0.352966 25.6453 0.000244141 25.2034 0.000183105L 22.0034 0.000183105C 21.5615 0.000244141 21.2034 0.352966 21.2034 0.788025L 21.2034 3.81647L 16.5034 0.160217C 16.3254 0.0446777 16.1462 -0.0032959 15.9785 0.000183105ZM 22.8035 1.57593L 24.4036 1.57593L 24.4036 6.30322L 22.8035 5.05981L 22.8035 1.57593ZM 4.40356 11.843L 6.00366 10.5996L 6.00366 23.6365L 12.0037 23.6365L 12.0037 16.5457C 12.0037 16.1105 12.3618 15.7578 12.8035 15.7578L 19.2036 15.7578C 19.6453 15.7578 20.0034 16.1105 20.0037 16.5457L 20.0037 23.6365L 26.0037 23.6365L 26.0037 10.5996L 27.6035 11.843L 27.6035 24.4244C 27.6035 24.8596 27.2454 25.2123 26.8035 25.2123L 19.2036 25.2123C 18.7617 25.2123 18.4036 24.8596 18.4036 24.4244L 18.4036 17.3335L 13.6035 17.3335L 13.6035 24.4244C 13.6035 24.8596 13.2454 25.2123 12.8035 25.2123L 5.20361 25.2123C 4.76172 25.2123 4.40356 24.8596 4.40356 24.4244L 4.40356 11.843Z"/>
</defs>
</svg>
