<svg width="16" height="21" viewBox="0 0 16 21" version="1.1" xmlns="http://www.w3.org/2000/svg" xmlns:xlink="http://www.w3.org/1999/xlink">
<title>Shape</title>
<desc>Created using Figma</desc>
<g id="Canvas" transform="translate(3761 374)">
<g id="Shape">
<use xlink:href="#path0_fill" transform="translate(-3760.37 -373.504)"/>
</g>
</g>
<defs>
<path id="path0_fill" fillRule="evenodd" d="M 7.54468 0C 3.38428 0 0 3.21423 0 7.16541C 0 9.60168 1.28271 11.7411 3.2334 13.0411L 3.2334 15.3545C 3.2334 15.9175 3.71851 16.3781 4.31128 16.3781L 10.7783 16.3781C 11.3711 16.3781 11.8562 15.9175 11.8562 15.3545L 11.8562 13.0411C 13.8069 11.7411 15.0896 9.60168 15.0896 7.16541C 15.0896 3.21423 11.7053 0 7.54468 0ZM 4.31128 19.449C 4.31128 20.012 4.79639 20.4726 5.38916 20.4726L 9.70044 20.4726C 10.2932 20.4726 10.7783 20.012 10.7783 19.449L 10.7783 18.4254L 4.31128 18.4254L 4.31128 19.449ZM 9.70044 11.9765L 10.6167 11.3623C 12.0718 10.4001 12.9341 8.83392 12.9341 7.16541C 12.9341 4.34015 10.5198 2.04724 7.54492 2.04724C 4.57007 2.04724 2.15576 4.34015 2.15576 7.16541C 2.15576 8.83392 3.01807 10.4001 4.47314 11.3623L 5.38916 11.9765L 5.38916 14.3308L 9.70044 14.3308L 9.70044 11.9765Z"/>
</defs>
</svg>
