<svg width="32" height="29" viewBox="0 0 32 29" version="1.1" xmlns="http://www.w3.org/2000/svg" xmlns:xlink="http://www.w3.org/1999/xlink">
<title>Group 5</title>
<desc>Created using Figma</desc>
<g id="Canvas" transform="translate(3769 382)">
<g id="Group 5">
<g id="Rectangle 2">
<use xlink:href="#path0_fill" transform="translate(-3768.32 -382)"/>
</g>
<mask id="mask0_outline" mask-type="alpha">
<g id="a">
<use xlink:href="#path1_fill" transform="translate(-3765.76 -375.551)" fill="#FFFFFF"/>
</g>
</mask>
<g id="Shape" mask="url(#mask0_outline)">
<use xlink:href="#path2_fill" transform="translate(-3760.37 -373.504)"/>
</g>
</g>
</g>
<defs>
<path id="path0_fill" fill-rule="evenodd" d="M 14.5234 1.13171C 14.5234 0.506714 15.03 0 15.6553 0C 16.2803 0 16.7869 0.506714 16.7869 1.13171L 16.7869 4.08881C 16.7869 4.71381 16.2803 5.22052 15.6553 5.22052C 15.03 5.22052 14.5234 4.71381 14.5234 4.08881L 14.5234 1.13171ZM 26.5835 5.59863C 27.0691 5.20526 27.7817 5.28021 28.175 5.76593C 28.5684 6.25165 28.4937 6.96429 28.0078 7.35767L 25.7097 9.21863C 25.2239 9.61194 24.5112 9.53705 24.1179 9.05133C 23.7246 8.56555 23.7996 7.85291 24.2854 7.45959L 26.5835 5.59863ZM 31.281 18.7775C 31.4216 18.1685 31.042 17.5609 30.4329 17.4202L 27.5518 16.755C 26.9426 16.6144 26.335 16.9941 26.1943 17.6031C 26.0537 18.2122 26.4333 18.8198 27.0425 18.9604L 29.9238 19.6257C 30.5327 19.7662 31.1404 19.3865 31.281 18.7775ZM 1.38672 19.6257C 0.777588 19.7663 0.169922 19.3865 0.0292969 18.7775C -0.111328 18.1685 0.268555 17.5609 0.877441 17.4202L 3.75879 16.7551C 4.36768 16.6144 4.97559 16.9941 5.11597 17.6031C 5.25659 18.2122 4.87695 18.8199 4.26782 18.9604L 1.38672 19.6257ZM 3.13525 5.76587C 2.74194 6.25159 2.81689 6.96423 3.30249 7.3576L 5.60059 9.21857C 6.08643 9.61188 6.79907 9.53699 7.19238 9.05127C 7.58569 8.56549 7.51074 7.85291 7.02515 7.45953L 4.72705 5.59857C 4.24121 5.20526 3.52856 5.28015 3.13525 5.76587Z"/>
<path id="path1_fill" fill-rule="evenodd" d="M 0 0L 25.8679 0L 25.8679 24.5672L 0 24.5672L 0 0Z"/>
<path id="path2_fill" fill-rule="evenodd" d="M 7.54468 0C 3.38428 0 0 3.21423 0 7.16541C 0 9.60168 1.28271 11.7411 3.2334 13.0411L 3.2334 15.3545C 3.2334 15.9175 3.71851 16.3781 4.31128 16.3781L 10.7783 16.3781C 11.3711 16.3781 11.8562 15.9175 11.8562 15.3545L 11.8562 13.0411C 13.8069 11.7411 15.0896 9.60168 15.0896 7.16541C 15.0896 3.21423 11.7053 0 7.54468 0ZM 4.31128 19.449C 4.31128 20.012 4.79639 20.4726 5.38916 20.4726L 9.70044 20.4726C 10.2932 20.4726 10.7783 20.012 10.7783 19.449L 10.7783 18.4254L 4.31128 18.4254L 4.31128 19.449ZM 9.70044 11.9765L 10.6167 11.3623C 12.0718 10.4001 12.9341 8.83392 12.9341 7.16541C 12.9341 4.34015 10.5198 2.04724 7.54492 2.04724C 4.57007 2.04724 2.15576 4.34015 2.15576 7.16541C 2.15576 8.83392 3.01807 10.4001 4.47314 11.3623L 5.38916 11.9765L 5.38916 14.3308L 9.70044 14.3308L 9.70044 11.9765Z"/>
</defs>
</svg>
