<svg width="28" height="28" viewBox="0 0 28 28" version="1.1" xmlns="http://www.w3.org/2000/svg" xmlns:xlink="http://www.w3.org/1999/xlink">
<title>Group</title>
<desc>Created using Figma</desc>
<g id="Canvas" transform="translate(3592 381)">
<g id="Group">
<g id="Shape">
<use xlink:href="#path0_fill" transform="translate(-3591.9 -380.898)"/>
</g>
<g id="Shape">
<use xlink:href="#path1_fill" transform="translate(-3583.46 -375.776)"/>
</g>
</g>
</g>
<defs>
<path id="path0_fill" fill-rule="evenodd" d="M 27.7952 13.8976C 27.7952 6.21466 21.5806 0 13.8975 0C 6.2146 0 0 6.21466 0 13.8976C 0 21.5805 6.2146 27.7951 13.8975 27.7951C 21.5806 27.7951 27.7952 21.5805 27.7952 13.8976ZM 1.36597 13.8976C 1.36597 6.96582 7 1.36584 13.8977 1.36584C 20.7952 1.36584 26.4294 6.96582 26.4294 13.8976C 26.4294 17.4146 24.9951 20.5902 22.6392 22.8439C 20.8293 19.7366 17.5171 17.8244 13.8635 17.8244C 10.2439 17.8244 6.89771 19.7708 5.08789 22.8439C 2.80005 20.5902 1.36597 17.4146 1.36597 13.8976ZM 13.8975 19.1902C 10.6877 19.1902 7.71704 20.9659 6.18042 23.7659C 8.29761 25.439 10.9951 26.4293 13.8975 26.4293C 16.8 26.4293 19.4976 25.439 21.6145 23.7659C 20.0779 20.9317 17.1414 19.1902 13.8975 19.1902Z"/>
<path id="path1_fill" fill-rule="evenodd" d="M 10.9268 5.46344C 10.9268 8.46832 8.46826 10.9268 5.46338 10.9268C 2.4585 10.9268 0 8.46832 0 5.46344C 0 2.45856 2.4585 0 5.46338 0C 8.46826 0 10.9268 2.45856 10.9268 5.46344ZM 9.56104 5.46338C 9.56104 3.20972 7.71729 1.36584 5.46362 1.36584C 3.20996 1.36584 1.36597 3.20972 1.36597 5.46338C 1.36597 7.71704 3.20996 9.56097 5.46362 9.56097C 7.71729 9.56097 9.56104 7.71704 9.56104 5.46338Z"/>
</defs>
</svg>
