<svg width="32" height="34" viewBox="0 0 32 34" version="1.1" xmlns="http://www.w3.org/2000/svg" xmlns:xlink="http://www.w3.org/1999/xlink">
<title>Group</title>
<desc>Created using Figma</desc>
<g id="Canvas" transform="translate(3684 383)">
<g id="Group">
<g id="Shape">
<use xlink:href="#path0_stroke" transform="translate(-3680.61 -366.136)"/>
</g>
<g id="Shape">
<use xlink:href="#path0_stroke" transform="translate(-3672.99 -366.136)"/>
</g>
<g id="Shape">
<use xlink:href="#path0_stroke" transform="translate(-3665.38 -366.136)"/>
</g>
<g id="Shape">
<use xlink:href="#path0_stroke" transform="translate(-3657.76 -366.136)"/>
</g>
<g id="Rectangle-path">
<use xlink:href="#path1_stroke" transform="translate(-3682.8 -353.119)"/>
</g>
<g id="Shape">
<use xlink:href="#path2_stroke" transform="translate(-3682.8 -368.847)"/>
</g>
<g id="Shape">
<use xlink:href="#path3_stroke" transform="translate(-3682.8 -374.353)"/>
</g>
<g id="Shape">
<use xlink:href="#path4_stroke" transform="translate(-3668.33 -381.506)"/>
</g>
<g id="Rectangle-path">
<use xlink:href="#path5_stroke" transform="translate(-3667.83 -381.506)"/>
</g>
<g id="Rectangle-path">
<use xlink:href="#path5_stroke" transform="translate(-3664.57 -380.422)"/>
</g>
</g>
</g>
<defs>
<path id="path0_stroke" d="M 0.75 0C 0.75 -0.414214 0.414214 -0.75 0 -0.75C -0.414214 -0.75 -0.75 -0.414214 -0.75 0L 0.75 0ZM 0 13.0169L -0.75 13.0169C -0.75 13.4312 -0.414214 13.7669 1.66533e-16 13.7669L 0 13.0169ZM 2.7193 13.0169L 2.7193 13.7669C 3.13351 13.7669 3.4693 13.4312 3.4693 13.0169L 2.7193 13.0169ZM 3.4693 0C 3.4693 -0.414214 3.13351 -0.75 2.7193 -0.75C 2.30508 -0.75 1.9693 -0.414214 1.9693 0L 3.4693 0ZM -0.75 0L -0.75 13.0169L 0.75 13.0169L 0.75 0L -0.75 0ZM 0 13.7669L 2.7193 13.7669L 2.7193 12.2669L 0 12.2669L 0 13.7669ZM 3.4693 13.0169L 3.4693 0L 1.9693 0L 1.9693 13.0169L 3.4693 13.0169Z"/>
<path id="path1_stroke" d="M 0 0L 0 -0.75C -0.414214 -0.75 -0.75 -0.414214 -0.75 1.66533e-16L 0 0ZM 29.9319 0L 30.6819 0C 30.6819 -0.414214 30.3461 -0.75 29.9319 -0.75L 29.9319 0ZM 29.9319 2.71078L 29.9319 3.46078C 30.3461 3.46078 30.6819 3.12499 30.6819 2.71078L 29.9319 2.71078ZM 0 2.71078L -0.75 2.71078C -0.75 3.12499 -0.414214 3.46078 1.66533e-16 3.46078L 0 2.71078ZM 0 0.75L 29.9319 0.75L 29.9319 -0.75L 0 -0.75L 0 0.75ZM 29.1819 0L 29.1819 2.71078L 30.6819 2.71078L 30.6819 0L 29.1819 0ZM 29.9319 1.96078L 0 1.96078L 0 3.46078L 29.9319 3.46078L 29.9319 1.96078ZM 0.75 2.71078L 0.75 0L -0.75 0L -0.75 2.71078L 0.75 2.71078Z"/>
<path id="path2_stroke" d="M 30.6819 0C 30.6819 -0.414214 30.3461 -0.75 29.9319 -0.75C 29.5176 -0.75 29.1819 -0.414214 29.1819 0L 30.6819 0ZM 29.9319 2.71078L 29.9319 3.46078C 30.3461 3.46078 30.6819 3.12499 30.6819 2.71078L 29.9319 2.71078ZM 0 2.71078L -0.75 2.71078C -0.75 3.12499 -0.414214 3.46078 1.66533e-16 3.46078L 0 2.71078ZM 0.75 0C 0.75 -0.414214 0.414214 -0.75 0 -0.75C -0.414214 -0.75 -0.75 -0.414214 -0.75 0L 0.75 0ZM 29.1819 0L 29.1819 2.71078L 30.6819 2.71078L 30.6819 0L 29.1819 0ZM 29.9319 1.96078L 0 1.96078L 0 3.46078L 29.9319 3.46078L 29.9319 1.96078ZM 0.75 2.71078L 0.75 0L -0.75 0L -0.75 2.71078L 0.75 2.71078Z"/>
<path id="path3_stroke" d="M -0.258965 4.8023C -0.647703 4.94532 -0.846895 5.3764 -0.703873 5.76513C -0.560851 6.15387 -0.129774 6.35306 0.258965 6.21004L -0.258965 4.8023ZM 14.9659 0L 15.2249 -0.703873C 15.0577 -0.765376 14.8741 -0.765376 14.707 -0.703873L 14.9659 0ZM 29.6729 6.21004C 30.0616 6.35306 30.4927 6.15387 30.6357 5.76513C 30.7788 5.3764 30.5796 4.94532 30.1908 4.8023L 29.6729 6.21004ZM 0.258965 6.21004L 15.2249 0.703873L 14.707 -0.703873L -0.258965 4.8023L 0.258965 6.21004ZM 14.707 0.703873L 29.6729 6.21004L 30.1908 4.8023L 15.2249 -0.703873L 14.707 0.703873Z"/>
<path id="path4_stroke" d="M -0.75 7.15336C -0.75 7.56757 -0.414214 7.90336 0 7.90336C 0.414214 7.90336 0.75 7.56757 0.75 7.15336L -0.75 7.15336ZM 0.75 0C 0.75 -0.414214 0.414214 -0.75 0 -0.75C -0.414214 -0.75 -0.75 -0.414214 -0.75 0L 0.75 0ZM 0.75 7.15336L 0.75 0L -0.75 0L -0.75 7.15336L 0.75 7.15336Z"/>
<path id="path5_stroke" d="M 0 0L 0 -0.75C -0.414214 -0.75 -0.75 -0.414214 -0.75 1.66533e-16L 0 0ZM 3.26316 0L 4.01316 0C 4.01316 -0.414214 3.67737 -0.75 3.26316 -0.75L 3.26316 0ZM 3.26316 3.84814L 3.26316 4.59814C 3.67737 4.59814 4.01316 4.26235 4.01316 3.84814L 3.26316 3.84814ZM 0 3.84814L -0.75 3.84814C -0.75 4.26235 -0.414214 4.59814 1.66533e-16 4.59814L 0 3.84814ZM 0 0.75L 3.26316 0.75L 3.26316 -0.75L 0 -0.75L 0 0.75ZM 2.51316 0L 2.51316 3.84814L 4.01316 3.84814L 4.01316 0L 2.51316 0ZM 3.26316 3.09814L 0 3.09814L 0 4.59814L 3.26316 4.59814L 3.26316 3.09814ZM 0.75 3.84814L 0.75 0L -0.75 0L -0.75 3.84814L 0.75 3.84814Z"/>
</defs>
</svg>
