<svg width="40" height="66" viewBox="0 0 33 41" fill="none" xmlns="http://www.w3.org/2000/svg">
<path d="M14.6405 40.25C13.7655 40.25 12.9452 40.0625 12.1795 39.6875C11.4139 39.3125 10.7655 38.7812 10.2342 38.0938L0.812337 26.1406C0.562337 25.8594 0.452962 25.5234 0.484212 25.1328C0.515462 24.7422 0.656087 24.4219 0.906087 24.1719C1.53109 23.5156 2.28109 23.125 3.15609 23C4.03109 22.875 4.84359 23.0469 5.59359 23.5156L9.06234 25.625V10.25C9.06234 9.71875 9.24203 9.27344 9.6014 8.91406C9.96077 8.55469 10.4061 8.375 10.9373 8.375C11.4686 8.375 11.9217 8.55469 12.2967 8.91406C12.6717 9.27344 12.8592 9.71875 12.8592 10.25V19.625H26.8748C28.4373 19.625 29.7655 20.1719 30.8592 21.2656C31.953 22.3594 32.4998 23.6875 32.4998 25.25V32.75C32.4998 34.8125 31.7655 36.5781 30.2967 38.0469C28.828 39.5156 27.0623 40.25 24.9998 40.25H14.6405ZM17.453 15.875C16.9217 15.875 16.4764 15.6953 16.117 15.3359C15.7577 14.9766 15.578 14.5312 15.578 14C15.578 13.9375 15.6561 13.625 15.8123 13.0625C16.0623 12.625 16.2498 12.1797 16.3748 11.7266C16.4998 11.2734 16.5623 10.7812 16.5623 10.25C16.5623 8.6875 16.0155 7.35938 14.9217 6.26562C13.828 5.17188 12.4998 4.625 10.9373 4.625C9.37484 4.625 8.04671 5.17188 6.95296 6.26562C5.85921 7.35938 5.31234 8.6875 5.31234 10.25C5.31234 10.7812 5.37484 11.2734 5.49984 11.7266C5.62484 12.1797 5.81234 12.625 6.06234 13.0625C6.15609 13.2188 6.21859 13.375 6.24984 13.5312C6.28109 13.6875 6.29671 13.8438 6.29671 14C6.29671 14.5312 6.12484 14.9766 5.78109 15.3359C5.43734 15.6953 4.99984 15.875 4.46859 15.875C4.12484 15.875 3.80452 15.7812 3.50765 15.5938C3.21077 15.4062 2.98421 15.1719 2.82796 14.8906C2.42171 14.2031 2.10921 13.4688 1.89046 12.6875C1.67171 11.9062 1.56234 11.0938 1.56234 10.25C1.56234 7.65625 2.4764 5.44531 4.30452 3.61719C6.13265 1.78906 8.34359 0.875 10.9373 0.875C13.5311 0.875 15.742 1.78906 17.5702 3.61719C19.3983 5.44531 20.3123 7.65625 20.3123 10.25C20.3123 11.0938 20.203 11.9062 19.9842 12.6875C19.7655 13.4688 19.453 14.2031 19.0467 14.8906C18.8905 15.1719 18.6717 15.4062 18.3905 15.5938C18.1092 15.7812 17.7967 15.875 17.453 15.875Z" fill="white"/>
</svg>