<svg width="29" height="41" xmlns="http://www.w3.org/2000/svg" xmlns:xlink="http://www.w3.org/1999/xlink">
  <g transform="translate(3 3)">
    <use xlink:href="#path0_fill" fill="#0084ff"/>
    <mask id="a">
      <path fill="#fff" d="M-3-3h29v41H-3z"/>
      <use xlink:href="#path0_fill"/>
    </mask>
    <g mask="url(#a)">
      <use xlink:href="#path1_stroke_2x" fill="#FFF"/>
    </g>
  </g>
  <defs>
    <path id="path0_fill" d="M11.5 0C5.15 0 0 5.173 0 11.55 0 20.212 11.5 33 11.5 33S23 20.212 23 11.55C23 5.173 17.85 0 11.5 0zm0 15.675c-2.267 0-4.107-1.848-4.107-4.125s1.84-4.125 4.107-4.125c2.267 0 4.107 1.848 4.107 4.125s-1.84 4.125-4.107 4.125z"/>
    <path id="path1_stroke_2x" d="M11.5 33l-2.23 2.006 2.23 2.48 2.23-2.48L11.5 33zm0-36C3.48-3-3 3.529-3 11.55h6C3 6.817 6.82 3 11.5 3v-6zM-3 11.55c0 5.338 3.399 11.388 6.26 15.646a81.144 81.144 0 0 0 5.469 7.19 49.36 49.36 0 0 0 .527.605l.009.01.002.003.002.001L11.5 33a1153.96 1153.96 0 0 1 2.232-2.005l-.004-.004-.02-.022a28.584 28.584 0 0 1-.425-.489 72.323 72.323 0 0 1-5.043-6.63C5.351 19.55 3 14.874 3 11.55h-6zM11.5 33a711.974 711.974 0 0 0 2.232 2.005v-.001l.003-.003.01-.01.03-.034a36.769 36.769 0 0 0 .496-.57c.323-.377.8-.944 1.36-1.635a81.17 81.17 0 0 0 4.11-5.556C22.6 22.938 26 16.888 26 11.55h-6c0 3.324-2.351 8-5.24 12.3a72.309 72.309 0 0 1-5.488 7.14l-.003.005L11.5 33zM26 11.55C26 3.529 19.52-3 11.5-3v6c4.68 0 8.5 3.817 8.5 8.55h6zm-14.5 1.125a1.118 1.118 0 0 1-1.107-1.125h-6c0 3.921 3.17 7.125 7.107 7.125v-6zm-1.107-1.125c0-.633.51-1.125 1.107-1.125v-6c-3.936 0-7.107 3.204-7.107 7.125h6zm1.107-1.125c.598 0 1.107.492 1.107 1.125h6c0-3.922-3.17-7.125-7.107-7.125v6zm1.107 1.125c0 .632-.51 1.125-1.107 1.125v6c3.936 0 7.107-3.204 7.107-7.125h-6z"/>
  </defs>
</svg>
