<?xml version="1.0" encoding="utf-8"?>
<!-- Generator: Adobe Illustrator 15.0.0, SVG Export Plug-In . SVG Version: 6.00 Build 0)  -->
<!DOCTYPE svg PUBLIC "-//W3C//DTD SVG 1.1//EN" "http://www.w3.org/Graphics/SVG/1.1/DTD/svg11.dtd">
<svg version="1.1"
	 id="svg2" inkscape:version="0.46" sodipodi:version="0.32" sodipodi:docname="Facebook-reversed.svg" inkscape:output_extension="org.inkscape.output.svg.inkscape" xmlns:inkscape="http://www.inkscape.org/namespaces/inkscape" xmlns:sodipodi="http://sodipodi.sourceforge.net/DTD/sodipodi-0.dtd" xmlns:rdf="http://www.w3.org/1999/02/22-rdf-syntax-ns#" xmlns:svg="http://www.w3.org/2000/svg" xmlns:cc="http://creativecommons.org/ns#" xmlns:dc="http://purl.org/dc/elements/1.1/"
	 xmlns="http://www.w3.org/2000/svg" xmlns:xlink="http://www.w3.org/1999/xlink" x="0px" y="0px" width="216.058px"
	 height="42.762px" viewBox="28.79 28.828 216.058 42.762" enable-background="new 28.79 28.828 216.058 42.762"
	 xml:space="preserve">
<defs>
	
	
		<inkscape:perspective  id="perspective19" sodipodi:type="inkscape:persp3d" inkscape:vp_x="0 : 50 : 1" inkscape:vp_y="0 : 1000 : 0" inkscape:vp_z="266 : 50 : 1" inkscape:persp3d-origin="133 : 33.333333 : 1">
		</inkscape:perspective>
</defs>
<sodipodi:namedview  id="base" inkscape:window-width="880" inkscape:window-height="675" guidetolerance="10.0" gridtolerance="10.0" borderopacity="1.0" inkscape:pageshadow="2" inkscape:pageopacity="0.0" objecttolerance="10.0" bordercolor="#666666" pagecolor="#ffffff" showgrid="false" inkscape:cy="50.231326" inkscape:zoom="2.0451128" inkscape:cx="130.67395" inkscape:window-x="132" inkscape:window-y="66" inkscape:current-layer="g8">
	</sodipodi:namedview>
<g id="g4">
	<rect id="rect6" fill="none" width="266" height="100"/>
</g>
<g id="g8">
	<path id="path10" fill="#3B5998" d="M140.021,49.597c-1.784,0-3.07,0.585-4.374,1.181v13.486c1.249,0.119,1.965,0.119,3.15,0.119
		c4.282,0,4.869-1.961,4.869-4.699v-6.441C143.666,51.221,142.995,49.597,140.021,49.597z M111.583,48.861
		c-2.971,0-3.649,1.631-3.649,3.651v1.135h7.294v-1.135C115.228,50.492,114.55,48.861,111.583,48.861z M56.493,62.898
		c0,1.598,0.754,2.428,2.418,2.428c1.785,0,2.842-0.582,4.145-1.18v-3.199h-3.903C57.305,60.947,56.493,61.291,56.493,62.898z
		 M167.684,49.597c-2.976,0-4.007,1.624-4.007,3.646v7.379c0,2.027,1.031,3.656,4.007,3.656c2.968,0,4.007-1.629,4.007-3.656v-7.379
		C171.69,51.221,170.651,49.597,167.684,49.597z M41.909,71.172h-8.748V49.998H28.79v-7.296h4.372V38.32
		c0-5.953,2.467-9.492,9.479-9.492h5.838v7.298H44.83c-2.73,0-2.91,1.02-2.91,2.923l-0.011,3.652h6.61l-0.773,7.296h-5.837V71.172z
		 M71.806,71.227h-7.291L64.2,69.383c-3.329,1.844-6.3,2.143-8.26,2.143c-5.347,0-8.193-3.572-8.193-8.512
		c0-5.828,3.321-7.908,9.262-7.908h6.047v-1.26c0-2.975-0.341-3.848-4.916-3.848h-7.48l0.731-7.296h8.176
		c10.038,0,12.239,3.171,12.239,11.203V71.227z M96.599,50.533c-4.537-0.778-5.84-0.949-8.023-0.949
		c-3.921,0-5.106,0.865-5.106,4.195v6.299c0,3.33,1.185,4.199,5.106,4.199c2.183,0,3.486-0.174,8.023-0.955v7.117
		c-3.974,0.891-6.563,1.125-8.751,1.125c-9.392,0-13.125-4.939-13.125-12.074v-5.111c0-7.141,3.733-12.089,13.125-12.089
		c2.188,0,4.777,0.235,8.751,1.13V50.533z M123.975,59.49h-16.042v0.588c0,3.33,1.186,4.199,5.106,4.199
		c3.524,0,5.675-0.174,10.204-0.955v7.117c-4.368,0.891-6.644,1.125-10.929,1.125c-9.393,0-13.128-4.939-13.128-12.074v-5.844
		c0-6.243,2.771-11.356,12.396-11.356s12.393,5.054,12.393,11.356V59.49z M152.412,59.625c0,6.896-1.971,11.926-13.911,11.926
		c-4.312,0-6.841-0.379-11.6-1.111v-39.42l8.745-1.459v13.789c1.89-0.702,4.336-1.059,6.562-1.059
		c8.746,0,10.203,3.921,10.203,10.222V59.625z M180.445,59.775c0,5.949-2.456,11.719-12.732,11.719
		c-10.281,0-12.783-5.77-12.783-11.719v-5.744c0-5.952,2.502-11.723,12.783-11.723c10.276,0,12.732,5.771,12.732,11.723V59.775z
		 M208.459,59.775c0,5.949-2.459,11.719-12.733,11.719c-10.281,0-12.783-5.77-12.783-11.719v-5.744
		c0-5.952,2.502-11.723,12.783-11.723c10.274,0,12.733,5.771,12.733,11.723V59.775z M237.208,71.172h-9.479l-8.017-13.383v13.383
		h-8.748V31.019l8.748-1.459v25.849l8.017-12.707h9.479l-8.752,13.867L237.208,71.172z M195.696,49.597
		c-2.971,0-4.002,1.624-4.002,3.646v7.379c0,2.027,1.031,3.656,4.002,3.656c2.967,0,4.017-1.629,4.017-3.656v-7.379
		C199.713,51.221,198.663,49.597,195.696,49.597z"/>
	<path id="path12" fill="#3B5998" d="M242.201,66.178c1.473,0,2.646,1.201,2.646,2.701c0,1.523-1.174,2.711-2.657,2.711
		c-1.476,0-2.673-1.188-2.673-2.711c0-1.5,1.197-2.701,2.673-2.701H242.201z M242.19,66.598c-1.187,0-2.158,1.021-2.158,2.281
		c0,1.283,0.972,2.291,2.169,2.291c1.198,0.012,2.155-1.008,2.155-2.279s-0.957-2.293-2.155-2.293H242.19z M241.687,70.451h-0.48
		v-3.014c0.252-0.035,0.492-0.07,0.852-0.07c0.456,0,0.754,0.096,0.937,0.227c0.177,0.133,0.272,0.336,0.272,0.623
		c0,0.398-0.262,0.637-0.585,0.734v0.023c0.263,0.049,0.442,0.287,0.503,0.73c0.07,0.469,0.143,0.648,0.19,0.746h-0.503
		c-0.071-0.098-0.144-0.373-0.204-0.77c-0.07-0.383-0.264-0.527-0.648-0.527h-0.333V70.451z M241.687,68.783h0.348
		c0.394,0,0.729-0.145,0.729-0.518c0-0.264-0.19-0.527-0.729-0.527c-0.157,0-0.266,0.012-0.348,0.023V68.783z"/>
</g>
</svg>
