<?xml version="1.0" standalone="no"?>
<!DOCTYPE svg PUBLIC "-//W3C//DTD SVG 1.1//EN" "http://www.w3.org/Graphics/SVG/1.1/DTD/svg11.dtd" >
<svg xmlns="http://www.w3.org/2000/svg" xmlns:xlink="http://www.w3.org/1999/xlink" version="1.1">
<metadata>
Created by FontForge 20161013 at Mon Nov  7 22:46:28 2016
 By ,,,
Copyright (c) 2014 by Colophon Foundry. All rights reserved.
</metadata>
<defs>
<font id="Visuelt-Regular" horiz-adv-x="558" >
  <font-face 
    font-family="Visuelt"
    font-weight="400"
    font-stretch="normal"
    units-per-em="1000"
    panose-1="0 0 5 0 0 0 0 0 0 0"
    ascent="800"
    descent="-200"
    x-height="500"
    cap-height="700"
    bbox="-69 -301 1171 1060"
    underline-thickness="50"
    underline-position="-150"
    unicode-range="U+000D-FB02"
  />
<missing-glyph horiz-adv-x="643" 
d="M572 700v-700h-501v700h501zM167 88h309v524h-309v-524z" />
    <glyph glyph-name="fi" unicode="fi" horiz-adv-x="557" 
d="M108 420h-86v80h86v95q0 73 39.5 109t100.5 36q37 0 63 -10v-79q-33 11 -57 11q-26 0 -42 -16t-16 -46v-100h291v-500h-88v420h-203v-420h-88v420zM485.5 678.5q17.5 -17.5 17.5 -42.5t-17.5 -42.5t-42.5 -17.5t-42.5 17.5t-17.5 42.5t17.5 42.5t42.5 17.5t42.5 -17.5z
" />
    <glyph glyph-name="fl" unicode="fl" horiz-adv-x="545" 
d="M108 420h-86v80h86v55q0 73 39 109t105 36h228v-700h-86v622h-140q-30 0 -44 -15.5t-14 -46.5v-60h112v-80h-112v-420h-88v420z" />
    <glyph glyph-name=".notdef" horiz-adv-x="643" 
d="M572 700v-700h-501v700h501zM167 88h309v524h-309v-524z" />
    <glyph glyph-name=".null" horiz-adv-x="294" 
 />
    <glyph glyph-name="nonmarkingreturn" unicode="&#xd;" horiz-adv-x="294" 
 />
    <glyph glyph-name="space" unicode=" " horiz-adv-x="294" 
 />
    <glyph glyph-name="exclam" unicode="!" horiz-adv-x="292" 
d="M88 700h116l-18 -488h-80zM196.5 122.5q21.5 -21.5 21.5 -50.5t-21.5 -50.5t-50.5 -21.5t-50.5 21.5t-21.5 50.5t21.5 50.5t50.5 21.5t50.5 -21.5z" />
    <glyph glyph-name="quotedbl" unicode="&#x22;" horiz-adv-x="402" 
d="M70 700h92l-12 -250h-68zM240 700h92l-12 -250h-68z" />
    <glyph glyph-name="numbersign" unicode="#" horiz-adv-x="717" 
d="M555 510h118l-15 -82h-118l-27 -156h118l-15 -82h-118l-33 -190h-90l33 190h-156l-33 -190h-90l33 190h-118l15 82h118l27 156h-118l15 82h118l33 190h90l-33 -190h156l33 190h90zM423 272l27 156h-156l-27 -156h156z" />
    <glyph glyph-name="dollar" unicode="$" horiz-adv-x="598" 
d="M333 707q86 -10 137.5 -61.5t57.5 -135.5h-91q-13 91 -104 108v-199q115 -23 165.5 -71t50.5 -137q0 -60 -28 -107.5t-77 -76.5t-111 -35v-92h-72v93q-94 11 -156.5 71t-67.5 154h93q5 -56 40.5 -91.5t90.5 -45.5v268l-16 4q-82 21 -128 66t-46 118q0 71 53 117.5
t137 54.5v91h72v-93zM261 620q-45 -5 -70.5 -27.5t-25.5 -56.5q0 -33 22.5 -56t73.5 -41v181zM333 80q55 7 87.5 40t32.5 88q0 53 -25.5 80.5t-94.5 45.5v-254z" />
    <glyph glyph-name="percent" unicode="%" horiz-adv-x="833" 
d="M303.5 688q38.5 -22 60 -61.5t21.5 -88.5t-21.5 -88.5t-60 -61.5t-88.5 -22t-88.5 22t-60 61.5t-21.5 88.5t21.5 88.5t60 61.5t88.5 22t88.5 -22zM182 8l-57 47l527 637l57 -47zM141.5 617.5q-28.5 -28.5 -28.5 -79.5t28.5 -79.5t73.5 -28.5t73.5 28.5t28.5 79.5
t-28.5 79.5t-73.5 28.5t-73.5 -28.5zM707.5 312q38.5 -22 60 -61.5t21.5 -88.5t-21.5 -88.5t-60 -61.5t-88.5 -22t-88.5 22t-60 61.5t-21.5 88.5t21.5 88.5t60 61.5t88.5 22t88.5 -22zM545.5 241.5q-28.5 -28.5 -28.5 -79.5t28.5 -79.5t73.5 -28.5t73.5 28.5t28.5 79.5
t-28.5 79.5t-73.5 28.5t-73.5 -28.5z" />
    <glyph glyph-name="ampersand" unicode="&#x26;" horiz-adv-x="645" 
d="M283 -10q-67 0 -121 27t-84.5 77t-30.5 118q0 70 37.5 122.5t104.5 87.5q-44 65 -44 131q0 47 22 82.5t58.5 55t79.5 19.5q69 0 111.5 -38t42.5 -96q0 -61 -34.5 -102.5t-106.5 -73.5l147 -183q15 53 15 135v16h94v-36q0 -114 -43 -196l111 -136h-118l-50 61
q-74 -71 -191 -71zM345 506q24 26 24 61q0 26 -18 43.5t-46 17.5q-26 0 -46.5 -19.5t-20.5 -50.5t7.5 -52.5t24.5 -46.5q51 21 75 47zM235 359q-49 -24 -70.5 -61t-21.5 -87q0 -60 40.5 -96.5t100.5 -36.5q89 0 135 51z" />
    <glyph glyph-name="quotesingle" unicode="'" horiz-adv-x="232" 
d="M150 450h-68l-12 250h92z" />
    <glyph glyph-name="parenleft" unicode="(" horiz-adv-x="317" 
d="M181.5 560.5q-38.5 -93.5 -38.5 -210.5t38.5 -210.5t113.5 -172.5l-62 -63q-88 84 -137 193t-49 253t49 253t137 193l62 -63q-75 -79 -113.5 -172.5z" />
    <glyph glyph-name="parenright" unicode=")" horiz-adv-x="317" 
d="M222 603q49 -109 49 -253t-49 -253t-137 -193l-62 63q75 79 113.5 172.5t38.5 210.5t-38.5 210.5t-113.5 172.5l62 63q88 -84 137 -193z" />
    <glyph glyph-name="asterisk" unicode="*" horiz-adv-x="440" 
d="M176 700h88l-16 -120l109 52l27 -83l-119 -22l83 -87l-71 -52l-57 105l-57 -105l-71 52l83 87l-119 22l27 83l109 -52z" />
    <glyph glyph-name="plus" unicode="+" horiz-adv-x="461" 
d="M429 400v-80h-159v-159h-80v159h-158v80h158v158h80v-158h159z" />
    <glyph glyph-name="comma" unicode="," horiz-adv-x="240" 
d="M99 -57.5q18 25.5 20 57.5q-30 0 -50 22.5t-20 49.5q0 30 20.5 51t51.5 21q32 0 52 -21t20 -51q0 -64 -31 -112.5t-94 -93.5l-21 20q34 31 52 56.5z" />
    <glyph glyph-name="hyphen" unicode="-" horiz-adv-x="401" 
d="M369 300h-337v80h337v-80z" />
    <glyph glyph-name="period" unicode="." horiz-adv-x="240" 
d="M171.5 122.5q21.5 -21.5 21.5 -50.5t-21.5 -50.5t-50.5 -21.5t-50.5 21.5t-21.5 50.5t21.5 50.5t50.5 21.5t50.5 -21.5z" />
    <glyph glyph-name="slash" unicode="/" horiz-adv-x="517" 
d="M117 0h-97l380 700h97z" />
    <glyph glyph-name="zero" unicode="0" horiz-adv-x="662" 
d="M580.5 165q-33.5 -82 -97.5 -128.5t-152 -46.5t-152 46.5t-97.5 128.5t-33.5 185t33.5 185t97.5 128.5t152 46.5t152 -46.5t97.5 -128.5t33.5 -185t-33.5 -185zM469.5 548.5q-46.5 73.5 -138.5 73.5t-138.5 -73.5t-46.5 -198.5t46.5 -198.5t138.5 -73.5t138.5 73.5
t46.5 198.5t-46.5 198.5z" />
    <glyph glyph-name="one" unicode="1" horiz-adv-x="333" 
d="M132 631.5q29 21.5 35 68.5h96v-700h-96v566q-24 -21 -53.5 -28.5t-80.5 -7.5v80h16q54 0 83 21.5z" />
    <glyph glyph-name="two" unicode="2" horiz-adv-x="550" 
d="M326 342q44 40 66 75.5t22 84.5q0 56 -37.5 88t-97.5 32q-61 0 -100.5 -37t-42.5 -102h-92q3 65 34.5 117t83 81t113.5 29q67 0 119.5 -25t82 -71t29.5 -107q0 -65 -29.5 -116.5t-87.5 -102.5l-227 -200h358v-88h-483v82z" />
    <glyph glyph-name="three" unicode="3" horiz-adv-x="588" 
d="M354 472q82 -20 137 -76.5t55 -153.5q0 -70 -33 -128t-90.5 -91t-127.5 -33q-78 0 -135.5 34t-89.5 90.5t-36 124.5h90q5 -72 49.5 -116.5t119.5 -44.5q72 0 113.5 43.5t41.5 120.5q0 75 -50 115.5t-123 40.5h-22v87l140 127h-328v88h448v-91z" />
    <glyph glyph-name="four" unicode="4" horiz-adv-x="565" 
d="M372 700h90v-458h84v-88h-84v-154h-96v154h-326v88zM366 242v307l-224 -307h224z" />
    <glyph glyph-name="five" unicode="5" horiz-adv-x="591" 
d="M103 700h394v-88h-321l-29 -167q32 22 76 36t90 14q109 0 173.5 -65.5t64.5 -178.5q0 -70 -31 -129.5t-90 -95.5t-138 -36q-69 0 -125 29t-89.5 81t-37.5 119h96q7 -59 47 -100t109 -41q74 0 117.5 45t43.5 125q0 79 -43.5 122.5t-109.5 43.5q-59 0 -98.5 -16.5
t-73.5 -40.5l-69 33z" />
    <glyph glyph-name="six" unicode="6" horiz-adv-x="572" 
d="M449 660.5q57 -49.5 67 -132.5h-93q-15 52 -44 73t-79 21q-47 0 -84.5 -28t-59 -81.5t-21.5 -125.5q35 42 78.5 59t100.5 17q64 0 115.5 -28t81 -80t29.5 -120q0 -69 -32 -125t-90 -88t-132 -32q-54 0 -107 26.5t-87 72.5q-31 43 -45.5 101t-14.5 134q0 116 32 203
t93 135t146 48q89 0 146 -49.5zM371 100q34 22 52.5 57.5t18.5 75.5t-18.5 75.5t-52.5 57.5t-80 22t-80 -22t-52.5 -57.5t-18.5 -75.5q0 -66 41 -110.5t110 -44.5q46 0 80 22z" />
    <glyph glyph-name="seven" unicode="7" horiz-adv-x="485" 
d="M201 0h-93l262 612h-353v88h452v-76z" />
    <glyph glyph-name="eight" unicode="8" horiz-adv-x="552" 
d="M73 314.5q29 46.5 76 72.5q-34 25 -53.5 63.5t-19.5 81.5q0 51 26.5 91.5t72.5 63.5t101 23t101 -23t72.5 -63.5t26.5 -91.5q0 -43 -19.5 -81.5t-53.5 -63.5q47 -26 76 -72.5t29 -104.5q0 -63 -28 -113t-81 -78.5t-123 -28.5t-123 28.5t-81 78.5t-28 113q0 58 29 104.5z
M354 451q30 29 30 76t-30 76t-78 29t-78 -29t-30 -76t30 -76t78 -29t78 29zM371 115.5q39 37.5 39 96.5t-39 96.5t-95 37.5t-95 -37.5t-39 -96.5t39 -96.5t95 -37.5t95 37.5z" />
    <glyph glyph-name="nine" unicode="9" horiz-adv-x="572" 
d="M393 683.5q53 -26.5 87 -72.5q31 -43 45.5 -101t14.5 -134q0 -116 -32 -203t-93 -135t-146 -48q-89 0 -146 49.5t-67 132.5h93q15 -52 44 -73t79 -21q47 0 84.5 28t59 81.5t21.5 125.5q-35 -42 -78.5 -59t-100.5 -17q-64 0 -115.5 28t-81 80t-29.5 120q0 69 32 125t90 88
t132 32q54 0 107 -26.5zM201 600q-34 -22 -52.5 -57.5t-18.5 -75.5t18.5 -75.5t52.5 -57.5t80 -22t80 22t52.5 57.5t18.5 75.5q0 66 -41 110.5t-110 44.5q-46 0 -80 -22z" />
    <glyph glyph-name="colon" unicode=":" horiz-adv-x="240" 
d="M171.5 488.5q21.5 -21.5 21.5 -50.5t-21.5 -50.5t-50.5 -21.5t-50.5 21.5t-21.5 50.5t21.5 50.5t50.5 21.5t50.5 -21.5zM171.5 122.5q21.5 -21.5 21.5 -50.5t-21.5 -50.5t-50.5 -21.5t-50.5 21.5t-21.5 50.5t21.5 50.5t50.5 21.5t50.5 -21.5z" />
    <glyph glyph-name="semicolon" unicode=";" horiz-adv-x="240" 
d="M171.5 488.5q21.5 -21.5 21.5 -50.5t-21.5 -50.5t-50.5 -21.5t-50.5 21.5t-21.5 50.5t21.5 50.5t50.5 21.5t50.5 -21.5zM47 -114q28 25 40.5 52t14.5 64q-23 7 -38 26.5t-15 43.5q0 29 21.5 50.5t50.5 21.5t50.5 -21.5t21.5 -50.5q0 -119 -125 -206z" />
    <glyph glyph-name="less" unicode="&#x3c;" horiz-adv-x="501" 
d="M431 534v-92l-261 -142l261 -142v-92l-361 196v76z" />
    <glyph glyph-name="equal" unicode="=" horiz-adv-x="461" 
d="M429 415h-397v80h397v-80zM429 225h-397v80h397v-80z" />
    <glyph glyph-name="greater" unicode="&#x3e;" horiz-adv-x="501" 
d="M70 66v92l261 142l-261 142v92l361 -196v-76z" />
    <glyph glyph-name="question" unicode="?" horiz-adv-x="501" 
d="M27 510q2 58 30 103t78.5 71t116.5 26q107 0 162 -47.5t55 -124.5q0 -50 -24 -90t-74 -75q-41 -29 -59.5 -56t-20.5 -66l-2 -39h-80l-1 14l-1 23q-2 45 10.5 77t32.5 53t51 44q41 30 56.5 54.5t15.5 55.5q0 37 -33 63t-88 26q-56 0 -94 -30.5t-43 -81.5h-88zM299.5 122.5
q21.5 -21.5 21.5 -50.5t-21.5 -50.5t-50.5 -21.5t-50.5 21.5t-21.5 50.5t21.5 50.5t50.5 21.5t50.5 -21.5z" />
    <glyph glyph-name="at" unicode="@" horiz-adv-x="766" 
d="M245.5 -164q-83.5 46 -137.5 149.5t-54 264.5q0 144 48 248t130.5 158t183.5 54q144 0 217 -69.5t73 -190.5v-450h-88v55q-26 -27 -66 -46t-93 -19q-62 0 -114.5 32t-83.5 91t-31 137t30 137t82.5 91t118.5 32q48 0 88 -16.5t69 -46.5q0 83 -50 133t-152 50
q-66 0 -128 -36t-104 -121t-42 -223q0 -122 38 -208t101.5 -129t138.5 -43q61 0 100 13t71 50h86q-41 -76 -100 -109.5t-157 -33.5q-91 0 -174.5 46zM361.5 115q43.5 -45 111.5 -45q39 0 72.5 18t53 48t19.5 65v96q0 35 -20 65.5t-53 49t-72 18.5q-68 0 -111.5 -45
t-43.5 -135t43.5 -135z" />
    <glyph glyph-name="A" unicode="A" horiz-adv-x="598" 
d="M251 700h96l252 -700h-102l-47 136h-303l-46 -136h-102zM420 224l-108 315l-13 75l-13 -75l-109 -315h243z" />
    <glyph glyph-name="B" unicode="B" horiz-adv-x="621" 
d="M551 314q39 -46 39 -111q0 -93 -65.5 -148t-177.5 -55h-276v700h260q67 0 116.5 -23t76 -63t26.5 -90q0 -98 -91 -149q53 -15 92 -61zM340 402q57 0 88 26.5t31 80.5t-31 80.5t-88 26.5h-173v-214h173zM373 88q59 0 92.5 30t33.5 85t-33.5 85t-92.5 30h-206v-230h206z
" />
    <glyph glyph-name="C" unicode="C" horiz-adv-x="736" 
d="M533 118.5q57 40.5 78 112.5h96q-15 -72 -57 -126.5t-107.5 -84.5t-147.5 -30q-95 0 -174.5 45.5t-126.5 127.5t-47 187t47 187t126.5 127.5t174.5 45.5q124 0 207 -66t105 -175h-96q-21 72 -78 112.5t-139 40.5q-75 0 -131.5 -35t-87 -97t-30.5 -140t30.5 -140t87 -97
t131.5 -35q82 0 139 40.5z" />
    <glyph glyph-name="D" unicode="D" horiz-adv-x="686" 
d="M71 0v700h202q113 0 195.5 -43.5t126.5 -122.5t44 -184t-44 -184t-126.5 -122.5t-195.5 -43.5h-202zM167 612v-524h102q128 0 201 64.5t73 197.5t-73 197.5t-201 64.5h-102z" />
    <glyph glyph-name="E" unicode="E" horiz-adv-x="537" 
d="M167 394h296v-88h-296v-218h334v-88h-430v700h419v-88h-323v-218z" />
    <glyph glyph-name="F" unicode="F" horiz-adv-x="531" 
d="M167 384h309v-88h-309v-296h-96v700h431v-88h-335v-228z" />
    <glyph glyph-name="G" unicode="G" horiz-adv-x="763" 
d="M713 376v-57q0 -95 -39 -169.5t-111 -117t-168 -42.5q-95 0 -174.5 45.5t-126.5 127.5t-47 187t47 187t126.5 127.5t174.5 45.5q80 0 145 -29t106.5 -81t54.5 -120h-96q-22 70 -75 106t-136 36q-75 0 -131.5 -35t-87 -97t-30.5 -140t30.5 -140t87 -97t131.5 -35
q100 0 157 55.5t65 154.5h-292v88h389z" />
    <glyph glyph-name="H" unicode="H" horiz-adv-x="657" 
d="M167 394h323v306h96v-700h-96v306h-323v-306h-96v700h96v-306z" />
    <glyph glyph-name="I" unicode="I" horiz-adv-x="238" 
d="M167 0h-96v700h96v-700z" />
    <glyph glyph-name="J" unicode="J" horiz-adv-x="530" 
d="M170 112.5q29 -34.5 82 -34.5q55 0 83 32.5t28 92.5v497h96v-484q0 -106 -53 -166t-154 -60q-95 0 -150 61t-55 160h93q1 -64 30 -98.5z" />
    <glyph glyph-name="K" unicode="K" horiz-adv-x="584" 
d="M561 0h-123l-271 322v-322h-96v700h96v-298l267 298h113l-296 -330z" />
    <glyph glyph-name="L" unicode="L" horiz-adv-x="550" 
d="M167 700v-612h345v-88h-441v700h96z" />
    <glyph glyph-name="M" unicode="M" horiz-adv-x="798" 
d="M449 0h-100l-182 474v-474h-96v700h102l226 -580l226 580h102v-700h-96v474z" />
    <glyph glyph-name="N" unicode="N" horiz-adv-x="668" 
d="M597 700v-700h-108l-322 549v-549h-96v700h108l322 -549v549h96z" />
    <glyph glyph-name="O" unicode="O" horiz-adv-x="790" 
d="M697 163q-46 -82 -125.5 -127.5t-176.5 -45.5t-176.5 45.5t-125.5 127.5t-46 187t46 187t125.5 127.5t176.5 45.5t176.5 -45.5t125.5 -127.5t46 -187t-46 -187zM614.5 491.5q-30.5 61.5 -87.5 96t-132 34.5t-132 -34.5t-87.5 -96t-30.5 -141.5t30.5 -141.5t87.5 -96
t132 -34.5t132 34.5t87.5 96t30.5 141.5t-30.5 141.5z" />
    <glyph glyph-name="P" unicode="P" horiz-adv-x="610" 
d="M499.5 638.5q70.5 -61.5 70.5 -167.5t-70.5 -167.5t-188.5 -61.5h-144v-242h-96v700h240q118 0 188.5 -61.5zM313 330q161 0 161 141t-161 141h-146v-282h146z" />
    <glyph glyph-name="Q" unicode="Q" horiz-adv-x="790" 
d="M702.5 181q-40.5 -82 -108 -134t-142.5 -52q11 -32 56.5 -59.5t92.5 -33.5l-3 -8l-31 -66q-76 9 -139 55t-77 110q-87 10 -156 57t-108.5 125t-39.5 175q0 105 46 187t125.5 127.5t176.5 45.5t176.5 -45.5t125.5 -127.5t46 -187q0 -87 -40.5 -169zM614.5 491.5
q-30.5 61.5 -87.5 96t-132 34.5t-132 -34.5t-87.5 -96t-30.5 -141.5t30.5 -141.5t87.5 -96t132 -34.5t132 34.5t87.5 96t30.5 141.5t-30.5 141.5z" />
    <glyph glyph-name="R" unicode="R" horiz-adv-x="602" 
d="M167 254v-254h-96v700h221q79 0 137 -28t89 -79t31 -118t-31.5 -115t-93.5 -83l161 -277h-110l-145 254h-163zM308 342q68 0 106.5 36.5t38.5 98.5q0 63 -37.5 99t-107.5 36h-141v-270h141z" />
    <glyph glyph-name="S" unicode="S" horiz-adv-x="590" 
d="M195 471q41 -25 139 -47q104 -23 159 -75t55 -138q0 -65 -33 -115.5t-89.5 -78t-126.5 -27.5q-68 0 -126.5 28t-95.5 80t-41 120h93q7 -66 54.5 -103t115.5 -37q66 0 109.5 33.5t43.5 96.5q0 40 -17.5 66.5t-56.5 44.5t-108 33q-100 22 -155 64.5t-55 120.5q0 51 29 90.5
t79.5 61t111.5 21.5q104 0 167 -53t70 -147h-91q-8 56 -45 84t-101 28q-56 0 -91 -22.5t-35 -59.5q0 -44 41 -69z" />
    <glyph glyph-name="T" unicode="T" horiz-adv-x="498" 
d="M201 0v612h-178v88h452v-88h-178v-612h-96z" />
    <glyph glyph-name="U" unicode="U" horiz-adv-x="644" 
d="M164 252q0 -84 39 -129t119 -45t119 45t39 129v448h96v-452q0 -75 -30.5 -133.5t-88 -91.5t-135.5 -33t-135.5 33t-88 91.5t-30.5 133.5v452h96v-448z" />
    <glyph glyph-name="V" unicode="V" horiz-adv-x="588" 
d="M276 183l18 -88l18 88l166 517h104l-232 -700h-112l-232 700h104z" />
    <glyph glyph-name="W" unicode="W" horiz-adv-x="952" 
d="M252 183l17 -88l15 88l141 517h102l141 -517l15 -88l17 88l139 517h102l-202 -700h-108l-155 568l-155 -568h-108l-202 700h102z" />
    <glyph glyph-name="X" unicode="X" horiz-adv-x="586" 
d="M293 470l130 230h103l-184 -315l236 -385h-105l-180 302l-180 -302h-105l236 385l-184 315h103z" />
    <glyph glyph-name="Y" unicode="Y" horiz-adv-x="544" 
d="M257 404l15 -68l15 68l137 296h104l-208 -440v-260h-96v260l-208 440h104z" />
    <glyph glyph-name="Z" unicode="Z" horiz-adv-x="564" 
d="M53 612v88h458v-68l-372 -544h384v-88h-488v88l362 524h-344z" />
    <glyph glyph-name="bracketleft" unicode="[" horiz-adv-x="284" 
d="M252 700v-78h-105v-744h105v-78h-191v900h191z" />
    <glyph glyph-name="backslash" unicode="\" horiz-adv-x="517" 
d="M497 0h-97l-380 700h97z" />
    <glyph glyph-name="bracketright" unicode="]" horiz-adv-x="284" 
d="M32 -200v78h105v744h-105v78h191v-900h-191z" />
    <glyph glyph-name="asciicircum" unicode="^" horiz-adv-x="500" 
d="M474 419h-98l-126 195l-126 -195h-98l186 281h76z" />
    <glyph glyph-name="underscore" unicode="_" horiz-adv-x="491" 
d="M469 -90h-447v80h447v-80z" />
    <glyph glyph-name="grave" unicode="`" horiz-adv-x="267" 
d="M142 567l-106 133h115l80 -133h-89z" />
    <glyph glyph-name="a" unicode="a" horiz-adv-x="555" 
d="M96 29.5q-44 39.5 -44 105.5q0 70 48 110t121 47l156 16v34q0 43 -30.5 65.5t-80.5 22.5q-42 0 -70.5 -20t-38.5 -61h-83q11 79 67.5 120t130.5 41q88 0 140.5 -43.5t52.5 -114.5v-234q0 -25 11 -38.5t33 -13.5q13 0 26 4v-66q-30 -10 -56 -10q-81 0 -99 78
q-29 -33 -75 -57.5t-94 -24.5q-71 0 -115 39.5zM377 148v90l-150 -17q-42 -5 -64.5 -27.5t-22.5 -54.5q0 -34 22.5 -51.5t58.5 -17.5q78 0 156 78z" />
    <glyph glyph-name="b" unicode="b" horiz-adv-x="586" 
d="M153 447q28 30 70.5 46.5t90.5 16.5q65 0 117 -32t81 -91t29 -137t-31 -137t-83.5 -91t-114.5 -32q-53 0 -93 19t-66 46v-55h-88v730h88v-283zM153 201q0 -35 19.5 -65t53 -48t72.5 -18q68 0 111.5 45t43.5 135t-43.5 135t-111.5 45q-39 0 -72 -18.5t-53 -49t-20 -65.5
v-96z" />
    <glyph glyph-name="c" unicode="c" horiz-adv-x="574" 
d="M397 99q39 29 51 82h83q-13 -90 -76 -140.5t-160 -50.5q-71 0 -128 32.5t-89.5 91.5t-32.5 136t32.5 136t89.5 91.5t128 32.5q97 0 160 -50.5t76 -140.5h-83q-12 53 -51 82t-101 29q-72 0 -117.5 -48.5t-45.5 -131.5t45.5 -131.5t117.5 -48.5q62 0 101 29z" />
    <glyph glyph-name="d" unicode="d" horiz-adv-x="586" 
d="M521 0h-88v55q-26 -27 -66 -46t-93 -19q-62 0 -114.5 32t-83.5 91t-31 137t29 137t81 91t117 32q48 0 90.5 -16.5t70.5 -46.5v283h88v-730zM176.5 115q43.5 -45 111.5 -45q39 0 72.5 18t53 48t19.5 65v96q0 35 -20 65.5t-53 49t-72 18.5q-68 0 -111.5 -45t-43.5 -135
t43.5 -135z" />
    <glyph glyph-name="e" unicode="e" horiz-adv-x="574" 
d="M134 222q2 -71 44.5 -111.5t111.5 -40.5q57 0 95 27.5t52 73.5h82q-21 -85 -80 -133t-150 -48q-75 0 -130 32.5t-84.5 91t-29.5 136.5q0 76 33 135t89 92t122 33q67 0 120.5 -30.5t84 -87.5t30.5 -136v-34h-390zM441 298q-5 63 -47.5 97.5t-104.5 34.5q-60 0 -102 -35
t-52 -97h306z" />
    <glyph glyph-name="f" unicode="f" horiz-adv-x="329" 
d="M108 420h-86v80h86v95q0 73 39.5 109t100.5 36q37 0 63 -10v-79q-33 11 -57 11q-26 0 -42 -16t-16 -46v-100h112v-80h-112v-420h-88v420z" />
    <glyph glyph-name="g" unicode="g" horiz-adv-x="576" 
d="M460.5 -152q-60.5 -58 -169.5 -58q-94 0 -148 42t-63 113h96q17 -75 112 -75q78 0 111.5 38.5t33.5 99.5v58q-34 -34 -71.5 -50t-89.5 -16q-66 0 -117.5 30.5t-80.5 88.5t-29 136q0 77 31 135t83.5 89t114.5 31q53 0 93 -19t66 -46v55h88v-497q0 -97 -60.5 -155zM433 286
q0 41 -19.5 74t-53 51.5t-72.5 18.5q-68 0 -111.5 -43t-43.5 -132t43.5 -132t111.5 -43q65 0 105 40.5t40 101.5v64z" />
    <glyph glyph-name="h" unicode="h" horiz-adv-x="570" 
d="M163 435q29 31 78 53t103 22q80 0 125.5 -44.5t45.5 -120.5v-345h-88v329q0 49 -29 76t-79 27q-43 0 -85 -25t-71 -65v-342h-88v730h88v-295z" />
    <glyph glyph-name="i" unicode="i" horiz-adv-x="228" 
d="M156.5 678.5q17.5 -17.5 17.5 -42.5t-17.5 -42.5t-42.5 -17.5t-42.5 17.5t-17.5 42.5t17.5 42.5t42.5 17.5t42.5 -17.5zM158 0h-88v500h88v-500z" />
    <glyph glyph-name="j" unicode="j" horiz-adv-x="228" 
d="M156.5 678.5q17.5 -17.5 17.5 -42.5t-17.5 -42.5t-42.5 -17.5t-42.5 17.5t-17.5 42.5t17.5 42.5t42.5 17.5t42.5 -17.5zM158 500v-582q0 -128 -127 -128q-17 0 -29.5 2.5t-31.5 7.5v79q16 -6 27.5 -8.5t26.5 -2.5q46 0 46 50v582h88z" />
    <glyph glyph-name="k" unicode="k" horiz-adv-x="477" 
d="M151 224v-224h-86v730h86v-410l177 180h114l-221 -223l242 -277h-112z" />
    <glyph glyph-name="l" unicode="l" horiz-adv-x="216" 
d="M151 0h-86v730h86v-730z" />
    <glyph glyph-name="m" unicode="m" horiz-adv-x="808" 
d="M153 441q64 69 152 69q47 0 76.5 -17.5t48.5 -54.5q78 72 166 72q74 0 110.5 -36.5t36.5 -98.5v-375h-88v349q0 39 -20.5 61t-60.5 22q-75 0 -126 -71v-361h-88v345q0 87 -80 87q-34 0 -67 -23t-60 -60v-349h-88v500h88v-59z" />
    <glyph glyph-name="n" unicode="n" 
d="M153 435q29 31 76 53t99 22q79 0 122 -44t43 -121v-345h-88v329q0 50 -26.5 76.5t-75.5 26.5q-43 0 -81.5 -26t-68.5 -70v-336h-88v500h88v-65z" />
    <glyph glyph-name="o" unicode="o" horiz-adv-x="604" 
d="M435.5 476.5q58.5 -33.5 91 -93t32.5 -133.5t-32.5 -133.5t-91 -93t-133.5 -33.5t-133.5 33.5t-91 93t-32.5 133.5t32.5 133.5t91 93t133.5 33.5t133.5 -33.5zM180.5 383q-47.5 -47 -47.5 -133t47.5 -133t121.5 -47t121.5 47t47.5 133t-47.5 133t-121.5 47t-121.5 -47z
" />
    <glyph glyph-name="p" unicode="p" horiz-adv-x="576" 
d="M55 500h88v-55q26 27 66 46t93 19q62 0 114.5 -32t83.5 -91t31 -137t-29 -137t-81 -91t-117 -32q-48 0 -90.5 16.5t-70.5 46.5v-253h-88v700zM399.5 385q-43.5 45 -111.5 45q-39 0 -72.5 -18t-53 -48t-19.5 -65v-96q0 -35 20 -65.5t53 -49t72 -18.5q68 0 111.5 45
t43.5 135t-43.5 135z" />
    <glyph glyph-name="q" unicode="q" horiz-adv-x="576" 
d="M433 53q-28 -30 -70.5 -46.5t-90.5 -16.5q-65 0 -117 32t-81 91t-29 137t31 137t83.5 91t114.5 32q53 0 93 -19t66 -46v55h88v-700h-88v253zM433 299q0 35 -19.5 65t-53 48t-72.5 18q-68 0 -111.5 -45t-43.5 -135t43.5 -135t111.5 -45q39 0 72 18.5t53 49t20 65.5v96z
" />
    <glyph glyph-name="r" unicode="r" horiz-adv-x="357" 
d="M153 435q29 33 66 54t81 21q26 0 40 -8l-14 -73q-12 3 -32 3q-42 0 -79 -25t-62 -71v-336h-88v500h88v-65z" />
    <glyph glyph-name="s" unicode="s" horiz-adv-x="453" 
d="M281 413q-27 21 -69 21q-33 0 -59 -14.5t-26 -42.5q0 -27 30 -44.5t101 -36.5q83 -22 122.5 -55t39.5 -89q0 -46 -23.5 -83t-66.5 -58t-99 -21q-89 0 -144 44t-62 122h83q11 -41 39.5 -63.5t85.5 -22.5q42 0 71.5 19t29.5 52q0 32 -32.5 51t-111.5 39q-76 19 -111.5 53
t-35.5 91q0 36 21.5 67t60 49.5t87.5 18.5q81 0 131 -41t57 -117h-87q-5 40 -32 61z" />
    <glyph glyph-name="t" unicode="t" horiz-adv-x="347" 
d="M204 500h120v-80h-120v-298q0 -26 15.5 -40t46.5 -14q19 0 33.5 2.5t19.5 3.5v-74q-39 -10 -80 -10q-58 0 -90.5 32.5t-32.5 93.5v304h-99v80h99v150l88 -32v-118z" />
    <glyph glyph-name="u" unicode="u" 
d="M405 65q-29 -31 -76 -53t-99 -22q-79 0 -122 44t-43 121v345h88v-329q0 -50 26.5 -76.5t75.5 -26.5q43 0 81.5 26t68.5 70v336h88v-500h-88v65z" />
    <glyph glyph-name="v" unicode="v" horiz-adv-x="518" 
d="M240 161l19 -83l19 83l129 339h93l-194 -500h-94l-194 500h93z" />
    <glyph glyph-name="w" unicode="w" horiz-adv-x="739" 
d="M414 500l95 -323l17 -89l14 89l94 323h93l-150 -500h-98l-110 398l-109 -398h-98l-150 500h93l94 -323l14 -89l16 89l96 323h89z" />
    <glyph glyph-name="x" unicode="x" horiz-adv-x="488" 
d="M295 276l177 -276h-98l-130 208l-130 -208h-98l177 276l-154 224h98l107 -159l107 159h98z" />
    <glyph glyph-name="y" unicode="y" horiz-adv-x="498" 
d="M490 500l-278 -700h-87l89 222l-198 478h92l134 -319l13 -61l146 380h89z" />
    <glyph glyph-name="z" unicode="z" horiz-adv-x="423" 
d="M38 420v80h355v-62l-261 -358h261v-80h-367v66l260 354h-248z" />
    <glyph glyph-name="braceleft" unicode="{" horiz-adv-x="338" 
d="M41 289q38 0 56 20.5t18 73.5v204q0 113 117 113h48v-78h-19q-32 0 -46 -16t-14 -48v-210q0 -42 -16.5 -65t-47.5 -33q31 -10 47.5 -33t16.5 -65v-210q0 -32 14 -48t46 -16h19v-78h-48q-117 0 -117 113v204q0 53 -18 73.5t-56 20.5h-15v78h15z" />
    <glyph glyph-name="bar" unicode="|" horiz-adv-x="238" 
d="M161 -120h-84v820h84v-820z" />
    <glyph glyph-name="braceright" unicode="}" horiz-adv-x="338" 
d="M297 211q-38 0 -56 -20.5t-18 -73.5v-204q0 -113 -117 -113h-48v78h19q32 0 46 16t14 48v210q0 42 16.5 65t47.5 33q-31 10 -47.5 33t-16.5 65v210q0 32 -14 48t-46 16h-19v78h48q117 0 117 -113v-204q0 -53 18 -73.5t56 -20.5h15v-78h-15z" />
    <glyph glyph-name="asciitilde" unicode="~" horiz-adv-x="458" 
d="M394 306q-32 -35 -81 -35q-34 0 -56 9.5t-48 26.5q-20 12 -31 17.5t-26 5.5q-21 0 -32 -15.5t-13 -38.5h-77q2 62 34 97t81 35q34 0 56 -9.5t48 -26.5q20 -12 31 -17.5t26 -5.5q21 0 32 15.5t13 38.5h77q-2 -62 -34 -97z" />
    <glyph glyph-name="uni00A0" unicode="&#xa0;" horiz-adv-x="294" 
 />
    <glyph glyph-name="exclamdown" unicode="&#xa1;" horiz-adv-x="292" 
d="M95.5 377.5q-21.5 21.5 -21.5 50.5t21.5 50.5t50.5 21.5t50.5 -21.5t21.5 -50.5t-21.5 -50.5t-50.5 -21.5t-50.5 21.5zM204 -200h-116l18 488h80z" />
    <glyph glyph-name="cent" unicode="&#xa2;" horiz-adv-x="574" 
d="M330 508q82 -9 135 -58.5t66 -130.5h-83q-11 45 -41 73t-77 35v-355q47 7 77 35.5t41 73.5h83q-13 -82 -65.5 -131t-135.5 -58v-92h-72v93q-62 8 -110.5 42t-75.5 89.5t-27 125.5t27 125.5t75.5 89.5t110.5 42v103h72v-102zM258 426q-57 -12 -91 -58.5t-34 -117.5
t34 -117.5t91 -58.5v352z" />
    <glyph glyph-name="sterling" unicode="&#xa3;" horiz-adv-x="548" 
d="M191 592q-33 -30 -33 -76q0 -31 10.5 -58t32.5 -68l10 -18h207v-80h-177q4 -17 4 -39q0 -101 -81 -165h338v-88h-451v77q50 43 74 77.5t24 83.5q0 24 -7 54h-101v80h66q-23 44 -34 75t-11 73q0 51 27 94.5t77 69.5t118 26q108 0 166 -51.5t63 -140.5h-96q-6 50 -43.5 77
t-89.5 27q-60 0 -93 -30z" />
    <glyph glyph-name="currency" unicode="&#xa4;" horiz-adv-x="604" 
d="M457 198l66 -66l-53 -53l-65 65q-45 -28 -103 -28t-103 28l-65 -65l-53 53l66 66q-29 44 -29 102t29 102l-66 66l53 53l65 -65q45 28 103 28t103 -28l65 65l53 -53l-66 -66q29 -44 29 -102t-29 -102zM224.5 217.5q30.5 -29.5 77.5 -29.5t77.5 29.5t30.5 82.5t-30.5 82.5
t-77.5 29.5t-77.5 -29.5t-30.5 -82.5t30.5 -82.5z" />
    <glyph glyph-name="yen" unicode="&#xa5;" horiz-adv-x="544" 
d="M257 429l15 -43l15 43l143 271h104l-173 -314h110v-80h-151v-60h151v-80h-151v-166h-96v166h-151v80h151v60h-151v80h110l-173 314h104z" />
    <glyph glyph-name="brokenbar" unicode="&#xa6;" horiz-adv-x="238" 
d="M77 700h84v-352h-84v352zM161 -120h-84v352h84v-352z" />
    <glyph glyph-name="section" unicode="&#xa7;" horiz-adv-x="590" 
d="M373 -1.5q-16 18.5 -49.5 30t-92.5 22.5q-91 16 -146.5 70t-55.5 135q0 63 33.5 108t91.5 65q-65 43 -65 116q0 49 27 86.5t72 58t97 20.5q94 0 147.5 -47t58.5 -128h-92q-3 42 -35 65.5t-79 23.5q-45 0 -74.5 -20.5t-29.5 -53.5q0 -40 36 -61.5t122 -39.5
q103 -22 152.5 -72t49.5 -133q0 -62 -35 -106.5t-90 -65.5q65 -44 65 -120q0 -47 -27 -84t-72 -57.5t-97 -20.5q-94 0 -147.5 47t-58.5 128h92q3 -42 35 -65.5t79 -23.5q45 0 74.5 20.5t29.5 53.5q0 30 -16 48.5zM391.5 345q-55.5 36 -134.5 36q-58 0 -96 -32t-38 -86
q0 -69 53.5 -106.5t133.5 -37.5q62 0 99.5 32.5t37.5 91.5q0 66 -55.5 102z" />
    <glyph glyph-name="dieresis" unicode="&#xa8;" horiz-adv-x="398" 
d="M75 675.5q17 16.5 39 16.5q23 0 39.5 -16.5t16.5 -39.5q0 -22 -16.5 -39t-39.5 -17q-22 0 -39 17t-17 39q0 23 17 39.5zM245 675.5q17 16.5 39 16.5q23 0 39.5 -16.5t16.5 -39.5q0 -22 -16.5 -39t-39.5 -17q-22 0 -39 17t-17 39q0 23 17 39.5z" />
    <glyph glyph-name="copyright" unicode="&#xa9;" horiz-adv-x="792" 
d="M578.5 661.5q82.5 -48.5 130 -131t47.5 -180.5t-47.5 -180.5t-130 -131t-182.5 -48.5t-182.5 48.5t-130 131t-47.5 180.5t47.5 180.5t130 131t182.5 48.5t182.5 -48.5zM541 97.5q66 39.5 104.5 106.5t38.5 146t-38.5 146t-104.5 106.5t-145 39.5t-145 -39.5
t-104.5 -106.5t-38.5 -146t38.5 -146t104.5 -106.5t145 -39.5t145 39.5zM303 247q37 -38 94 -38q49 0 77.5 21t42.5 66h65q-13 -71 -61.5 -110.5t-124.5 -39.5q-56 0 -101.5 25.5t-71.5 72t-26 106.5t26 106.5t71.5 72t101.5 25.5q76 0 126 -39.5t60 -110.5h-65
q-10 41 -40.5 64t-79.5 23q-57 0 -94 -38t-37 -103t37 -103z" />
    <glyph glyph-name="ordfeminine" unicode="&#xaa;" horiz-adv-x="450" 
d="M89.5 500.5q37.5 31.5 95.5 37.5l123 13v27q0 34 -24 51.5t-63 17.5q-33 0 -55.5 -15.5t-30.5 -48.5h-66q9 62 54 94.5t103 32.5q69 0 110.5 -34t41.5 -90v-185q0 -41 35 -41q8 0 20 3v-52q-25 -8 -44 -8q-64 0 -78 62q-22 -27 -57.5 -46t-76.5 -19q-56 0 -90.5 31
t-34.5 83q0 55 37.5 86.5zM308 425v71l-118 -14q-33 -4 -51 -21.5t-18 -42.5q0 -27 18 -41t46 -14q63 0 123 62z" />
    <glyph glyph-name="guillemotleft" unicode="&#xab;" horiz-adv-x="460" 
d="M156 500h84l-92 -220l92 -220h-84l-104 220zM326 500h84l-92 -220l92 -220h-84l-104 220z" />
    <glyph glyph-name="logicalnot" unicode="&#xac;" horiz-adv-x="409" 
d="M369 198h-92v122h-245v80h337v-202z" />
    <glyph glyph-name="registered" unicode="&#xae;" horiz-adv-x="792" 
d="M578.5 661.5q82.5 -48.5 130 -131t47.5 -180.5t-47.5 -180.5t-130 -131t-182.5 -48.5t-182.5 48.5t-130 131t-47.5 180.5t47.5 180.5t130 131t182.5 48.5t182.5 -48.5zM541 97.5q66 39.5 104.5 106.5t38.5 146t-38.5 146t-104.5 106.5t-145 39.5t-145 -39.5
t-104.5 -106.5t-38.5 -146t38.5 -146t104.5 -106.5t145 -39.5t145 39.5zM505 519q39 -35 39 -96q0 -39 -18.5 -67t-55.5 -49l82 -161h-70l-74 148h-80v-148h-64v408h129q73 0 112 -35zM395 352q40 0 62 18t22 54q0 72 -84 72h-67v-144h67z" />
    <glyph glyph-name="macron" unicode="&#xaf;" horiz-adv-x="330" 
d="M284 596h-238v74h238v-74z" />
    <glyph glyph-name="degree" unicode="&#xb0;" horiz-adv-x="335" 
d="M232 692.5q30 -17.5 47.5 -47.5t17.5 -65t-17.5 -64.5t-47.5 -47t-65 -17.5t-64.5 17.5t-47 47t-17.5 64.5t17.5 65t47 47.5t64.5 17.5t65 -17.5zM216.5 531q21.5 21 21.5 49q0 29 -21 50t-50 21q-28 0 -49 -21.5t-21 -49.5t21 -49t49 -21t49.5 21z" />
    <glyph glyph-name="plusminus" unicode="&#xb1;" horiz-adv-x="461" 
d="M429 400v-80h-159v-159h-80v159h-158v80h158v158h80v-158h159zM429 0h-397v80h397v-80z" />
    <glyph glyph-name="uni00B2" unicode="&#xb2;" horiz-adv-x="331" 
d="M183 527q18 17 26.5 31.5t8.5 33.5q0 22 -16 35.5t-39 13.5q-25 0 -40 -16t-17 -40h-67q1 53 35 86.5t89 33.5q57 0 92 -29.5t35 -78.5q0 -34 -16.5 -61.5t-51.5 -59.5l-89 -83h161v-63h-257v60z" />
    <glyph glyph-name="uni00B3" unicode="&#xb3;" horiz-adv-x="363" 
d="M214 578q45 -8 72.5 -38t27.5 -82q0 -37 -18 -67.5t-49 -48t-68 -17.5q-63 0 -100.5 38.5t-39.5 95.5h69q2 -34 20 -53t50 -19t50 20t18 51q0 33 -22 51.5t-60 18.5h-27v56l74 57h-154v59h237v-61z" />
    <glyph glyph-name="acute" unicode="&#xb4;" horiz-adv-x="267" 
d="M231 700l-106 -133h-89l80 133h115z" />
    <glyph glyph-name="uni00B5" unicode="&#xb5;" 
d="M405 65q-29 -31 -76 -53t-99 -22q-46 0 -77 21v-211h-88v700h88v-329q0 -50 26.5 -76.5t75.5 -26.5q43 0 81.5 26t68.5 70v336h88v-500h-88v65z" />
    <glyph glyph-name="paragraph" unicode="&#xb6;" horiz-adv-x="610" 
d="M349 618v-818h-96v541h-13q-92 0 -147.5 48t-55.5 131q0 84 55.5 132t147.5 48h279v-900h-96v818h-74z" />
    <glyph glyph-name="periodcentered" unicode="&#xb7;" horiz-adv-x="240" 
d="M171.5 400.5q21.5 -21.5 21.5 -50.5t-21.5 -50.5t-50.5 -21.5t-50.5 21.5t-21.5 50.5t21.5 50.5t50.5 21.5t50.5 -21.5z" />
    <glyph glyph-name="cedilla" unicode="&#xb8;" horiz-adv-x="412" 
d="M231 -43q33 0 54 -18.5t21 -51.5q0 -41 -28.5 -64t-73.5 -23q-43 0 -68.5 21.5t-29.5 52.5h61q10 -17 37 -17q14 0 23 8t9 22q0 28 -34 28q-21 0 -41 -17l-55 9l53 118h72l-49 -79q26 11 49 11z" />
    <glyph glyph-name="uni00B9" unicode="&#xb9;" horiz-adv-x="227" 
d="M112 700h72v-370h-72v274q-12 -10 -30 -14.5t-45 -4.5v68h8q60 0 67 47z" />
    <glyph glyph-name="ordmasculine" unicode="&#xba;" horiz-adv-x="496" 
d="M353 683.5q46 -26.5 72 -73.5t26 -105t-26 -105t-72 -73.5t-105 -26.5t-105.5 26.5t-72 73.5t-25.5 105q0 59 25.5 105.5t72 73t105.5 26.5t105 -26.5zM151.5 609.5q-37.5 -37.5 -37.5 -104.5t37.5 -104.5t96.5 -37.5t96 37.5t37 104.5q0 68 -37 105t-96 37t-96.5 -37.5z
" />
    <glyph glyph-name="guillemotright" unicode="&#xbb;" horiz-adv-x="460" 
d="M50 60l92 220l-92 220h84l104 -220l-104 -220h-84zM220 60l92 220l-92 220h84l104 -220l-104 -220h-84z" />
    <glyph glyph-name="onequarter" unicode="&#xbc;" horiz-adv-x="722" 
d="M67 653q60 0 67 47h72v-370h-72v274q-12 -10 -30 -14.5t-45 -4.5v68h8zM649 645l-527 -637l-57 47l527 637zM390 135l176 235h69v-235h44v-62h-44v-73h-72v73h-173v62zM460 135h103v139z" />
    <glyph glyph-name="onehalf" unicode="&#xbd;" horiz-adv-x="738" 
d="M134 604q-12 -10 -30 -14.5t-45 -4.5v68h8q60 0 67 47h72v-370h-72v274zM65 55l527 637l57 -47l-527 -637zM437 60l146 137q18 17 26.5 31.5t8.5 33.5q0 22 -16 35.5t-39 13.5q-25 0 -40 -16t-17 -40h-67q1 53 35 86.5t89 33.5q57 0 92 -29.5t35 -78.5q0 -34 -16.5 -61.5
t-51.5 -59.5l-89 -83h161v-63h-257v60z" />
    <glyph glyph-name="threequarters" unicode="&#xbe;" horiz-adv-x="825" 
d="M91.5 363.5q-37.5 38.5 -39.5 95.5h69q2 -34 20 -53t50 -19t50 20t18 51q0 33 -22 51.5t-60 18.5h-27v56l74 57h-154v59h237v-61l-80 -61q45 -8 72.5 -38t27.5 -82q0 -37 -18 -67.5t-49 -48t-68 -17.5q-63 0 -100.5 38.5zM168 55l527 637l57 -47l-527 -637zM666 73h-173
v62l176 235h69v-235h44v-62h-44v-73h-72v73zM666 135v139l-103 -139h103z" />
    <glyph glyph-name="questiondown" unicode="&#xbf;" horiz-adv-x="501" 
d="M201.5 377.5q-21.5 21.5 -21.5 50.5t21.5 50.5t50.5 21.5t50.5 -21.5t21.5 -50.5t-21.5 -50.5t-50.5 -21.5t-50.5 21.5zM474 -10q-2 -58 -30 -103t-78.5 -71t-116.5 -26q-107 0 -162 47.5t-55 124.5q0 50 24 90t74 75q41 29 59.5 56t20.5 66l2 39h80l1 -14l1 -23
q2 -45 -10.5 -77t-32.5 -53t-51 -44q-41 -30 -56.5 -54.5t-15.5 -55.5q0 -37 33 -63t88 -26q56 0 94 30.5t43 81.5h88z" />
    <glyph glyph-name="Agrave" unicode="&#xc0;" horiz-adv-x="598" 
d="M251 700h96l252 -700h-102l-47 136h-303l-46 -136h-102zM420 224l-108 315l-13 75l-13 -75l-109 -315h243zM257 767l-106 133h115l80 -133h-89z" />
    <glyph glyph-name="Aacute" unicode="&#xc1;" horiz-adv-x="598" 
d="M251 700h96l252 -700h-102l-47 136h-303l-46 -136h-102zM420 224l-108 315l-13 75l-13 -75l-109 -315h243zM436 900l-106 -133h-89l80 133h115z" />
    <glyph glyph-name="Acircumflex" unicode="&#xc2;" horiz-adv-x="598" 
d="M251 700h96l252 -700h-102l-47 136h-303l-46 -136h-102zM420 224l-108 315l-13 75l-13 -75l-109 -315h243zM361 767l-63 63l-62 -63h-83l108 133h75l108 -133h-83z" />
    <glyph glyph-name="Atilde" unicode="&#xc3;" horiz-adv-x="598" 
d="M251 700h96l252 -700h-102l-47 136h-303l-46 -136h-102zM420 224l-108 315l-13 75l-13 -75l-109 -315h243zM443 800.5q-33 -31.5 -74 -31.5q-32 0 -50.5 9t-36.5 26q-13 12 -23 18t-25 6q-38 0 -45 -54h-73q6 63 39 94.5t74 31.5q33 0 51 -9t36 -26q13 -12 23 -18t25 -6
q38 0 45 54h73q-6 -63 -39 -94.5z" />
    <glyph glyph-name="Adieresis" unicode="&#xc4;" horiz-adv-x="598" 
d="M251 700h96l252 -700h-102l-47 136h-303l-46 -136h-102zM420 224l-108 315l-13 75l-13 -75l-109 -315h243zM175 875.5q17 16.5 39 16.5q23 0 39.5 -16.5t16.5 -39.5q0 -22 -16.5 -39t-39.5 -17q-22 0 -39 17t-17 39q0 23 17 39.5zM345 875.5q17 16.5 39 16.5
q23 0 39.5 -16.5t16.5 -39.5q0 -22 -16.5 -39t-39.5 -17q-22 0 -39 17t-17 39q0 23 17 39.5z" />
    <glyph glyph-name="Aring" unicode="&#xc5;" horiz-adv-x="598" 
d="M251 700h96l252 -700h-102l-47 136h-303l-46 -136h-102zM420 224l-108 315l-13 75l-13 -75l-109 -315h243zM357 886q24 -24 24 -58t-24 -58t-58 -24t-58 24t-24 58t24 58t58 24t58 -24zM327.5 799.5q11.5 11.5 11.5 28.5t-11.5 28.5t-28.5 11.5t-28.5 -11.5t-11.5 -28.5
t11.5 -28.5t28.5 -11.5t28.5 11.5z" />
    <glyph glyph-name="AE" unicode="&#xc6;" horiz-adv-x="885" 
d="M515 394h296v-88h-296v-218h334v-88h-430v136h-244l-72 -136h-104l372 700h467v-88h-323v-218zM419 224v390l-21 -61l-176 -329h197z" />
    <glyph glyph-name="Ccedilla" unicode="&#xc7;" horiz-adv-x="736" 
d="M533 118.5q57 40.5 78 112.5h96q-22 -107 -102 -172t-199 -69l-27 -44q26 11 49 11q33 0 54 -18.5t21 -51.5q0 -41 -28.5 -64t-73.5 -23q-43 0 -68.5 21.5t-29.5 52.5h61q10 -17 37 -17q14 0 23 8t9 22q0 28 -34 28q-21 0 -41 -17l-55 9l39 87q-83 12 -150.5 60
t-106 124.5t-38.5 171.5q0 105 47 187t126.5 127.5t174.5 45.5q124 0 207 -66t105 -175h-96q-21 72 -78 112.5t-139 40.5q-75 0 -131.5 -35t-87 -97t-30.5 -140t30.5 -140t87 -97t131.5 -35q82 0 139 40.5z" />
    <glyph glyph-name="Egrave" unicode="&#xc8;" horiz-adv-x="537" 
d="M167 394h296v-88h-296v-218h334v-88h-430v700h419v-88h-323v-218zM284 767l-106 133h115l80 -133h-89z" />
    <glyph glyph-name="Eacute" unicode="&#xc9;" horiz-adv-x="537" 
d="M167 394h296v-88h-296v-218h334v-88h-430v700h419v-88h-323v-218zM403 900l-106 -133h-89l80 133h115z" />
    <glyph glyph-name="Ecircumflex" unicode="&#xca;" horiz-adv-x="537" 
d="M167 394h296v-88h-296v-218h334v-88h-430v700h419v-88h-323v-218zM348 767l-63 63l-62 -63h-83l108 133h75l108 -133h-83z" />
    <glyph glyph-name="Edieresis" unicode="&#xcb;" horiz-adv-x="537" 
d="M167 394h296v-88h-296v-218h334v-88h-430v700h419v-88h-323v-218zM158 875.5q17 16.5 39 16.5q23 0 39.5 -16.5t16.5 -39.5q0 -22 -16.5 -39t-39.5 -17q-22 0 -39 17t-17 39q0 23 17 39.5zM328 875.5q17 16.5 39 16.5q23 0 39.5 -16.5t16.5 -39.5q0 -22 -16.5 -39
t-39.5 -17q-22 0 -39 17t-17 39q0 23 17 39.5z" />
    <glyph glyph-name="Igrave" unicode="&#xcc;" horiz-adv-x="238" 
d="M167 0h-96v700h96v-700zM98 767l-106 133h115l80 -133h-89z" />
    <glyph glyph-name="Iacute" unicode="&#xcd;" horiz-adv-x="238" 
d="M167 0h-96v700h96v-700zM247 900l-106 -133h-89l80 133h115z" />
    <glyph glyph-name="Icircumflex" unicode="&#xce;" horiz-adv-x="238" 
d="M167 0h-96v700h96v-700zM182 767l-63 63l-62 -63h-83l108 133h75l108 -133h-83z" />
    <glyph glyph-name="Idieresis" unicode="&#xcf;" horiz-adv-x="238" 
d="M167 0h-96v700h96v-700zM-5 875.5q17 16.5 39 16.5q23 0 39.5 -16.5t16.5 -39.5q0 -22 -16.5 -39t-39.5 -17q-22 0 -39 17t-17 39q0 23 17 39.5zM165 875.5q17 16.5 39 16.5q23 0 39.5 -16.5t16.5 -39.5q0 -22 -16.5 -39t-39.5 -17q-22 0 -39 17t-17 39q0 23 17 39.5z
" />
    <glyph glyph-name="Eth" unicode="&#xd0;" horiz-adv-x="709" 
d="M94 700h202q113 0 195.5 -43.5t126.5 -122.5t44 -184t-44 -184t-126.5 -122.5t-195.5 -43.5h-202v310h-85v80h85v310zM190 612v-222h156v-80h-156v-222h102q128 0 201 64.5t73 197.5t-73 197.5t-201 64.5h-102z" />
    <glyph glyph-name="Ntilde" unicode="&#xd1;" horiz-adv-x="668" 
d="M597 700v-700h-108l-322 549v-549h-96v700h108l322 -549v549h96zM478 800.5q-33 -31.5 -74 -31.5q-32 0 -50.5 9t-36.5 26q-13 12 -23 18t-25 6q-38 0 -45 -54h-73q6 63 39 94.5t74 31.5q33 0 51 -9t36 -26q13 -12 23 -18t25 -6q38 0 45 54h73q-6 -63 -39 -94.5z" />
    <glyph glyph-name="Ograve" unicode="&#xd2;" horiz-adv-x="790" 
d="M697 163q-46 -82 -125.5 -127.5t-176.5 -45.5t-176.5 45.5t-125.5 127.5t-46 187t46 187t125.5 127.5t176.5 45.5t176.5 -45.5t125.5 -127.5t46 -187t-46 -187zM614.5 491.5q-30.5 61.5 -87.5 96t-132 34.5t-132 -34.5t-87.5 -96t-30.5 -141.5t30.5 -141.5t87.5 -96
t132 -34.5t132 34.5t87.5 96t30.5 141.5t-30.5 141.5zM363 767l-106 133h115l80 -133h-89z" />
    <glyph glyph-name="Oacute" unicode="&#xd3;" horiz-adv-x="790" 
d="M697 163q-46 -82 -125.5 -127.5t-176.5 -45.5t-176.5 45.5t-125.5 127.5t-46 187t46 187t125.5 127.5t176.5 45.5t176.5 -45.5t125.5 -127.5t46 -187t-46 -187zM614.5 491.5q-30.5 61.5 -87.5 96t-132 34.5t-132 -34.5t-87.5 -96t-30.5 -141.5t30.5 -141.5t87.5 -96
t132 -34.5t132 34.5t87.5 96t30.5 141.5t-30.5 141.5zM512 900l-106 -133h-89l80 133h115z" />
    <glyph glyph-name="Ocircumflex" unicode="&#xd4;" horiz-adv-x="790" 
d="M697 163q-46 -82 -125.5 -127.5t-176.5 -45.5t-176.5 45.5t-125.5 127.5t-46 187t46 187t125.5 127.5t176.5 45.5t176.5 -45.5t125.5 -127.5t46 -187t-46 -187zM614.5 491.5q-30.5 61.5 -87.5 96t-132 34.5t-132 -34.5t-87.5 -96t-30.5 -141.5t30.5 -141.5t87.5 -96
t132 -34.5t132 34.5t87.5 96t30.5 141.5t-30.5 141.5zM457 767l-63 63l-62 -63h-83l108 133h75l108 -133h-83z" />
    <glyph glyph-name="Otilde" unicode="&#xd5;" horiz-adv-x="790" 
d="M697 163q-46 -82 -125.5 -127.5t-176.5 -45.5t-176.5 45.5t-125.5 127.5t-46 187t46 187t125.5 127.5t176.5 45.5t176.5 -45.5t125.5 -127.5t46 -187t-46 -187zM614.5 491.5q-30.5 61.5 -87.5 96t-132 34.5t-132 -34.5t-87.5 -96t-30.5 -141.5t30.5 -141.5t87.5 -96
t132 -34.5t132 34.5t87.5 96t30.5 141.5t-30.5 141.5zM539 800.5q-33 -31.5 -74 -31.5q-32 0 -50.5 9t-36.5 26q-13 12 -23 18t-25 6q-38 0 -45 -54h-73q6 63 39 94.5t74 31.5q33 0 51 -9t36 -26q13 -12 23 -18t25 -6q38 0 45 54h73q-6 -63 -39 -94.5z" />
    <glyph glyph-name="Odieresis" unicode="&#xd6;" horiz-adv-x="790" 
d="M697 163q-46 -82 -125.5 -127.5t-176.5 -45.5t-176.5 45.5t-125.5 127.5t-46 187t46 187t125.5 127.5t176.5 45.5t176.5 -45.5t125.5 -127.5t46 -187t-46 -187zM614.5 491.5q-30.5 61.5 -87.5 96t-132 34.5t-132 -34.5t-87.5 -96t-30.5 -141.5t30.5 -141.5t87.5 -96
t132 -34.5t132 34.5t87.5 96t30.5 141.5t-30.5 141.5zM271 875.5q17 16.5 39 16.5q23 0 39.5 -16.5t16.5 -39.5q0 -22 -16.5 -39t-39.5 -17q-22 0 -39 17t-17 39q0 23 17 39.5zM441 875.5q17 16.5 39 16.5q23 0 39.5 -16.5t16.5 -39.5q0 -22 -16.5 -39t-39.5 -17
q-22 0 -39 17t-17 39q0 23 17 39.5z" />
    <glyph glyph-name="multiply" unicode="&#xd7;" horiz-adv-x="461" 
d="M342 528l57 -56l-113 -113l113 -112l-57 -56l-112 112l-112 -112l-56 57l111 111l-111 112l56 57l112 -112z" />
    <glyph glyph-name="Oslash" unicode="&#xd8;" horiz-adv-x="790" 
d="M558 739l76 -39l-31 -57q65 -48 102.5 -123.5t37.5 -169.5q0 -105 -46 -187t-125.5 -127.5t-176.5 -45.5q-70 0 -134 25l-29 -54l-76 39l30 56q-65 48 -102 124t-37 170q0 105 46 187t125.5 127.5t176.5 45.5q69 0 133 -25zM485 605q-42 17 -90 17q-72 0 -129 -34.5
t-89 -96.5t-32 -141q0 -66 22.5 -120.5t63.5 -91.5zM622 470q-23 54 -64 91l-254 -467q45 -16 91 -16q78 0 134.5 34.5t86 96t29.5 141.5q0 66 -23 120z" />
    <glyph glyph-name="Ugrave" unicode="&#xd9;" horiz-adv-x="644" 
d="M164 252q0 -84 39 -129t119 -45t119 45t39 129v448h96v-452q0 -75 -30.5 -133.5t-88 -91.5t-135.5 -33t-135.5 33t-88 91.5t-30.5 133.5v452h96v-448zM300 767l-106 133h115l80 -133h-89z" />
    <glyph glyph-name="Uacute" unicode="&#xda;" horiz-adv-x="644" 
d="M164 252q0 -84 39 -129t119 -45t119 45t39 129v448h96v-452q0 -75 -30.5 -133.5t-88 -91.5t-135.5 -33t-135.5 33t-88 91.5t-30.5 133.5v452h96v-448zM439 900l-106 -133h-89l80 133h115z" />
    <glyph glyph-name="Ucircumflex" unicode="&#xdb;" horiz-adv-x="644" 
d="M164 252q0 -84 39 -129t119 -45t119 45t39 129v448h96v-452q0 -75 -30.5 -133.5t-88 -91.5t-135.5 -33t-135.5 33t-88 91.5t-30.5 133.5v452h96v-448zM384 767l-63 63l-62 -63h-83l108 133h75l108 -133h-83z" />
    <glyph glyph-name="Udieresis" unicode="&#xdc;" horiz-adv-x="644" 
d="M164 252q0 -84 39 -129t119 -45t119 45t39 129v448h96v-452q0 -75 -30.5 -133.5t-88 -91.5t-135.5 -33t-135.5 33t-88 91.5t-30.5 133.5v452h96v-448zM198 875.5q17 16.5 39 16.5q23 0 39.5 -16.5t16.5 -39.5q0 -22 -16.5 -39t-39.5 -17q-22 0 -39 17t-17 39
q0 23 17 39.5zM368 875.5q17 16.5 39 16.5q23 0 39.5 -16.5t16.5 -39.5q0 -22 -16.5 -39t-39.5 -17q-22 0 -39 17t-17 39q0 23 17 39.5z" />
    <glyph glyph-name="Yacute" unicode="&#xdd;" horiz-adv-x="544" 
d="M257 404l15 -68l15 68l137 296h104l-208 -440v-260h-96v260l-208 440h104zM409 900l-106 -133h-89l80 133h115z" />
    <glyph glyph-name="Thorn" unicode="&#xde;" horiz-adv-x="610" 
d="M167 579h144q118 0 188.5 -61.5t70.5 -167.5t-70.5 -167.5t-188.5 -61.5h-144v-121h-96v700h96v-121zM313 209q161 0 161 141t-161 141h-146v-282h146z" />
    <glyph glyph-name="germandbls" unicode="&#xdf;" horiz-adv-x="587" 
d="M223 600q-27 -32 -27 -89v-511h-88v420h-86v80h86v10q0 91 52 145.5t136 54.5q78 0 129 -40t51 -108q0 -38 -18 -65t-51 -60q-17 -16 -25.5 -26.5t-8.5 -20.5q0 -14 15.5 -25.5t49.5 -28.5l22 -12q48 -26 75 -65t27 -91q0 -55 -22 -95t-60.5 -61.5t-85.5 -21.5
q-74 0 -123.5 43.5t-53.5 122.5h83q6 -41 30 -63.5t64 -22.5q36 0 59 23t23 66q0 41 -24 66.5t-77 50.5q-46 22 -68 47.5t-22 61.5q0 25 12 43.5t37 44.5q24 25 36 43.5t12 43.5q0 33 -24.5 52.5t-61.5 19.5q-46 0 -73 -32z" />
    <glyph glyph-name="agrave" unicode="&#xe0;" horiz-adv-x="555" 
d="M96 29.5q-44 39.5 -44 105.5q0 70 48 110t121 47l156 16v34q0 43 -30.5 65.5t-80.5 22.5q-42 0 -70.5 -20t-38.5 -61h-83q11 79 67.5 120t130.5 41q88 0 140.5 -43.5t52.5 -114.5v-234q0 -25 11 -38.5t33 -13.5q13 0 26 4v-66q-30 -10 -56 -10q-81 0 -99 78
q-29 -33 -75 -57.5t-94 -24.5q-71 0 -115 39.5zM377 148v90l-150 -17q-42 -5 -64.5 -27.5t-22.5 -54.5q0 -34 22.5 -51.5t58.5 -17.5q78 0 156 78zM249 567l-106 133h115l80 -133h-89z" />
    <glyph glyph-name="aacute" unicode="&#xe1;" horiz-adv-x="555" 
d="M96 29.5q-44 39.5 -44 105.5q0 70 48 110t121 47l156 16v34q0 43 -30.5 65.5t-80.5 22.5q-42 0 -70.5 -20t-38.5 -61h-83q11 79 67.5 120t130.5 41q88 0 140.5 -43.5t52.5 -114.5v-234q0 -25 11 -38.5t33 -13.5q13 0 26 4v-66q-30 -10 -56 -10q-81 0 -99 78
q-29 -33 -75 -57.5t-94 -24.5q-71 0 -115 39.5zM377 148v90l-150 -17q-42 -5 -64.5 -27.5t-22.5 -54.5q0 -34 22.5 -51.5t58.5 -17.5q78 0 156 78zM388 700l-106 -133h-89l80 133h115z" />
    <glyph glyph-name="acircumflex" unicode="&#xe2;" horiz-adv-x="555" 
d="M96 29.5q-44 39.5 -44 105.5q0 70 48 110t121 47l156 16v34q0 43 -30.5 65.5t-80.5 22.5q-42 0 -70.5 -20t-38.5 -61h-83q11 79 67.5 120t130.5 41q88 0 140.5 -43.5t52.5 -114.5v-234q0 -25 11 -38.5t33 -13.5q13 0 26 4v-66q-30 -10 -56 -10q-81 0 -99 78
q-29 -33 -75 -57.5t-94 -24.5q-71 0 -115 39.5zM377 148v90l-150 -17q-42 -5 -64.5 -27.5t-22.5 -54.5q0 -34 22.5 -51.5t58.5 -17.5q78 0 156 78zM341 567l-63 63l-62 -63h-83l108 133h75l108 -133h-83z" />
    <glyph glyph-name="atilde" unicode="&#xe3;" horiz-adv-x="555" 
d="M96 29.5q-44 39.5 -44 105.5q0 70 48 110t121 47l156 16v34q0 43 -30.5 65.5t-80.5 22.5q-42 0 -70.5 -20t-38.5 -61h-83q11 79 67.5 120t130.5 41q88 0 140.5 -43.5t52.5 -114.5v-234q0 -25 11 -38.5t33 -13.5q13 0 26 4v-66q-30 -10 -56 -10q-81 0 -99 78
q-29 -33 -75 -57.5t-94 -24.5q-71 0 -115 39.5zM377 148v90l-150 -17q-42 -5 -64.5 -27.5t-22.5 -54.5q0 -34 22.5 -51.5t58.5 -17.5q78 0 156 78zM416 600.5q-33 -31.5 -74 -31.5q-32 0 -50.5 9t-36.5 26q-13 12 -23 18t-25 6q-38 0 -45 -54h-73q6 63 39 94.5t74 31.5
q33 0 51 -9t36 -26q13 -12 23 -18t25 -6q38 0 45 54h73q-6 -63 -39 -94.5z" />
    <glyph glyph-name="adieresis" unicode="&#xe4;" horiz-adv-x="555" 
d="M96 29.5q-44 39.5 -44 105.5q0 70 48 110t121 47l156 16v34q0 43 -30.5 65.5t-80.5 22.5q-42 0 -70.5 -20t-38.5 -61h-83q11 79 67.5 120t130.5 41q88 0 140.5 -43.5t52.5 -114.5v-234q0 -25 11 -38.5t33 -13.5q13 0 26 4v-66q-30 -10 -56 -10q-81 0 -99 78
q-29 -33 -75 -57.5t-94 -24.5q-71 0 -115 39.5zM377 148v90l-150 -17q-42 -5 -64.5 -27.5t-22.5 -54.5q0 -34 22.5 -51.5t58.5 -17.5q78 0 156 78zM152 675.5q17 16.5 39 16.5q23 0 39.5 -16.5t16.5 -39.5q0 -22 -16.5 -39t-39.5 -17q-22 0 -39 17t-17 39q0 23 17 39.5z
M322 675.5q17 16.5 39 16.5q23 0 39.5 -16.5t16.5 -39.5q0 -22 -16.5 -39t-39.5 -17q-22 0 -39 17t-17 39q0 23 17 39.5z" />
    <glyph glyph-name="aring" unicode="&#xe5;" horiz-adv-x="555" 
d="M96 29.5q-44 39.5 -44 105.5q0 70 48 110t121 47l156 16v34q0 43 -30.5 65.5t-80.5 22.5q-42 0 -70.5 -20t-38.5 -61h-83q11 79 67.5 120t130.5 41q88 0 140.5 -43.5t52.5 -114.5v-234q0 -25 11 -38.5t33 -13.5q13 0 26 4v-66q-30 -10 -56 -10q-81 0 -99 78
q-29 -33 -75 -57.5t-94 -24.5q-71 0 -115 39.5zM377 148v90l-150 -17q-42 -5 -64.5 -27.5t-22.5 -54.5q0 -34 22.5 -51.5t58.5 -17.5q78 0 156 78zM329 686q24 -24 24 -58t-24 -58t-58 -24t-58 24t-24 58t24 58t58 24t58 -24zM299.5 599.5q11.5 11.5 11.5 28.5t-11.5 28.5
t-28.5 11.5t-28.5 -11.5t-11.5 -28.5t11.5 -28.5t28.5 -11.5t28.5 11.5z" />
    <glyph glyph-name="ae" unicode="&#xe6;" horiz-adv-x="904" 
d="M465 208q6 -65 48 -101.5t107 -36.5q57 0 95 27.5t52 73.5h82q-21 -85 -80 -133t-150 -48q-68 0 -119.5 26t-82.5 75q-36 -46 -90 -73.5t-105 -27.5q-79 0 -124.5 39t-45.5 106q0 72 51.5 113.5t137.5 44.5l136 5v36q0 44 -30.5 70t-79.5 26q-42 0 -71 -20t-39 -61h-83
q11 79 68 120t131 41q59 0 102.5 -20.5t67.5 -56.5q34 37 79.5 57t96.5 20q67 0 120.5 -30.5t84 -87.5t30.5 -136v-34h-389v-14zM771 298q-5 63 -47.5 97.5t-104.5 34.5q-60 0 -102 -35t-52 -97h306zM246 214q-52 -2 -79 -22.5t-27 -52.5q0 -34 22 -51.5t62 -17.5
q85 0 153 78v72z" />
    <glyph glyph-name="ccedilla" unicode="&#xe7;" horiz-adv-x="574" 
d="M178.5 118.5q45.5 -48.5 117.5 -48.5q62 0 101 29t51 82h83q-13 -88 -73 -138t-153 -53l-27 -44q26 11 49 11q33 0 54 -18.5t21 -51.5q0 -41 -28.5 -64t-73.5 -23q-43 0 -68.5 21.5t-29.5 52.5h61q10 -17 37 -17q14 0 23 8t9 22q0 28 -34 28q-21 0 -41 -17l-55 9l39 89
q-88 17 -142 85.5t-54 168.5q0 77 32.5 136t89.5 91.5t128 32.5q97 0 160 -50.5t76 -140.5h-83q-12 53 -51 82t-101 29q-72 0 -117.5 -48.5t-45.5 -131.5t45.5 -131.5z" />
    <glyph glyph-name="egrave" unicode="&#xe8;" horiz-adv-x="574" 
d="M134 222q2 -71 44.5 -111.5t111.5 -40.5q57 0 95 27.5t52 73.5h82q-21 -85 -80 -133t-150 -48q-75 0 -130 32.5t-84.5 91t-29.5 136.5q0 76 33 135t89 92t122 33q67 0 120.5 -30.5t84 -87.5t30.5 -136v-34h-390zM441 298q-5 63 -47.5 97.5t-104.5 34.5q-60 0 -102 -35
t-52 -97h306zM261 567l-106 133h115l80 -133h-89z" />
    <glyph glyph-name="eacute" unicode="&#xe9;" horiz-adv-x="574" 
d="M134 222q2 -71 44.5 -111.5t111.5 -40.5q57 0 95 27.5t52 73.5h82q-21 -85 -80 -133t-150 -48q-75 0 -130 32.5t-84.5 91t-29.5 136.5q0 76 33 135t89 92t122 33q67 0 120.5 -30.5t84 -87.5t30.5 -136v-34h-390zM441 298q-5 63 -47.5 97.5t-104.5 34.5q-60 0 -102 -35
t-52 -97h306zM400 700l-106 -133h-89l80 133h115z" />
    <glyph glyph-name="ecircumflex" unicode="&#xea;" horiz-adv-x="574" 
d="M134 222q2 -71 44.5 -111.5t111.5 -40.5q57 0 95 27.5t52 73.5h82q-21 -85 -80 -133t-150 -48q-75 0 -130 32.5t-84.5 91t-29.5 136.5q0 76 33 135t89 92t122 33q67 0 120.5 -30.5t84 -87.5t30.5 -136v-34h-390zM441 298q-5 63 -47.5 97.5t-104.5 34.5q-60 0 -102 -35
t-52 -97h306zM356 567l-63 63l-62 -63h-83l108 133h75l108 -133h-83z" />
    <glyph glyph-name="edieresis" unicode="&#xeb;" horiz-adv-x="574" 
d="M134 222q2 -71 44.5 -111.5t111.5 -40.5q57 0 95 27.5t52 73.5h82q-21 -85 -80 -133t-150 -48q-75 0 -130 32.5t-84.5 91t-29.5 136.5q0 76 33 135t89 92t122 33q67 0 120.5 -30.5t84 -87.5t30.5 -136v-34h-390zM441 298q-5 63 -47.5 97.5t-104.5 34.5q-60 0 -102 -35
t-52 -97h306zM167 675.5q17 16.5 39 16.5q23 0 39.5 -16.5t16.5 -39.5q0 -22 -16.5 -39t-39.5 -17q-22 0 -39 17t-17 39q0 23 17 39.5zM337 675.5q17 16.5 39 16.5q23 0 39.5 -16.5t16.5 -39.5q0 -22 -16.5 -39t-39.5 -17q-22 0 -39 17t-17 39q0 23 17 39.5z" />
    <glyph glyph-name="igrave" unicode="&#xec;" horiz-adv-x="228" 
d="M158 0h-88v500h88v-500zM93 567l-106 133h115l80 -133h-89z" />
    <glyph glyph-name="iacute" unicode="&#xed;" horiz-adv-x="228" 
d="M158 0h-88v500h88v-500zM242 700l-106 -133h-89l80 133h115z" />
    <glyph glyph-name="icircumflex" unicode="&#xee;" horiz-adv-x="228" 
d="M158 0h-88v500h88v-500zM177 567l-63 63l-62 -63h-83l108 133h75l108 -133h-83z" />
    <glyph glyph-name="idieresis" unicode="&#xef;" horiz-adv-x="228" 
d="M158 0h-88v500h88v-500zM-10 675.5q17 16.5 39 16.5q23 0 39.5 -16.5t16.5 -39.5q0 -22 -16.5 -39t-39.5 -17q-22 0 -39 17t-17 39q0 23 17 39.5zM160 675.5q17 16.5 39 16.5q23 0 39.5 -16.5t16.5 -39.5q0 -22 -16.5 -39t-39.5 -17q-22 0 -39 17t-17 39q0 23 17 39.5z
" />
    <glyph glyph-name="eth" unicode="&#xf0;" horiz-adv-x="609" 
d="M420 575q39 -52 48 -141q-30 38 -78 57t-105 19q-71 0 -125.5 -34t-84.5 -93.5t-30 -132.5q0 -66 32.5 -126t91 -97t134.5 -37q55 0 111 27.5t87 74.5q34 50 48.5 111t14.5 146q0 157 -62 255l38 13l-21 61l-61 -21q-76 73 -198 73q-66 0 -117 -32l33 -68q15 9 40 14.5
t47 5.5q56 0 101 -26l-85 -29l21 -61zM177.5 120q-44.5 50 -44.5 130t44.5 130t120.5 50t120.5 -50t44.5 -130t-44.5 -130t-120.5 -50t-120.5 50z" />
    <glyph glyph-name="ntilde" unicode="&#xf1;" 
d="M153 435q29 31 76 53t99 22q79 0 122 -44t43 -121v-345h-88v329q0 50 -26.5 76.5t-75.5 26.5q-43 0 -81.5 -26t-68.5 -70v-336h-88v500h88v-65zM430 600.5q-33 -31.5 -74 -31.5q-32 0 -50.5 9t-36.5 26q-13 12 -23 18t-25 6q-38 0 -45 -54h-73q6 63 39 94.5t74 31.5
q33 0 51 -9t36 -26q13 -12 23 -18t25 -6q38 0 45 54h73q-6 -63 -39 -94.5z" />
    <glyph glyph-name="ograve" unicode="&#xf2;" horiz-adv-x="604" 
d="M435.5 476.5q58.5 -33.5 91 -93t32.5 -133.5t-32.5 -133.5t-91 -93t-133.5 -33.5t-133.5 33.5t-91 93t-32.5 133.5t32.5 133.5t91 93t133.5 33.5t133.5 -33.5zM180.5 383q-47.5 -47 -47.5 -133t47.5 -133t121.5 -47t121.5 47t47.5 133t-47.5 133t-121.5 47t-121.5 -47z
M280 567l-106 133h115l80 -133h-89z" />
    <glyph glyph-name="oacute" unicode="&#xf3;" horiz-adv-x="604" 
d="M435.5 476.5q58.5 -33.5 91 -93t32.5 -133.5t-32.5 -133.5t-91 -93t-133.5 -33.5t-133.5 33.5t-91 93t-32.5 133.5t32.5 133.5t91 93t133.5 33.5t133.5 -33.5zM180.5 383q-47.5 -47 -47.5 -133t47.5 -133t121.5 -47t121.5 47t47.5 133t-47.5 133t-121.5 47t-121.5 -47z
M419 700l-106 -133h-89l80 133h115z" />
    <glyph glyph-name="ocircumflex" unicode="&#xf4;" horiz-adv-x="604" 
d="M435.5 476.5q58.5 -33.5 91 -93t32.5 -133.5t-32.5 -133.5t-91 -93t-133.5 -33.5t-133.5 33.5t-91 93t-32.5 133.5t32.5 133.5t91 93t133.5 33.5t133.5 -33.5zM180.5 383q-47.5 -47 -47.5 -133t47.5 -133t121.5 -47t121.5 47t47.5 133t-47.5 133t-121.5 47t-121.5 -47z
M364 567l-63 63l-62 -63h-83l108 133h75l108 -133h-83z" />
    <glyph glyph-name="otilde" unicode="&#xf5;" horiz-adv-x="604" 
d="M435.5 476.5q58.5 -33.5 91 -93t32.5 -133.5t-32.5 -133.5t-91 -93t-133.5 -33.5t-133.5 33.5t-91 93t-32.5 133.5t32.5 133.5t91 93t133.5 33.5t133.5 -33.5zM180.5 383q-47.5 -47 -47.5 -133t47.5 -133t121.5 -47t121.5 47t47.5 133t-47.5 133t-121.5 47t-121.5 -47z
M442 600.5q-33 -31.5 -74 -31.5q-32 0 -50.5 9t-36.5 26q-13 12 -23 18t-25 6q-38 0 -45 -54h-73q6 63 39 94.5t74 31.5q33 0 51 -9t36 -26q13 -12 23 -18t25 -6q38 0 45 54h73q-6 -63 -39 -94.5z" />
    <glyph glyph-name="odieresis" unicode="&#xf6;" horiz-adv-x="604" 
d="M435.5 476.5q58.5 -33.5 91 -93t32.5 -133.5t-32.5 -133.5t-91 -93t-133.5 -33.5t-133.5 33.5t-91 93t-32.5 133.5t32.5 133.5t91 93t133.5 33.5t133.5 -33.5zM180.5 383q-47.5 -47 -47.5 -133t47.5 -133t121.5 -47t121.5 47t47.5 133t-47.5 133t-121.5 47t-121.5 -47z
M178 675.5q17 16.5 39 16.5q23 0 39.5 -16.5t16.5 -39.5q0 -22 -16.5 -39t-39.5 -17q-22 0 -39 17t-17 39q0 23 17 39.5zM348 675.5q17 16.5 39 16.5q23 0 39.5 -16.5t16.5 -39.5q0 -22 -16.5 -39t-39.5 -17q-22 0 -39 17t-17 39q0 23 17 39.5z" />
    <glyph glyph-name="divide" unicode="&#xf7;" horiz-adv-x="457" 
d="M279.5 488.5q21.5 -21.5 21.5 -50.5t-21.5 -50.5t-50.5 -21.5t-50.5 21.5t-21.5 50.5t21.5 50.5t50.5 21.5t50.5 -21.5zM427 215h-397v80h397v-80zM279.5 122.5q21.5 -21.5 21.5 -50.5t-21.5 -50.5t-50.5 -21.5t-50.5 21.5t-21.5 50.5t21.5 50.5t50.5 21.5t50.5 -21.5z
" />
    <glyph glyph-name="oslash" unicode="&#xf8;" horiz-adv-x="604" 
d="M393 495l24 44l76 -39l-25 -46q43 -36 67 -88.5t24 -115.5q0 -74 -32.5 -133.5t-91 -93t-133.5 -33.5q-42 0 -80 11l-22 -40l-76 39l21 39q-48 35 -74 90t-26 121q0 74 32.5 133.5t91 93t133.5 33.5q49 0 91 -15zM354 423q-30 7 -52 7q-74 0 -121.5 -47t-47.5 -133
q0 -88 52 -137zM302 70q74 0 121.5 47t47.5 133q0 80 -44 129l-166 -305q17 -4 41 -4z" />
    <glyph glyph-name="ugrave" unicode="&#xf9;" 
d="M405 65q-29 -31 -76 -53t-99 -22q-79 0 -122 44t-43 121v345h88v-329q0 -50 26.5 -76.5t75.5 -26.5q43 0 81.5 26t68.5 70v336h88v-500h-88v65zM267 567l-106 133h115l80 -133h-89z" />
    <glyph glyph-name="uacute" unicode="&#xfa;" 
d="M405 65q-29 -31 -76 -53t-99 -22q-79 0 -122 44t-43 121v345h88v-329q0 -50 26.5 -76.5t75.5 -26.5q43 0 81.5 26t68.5 70v336h88v-500h-88v65zM396 700l-106 -133h-89l80 133h115z" />
    <glyph glyph-name="ucircumflex" unicode="&#xfb;" 
d="M405 65q-29 -31 -76 -53t-99 -22q-79 0 -122 44t-43 121v345h88v-329q0 -50 26.5 -76.5t75.5 -26.5q43 0 81.5 26t68.5 70v336h88v-500h-88v65zM341 567l-63 63l-62 -63h-83l108 133h75l108 -133h-83z" />
    <glyph glyph-name="udieresis" unicode="&#xfc;" 
d="M405 65q-29 -31 -76 -53t-99 -22q-79 0 -122 44t-43 121v345h88v-329q0 -50 26.5 -76.5t75.5 -26.5q43 0 81.5 26t68.5 70v336h88v-500h-88v65zM155 675.5q17 16.5 39 16.5q23 0 39.5 -16.5t16.5 -39.5q0 -22 -16.5 -39t-39.5 -17q-22 0 -39 17t-17 39q0 23 17 39.5z
M325 675.5q17 16.5 39 16.5q23 0 39.5 -16.5t16.5 -39.5q0 -22 -16.5 -39t-39.5 -17q-22 0 -39 17t-17 39q0 23 17 39.5z" />
    <glyph glyph-name="yacute" unicode="&#xfd;" horiz-adv-x="498" 
d="M490 500l-278 -700h-87l89 222l-198 478h92l134 -319l13 -61l146 380h89zM374 700l-106 -133h-89l80 133h115z" />
    <glyph glyph-name="thorn" unicode="&#xfe;" horiz-adv-x="576" 
d="M55 700h88v-255q26 27 66 46t93 19q62 0 114.5 -32t83.5 -91t31 -137t-29 -137t-81 -91t-117 -32q-48 0 -90.5 16.5t-70.5 46.5v-253h-88v900zM399.5 385q-43.5 45 -111.5 45q-39 0 -72.5 -18t-53 -48t-19.5 -65v-96q0 -35 20 -65.5t53 -49t72 -18.5q68 0 111.5 45
t43.5 135t-43.5 135z" />
    <glyph glyph-name="ydieresis" unicode="&#xff;" horiz-adv-x="498" 
d="M490 500l-278 -700h-87l89 222l-198 478h92l134 -319l13 -61l146 380h89zM135 675.5q17 16.5 39 16.5q23 0 39.5 -16.5t16.5 -39.5q0 -22 -16.5 -39t-39.5 -17q-22 0 -39 17t-17 39q0 23 17 39.5zM305 675.5q17 16.5 39 16.5q23 0 39.5 -16.5t16.5 -39.5q0 -22 -16.5 -39
t-39.5 -17q-22 0 -39 17t-17 39q0 23 17 39.5z" />
    <glyph glyph-name="Amacron" unicode="&#x100;" horiz-adv-x="598" 
d="M251 700h96l252 -700h-102l-47 136h-303l-46 -136h-102zM420 224l-108 315l-13 75l-13 -75l-109 -315h243zM418 796h-238v74h238v-74z" />
    <glyph glyph-name="amacron" unicode="&#x101;" horiz-adv-x="555" 
d="M96 29.5q-44 39.5 -44 105.5q0 70 48 110t121 47l156 16v34q0 43 -30.5 65.5t-80.5 22.5q-42 0 -70.5 -20t-38.5 -61h-83q11 79 67.5 120t130.5 41q88 0 140.5 -43.5t52.5 -114.5v-234q0 -25 11 -38.5t33 -13.5q13 0 26 4v-66q-30 -10 -56 -10q-81 0 -99 78
q-29 -33 -75 -57.5t-94 -24.5q-71 0 -115 39.5zM377 148v90l-150 -17q-42 -5 -64.5 -27.5t-22.5 -54.5q0 -34 22.5 -51.5t58.5 -17.5q78 0 156 78zM396 596h-238v74h238v-74z" />
    <glyph glyph-name="Abreve" unicode="&#x102;" horiz-adv-x="598" 
d="M251 700h96l252 -700h-102l-47 136h-303l-46 -136h-102zM420 224l-108 315l-13 75l-13 -75l-109 -315h243zM376.5 804q-28.5 -30 -77.5 -30t-77.5 30t-28.5 76h70q0 -18 9.5 -29t26.5 -11t26.5 11t9.5 29h70q0 -46 -28.5 -76z" />
    <glyph glyph-name="abreve" unicode="&#x103;" horiz-adv-x="555" 
d="M96 29.5q-44 39.5 -44 105.5q0 70 48 110t121 47l156 16v34q0 43 -30.5 65.5t-80.5 22.5q-42 0 -70.5 -20t-38.5 -61h-83q11 79 67.5 120t130.5 41q88 0 140.5 -43.5t52.5 -114.5v-234q0 -25 11 -38.5t33 -13.5q13 0 26 4v-66q-30 -10 -56 -10q-81 0 -99 78
q-29 -33 -75 -57.5t-94 -24.5q-71 0 -115 39.5zM377 148v90l-150 -17q-42 -5 -64.5 -27.5t-22.5 -54.5q0 -34 22.5 -51.5t58.5 -17.5q78 0 156 78zM354.5 604q-28.5 -30 -77.5 -30t-77.5 30t-28.5 76h70q0 -18 9.5 -29t26.5 -11t26.5 11t9.5 29h70q0 -46 -28.5 -76z" />
    <glyph glyph-name="Aogonek" unicode="&#x104;" horiz-adv-x="598" 
d="M467 -164.5q-27 25.5 -27 63.5q0 32 16 58.5t41 42.5l-47 136h-303l-46 -136h-102l252 700h96l252 -700q-46 -13 -67.5 -37.5t-21.5 -47.5q0 -18 10 -28.5t25 -10.5q27 0 46 30l47 -35q-17 -30 -41.5 -45.5t-59.5 -15.5q-43 0 -70 25.5zM420 224l-108 315l-13 75l-13 -75
l-109 -315h243z" />
    <glyph glyph-name="aogonek" unicode="&#x105;" horiz-adv-x="555" 
d="M377 308v34q0 43 -30.5 65.5t-80.5 22.5q-42 0 -70.5 -20t-38.5 -61h-83q11 79 67.5 120t130.5 41q88 0 140.5 -43.5t52.5 -114.5v-235q0 -25 11 -38.5t33 -13.5q13 0 26 4v-65q-30 -14 -48 -39.5t-18 -53.5q0 -15 10 -25t25 -10q27 0 46 30l47 -35q-17 -30 -41.5 -45.5
t-59.5 -15.5q-43 0 -70 25.5t-27 63.5q0 31 14.5 57t37.5 41q-56 12 -71 75q-28 -33 -73.5 -57.5t-95.5 -24.5q-71 0 -115 39.5t-44 105.5q0 70 48 110t121 47zM377 148v90l-150 -17q-42 -5 -64.5 -27.5t-22.5 -54.5q0 -34 22.5 -51.5t58.5 -17.5q78 0 156 78z" />
    <glyph glyph-name="Cacute" unicode="&#x106;" horiz-adv-x="736" 
d="M533 118.5q57 40.5 78 112.5h96q-15 -72 -57 -126.5t-107.5 -84.5t-147.5 -30q-95 0 -174.5 45.5t-126.5 127.5t-47 187t47 187t126.5 127.5t174.5 45.5q124 0 207 -66t105 -175h-96q-21 72 -78 112.5t-139 40.5q-75 0 -131.5 -35t-87 -97t-30.5 -140t30.5 -140t87 -97
t131.5 -35q82 0 139 40.5zM530 900l-106 -133h-89l80 133h115z" />
    <glyph glyph-name="cacute" unicode="&#x107;" horiz-adv-x="574" 
d="M397 99q39 29 51 82h83q-13 -90 -76 -140.5t-160 -50.5q-71 0 -128 32.5t-89.5 91.5t-32.5 136t32.5 136t89.5 91.5t128 32.5q97 0 160 -50.5t76 -140.5h-83q-12 53 -51 82t-101 29q-72 0 -117.5 -48.5t-45.5 -131.5t45.5 -131.5t117.5 -48.5q62 0 101 29zM432 700
l-106 -133h-89l80 133h115z" />
    <glyph glyph-name="Ccircumflex" unicode="&#x108;" horiz-adv-x="736" 
d="M533 118.5q57 40.5 78 112.5h96q-15 -72 -57 -126.5t-107.5 -84.5t-147.5 -30q-95 0 -174.5 45.5t-126.5 127.5t-47 187t47 187t126.5 127.5t174.5 45.5q124 0 207 -66t105 -175h-96q-21 72 -78 112.5t-139 40.5q-75 0 -131.5 -35t-87 -97t-30.5 -140t30.5 -140t87 -97
t131.5 -35q82 0 139 40.5zM461 767l-63 63l-62 -63h-83l108 133h75l108 -133h-83z" />
    <glyph glyph-name="ccircumflex" unicode="&#x109;" horiz-adv-x="574" 
d="M397 99q39 29 51 82h83q-13 -90 -76 -140.5t-160 -50.5q-71 0 -128 32.5t-89.5 91.5t-32.5 136t32.5 136t89.5 91.5t128 32.5q97 0 160 -50.5t76 -140.5h-83q-12 53 -51 82t-101 29q-72 0 -117.5 -48.5t-45.5 -131.5t45.5 -131.5t117.5 -48.5q62 0 101 29zM366 567
l-63 63l-62 -63h-83l108 133h75l108 -133h-83z" />
    <glyph glyph-name="Cdotaccent" unicode="&#x10a;" horiz-adv-x="736" 
d="M533 118.5q57 40.5 78 112.5h96q-15 -72 -57 -126.5t-107.5 -84.5t-147.5 -30q-95 0 -174.5 45.5t-126.5 127.5t-47 187t47 187t126.5 127.5t174.5 45.5q124 0 207 -66t105 -175h-96q-21 72 -78 112.5t-139 40.5q-75 0 -131.5 -35t-87 -97t-30.5 -140t30.5 -140t87 -97
t131.5 -35q82 0 139 40.5zM446 881q19 -19 19 -45t-19 -45t-45 -19t-45 19t-19 45t19 45t45 19t45 -19z" />
    <glyph glyph-name="cdotaccent" unicode="&#x10b;" horiz-adv-x="574" 
d="M397 99q39 29 51 82h83q-13 -90 -76 -140.5t-160 -50.5q-71 0 -128 32.5t-89.5 91.5t-32.5 136t32.5 136t89.5 91.5t128 32.5q97 0 160 -50.5t76 -140.5h-83q-12 53 -51 82t-101 29q-72 0 -117.5 -48.5t-45.5 -131.5t45.5 -131.5t117.5 -48.5q62 0 101 29zM342 681
q19 -19 19 -45t-19 -45t-45 -19t-45 19t-19 45t19 45t45 19t45 -19z" />
    <glyph glyph-name="Ccaron" unicode="&#x10c;" horiz-adv-x="736" 
d="M533 118.5q57 40.5 78 112.5h96q-15 -72 -57 -126.5t-107.5 -84.5t-147.5 -30q-95 0 -174.5 45.5t-126.5 127.5t-47 187t47 187t126.5 127.5t174.5 45.5q124 0 207 -66t105 -175h-96q-21 72 -78 112.5t-139 40.5q-75 0 -131.5 -35t-87 -97t-30.5 -140t30.5 -140t87 -97
t131.5 -35q82 0 139 40.5zM359 767l-108 133h83l62 -63l63 63h83l-108 -133h-75z" />
    <glyph glyph-name="ccaron" unicode="&#x10d;" horiz-adv-x="574" 
d="M397 99q39 29 51 82h83q-13 -90 -76 -140.5t-160 -50.5q-71 0 -128 32.5t-89.5 91.5t-32.5 136t32.5 136t89.5 91.5t128 32.5q97 0 160 -50.5t76 -140.5h-83q-12 53 -51 82t-101 29q-72 0 -117.5 -48.5t-45.5 -131.5t45.5 -131.5t117.5 -48.5q62 0 101 29zM261 567
l-108 133h83l62 -63l63 63h83l-108 -133h-75z" />
    <glyph glyph-name="Dcaron" unicode="&#x10e;" horiz-adv-x="686" 
d="M71 0v700h202q113 0 195.5 -43.5t126.5 -122.5t44 -184t-44 -184t-126.5 -122.5t-195.5 -43.5h-202zM167 612v-524h102q128 0 201 64.5t73 197.5t-73 197.5t-201 64.5h-102zM189 767l-108 133h83l62 -63l63 63h83l-108 -133h-75z" />
    <glyph glyph-name="dcaron" unicode="&#x10f;" horiz-adv-x="713" 
d="M521 0h-88v55q-26 -27 -66 -46t-93 -19q-62 0 -114.5 32t-83.5 91t-31 137t29 137t81 91t117 32q48 0 90.5 -16.5t70.5 -46.5v283h88v-730zM609 574q17 16 22 38q-25 3 -41.5 18.5t-16.5 40.5q0 27 17 43t43 16t42.5 -18.5t16.5 -47.5q0 -49 -28.5 -84t-85.5 -53l-10 24
q24 7 41 23zM176.5 115q43.5 -45 111.5 -45q39 0 72.5 18t53 48t19.5 65v96q0 35 -20 65.5t-53 49t-72 18.5q-68 0 -111.5 -45t-43.5 -135t43.5 -135z" />
    <glyph glyph-name="Dcroat" unicode="&#x110;" horiz-adv-x="709" 
d="M94 700h202q113 0 195.5 -43.5t126.5 -122.5t44 -184t-44 -184t-126.5 -122.5t-195.5 -43.5h-202v310h-85v80h85v310zM190 612v-222h156v-80h-156v-222h102q128 0 201 64.5t73 197.5t-73 197.5t-201 64.5h-102z" />
    <glyph glyph-name="dcroat" unicode="&#x111;" horiz-adv-x="586" 
d="M521 646h84v-74h-84v-572h-88v55q-26 -27 -66 -46t-93 -19q-62 0 -114.5 32t-83.5 91t-31 137t29 137t81 91t117 32q48 0 90.5 -16.5t70.5 -46.5v125h-165v74h165v84h88v-84zM176.5 115q43.5 -45 111.5 -45q39 0 72.5 18t53 48t19.5 65v96q0 35 -20 65.5t-53 49t-72 18.5
q-68 0 -111.5 -45t-43.5 -135t43.5 -135z" />
    <glyph glyph-name="Emacron" unicode="&#x112;" horiz-adv-x="537" 
d="M167 394h296v-88h-296v-218h334v-88h-430v700h419v-88h-323v-218zM406 796h-238v74h238v-74z" />
    <glyph glyph-name="emacron" unicode="&#x113;" horiz-adv-x="574" 
d="M134 222q2 -71 44.5 -111.5t111.5 -40.5q57 0 95 27.5t52 73.5h82q-21 -85 -80 -133t-150 -48q-75 0 -130 32.5t-84.5 91t-29.5 136.5q0 76 33 135t89 92t122 33q67 0 120.5 -30.5t84 -87.5t30.5 -136v-34h-390zM441 298q-5 63 -47.5 97.5t-104.5 34.5q-60 0 -102 -35
t-52 -97h306zM407 596h-238v74h238v-74z" />
    <glyph glyph-name="Ebreve" unicode="&#x114;" horiz-adv-x="537" 
d="M167 394h296v-88h-296v-218h334v-88h-430v700h419v-88h-323v-218zM356.5 804q-28.5 -30 -77.5 -30t-77.5 30t-28.5 76h70q0 -18 9.5 -29t26.5 -11t26.5 11t9.5 29h70q0 -46 -28.5 -76z" />
    <glyph glyph-name="ebreve" unicode="&#x115;" horiz-adv-x="574" 
d="M134 222q2 -71 44.5 -111.5t111.5 -40.5q57 0 95 27.5t52 73.5h82q-21 -85 -80 -133t-150 -48q-75 0 -130 32.5t-84.5 91t-29.5 136.5q0 76 33 135t89 92t122 33q67 0 120.5 -30.5t84 -87.5t30.5 -136v-34h-390zM441 298q-5 63 -47.5 97.5t-104.5 34.5q-60 0 -102 -35
t-52 -97h306zM365.5 604q-28.5 -30 -77.5 -30t-77.5 30t-28.5 76h70q0 -18 9.5 -29t26.5 -11t26.5 11t9.5 29h70q0 -46 -28.5 -76z" />
    <glyph glyph-name="Edotaccent" unicode="&#x116;" horiz-adv-x="537" 
d="M167 394h296v-88h-296v-218h334v-88h-430v700h419v-88h-323v-218zM326 881q19 -19 19 -45t-19 -45t-45 -19t-45 19t-19 45t19 45t45 19t45 -19z" />
    <glyph glyph-name="edotaccent" unicode="&#x117;" horiz-adv-x="574" 
d="M134 222q2 -71 44.5 -111.5t111.5 -40.5q57 0 95 27.5t52 73.5h82q-21 -85 -80 -133t-150 -48q-75 0 -130 32.5t-84.5 91t-29.5 136.5q0 76 33 135t89 92t122 33q67 0 120.5 -30.5t84 -87.5t30.5 -136v-34h-390zM441 298q-5 63 -47.5 97.5t-104.5 34.5q-60 0 -102 -35
t-52 -97h306zM336 681q19 -19 19 -45t-19 -45t-45 -19t-45 19t-19 45t19 45t45 19t45 -19z" />
    <glyph glyph-name="Eogonek" unicode="&#x118;" horiz-adv-x="537" 
d="M501 0q-26 -26 -39 -47t-13 -42q0 -15 10 -25t25 -10q27 0 46 30l47 -35q-14 -28 -41 -44.5t-60 -16.5q-43 0 -70 25.5t-27 63.5q0 32 16 58.5t41 42.5h-365v700h419v-88h-323v-218h296v-88h-296v-218h334v-88z" />
    <glyph glyph-name="eogonek" unicode="&#x119;" horiz-adv-x="574" 
d="M254 -49.5q12 23.5 31 39.5q-112 1 -176 72t-64 188q0 76 33 135t89 92t122 33q67 0 120.5 -30.5t84 -87.5t30.5 -136v-34h-390q2 -71 44.5 -111.5t111.5 -40.5q57 0 95 27.5t52 73.5h82q-14 -60 -47.5 -99.5t-72.5 -58.5q-87 -42 -87 -95q0 -20 10 -31t25 -11
q27 0 46 30l47 -35q-17 -30 -41.5 -45.5t-59.5 -15.5q-43 0 -70 25.5t-27 63.5q0 28 12 51.5zM441 298q-5 63 -47.5 97.5t-104.5 34.5q-60 0 -102 -35t-52 -97h306z" />
    <glyph glyph-name="Ecaron" unicode="&#x11a;" horiz-adv-x="537" 
d="M167 394h296v-88h-296v-218h334v-88h-430v700h419v-88h-323v-218zM242 767l-108 133h83l62 -63l63 63h83l-108 -133h-75z" />
    <glyph glyph-name="ecaron" unicode="&#x11b;" horiz-adv-x="574" 
d="M134 222q2 -71 44.5 -111.5t111.5 -40.5q57 0 95 27.5t52 73.5h82q-21 -85 -80 -133t-150 -48q-75 0 -130 32.5t-84.5 91t-29.5 136.5q0 76 33 135t89 92t122 33q67 0 120.5 -30.5t84 -87.5t30.5 -136v-34h-390zM441 298q-5 63 -47.5 97.5t-104.5 34.5q-60 0 -102 -35
t-52 -97h306zM250 567l-108 133h83l62 -63l63 63h83l-108 -133h-75z" />
    <glyph glyph-name="Gcircumflex" unicode="&#x11c;" horiz-adv-x="763" 
d="M713 376v-57q0 -95 -39 -169.5t-111 -117t-168 -42.5q-95 0 -174.5 45.5t-126.5 127.5t-47 187t47 187t126.5 127.5t174.5 45.5q80 0 145 -29t106.5 -81t54.5 -120h-96q-22 70 -75 106t-136 36q-75 0 -131.5 -35t-87 -97t-30.5 -140t30.5 -140t87 -97t131.5 -35
q100 0 157 55.5t65 154.5h-292v88h389zM458 767l-63 63l-62 -63h-83l108 133h75l108 -133h-83z" />
    <glyph glyph-name="gcircumflex" unicode="&#x11d;" horiz-adv-x="576" 
d="M460.5 -152q-60.5 -58 -169.5 -58q-94 0 -148 42t-63 113h96q17 -75 112 -75q78 0 111.5 38.5t33.5 99.5v58q-34 -34 -71.5 -50t-89.5 -16q-66 0 -117.5 30.5t-80.5 88.5t-29 136q0 77 31 135t83.5 89t114.5 31q53 0 93 -19t66 -46v55h88v-497q0 -97 -60.5 -155zM433 286
q0 41 -19.5 74t-53 51.5t-72.5 18.5q-68 0 -111.5 -43t-43.5 -132t43.5 -132t111.5 -43q65 0 105 40.5t40 101.5v64zM352 567l-63 63l-62 -63h-83l108 133h75l108 -133h-83z" />
    <glyph glyph-name="Gbreve" unicode="&#x11e;" horiz-adv-x="763" 
d="M713 376v-57q0 -95 -39 -169.5t-111 -117t-168 -42.5q-95 0 -174.5 45.5t-126.5 127.5t-47 187t47 187t126.5 127.5t174.5 45.5q80 0 145 -29t106.5 -81t54.5 -120h-96q-22 70 -75 106t-136 36q-75 0 -131.5 -35t-87 -97t-30.5 -140t30.5 -140t87 -97t131.5 -35
q100 0 157 55.5t65 154.5h-292v88h389zM472.5 804q-28.5 -30 -77.5 -30t-77.5 30t-28.5 76h70q0 -18 9.5 -29t26.5 -11t26.5 11t9.5 29h70q0 -46 -28.5 -76z" />
    <glyph glyph-name="gbreve" unicode="&#x11f;" horiz-adv-x="576" 
d="M460.5 -152q-60.5 -58 -169.5 -58q-94 0 -148 42t-63 113h96q17 -75 112 -75q78 0 111.5 38.5t33.5 99.5v58q-34 -34 -71.5 -50t-89.5 -16q-66 0 -117.5 30.5t-80.5 88.5t-29 136q0 77 31 135t83.5 89t114.5 31q53 0 93 -19t66 -46v55h88v-497q0 -97 -60.5 -155zM433 286
q0 41 -19.5 74t-53 51.5t-72.5 18.5q-68 0 -111.5 -43t-43.5 -132t43.5 -132t111.5 -43q65 0 105 40.5t40 101.5v64zM368.5 604q-28.5 -30 -77.5 -30t-77.5 30t-28.5 76h70q0 -18 9.5 -29t26.5 -11t26.5 11t9.5 29h70q0 -46 -28.5 -76z" />
    <glyph glyph-name="Gdotaccent" unicode="&#x120;" horiz-adv-x="763" 
d="M713 376v-57q0 -95 -39 -169.5t-111 -117t-168 -42.5q-95 0 -174.5 45.5t-126.5 127.5t-47 187t47 187t126.5 127.5t174.5 45.5q80 0 145 -29t106.5 -81t54.5 -120h-96q-22 70 -75 106t-136 36q-75 0 -131.5 -35t-87 -97t-30.5 -140t30.5 -140t87 -97t131.5 -35
q100 0 157 55.5t65 154.5h-292v88h389zM442 881q19 -19 19 -45t-19 -45t-45 -19t-45 19t-19 45t19 45t45 19t45 -19z" />
    <glyph glyph-name="gdotaccent" unicode="&#x121;" horiz-adv-x="576" 
d="M460.5 -152q-60.5 -58 -169.5 -58q-94 0 -148 42t-63 113h96q17 -75 112 -75q78 0 111.5 38.5t33.5 99.5v58q-34 -34 -71.5 -50t-89.5 -16q-66 0 -117.5 30.5t-80.5 88.5t-29 136q0 77 31 135t83.5 89t114.5 31q53 0 93 -19t66 -46v55h88v-497q0 -97 -60.5 -155zM433 286
q0 41 -19.5 74t-53 51.5t-72.5 18.5q-68 0 -111.5 -43t-43.5 -132t43.5 -132t111.5 -43q65 0 105 40.5t40 101.5v64zM334 681q19 -19 19 -45t-19 -45t-45 -19t-45 19t-19 45t19 45t45 19t45 -19z" />
    <glyph glyph-name="uni0122" unicode="&#x122;" horiz-adv-x="763" 
d="M713 376v-57q0 -95 -39 -169.5t-111 -117t-168 -42.5q-95 0 -174.5 45.5t-126.5 127.5t-47 187t47 187t126.5 127.5t174.5 45.5q80 0 145 -29t106.5 -81t54.5 -120h-96q-22 70 -75 106t-136 36q-75 0 -131.5 -35t-87 -97t-30.5 -140t30.5 -140t87 -97t131.5 -35
q100 0 157 55.5t65 154.5h-292v88h389zM378.5 -234.5q15.5 23.5 19.5 51.5q-29 0 -45.5 19.5t-16.5 44.5q0 26 18.5 44.5t45.5 18.5q28 0 45.5 -18.5t17.5 -44.5q0 -57 -30 -103.5t-80 -78.5l-17 21q27 22 42.5 45.5z" />
    <glyph glyph-name="uni0123" unicode="&#x123;" horiz-adv-x="576" 
d="M290 697q30 -2 46 -20.5t16 -43.5q0 -26 -18.5 -44.5t-45.5 -18.5q-28 0 -47 19.5t-19 53.5q0 55 31.5 101.5t97.5 73.5l11 -24q-64 -33 -72 -97zM460.5 -152q-60.5 -58 -169.5 -58q-94 0 -148 42t-63 113h96q17 -75 112 -75q78 0 111.5 38.5t33.5 99.5v58
q-34 -34 -71.5 -50t-89.5 -16q-66 0 -117.5 30.5t-80.5 88.5t-29 136q0 77 31 135t83.5 89t114.5 31q53 0 93 -19t66 -46v55h88v-497q0 -97 -60.5 -155zM433 286q0 41 -19.5 74t-53 51.5t-72.5 18.5q-68 0 -111.5 -43t-43.5 -132t43.5 -132t111.5 -43q65 0 105 40.5
t40 101.5v64z" />
    <glyph glyph-name="Hcircumflex" unicode="&#x124;" horiz-adv-x="657" 
d="M167 394h323v306h96v-700h-96v306h-323v-306h-96v700h96v-306zM391 767l-63 63l-62 -63h-83l108 133h75l108 -133h-83z" />
    <glyph glyph-name="hcircumflex" unicode="&#x125;" horiz-adv-x="570" 
d="M163 435q29 31 78 53t103 22q80 0 125.5 -44.5t45.5 -120.5v-345h-88v329q0 49 -29 76t-79 27q-43 0 -85 -25t-71 -65v-342h-88v730h88v-295zM273 767l-63 63l-62 -63h-83l108 133h75l108 -133h-83z" />
    <glyph glyph-name="Hbar" unicode="&#x126;" horiz-adv-x="657" 
d="M167 580h323v120h96v-120h62v-80h-62v-500h-96v306h-323v-306h-96v500h-62v80h62v120h96v-120zM490 500h-323v-106h323v106z" />
    <glyph glyph-name="hbar" unicode="&#x127;" horiz-adv-x="570" 
d="M153 646h165v-74h-165v-137q29 31 78 53t103 22q80 0 125.5 -44.5t45.5 -120.5v-345h-88v329q0 49 -29 76t-79 27q-43 0 -85 -25t-71 -65v-342h-88v572h-84v74h84v84h88v-84z" />
    <glyph glyph-name="Itilde" unicode="&#x128;" horiz-adv-x="238" 
d="M167 0h-96v700h96v-700zM263 800.5q-33 -31.5 -74 -31.5q-32 0 -50.5 9t-36.5 26q-13 12 -23 18t-25 6q-38 0 -45 -54h-73q6 63 39 94.5t74 31.5q33 0 51 -9t36 -26q13 -12 23 -18t25 -6q38 0 45 54h73q-6 -63 -39 -94.5z" />
    <glyph glyph-name="itilde" unicode="&#x129;" horiz-adv-x="228" 
d="M158 0h-88v500h88v-500zM258 600.5q-33 -31.5 -74 -31.5q-32 0 -50.5 9t-36.5 26q-13 12 -23 18t-25 6q-38 0 -45 -54h-73q6 63 39 94.5t74 31.5q33 0 51 -9t36 -26q13 -12 23 -18t25 -6q38 0 45 54h73q-6 -63 -39 -94.5z" />
    <glyph glyph-name="Imacron" unicode="&#x12a;" horiz-adv-x="238" 
d="M167 0h-96v700h96v-700zM238 796h-238v74h238v-74z" />
    <glyph glyph-name="imacron" unicode="&#x12b;" horiz-adv-x="228" 
d="M158 0h-88v500h88v-500zM233 596h-238v74h238v-74z" />
    <glyph glyph-name="Ibreve" unicode="&#x12c;" horiz-adv-x="238" 
d="M167 0h-96v700h96v-700zM196.5 804q-28.5 -30 -77.5 -30t-77.5 30t-28.5 76h70q0 -18 9.5 -29t26.5 -11t26.5 11t9.5 29h70q0 -46 -28.5 -76z" />
    <glyph glyph-name="ibreve" unicode="&#x12d;" horiz-adv-x="228" 
d="M158 0h-88v500h88v-500zM191.5 604q-28.5 -30 -77.5 -30t-77.5 30t-28.5 76h70q0 -18 9.5 -29t26.5 -11t26.5 11t9.5 29h70q0 -46 -28.5 -76z" />
    <glyph glyph-name="Iogonek" unicode="&#x12e;" horiz-adv-x="238" 
d="M41 -164.5q-27 25.5 -27 63.5q0 32 16 58.5t41 42.5v700h96v-700q-43 -19 -63 -42t-20 -47q0 -15 10 -25t25 -10q27 0 46 30l47 -35q-17 -30 -41.5 -45.5t-59.5 -15.5q-43 0 -70 25.5z" />
    <glyph glyph-name="iogonek" unicode="&#x12f;" horiz-adv-x="228" 
d="M156.5 678.5q17.5 -17.5 17.5 -42.5t-17.5 -42.5t-42.5 -17.5t-42.5 17.5t-17.5 42.5t17.5 42.5t42.5 17.5t42.5 -17.5zM40 -164.5q-27 25.5 -27 63.5q0 32 16 58.5t41 42.5v500h88v-500q-39 -16 -57 -39t-18 -44q0 -19 10 -30t25 -11q27 0 46 30l47 -35
q-17 -30 -41.5 -45.5t-59.5 -15.5q-43 0 -70 25.5z" />
    <glyph glyph-name="Idotaccent" unicode="&#x130;" horiz-adv-x="238" 
d="M167 0h-96v700h96v-700zM164 881q19 -19 19 -45t-19 -45t-45 -19t-45 19t-19 45t19 45t45 19t45 -19z" />
    <glyph glyph-name="dotlessi" unicode="&#x131;" horiz-adv-x="228" 
d="M158 0h-88v500h88v-500z" />
    <glyph glyph-name="IJ" unicode="&#x132;" horiz-adv-x="753" 
d="M167 0h-96v700h96v-700zM393 112.5q29 -34.5 82 -34.5q55 0 83 32.5t28 92.5v497h96v-484q0 -106 -53 -166t-154 -60q-95 0 -150 61t-55 160h93q1 -64 30 -98.5z" />
    <glyph glyph-name="ij" unicode="&#x133;" horiz-adv-x="456" 
d="M156.5 678.5q17.5 -17.5 17.5 -42.5t-17.5 -42.5t-42.5 -17.5t-42.5 17.5t-17.5 42.5t17.5 42.5t42.5 17.5t42.5 -17.5zM158 0h-88v500h88v-500zM384.5 678.5q17.5 -17.5 17.5 -42.5t-17.5 -42.5t-42.5 -17.5t-42.5 17.5t-17.5 42.5t17.5 42.5t42.5 17.5t42.5 -17.5z
M386 500v-582q0 -128 -127 -128q-17 0 -29.5 2.5t-31.5 7.5v79q16 -6 27.5 -8.5t26.5 -2.5q46 0 46 50v582h88z" />
    <glyph glyph-name="Jcircumflex" unicode="&#x134;" horiz-adv-x="530" 
d="M170 112.5q29 -34.5 82 -34.5q55 0 83 32.5t28 92.5v497h96v-484q0 -106 -53 -166t-154 -60q-95 0 -150 61t-55 160h93q1 -64 30 -98.5zM377 767l-63 63l-62 -63h-83l108 133h75l108 -133h-83z" />
    <glyph glyph-name="jcircumflex" unicode="&#x135;" horiz-adv-x="228" 
d="M177 567l-63 63l-62 -63h-83l108 133h75l108 -133h-83zM1.5 -207.5q-12.5 2.5 -31.5 7.5v79q16 -6 27.5 -8.5t26.5 -2.5q46 0 46 50v582h88v-582q0 -128 -127 -128q-17 0 -29.5 2.5z" />
    <glyph glyph-name="uni0136" unicode="&#x136;" horiz-adv-x="584" 
d="M561 0h-123l-271 322v-322h-96v700h96v-298l267 298h113l-296 -330zM278.5 -234.5q15.5 23.5 19.5 51.5q-29 0 -45.5 19.5t-16.5 44.5q0 26 18.5 44.5t45.5 18.5q28 0 45.5 -18.5t17.5 -44.5q0 -57 -30 -103.5t-80 -78.5l-17 21q27 22 42.5 45.5z" />
    <glyph glyph-name="uni0137" unicode="&#x137;" horiz-adv-x="477" 
d="M151 224v-224h-86v730h86v-410l177 180h114l-221 -223l242 -277h-112zM225.5 -234.5q15.5 23.5 19.5 51.5q-29 0 -45.5 19.5t-16.5 44.5q0 26 18.5 44.5t45.5 18.5q28 0 45.5 -18.5t17.5 -44.5q0 -57 -30 -103.5t-80 -78.5l-17 21q27 22 42.5 45.5z" />
    <glyph glyph-name="kgreenlandic" unicode="&#x138;" horiz-adv-x="477" 
d="M65 0v500h86v-180l177 180h114l-221 -223l242 -277h-112l-200 224v-224h-86z" />
    <glyph glyph-name="Lacute" unicode="&#x139;" horiz-adv-x="550" 
d="M167 700v-612h345v-88h-441v700h96zM268 900l-106 -133h-89l80 133h115z" />
    <glyph glyph-name="lacute" unicode="&#x13a;" horiz-adv-x="216" 
d="M151 0h-86v730h86v-730zM258 900l-106 -133h-89l80 133h115z" />
    <glyph glyph-name="uni013B" unicode="&#x13b;" horiz-adv-x="550" 
d="M167 700v-612h345v-88h-441v700h96zM276.5 -234.5q15.5 23.5 19.5 51.5q-29 0 -45.5 19.5t-16.5 44.5q0 26 18.5 44.5t45.5 18.5q28 0 45.5 -18.5t17.5 -44.5q0 -57 -30 -103.5t-80 -78.5l-17 21q27 22 42.5 45.5z" />
    <glyph glyph-name="uni013C" unicode="&#x13c;" horiz-adv-x="216" 
d="M151 0h-86v730h86v-730zM85.5 -234.5q15.5 23.5 19.5 51.5q-29 0 -45.5 19.5t-16.5 44.5q0 26 18.5 44.5t45.5 18.5q28 0 45.5 -18.5t17.5 -44.5q0 -57 -30 -103.5t-80 -78.5l-17 21q27 22 42.5 45.5z" />
    <glyph glyph-name="Lcaron" unicode="&#x13d;" horiz-adv-x="550" 
d="M431 574q17 16 22 38q-25 3 -41.5 18.5t-16.5 40.5q0 27 17 43t43 16t42.5 -18.5t16.5 -47.5q0 -49 -28.5 -84t-85.5 -53l-10 24q24 7 41 23zM167 700v-612h345v-88h-441v700h96z" />
    <glyph glyph-name="lcaron" unicode="&#x13e;" horiz-adv-x="332" 
d="M151 0h-86v730h86v-730zM232 574q17 16 22 38q-25 3 -41.5 18.5t-16.5 40.5q0 27 17 43t43 16t42.5 -18.5t16.5 -47.5q0 -49 -28.5 -84t-85.5 -53l-10 24q24 7 41 23z" />
    <glyph glyph-name="Ldot" unicode="&#x13f;" horiz-adv-x="550" 
d="M167 700v-612h345v-88h-441v700h96zM480.5 400.5q21.5 -21.5 21.5 -50.5t-21.5 -50.5t-50.5 -21.5t-50.5 21.5t-21.5 50.5t21.5 50.5t50.5 21.5t50.5 -21.5z" />
    <glyph glyph-name="ldot" unicode="&#x140;" horiz-adv-x="216" 
d="M151 0h-86v730h86v-730zM327.5 400.5q21.5 -21.5 21.5 -50.5t-21.5 -50.5t-50.5 -21.5t-50.5 21.5t-21.5 50.5t21.5 50.5t50.5 21.5t50.5 -21.5z" />
    <glyph glyph-name="Lslash" unicode="&#x141;" horiz-adv-x="571" 
d="M48 184l-40 69l84 48v399h96v-343l113 65l40 -69l-153 -88v-177h345v-88h-441v209z" />
    <glyph glyph-name="lslash" unicode="&#x142;" horiz-adv-x="268" 
d="M177 374l83 48l40 -69l-123 -71v-282h-86v232l-83 -48l-40 69l123 71v406h86v-356z" />
    <glyph glyph-name="Nacute" unicode="&#x143;" horiz-adv-x="668" 
d="M597 700v-700h-108l-322 549v-549h-96v700h108l322 -549v549h96zM479 900l-106 -133h-89l80 133h115z" />
    <glyph glyph-name="nacute" unicode="&#x144;" 
d="M153 435q29 31 76 53t99 22q79 0 122 -44t43 -121v-345h-88v329q0 50 -26.5 76.5t-75.5 26.5q-43 0 -81.5 -26t-68.5 -70v-336h-88v500h88v-65zM413 700l-106 -133h-89l80 133h115z" />
    <glyph glyph-name="uni0145" unicode="&#x145;" horiz-adv-x="668" 
d="M501 700h96v-700h-108l-322 549v-549h-96v700h108l322 -549v549zM312.5 -234.5q15.5 23.5 19.5 51.5q-29 0 -45.5 19.5t-16.5 44.5q0 26 18.5 44.5t45.5 18.5q28 0 45.5 -18.5t17.5 -44.5q0 -57 -30 -103.5t-80 -78.5l-17 21q27 22 42.5 45.5z" />
    <glyph glyph-name="uni0146" unicode="&#x146;" 
d="M153 435q29 31 76 53t99 22q79 0 122 -44t43 -121v-345h-88v329q0 50 -26.5 76.5t-75.5 26.5q-43 0 -81.5 -26t-68.5 -70v-336h-88v500h88v-65zM255.5 -234.5q15.5 23.5 19.5 51.5q-29 0 -45.5 19.5t-16.5 44.5q0 26 18.5 44.5t45.5 18.5q28 0 45.5 -18.5t17.5 -44.5
q0 -57 -30 -103.5t-80 -78.5l-17 21q27 22 42.5 45.5z" />
    <glyph glyph-name="Ncaron" unicode="&#x147;" horiz-adv-x="668" 
d="M597 700v-700h-108l-322 549v-549h-96v700h108l322 -549v549h96zM297 767l-108 133h83l62 -63l63 63h83l-108 -133h-75z" />
    <glyph glyph-name="ncaron" unicode="&#x148;" 
d="M153 435q29 31 76 53t99 22q79 0 122 -44t43 -121v-345h-88v329q0 50 -26.5 76.5t-75.5 26.5q-43 0 -81.5 -26t-68.5 -70v-336h-88v500h88v-65zM249 567l-108 133h83l62 -63l63 63h83l-108 -133h-75z" />
    <glyph glyph-name="napostrophe" unicode="&#x149;" 
d="M30 574q17 16 22 38q-25 3 -41.5 18.5t-16.5 40.5q0 27 17 43t43 16t42.5 -18.5t16.5 -47.5q0 -49 -28.5 -84t-85.5 -53l-10 24q24 7 41 23zM153 435q29 31 76 53t99 22q79 0 122 -44t43 -121v-345h-88v329q0 50 -26.5 76.5t-75.5 26.5q-43 0 -81.5 -26t-68.5 -70v-336
h-88v500h88v-65z" />
    <glyph glyph-name="Eng" unicode="&#x14a;" horiz-adv-x="668" 
d="M547 -150q-50 -60 -149 -60q-38 0 -73 10l22 88q23 -10 54 -10q100 0 100 122l-334 549v-549h-96v700h108l322 -532v532h96v-683q0 -107 -50 -167z" />
    <glyph glyph-name="eng" unicode="&#x14b;" 
d="M305 -121q16 -6 27.5 -8.5t26.5 -2.5q46 0 46 50v411q0 50 -26.5 76.5t-75.5 26.5q-43 0 -81.5 -26t-68.5 -70v-336h-88v500h88v-65q29 31 76 53t99 22q79 0 122 -44t43 -121v-427q0 -128 -127 -128q-17 0 -29.5 2.5t-31.5 7.5v79z" />
    <glyph glyph-name="Omacron" unicode="&#x14c;" horiz-adv-x="790" 
d="M697 163q-46 -82 -125.5 -127.5t-176.5 -45.5t-176.5 45.5t-125.5 127.5t-46 187t46 187t125.5 127.5t176.5 45.5t176.5 -45.5t125.5 -127.5t46 -187t-46 -187zM614.5 491.5q-30.5 61.5 -87.5 96t-132 34.5t-132 -34.5t-87.5 -96t-30.5 -141.5t30.5 -141.5t87.5 -96
t132 -34.5t132 34.5t87.5 96t30.5 141.5t-30.5 141.5zM514 796h-238v74h238v-74z" />
    <glyph glyph-name="omacron" unicode="&#x14d;" horiz-adv-x="604" 
d="M435.5 476.5q58.5 -33.5 91 -93t32.5 -133.5t-32.5 -133.5t-91 -93t-133.5 -33.5t-133.5 33.5t-91 93t-32.5 133.5t32.5 133.5t91 93t133.5 33.5t133.5 -33.5zM180.5 383q-47.5 -47 -47.5 -133t47.5 -133t121.5 -47t121.5 47t47.5 133t-47.5 133t-121.5 47t-121.5 -47z
M421 596h-238v74h238v-74z" />
    <glyph glyph-name="Obreve" unicode="&#x14e;" horiz-adv-x="790" 
d="M697 163q-46 -82 -125.5 -127.5t-176.5 -45.5t-176.5 45.5t-125.5 127.5t-46 187t46 187t125.5 127.5t176.5 45.5t176.5 -45.5t125.5 -127.5t46 -187t-46 -187zM614.5 491.5q-30.5 61.5 -87.5 96t-132 34.5t-132 -34.5t-87.5 -96t-30.5 -141.5t30.5 -141.5t87.5 -96
t132 -34.5t132 34.5t87.5 96t30.5 141.5t-30.5 141.5zM472.5 804q-28.5 -30 -77.5 -30t-77.5 30t-28.5 76h70q0 -18 9.5 -29t26.5 -11t26.5 11t9.5 29h70q0 -46 -28.5 -76z" />
    <glyph glyph-name="obreve" unicode="&#x14f;" horiz-adv-x="604" 
d="M435.5 476.5q58.5 -33.5 91 -93t32.5 -133.5t-32.5 -133.5t-91 -93t-133.5 -33.5t-133.5 33.5t-91 93t-32.5 133.5t32.5 133.5t91 93t133.5 33.5t133.5 -33.5zM180.5 383q-47.5 -47 -47.5 -133t47.5 -133t121.5 -47t121.5 47t47.5 133t-47.5 133t-121.5 47t-121.5 -47z
M379.5 604q-28.5 -30 -77.5 -30t-77.5 30t-28.5 76h70q0 -18 9.5 -29t26.5 -11t26.5 11t9.5 29h70q0 -46 -28.5 -76z" />
    <glyph glyph-name="Ohungarumlaut" unicode="&#x150;" horiz-adv-x="790" 
d="M697 163q-46 -82 -125.5 -127.5t-176.5 -45.5t-176.5 45.5t-125.5 127.5t-46 187t46 187t125.5 127.5t176.5 45.5t176.5 -45.5t125.5 -127.5t46 -187t-46 -187zM614.5 491.5q-30.5 61.5 -87.5 96t-132 34.5t-132 -34.5t-87.5 -96t-30.5 -141.5t30.5 -141.5t87.5 -96
t132 -34.5t132 34.5t87.5 96t30.5 141.5t-30.5 141.5zM442 900l-92 -133h-86l66 133h112zM609 900l-92 -133h-86l66 133h112z" />
    <glyph glyph-name="ohungarumlaut" unicode="&#x151;" horiz-adv-x="604" 
d="M435.5 476.5q58.5 -33.5 91 -93t32.5 -133.5t-32.5 -133.5t-91 -93t-133.5 -33.5t-133.5 33.5t-91 93t-32.5 133.5t32.5 133.5t91 93t133.5 33.5t133.5 -33.5zM180.5 383q-47.5 -47 -47.5 -133t47.5 -133t121.5 -47t121.5 47t47.5 133t-47.5 133t-121.5 47t-121.5 -47z
M339 700l-92 -133h-86l66 133h112zM506 700l-92 -133h-86l66 133h112z" />
    <glyph glyph-name="OE" unicode="&#x152;" horiz-adv-x="1111" 
d="M741 394h296v-88h-296v-218h334v-88h-430v92q-47 -49 -112 -75.5t-138 -26.5q-97 0 -176.5 45.5t-125.5 127.5t-46 187t46 187t125.5 127.5t176.5 45.5q73 0 137.5 -27t112.5 -76v93h419v-88h-323v-218zM612 490.5q-33 62.5 -90 97t-127 34.5q-72 0 -129 -34.5t-89 -96.5
t-32 -141t32 -141t89 -96.5t129 -34.5q78 0 134.5 34.5t86 96t29.5 141.5q0 78 -33 140.5z" />
    <glyph glyph-name="oe" unicode="&#x153;" horiz-adv-x="1000" 
d="M604.5 110.5q42.5 -40.5 111.5 -40.5q57 0 95 27.5t52 73.5h82q-21 -85 -80 -133t-150 -48q-68 0 -120 27t-83 76q-34 -49 -88.5 -76t-121.5 -27q-75 0 -133.5 33.5t-91 93t-32.5 133.5t32.5 133.5t91 93t133.5 33.5q68 0 123 -28.5t89 -79.5q34 51 87 79.5t114 28.5
q67 0 120.5 -30.5t84 -87.5t30.5 -136v-34h-390q2 -71 44.5 -111.5zM180.5 383q-47.5 -47 -47.5 -133t47.5 -133t121.5 -47t121.5 47t47.5 133t-47.5 133t-121.5 47t-121.5 -47zM867 298q-5 63 -47.5 97.5t-104.5 34.5q-60 0 -102 -35t-52 -97h306z" />
    <glyph glyph-name="Racute" unicode="&#x154;" horiz-adv-x="602" 
d="M167 254v-254h-96v700h221q79 0 137 -28t89 -79t31 -118t-31.5 -115t-93.5 -83l161 -277h-110l-145 254h-163zM308 342q68 0 106.5 36.5t38.5 98.5q0 63 -37.5 99t-107.5 36h-141v-270h141zM398 900l-106 -133h-89l80 133h115z" />
    <glyph glyph-name="racute" unicode="&#x155;" horiz-adv-x="357" 
d="M153 435q29 33 66 54t81 21q26 0 40 -8l-14 -73q-12 3 -32 3q-42 0 -79 -25t-62 -71v-336h-88v500h88v-65zM329 700l-106 -133h-89l80 133h115z" />
    <glyph glyph-name="uni0156" unicode="&#x156;" horiz-adv-x="602" 
d="M167 254v-254h-96v700h221q79 0 137 -28t89 -79t31 -118t-31.5 -115t-93.5 -83l161 -277h-110l-145 254h-163zM308 342q68 0 106.5 36.5t38.5 98.5q0 63 -37.5 99t-107.5 36h-141v-270h141zM288.5 -234.5q15.5 23.5 19.5 51.5q-29 0 -45.5 19.5t-16.5 44.5
q0 26 18.5 44.5t45.5 18.5q28 0 45.5 -18.5t17.5 -44.5q0 -57 -30 -103.5t-80 -78.5l-17 21q27 22 42.5 45.5z" />
    <glyph glyph-name="uni0157" unicode="&#x157;" horiz-adv-x="357" 
d="M153 435q29 33 66 54t81 21q26 0 40 -8l-14 -73q-12 3 -32 3q-42 0 -79 -25t-62 -71v-336h-88v500h88v-65zM84.5 -234.5q15.5 23.5 19.5 51.5q-29 0 -45.5 19.5t-16.5 44.5q0 26 18.5 44.5t45.5 18.5q28 0 45.5 -18.5t17.5 -44.5q0 -57 -30 -103.5t-80 -78.5l-17 21
q27 22 42.5 45.5z" />
    <glyph glyph-name="Rcaron" unicode="&#x158;" horiz-adv-x="602" 
d="M167 254v-254h-96v700h221q79 0 137 -28t89 -79t31 -118t-31.5 -115t-93.5 -83l161 -277h-110l-145 254h-163zM308 342q68 0 106.5 36.5t38.5 98.5q0 63 -37.5 99t-107.5 36h-141v-270h141zM232 767l-108 133h83l62 -63l63 63h83l-108 -133h-75z" />
    <glyph glyph-name="rcaron" unicode="&#x159;" horiz-adv-x="357" 
d="M153 435q29 33 66 54t81 21q26 0 40 -8l-14 -73q-12 3 -32 3q-42 0 -79 -25t-62 -71v-336h-88v500h88v-65zM168 567l-108 133h83l62 -63l63 63h83l-108 -133h-75z" />
    <glyph glyph-name="Sacute" unicode="&#x15a;" horiz-adv-x="590" 
d="M195 471q41 -25 139 -47q104 -23 159 -75t55 -138q0 -65 -33 -115.5t-89.5 -78t-126.5 -27.5q-68 0 -126.5 28t-95.5 80t-41 120h93q7 -66 54.5 -103t115.5 -37q66 0 109.5 33.5t43.5 96.5q0 40 -17.5 66.5t-56.5 44.5t-108 33q-100 22 -155 64.5t-55 120.5q0 51 29 90.5
t79.5 61t111.5 21.5q104 0 167 -53t70 -147h-91q-8 56 -45 84t-101 28q-56 0 -91 -22.5t-35 -59.5q0 -44 41 -69zM425 900l-106 -133h-89l80 133h115z" />
    <glyph glyph-name="sacute" unicode="&#x15b;" horiz-adv-x="453" 
d="M281 413q-27 21 -69 21q-33 0 -59 -14.5t-26 -42.5q0 -27 30 -44.5t101 -36.5q83 -22 122.5 -55t39.5 -89q0 -46 -23.5 -83t-66.5 -58t-99 -21q-89 0 -144 44t-62 122h83q11 -41 39.5 -63.5t85.5 -22.5q42 0 71.5 19t29.5 52q0 32 -32.5 51t-111.5 39q-76 19 -111.5 53
t-35.5 91q0 36 21.5 67t60 49.5t87.5 18.5q81 0 131 -41t57 -117h-87q-5 40 -32 61zM354 700l-106 -133h-89l80 133h115z" />
    <glyph glyph-name="Scircumflex" unicode="&#x15c;" horiz-adv-x="590" 
d="M195 471q41 -25 139 -47q104 -23 159 -75t55 -138q0 -65 -33 -115.5t-89.5 -78t-126.5 -27.5q-68 0 -126.5 28t-95.5 80t-41 120h93q7 -66 54.5 -103t115.5 -37q66 0 109.5 33.5t43.5 96.5q0 40 -17.5 66.5t-56.5 44.5t-108 33q-100 22 -155 64.5t-55 120.5q0 51 29 90.5
t79.5 61t111.5 21.5q104 0 167 -53t70 -147h-91q-8 56 -45 84t-101 28q-56 0 -91 -22.5t-35 -59.5q0 -44 41 -69zM348 767l-63 63l-62 -63h-83l108 133h75l108 -133h-83z" />
    <glyph glyph-name="scircumflex" unicode="&#x15d;" horiz-adv-x="453" 
d="M281 413q-27 21 -69 21q-33 0 -59 -14.5t-26 -42.5q0 -27 30 -44.5t101 -36.5q83 -22 122.5 -55t39.5 -89q0 -46 -23.5 -83t-66.5 -58t-99 -21q-89 0 -144 44t-62 122h83q11 -41 39.5 -63.5t85.5 -22.5q42 0 71.5 19t29.5 52q0 32 -32.5 51t-111.5 39q-76 19 -111.5 53
t-35.5 91q0 36 21.5 67t60 49.5t87.5 18.5q81 0 131 -41t57 -117h-87q-5 40 -32 61zM286 567l-63 63l-62 -63h-83l108 133h75l108 -133h-83z" />
    <glyph glyph-name="Scedilla" unicode="&#x15e;" horiz-adv-x="590" 
d="M237.5 -178.5q-25.5 21.5 -29.5 52.5h61q10 -17 37 -17q14 0 23 8t9 22q0 28 -34 28q-21 0 -41 -17l-55 9l39 88q-87 14 -146.5 74t-64.5 149h93q7 -66 54.5 -103t115.5 -37q66 0 109.5 33.5t43.5 96.5q0 40 -17.5 66.5t-56.5 44.5t-108 33q-100 22 -155 64.5t-55 120.5
q0 51 29 90.5t79.5 61t111.5 21.5q104 0 167 -53t70 -147h-91q-8 56 -45 84t-101 28q-56 0 -91 -22.5t-35 -59.5q0 -44 41 -69t139 -47q104 -23 159 -75t55 -138q0 -63 -31 -112.5t-85 -78t-121 -30.5l-27 -44q26 11 49 11q33 0 54 -18.5t21 -51.5q0 -41 -28.5 -64
t-73.5 -23q-43 0 -68.5 21.5z" />
    <glyph glyph-name="scedilla" unicode="&#x15f;" horiz-adv-x="453" 
d="M163.5 -178.5q-25.5 21.5 -29.5 52.5h61q10 -17 37 -17q14 0 23 8t9 22q0 28 -34 28q-21 0 -41 -17l-55 9l39 89q-65 12 -103.5 54t-44.5 106h83q11 -41 39.5 -63.5t85.5 -22.5q42 0 71.5 19t29.5 52q0 32 -32.5 51t-111.5 39q-76 19 -111.5 53t-35.5 91q0 36 21.5 67
t60 49.5t87.5 18.5q81 0 131 -41t57 -117h-87q-5 40 -32 61t-69 21q-33 0 -59 -14.5t-26 -42.5q0 -27 30 -44.5t101 -36.5q83 -22 122.5 -55t39.5 -89q0 -45 -22.5 -81.5t-64.5 -58t-96 -22.5l-27 -44q26 11 49 11q33 0 54 -18.5t21 -51.5q0 -41 -28.5 -64t-73.5 -23
q-43 0 -68.5 21.5z" />
    <glyph glyph-name="Scaron" unicode="&#x160;" horiz-adv-x="590" 
d="M195 471q41 -25 139 -47q104 -23 159 -75t55 -138q0 -65 -33 -115.5t-89.5 -78t-126.5 -27.5q-68 0 -126.5 28t-95.5 80t-41 120h93q7 -66 54.5 -103t115.5 -37q66 0 109.5 33.5t43.5 96.5q0 40 -17.5 66.5t-56.5 44.5t-108 33q-100 22 -155 64.5t-55 120.5q0 51 29 90.5
t79.5 61t111.5 21.5q104 0 167 -53t70 -147h-91q-8 56 -45 84t-101 28q-56 0 -91 -22.5t-35 -59.5q0 -44 41 -69zM255 767l-108 133h83l62 -63l63 63h83l-108 -133h-75z" />
    <glyph glyph-name="scaron" unicode="&#x161;" horiz-adv-x="453" 
d="M281 413q-27 21 -69 21q-33 0 -59 -14.5t-26 -42.5q0 -27 30 -44.5t101 -36.5q83 -22 122.5 -55t39.5 -89q0 -46 -23.5 -83t-66.5 -58t-99 -21q-89 0 -144 44t-62 122h83q11 -41 39.5 -63.5t85.5 -22.5q42 0 71.5 19t29.5 52q0 32 -32.5 51t-111.5 39q-76 19 -111.5 53
t-35.5 91q0 36 21.5 67t60 49.5t87.5 18.5q81 0 131 -41t57 -117h-87q-5 40 -32 61zM181 567l-108 133h83l62 -63l63 63h83l-108 -133h-75z" />
    <glyph glyph-name="uni0162" unicode="&#x162;" horiz-adv-x="498" 
d="M201 0v612h-178v88h452v-88h-178v-612h-96zM292 -43q33 0 54 -18.5t21 -51.5q0 -41 -28.5 -64t-73.5 -23q-43 0 -68.5 21.5t-29.5 52.5h61q10 -17 37 -17q14 0 23 8t9 22q0 28 -34 28q-21 0 -41 -17l-55 9l53 118h72l-49 -79q26 11 49 11z" />
    <glyph glyph-name="uni0163" unicode="&#x163;" horiz-adv-x="347" 
d="M204 420v-298q0 -26 15.5 -40t46.5 -14q19 0 33.5 2.5t19.5 3.5v-74q-39 -10 -80 -10q-12 0 -17 1l-28 -45q26 11 49 11q33 0 54 -18.5t21 -51.5q0 -41 -28.5 -64t-73.5 -23q-43 0 -68.5 21.5t-29.5 52.5h61q10 -17 37 -17q14 0 23 8t9 22q0 28 -34 28q-21 0 -41 -17
l-55 9l46 103q-48 31 -48 106v304h-99v80h99v150l88 -32v-118h120v-80h-120z" />
    <glyph glyph-name="Tcaron" unicode="&#x164;" horiz-adv-x="498" 
d="M201 0v612h-178v88h452v-88h-178v-612h-96zM211 767l-108 133h83l62 -63l63 63h83l-108 -133h-75z" />
    <glyph glyph-name="tcaron" unicode="&#x165;" horiz-adv-x="390" 
d="M300 574q17 16 22 38q-25 3 -41.5 18.5t-16.5 40.5q0 27 17 43t43 16t42.5 -18.5t16.5 -47.5q0 -49 -28.5 -84t-85.5 -53l-10 24q24 7 41 23zM204 500h120v-80h-120v-298q0 -26 15.5 -40t46.5 -14q19 0 33.5 2.5t19.5 3.5v-74q-39 -10 -80 -10q-58 0 -90.5 32.5
t-32.5 93.5v304h-99v80h99v150l88 -32v-118z" />
    <glyph glyph-name="Tbar" unicode="&#x166;" horiz-adv-x="498" 
d="M439 410v-80h-142v-330h-96v330h-142v80h142v202h-178v88h452v-88h-178v-202h142z" />
    <glyph glyph-name="tbar" unicode="&#x167;" horiz-adv-x="347" 
d="M148.5 22.5q-32.5 32.5 -32.5 93.5v98h-83v74h83v132h-99v80h99v150l88 -32v-118h120v-80h-120v-132h104v-74h-104v-92q0 -26 15.5 -40t46.5 -14q19 0 33.5 2.5t19.5 3.5v-74q-39 -10 -80 -10q-58 0 -90.5 32.5z" />
    <glyph glyph-name="Utilde" unicode="&#x168;" horiz-adv-x="644" 
d="M164 252q0 -84 39 -129t119 -45t119 45t39 129v448h96v-452q0 -75 -30.5 -133.5t-88 -91.5t-135.5 -33t-135.5 33t-88 91.5t-30.5 133.5v452h96v-448zM466 800.5q-33 -31.5 -74 -31.5q-32 0 -50.5 9t-36.5 26q-13 12 -23 18t-25 6q-38 0 -45 -54h-73q6 63 39 94.5
t74 31.5q33 0 51 -9t36 -26q13 -12 23 -18t25 -6q38 0 45 54h73q-6 -63 -39 -94.5z" />
    <glyph glyph-name="utilde" unicode="&#x169;" 
d="M405 65q-29 -31 -76 -53t-99 -22q-79 0 -122 44t-43 121v345h88v-329q0 -50 26.5 -76.5t75.5 -26.5q43 0 81.5 26t68.5 70v336h88v-500h-88v65zM423 600.5q-33 -31.5 -74 -31.5q-32 0 -50.5 9t-36.5 26q-13 12 -23 18t-25 6q-38 0 -45 -54h-73q6 63 39 94.5t74 31.5
q33 0 51 -9t36 -26q13 -12 23 -18t25 -6q38 0 45 54h73q-6 -63 -39 -94.5z" />
    <glyph glyph-name="Umacron" unicode="&#x16a;" horiz-adv-x="644" 
d="M164 252q0 -84 39 -129t119 -45t119 45t39 129v448h96v-452q0 -75 -30.5 -133.5t-88 -91.5t-135.5 -33t-135.5 33t-88 91.5t-30.5 133.5v452h96v-448zM441 796h-238v74h238v-74z" />
    <glyph glyph-name="umacron" unicode="&#x16b;" 
d="M405 65q-29 -31 -76 -53t-99 -22q-79 0 -122 44t-43 121v345h88v-329q0 -50 26.5 -76.5t75.5 -26.5q43 0 81.5 26t68.5 70v336h88v-500h-88v65zM398 596h-238v74h238v-74z" />
    <glyph glyph-name="Ubreve" unicode="&#x16c;" horiz-adv-x="644" 
d="M164 252q0 -84 39 -129t119 -45t119 45t39 129v448h96v-452q0 -75 -30.5 -133.5t-88 -91.5t-135.5 -33t-135.5 33t-88 91.5t-30.5 133.5v452h96v-448zM399.5 804q-28.5 -30 -77.5 -30t-77.5 30t-28.5 76h70q0 -18 9.5 -29t26.5 -11t26.5 11t9.5 29h70q0 -46 -28.5 -76z
" />
    <glyph glyph-name="ubreve" unicode="&#x16d;" 
d="M405 65q-29 -31 -76 -53t-99 -22q-79 0 -122 44t-43 121v345h88v-329q0 -50 26.5 -76.5t75.5 -26.5q43 0 81.5 26t68.5 70v336h88v-500h-88v65zM356.5 604q-28.5 -30 -77.5 -30t-77.5 30t-28.5 76h70q0 -18 9.5 -29t26.5 -11t26.5 11t9.5 29h70q0 -46 -28.5 -76z" />
    <glyph glyph-name="Uring" unicode="&#x16e;" horiz-adv-x="644" 
d="M164 252q0 -84 39 -129t119 -45t119 45t39 129v448h96v-452q0 -75 -30.5 -133.5t-88 -91.5t-135.5 -33t-135.5 33t-88 91.5t-30.5 133.5v452h96v-448zM380 886q24 -24 24 -58t-24 -58t-58 -24t-58 24t-24 58t24 58t58 24t58 -24zM350.5 799.5q11.5 11.5 11.5 28.5
t-11.5 28.5t-28.5 11.5t-28.5 -11.5t-11.5 -28.5t11.5 -28.5t28.5 -11.5t28.5 11.5z" />
    <glyph glyph-name="uring" unicode="&#x16f;" 
d="M405 65q-29 -31 -76 -53t-99 -22q-79 0 -122 44t-43 121v345h88v-329q0 -50 26.5 -76.5t75.5 -26.5q43 0 81.5 26t68.5 70v336h88v-500h-88v65zM337 686q24 -24 24 -58t-24 -58t-58 -24t-58 24t-24 58t24 58t58 24t58 -24zM307.5 599.5q11.5 11.5 11.5 28.5t-11.5 28.5
t-28.5 11.5t-28.5 -11.5t-11.5 -28.5t11.5 -28.5t28.5 -11.5t28.5 11.5z" />
    <glyph glyph-name="Uhungarumlaut" unicode="&#x170;" horiz-adv-x="644" 
d="M164 252q0 -84 39 -129t119 -45t119 45t39 129v448h96v-452q0 -75 -30.5 -133.5t-88 -91.5t-135.5 -33t-135.5 33t-88 91.5t-30.5 133.5v452h96v-448zM367 900l-92 -133h-86l66 133h112zM534 900l-92 -133h-86l66 133h112z" />
    <glyph glyph-name="uhungarumlaut" unicode="&#x171;" 
d="M405 65q-29 -31 -76 -53t-99 -22q-79 0 -122 44t-43 121v345h88v-329q0 -50 26.5 -76.5t75.5 -26.5q43 0 81.5 26t68.5 70v336h88v-500h-88v65zM312 700l-92 -133h-86l66 133h112zM479 700l-92 -133h-86l66 133h112z" />
    <glyph glyph-name="Uogonek" unicode="&#x172;" horiz-adv-x="644" 
d="M441 123q39 45 39 129v448h96v-452q0 -88 -38.5 -148.5t-99.5 -86.5q-89 -38 -89 -94q0 -20 10.5 -31.5t24.5 -11.5q27 0 46 30l47 -35q-17 -30 -41.5 -45.5t-59.5 -15.5q-43 0 -70 25.5t-27 63.5q0 28 12 51.5t31 39.5q-78 0 -135.5 33t-88 91.5t-30.5 133.5v452h96
v-448q0 -84 39 -129t119 -45t119 45z" />
    <glyph glyph-name="uogonek" unicode="&#x173;" 
d="M108 34q-43 44 -43 121v345h88v-329q0 -50 26.5 -76.5t75.5 -26.5q43 0 81.5 26t68.5 70v336h88v-500q-39 -20 -57 -42t-18 -44q0 -17 10 -27.5t25 -10.5q27 0 46 30l47 -35q-17 -30 -41.5 -45.5t-59.5 -15.5q-43 0 -70 25.5t-27 63.5q0 32 16 58.5t41 42.5v65
q-29 -31 -76 -53t-99 -22q-79 0 -122 44z" />
    <glyph glyph-name="Wcircumflex" unicode="&#x174;" horiz-adv-x="952" 
d="M252 183l17 -88l15 88l141 517h102l141 -517l15 -88l17 88l139 517h102l-202 -700h-108l-155 568l-155 -568h-108l-202 700h102zM539 767l-63 63l-62 -63h-83l108 133h75l108 -133h-83z" />
    <glyph glyph-name="wcircumflex" unicode="&#x175;" horiz-adv-x="739" 
d="M414 500l95 -323l17 -89l14 89l94 323h93l-150 -500h-98l-110 398l-109 -398h-98l-150 500h93l94 -323l14 -89l16 89l96 323h89zM432 567l-63 63l-62 -63h-83l108 133h75l108 -133h-83z" />
    <glyph glyph-name="Ycircumflex" unicode="&#x176;" horiz-adv-x="544" 
d="M257 404l15 -68l15 68l137 296h104l-208 -440v-260h-96v260l-208 440h104zM335 767l-63 63l-62 -63h-83l108 133h75l108 -133h-83z" />
    <glyph glyph-name="ycircumflex" unicode="&#x177;" horiz-adv-x="498" 
d="M490 500l-278 -700h-87l89 222l-198 478h92l134 -319l13 -61l146 380h89zM318 567l-63 63l-62 -63h-83l108 133h75l108 -133h-83z" />
    <glyph glyph-name="Ydieresis" unicode="&#x178;" horiz-adv-x="544" 
d="M257 404l15 -68l15 68l137 296h104l-208 -440v-260h-96v260l-208 440h104zM148 875.5q17 16.5 39 16.5q23 0 39.5 -16.5t16.5 -39.5q0 -22 -16.5 -39t-39.5 -17q-22 0 -39 17t-17 39q0 23 17 39.5zM318 875.5q17 16.5 39 16.5q23 0 39.5 -16.5t16.5 -39.5
q0 -22 -16.5 -39t-39.5 -17q-22 0 -39 17t-17 39q0 23 17 39.5z" />
    <glyph glyph-name="Zacute" unicode="&#x179;" horiz-adv-x="564" 
d="M53 612v88h458v-68l-372 -544h384v-88h-488v88l362 524h-344zM406 900l-106 -133h-89l80 133h115z" />
    <glyph glyph-name="zacute" unicode="&#x17a;" horiz-adv-x="423" 
d="M38 420v80h355v-62l-261 -358h261v-80h-367v66l260 354h-248zM347 700l-106 -133h-89l80 133h115z" />
    <glyph glyph-name="Zdotaccent" unicode="&#x17b;" horiz-adv-x="564" 
d="M53 612v88h458v-68l-372 -544h384v-88h-488v88l362 524h-344zM321 881q19 -19 19 -45t-19 -45t-45 -19t-45 19t-19 45t19 45t45 19t45 -19z" />
    <glyph glyph-name="zdotaccent" unicode="&#x17c;" horiz-adv-x="423" 
d="M38 420v80h355v-62l-261 -358h261v-80h-367v66l260 354h-248zM258 681q19 -19 19 -45t-19 -45t-45 -19t-45 19t-19 45t19 45t45 19t45 -19z" />
    <glyph glyph-name="Zcaron" unicode="&#x17d;" horiz-adv-x="564" 
d="M53 612v88h458v-68l-372 -544h384v-88h-488v88l362 524h-344zM240 767l-108 133h83l62 -63l63 63h83l-108 -133h-75z" />
    <glyph glyph-name="zcaron" unicode="&#x17e;" horiz-adv-x="423" 
d="M38 420v80h355v-62l-261 -358h261v-80h-367v66l260 354h-248zM182 567l-108 133h83l62 -63l63 63h83l-108 -133h-75z" />
    <glyph glyph-name="longs" unicode="&#x17f;" horiz-adv-x="329" 
d="M278.5 737.5q13.5 -2.5 32.5 -7.5v-79q-31 11 -60 11q-25 0 -40 -16.5t-15 -47.5v-598h-88v420h-86v80h86v95q0 73 37.5 109t98.5 36q21 0 34.5 -2.5z" />
    <glyph glyph-name="uni018E" unicode="&#x18e;" horiz-adv-x="537" 
d="M370 306h-296v88h296v218h-334v88h430v-700h-419v88h323v218z" />
    <glyph glyph-name="uni018F" unicode="&#x18f;" horiz-adv-x="574" 
d="M440 478q-2 71 -44.5 111.5t-111.5 40.5q-57 0 -95 -27.5t-52 -73.5h-82q21 85 80 133t150 48q75 0 130 -32.5t84.5 -91t29.5 -136.5q0 -76 -33 -135t-89 -92t-122 -33q-67 0 -120.5 30.5t-84 87.5t-30.5 136v34h390zM133 402q5 -63 47.5 -97.5t104.5 -34.5q60 0 102 35
t52 97h-306z" />
    <glyph glyph-name="florin" unicode="&#x192;" horiz-adv-x="329" 
d="M311 730v-79q-33 11 -57 11q-26 0 -42 -16t-16 -46v-100h112v-80h-112v-492q0 -65 -34.5 -101.5t-89.5 -36.5q-31 0 -57 10v79q26 -11 47 -11q20 0 33 14t13 41v497h-86v80h86v95q0 73 39.5 109t100.5 36q37 0 63 -10z" />
    <glyph glyph-name="uni01B5" unicode="&#x1b5;" horiz-adv-x="564" 
d="M79 308v80h163l155 224h-344v88h458v-68l-167 -244h144v-80h-199l-150 -220h384v-88h-488v88l152 220h-108z" />
    <glyph glyph-name="uni01B6" unicode="&#x1b6;" horiz-adv-x="423" 
d="M53 214v74h136l97 132h-248v80h355v-62l-110 -150h94v-74h-148l-97 -134h261v-80h-367v66l108 148h-81z" />
    <glyph glyph-name="Aringacute" unicode="&#x1fa;" horiz-adv-x="598" 
d="M251 700h96l252 -700h-102l-47 136h-303l-46 -136h-102zM420 224l-108 315l-13 75l-13 -75l-109 -315h243zM357 886q24 -24 24 -58t-24 -58t-58 -24t-58 24t-24 58t24 58t58 24t58 -24zM327.5 799.5q11.5 11.5 11.5 28.5t-11.5 28.5t-28.5 11.5t-28.5 -11.5t-11.5 -28.5
t11.5 -28.5t28.5 -11.5t28.5 11.5zM436 1060l-106 -133h-89l80 133h115z" />
    <glyph glyph-name="aringacute" unicode="&#x1fb;" horiz-adv-x="555" 
d="M299 860h115l-106 -133h-89zM219 570q-24 24 -24 58t24 58t58 24t58 -24t24 -58t-24 -58t-58 -24t-58 24zM305.5 599.5q11.5 11.5 11.5 28.5t-11.5 28.5t-28.5 11.5t-28.5 -11.5t-11.5 -28.5t11.5 -28.5t28.5 -11.5t28.5 11.5zM96 29.5q-44 39.5 -44 105.5q0 70 48 110
t121 47l156 16v34q0 43 -30.5 65.5t-80.5 22.5q-42 0 -70.5 -20t-38.5 -61h-83q11 79 67.5 120t130.5 41q88 0 140.5 -43.5t52.5 -114.5v-234q0 -25 11 -38.5t33 -13.5q13 0 26 4v-66q-30 -10 -56 -10q-81 0 -99 78q-34 -35 -81 -58.5t-88 -23.5q-71 0 -115 39.5zM377 148
v90l-150 -17q-42 -5 -64.5 -27.5t-22.5 -54.5q0 -34 22.5 -51.5t58.5 -17.5q78 0 156 78z" />
    <glyph glyph-name="AEacute" unicode="&#x1fc;" horiz-adv-x="885" 
d="M515 394h296v-88h-296v-218h334v-88h-430v136h-244l-72 -136h-104l372 700h467v-88h-323v-218zM419 224v390l-21 -61l-176 -329h197zM736 900l-106 -133h-89l80 133h115z" />
    <glyph glyph-name="aeacute" unicode="&#x1fd;" horiz-adv-x="904" 
d="M465 208q6 -65 48 -101.5t107 -36.5q57 0 95 27.5t52 73.5h82q-21 -85 -80 -133t-150 -48q-68 0 -119.5 26t-82.5 75q-36 -46 -90 -73.5t-105 -27.5q-79 0 -124.5 39t-45.5 106q0 72 51.5 113.5t137.5 44.5l136 5v36q0 44 -30.5 70t-79.5 26q-42 0 -71 -20t-39 -61h-83
q11 79 68 120t131 41q59 0 102.5 -20.5t67.5 -56.5q34 37 79.5 57t96.5 20q67 0 120.5 -30.5t84 -87.5t30.5 -136v-34h-389v-14zM771 298q-5 63 -47.5 97.5t-104.5 34.5q-60 0 -102 -35t-52 -97h306zM246 214q-52 -2 -79 -22.5t-27 -52.5q0 -34 22 -51.5t62 -17.5
q85 0 153 78v72zM592 700l-106 -133h-89l80 133h115z" />
    <glyph glyph-name="Scommaaccent" unicode="&#x218;" horiz-adv-x="590" 
d="M195 471q41 -25 139 -47q104 -23 159 -75t55 -138q0 -65 -33 -115.5t-89.5 -78t-126.5 -27.5q-68 0 -126.5 28t-95.5 80t-41 120h93q7 -66 54.5 -103t115.5 -37q66 0 109.5 33.5t43.5 96.5q0 40 -17.5 66.5t-56.5 44.5t-108 33q-100 22 -155 64.5t-55 120.5q0 51 29 90.5
t79.5 61t111.5 21.5q104 0 167 -53t70 -147h-91q-8 56 -45 84t-101 28q-56 0 -91 -22.5t-35 -59.5q0 -44 41 -69zM276.5 -234.5q15.5 23.5 19.5 51.5q-29 0 -45.5 19.5t-16.5 44.5q0 26 18.5 44.5t45.5 18.5q28 0 45.5 -18.5t17.5 -44.5q0 -57 -30 -103.5t-80 -78.5l-17 21
q27 22 42.5 45.5z" />
    <glyph glyph-name="scommaaccent" unicode="&#x219;" horiz-adv-x="453" 
d="M281 413q-27 21 -69 21q-33 0 -59 -14.5t-26 -42.5q0 -27 30 -44.5t101 -36.5q83 -22 122.5 -55t39.5 -89q0 -46 -23.5 -83t-66.5 -58t-99 -21q-89 0 -144 44t-62 122h83q11 -41 39.5 -63.5t85.5 -22.5q42 0 71.5 19t29.5 52q0 32 -32.5 51t-111.5 39q-76 19 -111.5 53
t-35.5 91q0 36 21.5 67t60 49.5t87.5 18.5q81 0 131 -41t57 -117h-87q-5 40 -32 61zM201.5 -234.5q15.5 23.5 19.5 51.5q-29 0 -45.5 19.5t-16.5 44.5q0 26 18.5 44.5t45.5 18.5q28 0 45.5 -18.5t17.5 -44.5q0 -57 -30 -103.5t-80 -78.5l-17 21q27 22 42.5 45.5z" />
    <glyph glyph-name="uni021A" unicode="&#x21a;" horiz-adv-x="498" 
d="M201 0v612h-178v88h452v-88h-178v-612h-96zM224.5 -234.5q15.5 23.5 19.5 51.5q-29 0 -45.5 19.5t-16.5 44.5q0 26 18.5 44.5t45.5 18.5q28 0 45.5 -18.5t17.5 -44.5q0 -57 -30 -103.5t-80 -78.5l-17 21q27 22 42.5 45.5z" />
    <glyph glyph-name="uni021B" unicode="&#x21b;" horiz-adv-x="347" 
d="M204 500h120v-80h-120v-298q0 -26 15.5 -40t46.5 -14q19 0 33.5 2.5t19.5 3.5v-74q-39 -10 -80 -10q-58 0 -90.5 32.5t-32.5 93.5v304h-99v80h99v150l88 -32v-118zM201.5 -234.5q15.5 23.5 19.5 51.5q-29 0 -45.5 19.5t-16.5 44.5q0 26 18.5 44.5t45.5 18.5
q28 0 45.5 -18.5t17.5 -44.5q0 -57 -30 -103.5t-80 -78.5l-17 21q27 22 42.5 45.5z" />
    <glyph glyph-name="circumflex" unicode="&#x2c6;" horiz-adv-x="347" 
d="M236 567l-63 63l-62 -63h-83l108 133h75l108 -133h-83z" />
    <glyph glyph-name="caron" unicode="&#x2c7;" horiz-adv-x="347" 
d="M136 567l-108 133h83l62 -63l63 63h83l-108 -133h-75z" />
    <glyph glyph-name="breve" unicode="&#x2d8;" horiz-adv-x="228" 
d="M191.5 604q-28.5 -30 -77.5 -30t-77.5 30t-28.5 76h70q0 -18 9.5 -29t26.5 -11t26.5 11t9.5 29h70q0 -46 -28.5 -76z" />
    <glyph glyph-name="dotaccent" unicode="&#x2d9;" horiz-adv-x="228" 
d="M159 681q19 -19 19 -45t-19 -45t-45 -19t-45 19t-19 45t19 45t45 19t45 -19z" />
    <glyph glyph-name="ring" unicode="&#x2da;" horiz-adv-x="228" 
d="M172 686q24 -24 24 -58t-24 -58t-58 -24t-58 24t-24 58t24 58t58 24t58 -24zM142.5 599.5q11.5 11.5 11.5 28.5t-11.5 28.5t-28.5 11.5t-28.5 -11.5t-11.5 -28.5t11.5 -28.5t28.5 -11.5t28.5 11.5z" />
    <glyph glyph-name="ogonek" unicode="&#x2db;" horiz-adv-x="318" 
d="M83 -164.5q-27 25.5 -27 63.5q0 32 16 58.5t41 42.5h65q-26 -26 -39 -47t-13 -42q0 -15 10 -25t25 -10q27 0 46 30l47 -35q-17 -30 -41.5 -45.5t-59.5 -15.5q-43 0 -70 25.5z" />
    <glyph glyph-name="tilde" unicode="&#x2dc;" horiz-adv-x="434" 
d="M361 600.5q-33 -31.5 -74 -31.5q-32 0 -50.5 9t-36.5 26q-13 12 -23 18t-25 6q-38 0 -45 -54h-73q6 63 39 94.5t74 31.5q33 0 51 -9t36 -26q13 -12 23 -18t25 -6q38 0 45 54h73q-6 -63 -39 -94.5z" />
    <glyph glyph-name="hungarumlaut" unicode="&#x2dd;" horiz-adv-x="434" 
d="M218 700l-92 -133h-86l66 133h112zM385 700l-92 -133h-86l66 133h112z" />
    <glyph glyph-name="uni03A9" unicode="&#x3a9;" horiz-adv-x="778" 
d="M439 0v88q48 24 92.5 68.5t73 103t28.5 120.5q0 73 -33.5 128t-89.5 84.5t-121 29.5t-121 -29.5t-89.5 -84.5t-33.5 -128q0 -62 28.5 -120.5t73 -103t92.5 -68.5v-88h-251v88h124q-40 25 -78 71.5t-62.5 106.5t-24.5 123q0 98 47.5 171t125.5 111.5t169 38.5t169 -38.5
t125.5 -111.5t47.5 -171q0 -63 -24.5 -123t-62.5 -106.5t-78 -71.5h124v-88h-251z" />
    <glyph glyph-name="pi" unicode="&#x3c0;" horiz-adv-x="578" 
d="M558 426h-85v-426h-88v426h-192v-426h-88v426h-85v74h538v-74z" />
    <glyph glyph-name="endash" unicode="&#x2013;" horiz-adv-x="511" 
d="M479 300h-447v80h447v-80z" />
    <glyph glyph-name="emdash" unicode="&#x2014;" horiz-adv-x="736" 
d="M704 300h-672v80h672v-80z" />
    <glyph glyph-name="quoteleft" unicode="&#x2018;" horiz-adv-x="243" 
d="M122 588q31 -3 50.5 -22t19.5 -50q0 -32 -20 -52t-52 -20t-52 22.5t-20 58.5q0 61 37 110.5t114 74.5l12 -29q-78 -28 -89 -93z" />
    <glyph glyph-name="quoteright" unicode="&#x2019;" horiz-adv-x="243" 
d="M121 566q-31 3 -50.5 22t-19.5 50q0 32 20 52t52 20t52 -22.5t20 -58.5q0 -61 -37 -110.5t-114 -74.5l-12 29q78 28 89 93z" />
    <glyph glyph-name="quotesinglbase" unicode="&#x201a;" horiz-adv-x="243" 
d="M121 0q-31 3 -50.5 22t-19.5 50q0 32 20 52t52 20t52 -22.5t20 -58.5q0 -61 -37 -110.5t-114 -74.5l-12 29q78 28 89 93z" />
    <glyph glyph-name="quotedblleft" unicode="&#x201c;" horiz-adv-x="423" 
d="M122 588q31 -3 50.5 -22t19.5 -50q0 -32 -20 -52t-52 -20t-52 22.5t-20 58.5q0 61 37 110.5t114 74.5l12 -29q-78 -28 -89 -93zM302 588q31 -3 50.5 -22t19.5 -50q0 -32 -20 -52t-52 -20t-52 22.5t-20 58.5q0 61 37 110.5t114 74.5l12 -29q-78 -28 -89 -93z" />
    <glyph glyph-name="quotedblright" unicode="&#x201d;" horiz-adv-x="423" 
d="M121 566q-31 3 -50.5 22t-19.5 50q0 32 20 52t52 20t52 -22.5t20 -58.5q0 -61 -37 -110.5t-114 -74.5l-12 29q78 28 89 93zM301 566q-31 3 -50.5 22t-19.5 50q0 32 20 52t52 20t52 -22.5t20 -58.5q0 -61 -37 -110.5t-114 -74.5l-12 29q78 28 89 93z" />
    <glyph glyph-name="quotedblbase" unicode="&#x201e;" horiz-adv-x="423" 
d="M121 0q-31 3 -50.5 22t-19.5 50q0 32 20 52t52 20t52 -22.5t20 -58.5q0 -61 -37 -110.5t-114 -74.5l-12 29q78 28 89 93zM301 0q-31 3 -50.5 22t-19.5 50q0 32 20 52t52 20t52 -22.5t20 -58.5q0 -61 -37 -110.5t-114 -74.5l-12 29q78 28 89 93z" />
    <glyph glyph-name="dagger" unicode="&#x2020;" horiz-adv-x="369" 
d="M142 700h84v-200h127v-80h-127v-540h-84v540h-126v80h126v200z" />
    <glyph glyph-name="daggerdbl" unicode="&#x2021;" horiz-adv-x="369" 
d="M142 700h84v-200h127v-80h-127v-260h127v-80h-127v-200h-84v200h-126v80h126v260h-126v80h126v200z" />
    <glyph glyph-name="bullet" unicode="&#x2022;" horiz-adv-x="318" 
d="M228.5 419.5q28.5 -28.5 28.5 -69.5t-28.5 -69.5t-69.5 -28.5t-69.5 28.5t-28.5 69.5t28.5 69.5t69.5 28.5t69.5 -28.5z" />
    <glyph glyph-name="ellipsis" unicode="&#x2026;" horiz-adv-x="728" 
d="M171.5 122.5q21.5 -21.5 21.5 -50.5t-21.5 -50.5t-50.5 -21.5t-50.5 21.5t-21.5 50.5t21.5 50.5t50.5 21.5t50.5 -21.5zM415.5 122.5q21.5 -21.5 21.5 -50.5t-21.5 -50.5t-50.5 -21.5t-50.5 21.5t-21.5 50.5t21.5 50.5t50.5 21.5t50.5 -21.5zM659.5 122.5
q21.5 -21.5 21.5 -50.5t-21.5 -50.5t-50.5 -21.5t-50.5 21.5t-21.5 50.5t21.5 50.5t50.5 21.5t50.5 -21.5z" />
    <glyph glyph-name="perthousand" unicode="&#x2030;" horiz-adv-x="1216" 
d="M126.5 388q-38.5 22 -60 61.5t-21.5 88.5t21.5 88.5t60 61.5t88.5 22t88.5 -22t60 -61.5t21.5 -88.5t-21.5 -88.5t-60 -61.5t-88.5 -22t-88.5 22zM125 55l527 637l57 -47l-527 -637zM288.5 458.5q28.5 28.5 28.5 79.5t-28.5 79.5t-73.5 28.5t-73.5 -28.5t-28.5 -79.5
t28.5 -79.5t73.5 -28.5t73.5 28.5zM530.5 12q-38.5 22 -60 61.5t-21.5 88.5t21.5 88.5t60 61.5t88.5 22t88.5 -22t60 -61.5t21.5 -88.5t-21.5 -88.5t-60 -61.5t-88.5 -22t-88.5 22zM912.5 12q-38.5 22 -60 61.5t-21.5 88.5t21.5 88.5t60 61.5t88.5 22t88.5 -22t60 -61.5
t21.5 -88.5t-21.5 -88.5t-60 -61.5t-88.5 -22t-88.5 22zM692.5 82.5q28.5 28.5 28.5 79.5t-28.5 79.5t-73.5 28.5t-73.5 -28.5t-28.5 -79.5t28.5 -79.5t73.5 -28.5t73.5 28.5zM1074.5 82.5q28.5 28.5 28.5 79.5t-28.5 79.5t-73.5 28.5t-73.5 -28.5t-28.5 -79.5t28.5 -79.5
t73.5 -28.5t73.5 28.5z" />
    <glyph glyph-name="guilsinglleft" unicode="&#x2039;" horiz-adv-x="290" 
d="M156 500h84l-92 -220l92 -220h-84l-104 220z" />
    <glyph glyph-name="guilsinglright" unicode="&#x203a;" horiz-adv-x="290" 
d="M50 60l92 220l-92 220h84l104 -220l-104 -220h-84z" />
    <glyph glyph-name="fraction" unicode="&#x2044;" horiz-adv-x="714" 
d="M122 8l-57 47l527 637l57 -47z" />
    <glyph glyph-name="uni2070" unicode="&#x2070;" horiz-adv-x="379" 
d="M299 378.5q-40 -53.5 -110 -53.5q-69 0 -109 53.5t-40 136.5t40 136.5t109 53.5q70 0 110 -53.5t40 -136.5t-40 -136.5zM250.5 609q-21.5 35 -61.5 35t-61 -35t-21 -94t21 -94t61 -35t61.5 35t21.5 94t-21.5 94z" />
    <glyph glyph-name="uni2074" unicode="&#x2074;" horiz-adv-x="360" 
d="M216 700h69v-235h44v-62h-44v-73h-72v73h-173v62zM213 465v139l-103 -139h103z" />
    <glyph glyph-name="uni2075" unicode="&#x2075;" horiz-adv-x="339" 
d="M45 528l23 172h222v-58h-169l-15 -73q17 12 34 17.5t41 5.5q58 0 92 -34.5t34 -94.5q0 -62 -38.5 -100t-98.5 -38q-57 0 -93 34.5t-40 88.5h68q3 -25 19.5 -43t45.5 -18q32 0 50.5 20t18.5 54t-19 53t-47 19q-38 0 -71 -33z" />
    <glyph glyph-name="uni2076" unicode="&#x2076;" horiz-adv-x="338" 
d="M110 339q-28 14 -46 38q-34 46 -34 129q0 89 39.5 144t105.5 55q51 0 80.5 -26t34.5 -71h-65q-7 20 -19.5 29t-32.5 9q-30 0 -51.5 -28.5t-22.5 -76.5q14 15 36 24.5t46 9.5q51 0 85 -33.5t34 -87.5q0 -55 -37.5 -92t-96.5 -37q-28 0 -56 14zM217 405q18 21 18 48t-18 48
t-48 21t-48.5 -21t-18.5 -48q0 -29 18 -49t49 -20q30 0 48 21z" />
    <glyph glyph-name="uni2077" unicode="&#x2077;" horiz-adv-x="288" 
d="M120 330h-74l132 308h-161v62h239v-55z" />
    <glyph glyph-name="uni2078" unicode="&#x2078;" horiz-adv-x="320" 
d="M50 495.5q15 24.5 40 38.5q-18 13 -28 33.5t-10 43.5q0 41 30.5 67.5t77.5 26.5t77.5 -26.5t30.5 -67.5q0 -23 -10 -43.5t-28 -33.5q25 -14 40 -38.5t15 -54.5q0 -50 -34 -83t-91 -33t-91 33t-34 83q0 30 15 54.5zM196 571q14 13 14 34q0 22 -14 35t-36 13t-36 -13
t-14 -35q0 -21 14 -34t36 -13t36 13zM203.5 401q17.5 17 17.5 44t-17.5 44t-43.5 17t-43.5 -17t-17.5 -44t17.5 -44t43.5 -17t43.5 17z" />
    <glyph glyph-name="uni2079" unicode="&#x2079;" horiz-adv-x="333" 
d="M76 351.5q-31 26.5 -36 70.5h65q7 -20 19.5 -29t32.5 -9q33 0 53 27.5t21 77.5q-27 -34 -78 -34q-52 0 -87.5 33.5t-35.5 87.5q0 55 37.5 92t96.5 37q66 0 103 -49q33 -44 33 -132q0 -93 -38 -146t-105 -53q-50 0 -81 26.5zM113 625q-18 -21 -18 -48t18 -48t48 -21
t48.5 21t18.5 48q0 29 -18 49t-49 20q-30 0 -48 -21z" />
    <glyph glyph-name="uni2080" unicode="&#x2080;" horiz-adv-x="379" 
d="M299 -151.5q-40 -53.5 -110 -53.5q-69 0 -109 53.5t-40 136.5t40 136.5t109 53.5q70 0 110 -53.5t40 -136.5t-40 -136.5zM250.5 79q-21.5 35 -61.5 35t-61 -35t-21 -94t21 -94t61 -35t61.5 35t21.5 94t-21.5 94z" />
    <glyph glyph-name="uni2081" unicode="&#x2081;" horiz-adv-x="227" 
d="M112 170h72v-370h-72v274q-12 -10 -30 -14.5t-45 -4.5v68h8q60 0 67 47z" />
    <glyph glyph-name="uni2082" unicode="&#x2082;" horiz-adv-x="331" 
d="M183 -3q18 17 26.5 31.5t8.5 33.5q0 22 -16 35.5t-39 13.5q-25 0 -40 -16t-17 -40h-67q1 53 35 86.5t89 33.5q57 0 92 -29.5t35 -78.5q0 -34 -16.5 -61.5t-51.5 -59.5l-89 -83h161v-63h-257v60z" />
    <glyph glyph-name="uni2083" unicode="&#x2083;" horiz-adv-x="363" 
d="M214 48q45 -8 72.5 -38t27.5 -82q0 -37 -18 -67.5t-49 -48t-68 -17.5q-63 0 -100.5 38.5t-39.5 95.5h69q2 -34 20 -53t50 -19t50 20t18 51q0 33 -22 51.5t-60 18.5h-27v56l74 57h-154v59h237v-61z" />
    <glyph glyph-name="uni2084" unicode="&#x2084;" horiz-adv-x="360" 
d="M216 170h69v-235h44v-62h-44v-73h-72v73h-173v62zM213 -65v139l-103 -139h103z" />
    <glyph glyph-name="uni2085" unicode="&#x2085;" horiz-adv-x="339" 
d="M45 -2l23 172h222v-58h-169l-15 -73q17 12 34 17.5t41 5.5q58 0 92 -34.5t34 -94.5q0 -62 -38.5 -100t-98.5 -38q-57 0 -93 34.5t-40 88.5h68q3 -25 19.5 -43t45.5 -18q32 0 50.5 20t18.5 54t-19 53t-47 19q-38 0 -71 -33z" />
    <glyph glyph-name="uni2086" unicode="&#x2086;" horiz-adv-x="338" 
d="M110 -191q-28 14 -46 38q-34 46 -34 129q0 89 39.5 144t105.5 55q51 0 80.5 -26t34.5 -71h-65q-7 20 -19.5 29t-32.5 9q-30 0 -51.5 -28.5t-22.5 -76.5q14 15 36 24.5t46 9.5q51 0 85 -33.5t34 -87.5q0 -55 -37.5 -92t-96.5 -37q-28 0 -56 14zM217 -125q18 21 18 48
t-18 48t-48 21t-48.5 -21t-18.5 -48q0 -29 18 -49t49 -20q30 0 48 21z" />
    <glyph glyph-name="uni2087" unicode="&#x2087;" horiz-adv-x="288" 
d="M120 -200h-74l132 308h-161v62h239v-55z" />
    <glyph glyph-name="uni2088" unicode="&#x2088;" horiz-adv-x="320" 
d="M50 -34.5q15 24.5 40 38.5q-18 13 -28 33.5t-10 43.5q0 41 30.5 67.5t77.5 26.5t77.5 -26.5t30.5 -67.5q0 -23 -10 -43.5t-28 -33.5q25 -14 40 -38.5t15 -54.5q0 -50 -34 -83t-91 -33t-91 33t-34 83q0 30 15 54.5zM196 41q14 13 14 34q0 22 -14 35t-36 13t-36 -13
t-14 -35q0 -21 14 -34t36 -13t36 13zM203.5 -129q17.5 17 17.5 44t-17.5 44t-43.5 17t-43.5 -17t-17.5 -44t17.5 -44t43.5 -17t43.5 17z" />
    <glyph glyph-name="uni2089" unicode="&#x2089;" horiz-adv-x="333" 
d="M76 -178.5q-31 26.5 -36 70.5h65q7 -20 19.5 -29t32.5 -9q33 0 53 27.5t21 77.5q-27 -34 -78 -34q-52 0 -87.5 33.5t-35.5 87.5q0 55 37.5 92t96.5 37q66 0 103 -49q33 -44 33 -132q0 -93 -38 -146t-105 -53q-50 0 -81 26.5zM113 95q-18 -21 -18 -48t18 -48t48 -21
t48.5 21t18.5 48q0 29 -18 49t-49 20q-30 0 -48 -21z" />
    <glyph glyph-name="Euro" unicode="&#x20ac;" horiz-adv-x="710" 
d="M289.5 582q-50.5 -40 -73.5 -111h205v-80h-221q-2 -20 -2 -41v-21h223v-80h-211q20 -80 72.5 -125.5t130.5 -45.5q70 0 113.5 27t64.5 85h99q-25 -97 -97.5 -148.5t-179.5 -51.5q-119 0 -198.5 70.5t-104.5 188.5h-86v80h76v21l1 41h-77v80h91q29 109 107 174t191 65
q107 0 179.5 -51.5t97.5 -148.5h-99q-21 58 -64.5 85t-113.5 27q-73 0 -123.5 -40z" />
    <glyph glyph-name="trademark" unicode="&#x2122;" horiz-adv-x="735" 
d="M123 646h-100v54h258v-54h-100v-346h-58v346zM332 700h61l129 -331l129 331h61v-400h-58v256l-103 -256h-58l-103 256v-256h-58v400z" />
    <glyph glyph-name="uni2126" unicode="&#x2126;" horiz-adv-x="778" 
d="M439 0v88q48 24 92.5 68.5t73 103t28.5 120.5q0 73 -33.5 128t-89.5 84.5t-121 29.5t-121 -29.5t-89.5 -84.5t-33.5 -128q0 -62 28.5 -120.5t73 -103t92.5 -68.5v-88h-251v88h124q-40 25 -78 71.5t-62.5 106.5t-24.5 123q0 98 47.5 171t125.5 111.5t169 38.5t169 -38.5
t125.5 -111.5t47.5 -171q0 -63 -24.5 -123t-62.5 -106.5t-78 -71.5h124v-88h-251z" />
    <glyph glyph-name="uni2153" unicode="&#x2153;" horiz-adv-x="791" 
d="M134 604q-12 -10 -30 -14.5t-45 -4.5v68h8q60 0 67 47h72v-370h-72v274zM65 55l527 637l57 -47l-527 -637zM496.5 33.5q-37.5 38.5 -39.5 95.5h69q2 -34 20 -53t50 -19t50 20t18 51q0 33 -22 51.5t-60 18.5h-27v56l74 57h-154v59h237v-61l-80 -61q45 -8 72.5 -38
t27.5 -82q0 -37 -18 -67.5t-49 -48t-68 -17.5q-63 0 -100.5 38.5z" />
    <glyph glyph-name="uni2154" unicode="&#x2154;" horiz-adv-x="863" 
d="M37 390l146 137q18 17 26.5 31.5t8.5 33.5q0 22 -16 35.5t-39 13.5q-25 0 -40 -16t-17 -40h-67q1 53 35 86.5t89 33.5q57 0 92 -29.5t35 -78.5q0 -34 -16.5 -61.5t-51.5 -59.5l-89 -83h161v-63h-257v60zM137 55l527 637l57 -47l-527 -637zM568.5 33.5
q-37.5 38.5 -39.5 95.5h69q2 -34 20 -53t50 -19t50 20t18 51q0 33 -22 51.5t-60 18.5h-27v56l74 57h-154v59h237v-61l-80 -61q45 -8 72.5 -38t27.5 -82q0 -37 -18 -67.5t-49 -48t-68 -17.5q-63 0 -100.5 38.5z" />
    <glyph glyph-name="oneeighth" unicode="&#x215b;" horiz-adv-x="736" 
d="M67 653q60 0 67 47h72v-370h-72v274q-12 -10 -30 -14.5t-45 -4.5v68h8zM649 645l-527 -637l-57 47l527 637zM480 28q-34 33 -34 83q0 30 15 54.5t40 38.5q-18 13 -28 33.5t-10 43.5q0 41 30.5 67.5t77.5 26.5t77.5 -26.5t30.5 -67.5q0 -23 -10 -43.5t-28 -33.5
q25 -14 40 -38.5t15 -54.5q0 -50 -34 -83t-91 -33t-91 33zM535 241q14 -13 36 -13t36 13t14 34q0 22 -14 35t-36 13t-36 -13t-14 -35q0 -21 14 -34zM527.5 71q17.5 -17 43.5 -17t43.5 17t17.5 44t-17.5 44t-43.5 17t-43.5 -17t-17.5 -44t17.5 -44z" />
    <glyph glyph-name="threeeighths" unicode="&#x215c;" horiz-adv-x="839" 
d="M91.5 363.5q-37.5 38.5 -39.5 95.5h69q2 -34 20 -53t50 -19t50 20t18 51q0 33 -22 51.5t-60 18.5h-27v56l74 57h-154v59h237v-61l-80 -61q45 -8 72.5 -38t27.5 -82q0 -37 -18 -67.5t-49 -48t-68 -17.5q-63 0 -100.5 38.5zM168 55l527 637l57 -47l-527 -637zM583 28
q-34 33 -34 83q0 30 15 54.5t40 38.5q-18 13 -28 33.5t-10 43.5q0 41 30.5 67.5t77.5 26.5t77.5 -26.5t30.5 -67.5q0 -23 -10 -43.5t-28 -33.5q25 -14 40 -38.5t15 -54.5q0 -50 -34 -83t-91 -33t-91 33zM710 241q14 13 14 34q0 22 -14 35t-36 13t-36 -13t-14 -35
q0 -21 14 -34t36 -13t36 13zM717.5 71q17.5 17 17.5 44t-17.5 44t-43.5 17t-43.5 -17t-17.5 -44t17.5 -44t43.5 -17t43.5 17z" />
    <glyph glyph-name="fiveeighths" unicode="&#x215d;" horiz-adv-x="817" 
d="M86 359.5q-36 34.5 -40 88.5h68q3 -25 19.5 -43t45.5 -18q32 0 50.5 20t18.5 54t-19 53t-47 19q-38 0 -71 -33l-57 28l23 172h222v-58h-169l-15 -73q17 12 34 17.5t41 5.5q58 0 92 -34.5t34 -94.5q0 -62 -38.5 -100t-98.5 -38q-57 0 -93 34.5zM146 55l527 637l57 -47
l-527 -637zM561 28q-34 33 -34 83q0 30 15 54.5t40 38.5q-18 13 -28 33.5t-10 43.5q0 41 30.5 67.5t77.5 26.5t77.5 -26.5t30.5 -67.5q0 -23 -10 -43.5t-28 -33.5q25 -14 40 -38.5t15 -54.5q0 -50 -34 -83t-91 -33t-91 33zM688 241q14 13 14 34q0 22 -14 35t-36 13t-36 -13
t-14 -35q0 -21 14 -34t36 -13t36 13zM695.5 71q17.5 17 17.5 44t-17.5 44t-43.5 17t-43.5 -17t-17.5 -44t17.5 -44t43.5 -17t43.5 17z" />
    <glyph glyph-name="seveneighths" unicode="&#x215e;" horiz-adv-x="736" 
d="M287 645l-136 -315h-74l132 308h-161v62h239v-55zM649 645l-527 -637l-57 47l527 637zM480 28q-34 33 -34 83q0 30 15 54.5t40 38.5q-18 13 -28 33.5t-10 43.5q0 41 30.5 67.5t77.5 26.5t77.5 -26.5t30.5 -67.5q0 -23 -10 -43.5t-28 -33.5q25 -14 40 -38.5t15 -54.5
q0 -50 -34 -83t-91 -33t-91 33zM535 241q14 -13 36 -13t36 13t14 34q0 22 -14 35t-36 13t-36 -13t-14 -35q0 -21 14 -34zM527.5 71q17.5 -17 43.5 -17t43.5 17t17.5 44t-17.5 44t-43.5 17t-43.5 -17t-17.5 -44t17.5 -44z" />
    <glyph glyph-name="partialdiff" unicode="&#x2202;" horiz-adv-x="588" 
d="M150 19q-53 29 -84.5 80.5t-31.5 116.5q0 69 32.5 125.5t91 89t132.5 32.5q53 0 98.5 -21t70.5 -57q3 23 3 43q0 88 -41.5 141t-107.5 53q-47 0 -82.5 -24t-47.5 -70h-93q8 52 40.5 93.5t81 65t104.5 23.5q117 0 179 -82.5t62 -227.5q0 -204 -89 -311q-39 -47 -92 -73
t-110 -26q-63 0 -116 29zM357.5 100.5q36.5 22.5 57.5 61t21 83.5q0 60 -38 99.5t-102 39.5q-48 0 -85.5 -23.5t-58 -62.5t-20.5 -82q0 -61 39.5 -99.5t104.5 -38.5q45 0 81.5 22.5z" />
    <glyph glyph-name="uni2206" unicode="&#x2206;" horiz-adv-x="700" 
d="M690 0l-292 700h-96l-292 -700h680zM147 88l190 463l13 75l13 -75l190 -463h-406z" />
    <glyph glyph-name="product" unicode="&#x220f;" horiz-adv-x="617" 
d="M546 -200h-96v812h-283v-812h-96v900h475v-900z" />
    <glyph glyph-name="summation" unicode="&#x2211;" horiz-adv-x="564" 
d="M172 612h321v88h-446v-68l235 -331l-255 -331v-68h483v88h-358l240 311z" />
    <glyph glyph-name="minus" unicode="&#x2212;" horiz-adv-x="461" 
d="M429 320h-397v80h397v-80z" />
    <glyph glyph-name="radical" unicode="&#x221a;" horiz-adv-x="642" 
d="M316 143l201 587h92l-250 -730h-92l-90 260h-122v80h193z" />
    <glyph glyph-name="infinity" unicode="&#x221e;" horiz-adv-x="759" 
d="M426 144q-44 28 -73 74q-49 -82 -140 -82q-44 0 -82 21t-61.5 61t-23.5 92t23.5 92t61.5 61t82 21q91 0 140 -82q24 43 68 72.5t103 29.5q55 0 100 -22.5t71.5 -66.5t26.5 -105t-26.5 -105t-71.5 -66.5t-100 -22.5q-54 0 -98 28zM603.5 391.5q-30.5 32.5 -80.5 32.5
q-47 0 -79 -32t-49 -82q17 -50 49 -82t79 -32q50 0 80.5 32.5t30.5 81.5t-30.5 81.5zM283 380q-29 29 -66 29q-39 0 -64 -27.5t-25 -71.5t25 -71.5t64 -27.5q37 0 66 29t40 70q-11 41 -40 70z" />
    <glyph glyph-name="integral" unicode="&#x222b;" horiz-adv-x="329" 
d="M147.5 704q39.5 36 100.5 36q37 0 63 -10v-79q-33 11 -57 11q-26 0 -42 -16t-16 -46v-672q0 -65 -34.5 -101.5t-89.5 -36.5q-31 0 -57 10v79q26 -11 47 -11q20 0 33 14t13 41v672q0 73 39.5 109z" />
    <glyph glyph-name="approxequal" unicode="&#x2248;" horiz-adv-x="458" 
d="M257 370.5q-22 9.5 -48 26.5q-20 12 -31 17.5t-26 5.5q-21 0 -32 -15.5t-13 -38.5h-77q2 62 34 97t81 35q34 0 56 -9.5t48 -26.5q20 -12 31 -17.5t26 -5.5q21 0 32 15.5t13 38.5h77q-2 -62 -34 -97t-81 -35q-34 0 -56 9.5zM257 200.5q-22 9.5 -48 26.5q-20 12 -31 17.5
t-26 5.5q-21 0 -32 -15.5t-13 -38.5h-77q2 62 34 97t81 35q34 0 56 -9.5t48 -26.5q20 -12 31 -17.5t26 -5.5q21 0 32 15.5t13 38.5h77q-2 -62 -34 -97t-81 -35q-34 0 -56 9.5z" />
    <glyph glyph-name="notequal" unicode="&#x2260;" horiz-adv-x="461" 
d="M32 165v80h121l64 110h-185v80h230l74 126l69 -40l-50 -86h74v-80h-121l-64 -110h185v-80h-230l-74 -126l-69 40l50 86h-74z" />
    <glyph glyph-name="lessequal" unicode="&#x2264;" horiz-adv-x="501" 
d="M431 624v-92l-261 -142l261 -142v-92l-361 196v76zM449 0h-397v80h397v-80z" />
    <glyph glyph-name="greaterequal" unicode="&#x2265;" horiz-adv-x="501" 
d="M70 156v92l261 142l-261 142v92l361 -196v-76zM449 0h-397v80h397v-80z" />
    <glyph glyph-name="lozenge" unicode="&#x25ca;" horiz-adv-x="624" 
d="M270 700h84l242 -350l-242 -350h-84l-242 350zM330 594l-18 45l-18 -45l-172 -244l172 -244l18 -45l18 45l172 244z" />
    <glyph glyph-name="uniF8FF" unicode="&#xf8ff;" horiz-adv-x="780" 
d="M679.5 6.5q-6.5 -6.5 -15.5 -6.5l-7 1l-267 77l-267 -77l-7 -1q-9 0 -15.5 6.5t-6.5 15.5v595q0 7 4.5 13.5t11.5 8.5l270 78l10 2l10 -2l270 -78q7 -2 11.5 -8.5t4.5 -13.5v-595q0 -9 -6.5 -15.5zM138 602q4 -62 35 -114t82.5 -84.5t112.5 -37.5v303zM524.5 403.5
q51.5 32.5 82.5 84.5t35 114l-230 67v-303q61 5 112.5 37.5zM368 118v204q-73 6 -134 43.5t-97 97.5v-412zM545.5 365.5q-60.5 -37.5 -133.5 -43.5v-204l231 -67v412q-37 -60 -97.5 -97.5z" />
    <glyph glyph-name="zero.tn" horiz-adv-x="602" 
d="M550.5 165q-33.5 -82 -97.5 -128.5t-152 -46.5t-152 46.5t-97.5 128.5t-33.5 185t33.5 185t97.5 128.5t152 46.5t152 -46.5t97.5 -128.5t33.5 -185t-33.5 -185zM439.5 548.5q-46.5 73.5 -138.5 73.5t-138.5 -73.5t-46.5 -198.5t46.5 -198.5t138.5 -73.5t138.5 73.5
t46.5 198.5t-46.5 198.5z" />
    <glyph glyph-name="one.tn" horiz-adv-x="602" 
d="M256 631.5q29 21.5 35 68.5h96v-700h-96v566q-24 -21 -53.5 -28.5t-80.5 -7.5v80h16q54 0 83 21.5z" />
    <glyph glyph-name="two.tn" horiz-adv-x="602" 
d="M346 342q44 40 66 75.5t22 84.5q0 56 -37.5 88t-97.5 32q-61 0 -100.5 -37t-42.5 -102h-92q3 65 34.5 117t83 81t113.5 29q67 0 119.5 -25t82 -71t29.5 -107q0 -65 -29.5 -116.5t-87.5 -102.5l-227 -200h358v-88h-483v82z" />
    <glyph glyph-name="three.tn" horiz-adv-x="602" 
d="M371 472q82 -20 137 -76.5t55 -153.5q0 -70 -33 -128t-90.5 -91t-127.5 -33q-78 0 -135.5 34t-89.5 90.5t-36 124.5h90q5 -72 49.5 -116.5t119.5 -44.5q72 0 113.5 43.5t41.5 120.5q0 75 -50 115.5t-123 40.5h-22v87l140 127h-328v88h448v-91z" />
    <glyph glyph-name="four.tn" horiz-adv-x="602" 
d="M383 700h90v-458h84v-88h-84v-154h-96v154h-326v88zM377 242v307l-224 -307h224z" />
    <glyph glyph-name="five.tn" horiz-adv-x="602" 
d="M115 700h394v-88h-321l-29 -167q32 22 76 36t90 14q109 0 173.5 -65.5t64.5 -178.5q0 -70 -31 -129.5t-90 -95.5t-138 -36q-69 0 -125 29t-89.5 81t-37.5 119h96q7 -59 47 -100t109 -41q74 0 117.5 45t43.5 125q0 79 -43.5 122.5t-109.5 43.5q-59 0 -98.5 -16.5
t-73.5 -40.5l-69 33z" />
    <glyph glyph-name="six.tn" horiz-adv-x="602" 
d="M198 16.5q-53 26.5 -87 72.5q-31 43 -45.5 101t-14.5 134q0 116 32 203t93 135t146 48q89 0 146 -49.5t67 -132.5h-93q-15 52 -44 73t-79 21q-47 0 -84.5 -28t-59 -81.5t-21.5 -125.5q35 42 78.5 59t100.5 17q64 0 115.5 -28t81 -80t29.5 -120q0 -69 -32 -125t-90 -88
t-132 -32q-54 0 -107 26.5zM390 100q34 22 52.5 57.5t18.5 75.5t-18.5 75.5t-52.5 57.5t-80 22t-80 -22t-52.5 -57.5t-18.5 -75.5q0 -66 41 -110.5t110 -44.5q46 0 80 22z" />
    <glyph glyph-name="seven.tn" horiz-adv-x="602" 
d="M260 0h-93l262 612h-353v88h452v-76z" />
    <glyph glyph-name="eight.tn" horiz-adv-x="602" 
d="M98 314.5q29 46.5 76 72.5q-34 25 -53.5 63.5t-19.5 81.5q0 51 26.5 91.5t72.5 63.5t101 23t101 -23t72.5 -63.5t26.5 -91.5q0 -43 -19.5 -81.5t-53.5 -63.5q47 -26 76 -72.5t29 -104.5q0 -63 -28 -113t-81 -78.5t-123 -28.5t-123 28.5t-81 78.5t-28 113q0 58 29 104.5z
M379 451q30 29 30 76t-30 76t-78 29t-78 -29t-30 -76t30 -76t78 -29t78 29zM396 115.5q39 37.5 39 96.5t-39 96.5t-95 37.5t-95 -37.5t-39 -96.5t39 -96.5t95 -37.5t95 37.5z" />
    <glyph glyph-name="nine.tn" horiz-adv-x="602" 
d="M145 39.5q-57 49.5 -67 132.5h93q15 -52 44 -73t79 -21q47 0 84.5 28t59 81.5t21.5 125.5q-35 -42 -78.5 -59t-100.5 -17q-64 0 -115.5 28t-81 80t-29.5 120q0 69 32 125t90 88t132 32q54 0 107 -26.5t87 -72.5q31 -43 45.5 -101t14.5 -134q0 -116 -32 -203t-93 -135
t-146 -48q-89 0 -146 49.5zM223 600q-34 -22 -52.5 -57.5t-18.5 -75.5t18.5 -75.5t52.5 -57.5t80 -22t80 22t52.5 57.5t18.5 75.5q0 66 -41 110.5t-110 44.5q-46 0 -80 -22z" />
    <glyph glyph-name="g.alt" horiz-adv-x="477" 
d="M118.5 -189.5q-48.5 20.5 -77.5 58t-29 86.5q0 32 12.5 59.5t35.5 45.5q-39 31 -39 83q0 64 66 96q-33 42 -33 101q0 51 25 90t65.5 59.5t85.5 20.5q27 0 60 -10h138v-62h-53q31 -44 31 -98q0 -51 -25 -89.5t-65.5 -59.5t-85.5 -21q-52 0 -93 25q-28 -13 -28 -44
q0 -16 14 -27.5t41 -15.5q24 -3 80 -3q58 0 99.5 -9t67.5 -31q21 -18 34 -44.5t13 -56.5q0 -78 -61.5 -126t-171.5 -48q-58 0 -106.5 20.5zM297 271q28 25 28 69t-28 69t-67 25t-67 -25t-28 -69t28 -69t67 -25t67 25zM327.5 -109q32.5 21 32.5 62q0 37 -30.5 54t-99.5 17
h-61q-20 0 -38 3q-27 -27 -27 -71q0 -38 34 -62t97 -24q60 0 92.5 21z" />
    <glyph glyph-name="gcircumflex.alt" horiz-adv-x="477" 
d="M118.5 -189.5q-48.5 20.5 -77.5 58t-29 86.5q0 32 12.5 59.5t35.5 45.5q-39 31 -39 83q0 64 66 96q-33 42 -33 101q0 51 25 90t65.5 59.5t85.5 20.5q27 0 60 -10h138v-62h-53q31 -44 31 -98q0 -51 -25 -89.5t-65.5 -59.5t-85.5 -21q-52 0 -93 25q-28 -13 -28 -44
q0 -16 14 -27.5t41 -15.5q24 -3 80 -3q58 0 99.5 -9t67.5 -31q21 -18 34 -44.5t13 -56.5q0 -78 -61.5 -126t-171.5 -48q-58 0 -106.5 20.5zM297 271q28 25 28 69t-28 69t-67 25t-67 -25t-28 -69t28 -69t67 -25t67 25zM327.5 -109q32.5 21 32.5 62q0 37 -30.5 54t-99.5 17
h-61q-20 0 -38 3q-27 -27 -27 -71q0 -38 34 -62t97 -24q60 0 92.5 21zM298 567l-63 63l-62 -63h-83l108 133h75l108 -133h-83z" />
    <glyph glyph-name="gbreve.alt" horiz-adv-x="477" 
d="M118.5 -189.5q-48.5 20.5 -77.5 58t-29 86.5q0 32 12.5 59.5t35.5 45.5q-39 31 -39 83q0 64 66 96q-33 42 -33 101q0 51 25 90t65.5 59.5t85.5 20.5q27 0 60 -10h138v-62h-53q31 -44 31 -98q0 -51 -25 -89.5t-65.5 -59.5t-85.5 -21q-52 0 -93 25q-28 -13 -28 -44
q0 -16 14 -27.5t41 -15.5q24 -3 80 -3q58 0 99.5 -9t67.5 -31q21 -18 34 -44.5t13 -56.5q0 -78 -61.5 -126t-171.5 -48q-58 0 -106.5 20.5zM297 271q28 25 28 69t-28 69t-67 25t-67 -25t-28 -69t28 -69t67 -25t67 25zM327.5 -109q32.5 21 32.5 62q0 37 -30.5 54t-99.5 17
h-61q-20 0 -38 3q-27 -27 -27 -71q0 -38 34 -62t97 -24q60 0 92.5 21zM312.5 604q-28.5 -30 -77.5 -30t-77.5 30t-28.5 76h70q0 -18 9.5 -29t26.5 -11t26.5 11t9.5 29h70q0 -46 -28.5 -76z" />
    <glyph glyph-name="gdotaccent.alt" horiz-adv-x="477" 
d="M118.5 -189.5q-48.5 20.5 -77.5 58t-29 86.5q0 32 12.5 59.5t35.5 45.5q-39 31 -39 83q0 64 66 96q-33 42 -33 101q0 51 25 90t65.5 59.5t85.5 20.5q27 0 60 -10h138v-62h-53q31 -44 31 -98q0 -51 -25 -89.5t-65.5 -59.5t-85.5 -21q-52 0 -93 25q-28 -13 -28 -44
q0 -16 14 -27.5t41 -15.5q24 -3 80 -3q58 0 99.5 -9t67.5 -31q21 -18 34 -44.5t13 -56.5q0 -78 -61.5 -126t-171.5 -48q-58 0 -106.5 20.5zM297 271q28 25 28 69t-28 69t-67 25t-67 -25t-28 -69t28 -69t67 -25t67 25zM327.5 -109q32.5 21 32.5 62q0 37 -30.5 54t-99.5 17
h-61q-20 0 -38 3q-27 -27 -27 -71q0 -38 34 -62t97 -24q60 0 92.5 21zM275 681q19 -19 19 -45t-19 -45t-45 -19t-45 19t-19 45t19 45t45 19t45 -19z" />
    <glyph glyph-name="gcommaaccent.alt" horiz-adv-x="477" 
d="M230 697q30 -2 46 -20.5t16 -43.5q0 -26 -18.5 -44.5t-45.5 -18.5q-28 0 -47 19.5t-19 53.5q0 55 31.5 101.5t97.5 73.5l11 -24q-64 -33 -72 -97zM118.5 -189.5q-48.5 20.5 -77.5 58t-29 86.5q0 32 12.5 59.5t35.5 45.5q-39 31 -39 83q0 64 66 96q-33 42 -33 101
q0 51 25 90t65.5 59.5t85.5 20.5q27 0 60 -10h138v-62h-53q31 -44 31 -98q0 -51 -25 -89.5t-65.5 -59.5t-85.5 -21q-52 0 -93 25q-28 -13 -28 -44q0 -16 14 -27.5t41 -15.5q24 -3 80 -3q58 0 99.5 -9t67.5 -31q21 -18 34 -44.5t13 -56.5q0 -78 -61.5 -126t-171.5 -48
q-58 0 -106.5 20.5zM297 271q28 25 28 69t-28 69t-67 25t-67 -25t-28 -69t28 -69t67 -25t67 25zM327.5 -109q32.5 21 32.5 62q0 37 -30.5 54t-99.5 17h-61q-20 0 -38 3q-27 -27 -27 -71q0 -38 34 -62t97 -24q60 0 92.5 21z" />
    <glyph glyph-name="copyright.alt" horiz-adv-x="792" 
d="M578.5 661.5q82.5 -48.5 130 -131t47.5 -180.5t-47.5 -180.5t-130 -131t-182.5 -48.5t-182.5 48.5t-130 131t-47.5 180.5t47.5 180.5t130 131t182.5 48.5t182.5 -48.5zM541 97.5q66 39.5 104.5 106.5t38.5 146t-38.5 146t-104.5 106.5t-145 39.5t-145 -39.5
t-104.5 -106.5t-38.5 -146t38.5 -146t104.5 -106.5t145 -39.5t145 39.5zM474.5 230q28.5 21 42.5 66h65q-13 -71 -61.5 -110.5t-124.5 -39.5q-56 0 -101.5 25.5t-71.5 72t-26 106.5t26 106.5t71.5 72t101.5 25.5q76 0 126 -39.5t60 -110.5h-65q-10 41 -40.5 64t-79.5 23
q-57 0 -94 -38t-37 -103t37 -103t94 -38q49 0 77.5 21z" />
    <glyph glyph-name="registered.alt" horiz-adv-x="792" 
d="M213.5 38.5q-82.5 48.5 -130 131t-47.5 180.5t47.5 180.5t130 131t182.5 48.5t182.5 -48.5t130 -131t47.5 -180.5t-47.5 -180.5t-130 -131t-182.5 -48.5t-182.5 48.5zM541 97.5q66 39.5 104.5 106.5t38.5 146t-38.5 146t-104.5 106.5t-145 39.5t-145 -39.5t-104.5 -106.5
t-38.5 -146t38.5 -146t104.5 -106.5t145 -39.5t145 39.5zM264 554h129q73 0 112 -35t39 -96q0 -39 -18.5 -67t-55.5 -49l82 -161h-70l-74 148h-80v-148h-64v408zM395 352q40 0 62 18t22 54q0 72 -84 72h-67v-144h67z" />
    </font>
</defs>
</svg>
