<svg xmlns="http://www.w3.org/2000/svg" width="19" height="17" viewBox="0 0 19 17">
    <g fill="#6B6B6B" fillRule="nonzero">
        <path d="M17.804.283H1.196c-.492 0-.88.39-.88.886v11.687c0 .496.388.886.88.886h1.76v2.054a.85.85 0 0 0 .492.779c.14.07.246.106.387.106.176 0 .387-.07.528-.177l3.73-2.762h9.71c.493 0 .88-.39.88-.886V1.17c0-.46-.422-.886-.88-.886zm-.88 11.688H7.811a.944.944 0 0 0-.528.177L4.75 14.06v-1.204a.874.874 0 0 0-.88-.885H2.111V2.054h14.813v9.917z"/>
        <path d="M6.896 6.481h5.243v1.771H6.896z"/>
    </g>
</svg>
