<?xml version="1.0" encoding="utf-8"?>
<!-- Generator: Adobe Illustrator 15.0.0, SVG Export Plug-In . SVG Version: 6.00 Build 0)  -->
<!DOCTYPE svg PUBLIC "-//W3C//DTD SVG 1.1//EN" "http://www.w3.org/Graphics/SVG/1.1/DTD/svg11.dtd">
<svg version="1.1" id="Layer_1" xmlns="http://www.w3.org/2000/svg" xmlns:xlink="http://www.w3.org/1999/xlink" x="0px" y="0px"
	 width="283.5px" height="82.2px" viewBox="0 0 283.5 82.2" enable-background="new 0 0 283.5 82.2" xml:space="preserve">
<path fill="#1B1464" d="M278,2H5.4C3,2,1.2,4,1.2,6.6v70.699c0,1.601,1,2.9,2.7,2.9h275.5c1.699,0,2.8-1.3,2.8-2.9V6.6
	C282.2,4,280.4,2,278,2L278,2z"/>
<path fill="#034EA2" d="M49.1,3.4H5.5c-1.7,0-2.7,1.5-2.7,3.2v65.8c0,1.7,1,3,2.7,3h272.4c1.699,0,2.8-1.3,2.8-3V6.6
	c0-1.7-1.101-3.2-2.8-3.2H49.1"/>
<g>
	<path fill="#FFFFFF" d="M102.7,34.4c-1,0.6-2.4,0.8-3.9,0.8c-1,0-2.4,0-3.8-0.2v-1.8c1.2,0.1,2.4,0.2,3.6,0.2c1,0,2-0.1,2.6-0.4
		c0.8-0.3,1.2-1.1,1.2-2.1c0-1.3-0.6-1.9-1.9-2.3c-0.8-0.3-1.6-0.5-2.4-0.7c-2-0.6-3.2-1.7-3.2-3.9c0-1.3,0.5-2.6,1.6-3.3
		c1.1-0.7,2.3-0.8,3.7-0.8c1,0,2.2,0.1,3.5,0.2v1.7c-1.2-0.1-2.4-0.2-3.3-0.2s-1.7,0-2.3,0.3c-0.8,0.4-1.1,1.2-1.1,2
		c0,1.2,0.6,1.8,1.7,2.2c0.7,0.2,1.5,0.4,2.4,0.7c2.2,0.6,3.4,1.7,3.4,4.1C104.4,32.2,103.9,33.6,102.7,34.4 M106.5,25.3
		c0.8-2,1.4-3.8,1.9-5.7h2.1c-0.6,2.1-1.5,4.1-2.2,5.7H106.5z M113.3,19.5h2.1v2h-2.1V19.5z M115.2,34.9h-1.8V24.1h1.9L115.2,34.9z
		 M126.4,34.9l-0.1-0.6c-1.2,0.4-2.5,0.9-3.8,0.9c-1.2,0-2.2-0.4-3-1.2c-1-1-1.4-2.5-1.4-4.5c0-2.1,0.7-3.8,1.8-4.7
		c0.9-0.7,2.1-1,3.5-1c0.9,0,1.9,0.2,2.6,0.5v-4.7h1.9v15.3H126.4z M126.1,32.9v-7c-0.7-0.3-1.6-0.5-2.4-0.5c-2.4,0-3.6,1.2-3.6,4.1
		s1.2,4.1,2.9,4.1C124.1,33.6,125.1,33.2,126.1,32.9 M135.7,35.2c-1.2,0-2.5-0.3-3.4-1.2c-1-1.1-1.4-2.6-1.4-4.5
		c0-1.8,0.4-3.5,1.6-4.5c0.9-0.7,1.9-1.1,3.4-1.1c1.2,0,2.4,0.3,3.3,1.1c1.3,1.1,1.4,2.8,1.4,5h-7.8c0.1,2.5,1.2,3.7,3.3,3.7
		c1.3,0,2.6-0.3,4.1-0.6v1.5C138.8,34.8,137.2,35.2,135.7,35.2 M135.8,25.2c-2.1,0-2.8,1.3-2.9,3.4h5.8
		C138.6,26.3,137.8,25.2,135.8,25.2 M151.2,34.9V28c0-1.9-1-2.6-2.601-2.6c-0.899,0-1.899,0.3-3.199,0.7v8.7h-1.9V24.1h1.6
		l0.101,0.6c1.3-0.4,2.7-0.9,4-0.9c1.2,0,2.3,0.3,3.1,1.2c0.7,0.8,0.8,1.8,0.8,3v6.9H151.2L151.2,34.9z M160.2,35.2
		c-1.2,0-2.4-0.4-2.9-1.8c-0.3-0.8-0.399-1.8-0.399-2.9v-4.8H155.1v-1.5h1.801l0.199-3.3h1.7v3.3h3.2v1.5h-3.2v4.6
		c0,0.8,0,1.5,0.2,2.1c0.2,0.9,0.7,1.3,1.7,1.3c0.5,0,1.1-0.1,1.6-0.2V35C161.6,35,160.8,35.2,160.2,35.2 M164.8,19.5h2.101v2H164.8
		V19.5z M166.7,34.9h-1.8V24.1h1.899L166.7,34.9L166.7,34.9z M177.7,34.9v-9.2h-5v9.2h-1.9v-9.2H169v-1.5h1.8c0-1.6,0.3-2.9,1.3-3.8
		c0.9-0.8,2.2-1,4-1c1,0,2,0.1,2.9,0.2V21c-0.9-0.1-1.9-0.2-2.9-0.2c-2.8,0-3.399,1-3.399,3.2h6.899v10.8H177.7V34.9z M187.3,35.2
		c-1.2,0-2.5-0.3-3.399-1.2c-1-1.1-1.4-2.6-1.4-4.5c0-1.8,0.4-3.5,1.6-4.5c0.9-0.7,1.9-1.1,3.4-1.1c1.2,0,2.4,0.3,3.3,1.1
		c1.3,1.1,1.4,2.8,1.4,5h-7.8c0.1,2.5,1.199,3.7,3.3,3.7c1.3,0,2.6-0.3,4.1-0.6v1.5C190.4,34.8,188.8,35.2,187.3,35.2 M187.4,25.2
		c-2.101,0-2.801,1.3-2.9,3.4h5.8C190.2,26.3,189.4,25.2,187.4,25.2 M195.2,34.9V24.1h1.6l0.101,0.7c1.6-0.6,2.5-1,3.8-1h0.2v1.7
		h-0.4c-1.1,0-1.9,0.2-3.4,0.7v8.7H195.2L195.2,34.9z M216.2,34.9v-0.6c-1.4,0.4-2.601,0.9-3.9,0.9c-0.899,0-1.8-0.2-2.5-0.9
		c-0.7-0.6-1-1.4-1-2.5c0-1.1,0.4-2.2,1.5-2.8c0.8-0.4,1.7-0.5,2.8-0.5c0.801,0,1.9,0.1,2.9,0.2v-0.5c0-2.1-0.9-2.8-3.3-2.8
		c-0.9,0-1.8,0.1-2.7,0.2V24c1-0.1,2-0.2,3-0.2c1.4,0,2.9,0.1,3.8,1.1c0.9,0.9,1.101,2,1.101,3.6V35h-1.7V34.9z M215.9,30
		c-0.9-0.1-2-0.1-2.801-0.1c-1.899,0-2.6,0.7-2.6,1.9c0,1.1,0.8,1.9,2.2,1.9c1,0,2.1-0.3,3.2-0.7V30L215.9,30z M223.8,34.9
		l-4.2-10.8h2.101l3.2,8.9h0.1l3.2-8.9h2L226,34.9H223.8z M236,35.2c-1.2,0-2.5-0.3-3.4-1.2c-1-1.1-1.399-2.6-1.399-4.5
		c0-1.8,0.399-3.5,1.6-4.5c0.9-0.7,1.9-1.1,3.4-1.1c1.2,0,2.399,0.3,3.3,1.1c1.3,1.1,1.4,2.8,1.4,5H233.1
		c0.101,2.5,1.2,3.7,3.301,3.7c1.3,0,2.6-0.3,4.1-0.6v1.5C239.1,34.8,237.5,35.2,236,35.2 M236.1,25.2c-2.1,0-2.8,1.3-2.899,3.4h5.8
		C238.9,26.3,238.2,25.2,236.1,25.2 M247.5,35.2c-1.1,0-2.3-0.3-3.1-1.2c-1-1.1-1.4-2.6-1.4-4.5c0-1.8,0.5-3.7,1.9-4.7
		c1-0.8,2.3-1,3.6-1c0.8,0,1.6,0.1,2.6,0.2v1.6c-0.8-0.1-1.6-0.2-2.399-0.2c-2.601,0-3.601,1.3-3.601,4.1c0,2.5,1,4.1,3.101,4.1
		c0.899,0,2.1-0.3,3.1-0.6v1.6C250,34.9,248.7,35.2,247.5,35.2 M98.2,52.4v5.8h-2.5V43.6h9.5v2h-7v4.8h6.1v2H98.2z M108.4,58.2V47.4
		h2l0.1,0.7c1.5-0.6,2.5-1,3.9-1h0.3v2.1H114c-1,0-1.9,0.2-3.3,0.7v8.399h-2.3V58.2z M123.6,58.2v-0.6c-1.4,0.5-2.6,0.9-4,0.9
		c-0.9,0-1.8-0.201-2.5-0.9c-0.7-0.6-1-1.4-1-2.5c0-1.2,0.4-2.301,1.6-2.9c0.8-0.4,1.7-0.5,2.8-0.5c0.8,0,1.9,0,2.8,0.2V51.5
		c0-1.9-0.7-2.5-3.1-2.5c-0.9,0-1.9,0.1-2.8,0.199v-1.8c1-0.101,2.2-0.2,3.2-0.2c1.5,0,3,0.2,4,1c1,0.9,1.1,2.1,1.1,3.6v6.5h-2.1
		V58.2z M123.3,53.4c-0.8-0.101-1.8-0.101-2.5-0.101c-1.8,0-2.4,0.601-2.4,1.701c0,1,0.7,1.799,2,1.799c0.9,0,1.9-0.299,2.9-0.6
		V53.4z M137.5,58.2v-6.8c0-1.8-0.9-2.399-2.4-2.399c-0.8,0-1.8,0.199-2.9,0.699v8.5h-2.3V47.4h2L132,48c1.4-0.4,2.7-0.9,4-0.9
		c1.2,0,2.3,0.3,3.1,1.199C139.8,49.1,140,50.1,140,51.4v6.8H137.5L137.5,58.2z M147.6,58.5c-1.1,0-2.3-0.301-3.199-1.201
		c-1-1-1.4-2.6-1.4-4.399s0.5-3.601,1.9-4.7c1-0.8,2.3-1,3.699-1c0.801,0,1.7,0.1,2.7,0.2v1.899c-0.7-0.1-1.6-0.1-2.399-0.1
		c-2.4,0-3.4,1.2-3.4,3.801c0,2.299,0.9,3.799,2.9,3.799c0.899,0,2.1-0.299,3.1-0.6V58C150.1,58.2,148.8,58.5,147.6,58.5
		 M158.2,58.5c-1.2,0-2.5-0.301-3.5-1.201c-1-1-1.4-2.6-1.4-4.5c0-1.799,0.4-3.5,1.601-4.6c0.899-0.8,2-1.1,3.5-1.1
		c1.199,0,2.5,0.3,3.399,1.1c1.3,1.2,1.5,2.801,1.5,5.1h-7.6c0,2.301,1.1,3.4,3.1,3.4c1.3,0,2.7-0.3,4.101-0.6v1.8
		C161.5,58.1,159.8,58.5,158.2,58.5 M158.4,48.7c-1.9,0-2.5,1.2-2.601,3.1h5.3C161,49.7,160.3,48.7,158.4,48.7 M172,58.5
		c-1.5,0-3.1-0.4-4.2-1.601c-1.399-1.399-1.899-3.5-1.899-6c0-2.399,0.699-4.8,2.5-6.3c1.399-1.1,3.1-1.301,4.899-1.301
		c1.101,0,2.2,0.101,3.4,0.201v2.1c-1-0.1-2.2-0.2-3.2-0.2c-3.8,0-5.1,2.101-5.1,5.5c0,3.3,1.399,5.399,4.3,5.399
		c1.3,0,2.899-0.399,4.2-0.799v2.1C175.3,58.1,173.6,58.5,172,58.5 M181.1,57.4c-1.1-0.899-1.6-2.5-1.6-4.601c0-2.1,0.5-3.6,1.6-4.6
		c1-0.9,2.301-1.1,3.801-1.1c1.399,0,2.699,0.3,3.8,1.1c1.1,0.9,1.6,2.5,1.6,4.5c0,2.1-0.5,3.6-1.6,4.6c-1,0.9-2.4,1.101-3.8,1.101
		C183.5,58.5,182.1,58.2,181.1,57.4 M187.9,52.799c0-2.6-0.9-3.899-3-3.899c-2.2,0-3,1.2-3,3.8s0.899,4,3,4
		C187.1,56.7,187.9,55.5,187.9,52.799 M201.3,58.2v-6.8C201.3,49.6,200.4,49,198.9,49C198.1,49,197.1,49.2,196,49.7v8.5h-2.3V47.4h2
		L195.8,48c1.4-0.4,2.7-0.9,4-0.9c1.2,0,2.3,0.3,3.101,1.199C203.6,49.1,203.8,50.1,203.8,51.4v6.8H201.3L201.3,58.2z M215.5,58.2
		v-6.8c0-1.8-0.9-2.399-2.4-2.399c-0.8,0-1.8,0.199-2.899,0.699v8.5h-2.3V47.4h2L210,48c1.4-0.4,2.7-0.9,4-0.9
		c1.2,0,2.3,0.3,3.1,1.199C217.8,49.1,218,50.1,218,51.4v6.8H215.5L215.5,58.2z M225.8,58.5c-1.2,0-2.5-0.301-3.5-1.201
		c-1-1-1.399-2.6-1.399-4.5c0-1.799,0.399-3.5,1.6-4.6c0.9-0.8,2-1.1,3.5-1.1c1.2,0,2.5,0.3,3.4,1.1c1.3,1.2,1.5,2.801,1.5,5.1
		H223.3c0,2.301,1.101,3.4,3.101,3.4c1.3,0,2.699-0.3,4.1-0.6v1.8C229.1,58.1,227.4,58.5,225.8,58.5 M226,48.7
		c-1.9,0-2.5,1.2-2.6,3.1h5.3C228.5,49.7,227.8,48.7,226,48.7 M238.1,58.5c-1.1,0-2.3-0.301-3.199-1.201c-1-1-1.4-2.6-1.4-4.399
		s0.5-3.601,1.9-4.7c1-0.8,2.3-1,3.699-1c0.801,0,1.7,0.1,2.7,0.2v1.899c-0.7-0.1-1.6-0.1-2.399-0.1c-2.4,0-3.4,1.2-3.4,3.801
		c0,2.299,0.9,3.799,2.9,3.799c0.899,0,2.1-0.299,3.1-0.6V58C240.7,58.2,239.3,58.5,238.1,58.5 M248.8,58.5
		c-1.2,0-2.3-0.4-2.899-1.701c-0.4-0.799-0.5-1.799-0.5-3v-4.6h-1.7v-1.8h1.7l0.3-3.3h2.1v3.3h3.101v1.8H247.8v4.2
		c0,0.8,0,1.5,0.2,2c0.2,0.8,0.7,1.101,1.6,1.101c0.5,0,1.101-0.101,1.601-0.201V58.1C250.3,58.299,249.5,58.5,248.8,58.5"/>
</g>
<path fill="#FFFFFF" d="M18,22v34.9l30.2,17.5l30.3-17.5V22L48.2,4.5L18,22z"/>
<path fill="#1B1464" d="M48.2,3.3L17,21.4V57.5l31.3,18l31.3-18V21.4L48.2,3.3z M78.5,56.9L48.2,74.4L18,56.9V22L48.2,4.5L78.5,22
	V56.9z"/>
<path fill="#0069CC" d="M62.6,20.8l-13.7-7.9l-13.7,7.9l-9.3,5.4v26.5L48.9,66l23-13.301V26.2L62.6,20.8z"/>
<path fill="#034EA2" d="M64.3,39.4L56,25.1l-7.1-12.2V66l23-13.301L64.3,39.4z"/>
<path fill="#0069CC" d="M56,25.1l8.3,14.3l7.6-13.2l-9.3-5.4L56,25.1z"/>
<path fill="#ED1C24" d="M62.6,20.8l-13.7-7.9L56,25.1L62.6,20.8z"/>
<path fill="#0069CC" d="M56,25.1l-7.1-12.2L56,25.1z"/>
<path fill="#ED1C24" d="M71.9,52.7V26.2l-7.6,13.2L71.9,52.7z M64.3,39.4l7.6,13.3L64.3,39.4z"/>
<path fill="#0069CC" d="M33.6,39.4l8.3-14.3l7-12.2V66L25.9,52.7L33.6,39.4z"/>
<path fill="#ED1C24" d="M41.9,25.1l-8.3,14.3l-7.7-13.2l9.3-5.4L41.9,25.1z"/>
<path fill="#034EA2" d="M35.2,20.8l13.7-7.9l-7,12.2L35.2,20.8z"/>
<path fill="#0069CC" d="M41.9,25.1l7-12.2L41.9,25.1z"/>
<path fill="#034EA2" d="M25.9,52.7V26.2l7.7,13.2L25.9,52.7z"/>
<path fill="#0069CC" d="M33.6,39.4l-7.7,13.3L33.6,39.4z"/>
<g>
	<path fill="#034EA2" d="M57.4,42c0.4,0,0.8-0.101,1.2,0c0.3,0.1,0.7,0.1,0.7,0.199c-0.1,0.6-1,0.7-1.4,1.301h-0.2
		c-0.2,0.1-0.1,0.5-0.3,0.5c-0.2-0.101-0.4,0-0.7,0.1c0.3,0.3,0.7,0.5,1.1,0.4c0.1,0,0.2,0.1,0.2,0.299c0,0,0.1,0,0.1-0.1
		c0.1,0,0.1,0,0.1,0.1V45.1c-0.2,0.3-0.6,0.199-0.9,0.199c0.6,0.101,1.2,0.101,1.7,0c0.4-0.199,0-0.899,0.3-1.199
		c-0.1,0,0-0.2-0.2-0.2c0.1-0.101,0.3-0.399,0.4-0.399s0.4-0.101,0.4-0.201c0-0.1-0.3-0.199-0.2-0.399c0.4-0.3,0.8-0.7,0.6-1.2
		c-0.1-0.2-0.7-0.2-1-0.3c-0.4-0.1-0.8,0-1.2,0.1c-0.4,0-0.7,0.2-1.1,0.299c-0.5,0.201-0.9,0.5-1.4,0.801
		C56.3,42.299,56.8,42.2,57.4,42z"/>
	<path fill="#FFFFFF" d="M63,46.4c-0.2-0.399-0.5-0.7-0.8-1.101c-0.3-0.5-0.7-0.899-0.8-1.5c-0.2-0.6,0-1.1,0-1.699
		c0-1.1-0.3-2.2-0.6-3.2c-0.2-0.5-0.3-1.1-0.5-1.6c-0.1-0.3-0.2-0.6-0.4-0.9c-0.1-0.1-0.1-0.4,0-0.5c0.3-0.2,0.6-0.5,0.8-0.7
		c0.2-0.4,0-0.9-0.3-1.1c-0.5-0.2-0.4,0.5-0.8,0.7h-0.2c-0.1-0.2,0.1-0.3,0.2-0.4c0-0.1,0-0.2-0.1-0.2c-0.3,0-0.6-0.1-0.7-0.2
		c-0.8-1-1.8-1.5-2.9-1.9c0.3,0.1,0.6,0.1,0.9,0.1c0.5,0.1,1.1,0,1.5-0.2c0.4-0.2,0.4-0.7,0.5-1.1c0.1-0.1,0-0.2,0-0.4
		s-0.2-0.4-0.3-0.6c0,0-0.1-0.1-0.2-0.3c-0.8-0.9-3.9-3.5-9.7-3.1c-2.5,0.2-5.6,0.9-9.2,2.7c-0.1,0-0.2,0.1-0.4,0.1
		c-0.6,0.3-1.4,0.8-1.9,1.4c-0.6,0.7-1.1,1.5-1.3,2.4c-0.9,0.6-1.5,1.5-2,2.4c-0.6,1.2-1.4,2.2-1.4,3.5v0.2c0.1,0.4,0.1,0.7,0.2,1.1
		c0.2,0.8,0.4,1.6,0.5,2.4l0.3,1.2c0.2,0.399,0,0.899,0.3,1.3c0.1,0.2,0.1,0.5,0.4,0.6V46.1c0.1,0.1,0.1,0.1,0.2,0.1V46.5
		c0.6,0.699,1.3,1.299,1.7,2.1c0.2,0.4-0.7,0.199-1.1,0.1c-0.7-0.3-1.2-0.9-1.8-1.4L33,47.4c0.3,0.5,1.4,1.101,0.8,1.5
		c-0.3,0.2-0.7-0.2-0.9,0.101c-0.1,0.1,0,0.299,0,0.399c-0.4-0.3-0.9-0.101-1.3-0.3c-0.3-0.1-0.4-0.6-0.7-0.6
		c-0.9-0.201-1.8-0.4-2.8-0.4h-0.2C27,48,26.1,47.9,25.3,48v1c0.8-0.201,1.6-0.4,2.4-0.4h0.2c0.2,0,0.5-0.1,0.7,0
		c-0.3,0-0.7,0-1,0.1c-0.8,0.1-1.6,0.4-2.4,0.7v1c0.4,0.101,0.9,0.101,1.3,0.2c0.5,0.1,1,0.199,1.5,0.4c0.7,0.199,1.2,0.5,1.8,0.799
		c0.3,0.201,0.4,0.4,0.7,0.601c0.4,0.2,0.9,0.2,1.2,0h0.4c1.1-0.3,2.2-0.601,2.9-1.5C35,51,35.1,51,35.1,51
		c-0.2,0.6-0.2,1.199-0.6,1.799c0,0.101-0.1,0.201,0.1,0.301h0.1c-0.1,0-0.1,0-0.1,0.1s0.2,0,0.3,0.1c-0.4,0.101-0.7,0.201-0.9,0.5
		c0,0.101,0.1,0.101,0.2,0.101C34.1,54,33.8,54,33.8,54.1l0.1,0.1c-0.1,0-0.1,0-0.1,0.1V54.5c-0.2,0-0.3,0.199-0.4,0.199
		c0.3,0.2,0.5,0,0.8,0C33.4,55,32.8,55.5,32,55.7c-0.1,0,0,0.2-0.1,0.2c0.2,0.101,0.4-0.101,0.6-0.101c-0.4,0.301-0.8,0.5-1.2,0.701
		l2.4,1.399c1-0.601,1.9-1.3,2.7-2.2l0.1,0.1C36.3,56.5,35.9,57,35.3,57.5c-0.4,0.199-0.7,0.6-1,0.699l1.8,1
		c0.4-0.3,0.7-0.5,1.2-0.699c0.1,0,0.2,0.1,0.4,0.1c0.6-0.6,1.3-1.301,2.3-1.1c0,0.1,0,0.1,0.1,0.1c0,0,0.1,0,0.1-0.1
		c0,0.1,0,0.1-0.1,0.1c-0.3,0.199-0.5,0.4-0.8,0.6c-0.1,0.1,0,0.1,0.1,0.1c0.4-0.199,0.6-0.399,0.9-0.6c-0.1,0.1-0.1,0.2-0.1,0.301
		C39.3,58.7,38.6,59.4,37.9,60.2l9.5,5.5c0.3-0.4,0.7-1,1.1-1.5c1.8-2.6,4.4-6.1,5.2-6.9C54,57.1,54.3,57.1,54.7,57
		c1.2,0,2.5,0.299,3.7,0.399c0.1,0,0.3,0.101,0.4,0.101c0.4,0.1,0.9,0,1.4-0.101c0.5-0.2,1.1-0.5,1.3-1.101c0.2-0.5,0.3-1.1,0-1.6
		c-0.5-0.6,0.4-0.9,0.7-1.3C62.4,53,62,52.799,62,52.5C61.9,52.4,61.6,52.4,61.5,52.2C62,52,62.8,51.5,62.4,50.9
		C62.2,50.5,61.8,50,62.2,49.6c0.5-0.301,1.3-0.301,1.5-0.801C64.3,47.799,63.4,47.1,63,46.4L63,46.4z M59.9,42.799
		C59.8,42.9,60.1,43,60.1,43.2c-0.1,0.1-0.3,0.2-0.4,0.2l-0.4,0.399c0.1,0,0,0.201,0.2,0.201c-0.3,0.399,0.2,1.1-0.3,1.199
		c-0.5,0.2-1.1,0.2-1.7,0c0.3-0.1,0.7,0.1,0.9-0.199V44.7c0-0.1-0.1-0.1-0.1-0.1l-0.1,0.1c0-0.1-0.2-0.3-0.2-0.3
		C57.6,44.5,57.2,44.299,56.9,44c0.2-0.101,0.4-0.201,0.7-0.101c0.2,0,0.1-0.399,0.3-0.5h0.2c0.4-0.601,1.3-0.8,1.4-1.3
		c0-0.1-0.4-0.1-0.7-0.2c-0.4-0.101-0.8,0-1.2,0c-0.6,0.2-1.1,0.2-1.6,0.5c0.4-0.3,0.9-0.601,1.4-0.8c0.4-0.1,0.7-0.3,1.1-0.3
		c0.4-0.1,0.9-0.2,1.2-0.1c0.4,0.1,0.9,0.1,1,0.3C60.6,42.1,60.3,42.5,59.9,42.799z"/>
</g>
</svg>
