<svg width="164" height="164" viewBox="0 0 164 164" fill="none" xmlns="http://www.w3.org/2000/svg">
<path d="M15.6706 130.212C27.9332 147.083 46.1635 158.647 66.6514 162.551C87.1392 166.455 108.345 162.405 125.952 151.226L82 82L15.6706 130.212Z" fill="#F9FAFB"/>
<path d="M104.305 160.908C123.01 155.621 139.229 143.86 150.068 127.724C160.907 111.589 165.662 92.1268 163.483 72.8108L82 82L104.305 160.908Z" fill="#EBEDEF"/>
<path d="M33.7966 15.6643C16.2032 28.4486 4.40905 47.6983 1.00858 69.1785C-2.39188 90.6588 2.87992 112.61 15.6643 130.203L82 82L33.7966 15.6643Z" fill="#E0E0E0"/>
<path d="M82 0C64.6833 -2.065e-07 47.8111 5.48211 33.8016 15.6606L82 82V0Z" fill="#EBEDEF"/>
<path d="M163.574 73.6553C161.505 53.4271 151.994 34.6891 136.887 21.0786C121.78 7.46804 102.155 -0.0441347 81.8212 0.000194864L82 82L163.574 73.6553Z" fill="#E0E0E0"/>
</svg>
