<svg width="99" height="80" viewBox="0 0 99 80" version="1.1" xmlns="http://www.w3.org/2000/svg" xmlns:xlink="http://www.w3.org/1999/xlink">
<title>Page 1</title>
<desc>Created using Figma</desc>
<g id="Canvas" transform="translate(13911 -2384)">
<g id="Page 1">
<g id="Fill 1">
<use xlink:href="#path0_fill" transform="translate(-13911 2384)" fill="#A6A6A6"/>
</g>
<g id="Fill 3">
<use xlink:href="#path1_fill" transform="translate(-13822.8 2428.08)" fill="#A6A6A6"/>
</g>
<g id="Fill 4">
<use xlink:href="#path1_fill" transform="translate(-13828 2428.08)" fill="#A6A6A6"/>
</g>
<g id="Fill 5">
<use xlink:href="#path1_fill" transform="translate(-13838.5 2428.08)" fill="#A6A6A6"/>
</g>
<g id="Fill 6">
<use xlink:href="#path1_fill" transform="translate(-13833.3 2428.08)" fill="#A6A6A6"/>
</g>
<g id="Fill 7">
<use xlink:href="#path1_fill" transform="translate(-13899 2428.08)" fill="#A6A6A6"/>
</g>
<g id="Fill 8">
<use xlink:href="#path1_fill" transform="translate(-13893.8 2428.08)" fill="#A6A6A6"/>
</g>
<g id="Fill 9">
<use xlink:href="#path1_fill" transform="translate(-13888.5 2428.08)" fill="#A6A6A6"/>
</g>
<g id="Fill 10">
<use xlink:href="#path1_fill" transform="translate(-13904.2 2428.08)" fill="#A6A6A6"/>
</g>
<g id="Stroke 11">
<use xlink:href="#path2_stroke" transform="translate(-13873 2404.69)" fill="#A6A6A6"/>
</g>
<g id="Stroke 12">
<use xlink:href="#path3_stroke" transform="translate(-13880.3 2394.77)" fill="#A6A6A6"/>
</g>
<g id="Stroke 13">
<use xlink:href="#path3_stroke" transform="translate(-13849.4 2395.77)" fill="#A6A6A6"/>
</g>
</g>
</g>
<defs>
<path id="path0_fill" fill-rule="evenodd" d="M 2.25 77.1322L 96 77.1322L 96 72.302L 2.25 72.302L 2.25 77.1322ZM 29.85 37.585C 30.45 47.6982 38.85 55.8491 49.05 55.8491C 59.25 55.8491 67.65 47.6982 68.25 37.585L 95.85 37.585L 95.85 70.0378L 2.25 70.0378L 2.25 37.585L 29.85 37.585ZM 18.2998 2.08743C 19.3498 2.08743 79.9498 1.7146 79.9498 1.7146L 80.4868 35.3206L 82.1998 35.3206L 66.1498 35.3206L 66.1498 36.5282C 66.1498 46.0376 58.4998 53.5848 49.1998 53.5848C 39.7498 53.5848 32.2498 45.8867 32.2498 36.5282L 32.2498 35.3206L 18.3748 35.3206L 18.2998 2.08743ZM 82.2 35.3208L 82.2 0L 15.9 0L 15.9 35.1698L 0 35.1698L 0 79.2453L 98.25 79.2453L 98.25 35.3208L 82.2 35.3208Z"/>
<path id="path1_fill" fill-rule="evenodd" d="M 0 2.26415L 2.25 2.26415L 2.25 0L 0 0L 0 2.26415Z"/>
<path id="path2_stroke" d="M -1 10.2189C -1 10.7712 -0.552285 11.2189 0 11.2189C 0.552285 11.2189 1 10.7712 1 10.2189L -1 10.2189ZM 21.1925 10.2189C 21.1925 10.7712 21.6402 11.2189 22.1925 11.2189C 22.7448 11.2189 23.1925 10.7712 23.1925 10.2189L 21.1925 10.2189ZM 1 10.2189C 1 5.2033 5.44118 1 11.0955 1L 11.0955 -1C 4.49482 -1 -1 3.94689 -1 10.2189L 1 10.2189ZM 11.0955 1C 16.7514 1 21.1925 5.20338 21.1925 10.2189L 23.1925 10.2189C 23.1925 3.94681 17.6976 -1 11.0955 -1L 11.0955 1Z"/>
<path id="path3_stroke" d="M 0.487284 -0.873244C 0.00500496 -1.14236 -0.604124 -0.969563 -0.873244 -0.487284C -1.14236 -0.00500496 -0.969563 0.604124 -0.487284 0.873244L 0.487284 -0.873244ZM 7.85445 0.818187C 8.30632 0.500649 8.41522 -0.123081 8.09769 -0.574953C 7.78015 -1.02682 7.15642 -1.13572 6.70455 -0.818187L 7.85445 0.818187ZM 0 0C -0.487284 0.873244 -0.486942 0.873434 -0.486585 0.873633C -0.486446 0.873711 -0.486072 0.873919 -0.485792 0.874075C -0.485449 0.874265 -0.484606 0.874733 -0.48392 0.875113C -0.482986 0.875631 -0.480917 0.876774 -0.479047 0.877804C -0.476186 0.879377 -0.470533 0.88247 -0.464822 0.885568C -0.455189 0.890787 -0.437916 0.900048 -0.418831 0.910088C -0.384345 0.928199 -0.326741 0.957774 -0.259627 0.990733C -0.133198 1.05267 0.0679945 1.14605 0.30445 1.24343C 0.760161 1.43019 1.45955 1.67224 2.23565 1.82969C 3.79504 2.14112 5.93256 2.16873 7.85445 0.818187L 6.70455 -0.818187C 5.40444 0.0954207 3.90221 0.12303 2.62735 -0.131578C 1.98633 -0.257142 1.46996 -0.439621 1.06421 -0.60664C 0.869927 -0.68614 0.728956 -0.751961 0.620904 -0.805002C 0.570779 -0.829531 0.538063 -0.846389 0.511539 -0.860339C 0.50012 -0.866329 0.494215 -0.869506 0.488297 -0.872716C 0.486233 -0.873833 0.486018 -0.873953 0.484953 -0.874539C 0.484861 -0.874589 0.48535 -0.874319 0.485402 -0.874291C 0.485209 -0.874398 0.486258 -0.873815 0.486163 -0.873868C 0.486319 -0.873781 0.4866 -0.873625 0.486678 -0.873581C 0.486973 -0.873417 0.487284 -0.873244 0 0Z"/>
</defs>
</svg>
