<?xml version="1.0" standalone="no"?>
<!DOCTYPE svg PUBLIC "-//W3C//DTD SVG 1.1//EN" "http://www.w3.org/Graphics/SVG/1.1/DTD/svg11.dtd" >
<svg xmlns="http://www.w3.org/2000/svg" xmlns:xlink="http://www.w3.org/1999/xlink" version="1.1">
<metadata>
Created by FontForge 20161013 at Mon Nov  7 22:46:04 2016
 By ,,,
Copyright (c) 2014 by Colophon Foundry. All rights reserved.
</metadata>
<defs>
<font id="Visuelt-Bold" horiz-adv-x="605" >
  <font-face 
    font-family="Visuelt"
    font-weight="700"
    font-stretch="normal"
    units-per-em="1000"
    panose-1="0 0 8 0 0 0 0 0 0 0"
    ascent="800"
    descent="-200"
    x-height="500"
    cap-height="700"
    bbox="-55 -328 1168 1094"
    underline-thickness="50"
    underline-position="-150"
    unicode-range="U+000D-FB02"
  />
<missing-glyph horiz-adv-x="639" 
d="M570 700v-700h-501v700h501zM178 101h283v498h-283v-498z" />
    <glyph glyph-name="fi" unicode="fi" horiz-adv-x="615" 
d="M101 400h-84v100h84v82q0 79 50 118.5t123 39.5q38 0 71 -10v-109l-7 -4q-22 9 -45 9q-24 0 -38 -13t-14 -39v-74h309v-500h-140v400h-169v-400h-140v400zM537 693q24 -24 24 -57t-24 -57t-57 -24t-57 24t-24 57t24 57t57 24t57 -24z" />
    <glyph glyph-name="fl" unicode="fl" horiz-adv-x="611" 
d="M101 400h-84v100h84v42q0 79 49.5 118.5t124.5 39.5h273v-700h-139v586h-116q-52 0 -52 -52v-34h103v-100h-103v-400h-140v400z" />
    <glyph glyph-name=".notdef" horiz-adv-x="639" 
d="M570 700v-700h-501v700h501zM178 101h283v498h-283v-498z" />
    <glyph glyph-name=".null" horiz-adv-x="294" 
 />
    <glyph glyph-name="nonmarkingreturn" unicode="&#xd;" horiz-adv-x="294" 
 />
    <glyph glyph-name="space" unicode=" " horiz-adv-x="294" 
 />
    <glyph glyph-name="exclam" unicode="!" horiz-adv-x="308" 
d="M73 700h161l-20 -461h-120zM214 145.5q25 -25.5 25 -60.5q0 -34 -25 -59.5t-60 -25.5q-34 0 -59.5 25.5t-25.5 59.5q0 35 25 60.5t60 25.5t60 -25.5z" />
    <glyph glyph-name="quotedbl" unicode="&#x22;" horiz-adv-x="413" 
d="M58 700h119l-14 -258h-92zM236 700h119l-14 -258h-92z" />
    <glyph glyph-name="numbersign" unicode="#" horiz-adv-x="657" 
d="M528 510h115l-17 -99h-114l-23 -127h114l-18 -99h-113l-32 -185h-105l31 185h-135l-31 -185h-106l32 185h-113l19 99h111l22 127h-111l17 99h111l34 190h105l-33 -190h135l33 190h106zM383 284l23 127h-135l-23 -127h135z" />
    <glyph glyph-name="dollar" unicode="$" horiz-adv-x="608" 
d="M352 706q89 -10 142.5 -59t65.5 -129l-8 -11l-129 -14q-3 37 -21.5 61t-49.5 35v-155q115 -23 169 -72t54 -140q0 -95 -62.5 -156t-160.5 -73v-93h-87v93q-100 11 -164.5 71t-72.5 147l8 11l140 21q4 -46 28 -76.5t61 -42.5v204l-14 3q-84 18 -134.5 68t-50.5 125
q0 78 54.5 127t144.5 57v92h87v-94zM265 595q-32 -7 -48.5 -23.5t-16.5 -39.5q0 -24 15 -41.5t50 -31.5v136zM352 122q34 8 53.5 31t19.5 58q0 36 -16.5 57.5t-56.5 35.5v-182z" />
    <glyph glyph-name="percent" unicode="%" horiz-adv-x="828" 
d="M300.5 688q38.5 -22 60 -61.5t21.5 -88.5t-21.5 -88.5t-60 -61.5t-88.5 -22t-88.5 22t-60 61.5t-21.5 88.5t21.5 88.5t60 61.5t88.5 22t88.5 -22zM185 3l-70 57l527 637l70 -57zM154.5 601q-22.5 -22 -22.5 -63t22.5 -63t57.5 -22t58 22.5t23 62.5t-23 62.5t-58 22.5
t-57.5 -22zM704.5 312q38.5 -22 60 -61.5t21.5 -88.5t-21.5 -88.5t-60 -61.5t-88.5 -22t-88.5 22t-60 61.5t-21.5 88.5t21.5 88.5t60 61.5t88.5 22t88.5 -22zM558.5 225q-22.5 -22 -22.5 -63t22.5 -63t57.5 -22t58 22.5t23 62.5t-23 62.5t-58 22.5t-57.5 -22z" />
    <glyph glyph-name="ampersand" unicode="&#x26;" horiz-adv-x="666" 
d="M287 -10q-69 0 -125.5 28t-89 79.5t-32.5 117.5q0 68 35 120.5t98 89.5q-39 63 -39 123q0 47 23 84t63 57.5t89 20.5q50 0 87 -19t56.5 -50t19.5 -66q0 -64 -34 -106t-98 -72l122 -151q10 47 10 99v30h117v-43q0 -107 -43 -189l117 -143h-154l-40 48q-74 -58 -182 -58z
M339.5 514q18.5 22 18.5 50q0 21 -13.5 35t-36.5 14t-38 -16t-15 -44q0 -42 26 -80q40 19 58.5 41zM235 341q-35 -23 -49.5 -51.5t-14.5 -63.5q0 -56 37 -89.5t91 -33.5q63 0 100 33z" />
    <glyph glyph-name="quotesingle" unicode="'" horiz-adv-x="235" 
d="M163 442h-92l-13 258h119z" />
    <glyph glyph-name="parenleft" unicode="(" horiz-adv-x="338" 
d="M219.5 547.5q-34.5 -85.5 -34.5 -197.5t34.5 -197.5t107.5 -168.5l-91 -92q-91 90 -142.5 199.5t-51.5 258.5t51.5 258.5t142.5 199.5l91 -92q-73 -83 -107.5 -168.5z" />
    <glyph glyph-name="parenright" unicode=")" horiz-adv-x="338" 
d="M244.5 609q51.5 -110 51.5 -259t-51.5 -259t-142.5 -199l-91 92q73 83 108 168.5t35 197.5t-35 197.5t-108 168.5l91 92q91 -89 142.5 -199z" />
    <glyph glyph-name="asterisk" unicode="*" horiz-adv-x="439" 
d="M165 700h109l-16 -107l97 48l34 -104l-107 -19l75 -77l-87 -64l-51 95l-50 -95l-88 64l76 77l-108 19l35 104l96 -48z" />
    <glyph glyph-name="plus" unicode="+" horiz-adv-x="485" 
d="M457 416v-112h-159v-159h-112v159h-158v112h158v158h112v-158h159z" />
    <glyph glyph-name="comma" unicode="," horiz-adv-x="255" 
d="M101 -71.5q23 32.5 25 71.5q-35 0 -59 26.5t-24 58.5q0 35 24.5 60.5t60.5 25.5q37 0 61.5 -26t24.5 -66q0 -73 -35.5 -129t-112.5 -109l-25 24q37 31 60 63.5z" />
    <glyph glyph-name="hyphen" unicode="-" horiz-adv-x="425" 
d="M397 288h-369v112h369v-112z" />
    <glyph glyph-name="period" unicode="." horiz-adv-x="255" 
d="M187 145.5q25 -25.5 25 -60.5q0 -34 -25 -59.5t-60 -25.5q-34 0 -59.5 25.5t-25.5 59.5q0 35 25 60.5t60 25.5t60 -25.5z" />
    <glyph glyph-name="slash" unicode="/" horiz-adv-x="530" 
d="M146 0h-142l380 700h142z" />
    <glyph glyph-name="zero" unicode="0" horiz-adv-x="694" 
d="M613 160.5q-38 -81.5 -106.5 -126t-159.5 -44.5t-159.5 44.5t-106.5 126t-38 189.5t38 189.5t106.5 126t159.5 44.5t159.5 -44.5t106.5 -126t38 -189.5t-38 -189.5zM466 518.5q-42 59.5 -119 59.5t-119 -59.5t-42 -168.5t42 -168.5t119 -59.5t119 59.5t42 168.5
t-42 168.5z" />
    <glyph glyph-name="one" unicode="1" horiz-adv-x="382" 
d="M134 631.5q31 21.5 37 68.5h142v-700h-142v525q-23 -20 -54.5 -28t-83.5 -8v121h13q57 0 88 21.5z" />
    <glyph glyph-name="two" unicode="2" horiz-adv-x="561" 
d="M311 369q34 31 52 61t18 66q0 39 -27.5 64.5t-72.5 25.5q-47 0 -77 -32t-32 -85l-133 18l-8 14q7 56 39 104t86 76.5t123 28.5q71 0 126.5 -25.5t86 -72.5t30.5 -109q0 -64 -29 -114t-87 -101l-176 -156h302v-132h-500v119z" />
    <glyph glyph-name="three" unicode="3" horiz-adv-x="607" 
d="M394 470q79 -28 126 -79.5t47 -141.5q0 -73 -34.5 -132t-95 -93t-135.5 -34q-80 0 -141 31.5t-95.5 86t-39.5 122.5l11 8l122 18q5 -64 43 -103t98 -39q57 0 90.5 35.5t33.5 98.5q0 60 -43 94.5t-107 34.5h-36v103l113 100h-299v120h478v-116z" />
    <glyph glyph-name="four" unicode="4" horiz-adv-x="607" 
d="M363 700h136v-447h84v-132h-84v-121h-142v121h-326v132zM357 253v233l-171 -233h171z" />
    <glyph glyph-name="five" unicode="5" horiz-adv-x="607" 
d="M90 700h428v-116h-319l-25 -127q68 38 147 38q76 0 132.5 -29.5t87 -85t30.5 -129.5q0 -73 -33 -132.5t-95 -94t-146 -34.5q-71 0 -129.5 27t-95.5 75t-45 110l8 18l131 20q7 -53 40.5 -89.5t90.5 -36.5q62 0 96.5 34.5t34.5 98.5q0 62 -37.5 96.5t-97.5 34.5
q-44 0 -82 -14.5t-67 -36.5l-100 50z" />
    <glyph glyph-name="six" unicode="6" horiz-adv-x="608" 
d="M478.5 664.5q59.5 -45.5 77.5 -125.5l-7 -15l-116 -22q-29 87 -110 87q-59 0 -99 -49.5t-42 -133.5q61 57 157 57q67 0 121 -28t85 -80t31 -120q0 -69 -34 -125t-95 -88t-138 -32q-56 0 -111.5 26t-90.5 70q-36 44 -53 103.5t-17 137.5q0 114 36 201t101.5 134.5
t151.5 47.5q93 0 152.5 -45.5zM405.5 143q33.5 37 33.5 89t-33.5 89t-91.5 37t-91.5 -37t-33.5 -89q0 -54 33.5 -90t91.5 -36t91.5 37z" />
    <glyph glyph-name="seven" unicode="7" horiz-adv-x="523" 
d="M240 0h-152l250 574h-314v126h472v-103z" />
    <glyph glyph-name="eight" unicode="8" horiz-adv-x="581" 
d="M68.5 316.5q28.5 47.5 75.5 73.5q-32 24 -50 60t-18 77q0 52 27 94t76 65.5t112 23.5t111.5 -23.5t75.5 -65.5t27 -94q0 -41 -18 -77t-50 -60q47 -26 75.5 -73.5t28.5 -105.5q0 -63 -30.5 -113t-87 -79t-132.5 -29t-133 29t-87.5 79t-30.5 113q0 58 28.5 105.5z
M356 460.5q25 23.5 25 61.5t-25 61.5t-65 23.5t-65.5 -24t-25.5 -61q0 -38 25.5 -61.5t65.5 -23.5t65 23.5zM373.5 138q32.5 32 32.5 81q0 48 -33 80t-82 32t-82.5 -32t-33.5 -80q0 -49 33 -81t83 -32t82.5 32z" />
    <glyph glyph-name="nine" unicode="9" horiz-adv-x="608" 
d="M412.5 684.5q52.5 -25.5 88.5 -70.5q36 -44 52.5 -103t16.5 -138q0 -115 -34 -201.5t-98.5 -134t-151.5 -47.5q-95 0 -155.5 45.5t-78.5 125.5l7 15l116 22q29 -87 110 -87q59 0 99 49.5t42 133.5q-60 -57 -157 -57q-67 0 -121 28t-85 80t-31 120q0 69 34 125t95 88
t138 32q61 0 113.5 -25.5zM202 557q-34 -37 -34 -89t34 -89t92 -37t91.5 37t33.5 89q0 54 -33.5 90t-91.5 36t-92 -37z" />
    <glyph glyph-name="colon" unicode=":" horiz-adv-x="255" 
d="M187 485q25 -25 25 -60t-25 -60.5t-60 -25.5t-60 25.5t-25 60.5t25.5 60t59.5 25q35 0 60 -25zM187 145.5q25 -25.5 25 -60.5q0 -34 -25 -59.5t-60 -25.5q-34 0 -59.5 25.5t-25.5 59.5q0 35 25 60.5t60 25.5t60 -25.5z" />
    <glyph glyph-name="semicolon" unicode=";" horiz-adv-x="255" 
d="M188.5 485q25.5 -25 25.5 -60t-25.5 -60.5t-60.5 -25.5t-60 25.5t-25 60.5t25.5 60t59.5 25q35 0 60.5 -25zM41 -135q76 62 80 136q-33 2 -55.5 27t-22.5 57q0 35 25 60.5t60 25.5q36 0 61 -26.5t25 -65.5q0 -73 -36 -130t-112 -108z" />
    <glyph glyph-name="less" unicode="&#x3c;" horiz-adv-x="501" 
d="M448 567v-138l-239 -129l239 -129v-138l-387 214v106z" />
    <glyph glyph-name="equal" unicode="=" horiz-adv-x="485" 
d="M457 403h-429v112h429v-112zM457 205h-429v112h429v-112z" />
    <glyph glyph-name="greater" unicode="&#x3e;" horiz-adv-x="501" 
d="M61 33v138l238 129l-238 129v138l387 -214v-106z" />
    <glyph glyph-name="question" unicode="?" horiz-adv-x="499" 
d="M28 517l-9 13q6 51 37.5 92.5t81 64.5t108.5 23q110 0 167.5 -47.5t57.5 -124.5q0 -53 -25 -93.5t-76 -76.5q-34 -24 -50.5 -47t-18.5 -56l-1 -26h-110l-1 17l-1 18q0 43 12 73t31 49.5t51 44.5q32 24 44 43t12 46q0 28 -24.5 47.5t-66.5 19.5q-45 0 -74 -28t-31 -69z
M305 145.5q25 -25.5 25 -60.5q0 -34 -25 -59.5t-60 -25.5q-34 0 -59.5 25.5t-25.5 59.5q0 35 25 60.5t60 25.5t60 -25.5z" />
    <glyph glyph-name="at" unicode="@" horiz-adv-x="766" 
d="M235.5 -164q-87.5 46 -144.5 149.5t-57 264.5q0 144 52 248t139 158t191 54q96 0 164 -32t103.5 -91t35.5 -137v-450h-114v50q-27 -27 -65.5 -43.5t-87.5 -16.5q-67 0 -121 30t-85.5 89t-31.5 141t33.5 140.5t88.5 89t120 30.5q47 0 85.5 -14t63.5 -38q0 41 -21.5 75
t-64 54t-103.5 20q-65 0 -125.5 -35t-100.5 -115t-40 -207q0 -122 39 -202.5t101 -117.5t134 -37q52 0 88.5 13.5t66.5 45.5l100 -27l2 -11q-42 -64 -103 -94t-158 -30t-184.5 46zM370.5 131q39.5 -38 101.5 -38q36 0 66.5 16t48.5 43t18 59v77q0 32 -18 59t-48.5 43.5
t-66.5 16.5q-62 0 -101.5 -38t-39.5 -119t39.5 -119z" />
    <glyph glyph-name="A" unicode="A" horiz-adv-x="676" 
d="M269 700h138l267 -700h-160l-42 118h-268l-41 -118h-161zM426 249l-75 214l-10 76h-6l-10 -76l-75 -214h176z" />
    <glyph glyph-name="B" unicode="B" horiz-adv-x="674" 
d="M603.5 309.5q32.5 -41.5 32.5 -102.5t-30.5 -108t-88 -73t-136.5 -26h-312v700h304q67 0 118 -23t79 -63.5t28 -90.5q0 -53 -20 -86.5t-60 -58.5v-7q53 -20 85.5 -61.5zM367 418q95 0 95 82t-95 82h-152v-164h152zM390 128q54 0 80 20.5t26 66.5t-26 66.5t-80 20.5h-175
v-174h175z" />
    <glyph glyph-name="C" unicode="C" horiz-adv-x="753" 
d="M515 159q46 33 64 93l136 -18l9 -14q-34 -111 -118 -170.5t-204 -59.5q-98 0 -180.5 45t-131 126.5t-48.5 188.5t48.5 188.5t131 126.5t180.5 45q86 0 153.5 -29t110.5 -81t58 -120l-8 -14l-137 -18q-17 60 -64 93t-116 33q-62 0 -108 -28.5t-70.5 -79.5t-24.5 -116
q0 -66 25 -116.5t72 -79t110 -28.5q66 0 112 33z" />
    <glyph glyph-name="D" unicode="D" horiz-adv-x="734" 
d="M69 0v700h249q114 0 198 -41.5t129.5 -120.5t45.5 -188t-45.5 -188t-129.5 -120.5t-198 -41.5h-249zM222 564v-428h91q110 0 167.5 53.5t57.5 160.5t-57.5 160.5t-167.5 53.5h-91z" />
    <glyph glyph-name="E" unicode="E" horiz-adv-x="586" 
d="M222 415h284v-130h-284v-151h322v-134h-475v700h464v-130h-311v-155z" />
    <glyph glyph-name="F" unicode="F" horiz-adv-x="585" 
d="M222 408h297v-136h-297v-272h-153v700h476v-130h-323v-162z" />
    <glyph glyph-name="G" unicode="G" horiz-adv-x="778" 
d="M728 379v-51q0 -99 -39.5 -175.5t-113 -119.5t-171.5 -43q-100 0 -183 46.5t-131 128.5t-48 185t48.5 185t131.5 128.5t182 46.5q120 0 204.5 -59t112.5 -166l-8 -13l-137 -19q-18 61 -62 93t-113 32q-60 0 -106.5 -29t-72.5 -81t-26 -118q0 -67 25.5 -118t73 -79.5
t111.5 -28.5q74 0 119 37t58 106h-248v112h393z" />
    <glyph glyph-name="H" unicode="H" horiz-adv-x="711" 
d="M222 418h267v282h153v-700h-153v282h-267v-282h-153v700h153v-282z" />
    <glyph glyph-name="I" unicode="I" horiz-adv-x="291" 
d="M222 0h-153v700h153v-700z" />
    <glyph glyph-name="J" unicode="J" horiz-adv-x="571" 
d="M265 114q87 0 87 110v476h153v-471q0 -113 -64 -176t-176 -63q-72 0 -124 28.5t-80.5 76.5t-31.5 105l9 12l134 18q1 -116 93 -116z" />
    <glyph glyph-name="K" unicode="K" horiz-adv-x="656" 
d="M646 0h-190l-229 313h-5v-313h-153v700h153v-282h5l232 282h175l-271 -327z" />
    <glyph glyph-name="L" unicode="L" horiz-adv-x="598" 
d="M222 700v-564h340v-136h-493v700h153z" />
    <glyph glyph-name="M" unicode="M" horiz-adv-x="866" 
d="M626 320l-129 -320h-129l-128 320l-11 85h-7v-405h-153v700h156l208 -512l207 512h157v-700h-153v405h-7z" />
    <glyph glyph-name="N" unicode="N" horiz-adv-x="732" 
d="M510 700h153v-700h-165l-257 426l-12 57h-7v-483h-153v700h165l257 -426l12 -57h7v483z" />
    <glyph glyph-name="O" unicode="O" horiz-adv-x="802" 
d="M713.5 162.5q-46.5 -81.5 -128.5 -127t-184 -45.5t-184 45.5t-128.5 127t-46.5 187.5t46.5 187.5t128.5 127t184 45.5t184 -45.5t128.5 -127t46.5 -187.5t-46.5 -187.5zM580.5 466.5q-25.5 50.5 -72 79t-107.5 28.5q-62 0 -108.5 -28.5t-71.5 -79t-25 -116.5t25 -116.5
t71.5 -79t108.5 -28.5q61 0 107.5 28.5t72 79t25.5 116.5t-25.5 116.5z" />
    <glyph glyph-name="P" unicode="P" horiz-adv-x="661" 
d="M493.5 671.5q62.5 -28.5 97 -82.5t34.5 -129q0 -74 -34.5 -128t-97 -82.5t-144.5 -28.5h-127v-221h-153v700h280q82 0 144.5 -28.5zM340 351q132 0 132 109q0 57 -33.5 83.5t-98.5 26.5h-118v-219h118z" />
    <glyph glyph-name="Q" unicode="Q" horiz-adv-x="802" 
d="M725 188q-35 -75 -97 -125t-138 -63v-8q16 -27 50.5 -45t79.5 -24l-1 -13l-44 -98q-53 6 -102.5 32t-84 65.5t-44.5 84.5q-88 12 -156.5 59.5t-107 124t-38.5 172.5q0 106 46.5 187.5t128.5 127t184 45.5t184 -45.5t128.5 -127t46.5 -187.5q0 -87 -35 -162zM580.5 466.5
q-25.5 50.5 -72 79t-107.5 28.5q-62 0 -108.5 -28.5t-71.5 -79t-25 -116.5t25 -116.5t71.5 -79t108.5 -28.5q61 0 107.5 28.5t72 79t25.5 116.5t-25.5 116.5z" />
    <glyph glyph-name="R" unicode="R" horiz-adv-x="654" 
d="M222 241v-241h-153v700h265q123 0 196 -61.5t73 -170.5q0 -127 -115 -197v-11l151 -260h-171l-137 241h-109zM337 362q57 0 89 29t32 79q0 51 -32 80t-89 29h-115v-217h115z" />
    <glyph glyph-name="S" unicode="S" 
d="M230 483q36 -20 127 -40q109 -25 163.5 -78t54.5 -143q0 -70 -35.5 -122.5t-96.5 -81t-136 -28.5q-77 0 -138 28t-98 78t-43 115l8 11l139 21q6 -60 43.5 -93.5t92.5 -33.5q50 0 81.5 25.5t31.5 69.5q0 35 -14.5 57t-49.5 38t-97 29q-95 19 -151.5 67t-56.5 126
q0 55 30.5 96t84 63.5t120.5 22.5q112 0 176.5 -52t77.5 -140l-9 -11l-129 -14q-6 49 -37.5 77.5t-83.5 28.5q-40 0 -65.5 -17.5t-25.5 -44.5q0 -34 36 -54z" />
    <glyph glyph-name="T" unicode="T" horiz-adv-x="552" 
d="M200 0v564h-176v136h505v-136h-176v-564h-153z" />
    <glyph glyph-name="U" unicode="U" horiz-adv-x="701" 
d="M218 275q0 -73 34 -111t99 -38q64 0 98 38t34 111v425h153v-426q0 -85 -33.5 -149t-98 -99.5t-153.5 -35.5t-153.5 35.5t-98.5 99.5t-34 149v426h153v-425z" />
    <glyph glyph-name="V" unicode="V" horiz-adv-x="662" 
d="M314 267l14 -86h6l14 86l141 433h167l-245 -700h-160l-245 700h167z" />
    <glyph glyph-name="W" unicode="W" horiz-adv-x="1010" 
d="M281 287l13 -93h6l14 93l119 413h144l120 -413l13 -93h6l14 93l107 413h162l-203 -700h-157l-134 495l-134 -495h-157l-203 700h162z" />
    <glyph glyph-name="X" unicode="X" horiz-adv-x="652" 
d="M326 504l106 196h166l-186 -318l231 -382h-169l-148 254l-147 -254h-170l232 382l-186 318h165z" />
    <glyph glyph-name="Y" unicode="Y" 
d="M288 453l11 -84h7l11 84l114 247h163l-215 -456v-244h-153v244l-215 456h163z" />
    <glyph glyph-name="Z" unicode="Z" horiz-adv-x="618" 
d="M58 571v129h502v-109l-352 -462h364v-129h-532v129l338 442h-320z" />
    <glyph glyph-name="bracketleft" unicode="[" horiz-adv-x="328" 
d="M306 700v-120h-105v-660h105v-120h-240v900h240z" />
    <glyph glyph-name="backslash" unicode="\" horiz-adv-x="530" 
d="M526 0h-142l-380 700h142z" />
    <glyph glyph-name="bracketright" unicode="]" horiz-adv-x="328" 
d="M23 -200v120h105v660h-105v120h240v-900h-240z" />
    <glyph glyph-name="asciicircum" unicode="^" horiz-adv-x="540" 
d="M526 401h-150l-106 176l-106 -176h-150l197 299h117z" />
    <glyph glyph-name="underscore" unicode="_" horiz-adv-x="515" 
d="M493 -122h-471v112h471v-112z" />
    <glyph glyph-name="grave" unicode="`" horiz-adv-x="272" 
d="M138 561l-117 146h151l78 -146h-112z" />
    <glyph glyph-name="a" unicode="a" horiz-adv-x="572" 
d="M128.5 8.5q-36.5 18.5 -58 53t-21.5 80.5q0 68 46.5 109.5t129.5 49.5l135 14v22q0 34 -21.5 53t-60.5 19q-35 0 -56.5 -18.5t-25.5 -50.5l-118 10l-5 6q15 75 70.5 114.5t136.5 39.5q95 0 154 -47.5t59 -133.5v-179q0 -47 36 -47q11 0 19 3l5 -6v-96q-31 -10 -69 -10
q-81 0 -113 68h-6q-33 -35 -70 -53.5t-87 -18.5q-43 0 -79.5 18.5zM360 169v58l-110 -14q-35 -4 -53.5 -21t-18.5 -42t17 -39.5t45 -14.5q67 0 120 73z" />
    <glyph glyph-name="b" unicode="b" horiz-adv-x="638" 
d="M203 452q67 58 157 58q63 0 117.5 -29t87.5 -88t33 -143t-34.5 -142.5t-88.5 -88t-112 -29.5q-98 0 -160 64v-54h-140v730h140v-278zM203 226q0 -54 36 -87t86 -33q58 0 94.5 38t36.5 106t-36 106t-93 38q-53 0 -88.5 -33t-35.5 -87v-48z" />
    <glyph glyph-name="c" unicode="c" horiz-adv-x="587" 
d="M380 133.5q29 22.5 43 64.5l117 -12l7 -9q-23 -90 -86 -138.5t-159 -48.5q-72 0 -132 33t-95 92.5t-35 134.5t35 134.5t95 92.5t132 33q99 0 164 -50t81 -136l-7 -10l-117 -12q-9 40 -40 63.5t-80 23.5q-56 0 -91.5 -36.5t-35.5 -102.5t35.5 -102.5t91.5 -36.5
q48 0 77 22.5z" />
    <glyph glyph-name="d" unicode="d" horiz-adv-x="638" 
d="M575 0h-139v52q-60 -62 -155 -62q-59 0 -114.5 29.5t-91 88.5t-35.5 142q0 84 35 142.5t92 88t122 29.5q82 0 147 -51v271h139v-730zM218.5 144q36.5 -38 94.5 -38q52 0 87.5 32.5t35.5 87.5v48q0 54 -35.5 87t-88.5 33q-58 0 -94 -38t-36 -106t36.5 -106z" />
    <glyph glyph-name="e" unicode="e" horiz-adv-x="595" 
d="M172 216q5 -52 40 -82.5t88 -30.5q86 0 114 77l118 -12l6 -12q-27 -83 -88.5 -124.5t-152.5 -41.5q-74 0 -132.5 32.5t-91.5 91.5t-33 136q0 76 35.5 135t94.5 92t127 33q74 0 131.5 -31t89 -89t31.5 -137v-37h-377zM416 306q-5 45 -38 72t-82 27q-44 0 -77 -27t-43 -72
h240z" />
    <glyph glyph-name="f" unicode="f" horiz-adv-x="371" 
d="M101 400h-84v100h84v82q0 79 50 118.5t123 39.5q38 0 71 -10v-108l-7 -5q-22 9 -45 9q-24 0 -38 -13t-14 -39v-74h103v-100h-103v-400h-140v400z" />
    <glyph glyph-name="g" unicode="g" horiz-adv-x="610" 
d="M489.5 -149.5q-65.5 -60.5 -187.5 -60.5q-106 0 -162.5 42t-72.5 109l10 11l128 14q18 -65 96 -65q59 0 90 30t31 84v36q-31 -27 -62.5 -39t-78.5 -12q-65 0 -120 31t-88 89t-33 135t33.5 135t89 89t118.5 31q83 0 141 -54v44h133v-480q0 -109 -65.5 -169.5zM422 281
q0 53 -34.5 85t-85.5 32q-56 0 -92.5 -35t-36.5 -108t36.5 -108t92.5 -35q54 0 87 32t33 84v53z" />
    <glyph glyph-name="h" unicode="h" horiz-adv-x="620" 
d="M206 438q30 32 76 52t97 20q81 0 131 -47t50 -127v-336h-140v301q0 44 -24.5 66.5t-63.5 22.5q-37 0 -70 -18.5t-56 -52.5v-319h-140v730h140v-292z" />
    <glyph glyph-name="i" unicode="i" horiz-adv-x="269" 
d="M192 693q24 -24 24 -57t-24 -57t-57 -24q-34 0 -58 24t-24 57t24 57t58 24q33 0 57 -24zM204 0h-139v500h139v-500z" />
    <glyph glyph-name="j" unicode="j" horiz-adv-x="269" 
d="M192 693q24 -24 24 -57t-24 -57t-57 -24q-34 0 -58 24t-24 57t24 57t58 24q33 0 57 -24zM204 500v-554q0 -78 -42.5 -117t-111.5 -39q-47 0 -85 10v119l10 5q26 -8 44 -8q46 0 46 51v533h139z" />
    <glyph glyph-name="k" unicode="k" horiz-adv-x="538" 
d="M209 210h-7v-210h-139v730h139v-393h7l142 163h165l-191 -219l202 -281h-165z" />
    <glyph glyph-name="l" unicode="l" horiz-adv-x="265" 
d="M202 0h-139v730h139v-730z" />
    <glyph glyph-name="m" unicode="m" horiz-adv-x="860" 
d="M203 441q59 69 148 69t125 -70q67 70 160 70q77 0 119 -43t42 -118v-349h-140v318q0 72 -64 72q-58 0 -94 -63v-327h-140v317q0 73 -62 73q-29 0 -54 -19t-40 -49v-322h-140v500h140v-59z" />
    <glyph glyph-name="n" unicode="n" 
d="M203 435q71 75 166 75q81 0 127 -47t46 -121v-342h-140v301q0 44 -20.5 66.5t-60.5 22.5q-35 0 -67 -21.5t-51 -53.5v-315h-140v500h140v-65z" />
    <glyph glyph-name="o" unicode="o" horiz-adv-x="625" 
d="M453 476q62 -34 97 -93t35 -133t-35 -133t-97 -93t-140 -34q-79 0 -141 34t-97 93t-35 133t35 133t97 93t141 34q78 0 140 -34zM217.5 351.5q-37.5 -37.5 -37.5 -101.5t37.5 -101.5t95.5 -37.5t95 37.5t37 101.5t-37 101.5t-95 37.5t-95.5 -37.5z" />
    <glyph glyph-name="p" unicode="p" horiz-adv-x="635" 
d="M60 500h139v-54q64 64 161 64q58 0 112 -29.5t88.5 -88t34.5 -142.5t-36 -142.5t-93.5 -88t-121.5 -29.5q-42 0 -80 14t-65 37v-241h-139v700zM416.5 356q-36.5 38 -94.5 38q-52 0 -87.5 -32.5t-35.5 -87.5v-48q0 -54 35.5 -87t88.5 -33q58 0 94 38t36 106t-36.5 106z
" />
    <glyph glyph-name="q" unicode="q" horiz-adv-x="635" 
d="M436 41q-65 -51 -149 -51q-65 0 -121 29t-91 88t-35 143q0 83 35.5 142t90.5 88.5t113 29.5q53 0 92.5 -17t64.5 -45v52h139v-700h-139v241zM436 274q0 55 -35.5 87.5t-87.5 32.5q-58 0 -94.5 -38t-36.5 -106t36 -106t94 -38q53 0 88.5 33t35.5 87v48z" />
    <glyph glyph-name="r" unicode="r" horiz-adv-x="404" 
d="M203 440q27 32 62 51t77 19q30 0 48 -8l-18 -110l-7 -7q-20 5 -34 5q-41 0 -74 -23t-54 -67v-300h-140v500h140v-60z" />
    <glyph glyph-name="s" unicode="s" horiz-adv-x="476" 
d="M278.5 394.5q-22.5 18.5 -55.5 18.5q-25 0 -42.5 -10.5t-17.5 -28.5q0 -22 28 -36t103 -34q77 -21 113 -55.5t36 -93.5q0 -47 -24.5 -84.5t-70 -59t-105.5 -21.5q-88 0 -143.5 38.5t-75.5 108.5l4 13l107 32q18 -84 109 -84q31 0 50.5 13t19.5 36q0 24 -22.5 37.5
t-87.5 30.5q-79 19 -119 55.5t-40 96.5q0 40 22.5 72.5t63.5 51.5t94 19q80 0 130 -34.5t65 -97.5l-5 -11l-107 -26q-7 35 -29.5 53.5z" />
    <glyph glyph-name="t" unicode="t" horiz-adv-x="370" 
d="M242 500h106v-100h-106v-246q0 -24 14 -37t40 -13q16 0 40 7l7 -4v-107q-43 -10 -88 -10q-70 0 -111 38t-41 114v258h-89v100h89v143h18l121 -42v-101z" />
    <glyph glyph-name="u" unicode="u" 
d="M402 62q-67 -72 -163 -72q-82 0 -129 49t-47 131v330h140v-301q0 -43 22 -66t62 -23q36 0 66 20.5t49 54.5v315h140v-500h-140v62z" />
    <glyph glyph-name="v" unicode="v" horiz-adv-x="566" 
d="M267 225l13 -89h6l13 89l101 275h152l-192 -500h-155l-191 500h152z" />
    <glyph glyph-name="w" unicode="w" horiz-adv-x="783" 
d="M456 500l77 -255l12 -80h5l11 80l70 255h143l-149 -500h-147l-86 328l-86 -328h-147l-150 500h144l70 -255l11 -80h4l12 80l78 255h128z" />
    <glyph glyph-name="x" unicode="x" horiz-adv-x="526" 
d="M346 273l172 -273h-158l-97 162l-97 -162h-157l171 273l-155 227h161l77 -121l77 121h161z" />
    <glyph glyph-name="y" unicode="y" horiz-adv-x="566" 
d="M562 500l-284 -700h-146l86 213l-206 487h164l102 -249l5 -65h8l123 314h148z" />
    <glyph glyph-name="z" unicode="z" horiz-adv-x="458" 
d="M37 387v113h391v-95l-242 -292h242v-113h-403v99l242 288h-230z" />
    <glyph glyph-name="braceleft" unicode="{" horiz-adv-x="417" 
d="M34 310q42 0 60.5 19t18.5 70v144q0 157 151 157h68v-120h-22q-62 0 -62 -70v-154q0 -82 -68 -106q68 -24 68 -106v-154q0 -70 62 -70h22v-120h-68q-151 0 -151 157v144q0 51 -18.5 70t-60.5 19h-19v120h19z" />
    <glyph glyph-name="bar" unicode="|" horiz-adv-x="238" 
d="M184 -120h-130v820h130v-820z" />
    <glyph glyph-name="braceright" unicode="}" horiz-adv-x="417" 
d="M383 190q-42 0 -60.5 -19t-18.5 -70v-144q0 -157 -151 -157h-68v120h22q62 0 62 70v154q0 83 68 106q-68 23 -68 106v154q0 70 -62 70h-22v120h68q151 0 151 -157v-144q0 -51 18.5 -70t60.5 -19h19v-120h-19z" />
    <glyph glyph-name="asciitilde" unicode="~" horiz-adv-x="458" 
d="M401 301.5q-34 -38.5 -88 -38.5q-30 0 -53 8.5t-47 22.5q-16 10 -28.5 15t-26.5 5q-35 0 -38 -43h-95q1 68 35 106.5t88 38.5q30 0 52.5 -8t46.5 -23q21 -11 32 -15.5t24 -4.5q35 0 38 43h95q-1 -68 -35 -106.5z" />
    <glyph glyph-name="uni00A0" unicode="&#xa0;" horiz-adv-x="294" 
 />
    <glyph glyph-name="exclamdown" unicode="&#xa1;" horiz-adv-x="308" 
d="M94 354.5q-25 25.5 -25 60.5t25.5 60t59.5 25q35 0 60 -25t25 -60t-25 -60.5t-60 -25.5t-60 25.5zM235 -200h-161l20 461h120z" />
    <glyph glyph-name="cent" unicode="&#xa2;" horiz-adv-x="587" 
d="M347 507q81 -11 133.5 -59.5t66.5 -123.5l-7 -10l-117 -12q-16 61 -76 79v-263q55 16 76 80l117 -12l7 -9q-19 -79 -70.5 -126t-129.5 -58v-93h-86v93q-63 9 -113.5 44t-79 90t-28.5 123t28.5 123t79 90t113.5 44v103h86v-103zM261 382q-39 -12 -62 -46t-23 -86t23 -86.5
t62 -46.5v265z" />
    <glyph glyph-name="sterling" unicode="&#xa3;" horiz-adv-x="572" 
d="M205.5 558.5q-29.5 -26.5 -29.5 -69.5q0 -25 9 -47.5t26 -53.5h218v-112h-177q2 -8 2 -23q0 -70 -48 -124h318v-129h-482v111q40 32 59.5 62.5t19.5 72.5q0 7 -1 16t-2 14h-92v112h50q-15 32 -23 58t-8 57q0 62 32 109t85.5 72.5t117.5 25.5q110 0 178 -51t77 -151
l-10 -13l-121 -13q-6 50 -40.5 76.5t-82.5 26.5q-46 0 -75.5 -26.5z" />
    <glyph glyph-name="currency" unicode="&#xa4;" horiz-adv-x="604" 
d="M467 203l69 -69l-68 -68l-69 69q-42 -24 -97 -24t-97 24l-69 -69l-68 68l69 69q-24 42 -24 97t24 97l-69 69l68 68l69 -69q42 24 97 24t97 -24l69 69l68 -68l-69 -69q24 -42 24 -97t-24 -97zM235.5 229.5q26.5 -25.5 66.5 -25.5t66.5 25.5t26.5 70.5t-26.5 70.5
t-66.5 25.5t-66.5 -25.5t-26.5 -70.5t26.5 -70.5z" />
    <glyph glyph-name="yen" unicode="&#xa5;" 
d="M288 456l11 -70h7l11 70l128 244h163l-175 -314h78v-100h-132v-44h132v-100h-132v-142h-153v142h-132v100h132v44h-132v100h77l-174 314h163z" />
    <glyph glyph-name="brokenbar" unicode="&#xa6;" horiz-adv-x="238" 
d="M54 700h130v-352h-130v352zM184 -120h-130v352h130v-352z" />
    <glyph glyph-name="section" unicode="&#xa7;" 
d="M360 -1q-14 15 -47.5 26.5t-95.5 22.5q-91 18 -144 70.5t-53 130.5q0 60 31.5 104.5t81.5 66.5q-62 44 -62 118q0 50 30 89.5t79.5 61t106.5 21.5q106 0 165.5 -47.5t69.5 -126.5l-8 -12l-120 -13q-4 43 -31.5 65.5t-72.5 22.5q-39 0 -62 -16t-23 -44q0 -31 33.5 -50.5
t123.5 -36.5q95 -20 146 -71t51 -130q0 -59 -32.5 -103.5t-81.5 -67.5q63 -45 63 -119q0 -50 -30 -89t-79.5 -60.5t-106.5 -21.5q-107 0 -166 47.5t-70 126.5l9 12l119 13q4 -43 32 -65.5t72 -22.5q40 0 63 16t23 44q0 23 -14 38zM378.5 324q-41.5 30 -107.5 30
q-47 0 -80 -25t-33 -71q0 -51 41 -81.5t108 -30.5q47 0 80 25.5t33 72.5q0 50 -41.5 80z" />
    <glyph glyph-name="dieresis" unicode="&#xa8;" horiz-adv-x="398" 
d="M57 683.5q21 20.5 49 20.5q29 0 49.5 -20.5t20.5 -49.5q0 -28 -20.5 -49t-49.5 -21q-28 0 -49 21t-21 49q0 29 21 49.5zM243 683.5q21 20.5 49 20.5t49 -21t21 -49t-21 -49t-49 -21t-49 21t-21 49q0 29 21 49.5z" />
    <glyph glyph-name="copyright" unicode="&#xa9;" horiz-adv-x="792" 
d="M578.5 661.5q82.5 -48.5 130 -131t47.5 -180.5t-47.5 -180.5t-130 -131t-182.5 -48.5t-182.5 48.5t-130 131t-47.5 180.5t47.5 180.5t130 131t182.5 48.5t182.5 -48.5zM541 97.5q66 39.5 104.5 106.5t38.5 146t-38.5 146t-104.5 106.5t-145 39.5t-145 -39.5
t-104.5 -106.5t-38.5 -146t38.5 -146t104.5 -106.5t145 -39.5t145 39.5zM303 247q37 -38 94 -38q48 0 76.5 22t43.5 65l56 -9l5 -8q-42 -133 -182 -133q-56 0 -101.5 25.5t-71.5 72t-26 106.5t26 106.5t71.5 72t101.5 25.5q72 0 122 -36.5t61 -97.5l-5 -7l-58 -7
q-12 41 -42.5 63t-76.5 22q-57 0 -94 -38t-37 -103t37 -103z" />
    <glyph glyph-name="ordfeminine" unicode="&#xaa;" horiz-adv-x="455" 
d="M79 506.5q37 32.5 102 38.5l106 11v17q0 28 -17 42.5t-47 14.5q-28 0 -44.5 -14.5t-20.5 -39.5l-92 8l-5 5q13 58 56.5 89.5t107.5 31.5q74 0 121 -37.5t47 -105.5v-140q0 -38 28 -38q4 0 15 3l4 -9v-72q-27 -8 -55 -8q-29 0 -52.5 13t-36.5 41h-5q-26 -28 -54.5 -42.5
t-69.5 -14.5q-52 0 -88.5 33t-36.5 87t37 86.5zM287 442v45l-86 -11q-28 -4 -42.5 -17t-14.5 -32q0 -20 13.5 -31.5t34.5 -11.5q54 0 95 58z" />
    <glyph glyph-name="guillemotleft" unicode="&#xab;" horiz-adv-x="514" 
d="M155 507h122l-95 -227l95 -227h-122l-107 227zM346 507h122l-94 -227l94 -227h-122l-107 227z" />
    <glyph glyph-name="logicalnot" unicode="&#xac;" horiz-adv-x="428" 
d="M383 183h-117v124h-249v102h366v-226z" />
    <glyph glyph-name="registered" unicode="&#xae;" horiz-adv-x="792" 
d="M578.5 661.5q82.5 -48.5 130 -131t47.5 -180.5t-47.5 -180.5t-130 -131t-182.5 -48.5t-182.5 48.5t-130 131t-47.5 180.5t47.5 180.5t130 131t182.5 48.5t182.5 -48.5zM541 97.5q66 39.5 104.5 106.5t38.5 146t-38.5 146t-104.5 106.5t-145 39.5t-145 -39.5
t-104.5 -106.5t-38.5 -146t38.5 -146t104.5 -106.5t145 -39.5t145 39.5zM505 519q39 -35 39 -96q0 -39 -18 -66.5t-54 -48.5v-5l80 -157h-70l-74 148h-80v-148h-64v408h129q73 0 112 -35zM395 352q40 0 62 18t22 54q0 72 -84 72h-67v-144h67z" />
    <glyph glyph-name="macron" unicode="&#xaf;" horiz-adv-x="330" 
d="M295 585h-260v94h260v-94z" />
    <glyph glyph-name="degree" unicode="&#xb0;" horiz-adv-x="345" 
d="M268 671q39 -39 39 -96q0 -37 -18 -67.5t-49 -48.5t-68 -18t-67.5 18t-48.5 48.5t-18 67.5t18 68t48.5 49t67.5 18q57 0 96 -39zM211 536.5q17 16.5 17 38.5q0 23 -16.5 39.5t-39.5 16.5q-22 0 -38.5 -17t-16.5 -39t16.5 -38.5t38.5 -16.5t39 16.5z" />
    <glyph glyph-name="plusminus" unicode="&#xb1;" horiz-adv-x="485" 
d="M457 449v-112h-159v-159h-112v159h-158v112h158v158h112v-158h159zM457 0h-429v112h429v-112z" />
    <glyph glyph-name="uni00B2" unicode="&#xb2;" horiz-adv-x="336" 
d="M180 530q16 15 23.5 28.5t7.5 29.5q0 19 -12.5 29.5t-32.5 10.5q-22 0 -35 -15t-14 -39l-81 7l-4 9q4 48 39.5 81.5t94.5 33.5q60 0 96.5 -29t36.5 -81q0 -32 -16.5 -60t-48.5 -58l-74 -70h144v-77h-269v65z" />
    <glyph glyph-name="uni00B3" unicode="&#xb3;" horiz-adv-x="362" 
d="M236 578q91 -26 91 -118q0 -59 -40.5 -97t-101.5 -38q-64 0 -104.5 35t-44.5 89l6 7l79 10q2 -29 19 -46t43 -17t41 15.5t15 40.5q0 29 -18.5 45.5t-49.5 16.5h-26v62l59 47h-150v70h253v-66z" />
    <glyph glyph-name="acute" unicode="&#xb4;" horiz-adv-x="273" 
d="M252 707l-117 -146h-112l78 146h151z" />
    <glyph glyph-name="uni00B5" unicode="&#xb5;" 
d="M402 62q-67 -72 -163 -72q-23 0 -36 8v-198h-140v700h140v-301q0 -43 22 -66t62 -23q36 0 66 20.5t49 54.5v315h140v-500h-140v62z" />
    <glyph glyph-name="paragraph" unicode="&#xb6;" horiz-adv-x="653" 
d="M394 588v-788h-128v499h-8q-104 0 -166 53t-62 147q0 95 62 148t166 53h319v-900h-127v788h-56z" />
    <glyph glyph-name="periodcentered" unicode="&#xb7;" horiz-adv-x="255" 
d="M187 410.5q25 -25.5 25 -60.5q0 -34 -25 -59.5t-60 -25.5q-34 0 -59.5 25.5t-25.5 59.5q0 35 25 60.5t60 25.5t60 -25.5z" />
    <glyph glyph-name="cedilla" unicode="&#xb8;" horiz-adv-x="407" 
d="M228 -43q37 0 59 -20t22 -55q0 -43 -28.5 -66t-76.5 -23q-44 0 -70.5 18.5t-36.5 49.5l4 8l73 8q7 -17 29 -17q27 0 27 26q0 24 -27 24q-21 0 -36 -15l-62 9l-2 9l51 112h84l-49 -76q20 8 39 8z" />
    <glyph glyph-name="uni00B9" unicode="&#xb9;" horiz-adv-x="246" 
d="M114 700h95v-370h-95v257q-13 -12 -31.5 -16.5t-46.5 -4.5v86h8q63 0 70 48z" />
    <glyph glyph-name="ordmasculine" unicode="&#xba;" horiz-adv-x="499" 
d="M360 683.5q49 -26.5 76.5 -73.5t27.5 -105t-27.5 -105t-76.5 -73.5t-110 -26.5q-62 0 -111 26.5t-76.5 73.5t-27.5 105t27.5 105t76.5 73.5t111 26.5q61 0 110 -26.5zM174.5 585q-29.5 -30 -29.5 -80t29.5 -80t75.5 -30t75 30t29 80t-29 80t-75 30t-75.5 -30z" />
    <glyph glyph-name="guillemotright" unicode="&#xbb;" horiz-adv-x="514" 
d="M46 53l95 227l-95 227h122l107 -227l-107 -227h-122zM237 53l95 227l-95 227h123l106 -227l-106 -227h-123z" />
    <glyph glyph-name="onequarter" unicode="&#xbc;" horiz-adv-x="723" 
d="M51 652q63 0 70 48h95v-370h-95v257q-13 -12 -31.5 -16.5t-46.5 -4.5v86h8zM659 640l-527 -637l-70 57l527 637zM377 137l176 233h86v-233h45v-80h-45v-57h-89v57h-173v80zM467 137h83v111z" />
    <glyph glyph-name="onehalf" unicode="&#xbd;" horiz-adv-x="767" 
d="M121 587q-13 -12 -31.5 -16.5t-46.5 -4.5v86h8q63 0 70 48h95v-370h-95v257zM62 60l527 637l70 -57l-527 -637zM452 65l145 135q16 15 23 28t7 30q0 19 -12 29.5t-32 10.5q-22 0 -35 -15t-15 -39l-80 7l-4 9q4 48 39 81.5t94 33.5q61 0 97 -29t36 -81q0 -32 -16 -60.5
t-48 -57.5l-75 -70h145v-77h-269v65z" />
    <glyph glyph-name="threequarters" unicode="&#xbe;" horiz-adv-x="819" 
d="M90.5 360q-40.5 35 -44.5 89l5 7l79 10q2 -29 19.5 -46t43.5 -17t41 15.5t15 40.5q0 29 -19 45.5t-49 16.5h-26v62l59 47h-151v70h254v-66l-71 -56q90 -26 90 -118q0 -60 -40 -97.5t-101 -37.5q-64 0 -104.5 35zM157 60l527 637l71 -57l-527 -637zM646 57h-173v80
l176 233h86v-233h44v-80h-44v-57h-89v57zM646 137v111l-83 -111h83z" />
    <glyph glyph-name="questiondown" unicode="&#xbf;" horiz-adv-x="499" 
d="M187 354.5q-25 25.5 -25 60.5t25.5 60t59.5 25q35 0 60 -25t25 -60t-25 -60.5t-60 -25.5t-60 25.5zM464 -17l9 -13q-6 -51 -37.5 -92.5t-81 -64.5t-108.5 -23q-110 0 -167.5 47.5t-57.5 124.5q0 53 25 93.5t76 76.5q34 24 50.5 47t18.5 56l1 26h110l1 -17l1 -18
q0 -43 -12 -73t-31 -49.5t-51 -44.5q-32 -24 -44 -43t-12 -46q0 -28 24.5 -47.5t66.5 -19.5q45 0 74 28t31 69z" />
    <glyph glyph-name="Agrave" unicode="&#xc0;" horiz-adv-x="676" 
d="M269 700h138l267 -700h-160l-42 118h-268l-41 -118h-161zM426 249l-75 214l-10 76h-6l-10 -76l-75 -214h176zM287 761l-117 146h151l78 -146h-112z" />
    <glyph glyph-name="Aacute" unicode="&#xc1;" horiz-adv-x="676" 
d="M269 700h138l267 -700h-160l-42 118h-268l-41 -118h-161zM426 249l-75 214l-10 76h-6l-10 -76l-75 -214h176zM496 907l-117 -146h-112l78 146h151z" />
    <glyph glyph-name="Acircumflex" unicode="&#xc2;" horiz-adv-x="676" 
d="M269 700h138l267 -700h-160l-42 118h-268l-41 -118h-161zM426 249l-75 214l-10 76h-6l-10 -76l-75 -214h176zM393 760l-55 57l-56 -57h-103l114 147h90l114 -147h-104z" />
    <glyph glyph-name="Atilde" unicode="&#xc3;" horiz-adv-x="676" 
d="M269 700h138l267 -700h-160l-42 118h-268l-41 -118h-161zM426 249l-75 214l-10 76h-6l-10 -76l-75 -214h176zM489 797.5q-33 -33.5 -81 -33.5q-29 0 -47 8t-38 22q-13 10 -23 14.5t-23 4.5q-18 0 -28.5 -11.5t-13.5 -30.5h-84q3 67 36 100.5t81 33.5q29 0 47 -8t38 -22
q13 -10 23 -14.5t23 -4.5q18 0 28.5 11.5t13.5 30.5h84q-3 -67 -36 -100.5z" />
    <glyph glyph-name="Adieresis" unicode="&#xc4;" horiz-adv-x="676" 
d="M269 700h138l267 -700h-160l-42 118h-268l-41 -118h-161zM426 249l-75 214l-10 76h-6l-10 -76l-75 -214h176zM196 883.5q21 20.5 49 20.5q29 0 49.5 -20.5t20.5 -49.5q0 -28 -20.5 -49t-49.5 -21q-28 0 -49 21t-21 49q0 29 21 49.5zM382 883.5q21 20.5 49 20.5t49 -21
t21 -49t-21 -49t-49 -21t-49 21t-21 49q0 29 21 49.5z" />
    <glyph glyph-name="Aring" unicode="&#xc5;" horiz-adv-x="676" 
d="M269 700h138l267 -700h-160l-42 118h-268l-41 -118h-161zM426 249l-75 214l-10 76h-6l-10 -76l-75 -214h176zM405.5 895q27.5 -28 27.5 -67t-27.5 -67t-67.5 -28t-67.5 28t-27.5 67t27.5 67t67.5 28t67.5 -28zM363 803q10 10 10 25t-10 25t-25 10t-25 -10t-10 -25t10 -25
t25 -10t25 10z" />
    <glyph glyph-name="AE" unicode="&#xc6;" horiz-adv-x="983" 
d="M619 415h284v-130h-284v-151h322v-134h-475v118h-227l-61 -118h-176l379 700h549v-130h-311v-155zM466 249v321h-9l-23 -83l-126 -238h158z" />
    <glyph glyph-name="Ccedilla" unicode="&#xc7;" horiz-adv-x="753" 
d="M515 159q46 33 64 93l136 -18l9 -14q-32 -106 -111 -165t-191 -64l-26 -42q20 8 39 8q35 0 58 -19t23 -51q0 -46 -28.5 -70t-76.5 -24q-44 0 -70.5 18.5t-36.5 49.5l8 8l67 8q7 -17 32 -17q13 0 20 7t7 19q0 11 -7.5 18t-20.5 7q-20 0 -36 -16l-62 9l-2 9l36 81
q-86 12 -155 59.5t-109 124t-40 172.5q0 107 48.5 188.5t131 126.5t180.5 45q86 0 153.5 -29t110.5 -81t58 -120l-8 -14l-137 -18q-17 60 -64 93t-116 33q-62 0 -108 -28.5t-70.5 -79.5t-24.5 -116q0 -66 25 -116.5t72 -79t110 -28.5q66 0 112 33z" />
    <glyph glyph-name="Egrave" unicode="&#xc8;" horiz-adv-x="586" 
d="M222 415h284v-130h-284v-151h322v-134h-475v700h464v-130h-311v-155zM291 761l-117 146h151l78 -146h-112z" />
    <glyph glyph-name="Eacute" unicode="&#xc9;" horiz-adv-x="586" 
d="M222 415h284v-130h-284v-151h322v-134h-475v700h464v-130h-311v-155zM453 907l-117 -146h-112l78 146h151z" />
    <glyph glyph-name="Ecircumflex" unicode="&#xca;" horiz-adv-x="586" 
d="M222 415h284v-130h-284v-151h322v-134h-475v700h464v-130h-311v-155zM365 760l-55 57l-56 -57h-103l114 147h90l114 -147h-104z" />
    <glyph glyph-name="Edieresis" unicode="&#xcb;" horiz-adv-x="586" 
d="M222 415h284v-130h-284v-151h322v-134h-475v700h464v-130h-311v-155zM162 883.5q21 20.5 49 20.5q29 0 49.5 -20.5t20.5 -49.5q0 -28 -20.5 -49t-49.5 -21q-28 0 -49 21t-21 49q0 29 21 49.5zM348 883.5q21 20.5 49 20.5t49 -21t21 -49t-21 -49t-49 -21t-49 21t-21 49
q0 29 21 49.5z" />
    <glyph glyph-name="Igrave" unicode="&#xcc;" horiz-adv-x="291" 
d="M222 0h-153v700h153v-700zM118 761l-117 146h151l78 -146h-112z" />
    <glyph glyph-name="Iacute" unicode="&#xcd;" horiz-adv-x="291" 
d="M222 0h-153v700h153v-700zM291 907l-117 -146h-112l78 146h151z" />
    <glyph glyph-name="Icircumflex" unicode="&#xce;" horiz-adv-x="291" 
d="M222 0h-153v700h153v-700zM201 760l-55 57l-56 -57h-103l114 147h90l114 -147h-104z" />
    <glyph glyph-name="Idieresis" unicode="&#xcf;" horiz-adv-x="291" 
d="M222 0h-153v700h153v-700zM4 883.5q21 20.5 49 20.5q29 0 49.5 -20.5t20.5 -49.5q0 -28 -20.5 -49t-49.5 -21q-28 0 -49 21t-21 49q0 29 21 49.5zM190 883.5q21 20.5 49 20.5t49 -21t21 -49t-21 -49t-49 -21t-49 21t-21 49q0 29 21 49.5z" />
    <glyph glyph-name="Eth" unicode="&#xd0;" horiz-adv-x="754" 
d="M89 700h249q114 0 198.5 -41.5t130 -120.5t45.5 -188t-45.5 -188t-130 -120.5t-198.5 -41.5h-249v294h-71v112h71v294zM242 564v-158h144v-112h-144v-158h92q109 0 167 53.5t58 160.5t-58 160.5t-167 53.5h-92z" />
    <glyph glyph-name="Ntilde" unicode="&#xd1;" horiz-adv-x="732" 
d="M510 700h153v-700h-165l-257 426l-12 57h-7v-483h-153v700h165l257 -426l12 -57h7v483zM517 797.5q-33 -33.5 -81 -33.5q-29 0 -47 8t-38 22q-13 10 -23 14.5t-23 4.5q-18 0 -28.5 -11.5t-13.5 -30.5h-84q3 67 36 100.5t81 33.5q29 0 47 -8t38 -22q13 -10 23 -14.5
t23 -4.5q18 0 28.5 11.5t13.5 30.5h84q-3 -67 -36 -100.5z" />
    <glyph glyph-name="Ograve" unicode="&#xd2;" horiz-adv-x="802" 
d="M713.5 162.5q-46.5 -81.5 -128.5 -127t-184 -45.5t-184 45.5t-128.5 127t-46.5 187.5t46.5 187.5t128.5 127t184 45.5t184 -45.5t128.5 -127t46.5 -187.5t-46.5 -187.5zM580.5 466.5q-25.5 50.5 -72 79t-107.5 28.5q-62 0 -108.5 -28.5t-71.5 -79t-25 -116.5t25 -116.5
t71.5 -79t108.5 -28.5q61 0 107.5 28.5t72 79t25.5 116.5t-25.5 116.5zM360 761l-117 146h151l78 -146h-112z" />
    <glyph glyph-name="Oacute" unicode="&#xd3;" horiz-adv-x="802" 
d="M713.5 162.5q-46.5 -81.5 -128.5 -127t-184 -45.5t-184 45.5t-128.5 127t-46.5 187.5t46.5 187.5t128.5 127t184 45.5t184 -45.5t128.5 -127t46.5 -187.5t-46.5 -187.5zM580.5 466.5q-25.5 50.5 -72 79t-107.5 28.5q-62 0 -108.5 -28.5t-71.5 -79t-25 -116.5t25 -116.5
t71.5 -79t108.5 -28.5q61 0 107.5 28.5t72 79t25.5 116.5t-25.5 116.5zM539 907l-117 -146h-112l78 146h151z" />
    <glyph glyph-name="Ocircumflex" unicode="&#xd4;" horiz-adv-x="802" 
d="M713.5 162.5q-46.5 -81.5 -128.5 -127t-184 -45.5t-184 45.5t-128.5 127t-46.5 187.5t46.5 187.5t128.5 127t184 45.5t184 -45.5t128.5 -127t46.5 -187.5t-46.5 -187.5zM580.5 466.5q-25.5 50.5 -72 79t-107.5 28.5q-62 0 -108.5 -28.5t-71.5 -79t-25 -116.5t25 -116.5
t71.5 -79t108.5 -28.5q61 0 107.5 28.5t72 79t25.5 116.5t-25.5 116.5zM457 760l-55 57l-56 -57h-103l114 147h90l114 -147h-104z" />
    <glyph glyph-name="Otilde" unicode="&#xd5;" horiz-adv-x="802" 
d="M713.5 162.5q-46.5 -81.5 -128.5 -127t-184 -45.5t-184 45.5t-128.5 127t-46.5 187.5t46.5 187.5t128.5 127t184 45.5t184 -45.5t128.5 -127t46.5 -187.5t-46.5 -187.5zM580.5 466.5q-25.5 50.5 -72 79t-107.5 28.5q-62 0 -108.5 -28.5t-71.5 -79t-25 -116.5t25 -116.5
t71.5 -79t108.5 -28.5q61 0 107.5 28.5t72 79t25.5 116.5t-25.5 116.5zM552 797.5q-33 -33.5 -81 -33.5q-29 0 -47 8t-38 22q-13 10 -23 14.5t-23 4.5q-18 0 -28.5 -11.5t-13.5 -30.5h-84q3 67 36 100.5t81 33.5q29 0 47 -8t38 -22q13 -10 23 -14.5t23 -4.5q18 0 28.5 11.5
t13.5 30.5h84q-3 -67 -36 -100.5z" />
    <glyph glyph-name="Odieresis" unicode="&#xd6;" horiz-adv-x="802" 
d="M713.5 162.5q-46.5 -81.5 -128.5 -127t-184 -45.5t-184 45.5t-128.5 127t-46.5 187.5t46.5 187.5t128.5 127t184 45.5t184 -45.5t128.5 -127t46.5 -187.5t-46.5 -187.5zM580.5 466.5q-25.5 50.5 -72 79t-107.5 28.5q-62 0 -108.5 -28.5t-71.5 -79t-25 -116.5t25 -116.5
t71.5 -79t108.5 -28.5q61 0 107.5 28.5t72 79t25.5 116.5t-25.5 116.5zM259 883.5q21 20.5 49 20.5q29 0 49.5 -20.5t20.5 -49.5q0 -28 -20.5 -49t-49.5 -21q-28 0 -49 21t-21 49q0 29 21 49.5zM445 883.5q21 20.5 49 20.5t49 -21t21 -49t-21 -49t-49 -21t-49 21t-21 49
q0 29 21 49.5z" />
    <glyph glyph-name="multiply" unicode="&#xd7;" horiz-adv-x="485" 
d="M354 551l79 -79l-113 -113l113 -112l-79 -79l-112 112l-112 -112l-79 80l111 111l-111 112l79 80l112 -112z" />
    <glyph glyph-name="Oslash" unicode="&#xd8;" horiz-adv-x="802" 
d="M548 747l108 -55l-30 -55q63 -48 98.5 -122t35.5 -165q0 -106 -46.5 -187.5t-128.5 -127t-184 -45.5q-63 0 -117 18l-30 -55l-108 55l29 55q-63 48 -98 122t-35 165q0 106 46.5 187.5t128.5 127t184 45.5q63 0 117 -18zM450 567q-21 7 -49 7q-60 0 -106.5 -28.5
t-72.5 -79.5t-26 -116q0 -96 52 -154zM592.5 435q-13.5 39 -38.5 68l-203 -371q23 -6 50 -6q62 0 108.5 28.5t71.5 79t25 116.5q0 46 -13.5 85z" />
    <glyph glyph-name="Ugrave" unicode="&#xd9;" horiz-adv-x="701" 
d="M218 275q0 -73 34 -111t99 -38q64 0 98 38t34 111v425h153v-426q0 -85 -33.5 -149t-98 -99.5t-153.5 -35.5t-153.5 35.5t-98.5 99.5t-34 149v426h153v-425zM320 761l-117 146h151l78 -146h-112z" />
    <glyph glyph-name="Uacute" unicode="&#xda;" horiz-adv-x="701" 
d="M218 275q0 -73 34 -111t99 -38q64 0 98 38t34 111v425h153v-426q0 -85 -33.5 -149t-98 -99.5t-153.5 -35.5t-153.5 35.5t-98.5 99.5t-34 149v426h153v-425zM489 907l-117 -146h-112l78 146h151z" />
    <glyph glyph-name="Ucircumflex" unicode="&#xdb;" horiz-adv-x="701" 
d="M218 275q0 -73 34 -111t99 -38q64 0 98 38t34 111v425h153v-426q0 -85 -33.5 -149t-98 -99.5t-153.5 -35.5t-153.5 35.5t-98.5 99.5t-34 149v426h153v-425zM406 760l-55 57l-56 -57h-103l114 147h90l114 -147h-104z" />
    <glyph glyph-name="Udieresis" unicode="&#xdc;" horiz-adv-x="701" 
d="M218 275q0 -73 34 -111t99 -38q64 0 98 38t34 111v425h153v-426q0 -85 -33.5 -149t-98 -99.5t-153.5 -35.5t-153.5 35.5t-98.5 99.5t-34 149v426h153v-425zM209 883.5q21 20.5 49 20.5q29 0 49.5 -20.5t20.5 -49.5q0 -28 -20.5 -49t-49.5 -21q-28 0 -49 21t-21 49
q0 29 21 49.5zM395 883.5q21 20.5 49 20.5t49 -21t21 -49t-21 -49t-49 -21t-49 21t-21 49q0 29 21 49.5z" />
    <glyph glyph-name="Yacute" unicode="&#xdd;" 
d="M288 453l11 -84h7l11 84l114 247h163l-215 -456v-244h-153v244l-215 456h163zM460 907l-117 -146h-112l78 146h151z" />
    <glyph glyph-name="Thorn" unicode="&#xde;" horiz-adv-x="661" 
d="M222 590h127q82 0 144.5 -28.5t97 -82.5t34.5 -129t-34.5 -129t-97 -82.5t-144.5 -28.5h-127v-110h-153v700h153v-110zM340 241q132 0 132 109t-132 109h-118v-218h118z" />
    <glyph glyph-name="germandbls" unicode="&#xdf;" horiz-adv-x="627" 
d="M247 577q-22 -23 -22 -67v-510h-140v400h-84v100h84v8q0 66 30 112t80 68t108 22t106 -18.5t76.5 -55t28.5 -87.5q0 -41 -20.5 -70t-55.5 -59q-11 -10 -19.5 -18.5t-8.5 -14.5q0 -10 12.5 -18t30.5 -16t26 -12q60 -28 88 -69t28 -101q0 -51 -23 -92t-67.5 -65t-106.5 -24
q-53 0 -94.5 23t-61.5 69v13l67 72q12 -28 33.5 -42.5t50.5 -14.5q30 0 47 16.5t17 45.5q0 26 -16 43.5t-56 35.5q-40 19 -62 32.5t-37.5 34t-15.5 48.5q0 27 13.5 47.5t39.5 45.5q24 23 36 40.5t12 39.5q0 28 -20 44.5t-48 16.5q-34 0 -56 -23z" />
    <glyph glyph-name="agrave" unicode="&#xe0;" horiz-adv-x="572" 
d="M128.5 8.5q-36.5 18.5 -58 53t-21.5 80.5q0 68 46.5 109.5t129.5 49.5l135 14v22q0 34 -21.5 53t-60.5 19q-35 0 -56.5 -18.5t-25.5 -50.5l-118 10l-5 6q15 75 70.5 114.5t136.5 39.5q95 0 154 -47.5t59 -133.5v-179q0 -47 36 -47q11 0 19 3l5 -6v-96q-31 -10 -69 -10
q-81 0 -113 68h-6q-33 -35 -70 -53.5t-87 -18.5q-43 0 -79.5 18.5zM360 169v58l-110 -14q-35 -4 -53.5 -21t-18.5 -42t17 -39.5t45 -14.5q67 0 120 73zM249 561l-117 146h151l78 -146h-112z" />
    <glyph glyph-name="aacute" unicode="&#xe1;" horiz-adv-x="572" 
d="M128.5 8.5q-36.5 18.5 -58 53t-21.5 80.5q0 68 46.5 109.5t129.5 49.5l135 14v22q0 34 -21.5 53t-60.5 19q-35 0 -56.5 -18.5t-25.5 -50.5l-118 10l-5 6q15 75 70.5 114.5t136.5 39.5q95 0 154 -47.5t59 -133.5v-179q0 -47 36 -47q11 0 19 3l5 -6v-96q-31 -10 -69 -10
q-81 0 -113 68h-6q-33 -35 -70 -53.5t-87 -18.5q-43 0 -79.5 18.5zM360 169v58l-110 -14q-35 -4 -53.5 -21t-18.5 -42t17 -39.5t45 -14.5q67 0 120 73zM418 707l-117 -146h-112l78 146h151z" />
    <glyph glyph-name="acircumflex" unicode="&#xe2;" horiz-adv-x="572" 
d="M128.5 8.5q-36.5 18.5 -58 53t-21.5 80.5q0 68 46.5 109.5t129.5 49.5l135 14v22q0 34 -21.5 53t-60.5 19q-35 0 -56.5 -18.5t-25.5 -50.5l-118 10l-5 6q15 75 70.5 114.5t136.5 39.5q95 0 154 -47.5t59 -133.5v-179q0 -47 36 -47q11 0 19 3l5 -6v-96q-31 -10 -69 -10
q-81 0 -113 68h-6q-33 -35 -70 -53.5t-87 -18.5q-43 0 -79.5 18.5zM360 169v58l-110 -14q-35 -4 -53.5 -21t-18.5 -42t17 -39.5t45 -14.5q67 0 120 73zM343 560l-55 57l-56 -57h-103l114 147h90l114 -147h-104z" />
    <glyph glyph-name="atilde" unicode="&#xe3;" horiz-adv-x="572" 
d="M128.5 8.5q-36.5 18.5 -58 53t-21.5 80.5q0 68 46.5 109.5t129.5 49.5l135 14v22q0 34 -21.5 53t-60.5 19q-35 0 -56.5 -18.5t-25.5 -50.5l-118 10l-5 6q15 75 70.5 114.5t136.5 39.5q95 0 154 -47.5t59 -133.5v-179q0 -47 36 -47q11 0 19 3l5 -6v-96q-31 -10 -69 -10
q-81 0 -113 68h-6q-33 -35 -70 -53.5t-87 -18.5q-43 0 -79.5 18.5zM360 169v58l-110 -14q-35 -4 -53.5 -21t-18.5 -42t17 -39.5t45 -14.5q67 0 120 73zM432 597.5q-33 -33.5 -81 -33.5q-29 0 -47 8t-38 22q-13 10 -23 14.5t-23 4.5q-18 0 -28.5 -11.5t-13.5 -30.5h-84
q3 67 36 100.5t81 33.5q29 0 47 -8t38 -22q13 -10 23 -14.5t23 -4.5q18 0 28.5 11.5t13.5 30.5h84q-3 -67 -36 -100.5z" />
    <glyph glyph-name="adieresis" unicode="&#xe4;" horiz-adv-x="572" 
d="M128.5 8.5q-36.5 18.5 -58 53t-21.5 80.5q0 68 46.5 109.5t129.5 49.5l135 14v22q0 34 -21.5 53t-60.5 19q-35 0 -56.5 -18.5t-25.5 -50.5l-118 10l-5 6q15 75 70.5 114.5t136.5 39.5q95 0 154 -47.5t59 -133.5v-179q0 -47 36 -47q11 0 19 3l5 -6v-96q-31 -10 -69 -10
q-81 0 -113 68h-6q-33 -35 -70 -53.5t-87 -18.5q-43 0 -79.5 18.5zM360 169v58l-110 -14q-35 -4 -53.5 -21t-18.5 -42t17 -39.5t45 -14.5q67 0 120 73zM145 683.5q21 20.5 49 20.5q29 0 49.5 -20.5t20.5 -49.5q0 -28 -20.5 -49t-49.5 -21q-28 0 -49 21t-21 49q0 29 21 49.5z
M331 683.5q21 20.5 49 20.5t49 -21t21 -49t-21 -49t-49 -21t-49 21t-21 49q0 29 21 49.5z" />
    <glyph glyph-name="aring" unicode="&#xe5;" horiz-adv-x="572" 
d="M128.5 8.5q-36.5 18.5 -58 53t-21.5 80.5q0 68 46.5 109.5t129.5 49.5l135 14v22q0 34 -21.5 53t-60.5 19q-35 0 -56.5 -18.5t-25.5 -50.5l-118 10l-5 6q15 75 70.5 114.5t136.5 39.5q95 0 154 -47.5t59 -133.5v-179q0 -47 36 -47q11 0 19 3l5 -6v-96q-31 -10 -69 -10
q-81 0 -113 68h-6q-33 -35 -70 -53.5t-87 -18.5q-43 0 -79.5 18.5zM360 169v58l-110 -14q-35 -4 -53.5 -21t-18.5 -42t17 -39.5t45 -14.5q67 0 120 73zM351.5 695q27.5 -28 27.5 -67t-27.5 -67t-67.5 -28t-67.5 28t-27.5 67t27.5 67t67.5 28t67.5 -28zM309 603q10 10 10 25
t-10 25t-25 10t-25 -10t-10 -25t10 -25t25 -10t25 10z" />
    <glyph glyph-name="ae" unicode="&#xe6;" horiz-adv-x="916" 
d="M494 211q6 -50 40.5 -79t86.5 -29q86 0 114 77l117 -12l7 -12q-28 -83 -89.5 -124.5t-151.5 -41.5q-65 0 -117.5 25t-87.5 70h-6q-76 -95 -186 -95q-75 0 -123.5 41t-48.5 111q0 69 49.5 110.5t133.5 46.5l128 7v28q0 35 -21.5 55t-60.5 20q-35 0 -56.5 -18.5
t-25.5 -50.5l-120 10l-3 6q15 75 71 114.5t136 39.5q53 0 97 -16t72 -47q35 30 78 46.5t91 16.5q74 0 131 -31t88.5 -89t31.5 -137v-37h-375v-5zM737 306q-5 45 -38 72t-82 27q-44 0 -77.5 -27t-42.5 -72h240zM256 208q-38 -2 -58 -17.5t-20 -41.5q0 -25 17 -39t46 -14
q67 0 119 73v46z" />
    <glyph glyph-name="ccedilla" unicode="&#xe7;" horiz-adv-x="587" 
d="M211.5 147.5q35.5 -36.5 91.5 -36.5q48 0 77 22.5t43 64.5l117 -12l7 -9q-22 -87 -81 -135t-150 -51l-27 -42q20 8 39 8q36 0 59 -19t23 -51q0 -46 -28.5 -70t-76.5 -24q-44 0 -70.5 18.5t-36.5 49.5l4 8l70 8q7 -17 33 -17q13 0 20 7t7 19q0 11 -7.5 18t-20.5 7
q-20 0 -36 -16l-62 9l-3 9l38 84q-58 12 -103.5 47t-71.5 88t-26 118q0 75 35 134.5t95 92.5t132 33q99 0 164 -50t81 -136l-7 -10l-117 -12q-9 40 -40 63.5t-80 23.5q-56 0 -91.5 -36.5t-35.5 -102.5t35.5 -102.5z" />
    <glyph glyph-name="egrave" unicode="&#xe8;" horiz-adv-x="595" 
d="M172 216q5 -52 40 -82.5t88 -30.5q86 0 114 77l118 -12l6 -12q-27 -83 -88.5 -124.5t-152.5 -41.5q-74 0 -132.5 32.5t-91.5 91.5t-33 136q0 76 35.5 135t94.5 92t127 33q74 0 131.5 -31t89 -89t31.5 -137v-37h-377zM416 306q-5 45 -38 72t-82 27q-44 0 -77 -27t-43 -72
h240zM259 561l-117 146h151l78 -146h-112z" />
    <glyph glyph-name="eacute" unicode="&#xe9;" horiz-adv-x="595" 
d="M172 216q5 -52 40 -82.5t88 -30.5q86 0 114 77l118 -12l6 -12q-27 -83 -88.5 -124.5t-152.5 -41.5q-74 0 -132.5 32.5t-91.5 91.5t-33 136q0 76 35.5 135t94.5 92t127 33q74 0 131.5 -31t89 -89t31.5 -137v-37h-377zM416 306q-5 45 -38 72t-82 27q-44 0 -77 -27t-43 -72
h240zM428 707l-117 -146h-112l78 146h151z" />
    <glyph glyph-name="ecircumflex" unicode="&#xea;" horiz-adv-x="595" 
d="M172 216q5 -52 40 -82.5t88 -30.5q86 0 114 77l118 -12l6 -12q-27 -83 -88.5 -124.5t-152.5 -41.5q-74 0 -132.5 32.5t-91.5 91.5t-33 136q0 76 35.5 135t94.5 92t127 33q74 0 131.5 -31t89 -89t31.5 -137v-37h-377zM416 306q-5 45 -38 72t-82 27q-44 0 -77 -27t-43 -72
h240zM354 560l-55 57l-56 -57h-103l114 147h90l114 -147h-104z" />
    <glyph glyph-name="edieresis" unicode="&#xeb;" horiz-adv-x="595" 
d="M172 216q5 -52 40 -82.5t88 -30.5q86 0 114 77l118 -12l6 -12q-27 -83 -88.5 -124.5t-152.5 -41.5q-74 0 -132.5 32.5t-91.5 91.5t-33 136q0 76 35.5 135t94.5 92t127 33q74 0 131.5 -31t89 -89t31.5 -137v-37h-377zM416 306q-5 45 -38 72t-82 27q-44 0 -77 -27t-43 -72
h240zM159 683.5q21 20.5 49 20.5q29 0 49.5 -20.5t20.5 -49.5q0 -28 -20.5 -49t-49.5 -21q-28 0 -49 21t-21 49q0 29 21 49.5zM345 683.5q21 20.5 49 20.5t49 -21t21 -49t-21 -49t-49 -21t-49 21t-21 49q0 29 21 49.5z" />
    <glyph glyph-name="igrave" unicode="&#xec;" horiz-adv-x="269" 
d="M204 0h-139v500h139v-500zM107 561l-117 146h151l78 -146h-112z" />
    <glyph glyph-name="iacute" unicode="&#xed;" horiz-adv-x="269" 
d="M204 0h-139v500h139v-500zM280 707l-117 -146h-112l78 146h151z" />
    <glyph glyph-name="icircumflex" unicode="&#xee;" horiz-adv-x="269" 
d="M204 0h-139v500h139v-500zM190 560l-55 57l-56 -57h-103l114 147h90l114 -147h-104z" />
    <glyph glyph-name="idieresis" unicode="&#xef;" horiz-adv-x="269" 
d="M204 0h-139v500h139v-500zM-7 683.5q21 20.5 49 20.5q29 0 49.5 -20.5t20.5 -49.5q0 -28 -20.5 -49t-49.5 -21q-28 0 -49 21t-21 49q0 29 21 49.5zM179 683.5q21 20.5 49 20.5t49 -21t21 -49t-21 -49t-49 -21t-49 21t-21 49q0 29 21 49.5z" />
    <glyph glyph-name="eth" unicode="&#xf0;" horiz-adv-x="631" 
d="M415 562q34 -41 41 -105q-61 53 -158 53q-73 0 -132 -34.5t-92.5 -94t-33.5 -131.5q0 -70 34.5 -129.5t97.5 -95t144 -35.5q62 0 118.5 27t90.5 77q66 98 66 255q0 152 -66 252l35 11l-23 66l-60 -21q-81 73 -204 73q-35 0 -71.5 -8.5t-59.5 -23.5l42 -85l14 -5
q15 7 37.5 11t40.5 4q36 0 66 -12l-46 -16l23 -66zM216.5 149.5q-35.5 38.5 -35.5 100.5t35.5 100.5t94.5 38.5q60 0 95 -38.5t35 -100.5t-35 -100.5t-95 -38.5q-59 0 -94.5 38.5z" />
    <glyph glyph-name="ntilde" unicode="&#xf1;" 
d="M203 435q71 75 166 75q81 0 127 -47t46 -121v-342h-140v301q0 44 -20.5 66.5t-60.5 22.5q-35 0 -67 -21.5t-51 -53.5v-315h-140v500h140v-65zM460 597.5q-33 -33.5 -81 -33.5q-29 0 -47 8t-38 22q-13 10 -23 14.5t-23 4.5q-18 0 -28.5 -11.5t-13.5 -30.5h-84
q3 67 36 100.5t81 33.5q29 0 47 -8t38 -22q13 -10 23 -14.5t23 -4.5q18 0 28.5 11.5t13.5 30.5h84q-3 -67 -36 -100.5z" />
    <glyph glyph-name="ograve" unicode="&#xf2;" horiz-adv-x="625" 
d="M453 476q62 -34 97 -93t35 -133t-35 -133t-97 -93t-140 -34q-79 0 -141 34t-97 93t-35 133t35 133t97 93t141 34q78 0 140 -34zM217.5 351.5q-37.5 -37.5 -37.5 -101.5t37.5 -101.5t95.5 -37.5t95 37.5t37 101.5t-37 101.5t-95 37.5t-95.5 -37.5zM282 561l-117 146h151
l78 -146h-112z" />
    <glyph glyph-name="oacute" unicode="&#xf3;" horiz-adv-x="625" 
d="M453 476q62 -34 97 -93t35 -133t-35 -133t-97 -93t-140 -34q-79 0 -141 34t-97 93t-35 133t35 133t97 93t141 34q78 0 140 -34zM217.5 351.5q-37.5 -37.5 -37.5 -101.5t37.5 -101.5t95.5 -37.5t95 37.5t37 101.5t-37 101.5t-95 37.5t-95.5 -37.5zM451 707l-117 -146h-112
l78 146h151z" />
    <glyph glyph-name="ocircumflex" unicode="&#xf4;" horiz-adv-x="625" 
d="M453 476q62 -34 97 -93t35 -133t-35 -133t-97 -93t-140 -34q-79 0 -141 34t-97 93t-35 133t35 133t97 93t141 34q78 0 140 -34zM217.5 351.5q-37.5 -37.5 -37.5 -101.5t37.5 -101.5t95.5 -37.5t95 37.5t37 101.5t-37 101.5t-95 37.5t-95.5 -37.5zM368 560l-55 57l-56 -57
h-103l114 147h90l114 -147h-104z" />
    <glyph glyph-name="otilde" unicode="&#xf5;" horiz-adv-x="625" 
d="M453 476q62 -34 97 -93t35 -133t-35 -133t-97 -93t-140 -34q-79 0 -141 34t-97 93t-35 133t35 133t97 93t141 34q78 0 140 -34zM217.5 351.5q-37.5 -37.5 -37.5 -101.5t37.5 -101.5t95.5 -37.5t95 37.5t37 101.5t-37 101.5t-95 37.5t-95.5 -37.5zM460 597.5
q-33 -33.5 -81 -33.5q-29 0 -47 8t-38 22q-13 10 -23 14.5t-23 4.5q-18 0 -28.5 -11.5t-13.5 -30.5h-84q3 67 36 100.5t81 33.5q29 0 47 -8t38 -22q13 -10 23 -14.5t23 -4.5q18 0 28.5 11.5t13.5 30.5h84q-3 -67 -36 -100.5z" />
    <glyph glyph-name="odieresis" unicode="&#xf6;" horiz-adv-x="625" 
d="M453 476q62 -34 97 -93t35 -133t-35 -133t-97 -93t-140 -34q-79 0 -141 34t-97 93t-35 133t35 133t97 93t141 34q78 0 140 -34zM217.5 351.5q-37.5 -37.5 -37.5 -101.5t37.5 -101.5t95.5 -37.5t95 37.5t37 101.5t-37 101.5t-95 37.5t-95.5 -37.5zM171 683.5
q21 20.5 49 20.5q29 0 49.5 -20.5t20.5 -49.5q0 -28 -20.5 -49t-49.5 -21q-28 0 -49 21t-21 49q0 29 21 49.5zM357 683.5q21 20.5 49 20.5t49 -21t21 -49t-21 -49t-49 -21t-49 21t-21 49q0 29 21 49.5z" />
    <glyph glyph-name="divide" unicode="&#xf7;" horiz-adv-x="468" 
d="M294 538q25 -25 25 -60t-25 -60t-60 -25t-60.5 25t-25.5 60t25.5 60t60.5 25t60 -25zM448 226h-429v111h429v-111zM294 145.5q25 -25.5 25 -60.5q0 -34 -25 -59.5t-60 -25.5t-60.5 25t-25.5 60t25.5 60.5t60.5 25.5t60 -25.5z" />
    <glyph glyph-name="oslash" unicode="&#xf8;" horiz-adv-x="625" 
d="M394 499l24 45l95 -49l-23 -43q45 -36 70 -88t25 -114q0 -74 -35 -133t-97 -93t-140 -34q-35 0 -70 8l-23 -42l-95 49l19 36q-49 35 -76.5 89.5t-27.5 119.5q0 74 35 133t97 93t141 34q40 0 81 -11zM332 387q-12 2 -17 2q-60 -1 -97.5 -38.5t-37.5 -100.5q0 -56 29 -90z
M319 111q56 3 91 40t35 99q0 46 -22 79l-118 -217q4 -1 14 -1z" />
    <glyph glyph-name="ugrave" unicode="&#xf9;" 
d="M402 62q-67 -72 -163 -72q-82 0 -129 49t-47 131v330h140v-301q0 -43 22 -66t62 -23q36 0 66 20.5t49 54.5v315h140v-500h-140v62zM280 561l-117 146h151l78 -146h-112z" />
    <glyph glyph-name="uacute" unicode="&#xfa;" 
d="M402 62q-67 -72 -163 -72q-82 0 -129 49t-47 131v330h140v-301q0 -43 22 -66t62 -23q36 0 66 20.5t49 54.5v315h140v-500h-140v62zM439 707l-117 -146h-112l78 146h151z" />
    <glyph glyph-name="ucircumflex" unicode="&#xfb;" 
d="M402 62q-67 -72 -163 -72q-82 0 -129 49t-47 131v330h140v-301q0 -43 22 -66t62 -23q36 0 66 20.5t49 54.5v315h140v-500h-140v62zM356 560l-55 57l-56 -57h-103l114 147h90l114 -147h-104z" />
    <glyph glyph-name="udieresis" unicode="&#xfc;" 
d="M402 62q-67 -72 -163 -72q-82 0 -129 49t-47 131v330h140v-301q0 -43 22 -66t62 -23q36 0 66 20.5t49 54.5v315h140v-500h-140v62zM159 683.5q21 20.5 49 20.5q29 0 49.5 -20.5t20.5 -49.5q0 -28 -20.5 -49t-49.5 -21q-28 0 -49 21t-21 49q0 29 21 49.5zM345 683.5
q21 20.5 49 20.5t49 -21t21 -49t-21 -49t-49 -21t-49 21t-21 49q0 29 21 49.5z" />
    <glyph glyph-name="yacute" unicode="&#xfd;" horiz-adv-x="566" 
d="M562 500l-284 -700h-146l86 213l-206 487h164l102 -249l5 -65h8l123 314h148zM433 707l-117 -146h-112l78 146h151z" />
    <glyph glyph-name="thorn" unicode="&#xfe;" horiz-adv-x="635" 
d="M60 700h139v-254q64 64 161 64q58 0 112 -29.5t88.5 -88t34.5 -142.5t-36 -142.5t-93.5 -88t-121.5 -29.5q-42 0 -80 14t-65 37v-241h-139v900zM416.5 356q-36.5 38 -94.5 38q-52 0 -87.5 -32.5t-35.5 -87.5v-48q0 -54 35.5 -87t88.5 -33q58 0 94 38t36 106t-36.5 106z
" />
    <glyph glyph-name="ydieresis" unicode="&#xff;" horiz-adv-x="566" 
d="M562 500l-284 -700h-146l86 213l-206 487h164l102 -249l5 -65h8l123 314h148zM153 683.5q21 20.5 49 20.5q29 0 49.5 -20.5t20.5 -49.5q0 -28 -20.5 -49t-49.5 -21q-28 0 -49 21t-21 49q0 29 21 49.5zM339 683.5q21 20.5 49 20.5t49 -21t21 -49t-21 -49t-49 -21t-49 21
t-21 49q0 29 21 49.5z" />
    <glyph glyph-name="Amacron" unicode="&#x100;" horiz-adv-x="676" 
d="M269 700h138l267 -700h-160l-42 118h-268l-41 -118h-161zM426 249l-75 214l-10 76h-6l-10 -76l-75 -214h176zM468 785h-260v94h260v-94z" />
    <glyph glyph-name="amacron" unicode="&#x101;" horiz-adv-x="572" 
d="M128.5 8.5q-36.5 18.5 -58 53t-21.5 80.5q0 68 46.5 109.5t129.5 49.5l135 14v22q0 34 -21.5 53t-60.5 19q-35 0 -56.5 -18.5t-25.5 -50.5l-118 10l-5 6q15 75 70.5 114.5t136.5 39.5q95 0 154 -47.5t59 -133.5v-179q0 -47 36 -47q11 0 19 3l5 -6v-96q-31 -10 -69 -10
q-81 0 -113 68h-6q-33 -35 -70 -53.5t-87 -18.5q-43 0 -79.5 18.5zM360 169v58l-110 -14q-35 -4 -53.5 -21t-18.5 -42t17 -39.5t45 -14.5q67 0 120 73zM418 585h-260v94h260v-94z" />
    <glyph glyph-name="Abreve" unicode="&#x102;" horiz-adv-x="676" 
d="M269 700h138l267 -700h-160l-42 118h-268l-41 -118h-161zM426 249l-75 214l-10 76h-6l-10 -76l-75 -214h176zM420 802.5q-30 -30.5 -82 -30.5t-82 30.5t-30 80.5h81q0 -15 8 -25t23 -10t23 10t8 25h81q0 -50 -30 -80.5z" />
    <glyph glyph-name="abreve" unicode="&#x103;" horiz-adv-x="572" 
d="M128.5 8.5q-36.5 18.5 -58 53t-21.5 80.5q0 68 46.5 109.5t129.5 49.5l135 14v22q0 34 -21.5 53t-60.5 19q-35 0 -56.5 -18.5t-25.5 -50.5l-118 10l-5 6q15 75 70.5 114.5t136.5 39.5q95 0 154 -47.5t59 -133.5v-179q0 -47 36 -47q11 0 19 3l5 -6v-96q-31 -10 -69 -10
q-81 0 -113 68h-6q-33 -35 -70 -53.5t-87 -18.5q-43 0 -79.5 18.5zM360 169v58l-110 -14q-35 -4 -53.5 -21t-18.5 -42t17 -39.5t45 -14.5q67 0 120 73zM369 602.5q-30 -30.5 -82 -30.5t-82 30.5t-30 80.5h81q0 -15 8 -25t23 -10t23 10t8 25h81q0 -50 -30 -80.5z" />
    <glyph glyph-name="Aogonek" unicode="&#x104;" horiz-adv-x="676" 
d="M484.5 -165q-27.5 25 -27.5 64q0 32 17 59t40 42l-42 118h-268l-41 -118h-161l267 700h138l267 -700q-48 -3 -77.5 -15.5t-42 -29t-12.5 -31.5t8 -23.5t20 -8.5q21 0 37 24l54 -40v-10q-36 -56 -101 -56q-48 0 -75.5 25zM426 249l-75 214l-10 76h-6l-10 -76l-75 -214h176
z" />
    <glyph glyph-name="aogonek" unicode="&#x105;" horiz-adv-x="572" 
d="M360 315v22q0 34 -21.5 53t-60.5 19q-35 0 -56.5 -18.5t-25.5 -50.5l-120 10l-3 6q15 75 70.5 114.5t136.5 39.5q95 0 154 -47.5t59 -133.5v-179q0 -47 36 -47q11 0 19 2l5 -5v-96q-26 -12 -46.5 -35t-20.5 -49q0 -13 8 -20.5t19 -7.5q21 0 37 24l54 -40v-10
q-36 -56 -101 -56q-48 0 -75.5 25t-27.5 64q0 30 15 56t37 42q-57 12 -81 65h-6q-34 -35 -70 -53.5t-87 -18.5q-43 0 -79.5 18.5t-58 53t-21.5 80.5q0 68 46.5 109.5t129.5 49.5zM360 169v58l-110 -14q-35 -4 -53.5 -21t-18.5 -42t17 -39.5t45 -14.5q67 0 120 73z" />
    <glyph glyph-name="Cacute" unicode="&#x106;" horiz-adv-x="753" 
d="M515 159q46 33 64 93l136 -18l9 -14q-34 -111 -118 -170.5t-204 -59.5q-98 0 -180.5 45t-131 126.5t-48.5 188.5t48.5 188.5t131 126.5t180.5 45q86 0 153.5 -29t110.5 -81t58 -120l-8 -14l-137 -18q-17 60 -64 93t-116 33q-62 0 -108 -28.5t-70.5 -79.5t-24.5 -116
q0 -66 25 -116.5t72 -79t110 -28.5q66 0 112 33zM558 907l-117 -146h-112l78 146h151z" />
    <glyph glyph-name="cacute" unicode="&#x107;" horiz-adv-x="587" 
d="M380 133.5q29 22.5 43 64.5l117 -12l7 -9q-23 -90 -86 -138.5t-159 -48.5q-72 0 -132 33t-95 92.5t-35 134.5t35 134.5t95 92.5t132 33q99 0 164 -50t81 -136l-7 -10l-117 -12q-9 40 -40 63.5t-80 23.5q-56 0 -91.5 -36.5t-35.5 -102.5t35.5 -102.5t91.5 -36.5
q48 0 77 22.5zM456 707l-117 -146h-112l78 146h151z" />
    <glyph glyph-name="Ccircumflex" unicode="&#x108;" horiz-adv-x="753" 
d="M515 159q46 33 64 93l136 -18l9 -14q-34 -111 -118 -170.5t-204 -59.5q-98 0 -180.5 45t-131 126.5t-48.5 188.5t48.5 188.5t131 126.5t180.5 45q86 0 153.5 -29t110.5 -81t58 -120l-8 -14l-137 -18q-17 60 -64 93t-116 33q-62 0 -108 -28.5t-70.5 -79.5t-24.5 -116
q0 -66 25 -116.5t72 -79t110 -28.5q66 0 112 33zM460 760l-55 57l-56 -57h-103l114 147h90l114 -147h-104z" />
    <glyph glyph-name="ccircumflex" unicode="&#x109;" horiz-adv-x="587" 
d="M380 133.5q29 22.5 43 64.5l117 -12l7 -9q-23 -90 -86 -138.5t-159 -48.5q-72 0 -132 33t-95 92.5t-35 134.5t35 134.5t95 92.5t132 33q99 0 164 -50t81 -136l-7 -10l-117 -12q-9 40 -40 63.5t-80 23.5q-56 0 -91.5 -36.5t-35.5 -102.5t35.5 -102.5t91.5 -36.5
q48 0 77 22.5zM362 560l-55 57l-56 -57h-103l114 147h90l114 -147h-104z" />
    <glyph glyph-name="Cdotaccent" unicode="&#x10a;" horiz-adv-x="753" 
d="M515 159q46 33 64 93l136 -18l9 -14q-34 -111 -118 -170.5t-204 -59.5q-98 0 -180.5 45t-131 126.5t-48.5 188.5t48.5 188.5t131 126.5t180.5 45q86 0 153.5 -29t110.5 -81t58 -120l-8 -14l-137 -18q-17 60 -64 93t-116 33q-62 0 -108 -28.5t-70.5 -79.5t-24.5 -116
q0 -66 25 -116.5t72 -79t110 -28.5q66 0 112 33zM472.5 894.5q24.5 -24.5 24.5 -58.5t-24.5 -58.5t-58.5 -24.5t-58.5 24.5t-24.5 58.5t24.5 58.5t58.5 24.5t58.5 -24.5z" />
    <glyph glyph-name="cdotaccent" unicode="&#x10b;" horiz-adv-x="587" 
d="M380 133.5q29 22.5 43 64.5l117 -12l7 -9q-23 -90 -86 -138.5t-159 -48.5q-72 0 -132 33t-95 92.5t-35 134.5t35 134.5t95 92.5t132 33q99 0 164 -50t81 -136l-7 -10l-117 -12q-9 40 -40 63.5t-80 23.5q-56 0 -91.5 -36.5t-35.5 -102.5t35.5 -102.5t91.5 -36.5
q48 0 77 22.5zM364.5 694.5q24.5 -24.5 24.5 -58.5t-24.5 -58.5t-58.5 -24.5t-58.5 24.5t-24.5 58.5t24.5 58.5t58.5 24.5t58.5 -24.5z" />
    <glyph glyph-name="Ccaron" unicode="&#x10c;" horiz-adv-x="753" 
d="M515 159q46 33 64 93l136 -18l9 -14q-34 -111 -118 -170.5t-204 -59.5q-98 0 -180.5 45t-131 126.5t-48.5 188.5t48.5 188.5t131 126.5t180.5 45q86 0 153.5 -29t110.5 -81t58 -120l-8 -14l-137 -18q-17 60 -64 93t-116 33q-62 0 -108 -28.5t-70.5 -79.5t-24.5 -116
q0 -66 25 -116.5t72 -79t110 -28.5q66 0 112 33zM361 760l-114 147h103l56 -57l55 57h104l-114 -147h-90z" />
    <glyph glyph-name="ccaron" unicode="&#x10d;" horiz-adv-x="587" 
d="M380 133.5q29 22.5 43 64.5l117 -12l7 -9q-23 -90 -86 -138.5t-159 -48.5q-72 0 -132 33t-95 92.5t-35 134.5t35 134.5t95 92.5t132 33q99 0 164 -50t81 -136l-7 -10l-117 -12q-9 40 -40 63.5t-80 23.5q-56 0 -91.5 -36.5t-35.5 -102.5t35.5 -102.5t91.5 -36.5
q48 0 77 22.5zM260 560l-114 147h103l56 -57l55 57h104l-114 -147h-90z" />
    <glyph glyph-name="Dcaron" unicode="&#x10e;" horiz-adv-x="734" 
d="M69 0v700h249q114 0 198 -41.5t129.5 -120.5t45.5 -188t-45.5 -188t-129.5 -120.5t-198 -41.5h-249zM222 564v-428h91q110 0 167.5 53.5t57.5 160.5t-57.5 160.5t-167.5 53.5h-91zM197 760l-114 147h103l56 -57l55 57h104l-114 -147h-90z" />
    <glyph glyph-name="dcaron" unicode="&#x10f;" horiz-adv-x="788" 
d="M575 0h-139v52q-60 -62 -155 -62q-59 0 -114.5 29.5t-91 88.5t-35.5 142q0 84 35 142.5t92 88t122 29.5q82 0 147 -51v271h139v-730zM698 594q-27 3 -45 21.5t-18 45.5q0 29 19.5 49t49.5 20t50 -21.5t20 -55.5q0 -113 -138 -168l-12 28q62 29 74 81zM218.5 144
q36.5 -38 94.5 -38q52 0 87.5 32.5t35.5 87.5v48q0 54 -35.5 87t-88.5 33q-58 0 -94 -38t-36 -106t36.5 -106z" />
    <glyph glyph-name="Dcroat" unicode="&#x110;" horiz-adv-x="754" 
d="M89 700h249q114 0 198.5 -41.5t130 -120.5t45.5 -188t-45.5 -188t-130 -120.5t-198.5 -41.5h-249v294h-71v112h71v294zM242 564v-158h144v-112h-144v-158h92q109 0 167 53.5t58 160.5t-58 160.5t-167 53.5h-92z" />
    <glyph glyph-name="dcroat" unicode="&#x111;" horiz-adv-x="638" 
d="M575 655h68v-91h-68v-564h-139v52q-60 -62 -155 -62q-59 0 -114.5 29.5t-91 88.5t-35.5 142q0 84 35 142.5t92 88t122 29.5q82 0 147 -51v105h-164v91h164v75h139v-75zM218.5 144q36.5 -38 94.5 -38q52 0 87.5 32.5t35.5 87.5v48q0 54 -35.5 87t-88.5 33q-58 0 -94 -38
t-36 -106t36.5 -106z" />
    <glyph glyph-name="Emacron" unicode="&#x112;" horiz-adv-x="586" 
d="M222 415h284v-130h-284v-151h322v-134h-475v700h464v-130h-311v-155zM438 785h-260v94h260v-94z" />
    <glyph glyph-name="emacron" unicode="&#x113;" horiz-adv-x="595" 
d="M172 216q5 -52 40 -82.5t88 -30.5q86 0 114 77l118 -12l6 -12q-27 -83 -88.5 -124.5t-152.5 -41.5q-74 0 -132.5 32.5t-91.5 91.5t-33 136q0 76 35.5 135t94.5 92t127 33q74 0 131.5 -31t89 -89t31.5 -137v-37h-377zM416 306q-5 45 -38 72t-82 27q-44 0 -77 -27t-43 -72
h240zM429 585h-260v94h260v-94z" />
    <glyph glyph-name="Ebreve" unicode="&#x114;" horiz-adv-x="586" 
d="M222 415h284v-130h-284v-151h322v-134h-475v700h464v-130h-311v-155zM386 802.5q-30 -30.5 -82 -30.5t-82 30.5t-30 80.5h81q0 -15 8 -25t23 -10t23 10t8 25h81q0 -50 -30 -80.5z" />
    <glyph glyph-name="ebreve" unicode="&#x115;" horiz-adv-x="595" 
d="M172 216q5 -52 40 -82.5t88 -30.5q86 0 114 77l118 -12l6 -12q-27 -83 -88.5 -124.5t-152.5 -41.5q-74 0 -132.5 32.5t-91.5 91.5t-33 136q0 76 35.5 135t94.5 92t127 33q74 0 131.5 -31t89 -89t31.5 -137v-37h-377zM416 306q-5 45 -38 72t-82 27q-44 0 -77 -27t-43 -72
h240zM381 602.5q-30 -30.5 -82 -30.5t-82 30.5t-30 80.5h81q0 -15 8 -25t23 -10t23 10t8 25h81q0 -50 -30 -80.5z" />
    <glyph glyph-name="Edotaccent" unicode="&#x116;" horiz-adv-x="586" 
d="M222 415h284v-130h-284v-151h322v-134h-475v700h464v-130h-311v-155zM357.5 894.5q24.5 -24.5 24.5 -58.5t-24.5 -58.5t-58.5 -24.5t-58.5 24.5t-24.5 58.5t24.5 58.5t58.5 24.5t58.5 -24.5z" />
    <glyph glyph-name="edotaccent" unicode="&#x117;" horiz-adv-x="595" 
d="M172 216q5 -52 40 -82.5t88 -30.5q86 0 114 77l118 -12l6 -12q-27 -83 -88.5 -124.5t-152.5 -41.5q-74 0 -132.5 32.5t-91.5 91.5t-33 136q0 76 35.5 135t94.5 92t127 33q74 0 131.5 -31t89 -89t31.5 -137v-37h-377zM416 306q-5 45 -38 72t-82 27q-44 0 -77 -27t-43 -72
h240zM356.5 694.5q24.5 -24.5 24.5 -58.5t-24.5 -58.5t-58.5 -24.5t-58.5 24.5t-24.5 58.5t24.5 58.5t58.5 24.5t58.5 -24.5z" />
    <glyph glyph-name="Eogonek" unicode="&#x118;" horiz-adv-x="586" 
d="M544 0q-53 -47 -53 -80q0 -13 8 -20.5t19 -7.5q21 0 37 24l54 -40v-10q-17 -27 -42.5 -41.5t-58.5 -14.5q-48 0 -75 25t-27 64q0 32 16.5 59t39.5 42h-393v700h464v-130h-311v-155h284v-130h-284v-151h322v-134z" />
    <glyph glyph-name="eogonek" unicode="&#x119;" horiz-adv-x="595" 
d="M253.5 -50q12.5 24 30.5 41q-71 2 -126.5 35t-86.5 91t-31 133q0 76 35.5 135t94.5 92t127 33q74 0 131.5 -31t89 -89t31.5 -137v-37h-377q5 -52 40 -82.5t88 -30.5q86 0 114 77l118 -12l6 -12q-20 -60 -54.5 -94.5t-87.5 -56.5q-36 -15 -53 -36.5t-17 -43.5
q0 -16 8 -24.5t20 -8.5q20 0 36 24l54 -40v-10q-36 -56 -100 -56q-49 0 -76 25t-27 64q0 27 12.5 51zM416 306q-5 45 -38 72t-82 27q-44 0 -77 -27t-43 -72h240z" />
    <glyph glyph-name="Ecaron" unicode="&#x11a;" horiz-adv-x="586" 
d="M222 415h284v-130h-284v-151h322v-134h-475v700h464v-130h-311v-155zM252 760l-114 147h103l56 -57l55 57h104l-114 -147h-90z" />
    <glyph glyph-name="ecaron" unicode="&#x11b;" horiz-adv-x="595" 
d="M172 216q5 -52 40 -82.5t88 -30.5q86 0 114 77l118 -12l6 -12q-27 -83 -88.5 -124.5t-152.5 -41.5q-74 0 -132.5 32.5t-91.5 91.5t-33 136q0 76 35.5 135t94.5 92t127 33q74 0 131.5 -31t89 -89t31.5 -137v-37h-377zM416 306q-5 45 -38 72t-82 27q-44 0 -77 -27t-43 -72
h240zM250 560l-114 147h103l56 -57l55 57h104l-114 -147h-90z" />
    <glyph glyph-name="Gcircumflex" unicode="&#x11c;" horiz-adv-x="778" 
d="M728 379v-51q0 -99 -39.5 -175.5t-113 -119.5t-171.5 -43q-100 0 -183 46.5t-131 128.5t-48 185t48.5 185t131.5 128.5t182 46.5q120 0 204.5 -59t112.5 -166l-8 -13l-137 -19q-18 61 -62 93t-113 32q-60 0 -106.5 -29t-72.5 -81t-26 -118q0 -67 25.5 -118t73 -79.5
t111.5 -28.5q74 0 119 37t58 106h-248v112h393zM461 760l-55 57l-56 -57h-103l114 147h90l114 -147h-104z" />
    <glyph glyph-name="gcircumflex" unicode="&#x11d;" horiz-adv-x="610" 
d="M489.5 -149.5q-65.5 -60.5 -187.5 -60.5q-106 0 -162.5 42t-72.5 109l10 11l128 14q18 -65 96 -65q59 0 90 30t31 84v36q-31 -27 -62.5 -39t-78.5 -12q-65 0 -120 31t-88 89t-33 135t33.5 135t89 89t118.5 31q83 0 141 -54v44h133v-480q0 -109 -65.5 -169.5zM422 281
q0 53 -34.5 85t-85.5 32q-56 0 -92.5 -35t-36.5 -108t36.5 -108t92.5 -35q54 0 87 32t33 84v53zM358 560l-55 57l-56 -57h-103l114 147h90l114 -147h-104z" />
    <glyph glyph-name="Gbreve" unicode="&#x11e;" horiz-adv-x="778" 
d="M728 379v-51q0 -99 -39.5 -175.5t-113 -119.5t-171.5 -43q-100 0 -183 46.5t-131 128.5t-48 185t48.5 185t131.5 128.5t182 46.5q120 0 204.5 -59t112.5 -166l-8 -13l-137 -19q-18 61 -62 93t-113 32q-60 0 -106.5 -29t-72.5 -81t-26 -118q0 -67 25.5 -118t73 -79.5
t111.5 -28.5q74 0 119 37t58 106h-248v112h393zM488 802.5q-30 -30.5 -82 -30.5t-82 30.5t-30 80.5h81q0 -15 8 -25t23 -10t23 10t8 25h81q0 -50 -30 -80.5z" />
    <glyph glyph-name="gbreve" unicode="&#x11f;" horiz-adv-x="610" 
d="M489.5 -149.5q-65.5 -60.5 -187.5 -60.5q-106 0 -162.5 42t-72.5 109l10 11l128 14q18 -65 96 -65q59 0 90 30t31 84v36q-31 -27 -62.5 -39t-78.5 -12q-65 0 -120 31t-88 89t-33 135t33.5 135t89 89t118.5 31q83 0 141 -54v44h133v-480q0 -109 -65.5 -169.5zM422 281
q0 53 -34.5 85t-85.5 32q-56 0 -92.5 -35t-36.5 -108t36.5 -108t92.5 -35q54 0 87 32t33 84v53zM383 602.5q-30 -30.5 -82 -30.5t-82 30.5t-30 80.5h81q0 -15 8 -25t23 -10t23 10t8 25h81q0 -50 -30 -80.5z" />
    <glyph glyph-name="Gdotaccent" unicode="&#x120;" horiz-adv-x="778" 
d="M728 379v-51q0 -99 -39.5 -175.5t-113 -119.5t-171.5 -43q-100 0 -183 46.5t-131 128.5t-48 185t48.5 185t131.5 128.5t182 46.5q120 0 204.5 -59t112.5 -166l-8 -13l-137 -19q-18 61 -62 93t-113 32q-60 0 -106.5 -29t-72.5 -81t-26 -118q0 -67 25.5 -118t73 -79.5
t111.5 -28.5q74 0 119 37t58 106h-248v112h393zM466.5 894.5q24.5 -24.5 24.5 -58.5t-24.5 -58.5t-58.5 -24.5t-58.5 24.5t-24.5 58.5t24.5 58.5t58.5 24.5t58.5 -24.5z" />
    <glyph glyph-name="gdotaccent" unicode="&#x121;" horiz-adv-x="610" 
d="M489.5 -149.5q-65.5 -60.5 -187.5 -60.5q-106 0 -162.5 42t-72.5 109l10 11l128 14q18 -65 96 -65q59 0 90 30t31 84v36q-31 -27 -62.5 -39t-78.5 -12q-65 0 -120 31t-88 89t-33 135t33.5 135t89 89t118.5 31q83 0 141 -54v44h133v-480q0 -109 -65.5 -169.5zM422 281
q0 53 -34.5 85t-85.5 32q-56 0 -92.5 -35t-36.5 -108t36.5 -108t92.5 -35q54 0 87 32t33 84v53zM359.5 694.5q24.5 -24.5 24.5 -58.5t-24.5 -58.5t-58.5 -24.5t-58.5 24.5t-24.5 58.5t24.5 58.5t58.5 24.5t58.5 -24.5z" />
    <glyph glyph-name="uni0122" unicode="&#x122;" horiz-adv-x="778" 
d="M728 379v-51q0 -99 -39.5 -175.5t-113 -119.5t-171.5 -43q-100 0 -183 46.5t-131 128.5t-48 185t48.5 185t131.5 128.5t182 46.5q120 0 204.5 -59t112.5 -166l-8 -13l-137 -19q-18 61 -62 93t-113 32q-60 0 -106.5 -29t-72.5 -81t-26 -118q0 -67 25.5 -118t73 -79.5
t111.5 -28.5q74 0 119 37t58 106h-248v112h393zM384.5 -262q18.5 22 24.5 54q-32 0 -53 23.5t-21 52.5q0 31 22.5 53.5t53.5 22.5q33 0 54.5 -23t21.5 -58q0 -62 -33.5 -110.5t-97.5 -80.5l-19 27q29 17 47.5 39z" />
    <glyph glyph-name="uni0123" unicode="&#x123;" horiz-adv-x="610" 
d="M325.5 772.5q-21.5 -20.5 -28.5 -50.5q34 -3 54 -25t20 -51q0 -33 -22 -54.5t-54 -21.5q-33 0 -54.5 24t-21.5 64q0 62 41.5 111.5t108.5 70.5l13 -30q-35 -17 -56.5 -37.5zM489.5 -149.5q-65.5 -60.5 -187.5 -60.5q-106 0 -162.5 42t-72.5 109l10 11l128 14
q18 -65 96 -65q59 0 90 30t31 84v36q-31 -27 -62.5 -39t-78.5 -12q-65 0 -120 31t-88 89t-33 135t33.5 135t89 89t118.5 31q83 0 141 -54v44h133v-480q0 -109 -65.5 -169.5zM422 281q0 53 -34.5 85t-85.5 32q-56 0 -92.5 -35t-36.5 -108t36.5 -108t92.5 -35q54 0 87 32
t33 84v53z" />
    <glyph glyph-name="Hcircumflex" unicode="&#x124;" horiz-adv-x="711" 
d="M222 418h267v282h153v-700h-153v282h-267v-282h-153v700h153v-282zM411 760l-55 57l-56 -57h-103l114 147h90l114 -147h-104z" />
    <glyph glyph-name="hcircumflex" unicode="&#x125;" horiz-adv-x="620" 
d="M206 438q30 32 76 52t97 20q81 0 131 -47t50 -127v-336h-140v301q0 44 -24.5 66.5t-63.5 22.5q-37 0 -70 -18.5t-56 -52.5v-319h-140v730h140v-292zM277 760l-55 57l-56 -57h-103l114 147h90l114 -147h-104z" />
    <glyph glyph-name="Hbar" unicode="&#x126;" horiz-adv-x="744" 
d="M239 588h267v112h153v-112h76v-96h-76v-492h-153v282h-267v-282h-153v492h-77v96h77v112h153v-112zM506 492h-267v-74h267v74z" />
    <glyph glyph-name="hbar" unicode="&#x127;" horiz-adv-x="620" 
d="M203 655h163v-91h-163v-126q30 32 76 52t97 20q81 0 131 -47t50 -127v-336h-140v301q0 44 -24.5 66.5t-63.5 22.5q-37 0 -70 -18.5t-56 -52.5v-319h-140v564h-68v91h68v75h140v-75z" />
    <glyph glyph-name="Itilde" unicode="&#x128;" horiz-adv-x="291" 
d="M222 0h-153v700h153v-700zM297 797.5q-33 -33.5 -81 -33.5q-29 0 -47 8t-38 22q-13 10 -23 14.5t-23 4.5q-18 0 -28.5 -11.5t-13.5 -30.5h-84q3 67 36 100.5t81 33.5q29 0 47 -8t38 -22q13 -10 23 -14.5t23 -4.5q18 0 28.5 11.5t13.5 30.5h84q-3 -67 -36 -100.5z" />
    <glyph glyph-name="itilde" unicode="&#x129;" horiz-adv-x="269" 
d="M204 0h-139v500h139v-500zM286 597.5q-33 -33.5 -81 -33.5q-29 0 -47 8t-38 22q-13 10 -23 14.5t-23 4.5q-18 0 -28.5 -11.5t-13.5 -30.5h-84q3 67 36 100.5t81 33.5q29 0 47 -8t38 -22q13 -10 23 -14.5t23 -4.5q18 0 28.5 11.5t13.5 30.5h84q-3 -67 -36 -100.5z" />
    <glyph glyph-name="Imacron" unicode="&#x12a;" horiz-adv-x="291" 
d="M222 0h-153v700h153v-700zM276 785h-260v94h260v-94z" />
    <glyph glyph-name="imacron" unicode="&#x12b;" horiz-adv-x="269" 
d="M204 0h-139v500h139v-500zM265 585h-260v94h260v-94z" />
    <glyph glyph-name="Ibreve" unicode="&#x12c;" horiz-adv-x="291" 
d="M222 0h-153v700h153v-700zM228 802.5q-30 -30.5 -82 -30.5t-82 30.5t-30 80.5h81q0 -15 8 -25t23 -10t23 10t8 25h81q0 -50 -30 -80.5z" />
    <glyph glyph-name="ibreve" unicode="&#x12d;" horiz-adv-x="269" 
d="M204 0h-139v500h139v-500zM217 602.5q-30 -30.5 -82 -30.5t-82 30.5t-30 80.5h81q0 -15 8 -25t23 -10t23 10t8 25h81q0 -50 -30 -80.5z" />
    <glyph glyph-name="Iogonek" unicode="&#x12e;" horiz-adv-x="291" 
d="M40 -165q-27 25 -27 64q0 32 16.5 59t39.5 42v700h153v-700q-64 -6 -94 -29t-30 -49q0 -14 8 -22t20 -8q20 0 36 24l54 -40v-10q-36 -56 -100 -56q-49 0 -76 25z" />
    <glyph glyph-name="iogonek" unicode="&#x12f;" horiz-adv-x="269" 
d="M192 693q24 -24 24 -57t-24 -57t-57 -24q-34 0 -58 24t-24 57t24 57t58 24q33 0 57 -24zM35.5 -165q-27.5 25 -27.5 64q0 32 17 59t40 42v500h139v-500q-40 -4 -65 -17.5t-35 -30t-10 -29.5q0 -15 7.5 -23t19.5 -8q21 0 37 24l54 -40v-10q-36 -56 -101 -56
q-48 0 -75.5 25z" />
    <glyph glyph-name="Idotaccent" unicode="&#x130;" horiz-adv-x="291" 
d="M222 0h-153v700h153v-700zM204.5 894.5q24.5 -24.5 24.5 -58.5t-24.5 -58.5t-58.5 -24.5t-58.5 24.5t-24.5 58.5t24.5 58.5t58.5 24.5t58.5 -24.5z" />
    <glyph glyph-name="dotlessi" unicode="&#x131;" horiz-adv-x="269" 
d="M204 0h-139v500h139v-500z" />
    <glyph glyph-name="IJ" unicode="&#x132;" horiz-adv-x="849" 
d="M222 0h-153v700h153v-700zM543 114q87 0 87 110v476h153v-471q0 -113 -64 -176t-176 -63q-72 0 -124 28.5t-80.5 76.5t-31.5 105l9 12l134 18q1 -116 93 -116z" />
    <glyph glyph-name="ij" unicode="&#x133;" horiz-adv-x="538" 
d="M192 693q24 -24 24 -57t-24 -57t-57 -24q-34 0 -58 24t-24 57t24 57t58 24q33 0 57 -24zM204 0h-139v500h139v-500zM461 693q24 -24 24 -57t-24 -57t-57 -24q-34 0 -58 24t-24 57t24 57t58 24q33 0 57 -24zM473 500v-554q0 -78 -42.5 -117t-111.5 -39q-47 0 -85 10v119
l10 5q26 -8 44 -8q46 0 46 51v533h139z" />
    <glyph glyph-name="Jcircumflex" unicode="&#x134;" horiz-adv-x="571" 
d="M265 114q87 0 87 110v476h153v-471q0 -113 -64 -176t-176 -63q-72 0 -124 28.5t-80.5 76.5t-31.5 105l9 12l134 18q1 -116 93 -116zM403 760l-55 57l-56 -57h-103l114 147h90l114 -147h-104z" />
    <glyph glyph-name="jcircumflex" unicode="&#x135;" horiz-adv-x="269" 
d="M190 560l-55 57l-56 -57h-103l114 147h90l114 -147h-104zM-35 -200v119l10 5q26 -8 44 -8q46 0 46 51v533h139v-554q0 -78 -42.5 -117t-111.5 -39q-47 0 -85 10z" />
    <glyph glyph-name="uni0136" unicode="&#x136;" horiz-adv-x="656" 
d="M646 0h-190l-229 313h-5v-313h-153v700h153v-282h5l232 282h175l-271 -327zM305.5 -262q18.5 22 24.5 54q-32 0 -52.5 23.5t-20.5 52.5q0 31 22 53.5t53 22.5q33 0 54.5 -23t21.5 -58q0 -62 -33.5 -110.5t-97.5 -80.5l-19 27q29 17 47.5 39z" />
    <glyph glyph-name="uni0137" unicode="&#x137;" horiz-adv-x="538" 
d="M209 210h-7v-210h-139v730h139v-393h7l142 163h165l-191 -219l202 -281h-165zM259.5 -262q18.5 22 25.5 54q-32 0 -53 23.5t-21 52.5q0 31 22 53.5t54 22.5q33 0 54 -23t21 -58q0 -62 -33.5 -110.5t-97.5 -80.5l-19 27q29 17 47.5 39z" />
    <glyph glyph-name="kgreenlandic" unicode="&#x138;" horiz-adv-x="538" 
d="M63 0v500h139v-163h7l142 163h165l-191 -219l202 -281h-165l-153 210h-7v-210h-139z" />
    <glyph glyph-name="Lacute" unicode="&#x139;" horiz-adv-x="598" 
d="M222 700v-564h340v-136h-493v700h153zM302 907l-117 -146h-112l78 146h151z" />
    <glyph glyph-name="lacute" unicode="&#x13a;" horiz-adv-x="265" 
d="M202 0h-139v730h139v-730zM294 907l-117 -146h-112l78 146h151z" />
    <glyph glyph-name="uni013B" unicode="&#x13b;" horiz-adv-x="598" 
d="M222 700v-564h340v-136h-493v700h153zM292.5 -262q18.5 22 24.5 54q-32 0 -53 23.5t-21 52.5q0 31 22.5 53.5t53.5 22.5q33 0 54.5 -23t21.5 -58q0 -62 -33.5 -110.5t-97.5 -80.5l-19 27q29 17 47.5 39z" />
    <glyph glyph-name="uni013C" unicode="&#x13c;" horiz-adv-x="265" 
d="M202 0h-139v730h139v-730zM101.5 -262q18.5 22 25.5 54q-32 0 -53 23.5t-21 52.5q0 31 22.5 53.5t53.5 22.5q33 0 54 -23t21 -58q0 -62 -33.5 -110.5t-97.5 -80.5l-19 27q29 17 47.5 39z" />
    <glyph glyph-name="Lcaron" unicode="&#x13d;" horiz-adv-x="598" 
d="M485 594q-27 3 -45 21.5t-18 45.5q0 29 19.5 49t49.5 20t50.5 -21.5t20.5 -55.5q0 -112 -139 -168l-11 28q61 30 73 81zM222 700v-564h340v-136h-493v700h153z" />
    <glyph glyph-name="lcaron" unicode="&#x13e;" horiz-adv-x="420" 
d="M202 0h-139v730h139v-730zM324 594q-27 3 -45 21.5t-18 45.5q0 29 19.5 49t49.5 20t50.5 -21.5t20.5 -55.5q0 -112 -139 -168l-11 28q61 30 73 81z" />
    <glyph glyph-name="Ldot" unicode="&#x13f;" horiz-adv-x="598" 
d="M222 700v-564h340v-136h-493v700h153zM544 410.5q25 -25.5 25 -60.5q0 -34 -25 -59.5t-60 -25.5q-34 0 -59.5 25.5t-25.5 59.5q0 35 25 60.5t60 25.5t60 -25.5z" />
    <glyph glyph-name="ldot" unicode="&#x140;" horiz-adv-x="265" 
d="M202 0h-139v730h139v-730zM391 410.5q25 -25.5 25 -60.5q0 -34 -25 -59.5t-60 -25.5q-34 0 -59.5 25.5t-25.5 59.5q0 35 25 60.5t60 25.5t60 -25.5z" />
    <glyph glyph-name="Lslash" unicode="&#x141;" horiz-adv-x="603" 
d="M26 157l-48 87v19l96 55v382h153v-295l95 54l51 -91v-13l-146 -83v-136h340v-136h-493v184z" />
    <glyph glyph-name="lslash" unicode="&#x142;" horiz-adv-x="267" 
d="M204 406l69 40l49 -82v-16l-118 -69v-279h-140v198l-69 -39l-50 82v16l119 68v405h140v-324z" />
    <glyph glyph-name="Nacute" unicode="&#x143;" horiz-adv-x="732" 
d="M510 700h153v-700h-165l-257 426l-12 57h-7v-483h-153v700h165l257 -426l12 -57h7v483zM528 907l-117 -146h-112l78 146h151z" />
    <glyph glyph-name="nacute" unicode="&#x144;" 
d="M203 435q71 75 166 75q81 0 127 -47t46 -121v-342h-140v301q0 44 -20.5 66.5t-60.5 22.5q-35 0 -67 -21.5t-51 -53.5v-315h-140v500h140v-65zM456 707l-117 -146h-112l78 146h151z" />
    <glyph glyph-name="uni0145" unicode="&#x145;" horiz-adv-x="732" 
d="M510 700h153v-700h-165l-257 426l-12 57h-7v-483h-153v700h165l257 -426l12 -57h7v483zM340.5 -262q18.5 22 25.5 54q-32 0 -53 23.5t-21 52.5q0 31 22.5 53.5t53.5 22.5q33 0 54 -23t21 -58q0 -62 -33.5 -110.5t-97.5 -80.5l-19 27q29 17 47.5 39z" />
    <glyph glyph-name="uni0146" unicode="&#x146;" 
d="M203 435q71 75 166 75q81 0 127 -47t46 -121v-342h-140v301q0 44 -20.5 66.5t-60.5 22.5q-35 0 -67 -21.5t-51 -53.5v-315h-140v500h140v-65zM269.5 -262q18.5 22 25.5 54q-32 0 -53 23.5t-21 52.5q0 31 22.5 53.5t53.5 22.5q33 0 54 -23t21 -58q0 -62 -33.5 -110.5
t-97.5 -80.5l-19 27q29 17 47.5 39z" />
    <glyph glyph-name="Ncaron" unicode="&#x147;" horiz-adv-x="732" 
d="M510 700h153v-700h-165l-257 426l-12 57h-7v-483h-153v700h165l257 -426l12 -57h7v483zM321 760l-114 147h103l56 -57l55 57h104l-114 -147h-90z" />
    <glyph glyph-name="ncaron" unicode="&#x148;" 
d="M203 435q71 75 166 75q81 0 127 -47t46 -121v-342h-140v301q0 44 -20.5 66.5t-60.5 22.5q-35 0 -67 -21.5t-51 -53.5v-315h-140v500h140v-65zM265 560l-114 147h103l56 -57l55 57h104l-114 -147h-90z" />
    <glyph glyph-name="napostrophe" unicode="&#x149;" 
d="M59 635q-27 3 -45.5 21.5t-18.5 45.5q0 29 20 49t50 20t50 -21.5t20 -55.5q0 -113 -139 -168l-11 28q62 30 74 81zM203 435q71 75 166 75q81 0 127 -47t46 -121v-342h-140v301q0 44 -20.5 66.5t-60.5 22.5q-35 0 -67 -21.5t-51 -53.5v-315h-140v500h140v-65z" />
    <glyph glyph-name="Eng" unicode="&#x14a;" horiz-adv-x="732" 
d="M607 -149.5q-56 -60.5 -168 -60.5q-59 0 -100 12l33 125q9 -6 25.5 -9.5t33.5 -3.5q37 0 58 23t21 63l-269 426l-12 57h-7v-483h-153v700h165l257 -407l12 -57h7v464h153v-680q0 -109 -56 -169.5z" />
    <glyph glyph-name="eng" unicode="&#x14b;" 
d="M302 -81l11 5q24 -8 43 -8q23 0 34.5 12t11.5 39v334q0 44 -20.5 66.5t-60.5 22.5q-35 0 -67 -21.5t-51 -53.5v-315h-140v500h140v-65q71 75 166 75q81 0 127 -47t46 -121v-396q0 -78 -42.5 -117t-112.5 -39q-45 0 -85 10v119z" />
    <glyph glyph-name="Omacron" unicode="&#x14c;" horiz-adv-x="802" 
d="M713.5 162.5q-46.5 -81.5 -128.5 -127t-184 -45.5t-184 45.5t-128.5 127t-46.5 187.5t46.5 187.5t128.5 127t184 45.5t184 -45.5t128.5 -127t46.5 -187.5t-46.5 -187.5zM580.5 466.5q-25.5 50.5 -72 79t-107.5 28.5q-62 0 -108.5 -28.5t-71.5 -79t-25 -116.5t25 -116.5
t71.5 -79t108.5 -28.5q61 0 107.5 28.5t72 79t25.5 116.5t-25.5 116.5zM531 785h-260v94h260v-94z" />
    <glyph glyph-name="omacron" unicode="&#x14d;" horiz-adv-x="625" 
d="M453 476q62 -34 97 -93t35 -133t-35 -133t-97 -93t-140 -34q-79 0 -141 34t-97 93t-35 133t35 133t97 93t141 34q78 0 140 -34zM217.5 351.5q-37.5 -37.5 -37.5 -101.5t37.5 -101.5t95.5 -37.5t95 37.5t37 101.5t-37 101.5t-95 37.5t-95.5 -37.5zM443 585h-260v94h260
v-94z" />
    <glyph glyph-name="Obreve" unicode="&#x14e;" horiz-adv-x="802" 
d="M713.5 162.5q-46.5 -81.5 -128.5 -127t-184 -45.5t-184 45.5t-128.5 127t-46.5 187.5t46.5 187.5t128.5 127t184 45.5t184 -45.5t128.5 -127t46.5 -187.5t-46.5 -187.5zM580.5 466.5q-25.5 50.5 -72 79t-107.5 28.5q-62 0 -108.5 -28.5t-71.5 -79t-25 -116.5t25 -116.5
t71.5 -79t108.5 -28.5q61 0 107.5 28.5t72 79t25.5 116.5t-25.5 116.5zM483 802.5q-30 -30.5 -82 -30.5t-82 30.5t-30 80.5h81q0 -15 8 -25t23 -10t23 10t8 25h81q0 -50 -30 -80.5z" />
    <glyph glyph-name="obreve" unicode="&#x14f;" horiz-adv-x="625" 
d="M453 476q62 -34 97 -93t35 -133t-35 -133t-97 -93t-140 -34q-79 0 -141 34t-97 93t-35 133t35 133t97 93t141 34q78 0 140 -34zM217.5 351.5q-37.5 -37.5 -37.5 -101.5t37.5 -101.5t95.5 -37.5t95 37.5t37 101.5t-37 101.5t-95 37.5t-95.5 -37.5zM395 602.5
q-30 -30.5 -82 -30.5t-82 30.5t-30 80.5h81q0 -15 8 -25t23 -10t23 10t8 25h81q0 -50 -30 -80.5z" />
    <glyph glyph-name="Ohungarumlaut" unicode="&#x150;" horiz-adv-x="802" 
d="M713.5 162.5q-46.5 -81.5 -128.5 -127t-184 -45.5t-184 45.5t-128.5 127t-46.5 187.5t46.5 187.5t128.5 127t184 45.5t184 -45.5t128.5 -127t46.5 -187.5t-46.5 -187.5zM580.5 466.5q-25.5 50.5 -72 79t-107.5 28.5q-62 0 -108.5 -28.5t-71.5 -79t-25 -116.5t25 -116.5
t71.5 -79t108.5 -28.5q61 0 107.5 28.5t72 79t25.5 116.5t-25.5 116.5zM452 907l-103 -146h-104l64 146h143zM637 907l-103 -146h-104l64 146h143z" />
    <glyph glyph-name="ohungarumlaut" unicode="&#x151;" horiz-adv-x="625" 
d="M453 476q62 -34 97 -93t35 -133t-35 -133t-97 -93t-140 -34q-79 0 -141 34t-97 93t-35 133t35 133t97 93t141 34q78 0 140 -34zM217.5 351.5q-37.5 -37.5 -37.5 -101.5t37.5 -101.5t95.5 -37.5t95 37.5t37 101.5t-37 101.5t-95 37.5t-95.5 -37.5zM354 707l-103 -146h-104
l64 146h143zM539 707l-103 -146h-104l64 146h143z" />
    <glyph glyph-name="OE" unicode="&#x152;" horiz-adv-x="1124" 
d="M760 415h284v-130h-284v-151h322v-134h-475v59q-82 -69 -206 -69q-102 0 -184 45.5t-128.5 127t-46.5 187.5t46.5 187.5t128.5 127t184 45.5q58 0 111 -18t95 -52v60h464v-130h-311v-155zM580 466q-26 51 -73 79.5t-106 28.5q-60 0 -106.5 -28.5t-72.5 -79.5t-26 -116
t26 -116t72.5 -79.5t106.5 -28.5q62 0 108.5 28.5t71.5 79t25 116.5q0 65 -26 116z" />
    <glyph glyph-name="oe" unicode="&#x153;" horiz-adv-x="1008" 
d="M624.5 133.5q34.5 -30.5 88.5 -30.5q86 0 114 77l117 -12l7 -12q-28 -83 -89.5 -124.5t-151.5 -41.5q-60 0 -109.5 23.5t-84.5 67.5q-75 -91 -203 -91q-79 0 -141 34t-97 93t-35 133t35 133t97 93t141 34q126 0 205 -95q79 95 192 95q74 0 131 -31t88.5 -89t31.5 -137
v-37h-376q5 -52 39.5 -82.5zM829 306q-5 45 -38 72t-82 27q-44 0 -77 -27t-43 -72h240zM217.5 351.5q-37.5 -37.5 -37.5 -101.5t37.5 -101.5t95.5 -37.5t95 37.5t37 101.5t-37 101.5t-95 37.5t-95.5 -37.5z" />
    <glyph glyph-name="Racute" unicode="&#x154;" horiz-adv-x="654" 
d="M222 241v-241h-153v700h265q123 0 196 -61.5t73 -170.5q0 -127 -115 -197v-11l151 -260h-171l-137 241h-109zM337 362q57 0 89 29t32 79q0 51 -32 80t-89 29h-115v-217h115zM451 907l-117 -146h-112l78 146h151z" />
    <glyph glyph-name="racute" unicode="&#x155;" horiz-adv-x="404" 
d="M203 440q27 32 62 51t77 19q30 0 48 -8l-18 -110l-7 -7q-20 5 -34 5q-41 0 -74 -23t-54 -67v-300h-140v500h140v-60zM374 707l-117 -146h-112l78 146h151z" />
    <glyph glyph-name="uni0156" unicode="&#x156;" horiz-adv-x="654" 
d="M222 241v-241h-153v700h265q123 0 196 -61.5t73 -170.5q0 -127 -115 -197v-11l151 -260h-171l-137 241h-109zM337 362q57 0 89 29t32 79q0 51 -32 80t-89 29h-115v-217h115zM314.5 -262q18.5 22 24.5 54q-32 0 -53 23.5t-21 52.5q0 31 22.5 53.5t53.5 22.5q33 0 54.5 -23
t21.5 -58q0 -62 -33.5 -110.5t-97.5 -80.5l-19 27q29 17 47.5 39z" />
    <glyph glyph-name="uni0157" unicode="&#x157;" horiz-adv-x="404" 
d="M203 440q27 32 62 51t77 19q30 0 48 -8l-18 -110l-7 -7q-20 5 -34 5q-41 0 -74 -23t-54 -67v-300h-140v500h140v-60zM100.5 -262q18.5 22 25.5 54q-32 0 -53 23.5t-21 52.5q0 31 22.5 53.5t53.5 22.5q33 0 54 -23t21 -58q0 -62 -33.5 -110.5t-97.5 -80.5l-19 27
q29 17 47.5 39z" />
    <glyph glyph-name="Rcaron" unicode="&#x158;" horiz-adv-x="654" 
d="M222 241v-241h-153v700h265q123 0 196 -61.5t73 -170.5q0 -127 -115 -197v-11l151 -260h-171l-137 241h-109zM337 362q57 0 89 29t32 79q0 51 -32 80t-89 29h-115v-217h115zM250 760l-114 147h103l56 -57l55 57h104l-114 -147h-90z" />
    <glyph glyph-name="rcaron" unicode="&#x159;" horiz-adv-x="404" 
d="M203 440q27 32 62 51t77 19q30 0 48 -8l-18 -110l-7 -7q-20 5 -34 5q-41 0 -74 -23t-54 -67v-300h-140v500h140v-60zM184 560l-114 147h103l56 -57l55 57h104l-114 -147h-90z" />
    <glyph glyph-name="Sacute" unicode="&#x15a;" 
d="M230 483q36 -20 127 -40q109 -25 163.5 -78t54.5 -143q0 -70 -35.5 -122.5t-96.5 -81t-136 -28.5q-77 0 -138 28t-98 78t-43 115l8 11l139 21q6 -60 43.5 -93.5t92.5 -33.5q50 0 81.5 25.5t31.5 69.5q0 35 -14.5 57t-49.5 38t-97 29q-95 19 -151.5 67t-56.5 126
q0 55 30.5 96t84 63.5t120.5 22.5q112 0 176.5 -52t77.5 -140l-9 -11l-129 -14q-6 49 -37.5 77.5t-83.5 28.5q-40 0 -65.5 -17.5t-25.5 -44.5q0 -34 36 -54zM459 907l-117 -146h-112l78 146h151z" />
    <glyph glyph-name="sacute" unicode="&#x15b;" horiz-adv-x="476" 
d="M278.5 394.5q-22.5 18.5 -55.5 18.5q-25 0 -42.5 -10.5t-17.5 -28.5q0 -22 28 -36t103 -34q77 -21 113 -55.5t36 -93.5q0 -47 -24.5 -84.5t-70 -59t-105.5 -21.5q-88 0 -143.5 38.5t-75.5 108.5l4 13l107 32q18 -84 109 -84q31 0 50.5 13t19.5 36q0 24 -22.5 37.5
t-87.5 30.5q-79 19 -119 55.5t-40 96.5q0 40 22.5 72.5t63.5 51.5t94 19q80 0 130 -34.5t65 -97.5l-5 -11l-107 -26q-7 35 -29.5 53.5zM388 707l-117 -146h-112l78 146h151z" />
    <glyph glyph-name="Scircumflex" unicode="&#x15c;" 
d="M230 483q36 -20 127 -40q109 -25 163.5 -78t54.5 -143q0 -70 -35.5 -122.5t-96.5 -81t-136 -28.5q-77 0 -138 28t-98 78t-43 115l8 11l139 21q6 -60 43.5 -93.5t92.5 -33.5q50 0 81.5 25.5t31.5 69.5q0 35 -14.5 57t-49.5 38t-97 29q-95 19 -151.5 67t-56.5 126
q0 55 30.5 96t84 63.5t120.5 22.5q112 0 176.5 -52t77.5 -140l-9 -11l-129 -14q-6 49 -37.5 77.5t-83.5 28.5q-40 0 -65.5 -17.5t-25.5 -44.5q0 -34 36 -54zM348 760l-55 57l-56 -57h-103l114 147h90l114 -147h-104z" />
    <glyph glyph-name="scircumflex" unicode="&#x15d;" horiz-adv-x="476" 
d="M278.5 394.5q-22.5 18.5 -55.5 18.5q-25 0 -42.5 -10.5t-17.5 -28.5q0 -22 28 -36t103 -34q77 -21 113 -55.5t36 -93.5q0 -47 -24.5 -84.5t-70 -59t-105.5 -21.5q-88 0 -143.5 38.5t-75.5 108.5l4 13l107 32q18 -84 109 -84q31 0 50.5 13t19.5 36q0 24 -22.5 37.5
t-87.5 30.5q-79 19 -119 55.5t-40 96.5q0 40 22.5 72.5t63.5 51.5t94 19q80 0 130 -34.5t65 -97.5l-5 -11l-107 -26q-7 35 -29.5 53.5zM289 560l-55 57l-56 -57h-103l114 147h90l114 -147h-104z" />
    <glyph glyph-name="Scedilla" unicode="&#x15e;" 
d="M240.5 -188.5q-26.5 18.5 -36.5 49.5l4 8l72 8q7 -17 30 -17q12 0 19.5 7t7.5 19q0 24 -28 24q-20 0 -35 -15l-62 9l-3 9l37 82q-92 14 -151 72.5t-67 143.5l8 11l139 21q6 -60 43.5 -93.5t92.5 -33.5q50 0 81.5 25.5t31.5 69.5q0 35 -14.5 57t-49.5 38t-97 29
q-95 19 -151.5 67t-56.5 126q0 55 30.5 96t84 63.5t120.5 22.5q112 0 176.5 -52t77.5 -140l-9 -11l-129 -14q-6 49 -37.5 77.5t-83.5 28.5q-40 0 -65.5 -17.5t-25.5 -44.5q0 -34 36 -54t127 -40q109 -25 163.5 -78t54.5 -143q0 -68 -33 -119.5t-91 -80.5t-129 -32l-27 -41
q20 8 39 8q37 0 59.5 -20t22.5 -55q0 -42 -29 -65.5t-76 -23.5q-44 0 -70.5 18.5z" />
    <glyph glyph-name="scedilla" unicode="&#x15f;" horiz-adv-x="476" 
d="M171.5 -188.5q-26.5 18.5 -36.5 49.5l4 8l73 8q7 -17 29 -17q27 0 27 26q0 24 -27 24q-21 0 -36 -15l-62 9l-2 9l37 84q-61 12 -100 48t-54 92l4 13l107 32q18 -84 109 -84q31 0 50.5 13t19.5 36q0 24 -22.5 37.5t-87.5 30.5q-79 19 -119 55.5t-40 96.5q0 40 22.5 72.5
t63.5 51.5t94 19q80 0 130 -34.5t65 -97.5l-5 -11l-107 -26q-7 35 -29.5 53.5t-55.5 18.5q-25 0 -42.5 -10.5t-17.5 -28.5q0 -22 28 -36t103 -34q77 -21 113 -55.5t36 -93.5q0 -45 -23.5 -82t-66.5 -59t-100 -24l-26 -41q20 8 39 8q37 0 59 -20t22 -55q0 -43 -28.5 -66
t-76.5 -23q-44 0 -70.5 18.5z" />
    <glyph glyph-name="Scaron" unicode="&#x160;" 
d="M230 483q36 -20 127 -40q109 -25 163.5 -78t54.5 -143q0 -70 -35.5 -122.5t-96.5 -81t-136 -28.5q-77 0 -138 28t-98 78t-43 115l8 11l139 21q6 -60 43.5 -93.5t92.5 -33.5q50 0 81.5 25.5t31.5 69.5q0 35 -14.5 57t-49.5 38t-97 29q-95 19 -151.5 67t-56.5 126
q0 55 30.5 96t84 63.5t120.5 22.5q112 0 176.5 -52t77.5 -140l-9 -11l-129 -14q-6 49 -37.5 77.5t-83.5 28.5q-40 0 -65.5 -17.5t-25.5 -44.5q0 -34 36 -54zM251 760l-114 147h103l56 -57l55 57h104l-114 -147h-90z" />
    <glyph glyph-name="scaron" unicode="&#x161;" horiz-adv-x="476" 
d="M278.5 394.5q-22.5 18.5 -55.5 18.5q-25 0 -42.5 -10.5t-17.5 -28.5q0 -22 28 -36t103 -34q77 -21 113 -55.5t36 -93.5q0 -47 -24.5 -84.5t-70 -59t-105.5 -21.5q-88 0 -143.5 38.5t-75.5 108.5l4 13l107 32q18 -84 109 -84q31 0 50.5 13t19.5 36q0 24 -22.5 37.5
t-87.5 30.5q-79 19 -119 55.5t-40 96.5q0 40 22.5 72.5t63.5 51.5t94 19q80 0 130 -34.5t65 -97.5l-5 -11l-107 -26q-7 35 -29.5 53.5zM185 560l-114 147h103l56 -57l55 57h104l-114 -147h-90z" />
    <glyph glyph-name="uni0162" unicode="&#x162;" horiz-adv-x="552" 
d="M200 0v564h-176v136h505v-136h-176v-564h-153zM306 -43q37 0 59 -20t22 -55q0 -43 -28.5 -66t-76.5 -23q-44 0 -70.5 18.5t-36.5 49.5l4 8l73 8q7 -17 29 -17q27 0 27 26q0 24 -27 24q-21 0 -36 -15l-62 9l-2 9l51 112h84l-49 -76q20 8 39 8z" />
    <glyph glyph-name="uni0163" unicode="&#x163;" horiz-adv-x="370" 
d="M242 400v-246q0 -24 14 -37t40 -13q16 0 40 7l7 -4v-107q-43 -10 -88 -10h-12l-27 -41q20 8 39 8q37 0 59 -20t22 -55q0 -43 -28.5 -66t-76.5 -23q-44 0 -70.5 18.5t-36.5 49.5l4 8l73 8q7 -17 29 -17q27 0 27 26q0 24 -27 24q-21 0 -36 -15l-62 9l-2 9l43 94
q-33 17 -51.5 51t-18.5 84v258h-89v100h89v143h18l121 -42v-101h106v-100h-106z" />
    <glyph glyph-name="Tcaron" unicode="&#x164;" horiz-adv-x="552" 
d="M200 0v564h-176v136h505v-136h-176v-564h-153zM231 760l-114 147h103l56 -57l55 57h104l-114 -147h-90z" />
    <glyph glyph-name="tcaron" unicode="&#x165;" horiz-adv-x="436" 
d="M367 635q-27 3 -45 21.5t-18 45.5q0 29 19.5 49t49.5 20t50 -21.5t20 -55.5q0 -113 -138 -168l-12 28q62 29 74 81zM242 500h106v-100h-106v-246q0 -24 14 -37t40 -13q16 0 40 7l7 -4v-107q-43 -10 -88 -10q-70 0 -111 38t-41 114v258h-89v100h89v143h18l121 -42v-101z
" />
    <glyph glyph-name="Tbar" unicode="&#x166;" horiz-adv-x="552" 
d="M497 418v-96h-144v-322h-153v322h-144v96h144v146h-176v136h505v-136h-176v-146h144z" />
    <glyph glyph-name="tbar" unicode="&#x167;" horiz-adv-x="370" 
d="M144 28q-41 38 -41 114v65h-73v86h73v107h-89v100h89v143h18l121 -42v-101h106v-100h-106v-107h84v-86h-84v-53q0 -24 14 -37t40 -13q16 0 40 7l7 -4v-107q-43 -10 -88 -10q-70 0 -111 38z" />
    <glyph glyph-name="Utilde" unicode="&#x168;" horiz-adv-x="701" 
d="M218 275q0 -73 34 -111t99 -38q64 0 98 38t34 111v425h153v-426q0 -85 -33.5 -149t-98 -99.5t-153.5 -35.5t-153.5 35.5t-98.5 99.5t-34 149v426h153v-425zM502 797.5q-33 -33.5 -81 -33.5q-29 0 -47 8t-38 22q-13 10 -23 14.5t-23 4.5q-18 0 -28.5 -11.5t-13.5 -30.5
h-84q3 67 36 100.5t81 33.5q29 0 47 -8t38 -22q13 -10 23 -14.5t23 -4.5q18 0 28.5 11.5t13.5 30.5h84q-3 -67 -36 -100.5z" />
    <glyph glyph-name="utilde" unicode="&#x169;" 
d="M402 62q-67 -72 -163 -72q-82 0 -129 49t-47 131v330h140v-301q0 -43 22 -66t62 -23q36 0 66 20.5t49 54.5v315h140v-500h-140v62zM460 597.5q-33 -33.5 -81 -33.5q-29 0 -47 8t-38 22q-13 10 -23 14.5t-23 4.5q-18 0 -28.5 -11.5t-13.5 -30.5h-84q3 67 36 100.5t81 33.5
q29 0 47 -8t38 -22q13 -10 23 -14.5t23 -4.5q18 0 28.5 11.5t13.5 30.5h84q-3 -67 -36 -100.5z" />
    <glyph glyph-name="Umacron" unicode="&#x16a;" horiz-adv-x="701" 
d="M218 275q0 -73 34 -111t99 -38q64 0 98 38t34 111v425h153v-426q0 -85 -33.5 -149t-98 -99.5t-153.5 -35.5t-153.5 35.5t-98.5 99.5t-34 149v426h153v-425zM481 785h-260v94h260v-94z" />
    <glyph glyph-name="umacron" unicode="&#x16b;" 
d="M402 62q-67 -72 -163 -72q-82 0 -129 49t-47 131v330h140v-301q0 -43 22 -66t62 -23q36 0 66 20.5t49 54.5v315h140v-500h-140v62zM434 585h-260v94h260v-94z" />
    <glyph glyph-name="Ubreve" unicode="&#x16c;" horiz-adv-x="701" 
d="M218 275q0 -73 34 -111t99 -38q64 0 98 38t34 111v425h153v-426q0 -85 -33.5 -149t-98 -99.5t-153.5 -35.5t-153.5 35.5t-98.5 99.5t-34 149v426h153v-425zM433 802.5q-30 -30.5 -82 -30.5t-82 30.5t-30 80.5h81q0 -15 8 -25t23 -10t23 10t8 25h81q0 -50 -30 -80.5z" />
    <glyph glyph-name="ubreve" unicode="&#x16d;" 
d="M402 62q-67 -72 -163 -72q-82 0 -129 49t-47 131v330h140v-301q0 -43 22 -66t62 -23q36 0 66 20.5t49 54.5v315h140v-500h-140v62zM387 602.5q-30 -30.5 -82 -30.5t-82 30.5t-30 80.5h81q0 -15 8 -25t23 -10t23 10t8 25h81q0 -50 -30 -80.5z" />
    <glyph glyph-name="Uring" unicode="&#x16e;" horiz-adv-x="701" 
d="M218 275q0 -73 34 -111t99 -38q64 0 98 38t34 111v425h153v-426q0 -85 -33.5 -149t-98 -99.5t-153.5 -35.5t-153.5 35.5t-98.5 99.5t-34 149v426h153v-425zM418.5 895q27.5 -28 27.5 -67t-27.5 -67t-67.5 -28t-67.5 28t-27.5 67t27.5 67t67.5 28t67.5 -28zM376 803
q10 10 10 25t-10 25t-25 10t-25 -10t-10 -25t10 -25t25 -10t25 10z" />
    <glyph glyph-name="uring" unicode="&#x16f;" 
d="M402 62q-67 -72 -163 -72q-82 0 -129 49t-47 131v330h140v-301q0 -43 22 -66t62 -23q36 0 66 20.5t49 54.5v315h140v-500h-140v62zM369.5 695q27.5 -28 27.5 -67t-27.5 -67t-67.5 -28t-67.5 28t-27.5 67t27.5 67t67.5 28t67.5 -28zM327 603q10 10 10 25t-10 25t-25 10
t-25 -10t-10 -25t10 -25t25 -10t25 10z" />
    <glyph glyph-name="Uhungarumlaut" unicode="&#x170;" horiz-adv-x="701" 
d="M218 275q0 -73 34 -111t99 -38q64 0 98 38t34 111v425h153v-426q0 -85 -33.5 -149t-98 -99.5t-153.5 -35.5t-153.5 35.5t-98.5 99.5t-34 149v426h153v-425zM401 907l-103 -146h-104l64 146h143zM586 907l-103 -146h-104l64 146h143z" />
    <glyph glyph-name="uhungarumlaut" unicode="&#x171;" 
d="M402 62q-67 -72 -163 -72q-82 0 -129 49t-47 131v330h140v-301q0 -43 22 -66t62 -23q36 0 66 20.5t49 54.5v315h140v-500h-140v62zM346 707l-103 -146h-104l64 146h143zM531 707l-103 -146h-104l64 146h143z" />
    <glyph glyph-name="Uogonek" unicode="&#x172;" horiz-adv-x="701" 
d="M449 164q34 38 34 111v425h153v-426q0 -101 -48 -171.5t-121 -94.5q-45 -14 -64 -36.5t-19 -46.5q0 -15 8 -24t20 -9q20 0 37 24l53 -40v-10q-34 -56 -100 -56q-48 0 -75.5 25t-27.5 64q0 27 12 51t31 40q-87 1 -149 37t-95 99.5t-33 147.5v426h153v-425q0 -73 34 -111
t99 -38q64 0 98 38z" />
    <glyph glyph-name="uogonek" unicode="&#x173;" 
d="M110 39q-47 49 -47 131v330h140v-301q0 -43 22 -66t62 -23q36 0 66 20.5t49 54.5v315h140v-500q-59 -6 -85 -30t-26 -48q0 -14 8 -22t20 -8q20 0 37 24l53 -40v-10q-34 -56 -100 -56q-48 0 -75.5 25t-27.5 64q0 32 16.5 58.5t39.5 42.5v62q-67 -72 -163 -72
q-82 0 -129 49z" />
    <glyph glyph-name="Wcircumflex" unicode="&#x174;" horiz-adv-x="1010" 
d="M281 287l13 -93h6l14 93l119 413h144l120 -413l13 -93h6l14 93l107 413h162l-203 -700h-157l-134 495l-134 -495h-157l-203 700h162zM561 760l-55 57l-56 -57h-103l114 147h90l114 -147h-104z" />
    <glyph glyph-name="wcircumflex" unicode="&#x175;" horiz-adv-x="783" 
d="M456 500l77 -255l12 -80h5l11 80l70 255h143l-149 -500h-147l-86 328l-86 -328h-147l-150 500h144l70 -255l11 -80h4l12 80l78 255h128zM447 560l-55 57l-56 -57h-103l114 147h90l114 -147h-104z" />
    <glyph glyph-name="Ycircumflex" unicode="&#x176;" 
d="M288 453l11 -84h7l11 84l114 247h163l-215 -456v-244h-153v244l-215 456h163zM358 760l-55 57l-56 -57h-103l114 147h90l114 -147h-104z" />
    <glyph glyph-name="ycircumflex" unicode="&#x177;" horiz-adv-x="566" 
d="M562 500l-284 -700h-146l86 213l-206 487h164l102 -249l5 -65h8l123 314h148zM347 560l-55 57l-56 -57h-103l114 147h90l114 -147h-104z" />
    <glyph glyph-name="Ydieresis" unicode="&#x178;" 
d="M288 453l11 -84h7l11 84l114 247h163l-215 -456v-244h-153v244l-215 456h163zM160 883.5q21 20.5 49 20.5q29 0 49.5 -20.5t20.5 -49.5q0 -28 -20.5 -49t-49.5 -21q-28 0 -49 21t-21 49q0 29 21 49.5zM346 883.5q21 20.5 49 20.5t49 -21t21 -49t-21 -49t-49 -21t-49 21
t-21 49q0 29 21 49.5z" />
    <glyph glyph-name="Zacute" unicode="&#x179;" horiz-adv-x="618" 
d="M58 571v129h502v-109l-352 -462h364v-129h-532v129l338 442h-320zM461 907l-117 -146h-112l78 146h151z" />
    <glyph glyph-name="zacute" unicode="&#x17a;" horiz-adv-x="458" 
d="M37 387v113h391v-95l-242 -292h242v-113h-403v99l242 288h-230zM381 707l-117 -146h-112l78 146h151z" />
    <glyph glyph-name="Zdotaccent" unicode="&#x17b;" horiz-adv-x="618" 
d="M58 571v129h502v-109l-352 -462h364v-129h-532v129l338 442h-320zM368.5 894.5q24.5 -24.5 24.5 -58.5t-24.5 -58.5t-58.5 -24.5t-58.5 24.5t-24.5 58.5t24.5 58.5t58.5 24.5t58.5 -24.5z" />
    <glyph glyph-name="zdotaccent" unicode="&#x17c;" horiz-adv-x="458" 
d="M37 387v113h391v-95l-242 -292h242v-113h-403v99l242 288h-230zM295.5 694.5q24.5 -24.5 24.5 -58.5t-24.5 -58.5t-58.5 -24.5t-58.5 24.5t-24.5 58.5t24.5 58.5t58.5 24.5t58.5 -24.5z" />
    <glyph glyph-name="Zcaron" unicode="&#x17d;" horiz-adv-x="618" 
d="M58 571v129h502v-109l-352 -462h364v-129h-532v129l338 442h-320zM259 760l-114 147h103l56 -57l55 57h104l-114 -147h-90z" />
    <glyph glyph-name="zcaron" unicode="&#x17e;" horiz-adv-x="458" 
d="M37 387v113h391v-95l-242 -292h242v-113h-403v99l242 288h-230zM192 560l-114 147h103l56 -57l55 57h104l-114 -147h-90z" />
    <glyph glyph-name="longs" unicode="&#x17f;" horiz-adv-x="371" 
d="M345 730v-109l-7 -4q-21 9 -46 9q-24 0 -37.5 -13t-13.5 -40v-573h-140v400h-84v100h84v82q0 79 49.5 118.5t122.5 39.5q34 0 72 -10z" />
    <glyph glyph-name="uni018E" unicode="&#x18e;" horiz-adv-x="586" 
d="M364 285h-284v130h284v151h-322v134h475v-700h-464v130h311v155z" />
    <glyph glyph-name="uni018F" unicode="&#x18f;" horiz-adv-x="595" 
d="M423 484q-5 52 -40 82.5t-88 30.5q-86 0 -114 -77l-118 12l-6 12q27 83 88.5 124.5t152.5 41.5q74 0 132.5 -32.5t91.5 -91.5t33 -136q0 -76 -35.5 -135t-94.5 -92t-127 -33q-74 0 -131.5 31t-89 89t-31.5 137v37h377zM179 394q5 -45 38 -72t82 -27q44 0 77 27t43 72
h-240z" />
    <glyph glyph-name="florin" unicode="&#x192;" horiz-adv-x="371" 
d="M345 730v-109l-7 -4q-22 9 -45 9q-24 0 -38 -13t-14 -39v-74h103v-100h-103v-454q0 -77 -42.5 -116.5t-107.5 -39.5q-40 0 -73 10v109l6 4q20 -9 37 -9q40 0 40 45v451h-84v100h84v82q0 79 50 118.5t123 39.5q38 0 71 -10z" />
    <glyph glyph-name="uni01B5" unicode="&#x1b5;" horiz-adv-x="618" 
d="M66 301v96h179l133 174h-320v129h502v-109l-147 -194h125v-96h-200l-130 -172h364v-129h-532v129l131 172h-105z" />
    <glyph glyph-name="uni01B6" unicode="&#x1b6;" horiz-adv-x="458" 
d="M51 207v86h138l78 94h-230v113h391v-95l-92 -112h70v-86h-143l-77 -94h242v-113h-403v99l90 108h-64z" />
    <glyph glyph-name="Aringacute" unicode="&#x1fa;" horiz-adv-x="676" 
d="M269 700h138l267 -700h-160l-42 118h-268l-41 -118h-161zM426 249l-75 214l-10 76h-6l-10 -76l-75 -214h176zM405.5 895q27.5 -28 27.5 -67t-27.5 -67t-67.5 -28t-67.5 28t-27.5 67t27.5 67t67.5 28t67.5 -28zM363 803q10 10 10 25t-10 25t-25 10t-25 -10t-10 -25t10 -25
t25 -10t25 10zM492 1094l-117 -146h-112l78 146h151z" />
    <glyph glyph-name="aringacute" unicode="&#x1fb;" horiz-adv-x="572" 
d="M288 893h151l-116 -145h-112zM218 561q-28 28 -28 67t28 67t68 28t67.5 -28t27.5 -67t-27.5 -67t-67.5 -28t-68 28zM310 603q10 10 10 25t-10 25t-24 10q-15 0 -25 -10t-10 -25t10 -25t25 -10q14 0 24 10zM128.5 8.5q-36.5 18.5 -58 53t-21.5 80.5q0 68 46.5 109.5
t129.5 49.5l135 14v22q0 34 -21.5 53t-60.5 19q-35 0 -56.5 -18.5t-25.5 -50.5l-120 10l-3 6q15 75 70.5 114.5t136.5 39.5q95 0 154 -47.5t59 -133.5v-179q0 -47 36 -47q11 0 19 3l5 -6v-96q-31 -10 -69 -10q-81 0 -113 68h-6q-35 -36 -72 -54t-85 -18q-43 0 -79.5 18.5z
M360 169v58l-110 -14q-35 -4 -53.5 -21t-18.5 -42t17 -39.5t45 -14.5q67 0 120 73z" />
    <glyph glyph-name="AEacute" unicode="&#x1fc;" horiz-adv-x="983" 
d="M619 415h284v-130h-284v-151h322v-134h-475v118h-227l-61 -118h-176l379 700h549v-130h-311v-155zM466 249v321h-9l-23 -83l-126 -238h158zM798 907l-117 -146h-112l78 146h151z" />
    <glyph glyph-name="aeacute" unicode="&#x1fd;" horiz-adv-x="916" 
d="M494 211q6 -50 40.5 -79t86.5 -29q86 0 114 77l117 -12l7 -12q-28 -83 -89.5 -124.5t-151.5 -41.5q-65 0 -117.5 25t-87.5 70h-6q-76 -95 -186 -95q-75 0 -123.5 41t-48.5 111q0 69 49.5 110.5t133.5 46.5l128 7v28q0 35 -21.5 55t-60.5 20q-35 0 -56.5 -18.5
t-25.5 -50.5l-120 10l-3 6q15 75 71 114.5t136 39.5q53 0 97 -16t72 -47q35 30 78 46.5t91 16.5q74 0 131 -31t88.5 -89t31.5 -137v-37h-375v-5zM737 306q-5 45 -38 72t-82 27q-44 0 -77.5 -27t-42.5 -72h240zM256 208q-38 -2 -58 -17.5t-20 -41.5q0 -25 17 -39t46 -14
q67 0 119 73v46zM620 707l-117 -146h-112l78 146h151z" />
    <glyph glyph-name="Scommaaccent" unicode="&#x218;" 
d="M230 483q36 -20 127 -40q109 -25 163.5 -78t54.5 -143q0 -70 -35.5 -122.5t-96.5 -81t-136 -28.5q-77 0 -138 28t-98 78t-43 115l8 11l139 21q6 -60 43.5 -93.5t92.5 -33.5q50 0 81.5 25.5t31.5 69.5q0 35 -14.5 57t-49.5 38t-97 29q-95 19 -151.5 67t-56.5 126
q0 55 30.5 96t84 63.5t120.5 22.5q112 0 176.5 -52t77.5 -140l-9 -11l-129 -14q-6 49 -37.5 77.5t-83.5 28.5q-40 0 -65.5 -17.5t-25.5 -44.5q0 -34 36 -54zM277.5 -262q18.5 22 25.5 54q-32 0 -53 23.5t-21 52.5q0 31 22 53.5t54 22.5q33 0 54 -23t21 -58
q0 -62 -33.5 -110.5t-97.5 -80.5l-19 27q29 17 47.5 39z" />
    <glyph glyph-name="scommaaccent" unicode="&#x219;" horiz-adv-x="476" 
d="M278.5 394.5q-22.5 18.5 -55.5 18.5q-25 0 -42.5 -10.5t-17.5 -28.5q0 -22 28 -36t103 -34q77 -21 113 -55.5t36 -93.5q0 -47 -24.5 -84.5t-70 -59t-105.5 -21.5q-88 0 -143.5 38.5t-75.5 108.5l4 13l107 32q18 -84 109 -84q31 0 50.5 13t19.5 36q0 24 -22.5 37.5
t-87.5 30.5q-79 19 -119 55.5t-40 96.5q0 40 22.5 72.5t63.5 51.5t94 19q80 0 130 -34.5t65 -97.5l-5 -11l-107 -26q-7 35 -29.5 53.5zM210.5 -262q18.5 22 25.5 54q-32 0 -53 23.5t-21 52.5q0 31 22 53.5t54 22.5q33 0 54 -23t21 -58q0 -62 -33.5 -110.5t-97.5 -80.5
l-19 27q29 17 47.5 39z" />
    <glyph glyph-name="uni021A" unicode="&#x21a;" horiz-adv-x="552" 
d="M200 0v564h-176v136h505v-136h-176v-564h-153zM244.5 -262q18.5 22 25.5 54q-32 0 -53 23.5t-21 52.5q0 31 22.5 53.5t53.5 22.5q33 0 54 -23t21 -58q0 -62 -33.5 -110.5t-97.5 -80.5l-19 27q29 17 47.5 39z" />
    <glyph glyph-name="uni021B" unicode="&#x21b;" horiz-adv-x="370" 
d="M242 500h106v-100h-106v-246q0 -24 14 -37t40 -13q16 0 40 7l7 -4v-107q-43 -10 -88 -10q-70 0 -111 38t-41 114v258h-89v100h89v143h18l121 -42v-101zM205.5 -262q18.5 22 24.5 54q-32 0 -53 23.5t-21 52.5q0 31 22.5 53.5t53.5 22.5q33 0 54.5 -23t21.5 -58
q0 -62 -33.5 -110.5t-97.5 -80.5l-19 27q29 17 47.5 39z" />
    <glyph glyph-name="circumflex" unicode="&#x2c6;" horiz-adv-x="348" 
d="M229 560l-55 57l-56 -57h-103l114 147h90l114 -147h-104z" />
    <glyph glyph-name="caron" unicode="&#x2c7;" horiz-adv-x="347" 
d="M129 560l-114 147h103l56 -57l55 57h104l-114 -147h-90z" />
    <glyph glyph-name="breve" unicode="&#x2d8;" horiz-adv-x="240" 
d="M202 602.5q-30 -30.5 -82 -30.5t-82 30.5t-30 80.5h81q0 -15 8 -25t23 -10t23 10t8 25h81q0 -50 -30 -80.5z" />
    <glyph glyph-name="dotaccent" unicode="&#x2d9;" horiz-adv-x="228" 
d="M172.5 694.5q24.5 -24.5 24.5 -58.5t-24.5 -58.5t-58.5 -24.5t-58.5 24.5t-24.5 58.5t24.5 58.5t58.5 24.5t58.5 -24.5z" />
    <glyph glyph-name="ring" unicode="&#x2da;" horiz-adv-x="236" 
d="M185.5 695q27.5 -28 27.5 -67t-27.5 -67t-67.5 -28t-67.5 28t-27.5 67t27.5 67t67.5 28t67.5 -28zM143 603q10 10 10 25t-10 25t-25 10t-25 -10t-10 -25t10 -25t25 -10t25 10z" />
    <glyph glyph-name="ogonek" unicode="&#x2db;" horiz-adv-x="318" 
d="M78.5 -165q-27.5 25 -27.5 64q0 32 17 59t40 42h82q-53 -47 -53 -80q0 -13 8 -20.5t19 -7.5q21 0 37 24l54 -40v-10q-36 -56 -101 -56q-48 0 -75.5 25z" />
    <glyph glyph-name="tilde" unicode="&#x2dc;" horiz-adv-x="434" 
d="M368 597.5q-33 -33.5 -81 -33.5q-29 0 -47 8t-38 22q-13 10 -23 14.5t-23 4.5q-18 0 -28.5 -11.5t-13.5 -30.5h-84q3 67 36 100.5t81 33.5q29 0 47 -8t38 -22q13 -10 23 -14.5t23 -4.5q18 0 28.5 11.5t13.5 30.5h84q-3 -67 -36 -100.5z" />
    <glyph glyph-name="hungarumlaut" unicode="&#x2dd;" horiz-adv-x="461" 
d="M237 707l-103 -146h-104l64 146h143zM422 707l-103 -146h-104l64 146h143z" />
    <glyph glyph-name="uni03A9" unicode="&#x3a9;" horiz-adv-x="798" 
d="M450 0v126q42 19 79 56t59.5 86t22.5 103q0 59 -25.5 105t-71.5 72t-106 26q-59 0 -105.5 -26t-72 -72t-25.5 -105q0 -54 23 -103t60 -86t79 -56v-126h-280v126h96q-51 36 -91 105.5t-40 150.5q0 95 46 169.5t127.5 116.5t182.5 42t182.5 -42t128 -116.5t46.5 -169.5
q0 -80 -40 -149.5t-91 -106.5h96v-126h-280z" />
    <glyph glyph-name="pi" unicode="&#x3c0;" horiz-adv-x="643" 
d="M630 386h-83v-386h-140v386h-171v-386h-140v386h-83v114h617v-114z" />
    <glyph glyph-name="endash" unicode="&#x2013;" horiz-adv-x="549" 
d="M521 288h-493v112h493v-112z" />
    <glyph glyph-name="emdash" unicode="&#x2014;" horiz-adv-x="801" 
d="M773 288h-745v112h745v-112z" />
    <glyph glyph-name="quoteleft" unicode="&#x2018;" horiz-adv-x="260" 
d="M128 579q37 -3 59 -26.5t22 -57.5q0 -36 -23.5 -59.5t-59.5 -23.5t-59.5 26.5t-23.5 69.5q0 70 46 126t126 76l14 -34q-83 -26 -101 -97z" />
    <glyph glyph-name="quoteright" unicode="&#x2019;" horiz-adv-x="260" 
d="M94 483.5q26 24.5 35 59.5q-37 3 -59 26.5t-22 57.5q0 36 23.5 59.5t59.5 23.5t59.5 -26.5t23.5 -69.5q0 -70 -46 -126t-126 -76l-14 34q40 13 66 37.5z" />
    <glyph glyph-name="quotesinglbase" unicode="&#x201a;" horiz-adv-x="260" 
d="M97 -59.5q26 24.5 35 59.5q-37 3 -59.5 26.5t-22.5 56.5q0 36 24 60t60 24t59.5 -26.5t23.5 -69.5q0 -71 -46 -126.5t-126 -75.5l-14 34q40 13 66 37.5z" />
    <glyph glyph-name="quotedblleft" unicode="&#x201c;" horiz-adv-x="459" 
d="M128 579q37 -3 59 -26.5t22 -57.5q0 -36 -23.5 -59.5t-59.5 -23.5t-59.5 26.5t-23.5 69.5q0 70 46 126t126 76l14 -34q-83 -26 -101 -97zM327 579q37 -3 59 -26.5t22 -57.5q0 -36 -23.5 -59.5t-59.5 -23.5t-59.5 26.5t-23.5 69.5q0 70 46 126t126 76l14 -34
q-83 -26 -101 -97z" />
    <glyph glyph-name="quotedblright" unicode="&#x201d;" horiz-adv-x="459" 
d="M97 484q26 25 35 59q-37 3 -59.5 26.5t-22.5 57.5q0 36 24 59.5t60 23.5t59.5 -26.5t23.5 -69.5q0 -70 -46 -126t-126 -76l-14 34q40 13 66 38zM296 483.5q26 24.5 35 59.5q-37 3 -59 26.5t-22 57.5q0 36 23.5 59.5t59.5 23.5t59.5 -26.5t23.5 -69.5q0 -70 -46 -126
t-126 -76l-14 34q40 13 66 37.5z" />
    <glyph glyph-name="quotedblbase" unicode="&#x201e;" horiz-adv-x="459" 
d="M97 -59.5q26 24.5 35 59.5q-37 3 -59.5 26.5t-22.5 56.5q0 36 24 60t60 24t59.5 -26.5t23.5 -69.5q0 -71 -46 -126.5t-126 -75.5l-14 34q40 13 66 37.5zM331 0q-37 3 -59 26.5t-22 56.5q0 37 24 60.5t59 23.5q36 0 59.5 -26.5t23.5 -69.5q0 -71 -46 -126.5t-126 -75.5
l-14 34q83 26 101 97z" />
    <glyph glyph-name="dagger" unicode="&#x2020;" horiz-adv-x="388" 
d="M129 700h130v-200h120v-112h-120v-508h-130v508h-120v112h120v200z" />
    <glyph glyph-name="daggerdbl" unicode="&#x2021;" horiz-adv-x="388" 
d="M129 700h130v-200h120v-112h-120v-196h120v-112h-120v-200h-130v200h-120v112h120v196h-120v112h120v200z" />
    <glyph glyph-name="bullet" unicode="&#x2022;" horiz-adv-x="345" 
d="M258.5 436q34.5 -35 34.5 -86t-34.5 -86t-86.5 -35q-51 0 -86 35t-35 86t35 86t86 35q52 0 86.5 -35z" />
    <glyph glyph-name="ellipsis" unicode="&#x2026;" horiz-adv-x="737" 
d="M187 145.5q25 -25.5 25 -60.5q0 -34 -25 -59.5t-60 -25.5q-34 0 -59.5 25.5t-25.5 59.5q0 35 25 60.5t60 25.5t60 -25.5zM428.5 145.5q25.5 -25.5 25.5 -60.5t-25.5 -60t-60.5 -25q-34 0 -59.5 25.5t-25.5 59.5q0 35 25 60.5t60 25.5t60.5 -25.5zM670 145.5
q25 -25.5 25 -60.5q0 -34 -25 -59.5t-60 -25.5t-60.5 25t-25.5 60t25.5 60.5t60.5 25.5t60 -25.5z" />
    <glyph glyph-name="perthousand" unicode="&#x2030;" horiz-adv-x="1211" 
d="M123.5 388q-38.5 22 -60 61.5t-21.5 88.5t21.5 88.5t60 61.5t88.5 22t88.5 -22t60 -61.5t21.5 -88.5t-21.5 -88.5t-60 -61.5t-88.5 -22t-88.5 22zM115 60l527 637l70 -57l-527 -637zM270 475.5q23 22.5 23 62.5t-23 62.5t-58 22.5t-57.5 -22t-22.5 -63t22.5 -63t57.5 -22
t58 22.5zM527.5 12q-38.5 22 -60 61.5t-21.5 88.5t21.5 88.5t60 61.5t88.5 22t88.5 -22t60 -61.5t21.5 -88.5t-21.5 -88.5t-60 -61.5t-88.5 -22t-88.5 22zM909.5 12q-38.5 22 -60 61.5t-21.5 88.5t21.5 88.5t60 61.5t88.5 22t88.5 -22t60 -61.5t21.5 -88.5t-21.5 -88.5
t-60 -61.5t-88.5 -22t-88.5 22zM674 99.5q23 22.5 23 62.5t-23 62.5t-58 22.5t-57.5 -22t-22.5 -63t22.5 -63t57.5 -22t58 22.5zM1056 99.5q23 22.5 23 62.5t-23 62.5t-58 22.5t-57.5 -22t-22.5 -63t22.5 -63t57.5 -22t58 22.5z" />
    <glyph glyph-name="guilsinglleft" unicode="&#x2039;" horiz-adv-x="323" 
d="M155 507h122l-95 -227l95 -227h-122l-107 227z" />
    <glyph glyph-name="guilsinglright" unicode="&#x203a;" horiz-adv-x="323" 
d="M46 53l95 227l-95 227h122l107 -227l-107 -227h-122z" />
    <glyph glyph-name="fraction" unicode="&#x2044;" horiz-adv-x="721" 
d="M132 3l-70 57l527 637l70 -57z" />
    <glyph glyph-name="uni2070" unicode="&#x2070;" horiz-adv-x="394" 
d="M314 377q-45 -52 -117 -52t-117 52t-45 138t45 138t117 52t117 -52t45 -138t-45 -138zM253 596q-20 28 -56 28t-55.5 -28t-19.5 -81t19.5 -81t55.5 -28t56 28t20 81t-20 81z" />
    <glyph glyph-name="uni2074" unicode="&#x2074;" horiz-adv-x="369" 
d="M207 700h85v-233h45v-80h-45v-57h-88v57h-173v80zM204 467v111l-83 -111h83z" />
    <glyph glyph-name="uni2075" unicode="&#x2075;" horiz-adv-x="345" 
d="M41 527l24 173h234v-69h-167l-13 -58q31 19 69 19q61 0 96.5 -33.5t35.5 -95.5t-39.5 -100t-105.5 -38q-58 0 -98 32.5t-47 81.5l5 8l83 12q3 -23 17.5 -38t38.5 -15q25 0 39.5 15.5t14.5 41.5t-15.5 40.5t-40.5 14.5q-17 0 -33 -7t-27 -17z" />
    <glyph glyph-name="uni2076" unicode="&#x2076;" horiz-adv-x="357" 
d="M122.5 339.5q-29.5 14.5 -48.5 37.5q-38 47 -38 128q0 90 41.5 145t112.5 55q52 0 83.5 -23.5t40.5 -67.5l-3 -7l-69 -12q-15 40 -54 40q-29 0 -49 -23.5t-21 -64.5q15 13 35.5 20t42.5 7q54 0 89.5 -33t35.5 -87q0 -56 -39 -92.5t-101 -36.5q-29 0 -58.5 14.5zM223 414
q15 16 15 38q0 23 -14.5 39t-39.5 16q-26 0 -40.5 -16t-14.5 -39t14.5 -38.5t40.5 -15.5q24 0 39 16z" />
    <glyph glyph-name="uni2077" unicode="&#x2077;" horiz-adv-x="316" 
d="M152 330h-91l125 293h-160v77h259v-64z" />
    <glyph glyph-name="uni2078" unicode="&#x2078;" horiz-adv-x="348" 
d="M52.5 497q15.5 24 42.5 39q-18 12 -28.5 31.5t-10.5 40.5q0 42 32.5 69.5t85.5 27.5t85.5 -27.5t32.5 -69.5q0 -21 -10.5 -40.5t-28.5 -31.5q27 -15 42.5 -39t15.5 -55q0 -51 -37 -84t-100 -33t-100 33t-37 84q0 31 15.5 55zM206 574.5q12 11.5 12 30.5t-12 30.5
t-32 11.5t-32 -11.5t-12 -30.5t12 -30.5t32 -11.5t32 11.5zM214.5 408q15.5 15 15.5 40q0 24 -15.5 39t-40.5 15t-40.5 -15t-15.5 -39q0 -25 15.5 -40t40.5 -15t40.5 15z" />
    <glyph glyph-name="uni2079" unicode="&#x2079;" horiz-adv-x="342" 
d="M76 350q-32 25 -41 66l4 7l69 12q14 -40 54 -40q30 0 50 24t21 67q-28 -30 -79 -30q-54 0 -90 33t-36 87q0 56 39.5 92.5t101.5 36.5q33 0 61 -13t46 -37q37 -46 37 -130q0 -92 -41 -146t-112 -54q-52 0 -84 25zM126.5 616q-14.5 -16 -14.5 -38q0 -23 14.5 -39t39.5 -16
t39.5 16t14.5 39t-14.5 38.5t-39.5 15.5t-39.5 -16z" />
    <glyph glyph-name="uni2080" unicode="&#x2080;" horiz-adv-x="394" 
d="M314 -153q-45 -52 -117 -52t-117 52t-45 138t45 138t117 52t117 -52t45 -138t-45 -138zM253 66q-20 28 -56 28t-55.5 -28t-19.5 -81t19.5 -81t55.5 -28t56 28t20 81t-20 81z" />
    <glyph glyph-name="uni2081" unicode="&#x2081;" horiz-adv-x="246" 
d="M114 170h95v-370h-95v257q-13 -12 -31.5 -16.5t-46.5 -4.5v86h8q63 0 70 48z" />
    <glyph glyph-name="uni2082" unicode="&#x2082;" horiz-adv-x="336" 
d="M180 0q16 15 23.5 28.5t7.5 29.5q0 19 -12.5 29.5t-32.5 10.5q-22 0 -35 -15t-14 -39l-81 7l-4 9q4 48 39.5 81.5t94.5 33.5q60 0 96.5 -29t36.5 -81q0 -32 -16.5 -60t-48.5 -58l-74 -70h144v-77h-269v65z" />
    <glyph glyph-name="uni2083" unicode="&#x2083;" horiz-adv-x="362" 
d="M236 48q91 -26 91 -118q0 -59 -40.5 -97t-101.5 -38q-64 0 -104.5 35t-44.5 89l6 7l79 10q2 -29 19 -46t43 -17t41 15.5t15 40.5q0 29 -18.5 45.5t-49.5 16.5h-26v62l59 47h-150v70h253v-66z" />
    <glyph glyph-name="uni2084" unicode="&#x2084;" horiz-adv-x="369" 
d="M207 170h85v-233h45v-80h-45v-57h-88v57h-173v80zM204 -63v111l-83 -111h83z" />
    <glyph glyph-name="uni2085" unicode="&#x2085;" horiz-adv-x="345" 
d="M41 -3l24 173h234v-69h-167l-13 -58q31 19 69 19q61 0 96.5 -33.5t35.5 -95.5t-39.5 -100t-105.5 -38q-58 0 -98 32.5t-47 81.5l5 8l83 12q3 -23 17.5 -38t38.5 -15q25 0 39.5 15.5t14.5 41.5t-15.5 40.5t-40.5 14.5q-17 0 -33 -7t-27 -17z" />
    <glyph glyph-name="uni2086" unicode="&#x2086;" horiz-adv-x="357" 
d="M122.5 -190.5q-29.5 14.5 -48.5 37.5q-38 47 -38 128q0 90 41.5 145t112.5 55q52 0 83.5 -23.5t40.5 -67.5l-3 -7l-69 -12q-15 40 -54 40q-29 0 -49 -23.5t-21 -64.5q15 13 35.5 20t42.5 7q54 0 89.5 -33t35.5 -87q0 -56 -39 -92.5t-101 -36.5q-29 0 -58.5 14.5z
M223 -116q15 16 15 38q0 23 -14.5 39t-39.5 16q-26 0 -40.5 -16t-14.5 -39t14.5 -38.5t40.5 -15.5q24 0 39 16z" />
    <glyph glyph-name="uni2087" unicode="&#x2087;" horiz-adv-x="316" 
d="M152 -200h-91l125 293h-160v77h259v-64z" />
    <glyph glyph-name="uni2088" unicode="&#x2088;" horiz-adv-x="348" 
d="M52.5 -33q15.5 24 42.5 39q-18 12 -28.5 31.5t-10.5 40.5q0 42 32.5 69.5t85.5 27.5t85.5 -27.5t32.5 -69.5q0 -21 -10.5 -40.5t-28.5 -31.5q27 -15 42.5 -39t15.5 -55q0 -51 -37 -84t-100 -33t-100 33t-37 84q0 31 15.5 55zM206 44.5q12 11.5 12 30.5t-12 30.5t-32 11.5
t-32 -11.5t-12 -30.5t12 -30.5t32 -11.5t32 11.5zM214.5 -122q15.5 15 15.5 40q0 24 -15.5 39t-40.5 15t-40.5 -15t-15.5 -39q0 -25 15.5 -40t40.5 -15t40.5 15z" />
    <glyph glyph-name="uni2089" unicode="&#x2089;" horiz-adv-x="342" 
d="M76 -180q-32 25 -41 66l4 7l69 12q14 -40 54 -40q30 0 50 24t21 67q-28 -30 -79 -30q-54 0 -90 33t-36 87q0 56 39.5 92.5t101.5 36.5q33 0 61 -13t46 -37q37 -46 37 -130q0 -92 -41 -146t-112 -54q-52 0 -84 25zM126.5 86q-14.5 -16 -14.5 -38q0 -23 14.5 -39t39.5 -16
t39.5 16t14.5 39t-14.5 38.5t-39.5 15.5t-39.5 -16z" />
    <glyph glyph-name="Euro" unicode="&#x20ac;" horiz-adv-x="753" 
d="M339.5 548q-39.5 -26 -61.5 -72h181l-19 -99h-190v-34v-12h209l-19 -99h-167q21 -51 62 -78.5t101 -27.5q59 0 99 29t55 83l138 -18l8 -14q-33 -106 -110 -161t-190 -55q-120 0 -206 65t-117 177h-93l20 99h56v16v30h-76l20 99h75q34 108 119.5 171t201.5 63t196 -55.5
t105 -155.5l-9 -14l-138 -18q-33 107 -158 107q-53 0 -92.5 -26z" />
    <glyph glyph-name="trademark" unicode="&#x2122;" horiz-adv-x="809" 
d="M117 621h-100v79h288v-79h-99v-321h-89v321zM357 700h90l119 -293l119 293h90v-400h-89v226h-3l-7 -48l-73 -178h-74l-73 178l-6 48h-4v-226h-89v400z" />
    <glyph glyph-name="uni2126" unicode="&#x2126;" horiz-adv-x="798" 
d="M450 0v126q42 19 79 56t59.5 86t22.5 103q0 59 -25.5 105t-71.5 72t-106 26q-59 0 -105.5 -26t-72 -72t-25.5 -105q0 -54 23 -103t60 -86t79 -56v-126h-280v126h96q-51 36 -91 105.5t-40 150.5q0 95 46 169.5t127.5 116.5t182.5 42t182.5 -42t128 -116.5t46.5 -169.5
q0 -80 -40 -149.5t-91 -106.5h96v-126h-280z" />
    <glyph glyph-name="uni2153" unicode="&#x2153;" horiz-adv-x="823" 
d="M121 587q-13 -12 -31.5 -16.5t-46.5 -4.5v86h8q63 0 70 48h95v-370h-95v257zM62 60l527 637l70 -57l-527 -637zM520.5 30q-40.5 35 -44.5 89l6 7l78 10q2 -28 19.5 -45.5t43.5 -17.5t41 15.5t15 40.5q0 29 -18.5 45.5t-49.5 16.5h-26v62l59 47h-150v70h253v-66l-71 -56
q90 -26 90 -118q0 -60 -40 -97.5t-101 -37.5q-64 0 -104.5 35z" />
    <glyph glyph-name="uni2154" unicode="&#x2154;" horiz-adv-x="933" 
d="M47 395l145 135q16 15 23.5 28.5t7.5 29.5q0 19 -12.5 29.5t-32.5 10.5q-22 0 -35 -15t-14 -39l-81 7l-4 9q4 48 39.5 81.5t94.5 33.5q60 0 96.5 -29t36.5 -81q0 -32 -16.5 -60t-48.5 -58l-75 -70h145v-77h-269v65zM172 60l527 637l70 -57l-527 -637zM631 30
q-40 35 -44 89l5 7l79 10q2 -29 19 -46t44 -17q26 0 41 15.5t15 40.5q0 29 -19 45.5t-49 16.5h-27v62l60 47h-151v70h254v-66l-72 -56q91 -26 91 -118q0 -59 -40.5 -97t-101.5 -38q-64 0 -104 35z" />
    <glyph glyph-name="oneeighth" unicode="&#x215b;" horiz-adv-x="765" 
d="M51 652q63 0 70 48h95v-370h-95v257q-13 -12 -31.5 -16.5t-46.5 -4.5v86h8zM659 640l-527 -637l-70 57l527 637zM491 28q-37 33 -37 84q0 31 15.5 55t42.5 39q-18 12 -28.5 31.5t-10.5 40.5q0 42 32.5 69.5t85.5 27.5t85.5 -27.5t32.5 -69.5q0 -21 -10.5 -40.5
t-28.5 -31.5q27 -15 42.5 -39.5t15.5 -54.5q0 -51 -37 -84t-100 -33t-100 33zM559 244.5q12 -11.5 32 -11.5t32 11.5t12 30.5t-12 30.5t-32 11.5t-32 -11.5t-12 -30.5t12 -30.5zM550.5 78q15.5 -15 40.5 -15t40.5 15t15.5 40q0 24 -15.5 39t-40.5 15t-40.5 -15t-15.5 -39
q0 -25 15.5 -40z" />
    <glyph glyph-name="threeeighths" unicode="&#x215c;" horiz-adv-x="860" 
d="M90.5 360q-40.5 35 -44.5 89l5 7l79 10q2 -29 19.5 -46t43.5 -17t41 15.5t15 40.5q0 29 -19 45.5t-49 16.5h-26v62l59 47h-151v70h254v-66l-71 -56q90 -26 90 -118q0 -60 -40 -97.5t-101 -37.5q-64 0 -104.5 35zM157 60l527 637l71 -57l-527 -637zM587 28q-37 33 -37 84
q0 31 15.5 55t41.5 39q-17 12 -27.5 31.5t-10.5 40.5q0 42 32.5 69.5t85.5 27.5t85.5 -27.5t32.5 -69.5q0 -21 -10.5 -40.5t-28.5 -31.5q27 -15 42.5 -39.5t15.5 -54.5q0 -51 -37.5 -84t-99.5 -33q-63 0 -100 33zM719 244.5q12 11.5 12 30.5t-12 30.5t-32 11.5t-32 -11.5
t-12 -30.5t12 -30.5t32 -11.5t32 11.5zM727.5 78q15.5 15 15.5 40q0 24 -16 39t-40 15q-25 0 -41 -15t-16 -39q0 -25 15.5 -40t41.5 -15q25 0 40.5 15z" />
    <glyph glyph-name="fiveeighths" unicode="&#x215d;" horiz-adv-x="854" 
d="M91 357.5q-40 32.5 -47 81.5l5 8l83 12q2 -22 16.5 -37.5t39.5 -15.5t39 15.5t14 41.5t-15 40.5t-40 14.5q-17 0 -33 -7t-27 -17l-71 33l24 173h233v-69h-167l-12 -58q31 19 68 19q62 0 97 -33.5t35 -95.5t-39 -100t-105 -38q-58 0 -98 32.5zM151 60l527 637l71 -57
l-527 -637zM581 28q-37 33 -37 84q0 31 15.5 55t41.5 39q-17 12 -27.5 31.5t-10.5 40.5q0 42 32.5 69.5t85.5 27.5q52 0 84.5 -27.5t32.5 -69.5q0 -21 -10.5 -40.5t-27.5 -31.5q26 -15 41.5 -39t15.5 -55q0 -51 -37 -84t-99 -33q-63 0 -100 33zM713 244.5q12 11.5 12 30.5
t-12 30.5t-32 11.5t-32.5 -11.5t-12.5 -30.5t12.5 -30.5t32.5 -11.5t32 11.5zM721.5 78q15.5 15 15.5 40q0 24 -16 39t-40 15q-25 0 -41 -15t-16 -39q0 -25 15.5 -40t41.5 -15q25 0 40.5 15z" />
    <glyph glyph-name="seveneighths" unicode="&#x215e;" horiz-adv-x="765" 
d="M303 636l-133 -306h-91l125 293h-159v77h258v-64zM659 640l-527 -637l-70 57l527 637zM491 28q-37 33 -37 84q0 31 15.5 55t42.5 39q-18 12 -28.5 31.5t-10.5 40.5q0 42 32.5 69.5t85.5 27.5t85.5 -27.5t32.5 -69.5q0 -21 -10.5 -40.5t-28.5 -31.5q27 -15 42.5 -39.5
t15.5 -54.5q0 -51 -37 -84t-100 -33t-100 33zM559 244.5q12 -11.5 32 -11.5t32 11.5t12 30.5t-12 30.5t-32 11.5t-32 -11.5t-12 -30.5t12 -30.5zM550.5 78q15.5 -15 40.5 -15t40.5 15t15.5 40q0 24 -15.5 39t-40.5 15t-40.5 -15t-15.5 -39q0 -25 15.5 -40z" />
    <glyph glyph-name="partialdiff" unicode="&#x2202;" horiz-adv-x="613" 
d="M154 18.5q-56 28.5 -87.5 79.5t-31.5 114q0 72 33 129.5t91 89.5t129 32q52 0 90 -14t68 -43l1 15q-1 83 -33.5 125.5t-90.5 42.5q-42 0 -74 -22.5t-45 -64.5l-113 22l-6 15q24 77 89.5 124t156.5 47q122 0 188 -85t66 -231q0 -201 -98 -310q-86 -94 -206 -94
q-71 0 -127 28.5zM384 146q37 40 37 99q0 48 -30.5 79.5t-85.5 31.5q-40 0 -70.5 -19.5t-47 -51.5t-16.5 -68q0 -49 32 -80t87 -31q57 0 94 40z" />
    <glyph glyph-name="uni2206" unicode="&#x2206;" horiz-adv-x="750" 
d="M740 0l-296 700h-138l-296 -700h730zM223 130l139 342l11 76h5l10 -76l139 -342h-304z" />
    <glyph glyph-name="product" unicode="&#x220f;" horiz-adv-x="617" 
d="M575 -200h-153v764h-226v-764h-153v900h532v-900z" />
    <glyph glyph-name="summation" unicode="&#x2211;" horiz-adv-x="618" 
d="M252 571h286v129h-470v-109l207 -290l-226 -290v-109h507v129h-322l208 270z" />
    <glyph glyph-name="minus" unicode="&#x2212;" horiz-adv-x="485" 
d="M457 304h-429v112h429v-112z" />
    <glyph glyph-name="radical" unicode="&#x221a;" horiz-adv-x="642" 
d="M314 181l188 549h124l-253 -730h-121l-86 247h-122v102h214z" />
    <glyph glyph-name="infinity" unicode="&#x221e;" horiz-adv-x="765" 
d="M427.5 133.5q-45.5 28.5 -74.5 73.5q-49 -82 -140 -82q-46 0 -86.5 23t-65 65t-24.5 97t24.5 97.5t65 65t86.5 22.5q91 0 140 -82q27 44 73 73t101 29q90 0 147 -53t57 -152t-57 -152t-147 -53q-54 0 -99.5 28.5zM586 378q-25 27 -65 27q-41 0 -69.5 -26.5t-43.5 -68.5
q15 -42 43.5 -68.5t69.5 -26.5q40 0 65 27t25 68t-25 68zM275 369.5q-26 24.5 -58 24.5q-33 0 -55.5 -23.5t-22.5 -60.5t22.5 -60.5t55.5 -23.5q32 0 58 24.5t35 59.5q-9 35 -35 59.5z" />
    <glyph glyph-name="integral" unicode="&#x222b;" horiz-adv-x="371" 
d="M151 700.5q50 39.5 123 39.5q38 0 71 -10v-109l-7 -4q-22 9 -45 9q-24 0 -38 -13t-14 -39v-628q0 -77 -42.5 -116.5t-107.5 -39.5q-40 0 -73 10v109l6 4q20 -9 37 -9q40 0 40 45v633q0 79 50 118.5z" />
    <glyph glyph-name="approxequal" unicode="&#x2248;" horiz-adv-x="458" 
d="M260.5 372q-21.5 8 -48.5 23q-18 10 -30 15t-25 5q-18 0 -27.5 -11.5t-11.5 -30.5h-95q1 68 35.5 106t87.5 38q30 0 51.5 -8t48.5 -23q18 -10 30 -15t25 -5q18 0 27.5 12t11.5 31h95q-1 -68 -35.5 -106.5t-87.5 -38.5q-30 0 -51.5 8zM260.5 184q-21.5 8 -48.5 23
q-18 10 -30 15t-25 5q-18 0 -27.5 -11.5t-11.5 -30.5h-95q1 68 35.5 106t87.5 38q30 0 51.5 -8t48.5 -23q18 -10 30 -15t25 -5q18 0 27.5 12t11.5 31h95q-1 -68 -35.5 -106.5t-87.5 -38.5q-30 0 -51.5 8z" />
    <glyph glyph-name="notequal" unicode="&#x2260;" horiz-adv-x="485" 
d="M28 145v112h125l50 86h-175v112h239l82 140l96 -56l-48 -84h60v-112h-125l-50 -86h175v-112h-239l-82 -140l-97 56l49 84h-60z" />
    <glyph glyph-name="lessequal" unicode="&#x2264;" horiz-adv-x="501" 
d="M444 681v-138l-239 -129l239 -129v-138l-387 214v106zM464 0h-429v112h429v-112z" />
    <glyph glyph-name="greaterequal" unicode="&#x2265;" horiz-adv-x="501" 
d="M57 147v138l238 129l-238 129v138l387 -214v-106zM464 0h-429v112h429v-112z" />
    <glyph glyph-name="lozenge" unicode="&#x25ca;" horiz-adv-x="624" 
d="M263 700h98l240 -350l-240 -350h-98l-240 350zM329 558l-14 45h-6l-14 -45l-145 -208l145 -208l14 -45h6l14 45l145 208z" />
    <glyph glyph-name="uniF8FF" unicode="&#xf8ff;" horiz-adv-x="780" 
d="M679.5 6.5q-6.5 -6.5 -15.5 -6.5l-7 1l-267 77l-267 -77l-7 -1q-9 0 -15.5 6.5t-6.5 15.5v595q0 7 4.5 13.5t11.5 8.5l270 78l10 2l10 -2l270 -78q7 -2 11.5 -8.5t4.5 -13.5v-595q0 -9 -6.5 -15.5zM138 602q4 -62 35 -114t82.5 -84.5t112.5 -37.5v303zM524.5 403.5
q51.5 32.5 82.5 84.5t35 114l-230 67v-303q61 5 112.5 37.5zM368 118v204q-73 6 -134 43.5t-97 97.5v-412zM545.5 365.5q-60.5 -37.5 -133.5 -43.5v-204l231 -67v412q-37 -60 -97.5 -97.5z" />
    <glyph glyph-name="zero.tn" horiz-adv-x="602" 
d="M556 160.5q-36 -81.5 -102 -126t-153 -44.5t-153 44.5t-102 126t-36 189.5t36 189.5t102 126t153 44.5t153 -44.5t102 -126t36 -189.5t-36 -189.5zM411 519q-38 59 -110 59t-110 -59t-38 -169t38 -169t110 -59t110 59t38 169t-38 169z" />
    <glyph glyph-name="one.tn" horiz-adv-x="602" 
d="M230 631.5q31 21.5 37 68.5h143v-700h-143v525q-23 -20 -54.5 -28t-83.5 -8v121h13q57 0 88 21.5z" />
    <glyph glyph-name="two.tn" horiz-adv-x="602" 
d="M331 369q34 31 52 61t18 66q0 39 -27.5 64.5t-72.5 25.5q-47 0 -77 -32t-32 -85l-133 18l-8 14q7 56 39 104t86 76.5t123 28.5q71 0 126.5 -25.5t86 -72.5t30.5 -109q0 -64 -29 -114t-87 -101l-176 -156h302v-132h-500v119z" />
    <glyph glyph-name="three.tn" horiz-adv-x="602" 
d="M405 470q79 -28 126 -79.5t47 -141.5q0 -73 -34.5 -132t-95 -93t-135.5 -34q-80 0 -141 31.5t-95.5 86t-39.5 122.5l11 8l122 18q5 -64 43 -103t98 -39q57 0 90.5 35.5t33.5 98.5q0 60 -43 94.5t-107 34.5h-36v103l113 100h-299v120h478v-116z" />
    <glyph glyph-name="four.tn" horiz-adv-x="602" 
d="M362 700h136v-447h84v-132h-84v-121h-142v121h-326v132zM356 253v233l-171 -233h171z" />
    <glyph glyph-name="five.tn" horiz-adv-x="602" 
d="M96 700h428v-116h-320l-24 -127q66 38 146 38q76 0 132.5 -29.5t87 -85t30.5 -129.5q0 -73 -33 -132.5t-95 -94t-145 -34.5q-72 0 -130.5 27t-95.5 75t-45 110l9 18l130 20q7 -54 40 -90t92 -36q61 0 95.5 37t34.5 101q0 62 -37 95.5t-97 33.5q-45 0 -83.5 -15t-66.5 -37
l-99 48z" />
    <glyph glyph-name="six.tn" horiz-adv-x="602" 
d="M192.5 16q-55.5 26 -90.5 70q-36 44 -53 103.5t-17 137.5q0 114 36 201t101.5 134.5t151.5 47.5q93 0 152.5 -45.5t77.5 -125.5l-7 -15l-116 -22q-29 87 -110 87q-59 0 -99 -49.5t-42 -133.5q31 29 71.5 43t85.5 14q67 0 121 -28t85 -80t31 -120q0 -69 -34 -125t-95 -88
t-138 -32q-56 0 -111.5 26zM400.5 143q33.5 37 33.5 89t-33.5 89t-91.5 37t-91.5 -37t-33.5 -89q0 -54 33.5 -90t91.5 -36t91.5 37z" />
    <glyph glyph-name="seven.tn" horiz-adv-x="602" 
d="M281 0h-152l250 574h-314v126h472v-103z" />
    <glyph glyph-name="eight.tn" horiz-adv-x="602" 
d="M78.5 316.5q28.5 47.5 75.5 73.5q-32 24 -50 60t-18 77q0 52 27 94t76 65.5t112 23.5t112 -23.5t76 -65.5t27 -94q0 -41 -18 -77t-50 -60q47 -26 75.5 -73.5t28.5 -105.5q0 -63 -30.5 -113t-87.5 -79t-133 -29t-133 29t-87.5 79t-30.5 113q0 58 28.5 105.5zM366.5 460.5
q25.5 23.5 25.5 61.5q0 37 -25.5 61t-65.5 24t-65.5 -24t-25.5 -61q0 -38 25.5 -61.5t65.5 -23.5t65.5 23.5zM383.5 138q32.5 32 32.5 81q0 48 -33 80t-82 32t-82 -32t-33 -80q0 -49 32.5 -81t82.5 -32t82.5 32z" />
    <glyph glyph-name="nine.tn" horiz-adv-x="602" 
d="M136.5 35.5q-60.5 45.5 -78.5 125.5l7 15l116 22q29 -87 110 -87q59 0 99 49.5t42 133.5q-60 -57 -157 -57q-67 0 -121 28t-85 80t-31 120q0 69 34 125t95 88t138 32q61 0 113.5 -25.5t88.5 -70.5q36 -44 53 -103.5t17 -137.5q0 -115 -34.5 -201.5t-99 -134t-151.5 -47.5
q-95 0 -155.5 45.5zM208.5 557q-33.5 -37 -33.5 -89t33.5 -89t91.5 -37t91.5 37t33.5 89q0 54 -33.5 90t-91.5 36t-91.5 -37z" />
    <glyph glyph-name="g.alt" horiz-adv-x="498" 
d="M74.5 -165q-60.5 45 -60.5 119q0 27 12.5 54t34.5 47q-35 33 -35 81q0 70 67 106q-30 43 -30 98q0 51 25 89.5t66 59.5t89 21q30 0 63 -10h147v-79h-51q21 -37 21 -81q0 -51 -25 -89.5t-66 -59.5t-89 -21q-44 0 -83 18q-19 -12 -19 -33q0 -39 80 -42q8 -1 28 -1
q130 0 184 -42q48 -40 48 -106q0 -78 -63.5 -126t-175.5 -48q-107 0 -167.5 45zM296.5 286.5q21.5 19.5 21.5 53.5t-21.5 53.5t-53.5 19.5q-31 0 -52.5 -19.5t-21.5 -53.5t21.5 -53.5t52.5 -19.5q32 0 53.5 19.5zM323 -92q28 15 28 47q0 28 -24.5 40.5t-83.5 12.5h-51
q-16 0 -44 4q-15 -22 -15 -49q0 -32 30.5 -51t84.5 -19q47 0 75 15z" />
    <glyph glyph-name="gcircumflex.alt" horiz-adv-x="498" 
d="M74.5 -165q-60.5 45 -60.5 119q0 27 12.5 54t34.5 47q-35 33 -35 81q0 70 67 106q-30 43 -30 98q0 51 25 89.5t66 59.5t89 21q30 0 63 -10h147v-79h-51q21 -37 21 -81q0 -51 -25 -89.5t-66 -59.5t-89 -21q-44 0 -83 18q-19 -12 -19 -33q0 -39 80 -42q8 -1 28 -1
q130 0 184 -42q48 -40 48 -106q0 -78 -63.5 -126t-175.5 -48q-107 0 -167.5 45zM296.5 286.5q21.5 19.5 21.5 53.5t-21.5 53.5t-53.5 19.5q-31 0 -52.5 -19.5t-21.5 -53.5t21.5 -53.5t52.5 -19.5q32 0 53.5 19.5zM323 -92q28 15 28 47q0 28 -24.5 40.5t-83.5 12.5h-51
q-16 0 -44 4q-15 -22 -15 -49q0 -32 30.5 -51t84.5 -19q47 0 75 15zM300 560l-55 57l-56 -57h-103l114 147h90l114 -147h-104z" />
    <glyph glyph-name="gbreve.alt" horiz-adv-x="498" 
d="M74.5 -165q-60.5 45 -60.5 119q0 27 12.5 54t34.5 47q-35 33 -35 81q0 70 67 106q-30 43 -30 98q0 51 25 89.5t66 59.5t89 21q30 0 63 -10h147v-79h-51q21 -37 21 -81q0 -51 -25 -89.5t-66 -59.5t-89 -21q-44 0 -83 18q-19 -12 -19 -33q0 -39 80 -42q8 -1 28 -1
q130 0 184 -42q48 -40 48 -106q0 -78 -63.5 -126t-175.5 -48q-107 0 -167.5 45zM296.5 286.5q21.5 19.5 21.5 53.5t-21.5 53.5t-53.5 19.5q-31 0 -52.5 -19.5t-21.5 -53.5t21.5 -53.5t52.5 -19.5q32 0 53.5 19.5zM323 -92q28 15 28 47q0 28 -24.5 40.5t-83.5 12.5h-51
q-16 0 -44 4q-15 -22 -15 -49q0 -32 30.5 -51t84.5 -19q47 0 75 15zM328 602.5q-30 -30.5 -82 -30.5t-82 30.5t-30 80.5h81q0 -15 8 -25t23 -10t23 10t8 25h81q0 -50 -30 -80.5z" />
    <glyph glyph-name="gdotaccent.alt" horiz-adv-x="498" 
d="M74.5 -165q-60.5 45 -60.5 119q0 27 12.5 54t34.5 47q-35 33 -35 81q0 70 67 106q-30 43 -30 98q0 51 25 89.5t66 59.5t89 21q30 0 63 -10h147v-79h-51q21 -37 21 -81q0 -51 -25 -89.5t-66 -59.5t-89 -21q-44 0 -83 18q-19 -12 -19 -33q0 -39 80 -42q8 -1 28 -1
q130 0 184 -42q48 -40 48 -106q0 -78 -63.5 -126t-175.5 -48q-107 0 -167.5 45zM296.5 286.5q21.5 19.5 21.5 53.5t-21.5 53.5t-53.5 19.5q-31 0 -52.5 -19.5t-21.5 -53.5t21.5 -53.5t52.5 -19.5q32 0 53.5 19.5zM323 -92q28 15 28 47q0 28 -24.5 40.5t-83.5 12.5h-51
q-16 0 -44 4q-15 -22 -15 -49q0 -32 30.5 -51t84.5 -19q47 0 75 15zM301.5 694.5q24.5 -24.5 24.5 -58.5t-24.5 -58.5t-58.5 -24.5t-58.5 24.5t-24.5 58.5t24.5 58.5t58.5 24.5t58.5 -24.5z" />
    <glyph glyph-name="gcommaaccent.alt" horiz-adv-x="498" 
d="M270.5 772.5q-21.5 -20.5 -28.5 -50.5q34 -3 54 -25t20 -51q0 -33 -22 -54.5t-54 -21.5q-33 0 -54.5 24t-21.5 64q0 62 41.5 111.5t108.5 70.5l13 -30q-35 -17 -56.5 -37.5zM74.5 -165q-60.5 45 -60.5 119q0 27 12.5 54t34.5 47q-35 33 -35 81q0 70 67 106q-30 43 -30 98
q0 51 25 89.5t66 59.5t89 21q30 0 63 -10h147v-79h-51q21 -37 21 -81q0 -51 -25 -89.5t-66 -59.5t-89 -21q-44 0 -83 18q-19 -12 -19 -33q0 -39 80 -42q8 -1 28 -1q130 0 184 -42q48 -40 48 -106q0 -78 -63.5 -126t-175.5 -48q-107 0 -167.5 45zM296.5 286.5
q21.5 19.5 21.5 53.5t-21.5 53.5t-53.5 19.5q-31 0 -52.5 -19.5t-21.5 -53.5t21.5 -53.5t52.5 -19.5q32 0 53.5 19.5zM323 -92q28 15 28 47q0 28 -24.5 40.5t-83.5 12.5h-51q-16 0 -44 4q-15 -22 -15 -49q0 -32 30.5 -51t84.5 -19q47 0 75 15z" />
    <glyph glyph-name="copyright.alt" horiz-adv-x="792" 
d="M578.5 661.5q82.5 -48.5 130 -131t47.5 -180.5t-47.5 -180.5t-130 -131t-182.5 -48.5t-182.5 48.5t-130 131t-47.5 180.5t47.5 180.5t130 131t182.5 48.5t182.5 -48.5zM533 111q62 37 98.5 100.5t36.5 138.5t-36.5 138.5t-98.5 100.5t-137 37t-137 -37t-98.5 -100.5
t-36.5 -138.5t36.5 -138.5t98.5 -100.5t137 -37t137 37zM461.5 248.5q24.5 18.5 36.5 55.5l75 -17l5 -8q-42 -133 -182 -133q-56 0 -101.5 25.5t-71.5 72t-26 106.5t26 106.5t71.5 72t101.5 25.5q72 0 122 -36.5t61 -97.5l-5 -7l-76 -16q-11 35 -36.5 54t-65.5 19
q-49 0 -80 -32t-31 -88t31 -88t80 -32q41 0 65.5 18.5z" />
    <glyph glyph-name="registered.alt" horiz-adv-x="792" 
d="M213.5 38.5q-82.5 48.5 -130 131t-47.5 180.5t47.5 180.5t130 131t182.5 48.5t182.5 -48.5t130 -131t47.5 -180.5t-47.5 -180.5t-130 -131t-182.5 -48.5t-182.5 48.5zM533 111q62 37 98.5 100.5t36.5 138.5t-36.5 138.5t-98.5 100.5t-137 37t-137 -37t-98.5 -100.5
t-36.5 -138.5t36.5 -138.5t98.5 -100.5t137 -37t137 37zM261 554h132q73 0 112.5 -35.5t39.5 -95.5q0 -38 -18.5 -66t-54.5 -49v-5l80 -157h-83l-74 148h-58v-148h-76v408zM395 363q73 0 73 61t-73 61h-58v-122h58z" />
    </font>
</defs>
</svg>
