<svg width="12" height="12" viewBox="0 0 12 12" fill="none" xmlns="http://www.w3.org/2000/svg">
<path d="M0.158703 1.2075C1.6737 3.15 4.4712 6.75 4.4712 6.75V11.25C4.4712 11.6625 4.8087 12 5.2212 12H6.7212C7.1337 12 7.4712 11.6625 7.4712 11.25V6.75C7.4712 6.75 10.2612 3.15 11.7762 1.2075C11.8622 1.09678 11.9153 0.964147 11.9296 0.824705C11.9438 0.685263 11.9187 0.544616 11.8569 0.418778C11.7952 0.292941 11.6993 0.18697 11.5803 0.112932C11.4613 0.0388949 11.3239 -0.000234027 11.1837 1.05303e-06H0.751203C0.128703 1.05303e-06 -0.223797 0.712501 0.158703 1.2075Z" fill="#596B7A"/>
</svg>
