<svg width="1150" height="347" viewBox="0 0 1150 347" fill="none" xmlns="http://www.w3.org/2000/svg">
<mask id="mask0" mask-type="alpha" maskUnits="userSpaceOnUse" x="0" y="0" width="1150" height="347">
<rect width="1150" height="347" rx="5" fill="white"/>
</mask>
<g mask="url(#mask0)">
<g opacity="0.75">
<mask id="mask1" mask-type="alpha" maskUnits="userSpaceOnUse" x="-103" y="-858" width="2710" height="1205">
<path d="M-103 -858H2607V347H-103V-858Z" fill="white"/>
</mask>
<g mask="url(#mask1)">
<g opacity="0.505">
<path opacity="0.4" d="M465.347 -99.2303H346.784C344.706 -99.2303 343.021 -97.5444 343.021 -95.4647V335.699C343.021 337.779 344.706 339.465 346.784 339.465H465.347C467.426 339.465 469.111 337.779 469.111 335.699V-95.4647C469.111 -97.5444 467.426 -99.2303 465.347 -99.2303Z" fill="url(#paint0_linear)" fill-opacity="0.5"/>
<path opacity="0.505" fill-rule="evenodd" clip-rule="evenodd" d="M301.618 209.552H502.986V369.591H301.618V209.552Z" fill="url(#paint1_linear)" fill-opacity="0.5"/>
<g opacity="0.505">
<path opacity="0.505" d="M484.168 290.509H408.89C407.85 290.509 407.008 291.352 407.008 292.392V367.705C407.008 368.744 407.85 369.587 408.89 369.587H484.168C485.207 369.587 486.049 368.744 486.049 367.705V292.392C486.049 291.352 485.207 290.509 484.168 290.509Z" fill="url(#paint2_linear)" fill-opacity="0.5"/>
<path opacity="0.505" fill-rule="evenodd" clip-rule="evenodd" d="M415.791 299.297H420.182V360.801H415.791V299.297ZM420.182 299.297H477.267V303.689H420.182V299.297Z" fill="url(#paint3_linear)" fill-opacity="0.5"/>
<path opacity="0.505" fill-rule="evenodd" clip-rule="evenodd" d="M444.332 299.194H448.723V360.7H444.332V299.194Z" fill="url(#paint4_linear)" fill-opacity="0.5"/>
</g>
<g opacity="0.505">
<path opacity="0.505" d="M395.716 290.509H320.439C319.399 290.509 318.557 291.352 318.557 292.392V352.642C318.557 353.682 319.399 354.525 320.439 354.525H395.716C396.756 354.525 397.598 353.682 397.598 352.642V292.392C397.598 291.352 396.756 290.509 395.716 290.509Z" fill="url(#paint5_linear)" fill-opacity="0.5"/>
<path opacity="0.505" fill-rule="evenodd" clip-rule="evenodd" d="M327.34 299.653H331.73V345.379H327.34V299.653ZM331.736 299.723H388.821V304.294H331.736V299.723Z" fill="url(#paint6_linear)" fill-opacity="0.5"/>
</g>
<path opacity="0.505" fill-rule="evenodd" clip-rule="evenodd" d="M309.146 245.327H316.674V362.061H309.146V245.327Z" fill="url(#paint7_linear)" fill-opacity="0.5"/>
<g opacity="0.505">
<path opacity="0.505" fill-rule="evenodd" clip-rule="evenodd" d="M309.146 245.327C309.146 252.606 315.105 258.507 322.454 258.507C329.805 258.507 335.763 252.606 335.763 245.327H309.146ZM335.763 245.327C335.763 252.606 341.721 258.507 349.07 258.507C356.421 258.507 362.379 252.606 362.379 245.327H335.763ZM362.379 245.327C362.379 252.606 368.337 258.507 375.686 258.507C383.037 258.507 388.996 252.606 388.996 245.327H362.379ZM388.996 245.327C388.996 252.606 394.954 258.507 402.303 258.507C409.652 258.507 415.61 252.606 415.61 245.327H388.996ZM415.61 245.327C415.61 252.606 421.568 258.507 428.919 258.507C436.268 258.507 442.226 252.606 442.226 245.327H415.61ZM442.226 245.327C442.226 252.606 448.185 258.507 455.535 258.507C462.884 258.507 468.843 252.606 468.843 245.327H442.226ZM468.843 245.327C468.843 252.606 474.801 258.507 482.152 258.507C489.501 258.507 495.459 252.606 495.459 245.327" fill="url(#paint8_linear)" fill-opacity="0.5"/>
</g>
<g opacity="0.505">
<path opacity="0.505" fill-rule="evenodd" clip-rule="evenodd" d="M301.68 209.552H501.979L521.806 237.794H282.799L301.68 209.552Z" fill="url(#paint9_linear)" fill-opacity="0.5"/>
<path opacity="0.505" fill-rule="evenodd" clip-rule="evenodd" d="M301.697 209.552H318.098V237.794H282.799L301.697 209.552Z" fill="url(#paint10_linear)" fill-opacity="0.5"/>
</g>
<g opacity="0.505">
<path opacity="0.505" d="M484.167 173.777H416.417C415.378 173.777 414.535 174.62 414.535 175.66V207.668C414.535 208.708 415.378 209.551 416.417 209.551H484.167C485.206 209.551 486.049 208.708 486.049 207.668V175.66C486.049 174.62 485.206 173.777 484.167 173.777Z" fill="url(#paint11_linear)" fill-opacity="0.5"/>
<path opacity="0.505" fill-rule="evenodd" clip-rule="evenodd" d="M423.475 182.72H432.414V200.606H423.475V182.72Z" fill="url(#paint12_linear)" fill-opacity="0.5"/>
</g>
<path opacity="0.5" d="M239.514 -5.08972H120.951C118.873 -5.08972 117.188 -3.40379 117.188 -1.3241V333.817C117.188 335.896 118.873 337.582 120.951 337.582H239.514C241.593 337.582 243.278 335.896 243.278 333.817V-1.3241C243.278 -3.40379 241.593 -5.08972 239.514 -5.08972Z" fill="url(#paint13_linear)" fill-opacity="0.5"/>
<path opacity="0.505" d="M38.1467 -193.371H-80.4158C-82.4945 -193.371 -84.1797 -191.685 -84.1797 -189.605V303.692C-84.1797 305.771 -82.4945 307.457 -80.4158 307.457H38.1467C40.2254 307.457 41.9106 305.771 41.9106 303.692V-189.605C41.9106 -191.685 40.2254 -193.371 38.1467 -193.371Z" fill="url(#paint14_linear)" fill-opacity="0.5"/>
<g opacity="0.505">
<g opacity="0.505">
<path opacity="0.505" fill-rule="evenodd" clip-rule="evenodd" d="M-16.4306 -172.652C-16.4317 -172.902 -16.3831 -173.149 -16.2878 -173.38C-16.1925 -173.61 -16.0523 -173.819 -15.8755 -173.995C-15.6986 -174.171 -15.4886 -174.31 -15.2576 -174.404C-15.0266 -174.498 -14.7792 -174.545 -14.5299 -174.543H-9.36958C-8.31946 -174.543 -7.46882 -173.692 -7.46882 -172.652V-146.922C-7.46781 -146.672 -7.51637 -146.425 -7.61167 -146.195C-7.70698 -145.964 -7.84713 -145.755 -8.02398 -145.579C-8.20084 -145.403 -8.41087 -145.264 -8.64187 -145.17C-8.87287 -145.076 -9.12023 -145.029 -9.36958 -145.031H-14.5299C-15.58 -145.031 -16.4306 -145.883 -16.4306 -146.922V-172.652ZM-2.0921 -172.652C-2.09311 -172.902 -2.04455 -173.149 -1.94925 -173.38C-1.85394 -173.61 -1.71379 -173.819 -1.53694 -173.995C-1.36009 -174.171 -1.15006 -174.31 -0.919056 -174.404C-0.688056 -174.498 -0.440692 -174.545 -0.191338 -174.543H4.96895C6.01907 -174.543 6.86972 -173.692 6.86972 -172.652V-146.922C6.87073 -146.672 6.82217 -146.425 6.72686 -146.195C6.63156 -145.964 6.49141 -145.755 6.31455 -145.579C6.1377 -145.403 5.92767 -145.264 5.69667 -145.17C5.46567 -145.076 5.2183 -145.029 4.96895 -145.031H-0.189457C-1.23958 -145.031 -2.09022 -145.883 -2.09022 -146.922V-172.652H-2.0921ZM12.2483 -172.652C12.2473 -172.902 12.2957 -173.148 12.3908 -173.379C12.4859 -173.609 12.6257 -173.818 12.8022 -173.994C12.9786 -174.17 13.1882 -174.309 13.4188 -174.403C13.6493 -174.497 13.8963 -174.545 14.1453 -174.543H19.3056C20.3576 -174.543 21.2083 -173.692 21.2083 -172.652V-146.922C21.2093 -146.672 21.1607 -146.425 21.0654 -146.195C20.9701 -145.964 20.8299 -145.755 20.6531 -145.579C20.4762 -145.403 20.2662 -145.264 20.0352 -145.17C19.8042 -145.076 19.5568 -145.029 19.3075 -145.031H14.1472C13.0971 -145.031 12.2464 -145.883 12.2464 -146.922V-172.652H12.2483ZM-16.4306 -117.846C-16.4317 -118.095 -16.3831 -118.342 -16.2878 -118.573C-16.1925 -118.803 -16.0523 -119.013 -15.8755 -119.188C-15.6986 -119.364 -15.4886 -119.503 -15.2576 -119.597C-15.0266 -119.691 -14.7792 -119.738 -14.5299 -119.736H-9.36958C-8.31946 -119.736 -7.46882 -118.885 -7.46882 -117.846V-92.1169C-7.46756 -91.8673 -7.51593 -91.6199 -7.61113 -91.3891C-7.70632 -91.1584 -7.84643 -90.9489 -8.02331 -90.7728C-8.20019 -90.5967 -8.4103 -90.4576 -8.64143 -90.3635C-8.87255 -90.2694 -9.12007 -90.2222 -9.36958 -90.2247H-14.5299C-15.58 -90.2247 -16.4306 -91.0776 -16.4306 -92.1169V-117.846ZM-2.0921 -117.846C-2.09311 -118.095 -2.04455 -118.342 -1.94925 -118.573C-1.85394 -118.803 -1.71379 -119.013 -1.53694 -119.188C-1.36009 -119.364 -1.15006 -119.503 -0.919056 -119.597C-0.688056 -119.691 -0.440692 -119.738 -0.191338 -119.736H4.96895C6.01907 -119.736 6.86972 -118.885 6.86972 -117.846V-92.1169C6.87098 -91.8673 6.8226 -91.6199 6.72741 -91.3891C6.63221 -91.1584 6.4921 -90.9489 6.31522 -90.7728C6.13834 -90.5967 5.92823 -90.4576 5.69711 -90.3635C5.46598 -90.2694 5.21846 -90.2222 4.96895 -90.2247H-0.189457C-1.23958 -90.2247 -2.09022 -91.0776 -2.09022 -92.1169V-117.846H-2.0921ZM12.2483 -117.846C12.2473 -118.095 12.2958 -118.342 12.391 -118.572C12.4862 -118.803 12.6262 -119.012 12.8028 -119.188C12.9795 -119.364 13.1893 -119.503 13.4201 -119.597C13.6508 -119.691 13.898 -119.738 14.1472 -119.736H19.3075C20.3576 -119.736 21.2083 -118.885 21.2083 -117.846V-92.1169C21.2095 -91.8673 21.1611 -91.6199 21.0659 -91.3891C20.9707 -91.1584 20.8306 -90.9489 20.6538 -90.7728C20.4769 -90.5967 20.2668 -90.4576 20.0356 -90.3635C19.8045 -90.2694 19.557 -90.2222 19.3075 -90.2247H14.1472C13.0971 -90.2247 12.2464 -91.0776 12.2464 -92.1169V-117.846H12.2483ZM-16.4306 -63.0388C-16.4319 -63.2884 -16.3835 -63.5358 -16.2883 -63.7666C-16.1931 -63.9973 -16.053 -64.2068 -15.8761 -64.3829C-15.6993 -64.559 -15.4892 -64.6981 -15.258 -64.7922C-15.0269 -64.8863 -14.7794 -64.9335 -14.5299 -64.931H-9.36958C-8.31946 -64.931 -7.46882 -64.0781 -7.46882 -63.0388V-37.3101C-7.46781 -37.0606 -7.51637 -36.8134 -7.61167 -36.5829C-7.70698 -36.3524 -7.84713 -36.1431 -8.02398 -35.9672C-8.20084 -35.7913 -8.41087 -35.6523 -8.64187 -35.5583C-8.87287 -35.4644 -9.12023 -35.4173 -9.36958 -35.4198H-14.5299C-15.58 -35.4198 -16.4306 -36.2708 -16.4306 -37.3101V-63.0388ZM-2.0921 -63.0388C-2.09336 -63.2884 -2.04499 -63.5358 -1.94979 -63.7666C-1.8546 -63.9973 -1.71449 -64.2068 -1.53761 -64.3829C-1.36073 -64.559 -1.15062 -64.6981 -0.919494 -64.7922C-0.68837 -64.8863 -0.44085 -64.9335 -0.191338 -64.931H4.96895C6.01907 -64.931 6.86972 -64.0781 6.86972 -63.0388V-37.3101C6.87073 -37.0606 6.82217 -36.8134 6.72686 -36.5829C6.63156 -36.3524 6.49141 -36.1431 6.31455 -35.9672C6.1377 -35.7913 5.92767 -35.6523 5.69667 -35.5583C5.46567 -35.4644 5.2183 -35.4173 4.96895 -35.4198H-0.189457C-1.23958 -35.4198 -2.09022 -36.2708 -2.09022 -37.3101V-63.0388H-2.0921ZM12.2483 -63.0388C12.2471 -63.2882 12.2954 -63.5355 12.3904 -63.7661C12.4855 -63.9968 12.6255 -64.2062 12.8021 -64.3822C12.9788 -64.5583 13.1887 -64.6975 13.4196 -64.7917C13.6505 -64.8859 13.8978 -64.9332 14.1472 -64.931H19.3075C20.3576 -64.931 21.2083 -64.0781 21.2083 -63.0388V-37.3101C21.2093 -37.0606 21.1607 -36.8134 21.0654 -36.5829C20.9701 -36.3524 20.8299 -36.1431 20.6531 -35.9672C20.4762 -35.7913 20.2662 -35.6523 20.0352 -35.5583C19.8042 -35.4644 19.5568 -35.4173 19.3075 -35.4198H14.1472C13.0971 -35.4198 12.2464 -36.2708 12.2464 -37.3101V-63.0388H12.2483ZM-16.4306 -8.23384C-16.4317 -8.48332 -16.3831 -8.73051 -16.2878 -8.96106C-16.1925 -9.1916 -16.0523 -9.40091 -15.8755 -9.57678C-15.6986 -9.75267 -15.4886 -9.89163 -15.2576 -9.98561C-15.0266 -10.0796 -14.7792 -10.1267 -14.5299 -10.1242H-9.36958C-8.31946 -10.1242 -7.46882 -9.27316 -7.46882 -8.23384V17.4967C-7.46781 17.7462 -7.51637 17.9933 -7.61167 18.2239C-7.70698 18.4544 -7.84713 18.6637 -8.02398 18.8396C-8.20084 19.0155 -8.41087 19.1544 -8.64187 19.2484C-8.87287 19.3424 -9.12023 19.3895 -9.36958 19.387H-14.5299C-15.58 19.387 -16.4306 18.536 -16.4306 17.4967V-8.23384ZM-2.0921 -8.23384C-2.09311 -8.48332 -2.04455 -8.73051 -1.94925 -8.96106C-1.85394 -9.1916 -1.71379 -9.40091 -1.53694 -9.57678C-1.36009 -9.75267 -1.15006 -9.89163 -0.919056 -9.98561C-0.688056 -10.0796 -0.440692 -10.1267 -0.191338 -10.1242H4.96895C6.01907 -10.1242 6.86972 -9.27316 6.86972 -8.23384V17.4967C6.87073 17.7462 6.82217 17.9933 6.72686 18.2239C6.63156 18.4544 6.49141 18.6637 6.31455 18.8396C6.1377 19.0155 5.92767 19.1544 5.69667 19.2484C5.46567 19.3424 5.2183 19.3895 4.96895 19.387H-0.189457C-1.23958 19.387 -2.09022 18.536 -2.09022 17.4967V-8.23384H-2.0921ZM12.2483 -8.23384C12.2473 -8.48317 12.2958 -8.73021 12.391 -8.96063C12.4862 -9.19104 12.6262 -9.40025 12.8028 -9.57611C12.9795 -9.75197 13.1893 -9.89098 13.4201 -9.98506C13.6508 -10.0791 13.898 -10.1264 14.1472 -10.1242H19.3075C20.3576 -10.1242 21.2083 -9.27316 21.2083 -8.23384V17.4967C21.2093 17.7462 21.1607 17.9933 21.0654 18.2239C20.9701 18.4544 20.8299 18.6637 20.6531 18.8396C20.4762 19.0155 20.2662 19.1544 20.0352 19.2484C19.8042 19.3424 19.5568 19.3895 19.3075 19.387H14.1472C13.0971 19.387 12.2464 18.536 12.2464 17.4967V-8.23384H12.2483Z" fill="url(#paint15_linear)" fill-opacity="0.5"/>
<path opacity="0.505" fill-rule="evenodd" clip-rule="evenodd" d="M14.9351 -170.298H14.0374V-149.22H14.9351V-168.189H19.4141V-170.298H14.9351ZM0.594696 -170.298H-0.301114V-149.22H0.596577V-168.189H5.07561V-170.298H0.596577H0.594696ZM-13.742 -170.298H-14.6396V-149.22H-13.742V-168.189H-9.26293V-170.298H-13.742ZM14.9351 -115.491H14.0374V-94.4132H14.9351V-113.382H19.4141V-115.491H14.9351ZM0.594696 -115.491H-0.301114V-94.4132H0.596577V-113.382H5.07561V-115.491H0.596577H0.594696ZM-13.742 -115.491H-14.6396V-94.4132H-13.742V-113.382H-9.26293V-115.491H-13.742ZM14.9351 -60.6863H14.0374V-39.6064H14.9351V-58.5757H19.4141V-60.6845H14.9351V-60.6863ZM0.594696 -60.6863H-0.301114V-39.6064H0.596577V-58.5757H5.07561V-60.6845H0.596577L0.594696 -60.6863ZM-13.742 -60.6863H-14.6396V-39.6064H-13.742V-58.5757H-9.26293V-60.6845H-13.742V-60.6863ZM14.9351 -5.87955H14.0374V15.2004H14.9351V-3.77269H19.4141V-5.88142H14.9351V-5.87955ZM0.594696 -5.87955H-0.301114V15.2004H0.596577V-3.77269H5.07561V-5.88142H0.596577L0.594696 -5.87955ZM-13.742 -5.87955H-14.6396V15.2004H-13.742V-3.77269H-9.26293V-5.88142H-13.742V-5.87955Z" fill="url(#paint16_linear)" fill-opacity="0.5"/>
</g>
</g>
<path opacity="0.505" d="M399.479 107.879H280.916C278.837 107.879 277.152 109.565 277.152 111.645V330.051C277.152 332.131 278.837 333.817 280.916 333.817H399.479C401.557 333.817 403.243 332.131 403.243 330.051V111.645C403.243 109.565 401.557 107.879 399.479 107.879Z" fill="url(#paint17_linear)" fill-opacity="0.5"/>
<g opacity="0.505">
<path opacity="0.505" d="M619.666 -91.6978H501.104C499.025 -91.6978 497.34 -90.0119 497.34 -87.9322V405.365C497.34 407.444 499.025 409.13 501.104 409.13H619.666C621.745 409.13 623.43 407.444 623.43 405.365V-87.9322C623.43 -90.0119 621.745 -91.6978 619.666 -91.6978Z" fill="url(#paint18_linear)" fill-opacity="0.5"/>
<path opacity="0.505" fill-rule="evenodd" clip-rule="evenodd" d="M514.277 -52.1631C514.278 -52.6602 514.476 -53.1367 514.827 -53.4887C515.177 -53.8407 515.653 -54.0397 516.15 -54.0422H534.809C535.844 -54.0422 536.682 -53.2081 536.682 -52.1631V-24.7569C536.681 -24.2598 536.483 -23.7833 536.133 -23.4313C535.782 -23.0793 535.306 -22.8804 534.809 -22.8779H516.15C515.903 -22.8776 515.659 -22.9261 515.432 -23.0205C515.204 -23.1149 514.997 -23.2534 514.823 -23.428C514.649 -23.6026 514.511 -23.8099 514.418 -24.038C514.324 -24.266 514.276 -24.5103 514.277 -24.7569V-52.1631ZM550.125 -52.1631C550.126 -52.6599 550.323 -53.1361 550.673 -53.4881C551.024 -53.84 551.499 -54.0392 551.995 -54.0422H570.657C571.692 -54.0422 572.527 -53.2081 572.527 -52.1631V-24.7569C572.526 -24.2602 572.329 -23.7839 571.979 -23.432C571.628 -23.08 571.153 -22.8808 570.657 -22.8779H551.995C551.749 -22.8779 551.505 -22.9265 551.278 -23.021C551.05 -23.1156 550.844 -23.2541 550.67 -23.4287C550.496 -23.6033 550.358 -23.8105 550.265 -24.0384C550.171 -24.2663 550.124 -24.5105 550.125 -24.7569V-52.1631ZM585.97 -52.1631C585.971 -52.6602 586.168 -53.1367 586.519 -53.4887C586.87 -53.8407 587.346 -54.0397 587.843 -54.0422H606.502C607.537 -54.0422 608.375 -53.2081 608.375 -52.1631V-24.7569C608.374 -24.2598 608.176 -23.7833 607.825 -23.4313C607.475 -23.0793 606.999 -22.8804 606.502 -22.8779H587.843C587.596 -22.8776 587.352 -22.9261 587.124 -23.0205C586.897 -23.1149 586.69 -23.2534 586.516 -23.428C586.342 -23.6026 586.204 -23.8099 586.11 -24.038C586.017 -24.266 585.969 -24.5103 585.97 -24.7569V-52.1631ZM514.277 5.71453C514.278 5.21745 514.476 4.74094 514.827 4.38893C515.177 4.03691 515.653 3.83797 516.15 3.83548H534.809C535.844 3.83548 536.682 4.66956 536.682 5.71453V33.1207C536.681 33.6178 536.483 34.0943 536.133 34.4464C535.782 34.7984 535.306 34.9973 534.809 34.9998H516.15C515.903 35 515.659 34.9516 515.432 34.8572C515.204 34.7627 514.997 34.6243 514.823 34.4497C514.649 34.275 514.511 34.0678 514.418 33.8397C514.324 33.6116 514.276 33.3673 514.277 33.1207V5.71453ZM550.125 5.71453C550.126 5.21778 550.323 4.74155 550.673 4.38959C551.024 4.03763 551.499 3.83846 551.995 3.83548H570.657C571.692 3.83548 572.527 4.66956 572.527 5.71453V33.1207C572.526 33.6175 572.329 34.0937 571.979 34.4457C571.628 34.7976 571.153 34.9968 570.657 34.9998H551.995C551.749 34.9998 551.505 34.9511 551.278 34.8566C551.05 34.7621 550.844 34.6236 550.67 34.449C550.496 34.2744 550.358 34.0672 550.265 33.8393C550.171 33.6113 550.124 33.3671 550.125 33.1207V5.71453ZM585.97 5.71453C585.971 5.21745 586.168 4.74094 586.519 4.38893C586.87 4.03691 587.346 3.83797 587.843 3.83548H606.502C607.537 3.83548 608.375 4.66956 608.375 5.71453V33.1207C608.374 33.6178 608.176 34.0943 607.825 34.4464C607.475 34.7984 606.999 34.9973 606.502 34.9998H587.843C587.596 35 587.352 34.9516 587.124 34.8572C586.897 34.7627 586.69 34.6243 586.516 34.4497C586.342 34.275 586.204 34.0678 586.11 33.8397C586.017 33.6116 585.969 33.3673 585.97 33.1207V5.71453ZM514.277 63.5922C514.278 63.0951 514.476 62.6186 514.827 62.2666C515.177 61.9146 515.653 61.7156 516.15 61.7131H534.809C535.844 61.7131 536.682 62.5472 536.682 63.5922V90.9984C536.681 91.4955 536.483 91.972 536.133 92.324C535.782 92.676 535.306 92.875 534.809 92.8774H516.15C515.903 92.8777 515.659 92.8292 515.432 92.7348C515.204 92.6404 514.997 92.5019 514.823 92.3273C514.649 92.1527 514.511 91.9454 514.418 91.7173C514.324 91.4893 514.276 91.245 514.277 90.9984V63.5922ZM550.125 63.5922C550.126 63.0954 550.323 62.6192 550.673 62.2673C551.024 61.9153 551.499 61.7161 551.995 61.7131H570.657C571.692 61.7131 572.527 62.5472 572.527 63.5922V90.9984C572.526 91.4951 572.329 91.9714 571.979 92.3233C571.628 92.6753 571.153 92.8745 570.657 92.8774H551.995C551.749 92.8774 551.505 92.8288 551.278 92.7343C551.05 92.6398 550.844 92.5012 550.67 92.3266C550.496 92.152 550.358 91.9449 550.265 91.7169C550.171 91.489 550.124 91.2448 550.125 90.9984V63.5922ZM585.97 63.5922C585.971 63.0951 586.168 62.6186 586.519 62.2666C586.87 61.9146 587.346 61.7156 587.843 61.7131H606.502C607.537 61.7131 608.375 62.5472 608.375 63.5922V90.9984C608.374 91.4955 608.176 91.972 607.825 92.324C607.475 92.676 606.999 92.875 606.502 92.8774H587.843C587.596 92.8777 587.352 92.8292 587.124 92.7348C586.897 92.6404 586.69 92.5019 586.516 92.3273C586.342 92.1527 586.204 91.9454 586.11 91.7173C586.017 91.4893 585.969 91.245 585.97 90.9984V63.5922ZM514.277 121.47C514.278 120.973 514.476 120.496 514.827 120.144C515.177 119.792 515.653 119.593 516.15 119.591H534.809C535.844 119.591 536.682 120.423 536.682 121.47V148.876C536.681 149.373 536.483 149.85 536.133 150.202C535.782 150.554 535.306 150.753 534.809 150.755H516.15C515.903 150.755 515.659 150.707 515.432 150.612C515.204 150.518 514.997 150.38 514.823 150.205C514.649 150.03 514.511 149.823 514.418 149.595C514.324 149.367 514.276 149.123 514.277 148.876V121.47ZM550.125 121.47C550.126 120.973 550.323 120.497 550.673 120.145C551.024 119.793 551.499 119.594 551.995 119.591H570.657C571.692 119.591 572.527 120.423 572.527 121.47V148.876C572.526 149.373 572.329 149.849 571.979 150.201C571.628 150.553 571.153 150.752 570.657 150.755H551.995C551.749 150.755 551.505 150.706 551.278 150.612C551.05 150.517 550.844 150.379 550.67 150.204C550.496 150.03 550.358 149.822 550.265 149.595C550.171 149.367 550.124 149.122 550.125 148.876V121.47ZM585.97 121.47C585.971 120.973 586.168 120.496 586.519 120.144C586.87 119.792 587.346 119.593 587.843 119.591H606.502C607.537 119.591 608.375 120.423 608.375 121.47V148.876C608.374 149.373 608.176 149.85 607.825 150.202C607.475 150.554 606.999 150.753 606.502 150.755H587.843C587.596 150.755 587.352 150.707 587.124 150.612C586.897 150.518 586.69 150.38 586.516 150.205C586.342 150.03 586.204 149.823 586.11 149.595C586.017 149.367 585.969 149.123 585.97 148.876V121.47Z" fill="url(#paint19_linear)" fill-opacity="0.5"/>
<path opacity="0.505" fill-rule="evenodd" clip-rule="evenodd" d="M592.693 -49.5567H590.453V-27.2962H592.693V-47.3293H603.894V-49.5548H592.693V-49.5567ZM556.846 -49.5567H554.606V-27.2962H556.846V-47.3293H568.047V-49.5548H556.847L556.846 -49.5567ZM520.998 -49.5567H518.759V-27.2962H520.998V-47.3293H532.202V-49.5548H520.996L520.998 -49.5567ZM592.693 8.32095H590.453V30.5814H592.693V10.5483H603.894V8.32283H592.693V8.32095ZM556.846 8.32095H554.606V30.5814H556.846V10.5483H568.047V8.32283H556.847L556.846 8.32095ZM520.998 8.32095H518.759V30.5814H520.998V10.5483H532.202V8.32283H520.996L520.998 8.32095ZM592.693 66.1986H590.453V88.4591H592.693V68.426H603.894V66.2005H592.693V66.1986ZM556.846 66.1986H554.606V88.4591H556.846V68.426H568.047V66.2005H556.847L556.846 66.1986ZM520.998 66.1986H518.759V88.4591H520.998V68.426H532.202V66.2005H520.996L520.998 66.1986ZM592.693 124.076H590.453V146.337H592.693V126.304H603.894V124.078H592.693V124.076ZM556.846 124.076H554.606V146.337H556.846V126.304H568.047V124.078H556.847L556.846 124.076ZM520.998 124.076H518.759V146.337H520.998V126.304H532.202V124.078H520.996L520.998 124.076Z" fill="url(#paint20_linear)" fill-opacity="0.5"/>
<g opacity="0.505">
<path opacity="0.505" fill-rule="evenodd" clip-rule="evenodd" d="M514.277 122.941C514.278 122.444 514.476 121.967 514.827 121.615C515.177 121.263 515.653 121.064 516.15 121.062H534.809C535.844 121.062 536.682 121.896 536.682 122.941V150.347C536.681 150.844 536.483 151.321 536.133 151.673C535.782 152.025 535.306 152.224 534.809 152.226H516.15C515.903 152.227 515.659 152.178 515.432 152.084C515.204 151.989 514.997 151.851 514.823 151.676C514.649 151.502 514.511 151.294 514.418 151.066C514.324 150.838 514.276 150.594 514.277 150.347V122.941ZM550.125 122.941C550.126 122.444 550.323 121.968 550.673 121.616C551.024 121.264 551.499 121.065 551.995 121.062H570.657C571.692 121.062 572.527 121.896 572.527 122.941V150.347C572.526 150.844 572.329 151.32 571.979 151.672C571.628 152.024 571.153 152.223 570.657 152.226H551.995C551.749 152.226 551.505 152.178 551.278 152.083C551.05 151.989 550.844 151.85 550.67 151.675C550.496 151.501 550.358 151.294 550.265 151.066C550.171 150.838 550.124 150.594 550.125 150.347V122.941ZM585.97 122.941C585.971 122.444 586.168 121.967 586.519 121.615C586.87 121.263 587.346 121.064 587.843 121.062H606.502C607.537 121.062 608.375 121.896 608.375 122.941V150.347C608.374 150.844 608.176 151.321 607.825 151.673C607.475 152.025 606.999 152.224 606.502 152.226H587.843C587.596 152.227 587.352 152.178 587.124 152.084C586.897 151.989 586.69 151.851 586.516 151.676C586.342 151.502 586.204 151.294 586.11 151.066C586.017 150.838 585.969 150.594 585.97 150.347V122.941ZM514.277 180.819C514.278 180.322 514.476 179.845 514.827 179.493C515.177 179.141 515.653 178.942 516.15 178.94H534.809C535.844 178.94 536.682 179.774 536.682 180.819V208.225C536.681 208.722 536.483 209.199 536.133 209.551C535.782 209.903 535.306 210.102 534.809 210.104H516.15C515.903 210.104 515.659 210.056 515.432 209.961C515.204 209.867 514.997 209.728 514.823 209.554C514.649 209.379 514.511 209.172 514.418 208.944C514.324 208.716 514.276 208.472 514.277 208.225V180.819ZM550.125 180.819C550.126 180.322 550.323 179.846 550.673 179.494C551.024 179.142 551.499 178.943 551.995 178.94H570.657C571.692 178.94 572.527 179.774 572.527 180.819V208.225C572.526 208.722 572.329 209.198 571.979 209.55C571.628 209.902 571.153 210.101 570.657 210.104H551.995C551.749 210.104 551.505 210.055 551.278 209.961C551.05 209.866 550.844 209.728 550.67 209.553C550.496 209.379 550.358 209.171 550.265 208.943C550.171 208.716 550.124 208.471 550.125 208.225V180.819ZM585.97 180.819C585.971 180.322 586.168 179.845 586.519 179.493C586.87 179.141 587.346 178.942 587.843 178.94H606.502C607.537 178.94 608.375 179.774 608.375 180.819V208.225C608.374 208.722 608.176 209.199 607.825 209.551C607.475 209.903 606.999 210.102 606.502 210.104H587.843C587.596 210.104 587.352 210.056 587.124 209.961C586.897 209.867 586.69 209.728 586.516 209.554C586.342 209.379 586.204 209.172 586.11 208.944C586.017 208.716 585.969 208.472 585.97 208.225V180.819ZM514.277 238.696C514.278 238.199 514.476 237.723 514.827 237.371C515.177 237.019 515.653 236.82 516.15 236.817H534.809C535.844 236.817 536.682 237.651 536.682 238.696V266.103C536.681 266.6 536.483 267.076 536.133 267.428C535.782 267.78 535.306 267.979 534.809 267.982H516.15C515.903 267.982 515.659 267.933 515.432 267.839C515.204 267.745 514.997 267.606 514.823 267.431C514.649 267.257 514.511 267.05 514.418 266.822C514.324 266.593 514.276 266.349 514.277 266.103V238.696ZM550.125 238.696C550.126 238.2 550.323 237.723 550.673 237.371C551.024 237.019 551.499 236.82 551.995 236.817H570.657C571.692 236.817 572.527 237.651 572.527 238.696V266.103C572.526 266.599 572.329 267.076 571.979 267.428C571.628 267.779 571.153 267.979 570.657 267.982H551.995C551.749 267.982 551.505 267.933 551.278 267.838C551.05 267.744 550.844 267.605 550.67 267.431C550.496 267.256 550.358 267.049 550.265 266.821C550.171 266.593 550.124 266.349 550.125 266.103V238.696ZM585.97 238.696C585.971 238.199 586.168 237.723 586.519 237.371C586.87 237.019 587.346 236.82 587.843 236.817H606.502C607.537 236.817 608.375 237.651 608.375 238.696V266.103C608.374 266.6 608.176 267.076 607.825 267.428C607.475 267.78 606.999 267.979 606.502 267.982H587.843C587.596 267.982 587.352 267.933 587.124 267.839C586.897 267.745 586.69 267.606 586.516 267.431C586.342 267.257 586.204 267.05 586.11 266.822C586.017 266.593 585.969 266.349 585.97 266.103V238.696ZM514.277 296.574C514.278 296.077 514.476 295.6 514.827 295.248C515.177 294.896 515.653 294.697 516.15 294.695H534.809C535.844 294.695 536.682 295.527 536.682 296.574V323.98C536.681 324.477 536.483 324.954 536.133 325.306C535.782 325.658 535.306 325.857 534.809 325.859H516.15C515.903 325.86 515.659 325.811 515.432 325.717C515.204 325.622 514.997 325.484 514.823 325.309C514.649 325.135 514.511 324.927 514.418 324.699C514.324 324.471 514.276 324.227 514.277 323.98V296.574ZM550.125 296.574C550.126 296.077 550.323 295.601 550.673 295.249C551.024 294.897 551.499 294.698 551.995 294.695H570.657C571.692 294.695 572.527 295.527 572.527 296.574V323.98C572.526 324.477 572.329 324.953 571.979 325.305C571.628 325.657 571.153 325.856 570.657 325.859H551.995C551.749 325.859 551.505 325.811 551.278 325.716C551.05 325.622 550.844 325.483 550.67 325.308C550.496 325.134 550.358 324.927 550.265 324.699C550.171 324.471 550.124 324.227 550.125 323.98V296.574ZM585.97 296.574C585.971 296.077 586.168 295.6 586.519 295.248C586.87 294.896 587.346 294.697 587.843 294.695H606.502C607.537 294.695 608.375 295.527 608.375 296.574V323.98C608.374 324.477 608.176 324.954 607.825 325.306C607.475 325.658 606.999 325.857 606.502 325.859H587.843C587.596 325.86 587.352 325.811 587.124 325.717C586.897 325.622 586.69 325.484 586.516 325.309C586.342 325.135 586.204 324.927 586.11 324.699C586.017 324.471 585.969 324.227 585.97 323.98V296.574Z" fill="url(#paint21_linear)" fill-opacity="0.5"/>
<path opacity="0.505" fill-rule="evenodd" clip-rule="evenodd" d="M592.692 125.544H590.452V147.805H592.692V127.772H603.893V125.546H592.692V125.544ZM556.845 125.544H554.605V147.805H556.845V127.772H568.046V125.546H556.846L556.845 125.544ZM520.997 125.544H518.758V147.805H520.997V127.772H532.201V125.546H520.995L520.997 125.544ZM592.692 183.422H590.452V205.682H592.692V185.649H603.893V183.424H592.692V183.422ZM556.845 183.422H554.605V205.682H556.845V185.649H568.046V183.424H556.846L556.845 183.422ZM520.997 183.422H518.758V205.682H520.997V185.649H532.201V183.424H520.995L520.997 183.422ZM592.692 241.3H590.452V263.56H592.692V243.527H603.893V241.301H592.692V241.3ZM556.845 241.3H554.605V263.56H556.845V243.527H568.046V241.301H556.846L556.845 241.3ZM520.997 241.3H518.758V263.56H520.997V243.527H532.201V241.301H520.995L520.997 241.3ZM592.692 299.177H590.452V321.438H592.692V301.405H603.893V299.179H592.692V299.177ZM556.845 299.177H554.605V321.438H556.845V301.405H568.046V299.179H556.846L556.845 299.177ZM520.997 299.177H518.758V321.438H520.997V301.405H532.201V299.179H520.995L520.997 299.177Z" fill="url(#paint22_linear)" fill-opacity="0.5"/>
</g>
</g>
<path opacity="0.505" fill-rule="evenodd" clip-rule="evenodd" d="M8.03516 32.5772C8.03516 31.5323 8.8858 30.685 9.92086 30.685H164.233C164.481 30.684 164.727 30.7323 164.957 30.8271C165.187 30.9219 165.395 31.0614 165.57 31.2373C165.746 31.4133 165.885 31.6224 165.979 31.8524C166.073 32.0824 166.12 32.3287 166.118 32.5772V339.466H8.03516V32.5772Z" fill="url(#paint23_linear)" fill-opacity="0.5"/>
<g opacity="0.505">
<path opacity="0.505" fill-rule="evenodd" clip-rule="evenodd" d="M32.5 53.2793C32.5 52.2382 33.3506 51.3947 34.3782 51.3947H56.1617C56.6605 51.3957 57.1385 51.5947 57.4907 51.9481C57.8428 52.3015 58.0404 52.7803 58.0399 53.2793V85.0367C58.0399 86.0779 57.1911 86.9233 56.1617 86.9233H34.3782C34.131 86.9228 33.8864 86.8736 33.6583 86.7786C33.4301 86.6835 33.223 86.5444 33.0485 86.3692C32.8741 86.194 32.7359 85.9862 32.6418 85.7576C32.5477 85.5289 32.4995 85.284 32.5 85.0367V53.2793ZM73.3645 53.2793C73.3645 52.2382 74.2152 51.3947 75.2427 51.3947H97.0281C97.5269 51.3957 98.0049 51.5947 98.3571 51.9481C98.7093 52.3015 98.9068 52.7803 98.9063 53.2793V85.0367C98.9063 86.0779 98.0557 86.9233 97.0281 86.9233H75.2427C74.9956 86.9228 74.751 86.8736 74.5228 86.7786C74.2947 86.6835 74.0875 86.5444 73.9131 86.3692C73.7387 86.194 73.6005 85.9862 73.5064 85.7576C73.4122 85.5289 73.3641 85.284 73.3645 85.0367V53.2793ZM114.231 53.2793C114.231 52.2382 115.08 51.3947 116.109 51.3947H137.893C138.391 51.3957 138.869 51.5947 139.222 51.9481C139.574 52.3015 139.771 52.7803 139.771 53.2793V85.0367C139.771 86.0779 138.92 86.9233 137.893 86.9233H116.109C115.862 86.9228 115.617 86.8736 115.389 86.7786C115.161 86.6835 114.954 86.5444 114.78 86.3692C114.605 86.194 114.467 85.9862 114.373 85.7576C114.279 85.5289 114.23 85.284 114.231 85.0367V53.2793ZM32.5 119.261C32.5 118.219 33.3506 117.374 34.3782 117.374H56.1617C56.4088 117.375 56.6535 117.424 56.8816 117.519C57.1097 117.614 57.3169 117.753 57.4913 117.928C57.6657 118.103 57.8039 118.311 57.8981 118.54C57.9922 118.768 58.0404 119.013 58.0399 119.261V151.018C58.0399 152.059 57.1911 152.903 56.1617 152.903H34.3782C33.8794 152.902 33.4014 152.703 33.0492 152.349C32.697 151.996 32.4995 151.517 32.5 151.018V119.261ZM73.3645 119.261C73.3645 118.219 74.2152 117.374 75.2427 117.374H97.0281C97.2753 117.375 97.5199 117.424 97.748 117.519C97.9762 117.614 98.1833 117.753 98.3577 117.928C98.5322 118.103 98.6704 118.311 98.7645 118.54C98.8586 118.768 98.9068 119.013 98.9063 119.261V151.018C98.9063 152.059 98.0557 152.903 97.0281 152.903H75.2427C74.7439 152.902 74.2659 152.703 73.9138 152.349C73.5616 151.996 73.364 151.517 73.3645 151.018V119.261ZM114.231 119.261C114.231 118.219 115.08 117.374 116.109 117.374H137.893C138.14 117.375 138.384 117.424 138.613 117.519C138.841 117.614 139.048 117.753 139.222 117.928C139.397 118.103 139.535 118.311 139.629 118.54C139.723 118.768 139.771 119.013 139.771 119.261V151.018C139.771 152.059 138.92 152.903 137.893 152.903H116.109C115.61 152.902 115.132 152.703 114.78 152.349C114.428 151.996 114.23 151.517 114.231 151.018V119.261ZM32.5 185.24C32.5 184.199 33.3506 183.355 34.3782 183.355H56.1617C56.6605 183.356 57.1385 183.555 57.4907 183.909C57.8428 184.262 58.0404 184.741 58.0399 185.24V216.997C58.0399 218.039 57.1911 218.884 56.1617 218.884H34.3782C34.131 218.883 33.8864 218.834 33.6583 218.739C33.4301 218.644 33.223 218.505 33.0485 218.33C32.8741 218.155 32.7359 217.947 32.6418 217.718C32.5477 217.49 32.4995 217.245 32.5 216.997V185.24ZM73.3645 185.24C73.3645 184.199 74.2152 183.355 75.2427 183.355H97.0281C97.5269 183.356 98.0049 183.555 98.3571 183.909C98.7093 184.262 98.9068 184.741 98.9063 185.24V216.997C98.9063 218.039 98.0557 218.884 97.0281 218.884H75.2427C74.9956 218.883 74.751 218.834 74.5228 218.739C74.2947 218.644 74.0875 218.505 73.9131 218.33C73.7387 218.155 73.6005 217.947 73.5064 217.718C73.4122 217.49 73.3641 217.245 73.3645 216.997V185.24ZM114.231 185.24C114.231 184.199 115.08 183.355 116.109 183.355H137.893C138.391 183.356 138.869 183.555 139.222 183.909C139.574 184.262 139.771 184.741 139.771 185.24V216.997C139.771 218.039 138.92 218.884 137.893 218.884H116.109C115.862 218.883 115.617 218.834 115.389 218.739C115.161 218.644 114.954 218.505 114.78 218.33C114.605 218.155 114.467 217.947 114.373 217.718C114.279 217.49 114.23 217.245 114.231 216.997V185.24ZM32.5 251.221C32.5 250.18 33.3506 249.335 34.3782 249.335H56.1617C56.4088 249.335 56.6535 249.384 56.8816 249.479C57.1097 249.575 57.3169 249.714 57.4913 249.889C57.6657 250.064 57.8039 250.272 57.8981 250.5C57.9922 250.729 58.0404 250.974 58.0399 251.221V282.979C58.0399 284.02 57.1911 284.863 56.1617 284.863H34.3782C33.8794 284.862 33.4014 284.663 33.0492 284.31C32.697 283.957 32.4995 283.478 32.5 282.979V251.221ZM73.3645 251.221C73.3645 250.18 74.2152 249.335 75.2427 249.335H97.0281C97.2753 249.335 97.5199 249.384 97.748 249.479C97.9762 249.575 98.1833 249.714 98.3577 249.889C98.5322 250.064 98.6704 250.272 98.7645 250.5C98.8586 250.729 98.9068 250.974 98.9063 251.221V282.979C98.9063 284.02 98.0557 284.863 97.0281 284.863H75.2427C74.7439 284.862 74.2659 284.663 73.9138 284.31C73.5616 283.957 73.364 283.478 73.3645 282.979V251.221ZM114.231 251.221C114.231 250.18 115.08 249.335 116.109 249.335H137.893C138.14 249.335 138.384 249.384 138.613 249.479C138.841 249.575 139.048 249.714 139.222 249.889C139.397 250.064 139.535 250.272 139.629 250.5C139.723 250.729 139.771 250.974 139.771 251.221V282.979C139.771 284.02 138.92 284.863 137.893 284.863H116.109C115.61 284.862 115.132 284.663 114.78 284.31C114.428 283.957 114.23 283.478 114.231 282.979V251.221Z" fill="url(#paint24_linear)" fill-opacity="0.5"/>
<path opacity="0.505" fill-rule="evenodd" clip-rule="evenodd" d="M121.893 56.5031H119.339V81.8797H121.893V59.0411H134.664V56.5069H121.893V56.5031ZM81.0286 56.5031H78.4748V81.8797H81.0286V59.0411H93.7976V56.5069H81.0286V56.5031ZM40.1622 56.5031H37.6084V81.8797H40.1622V59.0411H52.9331V56.5069H40.1622V56.5031ZM121.893 122.483H119.339V147.859H121.893V125.022H134.664V122.484H121.893V122.483ZM81.0286 122.483H78.4748V147.859H81.0286V125.022H93.7976V122.484H81.0286V122.483ZM40.1622 122.483H37.6084V147.859H40.1622V125.022H52.9331V122.484H40.1622V122.483ZM121.893 188.464H119.339V213.84H121.893V191.002H134.664V188.466H121.893V188.464ZM81.0286 188.464H78.4748V213.84H81.0286V191.002H93.7976V188.466H81.0286V188.464ZM40.1622 188.464H37.6084V213.84H40.1622V191.002H52.9331V188.466H40.1622V188.464ZM121.893 254.443H119.339V279.82H121.893V256.983H134.664V254.445H121.893V254.443ZM81.0286 254.443H78.4748V279.82H81.0286V256.983H93.7976V254.445H81.0286V254.443ZM40.1622 254.443H37.6084V279.82H40.1622V256.983H52.9331V254.445H40.1622V254.443Z" fill="url(#paint25_linear)" fill-opacity="0.5"/>
</g>
<g opacity="0.505">
<path opacity="0.505" d="M107.778 294.279H66.3751C65.3357 294.279 64.4932 295.122 64.4932 296.162V337.583C64.4932 338.623 65.3357 339.466 66.3751 339.466H107.778C108.817 339.466 109.66 338.623 109.66 337.583V296.162C109.66 295.122 108.817 294.279 107.778 294.279Z" fill="url(#paint26_linear)" fill-opacity="0.5"/>
<path opacity="0.505" fill-rule="evenodd" clip-rule="evenodd" d="M69.5127 299.303H72.0213V334.448H69.5127V299.303ZM72.0213 299.303H104.641V301.813H72.0213V299.303Z" fill="url(#paint27_linear)" fill-opacity="0.5"/>
<path opacity="0.505" fill-rule="evenodd" clip-rule="evenodd" d="M85.8213 299.245H88.3299V334.392H85.8213V299.245Z" fill="url(#paint28_linear)" fill-opacity="0.5"/>
</g>
<path opacity="0.505" fill-rule="evenodd" clip-rule="evenodd" d="M18.7431 34.4481H160.472V39.5222H18.7431V34.4481ZM13.6807 34.4481H18.7224V333.815H13.6807V34.4481Z" fill="url(#paint29_linear)" fill-opacity="0.5"/>
<g opacity="0.505">
<path opacity="0.505" d="M188.702 157.018H163.794C162.755 157.018 161.912 157.861 161.912 158.901V160.219C161.912 161.258 162.755 162.101 163.794 162.101H188.702C189.741 162.101 190.584 161.258 190.584 160.219V158.901C190.584 157.861 189.741 157.018 188.702 157.018Z" fill="url(#paint30_linear)" fill-opacity="0.5"/>
<path opacity="0.505" d="M188.702 90.9324H163.794C162.755 90.9324 161.912 91.7753 161.912 92.8152V94.1332C161.912 95.173 162.755 96.016 163.794 96.016H188.702C189.741 96.016 190.584 95.173 190.584 94.1332V92.8152C190.584 91.7753 189.741 90.9324 188.702 90.9324Z" fill="url(#paint31_linear)" fill-opacity="0.5"/>
<path opacity="0.505" d="M188.702 223.106H163.794C162.755 223.106 161.912 223.949 161.912 224.988V226.306C161.912 227.346 162.755 228.189 163.794 228.189H188.702C189.741 228.189 190.584 227.346 190.584 226.306V224.988C190.584 223.949 189.741 223.106 188.702 223.106Z" fill="url(#paint32_linear)" fill-opacity="0.5"/>
<path opacity="0.505" d="M188.702 289.193H163.794C162.755 289.193 161.912 290.036 161.912 291.076V292.394C161.912 293.434 162.755 294.277 163.794 294.277H188.702C189.741 294.277 190.584 293.434 190.584 292.394V291.076C190.584 290.036 189.741 289.193 188.702 289.193Z" fill="url(#paint33_linear)" fill-opacity="0.5"/>
<path opacity="0.505" fill-rule="evenodd" clip-rule="evenodd" d="M180.531 279.023H165.492V281.565H180.531V289.894H183.071V228.202H180.531V238.354H165.492V240.896H180.531V248.521H165.492V251.063H180.531V258.689H165.492V261.23H180.531V268.856H165.492V271.398H180.531V279.023ZM180.531 212.936H165.492V215.478H180.531V223.808H183.071V162.115H180.531V172.268H165.492V174.809H180.531V182.435H165.492V184.977H180.531V192.602H165.492V195.144H180.531V202.769H165.492V205.311H180.531V212.936ZM180.531 146.85H165.492V149.391H180.531V157.721H183.071V96.0287H180.531V106.181H165.492V108.723H180.531V116.348H165.492V118.89H180.531V126.515H165.492V129.057H180.531V136.682H165.492V139.224H180.531V146.85Z" fill="url(#paint34_linear)" fill-opacity="0.5"/>
</g>
<g opacity="0.505">
<path opacity="0.505" d="M143.534 9.97534H90.84C89.8006 9.97534 88.958 10.8183 88.958 11.8582V32.5691C88.958 33.6089 89.8006 34.4519 90.84 34.4519H143.534C144.574 34.4519 145.416 33.6089 145.416 32.5691V11.8582C145.416 10.8183 144.574 9.97534 143.534 9.97534Z" fill="url(#paint35_linear)" fill-opacity="0.5"/>
<path opacity="0.505" fill-rule="evenodd" clip-rule="evenodd" d="M94.0898 14.8725H99.2219V29.5584H94.0898V14.8725Z" fill="url(#paint36_linear)" fill-opacity="0.5"/>
</g>
<g opacity="0.505">
<path opacity="0.505" fill-rule="evenodd" clip-rule="evenodd" d="M32.5 53.2793C32.5 52.2382 33.3506 51.3947 34.3782 51.3947H56.1617C56.6605 51.3957 57.1385 51.5947 57.4907 51.9481C57.8428 52.3015 58.0404 52.7803 58.0399 53.2793V85.0367C58.0399 86.0779 57.1911 86.9233 56.1617 86.9233H34.3782C34.131 86.9228 33.8864 86.8736 33.6583 86.7786C33.4301 86.6835 33.223 86.5444 33.0485 86.3692C32.8741 86.194 32.7359 85.9862 32.6418 85.7576C32.5477 85.5289 32.4995 85.284 32.5 85.0367V53.2793ZM73.3645 53.2793C73.3645 52.2382 74.2152 51.3947 75.2427 51.3947H97.0281C97.5269 51.3957 98.0049 51.5947 98.3571 51.9481C98.7093 52.3015 98.9068 52.7803 98.9063 53.2793V85.0367C98.9063 86.0779 98.0557 86.9233 97.0281 86.9233H75.2427C74.9956 86.9228 74.751 86.8736 74.5228 86.7786C74.2947 86.6835 74.0875 86.5444 73.9131 86.3692C73.7387 86.194 73.6005 85.9862 73.5064 85.7576C73.4122 85.5289 73.3641 85.284 73.3645 85.0367V53.2793ZM114.231 53.2793C114.231 52.2382 115.08 51.3947 116.109 51.3947H137.893C138.391 51.3957 138.869 51.5947 139.222 51.9481C139.574 52.3015 139.771 52.7803 139.771 53.2793V85.0367C139.771 86.0779 138.92 86.9233 137.893 86.9233H116.109C115.862 86.9228 115.617 86.8736 115.389 86.7786C115.161 86.6835 114.954 86.5444 114.78 86.3692C114.605 86.194 114.467 85.9862 114.373 85.7576C114.279 85.5289 114.23 85.284 114.231 85.0367V53.2793ZM32.5 119.261C32.5 118.219 33.3506 117.374 34.3782 117.374H56.1617C56.4088 117.375 56.6535 117.424 56.8816 117.519C57.1097 117.614 57.3169 117.753 57.4913 117.928C57.6657 118.103 57.8039 118.311 57.8981 118.54C57.9922 118.768 58.0404 119.013 58.0399 119.261V151.018C58.0399 152.059 57.1911 152.903 56.1617 152.903H34.3782C33.8794 152.902 33.4014 152.703 33.0492 152.349C32.697 151.996 32.4995 151.517 32.5 151.018V119.261ZM73.3645 119.261C73.3645 118.219 74.2152 117.374 75.2427 117.374H97.0281C97.2753 117.375 97.5199 117.424 97.748 117.519C97.9762 117.614 98.1833 117.753 98.3577 117.928C98.5322 118.103 98.6704 118.311 98.7645 118.54C98.8586 118.768 98.9068 119.013 98.9063 119.261V151.018C98.9063 152.059 98.0557 152.903 97.0281 152.903H75.2427C74.7439 152.902 74.2659 152.703 73.9138 152.349C73.5616 151.996 73.364 151.517 73.3645 151.018V119.261ZM114.231 119.261C114.231 118.219 115.08 117.374 116.109 117.374H137.893C138.14 117.375 138.384 117.424 138.613 117.519C138.841 117.614 139.048 117.753 139.222 117.928C139.397 118.103 139.535 118.311 139.629 118.54C139.723 118.768 139.771 119.013 139.771 119.261V151.018C139.771 152.059 138.92 152.903 137.893 152.903H116.109C115.61 152.902 115.132 152.703 114.78 152.349C114.428 151.996 114.23 151.517 114.231 151.018V119.261ZM32.5 185.24C32.5 184.199 33.3506 183.355 34.3782 183.355H56.1617C56.6605 183.356 57.1385 183.555 57.4907 183.909C57.8428 184.262 58.0404 184.741 58.0399 185.24V216.997C58.0399 218.039 57.1911 218.884 56.1617 218.884H34.3782C34.131 218.883 33.8864 218.834 33.6583 218.739C33.4301 218.644 33.223 218.505 33.0485 218.33C32.8741 218.155 32.7359 217.947 32.6418 217.718C32.5477 217.49 32.4995 217.245 32.5 216.997V185.24ZM73.3645 185.24C73.3645 184.199 74.2152 183.355 75.2427 183.355H97.0281C97.5269 183.356 98.0049 183.555 98.3571 183.909C98.7093 184.262 98.9068 184.741 98.9063 185.24V216.997C98.9063 218.039 98.0557 218.884 97.0281 218.884H75.2427C74.9956 218.883 74.751 218.834 74.5228 218.739C74.2947 218.644 74.0875 218.505 73.9131 218.33C73.7387 218.155 73.6005 217.947 73.5064 217.718C73.4122 217.49 73.3641 217.245 73.3645 216.997V185.24ZM114.231 185.24C114.231 184.199 115.08 183.355 116.109 183.355H137.893C138.391 183.356 138.869 183.555 139.222 183.909C139.574 184.262 139.771 184.741 139.771 185.24V216.997C139.771 218.039 138.92 218.884 137.893 218.884H116.109C115.862 218.883 115.617 218.834 115.389 218.739C115.161 218.644 114.954 218.505 114.78 218.33C114.605 218.155 114.467 217.947 114.373 217.718C114.279 217.49 114.23 217.245 114.231 216.997V185.24ZM32.5 251.221C32.5 250.18 33.3506 249.335 34.3782 249.335H56.1617C56.4088 249.335 56.6535 249.384 56.8816 249.479C57.1097 249.575 57.3169 249.714 57.4913 249.889C57.6657 250.064 57.8039 250.272 57.8981 250.5C57.9922 250.729 58.0404 250.974 58.0399 251.221V282.979C58.0399 284.02 57.1911 284.863 56.1617 284.863H34.3782C33.8794 284.862 33.4014 284.663 33.0492 284.31C32.697 283.957 32.4995 283.478 32.5 282.979V251.221ZM73.3645 251.221C73.3645 250.18 74.2152 249.335 75.2427 249.335H97.0281C97.2753 249.335 97.5199 249.384 97.748 249.479C97.9762 249.575 98.1833 249.714 98.3577 249.889C98.5322 250.064 98.6704 250.272 98.7645 250.5C98.8586 250.729 98.9068 250.974 98.9063 251.221V282.979C98.9063 284.02 98.0557 284.863 97.0281 284.863H75.2427C74.7439 284.862 74.2659 284.663 73.9138 284.31C73.5616 283.957 73.364 283.478 73.3645 282.979V251.221ZM114.231 251.221C114.231 250.18 115.08 249.335 116.109 249.335H137.893C138.14 249.335 138.384 249.384 138.613 249.479C138.841 249.575 139.048 249.714 139.222 249.889C139.397 250.064 139.535 250.272 139.629 250.5C139.723 250.729 139.771 250.974 139.771 251.221V282.979C139.771 284.02 138.92 284.863 137.893 284.863H116.109C115.61 284.862 115.132 284.663 114.78 284.31C114.428 283.957 114.23 283.478 114.231 282.979V251.221Z" fill="url(#paint37_linear)" fill-opacity="0.5"/>
<path opacity="0.505" fill-rule="evenodd" clip-rule="evenodd" d="M121.893 56.5031H119.339V81.8797H121.893V59.0411H134.664V56.5069H121.893V56.5031ZM81.0286 56.5031H78.4748V81.8797H81.0286V59.0411H93.7976V56.5069H81.0286V56.5031ZM40.1622 56.5031H37.6084V81.8797H40.1622V59.0411H52.9331V56.5069H40.1622V56.5031ZM121.893 122.483H119.339V147.859H121.893V125.022H134.664V122.484H121.893V122.483ZM81.0286 122.483H78.4748V147.859H81.0286V125.022H93.7976V122.484H81.0286V122.483ZM40.1622 122.483H37.6084V147.859H40.1622V125.022H52.9331V122.484H40.1622V122.483ZM121.893 188.464H119.339V213.84H121.893V191.002H134.664V188.466H121.893V188.464ZM81.0286 188.464H78.4748V213.84H81.0286V191.002H93.7976V188.466H81.0286V188.464ZM40.1622 188.464H37.6084V213.84H40.1622V191.002H52.9331V188.466H40.1622V188.464ZM121.893 254.443H119.339V279.82H121.893V256.983H134.664V254.445H121.893V254.443ZM81.0286 254.443H78.4748V279.82H81.0286V256.983H93.7976V254.445H81.0286V254.443ZM40.1622 254.443H37.6084V279.82H40.1622V256.983H52.9331V254.445H40.1622V254.443Z" fill="url(#paint38_linear)" fill-opacity="0.5"/>
</g>
<g opacity="0.505">
<path opacity="0.505" fill-rule="evenodd" clip-rule="evenodd" d="M259.896 327.1V318.81H266.206V346.585H259.896V337.077" fill="url(#paint39_linear)" fill-opacity="0.5"/>
<path opacity="0.505" fill-rule="evenodd" clip-rule="evenodd" d="M264.703 218.42L284.68 318.755H244.727L264.703 218.42Z" fill="url(#paint40_linear)" fill-opacity="0.5"/>
</g>
<g opacity="0.505">
<path opacity="0.505" fill-rule="evenodd" clip-rule="evenodd" d="M835.771 327.1V318.81H842.082V346.585H835.771V337.077" fill="url(#paint41_linear)" fill-opacity="0.5"/>
<path opacity="0.505" fill-rule="evenodd" clip-rule="evenodd" d="M840.579 218.42L860.556 318.755H820.603L840.579 218.42Z" fill="url(#paint42_linear)" fill-opacity="0.5"/>
</g>
<g opacity="0.505">
<path opacity="0.505" fill-rule="evenodd" clip-rule="evenodd" d="M636.285 327.1V318.81H642.595V346.585H636.285V337.077" fill="url(#paint43_linear)" fill-opacity="0.5"/>
<path opacity="0.505" fill-rule="evenodd" clip-rule="evenodd" d="M641.093 218.42L661.07 318.755H621.116L641.093 218.42Z" fill="url(#paint44_linear)" fill-opacity="0.5"/>
</g>
<g opacity="0.505">
<path opacity="0.505" fill-rule="evenodd" clip-rule="evenodd" d="M233.235 329.195V322.563H238.283V344.781H233.235V337.178" fill="url(#paint45_linear)" fill-opacity="0.5"/>
<path opacity="0.505" fill-rule="evenodd" clip-rule="evenodd" d="M236.343 240.764L252.687 322.52H219.998L236.343 240.764Z" fill="url(#paint46_linear)" fill-opacity="0.5"/>
</g>
<g opacity="0.505">
<path opacity="0.505" fill-rule="evenodd" clip-rule="evenodd" d="M895.681 329.195V322.563H900.728V344.781H895.681V337.178" fill="url(#paint47_linear)" fill-opacity="0.5"/>
<path opacity="0.505" fill-rule="evenodd" clip-rule="evenodd" d="M898.788 240.764L915.133 322.52H882.443L898.788 240.764Z" fill="url(#paint48_linear)" fill-opacity="0.5"/>
</g>
</g>
</g>
</g>
</g>
<defs>
<linearGradient id="paint0_linear" x1="406.066" y1="-99.2303" x2="406.066" y2="339.465" gradientUnits="userSpaceOnUse">
<stop stop-color="#354052"/>
<stop offset="1" stop-color="white" stop-opacity="0"/>
</linearGradient>
<linearGradient id="paint1_linear" x1="402.302" y1="209.552" x2="402.302" y2="369.591" gradientUnits="userSpaceOnUse">
<stop stop-color="#354052"/>
<stop offset="1" stop-color="white" stop-opacity="0"/>
</linearGradient>
<linearGradient id="paint2_linear" x1="446.529" y1="290.509" x2="446.529" y2="369.587" gradientUnits="userSpaceOnUse">
<stop stop-color="#354052"/>
<stop offset="1" stop-color="white" stop-opacity="0"/>
</linearGradient>
<linearGradient id="paint3_linear" x1="446.529" y1="299.297" x2="446.529" y2="360.801" gradientUnits="userSpaceOnUse">
<stop stop-color="#354052"/>
<stop offset="1" stop-color="white" stop-opacity="0"/>
</linearGradient>
<linearGradient id="paint4_linear" x1="446.527" y1="299.194" x2="446.527" y2="360.7" gradientUnits="userSpaceOnUse">
<stop stop-color="#354052"/>
<stop offset="1" stop-color="white" stop-opacity="0"/>
</linearGradient>
<linearGradient id="paint5_linear" x1="358.077" y1="290.509" x2="358.077" y2="354.525" gradientUnits="userSpaceOnUse">
<stop stop-color="#354052"/>
<stop offset="1" stop-color="white" stop-opacity="0"/>
</linearGradient>
<linearGradient id="paint6_linear" x1="358.08" y1="299.653" x2="358.08" y2="345.379" gradientUnits="userSpaceOnUse">
<stop stop-color="#354052"/>
<stop offset="1" stop-color="white" stop-opacity="0"/>
</linearGradient>
<linearGradient id="paint7_linear" x1="312.91" y1="245.327" x2="312.91" y2="362.061" gradientUnits="userSpaceOnUse">
<stop stop-color="#354052"/>
<stop offset="1" stop-color="white" stop-opacity="0"/>
</linearGradient>
<linearGradient id="paint8_linear" x1="402.303" y1="245.327" x2="402.303" y2="274.425" gradientUnits="userSpaceOnUse">
<stop stop-color="#354052"/>
<stop offset="1" stop-color="white" stop-opacity="0"/>
</linearGradient>
<linearGradient id="paint9_linear" x1="402.302" y1="209.552" x2="402.302" y2="237.794" gradientUnits="userSpaceOnUse">
<stop stop-color="#354052"/>
<stop offset="1" stop-color="white" stop-opacity="0"/>
</linearGradient>
<linearGradient id="paint10_linear" x1="300.449" y1="209.552" x2="300.449" y2="237.794" gradientUnits="userSpaceOnUse">
<stop stop-color="#354052"/>
<stop offset="1" stop-color="white" stop-opacity="0"/>
</linearGradient>
<linearGradient id="paint11_linear" x1="450.292" y1="173.777" x2="450.292" y2="209.551" gradientUnits="userSpaceOnUse">
<stop stop-color="#354052"/>
<stop offset="1" stop-color="white" stop-opacity="0"/>
</linearGradient>
<linearGradient id="paint12_linear" x1="427.944" y1="182.72" x2="427.944" y2="200.606" gradientUnits="userSpaceOnUse">
<stop stop-color="#354052"/>
<stop offset="1" stop-color="white" stop-opacity="0"/>
</linearGradient>
<linearGradient id="paint13_linear" x1="180.233" y1="-5.08972" x2="180.233" y2="337.582" gradientUnits="userSpaceOnUse">
<stop stop-color="#354052"/>
<stop offset="1" stop-color="white" stop-opacity="0"/>
</linearGradient>
<linearGradient id="paint14_linear" x1="-21.1345" y1="-193.371" x2="-21.1345" y2="307.457" gradientUnits="userSpaceOnUse">
<stop stop-color="#354052"/>
<stop offset="1" stop-color="white" stop-opacity="0"/>
</linearGradient>
<linearGradient id="paint15_linear" x1="2.38881" y1="-174.543" x2="2.38881" y2="19.3871" gradientUnits="userSpaceOnUse">
<stop stop-color="#354052"/>
<stop offset="1" stop-color="white" stop-opacity="0"/>
</linearGradient>
<linearGradient id="paint16_linear" x1="2.38725" y1="-170.298" x2="2.38725" y2="15.2004" gradientUnits="userSpaceOnUse">
<stop stop-color="#354052"/>
<stop offset="1" stop-color="white" stop-opacity="0"/>
</linearGradient>
<linearGradient id="paint17_linear" x1="340.197" y1="107.879" x2="340.197" y2="333.817" gradientUnits="userSpaceOnUse">
<stop stop-color="#354052"/>
<stop offset="1" stop-color="white" stop-opacity="0"/>
</linearGradient>
<linearGradient id="paint18_linear" x1="560.385" y1="-91.6978" x2="560.385" y2="409.13" gradientUnits="userSpaceOnUse">
<stop stop-color="#354052"/>
<stop offset="1" stop-color="white" stop-opacity="0"/>
</linearGradient>
<linearGradient id="paint19_linear" x1="561.326" y1="-54.0422" x2="561.326" y2="150.755" gradientUnits="userSpaceOnUse">
<stop stop-color="#354052"/>
<stop offset="1" stop-color="white" stop-opacity="0"/>
</linearGradient>
<linearGradient id="paint20_linear" x1="561.326" y1="-49.5567" x2="561.326" y2="146.337" gradientUnits="userSpaceOnUse">
<stop stop-color="#354052"/>
<stop offset="1" stop-color="white" stop-opacity="0"/>
</linearGradient>
<linearGradient id="paint21_linear" x1="561.326" y1="121.062" x2="561.326" y2="325.859" gradientUnits="userSpaceOnUse">
<stop stop-color="#354052"/>
<stop offset="1" stop-color="white" stop-opacity="0"/>
</linearGradient>
<linearGradient id="paint22_linear" x1="561.326" y1="125.544" x2="561.326" y2="321.438" gradientUnits="userSpaceOnUse">
<stop stop-color="#354052"/>
<stop offset="1" stop-color="white" stop-opacity="0"/>
</linearGradient>
<linearGradient id="paint23_linear" x1="87.0769" y1="30.685" x2="87.0769" y2="339.466" gradientUnits="userSpaceOnUse">
<stop stop-color="#354052"/>
<stop offset="1" stop-color="white" stop-opacity="0"/>
</linearGradient>
<linearGradient id="paint24_linear" x1="86.1354" y1="51.3947" x2="86.1354" y2="284.863" gradientUnits="userSpaceOnUse">
<stop stop-color="#354052"/>
<stop offset="1" stop-color="white" stop-opacity="0"/>
</linearGradient>
<linearGradient id="paint25_linear" x1="86.1362" y1="56.5031" x2="86.1362" y2="279.82" gradientUnits="userSpaceOnUse">
<stop stop-color="#354052"/>
<stop offset="1" stop-color="white" stop-opacity="0"/>
</linearGradient>
<linearGradient id="paint26_linear" x1="87.0765" y1="294.279" x2="87.0765" y2="339.466" gradientUnits="userSpaceOnUse">
<stop stop-color="#354052"/>
<stop offset="1" stop-color="white" stop-opacity="0"/>
</linearGradient>
<linearGradient id="paint27_linear" x1="87.0769" y1="299.303" x2="87.0769" y2="334.448" gradientUnits="userSpaceOnUse">
<stop stop-color="#354052"/>
<stop offset="1" stop-color="white" stop-opacity="0"/>
</linearGradient>
<linearGradient id="paint28_linear" x1="87.0756" y1="299.245" x2="87.0756" y2="334.392" gradientUnits="userSpaceOnUse">
<stop stop-color="#354052"/>
<stop offset="1" stop-color="white" stop-opacity="0"/>
</linearGradient>
<linearGradient id="paint29_linear" x1="87.0765" y1="34.4481" x2="87.0765" y2="333.815" gradientUnits="userSpaceOnUse">
<stop stop-color="#354052"/>
<stop offset="1" stop-color="white" stop-opacity="0"/>
</linearGradient>
<linearGradient id="paint30_linear" x1="176.248" y1="157.018" x2="176.248" y2="169.061" gradientUnits="userSpaceOnUse">
<stop stop-color="#354052"/>
<stop offset="1" stop-color="white" stop-opacity="0"/>
</linearGradient>
<linearGradient id="paint31_linear" x1="176.248" y1="90.9324" x2="176.248" y2="102.976" gradientUnits="userSpaceOnUse">
<stop stop-color="#354052"/>
<stop offset="1" stop-color="white" stop-opacity="0"/>
</linearGradient>
<linearGradient id="paint32_linear" x1="176.248" y1="223.106" x2="176.248" y2="235.149" gradientUnits="userSpaceOnUse">
<stop stop-color="#354052"/>
<stop offset="1" stop-color="white" stop-opacity="0"/>
</linearGradient>
<linearGradient id="paint33_linear" x1="176.248" y1="289.193" x2="176.248" y2="301.237" gradientUnits="userSpaceOnUse">
<stop stop-color="#354052"/>
<stop offset="1" stop-color="white" stop-opacity="0"/>
</linearGradient>
<linearGradient id="paint34_linear" x1="174.282" y1="96.0287" x2="174.282" y2="366.105" gradientUnits="userSpaceOnUse">
<stop stop-color="#354052"/>
<stop offset="0.93804" stop-color="#F2F3F4" stop-opacity="0.062"/>
<stop offset="1" stop-color="white" stop-opacity="0"/>
</linearGradient>
<linearGradient id="paint35_linear" x1="117.187" y1="9.97534" x2="117.187" y2="34.4519" gradientUnits="userSpaceOnUse">
<stop stop-color="#354052"/>
<stop offset="1" stop-color="white" stop-opacity="0"/>
</linearGradient>
<linearGradient id="paint36_linear" x1="96.6559" y1="14.8725" x2="96.6559" y2="29.5584" gradientUnits="userSpaceOnUse">
<stop stop-color="#354052"/>
<stop offset="1" stop-color="white" stop-opacity="0"/>
</linearGradient>
<linearGradient id="paint37_linear" x1="86.1354" y1="51.3947" x2="86.1354" y2="284.863" gradientUnits="userSpaceOnUse">
<stop stop-color="#354052"/>
<stop offset="1" stop-color="white" stop-opacity="0"/>
</linearGradient>
<linearGradient id="paint38_linear" x1="86.1362" y1="56.5031" x2="86.1362" y2="279.82" gradientUnits="userSpaceOnUse">
<stop stop-color="#354052"/>
<stop offset="1" stop-color="white" stop-opacity="0"/>
</linearGradient>
<linearGradient id="paint39_linear" x1="263.051" y1="318.81" x2="263.051" y2="346.585" gradientUnits="userSpaceOnUse">
<stop stop-color="#354052"/>
<stop offset="1" stop-color="white" stop-opacity="0"/>
</linearGradient>
<linearGradient id="paint40_linear" x1="264.703" y1="218.42" x2="264.703" y2="432.431" gradientUnits="userSpaceOnUse">
<stop stop-color="#354052"/>
<stop offset="1" stop-color="white" stop-opacity="0"/>
</linearGradient>
<linearGradient id="paint41_linear" x1="838.927" y1="318.81" x2="838.927" y2="346.585" gradientUnits="userSpaceOnUse">
<stop stop-color="#354052"/>
<stop offset="1" stop-color="white" stop-opacity="0"/>
</linearGradient>
<linearGradient id="paint42_linear" x1="840.579" y1="218.42" x2="840.579" y2="432.431" gradientUnits="userSpaceOnUse">
<stop stop-color="#354052"/>
<stop offset="1" stop-color="white" stop-opacity="0"/>
</linearGradient>
<linearGradient id="paint43_linear" x1="639.44" y1="318.81" x2="639.44" y2="346.585" gradientUnits="userSpaceOnUse">
<stop stop-color="#354052"/>
<stop offset="1" stop-color="white" stop-opacity="0"/>
</linearGradient>
<linearGradient id="paint44_linear" x1="641.093" y1="218.42" x2="641.093" y2="432.431" gradientUnits="userSpaceOnUse">
<stop stop-color="#354052"/>
<stop offset="1" stop-color="white" stop-opacity="0"/>
</linearGradient>
<linearGradient id="paint45_linear" x1="235.759" y1="322.563" x2="235.759" y2="344.781" gradientUnits="userSpaceOnUse">
<stop stop-color="#354052"/>
<stop offset="1" stop-color="white" stop-opacity="0"/>
</linearGradient>
<linearGradient id="paint46_linear" x1="236.343" y1="240.764" x2="236.343" y2="415.146" gradientUnits="userSpaceOnUse">
<stop stop-color="#354052"/>
<stop offset="1" stop-color="white" stop-opacity="0"/>
</linearGradient>
<linearGradient id="paint47_linear" x1="898.204" y1="322.563" x2="898.204" y2="344.781" gradientUnits="userSpaceOnUse">
<stop stop-color="#354052"/>
<stop offset="1" stop-color="white" stop-opacity="0"/>
</linearGradient>
<linearGradient id="paint48_linear" x1="898.788" y1="240.764" x2="898.788" y2="415.146" gradientUnits="userSpaceOnUse">
<stop stop-color="#354052"/>
<stop offset="1" stop-color="white" stop-opacity="0"/>
</linearGradient>
</defs>
</svg>
