<svg id="Capa_1" data-name="Capa 1" xmlns="http://www.w3.org/2000/svg" viewBox="0 0 24 24"><defs><style>.cls-1{fill:#fff;fill-rule:evenodd;}</style></defs><g id="Atoms-_-Icons-_-white-_-24px-_-logo-_-claveunica" data-name="Atoms-/-Icons-/-white-/-24px-/-logo-/-claveunica"><path id="cl-icons-43" class="cls-1" d="M11.47,14a.65.65,0,0,1-.21-.54.64.64,0,0,1,.29-.5.68.68,0,0,1,.53-.19.73.73,0,0,1,.49.27.75.75,0,0,1-.08,1,.7.7,0,0,1-.53.19.71.71,0,0,1-.49-.27Zm3.8-8.66A9,9,0,0,1,21,13.57a9,9,0,0,1-18,0A8.78,8.78,0,0,1,8.45,5.32c.37-.09.64-.09.82.36a.76.76,0,0,1-.36,1,7.52,7.52,0,1,0,5.82-.09.66.66,0,0,1-.4-.37.64.64,0,0,1,0-.54.62.62,0,0,1,.37-.39A.64.64,0,0,1,15.27,5.32Zm-7.77,8a4.64,4.64,0,0,1,3.75-4.59V2.33A.91.91,0,0,1,12,1.5h3.31a.75.75,0,0,1,.7.75.78.78,0,0,1-.7.75H12.75V8.76a4.5,4.5,0,0,1,3.75,4.58A4.61,4.61,0,0,1,12,18,4.61,4.61,0,0,1,7.5,13.33Zm7.5.09a3.1,3.1,0,0,0-3-3.12,3.12,3.12,0,0,0,0,6.2A3.09,3.09,0,0,0,15,13.42Z"/></g></svg>