<svg xmlns="http://www.w3.org/2000/svg" width="99" height="80" viewBox="0 0 99 80">
    <g fill="none" fillRule="evenodd">
        <path fill="#A6A6A6" d="M2.25 77.132H96v-4.83H2.25v4.83zm27.6-39.547c.6 10.113 9 18.264 19.2 18.264s18.6-8.15 19.2-18.264h27.6v32.453H2.25V37.585h27.6zM18.3 2.088c1.05 0 61.65-.373 61.65-.373l.537 33.606H82.2 66.15v1.207c0 9.51-7.65 17.057-16.95 17.057-9.45 0-16.95-7.698-16.95-17.057v-1.207H18.375L18.3 2.088zM82.2 35.32V0H15.9v35.17H0v44.075h98.25V35.321H82.2z"/>
        <path fill="#A6A6A6" d="M88.2 46.34h2.25v-2.265H88.2zM82.95 46.34h2.25v-2.265h-2.25zM72.45 46.34h2.25v-2.265h-2.25zM77.7 46.34h2.25v-2.265H77.7zM12 46.34h2.25v-2.265H12zM17.25 46.34h2.25v-2.265h-2.25zM22.5 46.34h2.25v-2.265H22.5zM6.75 46.34H9v-2.265H6.75z"/>
        <path stroke="#A6A6A6" stroke-linecap="round" stroke-width="2" d="M37.954 30.905c0-5.644 4.968-10.22 11.095-10.22 6.13 0 11.097 4.576 11.097 10.22M30.675 10.768s4.058 2.264 7.28 0M61.617 11.774s4.057 2.264 7.28 0"/>
    </g>
</svg>
