<svg width="377" height="103" viewBox="0 0 377 103" fill="none" xmlns="http://www.w3.org/2000/svg">
<rect width="377" height="103" rx="4" fill="#D8D8D8"/>
<rect x="24" y="16" width="99" height="71" rx="2" fill="white"/>
<path d="M47.96 51.05L46.42 50.84L48.56 36.51L50.09 36.66L47.96 51.05ZM40.56 46.5V44.98H50.99V46.5H40.56ZM43.71 51.05L42.19 50.84L44.33 36.51L45.84 36.66L43.71 51.05ZM41.2 42.4V40.88H51.63V42.4H41.2ZM55.7642 51V40.17H53.1842V38.52C54.0109 38.52 54.6776 38.4433 55.1842 38.29C55.6976 38.13 56.0809 37.9033 56.3342 37.61C56.5876 37.31 56.7376 36.9533 56.7842 36.54H58.7242V51H55.7642Z" fill="#333333"/>
<rect x="40" y="64" width="67" height="7" rx="2" fill="#E9E9E9"/>
<rect x="40" y="64" width="35" height="7" rx="2" fill="#044D6C"/>
<rect x="139" y="16" width="99" height="71" rx="2" fill="white"/>
<path d="M162.96 51.05L161.42 50.84L163.56 36.51L165.09 36.66L162.96 51.05ZM155.56 46.5V44.98H165.99V46.5H155.56ZM158.71 51.05L157.19 50.84L159.33 36.51L160.84 36.66L158.71 51.05ZM156.2 42.4V40.88H166.63V42.4H156.2ZM168.454 51V49.56V48.82C168.454 48.0867 168.591 47.4533 168.864 46.92C169.138 46.38 169.498 45.9133 169.944 45.52C170.398 45.12 170.891 44.77 171.424 44.47C171.964 44.17 172.504 43.8867 173.044 43.62C173.584 43.3533 174.078 43.0867 174.524 42.82C174.978 42.5467 175.341 42.2433 175.614 41.91C175.888 41.5767 176.024 41.1833 176.024 40.73C176.024 40.15 175.821 39.6767 175.414 39.31C175.014 38.9433 174.464 38.76 173.764 38.76C173.038 38.76 172.421 38.97 171.914 39.39C171.408 39.81 171.094 40.4433 170.974 41.29H168.184C168.198 40.37 168.411 39.5367 168.824 38.79C169.244 38.0367 169.871 37.44 170.704 37C171.538 36.56 172.584 36.34 173.844 36.34C174.924 36.34 175.854 36.5233 176.634 36.89C177.421 37.2567 178.028 37.7667 178.454 38.42C178.881 39.0733 179.094 39.8367 179.094 40.71C179.094 41.4367 178.961 42.0633 178.694 42.59C178.428 43.1167 178.074 43.5667 177.634 43.94C177.194 44.3133 176.711 44.64 176.184 44.92C175.658 45.2 175.131 45.46 174.604 45.7C174.084 45.94 173.604 46.1867 173.164 46.44C172.724 46.6867 172.371 46.9667 172.104 47.28C171.838 47.5933 171.704 47.97 171.704 48.41V48.54H179.074V51H168.454Z" fill="#333333"/>
<rect x="155" y="64" width="67" height="7" rx="2" fill="#E9E9E9"/>
<rect x="155" y="64" width="17" height="7" rx="2" fill="#044D6C"/>
<rect x="254" y="16" width="99" height="71" rx="2" fill="white"/>
<path d="M277.96 51.05L276.42 50.84L278.56 36.51L280.09 36.66L277.96 51.05ZM270.56 46.5V44.98H280.99V46.5H270.56ZM273.71 51.05L272.19 50.84L274.33 36.51L275.84 36.66L273.71 51.05ZM271.2 42.4V40.88H281.63V42.4H271.2ZM288.724 51.22C287.564 51.2133 286.574 51.0233 285.754 50.65C284.941 50.27 284.314 49.73 283.874 49.03C283.441 48.33 283.218 47.4967 283.204 46.53H286.014C286.154 47.35 286.474 47.9433 286.974 48.31C287.474 48.6767 288.068 48.86 288.754 48.86C289.354 48.86 289.868 48.7733 290.294 48.6C290.728 48.4267 291.058 48.1867 291.284 47.88C291.518 47.5667 291.634 47.21 291.634 46.81C291.634 46.3967 291.514 46.04 291.274 45.74C291.041 45.44 290.714 45.2067 290.294 45.04C289.874 44.8667 289.394 44.7733 288.854 44.76L287.474 44.71V42.39L288.714 42.32C289.234 42.3 289.688 42.2033 290.074 42.03C290.461 41.8567 290.761 41.6267 290.974 41.34C291.194 41.0467 291.304 40.7167 291.304 40.35C291.304 39.9967 291.194 39.69 290.974 39.43C290.754 39.17 290.451 38.9667 290.064 38.82C289.678 38.6733 289.234 38.6 288.734 38.6C288.274 38.6 287.851 38.6767 287.464 38.83C287.078 38.9833 286.761 39.2367 286.514 39.59C286.268 39.9367 286.124 40.4033 286.084 40.99H283.294C283.294 39.95 283.538 39.0867 284.024 38.4C284.518 37.7133 285.181 37.2 286.014 36.86C286.848 36.5133 287.774 36.34 288.794 36.34C289.874 36.34 290.834 36.48 291.674 36.76C292.521 37.04 293.188 37.4667 293.674 38.04C294.161 38.6133 294.404 39.34 294.404 40.22C294.404 40.9333 294.198 41.5633 293.784 42.11C293.371 42.65 292.698 43.08 291.764 43.4C292.298 43.5467 292.791 43.77 293.244 44.07C293.698 44.37 294.061 44.7533 294.334 45.22C294.608 45.6867 294.744 46.2467 294.744 46.9C294.744 47.6067 294.588 48.23 294.274 48.77C293.961 49.31 293.528 49.7633 292.974 50.13C292.421 50.4967 291.781 50.77 291.054 50.95C290.328 51.13 289.551 51.22 288.724 51.22Z" fill="#333333"/>
<rect x="270" y="64" width="67" height="7" rx="2" fill="#E9E9E9"/>
<rect x="270" y="64" width="7" height="7" rx="2" fill="#044D6C"/>
</svg>
