<svg width="19" height="22" viewBox="0 0 19 22" version="1.1" xmlns="http://www.w3.org/2000/svg" xmlns:xlink="http://www.w3.org/1999/xlink">
<g id="Canvas" transform="translate(7575 -211)">
<g id="Shape">
<use xlink:href="#path0_fill" transform="translate(-7575 211)" fill="#AEAEAE"/>
</g>
</g>
<defs>
<path id="path0_fill" fillRule="evenodd" d="M 9.45459 0.181824C 11.5669 2.19049 14.3721 3.29871 17.2812 3.29871C 17.6621 3.29871 17.9741 3.61041 18.0088 3.99133L 18.0088 14.7965C 18.0088 15.4822 15.5771 20.1898 10.3896 21.619L 10.3584 21.6282C 10.1479 21.6899 9.08936 22 9.00439 22C 8.93164 22 7.76123 21.6602 7.62793 21.6216L 7.61914 21.619C 2.05908 20.0869 0 15.1962 0 14.7965L 0 3.99133C 0 3.61041 0.311523 3.29871 0.692871 3.29871C 3.60156 3.29871 6.40674 2.19049 8.51953 0.181824C 8.76172 -0.0606079 9.17725 -0.0606079 9.45459 0.181824ZM 15.0649 17.0823C 15.6538 16.355 16.1733 15.5588 16.5889 14.658L 16.5889 4.64935C 13.7837 4.51086 11.1167 3.43726 8.96973 1.60175C 6.82227 3.43726 4.15576 4.51086 1.35059 4.64935L 1.35059 14.658C 1.73145 15.5588 2.25098 16.355 2.87451 17.0823C 3.70557 15.0736 5.50635 13.5498 7.68848 13.1342C 6.23389 12.6147 5.16016 11.1948 5.16016 9.53247C 5.16016 7.41992 6.85693 5.72296 8.96973 5.72296C 11.082 5.72296 12.7793 7.41992 12.7793 9.53247C 12.7793 11.1948 11.7056 12.6147 10.251 13.1342C 12.4326 13.5498 14.2339 15.0736 15.0649 17.0823Z"/>
</defs>
</svg>
