<svg width="21" height="21" viewBox="0 0 21 21" version="1.1" xmlns="http://www.w3.org/2000/svg" xmlns:xlink="http://www.w3.org/1999/xlink">
<title>Group 27</title>
<desc>Created using Figma</desc>
<g id="Canvas" transform="translate(7575 -262)">
<g id="Group 27">
<g id="Shape">
<use xlink:href="#path0_stroke" transform="translate(-7570.75 262.757)" fill="#AEAEAE"/>
</g>
<g id="Shape">
<use xlink:href="#path1_stroke" transform="translate(-7559.99 264.63)" fill="#AEAEAE"/>
</g>
<g id="Shape">
<use xlink:href="#path2_stroke" transform="translate(-7569.25 273.685)" fill="#AEAEAE"/>
</g>
<g id="Shape">
<use xlink:href="#path3_stroke" transform="translate(-7566.56 266.797)" fill="#AEAEAE"/>
</g>
<g id="Shape">
<use xlink:href="#path4_stroke" transform="translate(-7574.25 264.686)" fill="#AEAEAE"/>
</g>
</g>
</g>
<defs>
<path id="path0_stroke" d="M 1.54482 10.988L 1.0145 10.4577C 0.929309 10.5428 0.865896 10.6473 0.829625 10.7622L 1.54482 10.988ZM 12.2843 0.248588L 12.8146 0.778919L 12.8148 0.778698L 12.2843 0.248588ZM 13.4801 0.248588L 12.9496 0.77877L 12.9497 0.778912L 13.4801 0.248588ZM 15.5959 2.36449L 15.0656 2.89481L 15.0657 2.8949L 15.5959 2.36449ZM 15.5959 3.56019L 16.1263 4.09052L 16.1263 4.09052L 15.5959 3.56019ZM 4.85648 14.2996L 5.08869 15.0127C 5.20108 14.9761 5.30323 14.9135 5.38681 14.8299L 4.85648 14.2996ZM 0 15.8809L -0.7152 15.6551C -0.799799 15.923 -0.727526 16.2158 -0.52795 16.4136C -0.328373 16.6114 -0.0349763 16.681 0.232205 16.594L 0 15.8809ZM 2.07515 11.5183L 12.8146 0.778919L 11.754 -0.281744L 1.0145 10.4577L 2.07515 11.5183ZM 12.8148 0.778698C 12.853 0.740482 12.9112 0.740362 12.9496 0.77877L 14.0106 -0.281595C 13.3865 -0.905987 12.378 -0.906307 11.7537 -0.281523L 12.8148 0.778698ZM 12.9497 0.778912L 15.0656 2.89481L 16.1263 1.83416L 14.0104 -0.281737L 12.9497 0.778912ZM 15.0657 2.8949C 15.1038 2.93304 15.104 2.99151 15.0656 3.02986L 16.1263 4.09052C 16.7503 3.46646 16.7504 2.45813 16.1262 1.83408L 15.0657 2.8949ZM 15.0656 3.02986L 4.32615 13.7693L 5.38681 14.8299L 16.1263 4.09052L 15.0656 3.02986ZM 4.62428 13.5864L -0.232205 15.1677L 0.232205 16.594L 5.08869 15.0127L 4.62428 13.5864ZM 0.7152 16.1067L 2.26002 11.2138L 0.829625 10.7622L -0.7152 15.6551L 0.7152 16.1067Z"/>
<path id="path1_stroke" d="M 3.55648 2.94111L 0.307938 -0.307894L -0.307938 0.307894L 2.9406 3.55689L 3.55648 2.94111Z"/>
<path id="path2_stroke" d="M 3.21091 2.66523L 0.272871 -0.272865L -0.272871 0.272865L 2.66516 3.21097L 3.21091 2.66523Z"/>
<path id="path3_stroke" d="M -0.307925 6.40737C -0.477988 6.57744 -0.477989 6.85316 -0.307926 7.02323C -0.137864 7.19329 0.137862 7.19329 0.307925 7.02323L -0.307925 6.40737ZM 7.02325 0.307926C 7.19332 0.137864 7.19332 -0.137862 7.02326 -0.307925C 6.85319 -0.477988 6.57747 -0.477989 6.4074 -0.307926L 7.02325 0.307926ZM 0.307925 7.02323L 7.02325 0.307926L 6.4074 -0.307926L -0.307925 6.40737L 0.307925 7.02323Z"/>
<path id="path4_stroke" d="M 17.3326 8.0468C 17.3326 7.63258 16.9968 7.2968 16.5826 7.2968C 16.1684 7.2968 15.8326 7.63259 15.8326 8.0468L 17.3326 8.0468ZM 16.5826 15.6616L 17.3326 15.6616L 17.3326 15.6616L 16.5826 15.6616ZM 15.6614 16.5827L 15.6614 17.3327L 15.6615 17.3327L 15.6614 16.5827ZM 0.921237 16.5826L 0.921242 15.8326L 0.92109 15.8326L 0.921237 16.5826ZM 1.67e-05 15.6616L -0.749983 15.6616L -0.749983 15.6616L 1.67e-05 15.6616ZM 0 0.9215L 0.75 0.921499L 0.75 0.921446L 0 0.9215ZM 0.921232 0L 0.92124 -0.75L 0.921232 -0.75L 0.921232 0ZM 10.2431 0.7501C 10.6573 0.750104 10.9931 0.414322 10.9931 0.000108046C 10.9931 -0.414106 10.6573 -0.749896 10.2431 -0.7499L 10.2431 0.7501ZM 15.8326 8.0468L 15.8326 15.6616L 17.3326 15.6616L 17.3326 8.0468L 15.8326 8.0468ZM 15.8326 15.6616C 15.8326 15.7574 15.7578 15.8327 15.6612 15.8327L 15.6615 17.3327C 16.5856 17.3325 17.3326 16.5866 17.3326 15.6616L 15.8326 15.6616ZM 15.6614 15.8327L 0.921242 15.8326L 0.921231 17.3326L 15.6614 17.3327L 15.6614 15.8327ZM 0.92109 15.8326C 0.824945 15.8326 0.750017 15.7577 0.750017 15.6616L -0.749983 15.6616C -0.749981 16.5863 -0.00316706 17.3328 0.921384 17.3326L 0.92109 15.8326ZM 0.750017 15.6616L 0.75 0.921499L -0.75 0.921501L -0.749983 15.6616L 0.750017 15.6616ZM 0.75 0.921446C 0.749993 0.825 0.825199 0.75 0.921232 0.75L 0.921232 -0.75C -0.00343106 -0.75 -0.750066 -0.00320006 -0.75 0.921554L 0.75 0.921446ZM 0.921224 0.75L 10.2431 0.7501L 10.2431 -0.7499L 0.92124 -0.75L 0.921224 0.75Z"/>
</defs>
</svg>
