<svg width="17" height="19" viewBox="0 0 17 19" version="1.1" xmlns="http://www.w3.org/2000/svg" xmlns:xlink="http://www.w3.org/1999/xlink">
<title>Group 6</title>
<desc>Created using Figma</desc>
<g id="Canvas" transform="translate(7571 -312)">
<g id="Group 6">
<g id="Shape">
<use xlink:href="#path0_stroke" transform="translate(-7569.98 315.452)" fill="#AEAEAE"/>
</g>
<g id="Shape">
<use xlink:href="#path1_stroke" transform="translate(-7562.5 313.033)" fill="#AEAEAE"/>
</g>
</g>
</g>
<defs>
<path id="path0_stroke" d="M 11.3224 -0.896387C 10.8274 -1.1412 10.2276 -0.938333 9.98279 -0.443272C 9.73797 0.0517884 9.94084 0.651574 10.4359 0.896387L 11.3224 -0.896387ZM 7.484 13.7492L 7.484 14.7492L 7.484 13.7492ZM 0 6.479L -1 6.479L 0 6.479ZM 4.53154 0.896667C 5.02657 0.651806 5.22938 0.0520009 4.98452 -0.443036C 4.73966 -0.938074 4.13986 -1.14088 3.64482 -0.896022L 4.53154 0.896667ZM 10.4359 0.896387C 12.614 1.9735 13.968 4.13574 13.968 6.479L 15.968 6.479C 15.968 3.35258 14.1621 0.507866 11.3224 -0.896387L 10.4359 0.896387ZM 13.968 6.479C 13.968 9.9148 11.0925 12.7492 7.484 12.7492L 7.484 14.7492C 12.1421 14.7492 15.968 11.0736 15.968 6.479L 13.968 6.479ZM 7.484 12.7492C 5.75513 12.7492 4.10271 12.0817 2.8888 10.9025L 1.49523 12.3371C 3.08837 13.8847 5.24311 14.7492 7.484 14.7492L 7.484 12.7492ZM 2.8888 10.9025C 1.67588 9.72425 1 8.13245 1 6.479L -1 6.479C -1 8.6819 -0.0988951 10.7885 1.49523 12.3371L 2.8888 10.9025ZM 1 6.479C 1 4.13596 2.35371 1.97388 4.53154 0.896667L 3.64482 -0.896022C 0.805537 0.508371 -1 3.35287 -1 6.479L 1 6.479Z"/>
<path id="path1_stroke" d="M 1 0C 1 -0.552285 0.552285 -1 0 -1C -0.552285 -1 -1 -0.552285 -1 0L 1 0ZM -1 8.8654C -1 9.41768 -0.552285 9.8654 0 9.8654C 0.552285 9.8654 1 9.41768 1 8.8654L -1 8.8654ZM -1 0L -1 8.8654L 1 8.8654L 1 0L -1 0Z"/>
</defs>
</svg>
