<svg width="48" height="48" viewBox="0 0 48 48" fill="none" xmlns="http://www.w3.org/2000/svg">
<rect width="48" height="48" rx="24" fill="#B81306" fill-opacity="0.15"/>
<path d="M16.56 21.48L17.82 22.8C18.14 23.12 18.55 23.28 19.05 23.28C19.55 23.28 19.98 23.1 20.34 22.74C20.66 22.42 20.82 22.01 20.82 21.51C20.82 21.01 20.66 20.58 20.34 20.22L19.08 18.96L20.4 17.58C20.72 17.26 20.87 16.85 20.85 16.35C20.83 15.85 20.66 15.42 20.34 15.06C19.98 14.74 19.55 14.58 19.05 14.58C18.55 14.58 18.14 14.74 17.82 15.06L16.56 16.32L15.12 15C14.8 14.68 14.39 14.53 13.89 14.55C13.39 14.57 12.96 14.76 12.6 15.12C12.28 15.44 12.11 15.85 12.09 16.35C12.07 16.85 12.24 17.26 12.6 17.58L13.92 18.96L12.6 20.28C12.28 20.6 12.12 21.01 12.12 21.51C12.12 22.01 12.3 22.44 12.66 22.8C12.98 23.12 13.39 23.29 13.89 23.31C14.39 23.33 14.8 23.16 15.12 22.8L16.56 21.48ZM31.44 21.48L32.82 22.86C33.14 23.18 33.55 23.33 34.05 23.31C34.55 23.29 34.98 23.1 35.34 22.74C35.66 22.42 35.82 22.01 35.82 21.51C35.82 21.01 35.66 20.58 35.34 20.22L34.08 18.96L35.4 17.58C35.72 17.26 35.87 16.85 35.85 16.35C35.83 15.85 35.64 15.42 35.28 15.06C34.96 14.74 34.55 14.57 34.05 14.55C33.55 14.53 33.14 14.7 32.82 15.06L31.44 16.32L30.12 15.06C29.8 14.74 29.39 14.58 28.89 14.58C28.39 14.58 27.96 14.76 27.6 15.12C27.28 15.44 27.11 15.85 27.09 16.35C27.07 16.85 27.24 17.26 27.6 17.58L28.92 18.96L27.6 20.28C27.28 20.6 27.12 21.01 27.12 21.51C27.12 22.01 27.3 22.42 27.66 22.74C27.98 23.1 28.39 23.28 28.89 23.28C29.39 23.28 29.82 23.1 30.18 22.74L31.44 21.48ZM24 48C20.68 48 17.56 47.37 14.64 46.11C11.72 44.85 9.18 43.14 7.02 40.98C4.86 38.82 3.15 36.28 1.89 33.36C0.63 30.44 0 27.32 0 24C0 20.68 0.63 17.57 1.89 14.67C3.15 11.77 4.86 9.23 7.02 7.05C9.18 4.87 11.72 3.15 14.64 1.89C17.56 0.63 20.68 0 24 0C27.32 0 30.43 0.63 33.33 1.89C36.23 3.15 38.77 4.87 40.95 7.05C43.13 9.23 44.85 11.77 46.11 14.67C47.37 17.57 48 20.68 48 24C48 27.32 47.37 30.44 46.11 33.36C44.85 36.28 43.13 38.82 40.95 40.98C38.77 43.14 36.23 44.85 33.33 46.11C30.43 47.37 27.32 48 24 48ZM24 43.2C29.32 43.2 33.85 41.34 37.59 37.62C41.33 33.9 43.2 29.36 43.2 24C43.2 18.68 41.33 14.15 37.59 10.41C33.85 6.67 29.32 4.8 24 4.8C18.64 4.8 14.1 6.67 10.38 10.41C6.66 14.15 4.8 18.68 4.8 24C4.8 29.36 6.66 33.9 10.38 37.62C14.1 41.34 18.64 43.2 24 43.2ZM24 27.6C21.72 27.6 19.58 28.16 17.58 29.28C15.58 30.4 13.98 31.94 12.78 33.9C12.54 34.38 12.56 34.85 12.84 35.31C13.12 35.77 13.54 36 14.1 36H33.84C34.4 36 34.82 35.77 35.1 35.31C35.38 34.85 35.4 34.38 35.16 33.9C33.96 31.94 32.37 30.4 30.39 29.28C28.41 28.16 26.28 27.6 24 27.6Z" fill="#B81306"/>
</svg>
