<svg width="49" height="48" viewBox="0 0 49 48" fill="none" xmlns="http://www.w3.org/2000/svg">
<rect x="0.75" width="48" height="48" rx="24" fill="#D61607" fill-opacity="0.15"/>
<path d="M24.75 27.6C22.59 27.6 20.56 28.07 18.66 29.01C16.76 29.95 15.23 31.32 14.07 33.12C13.63 33.76 13.57 34.4 13.89 35.04C14.21 35.68 14.73 36 15.45 36C15.77 36 16.06 35.93 16.32 35.79C16.58 35.65 16.81 35.44 17.01 35.16C17.93 33.92 19.07 32.95 20.43 32.25C21.79 31.55 23.23 31.2 24.75 31.2C26.27 31.2 27.71 31.55 29.07 32.25C30.43 32.95 31.57 33.92 32.49 35.16C32.65 35.44 32.86 35.65 33.12 35.79C33.38 35.93 33.67 36 33.99 36C34.71 36 35.23 35.67 35.55 35.01C35.87 34.35 35.81 33.68 35.37 33C34.21 31.24 32.68 29.9 30.78 28.98C28.88 28.06 26.87 27.6 24.75 27.6ZM33.15 21.6C34.15 21.6 35 21.25 35.7 20.55C36.4 19.85 36.75 19 36.75 18C36.75 17 36.4 16.15 35.7 15.45C35 14.75 34.15 14.4 33.15 14.4C32.15 14.4 31.3 14.75 30.6 15.45C29.9 16.15 29.55 17 29.55 18C29.55 19 29.9 19.85 30.6 20.55C31.3 21.25 32.15 21.6 33.15 21.6ZM16.35 21.6C17.35 21.6 18.2 21.25 18.9 20.55C19.6 19.85 19.95 19 19.95 18C19.95 17 19.6 16.15 18.9 15.45C18.2 14.75 17.35 14.4 16.35 14.4C15.35 14.4 14.5 14.75 13.8 15.45C13.1 16.15 12.75 17 12.75 18C12.75 19 13.1 19.85 13.8 20.55C14.5 21.25 15.35 21.6 16.35 21.6ZM24.75 48C21.43 48 18.31 47.37 15.39 46.11C12.47 44.85 9.93 43.14 7.77 40.98C5.61 38.82 3.9 36.28 2.64 33.36C1.38 30.44 0.75 27.32 0.75 24C0.75 20.68 1.38 17.56 2.64 14.64C3.9 11.72 5.61 9.18 7.77 7.02C9.93 4.86 12.47 3.15 15.39 1.89C18.31 0.63 21.43 0 24.75 0C28.07 0 31.19 0.63 34.11 1.89C37.03 3.15 39.57 4.86 41.73 7.02C43.89 9.18 45.6 11.72 46.86 14.64C48.12 17.56 48.75 20.68 48.75 24C48.75 27.32 48.12 30.44 46.86 33.36C45.6 36.28 43.89 38.82 41.73 40.98C39.57 43.14 37.03 44.85 34.11 46.11C31.19 47.37 28.07 48 24.75 48ZM24.75 43.2C30.11 43.2 34.65 41.34 38.37 37.62C42.09 33.9 43.95 29.36 43.95 24C43.95 18.64 42.09 14.1 38.37 10.38C34.65 6.66 30.11 4.8 24.75 4.8C19.39 4.8 14.85 6.66 11.13 10.38C7.41 14.1 5.55 18.64 5.55 24C5.55 29.36 7.41 33.9 11.13 37.62C14.85 41.34 19.39 43.2 24.75 43.2Z" fill="#D61607"/>
</svg>
