<svg width="49" height="48" viewBox="0 0 49 48" fill="none" xmlns="http://www.w3.org/2000/svg">
<rect x="0.25" width="48" height="48" rx="24" fill="#04884C" fill-opacity="0.15"/>
<path d="M24.25 37.2C26.37 37.2 28.38 36.74 30.28 35.82C32.18 34.9 33.71 33.56 34.87 31.8C35.31 31.12 35.37 30.45 35.05 29.79C34.73 29.13 34.21 28.8 33.49 28.8C33.17 28.8 32.88 28.87 32.62 29.01C32.36 29.15 32.15 29.36 31.99 29.64C31.07 30.88 29.93 31.85 28.57 32.55C27.21 33.25 25.77 33.6 24.25 33.6C22.73 33.6 21.29 33.25 19.93 32.55C18.57 31.85 17.43 30.88 16.51 29.64C16.31 29.36 16.08 29.15 15.82 29.01C15.56 28.87 15.27 28.8 14.95 28.8C14.23 28.8 13.71 29.12 13.39 29.76C13.07 30.4 13.13 31.04 13.57 31.68C14.73 33.48 16.26 34.85 18.16 35.79C20.06 36.73 22.09 37.2 24.25 37.2ZM32.65 21.6C33.65 21.6 34.5 21.25 35.2 20.55C35.9 19.85 36.25 19 36.25 18C36.25 17 35.9 16.15 35.2 15.45C34.5 14.75 33.65 14.4 32.65 14.4C31.65 14.4 30.8 14.75 30.1 15.45C29.4 16.15 29.05 17 29.05 18C29.05 19 29.4 19.85 30.1 20.55C30.8 21.25 31.65 21.6 32.65 21.6ZM15.85 21.6C16.85 21.6 17.7 21.25 18.4 20.55C19.1 19.85 19.45 19 19.45 18C19.45 17 19.1 16.15 18.4 15.45C17.7 14.75 16.85 14.4 15.85 14.4C14.85 14.4 14 14.75 13.3 15.45C12.6 16.15 12.25 17 12.25 18C12.25 19 12.6 19.85 13.3 20.55C14 21.25 14.85 21.6 15.85 21.6ZM24.25 48C20.93 48 17.81 47.37 14.89 46.11C11.97 44.85 9.43 43.14 7.27 40.98C5.11 38.82 3.4 36.28 2.14 33.36C0.88 30.44 0.25 27.32 0.25 24C0.25 20.68 0.88 17.56 2.14 14.64C3.4 11.72 5.11 9.18 7.27 7.02C9.43 4.86 11.97 3.15 14.89 1.89C17.81 0.63 20.93 0 24.25 0C27.57 0 30.69 0.63 33.61 1.89C36.53 3.15 39.07 4.86 41.23 7.02C43.39 9.18 45.1 11.72 46.36 14.64C47.62 17.56 48.25 20.68 48.25 24C48.25 27.32 47.62 30.44 46.36 33.36C45.1 36.28 43.39 38.82 41.23 40.98C39.07 43.14 36.53 44.85 33.61 46.11C30.69 47.37 27.57 48 24.25 48ZM24.25 43.2C29.61 43.2 34.15 41.34 37.87 37.62C41.59 33.9 43.45 29.36 43.45 24C43.45 18.64 41.59 14.1 37.87 10.38C34.15 6.66 29.61 4.8 24.25 4.8C18.89 4.8 14.35 6.66 10.63 10.38C6.91 14.1 5.05 18.64 5.05 24C5.05 29.36 6.91 33.9 10.63 37.62C14.35 41.34 18.89 43.2 24.25 43.2Z" fill="#04884C"/>
</svg>
