<svg width="49" height="48" viewBox="0 0 49 48" fill="none" xmlns="http://www.w3.org/2000/svg">
<rect x="0.5" width="48" height="48" rx="24" fill="#43515D" fill-opacity="0.15"/>
<path d="M32.9 21.6C33.9 21.6 34.75 21.25 35.45 20.55C36.15 19.85 36.5 19 36.5 18C36.5 17 36.15 16.15 35.45 15.45C34.75 14.75 33.9 14.4 32.9 14.4C31.9 14.4 31.05 14.75 30.35 15.45C29.65 16.15 29.3 17 29.3 18C29.3 19 29.65 19.85 30.35 20.55C31.05 21.25 31.9 21.6 32.9 21.6ZM16.1 21.6C17.1 21.6 17.95 21.25 18.65 20.55C19.35 19.85 19.7 19 19.7 18C19.7 17 19.35 16.15 18.65 15.45C17.95 14.75 17.1 14.4 16.1 14.4C15.1 14.4 14.25 14.75 13.55 15.45C12.85 16.15 12.5 17 12.5 18C12.5 19 12.85 19.85 13.55 20.55C14.25 21.25 15.1 21.6 16.1 21.6ZM19.1 32.4H29.9C30.42 32.4 30.85 32.23 31.19 31.89C31.53 31.55 31.7 31.12 31.7 30.6C31.7 30.08 31.53 29.65 31.19 29.31C30.85 28.97 30.42 28.8 29.9 28.8H19.1C18.58 28.8 18.15 28.97 17.81 29.31C17.47 29.65 17.3 30.08 17.3 30.6C17.3 31.12 17.47 31.55 17.81 31.89C18.15 32.23 18.58 32.4 19.1 32.4ZM24.5 48C21.18 48 18.06 47.37 15.14 46.11C12.22 44.85 9.68 43.14 7.52 40.98C5.36 38.82 3.65 36.28 2.39 33.36C1.13 30.44 0.5 27.32 0.5 24C0.5 20.68 1.13 17.56 2.39 14.64C3.65 11.72 5.36 9.18 7.52 7.02C9.68 4.86 12.22 3.15 15.14 1.89C18.06 0.63 21.18 0 24.5 0C27.82 0 30.94 0.63 33.86 1.89C36.78 3.15 39.32 4.86 41.48 7.02C43.64 9.18 45.35 11.72 46.61 14.64C47.87 17.56 48.5 20.68 48.5 24C48.5 27.32 47.87 30.44 46.61 33.36C45.35 36.28 43.64 38.82 41.48 40.98C39.32 43.14 36.78 44.85 33.86 46.11C30.94 47.37 27.82 48 24.5 48ZM24.5 43.2C29.86 43.2 34.4 41.34 38.12 37.62C41.84 33.9 43.7 29.36 43.7 24C43.7 18.64 41.84 14.1 38.12 10.38C34.4 6.66 29.86 4.8 24.5 4.8C19.14 4.8 14.6 6.66 10.88 10.38C7.16 14.1 5.3 18.64 5.3 24C5.3 29.36 7.16 33.9 10.88 37.62C14.6 41.34 19.14 43.2 24.5 43.2Z" fill="#43515D"/>
</svg>
