<svg width="48" height="48" viewBox="0 0 48 48" fill="none" xmlns="http://www.w3.org/2000/svg">
<rect width="48" height="48" rx="24" fill="#036A3B" fill-opacity="0.16"/>
<path d="M24 37.2C26.32 37.2 28.46 36.64 30.42 35.52C32.38 34.4 33.96 32.88 35.16 30.96C35.4 30.48 35.38 30 35.1 29.52C34.82 29.04 34.4 28.8 33.84 28.8H14.16C13.6 28.8 13.18 29.04 12.9 29.52C12.62 30 12.6 30.48 12.84 30.96C14.04 32.88 15.63 34.4 17.61 35.52C19.59 36.64 21.72 37.2 24 37.2ZM16.56 19.08L17.82 20.34C18.18 20.7 18.6 20.88 19.08 20.88C19.56 20.88 19.98 20.7 20.34 20.34C20.7 19.98 20.87 19.56 20.85 19.08C20.83 18.6 20.66 18.18 20.34 17.82L18.24 15.66C17.76 15.18 17.19 14.94 16.53 14.94C15.87 14.94 15.3 15.18 14.82 15.66L12.66 17.82C12.3 18.18 12.12 18.6 12.12 19.08C12.12 19.56 12.3 19.98 12.66 20.34C12.98 20.66 13.39 20.83 13.89 20.85C14.39 20.87 14.82 20.72 15.18 20.4L16.56 19.08ZM31.44 19.08L32.82 20.4C33.18 20.72 33.6 20.88 34.08 20.88C34.56 20.88 34.98 20.7 35.34 20.34C35.7 19.98 35.88 19.56 35.88 19.08C35.88 18.6 35.7 18.18 35.34 17.82L33.18 15.66C32.7 15.18 32.13 14.94 31.47 14.94C30.81 14.94 30.24 15.18 29.76 15.66L27.6 17.82C27.28 18.18 27.12 18.6 27.12 19.08C27.12 19.56 27.3 19.98 27.66 20.34C28.02 20.7 28.44 20.88 28.92 20.88C29.4 20.88 29.82 20.7 30.18 20.34L31.44 19.08ZM24 48C20.68 48 17.56 47.37 14.64 46.11C11.72 44.85 9.18 43.14 7.02 40.98C4.86 38.82 3.15 36.28 1.89 33.36C0.63 30.44 0 27.32 0 24C0 20.68 0.63 17.56 1.89 14.64C3.15 11.72 4.86 9.18 7.02 7.02C9.18 4.86 11.72 3.15 14.64 1.89C17.56 0.63 20.68 0 24 0C27.32 0 30.44 0.63 33.36 1.89C36.28 3.15 38.82 4.86 40.98 7.02C43.14 9.18 44.85 11.72 46.11 14.64C47.37 17.56 48 20.68 48 24C48 27.32 47.37 30.44 46.11 33.36C44.85 36.28 43.14 38.82 40.98 40.98C38.82 43.14 36.28 44.85 33.36 46.11C30.44 47.37 27.32 48 24 48ZM24 43.2C29.36 43.2 33.9 41.34 37.62 37.62C41.34 33.9 43.2 29.36 43.2 24C43.2 18.64 41.34 14.1 37.62 10.38C33.9 6.66 29.36 4.8 24 4.8C18.64 4.8 14.1 6.66 10.38 10.38C6.66 14.1 4.8 18.64 4.8 24C4.8 29.36 6.66 33.9 10.38 37.62C14.1 41.34 18.64 43.2 24 43.2Z" fill="#036A3B"/>
</svg>
