<svg width="248" height="186" viewBox="0 0 248 186" fill="none" xmlns="http://www.w3.org/2000/svg">
<rect x="0.352896" y="97.4701" width="116.355" height="88.2005" rx="4.38523" fill="white"/>
<rect x="0.352896" y="97.4701" width="116.355" height="88.2005" rx="4.38523" stroke="#E0E0E0" stroke-width="0.584697"/>
<rect x="9.41571" y="106.533" width="98.2292" height="45.5176" rx="2.92349" fill="#F1F1F1"/>
<rect x="9.41571" y="156.728" width="80.8311" height="7.60107" rx="2.92349" fill="#F1F1F1"/>
<rect x="9.41571" y="169.006" width="94.1363" height="7.60107" rx="2.92349" fill="#F1F1F1"/>
<rect x="131.353" y="97.4701" width="116.355" height="88.2005" rx="4.38523" fill="white"/>
<rect x="131.353" y="97.4701" width="116.355" height="88.2005" rx="4.38523" stroke="#E0E0E0" stroke-width="0.584697"/>
<rect x="140.416" y="106.533" width="98.2292" height="45.5176" rx="2.92349" fill="#F1F1F1"/>
<rect x="140.416" y="156.728" width="80.8311" height="7.60107" rx="2.92349" fill="#F1F1F1"/>
<rect x="140.416" y="169.006" width="94.1363" height="7.60107" rx="2.92349" fill="#F1F1F1"/>
<rect x="46.4539" y="15.3934" width="156.554" height="118.673" rx="5.90029" fill="white"/>
<rect x="46.4539" y="15.3934" width="156.554" height="118.673" rx="5.90029" stroke="#E0E0E0" stroke-width="0.786705"/>
<rect x="58.6479" y="27.5874" width="132.166" height="61.2435" rx="3.93353" fill="#F1F1F1"/>
<rect x="58.6479" y="95.1245" width="108.757" height="10.2272" rx="3.93353" fill="#F1F1F1"/>
<rect x="58.6479" y="111.646" width="126.66" height="10.2272" rx="3.93353" fill="#F1F1F1"/>
<path d="M199.988 19.1477L197.869 17.0651C197.601 16.7972 197.266 16.6632 196.864 16.6632C196.463 16.6632 196.115 16.8094 195.823 17.1017C195.555 17.3696 195.421 17.7106 195.421 18.1247C195.421 18.5388 195.555 18.8798 195.823 19.1477L198.965 22.2899C199.258 22.5822 199.599 22.7283 199.988 22.7283C200.378 22.7283 200.719 22.5822 201.011 22.2899L207.223 16.0786C207.515 15.7863 207.655 15.4453 207.643 15.0556C207.631 14.6659 207.491 14.3249 207.223 14.0326C206.93 13.7403 206.583 13.588 206.181 13.5759C205.779 13.5637 205.432 13.7037 205.14 13.996L199.988 19.1477ZM195.896 32.374L193.777 28.7934L189.758 27.9165C189.393 27.8434 189.1 27.6547 188.881 27.3502C188.662 27.0457 188.577 26.7108 188.625 26.3454L189.027 22.2168L186.287 19.0746C186.044 18.8067 185.922 18.49 185.922 18.1247C185.922 17.7593 186.044 17.4427 186.287 17.1747L189.027 14.0326L188.625 9.90393C188.577 9.53856 188.662 9.20365 188.881 8.89917C189.1 8.5947 189.393 8.40593 189.758 8.33286L193.777 7.45598L195.896 3.87538C196.091 3.55873 196.359 3.3456 196.7 3.23599C197.041 3.12638 197.382 3.14465 197.723 3.2908L201.523 4.89841L205.323 3.2908C205.664 3.14465 206.005 3.12638 206.346 3.23599C206.687 3.3456 206.955 3.55873 207.15 3.87538L209.269 7.45598L213.288 8.33286C213.653 8.40593 213.945 8.5947 214.165 8.89917C214.384 9.20365 214.469 9.53856 214.42 9.90393L214.018 14.0326L216.759 17.1747C217.002 17.4427 217.124 17.7593 217.124 18.1247C217.124 18.49 217.002 18.8067 216.759 19.0746L214.018 22.2168L214.42 26.3454C214.469 26.7108 214.384 27.0457 214.165 27.3502C213.945 27.6547 213.653 27.8434 213.288 27.9165L209.269 28.7934L207.15 32.374C206.955 32.6906 206.687 32.9038 206.346 33.0134C206.005 33.123 205.664 33.1047 205.323 32.9586L201.523 31.351L197.723 32.9586C197.382 33.1047 197.041 33.123 196.7 33.0134C196.359 32.9038 196.091 32.6906 195.896 32.374Z" fill="#044D6C"/>
</svg>
