<svg width="123" height="86" viewBox="0 0 123 86" fill="none" xmlns="http://www.w3.org/2000/svg">
<g clip-path="url(#clip0_3014_17861)">
<rect width="123" height="86" rx="8" fill="#D9D9D9"/>
<g clip-path="url(#clip1_3014_17861)">
<rect x="32" y="7" width="59" height="94" rx="6" fill="white"/>
<g clip-path="url(#clip2_3014_17861)">
<rect width="59" height="41.252" transform="translate(32 2.74805)" fill="#044D6C"/>
<path opacity="0.25" fill-rule="evenodd" clip-rule="evenodd" d="M7.3302 37.4467L53.1415 17.1394L37.4253 4.68099L40.4865 0.811883L58.2351 14.8815L91.096 0.314941L93.0925 4.8277L62.6023 18.3434L103 50.3674L99.9388 54.2365L77.3657 36.3424L52.9198 62.3908L49.3261 59.0116L73.4866 33.2673L57.5086 20.6014L9.32673 41.9594L7.3302 37.4467Z" fill="white"/>
<path d="M61 16.6665C57.775 16.6665 55.1667 19.2748 55.1667 22.4998C55.1667 23.9498 55.5834 25.3082 56.3417 26.5332C57.1334 27.8165 58.175 28.9165 58.975 30.1998C59.3667 30.8248 59.65 31.4082 59.95 32.0832C60.1667 32.5415 60.3417 33.3332 61 33.3332C61.6584 33.3332 61.8334 32.5415 62.0417 32.0832C62.35 31.4082 62.625 30.8248 63.0167 30.1998C63.8167 28.9248 64.8584 27.8248 65.65 26.5332C66.4167 25.3082 66.8334 23.9498 66.8334 22.4998C66.8334 19.2748 64.225 16.6665 61 16.6665ZM61 24.7915C59.85 24.7915 58.9167 23.8582 58.9167 22.7082C58.9167 21.5582 59.85 20.6248 61 20.6248C62.15 20.6248 63.0834 21.5582 63.0834 22.7082C63.0834 23.8582 62.15 24.7915 61 24.7915Z" fill="white"/>
</g>
<rect x="39" y="52" width="43" height="6" fill="#D9D9D9"/>
<rect x="39" y="62" width="25" height="6" fill="#D9D9D9"/>
</g>
</g>
<defs>
<clipPath id="clip0_3014_17861">
<rect width="123" height="86" rx="8" fill="white"/>
</clipPath>
<clipPath id="clip1_3014_17861">
<rect x="32" y="7" width="59" height="94" rx="6" fill="white"/>
</clipPath>
<clipPath id="clip2_3014_17861">
<rect width="59" height="41.252" fill="white" transform="translate(32 2.74805)"/>
</clipPath>
</defs>
</svg>
