<svg xmlns="http://www.w3.org/2000/svg" width="23" height="20" viewBox="0 0 23 20">
    <path fill="#FFF" fillRule="nonzero" d="M19.55 3.435a11.358 11.358 0 0 0-16.1 0c-4.446 4.46-4.446 11.693 0 16.153.426.425 1.09.494 1.595.166l2.706-1.77a1.259 1.259 0 0 0 .111-2.026 1.277 1.277 0 0 0-1.533-.093L4.562 17.02C1.605 13.265 2.146 7.835 5.785 4.742a8.867 8.867 0 0 1 11.404 0c3.638 3.093 4.18 8.523 1.223 12.277l-1.771-1.154a1.27 1.27 0 0 0-1.51.085 1.26 1.26 0 0 0 .099 2.038l2.706 1.77c.511.336 1.188.262 1.614-.177 4.443-4.462 4.443-11.692 0-16.154v.008zm-2.3 9.211a.809.809 0 0 0 .342.83.803.803 0 0 0 .896 0 .809.809 0 0 0-.295-1.464.805.805 0 0 0-.943.634zM6.133 9.262a.806.806 0 0 0-.231-.923.799.799 0 0 0-.947-.055.805.805 0 0 0 .412 1.478c.334.01.64-.19.766-.5zm-1.276 2.757a.807.807 0 0 0 .126 1.596.787.787 0 0 0 .158 0 .801.801 0 0 0 .632-.946.804.804 0 0 0-.931-.65h.015zM8.583 6.25a.81.81 0 0 0-.233-.93.803.803 0 0 0-.955-.05.81.81 0 0 0-.195 1.1c.24.36.72.467 1.088.242a.803.803 0 0 0 .283-.343l.012-.019zm7.318.135a.809.809 0 0 0-.331-1.176.804.804 0 0 0-1.053.354.81.81 0 0 0 .302 1.072c.37.22.845.11 1.082-.25zm-3.634-1.243a.81.81 0 0 0-.744-1.115.804.804 0 1 0-.203 1.58.8.8 0 0 0 .947-.465zm-1.71 4.273a2.43 2.43 0 0 1 2.204.131l4.654-1.211a.682.682 0 0 1 .537 1.235l-4.045 2.607a2.436 2.436 0 0 1-2.394 1.92 2.444 2.444 0 0 1-.956-4.681zm.176 2.581a.861.861 0 0 0 1.137.432.867.867 0 0 0 .438-1.138.861.861 0 0 0-1.594.035.868.868 0 0 0 .02.671z"/>
</svg>
