<svg xmlns="http://www.w3.org/2000/svg" width="22" height="20" viewBox="0 0 22 20">
    <path fill="#FFF" fill-rule="nonzero" d="M6.703 14.613a.57.57 0 0 1-.794 0 6.903 6.903 0 0 1-1.668-2.659.53.53 0 0 1 .11-.536.572.572 0 0 1 .538-.171c.198.04.357.181.418.368a5.82 5.82 0 0 0 1.405 2.24c.21.213.206.55-.009.758zm8.98.154a.568.568 0 0 0 .402-.163 6.908 6.908 0 0 0 1.668-2.658.53.53 0 0 0-.114-.533.573.573 0 0 0-.533-.17.556.556 0 0 0-.42.361 5.822 5.822 0 0 1-1.405 2.24.53.53 0 0 0-.116.59.562.562 0 0 0 .518.333zM9.653 4.141a6.254 6.254 0 0 1 2.694 0 .573.573 0 0 0 .55-.15.531.531 0 0 0 .129-.54.555.555 0 0 0-.428-.368 7.426 7.426 0 0 0-3.199 0 .555.555 0 0 0-.417.37.531.531 0 0 0 .128.534c.139.143.346.202.543.154zm5.491-1.571C15.185 1.228 16.32.16 17.707.16c1.386 0 2.521 1.068 2.562 2.41-.04 1.341-1.176 2.409-2.562 2.409-1.387 0-2.522-1.068-2.563-2.41zm1.123 0c.03.748.666 1.34 1.44 1.34.773 0 1.41-.592 1.44-1.34-.03-.75-.667-1.341-1.44-1.341-.774 0-1.41.592-1.44 1.34zm5.612 4.68v1.493a1.014 1.014 0 0 1-.315.728c-.2.192-.472.3-.754.299h-6.218a1.082 1.082 0 0 1-.754-.3 1.014 1.014 0 0 1-.315-.727V7.25c.009-1.147.975-2.071 2.16-2.065h.577a.57.57 0 0 1 .393.156l1.05 1 1.05-1a.57.57 0 0 1 .394-.156h.577a2.185 2.185 0 0 1 1.523.598c.406.388.637.915.64 1.467h-.008zm-1.123 0c-.008-.547-.472-.984-1.037-.978h-.339l-1.107 1.054a.832.832 0 0 1-1.135 0L16.03 6.272h-.348c-.565-.006-1.029.431-1.037.978v1.433h6.12l-.01-1.433zM1.731 2.57C1.77 1.228 2.907.16 4.293.16c1.387 0 2.522 1.068 2.563 2.41C6.815 3.91 5.68 4.979 4.293 4.979c-1.386 0-2.521-1.068-2.562-2.41zm1.122 0c.03.748.667 1.34 1.44 1.34.774 0 1.41-.592 1.44-1.34-.03-.75-.666-1.341-1.44-1.341-.773 0-1.41.592-1.44 1.34zM.113 8.743V7.25c.008-1.147.974-2.071 2.159-2.065h.579a.57.57 0 0 1 .393.156l1.05 1 1.051-1a.57.57 0 0 1 .393-.156h.577c1.185-.006 2.15.918 2.16 2.065v1.493c-.003.569-.48 1.028-1.067 1.027H1.181a1.082 1.082 0 0 1-.754-.3 1.014 1.014 0 0 1-.315-.727zm1.122-.06h6.12V7.25c-.01-.547-.473-.984-1.038-.978H5.97L4.862 7.326a.832.832 0 0 1-1.135 0L2.62 6.272h-.348c-.565-.006-1.029.431-1.037.978v1.433zm12.329 3.997c.013 1.007-.603 1.923-1.56 2.317A2.626 2.626 0 0 1 9.2 14.48a2.426 2.426 0 0 1-.57-2.71c.394-.931 1.331-1.54 2.371-1.54 1.406-.008 2.554 1.089 2.564 2.45zm-1.123 0a1.394 1.394 0 0 0-.866-1.312 1.476 1.476 0 0 0-1.582.281c-.419.397-.548 1-.327 1.525.22.526.748.87 1.334.87.786.008 1.431-.602 1.441-1.364zm2.741 4.68v1.494a1.014 1.014 0 0 1-.315.728c-.2.192-.471.3-.753.298H7.886a1.082 1.082 0 0 1-.753-.298 1.014 1.014 0 0 1-.315-.728v-1.493c.008-1.148.976-2.073 2.162-2.065h.577a.57.57 0 0 1 .392.156l1.051 1 1.05-1a.57.57 0 0 1 .393-.156h.577c1.186-.008 2.154.917 2.162 2.065zm-1.122 0c-.009-.547-.474-.985-1.04-.977h-.345l-1.107 1.052a.832.832 0 0 1-1.134 0L9.328 16.38H8.98c-.565-.006-1.029.432-1.038.979v1.432h6.118v-1.43z" opacity=".6"/>
</svg>
