<svg xmlns="http://www.w3.org/2000/svg" xmlns:xlink="http://www.w3.org/1999/xlink" width="23" height="21" viewBox="0 0 23 21">
    <defs>
        <path id="a" d="M0 0h18.593v17.658H0z"/>
    </defs>
    <g fill="none" fill-rule="evenodd" opacity=".6">
        <path fill="#FFF" d="M11.504 0c.45 0 .814.364.814.813V2.94a.813.813 0 0 1-1.627 0V.813c0-.449.364-.813.813-.813zm8.999 4.144a.813.813 0 0 1-.12 1.144L18.73 6.626a.813.813 0 0 1-1.024-1.264l1.652-1.338a.813.813 0 0 1 1.144.12zm2.232 9.352a.813.813 0 0 1-.975.61l-2.071-.478a.813.813 0 1 1 .366-1.585l2.07.478c.438.1.711.538.61.975zm-22.462 0a.813.813 0 0 1 .61-.975l2.07-.478a.813.813 0 0 1 .367 1.585l-2.071.478a.813.813 0 0 1-.976-.61zm2.232-9.352a.813.813 0 0 1 1.144-.12l1.652 1.338a.813.813 0 1 1-1.024 1.264L2.626 5.288a.813.813 0 0 1-.12-1.144z"/>
        <g transform="translate(2.092 4.635)">
            <mask id="b" fill="#fff">
                <use xlink:href="#a"/>
            </mask>
            <path fill="#FFF" fill-rule="nonzero" d="M6.972 15.45c0 .405.349.736.775.736h3.099c.426 0 .774-.33.774-.736v-.735H6.972v.735zM9.296 1.471c-2.99 0-5.423 2.31-5.423 5.15 0 1.752.922 3.29 2.325 4.224v1.663c0 .404.348.735.774.735h4.648c.426 0 .775-.33.775-.735v-1.663c1.402-.935 2.324-2.472 2.324-4.223 0-2.84-2.432-5.15-5.423-5.15zm2.208 8.167l-.658.442v1.692h-3.1V10.08l-.658-.442c-1.045-.691-1.665-1.817-1.665-3.016 0-2.031 1.735-3.68 3.873-3.68s3.874 1.649 3.874 3.68c0 1.199-.62 2.325-1.666 3.016z" mask="url(#b)"/>
        </g>
    </g>
</svg>
