<svg xmlns="http://www.w3.org/2000/svg" width="35" height="38" viewBox="0 0 35 38">
    <path fill="#FFF" fillRule="nonzero" d="M34.392.553a.868.868 0 0 0-.822-.08L17.5 7.222 1.43.473a.867.867 0 0 0-.822.08.886.886 0 0 0-.39.735V29.82c0 .357.213.679.54.816l16.406 6.892c.018.008.037.01.056.017l.058.018c.073.019.147.032.222.032a.873.873 0 0 0 .28-.05c.018-.007.038-.01.056-.017l16.406-6.892a.884.884 0 0 0 .54-.816V1.288a.886.886 0 0 0-.39-.735zM16.625 35.387L1.969 29.23V2.613L16.625 8.77v26.618zm16.406-6.156l-14.656 6.156V8.769l14.656-6.156v26.618zM21.84 14.876a.875.875 0 0 0 .335-.067l7.73-3.24a.887.887 0 0 0 .472-1.155.872.872 0 0 0-1.144-.478l-7.729 3.24a.887.887 0 0 0-.473 1.154c.14.34.466.546.81.546zm0 4.419a.875.875 0 0 0 .335-.068l7.73-3.24a.887.887 0 0 0 .472-1.155.873.873 0 0 0-1.144-.477l-7.729 3.239a.887.887 0 0 0-.473 1.155c.14.34.466.546.81.546zm0 4.418a.875.875 0 0 0 .335-.067l7.73-3.24a.887.887 0 0 0 .472-1.155.873.873 0 0 0-1.144-.478l-7.729 3.24a.887.887 0 0 0-.473 1.155c.14.34.466.545.81.545zm0 4.419a.875.875 0 0 0 .335-.068l7.73-3.24a.887.887 0 0 0 .472-1.154.872.872 0 0 0-1.144-.478l-7.729 3.24a.887.887 0 0 0-.473 1.154c.14.34.466.546.81.546zM5.097 11.569l7.729 3.24a.877.877 0 0 0 1.144-.478.887.887 0 0 0-.473-1.155l-7.729-3.24a.873.873 0 0 0-1.144.478.887.887 0 0 0 .473 1.155zm0 4.418l7.729 3.24a.877.877 0 0 0 1.144-.478.887.887 0 0 0-.473-1.155l-7.729-3.24a.873.873 0 0 0-1.144.478.887.887 0 0 0 .473 1.155zm0 4.419l7.729 3.24a.877.877 0 0 0 1.144-.478.887.887 0 0 0-.473-1.155l-7.729-3.24a.873.873 0 0 0-1.144.478.887.887 0 0 0 .473 1.155zm0 4.419l7.729 3.24a.877.877 0 0 0 1.144-.478.887.887 0 0 0-.473-1.155l-7.729-3.24a.873.873 0 0 0-1.144.478.887.887 0 0 0 .473 1.155z"/>
</svg>
