<svg xmlns="http://www.w3.org/2000/svg" width="21" height="18" viewBox="0 0 21 18">
    <path fill="#FFF" fill-rule="nonzero" d="M10.5 0a.801.801 0 0 0-.449.138L.915 6.34a.788.788 0 0 0 .449 1.443H2.87v6.33h-.481a.793.793 0 0 0-.797.79c0 .437.356.79.797.79H18.61c.44 0 .796-.353.796-.79a.792.792 0 0 0-.796-.79h-.482v-6.33h1.505c.35 0 .657-.226.762-.557a.785.785 0 0 0-.312-.886L10.95.138A.8.8 0 0 0 10.5 0zm0 1.747l6.56 4.456H3.939l6.56-4.456zM4.461 7.784h1.824v6.33H4.462v-6.33zm3.416 0h1.826v6.33H7.878v-6.33zm3.418 0h1.824v6.33h-1.824v-6.33zm3.417 0h1.824v6.33h-1.824v-6.33zM.796 16.386a.793.793 0 0 0-.796.79c0 .437.356.79.796.79h19.407c.44 0 .796-.353.796-.79a.793.793 0 0 0-.796-.79H.796z" opacity=".6"/>
</svg>
