<svg xmlns="http://www.w3.org/2000/svg" width="20" height="20" viewBox="0 0 20 20">
    <path fill="#FFF" fill-rule="evenodd" d="M17.157 10.975c.04-.32.07-.645.07-.975 0-.33-.03-.655-.07-.975l2.115-1.655c.19-.15.245-.42.12-.64l-2-3.465c-.125-.215-.385-.305-.61-.215l-2.49 1.005a7.588 7.588 0 0 0-1.69-.985L12.227.42a.514.514 0 0 0-.5-.42h-4a.505.505 0 0 0-.495.42l-.375 2.65a7.4 7.4 0 0 0-1.69.985L2.677 3.05a.5.5 0 0 0-.61.215l-2 3.465a.5.5 0 0 0 .12.64l2.11 1.655c-.04.32-.07.645-.07.975 0 .33.03.655.07.975L.187 12.63a.499.499 0 0 0-.12.64l2 3.465c.125.215.385.305.61.215l2.49-1.005c.515.395 1.08.73 1.69.985l.375 2.65c.04.235.245.42.495.42h4c.25 0 .455-.185.495-.42l.375-2.65a7.4 7.4 0 0 0 1.69-.985l2.49 1.005a.5.5 0 0 0 .61-.215l2-3.465a.5.5 0 0 0-.12-.64l-2.11-1.655zM9.727 13.5a3.497 3.497 0 0 1-3.5-3.5c0-1.935 1.565-3.5 3.5-3.5s3.5 1.565 3.5 3.5-1.565 3.5-3.5 3.5z" opacity=".6"/>
</svg>
