<svg xmlns="http://www.w3.org/2000/svg" width="29" height="41" viewBox="0 0 29 41" xmlns:xlink="http://www.w3.org/1999/xlink">
  <g transform="translate(18039 -11401)">
    <use fill="#FF552F" xlink:href="#a" transform="translate(-18036 11404)"/>
    <mask id="b">
      <path fill="#fff" d="M-18039 11401h29v41h-29z"/>
      <use xlink:href="#a" transform="translate(-18036 11404)"/>
    </mask>
    <use fill="#FFF" xlink:href="#c" transform="translate(-18036 11404)" mask="url(#b)"/>
  </g>
  <defs>
    <path id="a" d="M11.5 0C5.15 0 0 5.173 0 11.55 0 20.212 11.5 33 11.5 33S23 20.212 23 11.55C23 5.173 17.85 0 11.5 0zm0 15.675c-2.267 0-4.107-1.848-4.107-4.125s1.84-4.125 4.107-4.125c2.267 0 4.107 1.848 4.107 4.125s-1.84 4.125-4.107 4.125z"/>
    <path id="c" d="M11.5 33l-2.23 2.006 2.23 2.48 2.23-2.48L11.5 33zm0-36C3.48-3-3 3.528-3 11.55h6C3 6.817 6.82 3 11.5 3v-6zM-3 11.55c0 5.338 3.4 11.388 6.26 15.646 1.492 2.22 3.01 4.194 4.11 5.556.558.69 1.036 1.258 1.36 1.635.164.193.3.348.388.45l.108.12.03.034c.003.005.007.01.01.01 0 .002 0 .003.002.004 0 .002 0 .002 2.232-2.004l2.23-2.006c.002 0 .002 0 0 0l-.002-.003-.02-.02-.084-.097c-.08-.09-.192-.22-.34-.393-.307-.356-.728-.855-1.248-1.5-1.055-1.305-2.413-3.07-3.796-5.13C5.35 19.55 3 14.874 3 11.55h-6zM11.5 33l2.23 2.005h.002c0-.002.002-.003.003-.004.002 0 .006-.005.01-.01l.03-.033c.023-.026.06-.07.107-.12l.39-.45c.322-.377.8-.944 1.358-1.635 1.1-1.362 2.618-3.337 4.11-5.556C22.6 22.938 26 16.888 26 11.55h-6c0 3.324-2.35 8-5.24 12.3-1.383 2.06-2.74 3.825-3.796 5.13-.52.645-.94 1.144-1.247 1.5l-.34.393-.085.096-.02.02-.003.005s-.002 0 0 0L11.5 33zM26 11.55C26 3.528 19.52-3 11.5-3v6c4.68 0 8.5 3.817 8.5 8.55h6zm-14.5 1.125c-.598 0-1.107-.493-1.107-1.125h-6c0 3.922 3.17 7.125 7.107 7.125v-6zm-1.107-1.125c0-.632.51-1.125 1.107-1.125v-6c-3.936 0-7.107 3.203-7.107 7.125h6zm1.107-1.125c.598 0 1.107.493 1.107 1.125h6c0-3.922-3.17-7.125-7.107-7.125v6zm1.107 1.125c0 .632-.51 1.125-1.107 1.125v6c3.936 0 7.107-3.203 7.107-7.125h-6z"/>
  </defs>
</svg>
