<svg
  width="194"
  height="39"
  viewBox="0 0 194 39"
  fill="none"
  xmlns="http://www.w3.org/2000/svg"
>
  <rect
    width="2.64342"
          height="6.97295"
          transform="matrix(-0.769465 0.638689 -0.536626 -0.84382 165.213 26.5168)"
          fill="#FF21FB"
        />
        <rect
          width="5.26452"
          height="4.28239"
          transform="matrix(0.550605 0.834766 -0.757847 0.652432 143.341 22.5713)"
          fill="#FC9E1C"
          fillOpacity="0.6"
        />
        <ellipse
          cx="74.5922"
          cy="3.21198"
          rx="2.6247"
          ry="2.9986"
          fill="#4BC8EF"
          fillOpacity="0.85"
        />
        <ellipse
          cx="24.5158"
          cy="1.23922"
          rx="0.897923"
          ry="1.02584"
          fill="#BA3E03"
          fillOpacity="0.65"
        />
        <ellipse
          cx="192.012"
          cy="15.0484"
          rx="1.47351"
          ry="1.68342"
          fill="#480CA7"
          fillOpacity="0.9"
        />
        <ellipse
          cx="2.068"
          cy="8.47273"
          rx="1.47351"
          ry="1.68342"
          fill="#F62584"
          fillOpacity="0.9"
        />
        <path
          d="M136.717 34.4882L138.828 34.4461L139.515 36.7266L137.829 38.1781L136.1 36.7947L136.717 34.4882Z"
          fill="#480CA7"
          fillOpacity="0.6"
        />
        <path
          d="M167.185 10.6821L168.494 7.86997L171.24 8.42303L171.628 11.577L169.122 12.9731L167.185 10.6821Z"
          fill="#480CA7"
          fillOpacity="0.35"
        />
        <path
          d="M125.53 3.63224L126.502 5.81179L128.616 5.42912L127.102 7.15882L128.075 9.33836L126.167 8.22783L124.653 9.95752L124.988 7.54148L123.08 6.43095L125.195 6.04829L125.53 3.63224Z"
          fill="#480CA7"
          fillOpacity="0.35"
        />
        <path
          d="M22.9314 8.77107L21.8371 9.58292L22.1748 11.0228L21.1608 10.0847L20.0665 10.8965L20.5341 9.50491L19.5201 8.56683L20.8231 8.64484L21.2907 7.25322L21.6284 8.69306L22.9314 8.77107Z"
          fill="#FF21FB"
          fillOpacity="0.6"
        />
      </svg>