<svg width="104" height="43" viewBox="0 0 104 43" fill="none" xmlns="http://www.w3.org/2000/svg">
<path d="M10.0384 26.9668L10.0512 22.8601H1.50407V19.78L9.96136 8.40953H13.6446V19.7159H16.5065V22.8601H13.6446V26.9668H10.0384ZM4.96912 19.7159H10.0512V12.9141L4.96912 19.7159Z" fill="#333333"/>
<path d="M20.1439 27.2517L24.0402 15.8324H25.6033L21.7147 27.2517H20.1439ZM31.2068 27.1362C30.4778 27.1362 29.8002 27.0233 29.174 26.7974C28.5477 26.5715 28.0061 26.2635 27.5492 25.8734C27.0924 25.4781 26.7459 25.0264 26.5097 24.5182L28.2653 23.4786C28.4656 23.8277 28.6914 24.1434 28.943 24.4258C29.1945 24.703 29.4845 24.9237 29.8131 25.088C30.1467 25.2471 30.5343 25.3267 30.9758 25.3267C31.6431 25.3267 32.1796 25.1496 32.5851 24.7954C32.9907 24.4412 33.1934 23.9792 33.1934 23.4093C33.1934 23.05 33.101 22.7292 32.9162 22.4468C32.7365 22.1594 32.4876 21.9335 32.1693 21.7692C31.851 21.605 31.4789 21.5228 31.0528 21.5228C30.8269 21.5228 30.6113 21.5434 30.406 21.5844C30.2058 21.6204 30.0004 21.6922 29.79 21.8C29.5846 21.9027 29.3562 22.0516 29.1047 22.2466C29.0328 22.2774 28.9815 22.2928 28.9507 22.2928C28.925 22.2928 28.8737 22.2749 28.7967 22.2389L27.1642 21.4843L27.6724 15.8324H34.8258L34.7411 17.6728H29.4512L29.2356 20.3601C29.6462 20.1291 30.0364 19.9623 30.406 19.8596C30.7807 19.7569 31.1914 19.7056 31.638 19.7056C32.3823 19.7056 33.0471 19.8468 33.6323 20.1291C34.2227 20.4063 34.6898 20.8144 35.0337 21.3534C35.3777 21.8924 35.5497 22.5495 35.5497 23.3246C35.5497 24.1101 35.3726 24.7877 35.0183 25.3575C34.6641 25.9273 34.1611 26.3662 33.5091 26.6742C32.8623 26.9822 32.0949 27.1362 31.2068 27.1362Z" fill="#333333"/>
<rect x="0.400391" y="36.5342" width="70.8546" height="5.77508" rx="0.641676" fill="#5DBFA0"/>
<rect x="72.5381" y="36.5342" width="13.0855" height="5.77508" rx="0.641676" fill="#D9D9D9"/>
<rect x="86.9072" y="36.5342" width="10.1614" height="5.77508" rx="0.641676" fill="#EC7267"/>
</svg>
