<svg width="1160" height="435" viewBox="0 0 1160 435" fill="none" xmlns="http://www.w3.org/2000/svg">
<rect width="1160" height="435" rx="3" fill="white"/>
<path d="M41.62 60V45.54H46.94C47.9933 45.54 48.9367 45.7233 49.77 46.09C50.6033 46.45 51.26 46.9833 51.74 47.69C52.2267 48.3967 52.47 49.26 52.47 50.28C52.47 51.24 52.2567 52.06 51.83 52.74C51.4033 53.42 50.8033 53.94 50.03 54.3C49.2633 54.66 48.36 54.84 47.32 54.84H44.56V60H41.62ZM44.53 52.58H47.24C47.9733 52.58 48.5733 52.3467 49.04 51.88C49.5067 51.4067 49.74 50.8233 49.74 50.13C49.74 49.41 49.4933 48.84 49 48.42C48.5067 47.9933 47.9067 47.78 47.2 47.78H44.53V52.58ZM57.5969 60.18C56.8369 60.18 56.2335 60.09 55.7869 59.91C55.3402 59.73 55.0102 59.4933 54.7969 59.2C54.5835 58.9 54.4469 58.57 54.3869 58.21C54.3269 57.8433 54.2969 57.4733 54.2969 57.1V45.14H57.1569V56.74C57.1569 57.12 57.2369 57.43 57.3969 57.67C57.5635 57.9033 57.8735 58.0467 58.3269 58.1L58.8169 58.13V59.93C58.6169 59.9967 58.4135 60.0533 58.2069 60.1C58.0002 60.1533 57.7969 60.18 57.5969 60.18ZM63.7031 60.2C63.0431 60.2 62.4498 60.0767 61.9231 59.83C61.3965 59.5833 60.9798 59.2267 60.6731 58.76C60.3665 58.2867 60.2131 57.7133 60.2131 57.04C60.2131 55.9067 60.6365 55.0467 61.4831 54.46C62.3298 53.8667 63.6665 53.56 65.4931 53.54L66.7831 53.52V52.9C66.7831 52.4267 66.6431 52.0633 66.3631 51.81C66.0898 51.55 65.6631 51.4233 65.0831 51.43C64.6565 51.4367 64.2498 51.5367 63.8631 51.73C63.4831 51.9233 63.2231 52.26 63.0831 52.74H60.6531C60.6931 51.9933 60.9098 51.38 61.3031 50.9C61.6965 50.4133 62.2298 50.0533 62.9031 49.82C63.5831 49.58 64.3531 49.46 65.2131 49.46C66.2731 49.46 67.1231 49.5933 67.7631 49.86C68.4031 50.12 68.8665 50.4967 69.1531 50.99C69.4398 51.4767 69.5831 52.0567 69.5831 52.73V60H67.1431L66.9031 58.22C66.5498 58.9667 66.1065 59.4833 65.5731 59.77C65.0465 60.0567 64.4231 60.2 63.7031 60.2ZM64.6831 58.28C64.9498 58.28 65.2065 58.2333 65.4531 58.14C65.7065 58.04 65.9298 57.91 66.1231 57.75C66.3231 57.5833 66.4831 57.3967 66.6031 57.19C66.7231 56.9833 66.7831 56.77 66.7831 56.55V55.02L65.7331 55.04C65.2465 55.0467 64.7931 55.1067 64.3731 55.22C63.9531 55.3267 63.6131 55.5033 63.3531 55.75C63.0998 55.9967 62.9731 56.33 62.9731 56.75C62.9731 57.23 63.1398 57.6067 63.4731 57.88C63.8065 58.1467 64.2098 58.28 64.6831 58.28ZM76.598 49.46C77.4646 49.46 78.2113 49.6367 78.838 49.99C79.4713 50.3433 79.968 50.82 80.328 51.42C80.6946 52.02 80.9046 52.69 80.958 53.43H78.528C78.4813 53.1567 78.3846 52.8867 78.238 52.62C78.0913 52.3467 77.8846 52.1233 77.618 51.95C77.3513 51.77 77.018 51.68 76.618 51.68C75.938 51.68 75.3846 51.9433 74.958 52.47C74.538 52.99 74.328 53.7833 74.328 54.85C74.328 55.8567 74.5346 56.6567 74.948 57.25C75.3613 57.8367 75.938 58.13 76.678 58.13C77.0713 58.13 77.398 58.0333 77.658 57.84C77.9246 57.6467 78.1313 57.4167 78.278 57.15C78.4246 56.8767 78.518 56.6233 78.558 56.39H80.928C80.8813 57.1033 80.6746 57.75 80.308 58.33C79.9413 58.9033 79.4413 59.36 78.808 59.7C78.1813 60.0333 77.4446 60.2 76.598 60.2C75.638 60.2 74.7813 59.9867 74.028 59.56C73.2746 59.1333 72.6813 58.5233 72.248 57.73C71.8213 56.93 71.608 55.9767 71.608 54.87C71.608 53.8033 71.8146 52.8633 72.228 52.05C72.6413 51.2367 73.2213 50.6033 73.968 50.15C74.7213 49.69 75.598 49.46 76.598 49.46ZM85.3688 55.5C85.3621 56.0267 85.4454 56.4867 85.6188 56.88C85.7921 57.2667 86.0421 57.5667 86.3688 57.78C86.7021 57.9867 87.1021 58.09 87.5688 58.09C88.0688 58.09 88.5054 57.9833 88.8788 57.77C89.2588 57.5567 89.5221 57.2067 89.6688 56.72H92.2988C92.1854 57.4533 91.8921 58.08 91.4188 58.6C90.9521 59.12 90.3854 59.5167 89.7188 59.79C89.0521 60.0633 88.3588 60.2 87.6388 60.2C86.6188 60.2 85.7188 59.9867 84.9388 59.56C84.1654 59.1267 83.5621 58.5167 83.1288 57.73C82.6954 56.9433 82.4788 56.0167 82.4788 54.95C82.4788 53.9167 82.6754 52.9867 83.0688 52.16C83.4621 51.3267 84.0321 50.67 84.7788 50.19C85.5321 49.7033 86.4354 49.46 87.4888 49.46C88.5421 49.46 89.4254 49.6833 90.1388 50.13C90.8588 50.57 91.3988 51.1867 91.7588 51.98C92.1254 52.7667 92.3088 53.6767 92.3088 54.71V55.5H85.3688ZM85.3588 53.76H89.5788C89.5788 53.3467 89.5021 52.9667 89.3488 52.62C89.1954 52.2733 88.9621 52 88.6488 51.8C88.3421 51.6 87.9554 51.5 87.4888 51.5C87.0354 51.5 86.6488 51.61 86.3288 51.83C86.0154 52.0433 85.7754 52.3233 85.6088 52.67C85.4421 53.0167 85.3588 53.38 85.3588 53.76ZM102.838 60.2C101.825 60.2 100.942 59.9833 100.188 59.55C99.4418 59.1167 98.8618 58.5033 98.4484 57.71C98.0418 56.9167 97.8384 55.9767 97.8384 54.89C97.8384 53.8033 98.0418 52.8533 98.4484 52.04C98.8618 51.2267 99.4418 50.5933 100.188 50.14C100.942 49.6867 101.828 49.46 102.848 49.46C103.868 49.46 104.752 49.6833 105.498 50.13C106.245 50.57 106.822 51.1967 107.228 52.01C107.635 52.8233 107.838 53.7833 107.838 54.89C107.838 55.93 107.638 56.85 107.238 57.65C106.845 58.4433 106.275 59.0667 105.528 59.52C104.788 59.9733 103.892 60.2 102.838 60.2ZM102.848 58.03C103.362 58.03 103.775 57.88 104.088 57.58C104.402 57.28 104.628 56.8867 104.768 56.4C104.915 55.9067 104.988 55.37 104.988 54.79C104.988 54.2433 104.922 53.7267 104.788 53.24C104.662 52.7533 104.442 52.36 104.128 52.06C103.815 51.76 103.388 51.61 102.848 51.61C102.335 51.61 101.918 51.7533 101.598 52.04C101.285 52.32 101.055 52.7033 100.908 53.19C100.762 53.67 100.688 54.2033 100.688 54.79C100.688 55.33 100.755 55.85 100.888 56.35C101.022 56.8433 101.245 57.2467 101.558 57.56C101.872 57.8733 102.302 58.03 102.848 58.03ZM115.802 49.66V51.69H113.622V60H110.702V51.69H108.792V49.66H110.702V48.17C110.702 47.3367 110.946 46.69 111.432 46.23C111.926 45.77 112.622 45.54 113.522 45.54H115.892L115.902 47.48H114.542C114.169 47.48 113.912 47.5733 113.772 47.76C113.639 47.94 113.572 48.24 113.572 48.66V49.66H115.802ZM121.758 60V49.66H124.568V52.11C124.734 51.5833 124.968 51.1233 125.268 50.73C125.574 50.33 125.944 50.02 126.378 49.8C126.811 49.5733 127.301 49.46 127.848 49.46C127.941 49.46 128.028 49.4667 128.108 49.48C128.194 49.4867 128.258 49.5 128.298 49.52V52.3C128.238 52.2733 128.164 52.2567 128.078 52.25C127.998 52.2433 127.924 52.2367 127.858 52.23C127.284 52.1833 126.794 52.2 126.388 52.28C125.981 52.36 125.651 52.4967 125.398 52.69C125.144 52.8833 124.961 53.12 124.848 53.4C124.734 53.68 124.678 53.9933 124.678 54.34V60H121.758ZM132.244 55.5C132.237 56.0267 132.32 56.4867 132.494 56.88C132.667 57.2667 132.917 57.5667 133.244 57.78C133.577 57.9867 133.977 58.09 134.444 58.09C134.944 58.09 135.38 57.9833 135.754 57.77C136.134 57.5567 136.397 57.2067 136.544 56.72H139.174C139.06 57.4533 138.767 58.08 138.294 58.6C137.827 59.12 137.26 59.5167 136.594 59.79C135.927 60.0633 135.234 60.2 134.514 60.2C133.494 60.2 132.594 59.9867 131.814 59.56C131.04 59.1267 130.437 58.5167 130.004 57.73C129.57 56.9433 129.354 56.0167 129.354 54.95C129.354 53.9167 129.55 52.9867 129.944 52.16C130.337 51.3267 130.907 50.67 131.654 50.19C132.407 49.7033 133.31 49.46 134.364 49.46C135.417 49.46 136.3 49.6833 137.014 50.13C137.734 50.57 138.274 51.1867 138.634 51.98C139 52.7667 139.184 53.6767 139.184 54.71V55.5H132.244ZM132.234 53.76H136.454C136.454 53.3467 136.377 52.9667 136.224 52.62C136.07 52.2733 135.837 52 135.524 51.8C135.217 51.6 134.83 51.5 134.364 51.5C133.91 51.5 133.524 51.61 133.204 51.83C132.89 52.0433 132.65 52.3233 132.484 52.67C132.317 53.0167 132.234 53.38 132.234 53.76ZM145.281 60.2C144.561 60.2 143.868 60.0833 143.201 59.85C142.535 59.61 141.971 59.2367 141.511 58.73C141.051 58.2167 140.758 57.5533 140.631 56.74H143.161C143.248 57.1067 143.405 57.3967 143.631 57.61C143.865 57.8233 144.128 57.9767 144.421 58.07C144.715 58.1567 144.995 58.2 145.261 58.2C145.821 58.2 146.271 58.1133 146.611 57.94C146.958 57.76 147.131 57.4867 147.131 57.12C147.131 56.84 147.028 56.6167 146.821 56.45C146.621 56.2833 146.288 56.1567 145.821 56.07L144.001 55.69C143.088 55.4967 142.355 55.17 141.801 54.71C141.248 54.2433 140.965 53.5833 140.951 52.73C140.951 52.11 141.115 51.5533 141.441 51.06C141.775 50.5667 142.265 50.1767 142.911 49.89C143.558 49.6033 144.351 49.46 145.291 49.46C146.565 49.46 147.581 49.74 148.341 50.3C149.108 50.86 149.498 51.65 149.511 52.67H147.071C146.998 52.27 146.798 51.9633 146.471 51.75C146.151 51.53 145.748 51.42 145.261 51.42C144.755 51.42 144.338 51.51 144.011 51.69C143.685 51.87 143.521 52.1433 143.521 52.51C143.521 52.7833 143.655 53 143.921 53.16C144.188 53.3133 144.601 53.4467 145.161 53.56L146.841 53.94C147.421 54.08 147.891 54.2733 148.251 54.52C148.618 54.76 148.901 55.0233 149.101 55.31C149.301 55.5967 149.438 55.8867 149.511 56.18C149.591 56.4667 149.631 56.7267 149.631 56.96C149.631 57.6467 149.448 58.2333 149.081 58.72C148.715 59.2 148.205 59.5667 147.551 59.82C146.898 60.0733 146.141 60.2 145.281 60.2ZM154.62 49.66V60H151.83V49.66H154.62ZM154.65 45.55V48.18H151.81V45.55H154.65ZM161.106 60.2C159.719 60.2 158.639 59.7233 157.866 58.77C157.092 57.81 156.706 56.4767 156.706 54.77C156.706 53.69 156.862 52.7533 157.176 51.96C157.489 51.1667 157.952 50.5533 158.566 50.12C159.179 49.68 159.929 49.46 160.816 49.46C161.189 49.46 161.536 49.5033 161.856 49.59C162.182 49.67 162.479 49.7833 162.746 49.93C163.012 50.0767 163.246 50.2467 163.446 50.44C163.646 50.6333 163.809 50.84 163.936 51.06V45.14H166.866V60H164.746L164.416 57.88C164.322 58.1667 164.192 58.4467 164.026 58.72C163.859 58.9933 163.646 59.2433 163.386 59.47C163.126 59.69 162.806 59.8667 162.426 60C162.052 60.1333 161.612 60.2 161.106 60.2ZM161.746 58.1C162.479 58.1 163.026 57.8433 163.386 57.33C163.752 56.8167 163.936 55.95 163.936 54.73C163.929 54.0233 163.846 53.4367 163.686 52.97C163.526 52.5033 163.286 52.1567 162.966 51.93C162.652 51.6967 162.252 51.58 161.766 51.58C161.132 51.58 160.606 51.8233 160.186 52.31C159.766 52.79 159.556 53.5967 159.556 54.73C159.556 55.8833 159.752 56.7333 160.146 57.28C160.539 57.8267 161.072 58.1 161.746 58.1ZM171.775 55.5C171.768 56.0267 171.852 56.4867 172.025 56.88C172.198 57.2667 172.448 57.5667 172.775 57.78C173.108 57.9867 173.508 58.09 173.975 58.09C174.475 58.09 174.912 57.9833 175.285 57.77C175.665 57.5567 175.928 57.2067 176.075 56.72H178.705C178.592 57.4533 178.298 58.08 177.825 58.6C177.358 59.12 176.792 59.5167 176.125 59.79C175.458 60.0633 174.765 60.2 174.045 60.2C173.025 60.2 172.125 59.9867 171.345 59.56C170.572 59.1267 169.968 58.5167 169.535 57.73C169.102 56.9433 168.885 56.0167 168.885 54.95C168.885 53.9167 169.082 52.9867 169.475 52.16C169.868 51.3267 170.438 50.67 171.185 50.19C171.938 49.7033 172.842 49.46 173.895 49.46C174.948 49.46 175.832 49.6833 176.545 50.13C177.265 50.57 177.805 51.1867 178.165 51.98C178.532 52.7667 178.715 53.6767 178.715 54.71V55.5H171.775ZM171.765 53.76H175.985C175.985 53.3467 175.908 52.9667 175.755 52.62C175.602 52.2733 175.368 52 175.055 51.8C174.748 51.6 174.362 51.5 173.895 51.5C173.442 51.5 173.055 51.61 172.735 51.83C172.422 52.0433 172.182 52.3233 172.015 52.67C171.848 53.0167 171.765 53.38 171.765 53.76ZM180.742 60V49.66H183.612V51.12C183.772 50.8667 183.979 50.6233 184.232 50.39C184.492 50.15 184.819 49.9533 185.212 49.8C185.606 49.6467 186.072 49.57 186.612 49.57C187.246 49.57 187.836 49.6933 188.382 49.94C188.936 50.1867 189.382 50.5767 189.722 51.11C190.062 51.6367 190.232 52.3267 190.232 53.18V60H187.312V53.54C187.312 52.98 187.146 52.56 186.812 52.28C186.479 52 186.072 51.86 185.592 51.86C185.272 51.86 184.962 51.9167 184.662 52.03C184.369 52.1433 184.129 52.3133 183.942 52.54C183.756 52.7667 183.662 53.0467 183.662 53.38V60H180.742ZM197.028 49.46C197.894 49.46 198.641 49.6367 199.268 49.99C199.901 50.3433 200.398 50.82 200.758 51.42C201.124 52.02 201.334 52.69 201.388 53.43H198.958C198.911 53.1567 198.814 52.8867 198.668 52.62C198.521 52.3467 198.314 52.1233 198.048 51.95C197.781 51.77 197.448 51.68 197.048 51.68C196.368 51.68 195.814 51.9433 195.388 52.47C194.968 52.99 194.758 53.7833 194.758 54.85C194.758 55.8567 194.964 56.6567 195.378 57.25C195.791 57.8367 196.368 58.13 197.108 58.13C197.501 58.13 197.828 58.0333 198.088 57.84C198.354 57.6467 198.561 57.4167 198.708 57.15C198.854 56.8767 198.948 56.6233 198.988 56.39H201.358C201.311 57.1033 201.104 57.75 200.738 58.33C200.371 58.9033 199.871 59.36 199.238 59.7C198.611 60.0333 197.874 60.2 197.028 60.2C196.068 60.2 195.211 59.9867 194.458 59.56C193.704 59.1333 193.111 58.5233 192.678 57.73C192.251 56.93 192.038 55.9767 192.038 54.87C192.038 53.8033 192.244 52.8633 192.658 52.05C193.071 51.2367 193.651 50.6033 194.398 50.15C195.151 49.69 196.028 49.46 197.028 49.46ZM205.798 55.5C205.792 56.0267 205.875 56.4867 206.048 56.88C206.222 57.2667 206.472 57.5667 206.798 57.78C207.132 57.9867 207.532 58.09 207.998 58.09C208.498 58.09 208.935 57.9833 209.308 57.77C209.688 57.5567 209.952 57.2067 210.098 56.72H212.728C212.615 57.4533 212.322 58.08 211.848 58.6C211.382 59.12 210.815 59.5167 210.148 59.79C209.482 60.0633 208.788 60.2 208.068 60.2C207.048 60.2 206.148 59.9867 205.368 59.56C204.595 59.1267 203.992 58.5167 203.558 57.73C203.125 56.9433 202.908 56.0167 202.908 54.95C202.908 53.9167 203.105 52.9867 203.498 52.16C203.892 51.3267 204.462 50.67 205.208 50.19C205.962 49.7033 206.865 49.46 207.918 49.46C208.972 49.46 209.855 49.6833 210.568 50.13C211.288 50.57 211.828 51.1867 212.188 51.98C212.555 52.7667 212.738 53.6767 212.738 54.71V55.5H205.798ZM205.788 53.76H210.008C210.008 53.3467 209.932 52.9667 209.778 52.62C209.625 52.2733 209.392 52 209.078 51.8C208.772 51.6 208.385 51.5 207.918 51.5C207.465 51.5 207.078 51.61 206.758 51.83C206.445 52.0433 206.205 52.3233 206.038 52.67C205.872 53.0167 205.788 53.38 205.788 53.76Z" fill="#596B7A"/>
<path d="M1010 51H1006V45H1000V51H996L1003 58L1010 51ZM996 60H1010V62H996V60Z" fill="#596B7A"/>
<path d="M1037 35C1037 33.3431 1038.34 32 1040 32H1079V74H1040C1038.34 74 1037 72.6569 1037 71V35Z" fill="#596B7A"/>
<path d="M1059.73 50.4667H1056.53C1056.09 50.4667 1055.73 50.8251 1055.73 51.2667V60.8667C1055.73 61.3083 1056.09 61.6667 1056.53 61.6667H1059.73C1060.17 61.6667 1060.53 61.3083 1060.53 60.8667V51.2667C1060.53 50.8251 1060.17 50.4667 1059.73 50.4667ZM1053.33 55.2667H1050.13C1049.69 55.2667 1049.33 55.6251 1049.33 56.0667V60.8667C1049.33 61.3083 1049.69 61.6667 1050.13 61.6667H1053.33C1053.77 61.6667 1054.13 61.3083 1054.13 60.8667V56.0667C1054.13 55.6251 1053.77 55.2667 1053.33 55.2667ZM1066.13 45.6667H1062.93C1062.49 45.6667 1062.13 46.0251 1062.13 46.4667V60.8667C1062.13 61.3083 1062.49 61.6667 1062.93 61.6667H1066.13C1066.57 61.6667 1066.93 61.3083 1066.93 60.8667V46.4667C1066.93 46.0251 1066.57 45.6667 1066.13 45.6667Z" fill="white"/>
<path d="M1079 32H1080V31H1079V32ZM1079 74V75H1080V74H1079ZM1040 33H1079V31H1040V33ZM1078 32V74H1080V32H1078ZM1079 73H1040V75H1079V73ZM1038 71V35H1036V71H1038ZM1040 73C1038.9 73 1038 72.1046 1038 71H1036C1036 73.2091 1037.79 75 1040 75V73ZM1040 31C1037.79 31 1036 32.7909 1036 35H1038C1038 33.8954 1038.9 33 1040 33V31Z" fill="#596B7A"/>
<path d="M1078 32H1117C1118.66 32 1120 33.3431 1120 35V71C1120 72.6569 1118.66 74 1117 74H1078V32Z" fill="white"/>
<path d="M1090.5 55H1094.5V51H1090.5V55ZM1090.5 60H1094.5V56H1090.5V60ZM1090.5 50H1094.5V46H1090.5V50ZM1095.5 55H1107.5V51H1095.5V55ZM1095.5 60H1107.5V56H1095.5V60ZM1095.5 46V50H1107.5V46H1095.5Z" fill="#596B7A"/>
<path d="M1078 32V31H1077V32H1078ZM1078 74H1077V75H1078V74ZM1078 33H1117V31H1078V33ZM1119 35V71H1121V35H1119ZM1117 73H1078V75H1117V73ZM1079 74V32H1077V74H1079ZM1119 71C1119 72.1046 1118.1 73 1117 73V75C1119.21 75 1121 73.2091 1121 71H1119ZM1117 33C1118.1 33 1119 33.8954 1119 35H1121C1121 32.7909 1119.21 31 1117 31V33Z" fill="#AAAAAA"/>
<path d="M136 276H187V323H136V276Z" fill="#596B7A"/>
<path d="M187 214H238V323H187V214Z" fill="#ABB7C1"/>
<path d="M187 329V323" stroke="#596B7A"/>
<rect x="162" y="337" width="50" height="11" rx="5.5" fill="#E0E0E0"/>
<path d="M302 203H353V323H302V203Z" fill="#596B7A"/>
<path d="M353 206H404V323H353V206Z" fill="#ABB7C1"/>
<path d="M353 329V323" stroke="#596B7A"/>
<rect x="328" y="337" width="50" height="11" rx="5.5" fill="#E0E0E0"/>
<path d="M468 119H519V323H468V119Z" fill="#596B7A"/>
<path d="M519 227H570V323H519V227Z" fill="#ABB7C1"/>
<path d="M519 329V323" stroke="#596B7A"/>
<rect x="494" y="337" width="50" height="11" rx="5.5" fill="#E0E0E0"/>
<path d="M634 198H685V323H634V198Z" fill="#596B7A"/>
<path d="M685 227H736V323H685V227Z" fill="#ABB7C1"/>
<path d="M685 329V323" stroke="#596B7A"/>
<rect x="660" y="337" width="50" height="11" rx="5.5" fill="#E0E0E0"/>
<path d="M800 208H851V323H800V208Z" fill="#596B7A"/>
<path d="M851 221H902V323H851V221Z" fill="#ABB7C1"/>
<path d="M851 329V323" stroke="#596B7A"/>
<rect x="826" y="337" width="50" height="11" rx="5.5" fill="#E0E0E0"/>
<path d="M966 276H1017V323H966V276Z" fill="#596B7A"/>
<path d="M1017 221H1068V323H1017V221Z" fill="#ABB7C1"/>
<path d="M1017 329V323" stroke="#596B7A"/>
<rect x="992" y="337" width="50" height="11" rx="5.5" fill="#E0E0E0"/>
<path d="M84 107L84 323" stroke="#596B7A"/>
<path d="M51.3319 111.878H52.6479V118.276H54.3279V119.417H52.6479V122H51.3809V119.417H46.6139V118.234L51.3319 111.878ZM47.8529 118.276H51.3529V113.579L47.8529 118.276ZM59.0586 111.738C60.1552 111.738 61.0279 112.179 61.6766 113.061C62.3299 113.938 62.6566 115.238 62.6566 116.96C62.6566 118.673 62.3322 119.968 61.6836 120.845C61.0349 121.718 60.1552 122.154 59.0446 122.154C57.9386 122.154 57.0612 121.72 56.4126 120.852C55.7639 119.979 55.4396 118.689 55.4396 116.981C55.4396 115.828 55.5889 114.862 55.8876 114.083C56.1862 113.304 56.6062 112.718 57.1476 112.326C57.6889 111.934 58.3259 111.738 59.0586 111.738ZM59.0586 121.034C59.7819 121.034 60.3279 120.717 60.6966 120.082C61.0699 119.443 61.2566 118.404 61.2566 116.967C61.2566 115.502 61.0676 114.447 60.6896 113.803C60.3162 113.154 59.7702 112.83 59.0516 112.83C58.3376 112.83 57.7869 113.157 57.3996 113.81C57.0169 114.459 56.8256 115.511 56.8256 116.967C56.8256 118.4 57.0169 119.436 57.3996 120.075C57.7822 120.714 58.3352 121.034 59.0586 121.034ZM66.4898 111.724C66.9425 111.724 67.3485 111.843 67.7078 112.081C68.0672 112.319 68.3495 112.655 68.5548 113.089C68.7602 113.523 68.8628 114.034 68.8628 114.622C68.8628 115.21 68.7602 115.719 68.5548 116.148C68.3542 116.577 68.0742 116.911 67.7148 117.149C67.3555 117.382 66.9472 117.499 66.4898 117.499C66.0278 117.499 65.6148 117.382 65.2508 117.149C64.8915 116.911 64.6068 116.577 64.3968 116.148C64.1868 115.719 64.0818 115.21 64.0818 114.622C64.0818 114.034 64.1868 113.523 64.3968 113.089C64.6068 112.655 64.8915 112.319 65.2508 112.081C65.6148 111.843 66.0278 111.724 66.4898 111.724ZM66.4758 116.778C66.9238 116.778 67.2668 116.58 67.5048 116.183C67.7475 115.786 67.8688 115.266 67.8688 114.622C67.8688 113.969 67.7475 113.444 67.5048 113.047C67.2622 112.646 66.9192 112.445 66.4758 112.445C66.1772 112.445 65.9228 112.538 65.7128 112.725C65.5075 112.907 65.3488 113.161 65.2368 113.488C65.1295 113.815 65.0758 114.193 65.0758 114.622C65.0758 115.261 65.1972 115.782 65.4398 116.183C65.6825 116.58 66.0278 116.778 66.4758 116.778ZM72.8248 116.351C73.2822 116.351 73.6905 116.472 74.0498 116.715C74.4092 116.953 74.6915 117.289 74.8968 117.723C75.1022 118.157 75.2048 118.666 75.2048 119.249C75.2048 119.837 75.1022 120.348 74.8968 120.782C74.6962 121.216 74.4162 121.552 74.0568 121.79C73.6975 122.023 73.2868 122.14 72.8248 122.14C72.3628 122.14 71.9498 122.023 71.5858 121.79C71.2218 121.552 70.9372 121.216 70.7318 120.782C70.5265 120.348 70.4238 119.837 70.4238 119.249C70.4238 118.666 70.5265 118.157 70.7318 117.723C70.9418 117.289 71.2288 116.953 71.5928 116.715C71.9568 116.472 72.3675 116.351 72.8248 116.351ZM72.8108 121.405C73.1002 121.405 73.3498 121.314 73.5598 121.132C73.7698 120.945 73.9308 120.691 74.0428 120.369C74.1548 120.047 74.2108 119.678 74.2108 119.263C74.2108 118.838 74.1525 118.463 74.0358 118.136C73.9238 117.805 73.7628 117.546 73.5528 117.359C73.3428 117.172 73.0955 117.079 72.8108 117.079C72.5262 117.079 72.2788 117.175 72.0688 117.366C71.8588 117.553 71.6978 117.812 71.5858 118.143C71.4738 118.47 71.4178 118.843 71.4178 119.263C71.4178 119.678 71.4738 120.047 71.5858 120.369C71.6978 120.691 71.8565 120.945 72.0618 121.132C72.2718 121.314 72.5215 121.405 72.8108 121.405ZM73.4058 111.766L66.6018 122.056L65.7268 122.049L72.5588 111.766H73.4058Z" fill="#596B7A"/>
<path d="M78 116.5H84" stroke="#596B7A"/>
<path d="M46.9866 156.025C46.9866 155.372 47.1453 154.816 47.4626 154.359C47.78 153.897 48.2023 153.545 48.7296 153.302C49.2616 153.059 49.8473 152.938 50.4866 152.938C51.1866 152.938 51.805 153.041 52.3416 153.246C52.8783 153.447 53.2983 153.741 53.6016 154.128C53.905 154.515 54.0566 154.989 54.0566 155.549C54.0566 156.048 53.898 156.501 53.5806 156.907C53.2633 157.308 52.778 157.623 52.1246 157.852C52.568 157.973 52.9553 158.151 53.2866 158.384C53.618 158.617 53.8746 158.904 54.0566 159.245C54.2386 159.581 54.3296 159.968 54.3296 160.407C54.3296 160.869 54.2316 161.284 54.0356 161.653C53.8443 162.017 53.5736 162.327 53.2236 162.584C52.8736 162.836 52.4606 163.03 51.9846 163.165C51.5086 163.296 50.9906 163.359 50.4306 163.354C49.7353 163.349 49.1216 163.221 48.5896 162.969C48.0623 162.717 47.647 162.365 47.3436 161.912C47.0403 161.455 46.877 160.913 46.8536 160.288H48.1486C48.2466 160.918 48.5033 161.401 48.9186 161.737C49.334 162.073 49.8543 162.241 50.4796 162.241C50.9743 162.241 51.406 162.164 51.7746 162.01C52.1433 161.851 52.428 161.634 52.6286 161.359C52.8293 161.084 52.9296 160.762 52.9296 160.393C52.9296 159.987 52.8176 159.644 52.5936 159.364C52.3696 159.084 52.064 158.872 51.6766 158.727C51.2893 158.578 50.8576 158.501 50.3816 158.496L49.4716 158.475V157.376L50.3396 157.355C50.783 157.346 51.1796 157.262 51.5296 157.103C51.8796 156.94 52.155 156.727 52.3556 156.466C52.561 156.2 52.6636 155.908 52.6636 155.591C52.6636 155.311 52.5773 155.052 52.4046 154.814C52.232 154.571 51.9823 154.378 51.6556 154.233C51.3336 154.088 50.9416 154.016 50.4796 154.016C50.1156 154.016 49.768 154.088 49.4366 154.233C49.1053 154.373 48.8323 154.59 48.6176 154.884C48.403 155.178 48.2886 155.558 48.2746 156.025H46.9866ZM55.868 163.2V162.409V161.996C55.868 161.478 55.9637 161.03 56.155 160.652C56.351 160.274 56.6077 159.945 56.925 159.665C57.247 159.38 57.597 159.126 57.975 158.902C58.3577 158.678 58.738 158.463 59.116 158.258C59.4987 158.048 59.8487 157.831 60.166 157.607C60.4833 157.378 60.7377 157.122 60.929 156.837C61.125 156.548 61.223 156.207 61.223 155.815C61.223 155.302 61.041 154.884 60.677 154.562C60.3177 154.24 59.83 154.079 59.214 154.079C58.5513 154.079 58.0193 154.266 57.618 154.639C57.2167 155.012 56.9903 155.509 56.939 156.13H55.651C55.665 155.547 55.8097 155.015 56.085 154.534C56.3603 154.049 56.764 153.661 57.296 153.372C57.828 153.083 58.4837 152.938 59.263 152.938C59.9397 152.938 60.5277 153.059 61.027 153.302C61.5263 153.54 61.9113 153.876 62.182 154.31C62.4573 154.739 62.595 155.241 62.595 155.815C62.595 156.338 62.4993 156.786 62.308 157.159C62.1167 157.532 61.8623 157.857 61.545 158.132C61.2323 158.403 60.8893 158.645 60.516 158.86C60.1427 159.075 59.767 159.282 59.389 159.483C59.011 159.679 58.6657 159.887 58.353 160.106C58.0403 160.321 57.7883 160.568 57.597 160.848C57.4057 161.128 57.31 161.462 57.31 161.849V162.052H62.651V163.2H55.868ZM66.4898 152.924C66.9425 152.924 67.3485 153.043 67.7078 153.281C68.0672 153.519 68.3495 153.855 68.5548 154.289C68.7602 154.723 68.8628 155.234 68.8628 155.822C68.8628 156.41 68.7602 156.919 68.5548 157.348C68.3542 157.777 68.0742 158.111 67.7148 158.349C67.3555 158.582 66.9472 158.699 66.4898 158.699C66.0278 158.699 65.6148 158.582 65.2508 158.349C64.8915 158.111 64.6068 157.777 64.3968 157.348C64.1868 156.919 64.0818 156.41 64.0818 155.822C64.0818 155.234 64.1868 154.723 64.3968 154.289C64.6068 153.855 64.8915 153.519 65.2508 153.281C65.6148 153.043 66.0278 152.924 66.4898 152.924ZM66.4758 157.978C66.9238 157.978 67.2668 157.78 67.5048 157.383C67.7475 156.986 67.8688 156.466 67.8688 155.822C67.8688 155.169 67.7475 154.644 67.5048 154.247C67.2622 153.846 66.9192 153.645 66.4758 153.645C66.1772 153.645 65.9228 153.738 65.7128 153.925C65.5075 154.107 65.3488 154.361 65.2368 154.688C65.1295 155.015 65.0758 155.393 65.0758 155.822C65.0758 156.461 65.1972 156.982 65.4398 157.383C65.6825 157.78 66.0278 157.978 66.4758 157.978ZM72.8248 157.551C73.2822 157.551 73.6905 157.672 74.0498 157.915C74.4092 158.153 74.6915 158.489 74.8968 158.923C75.1022 159.357 75.2048 159.866 75.2048 160.449C75.2048 161.037 75.1022 161.548 74.8968 161.982C74.6962 162.416 74.4162 162.752 74.0568 162.99C73.6975 163.223 73.2868 163.34 72.8248 163.34C72.3628 163.34 71.9498 163.223 71.5858 162.99C71.2218 162.752 70.9372 162.416 70.7318 161.982C70.5265 161.548 70.4238 161.037 70.4238 160.449C70.4238 159.866 70.5265 159.357 70.7318 158.923C70.9418 158.489 71.2288 158.153 71.5928 157.915C71.9568 157.672 72.3675 157.551 72.8248 157.551ZM72.8108 162.605C73.1002 162.605 73.3498 162.514 73.5598 162.332C73.7698 162.145 73.9308 161.891 74.0428 161.569C74.1548 161.247 74.2108 160.878 74.2108 160.463C74.2108 160.038 74.1525 159.663 74.0358 159.336C73.9238 159.005 73.7628 158.746 73.5528 158.559C73.3428 158.372 73.0955 158.279 72.8108 158.279C72.5262 158.279 72.2788 158.375 72.0688 158.566C71.8588 158.753 71.6978 159.012 71.5858 159.343C71.4738 159.67 71.4178 160.043 71.4178 160.463C71.4178 160.878 71.4738 161.247 71.5858 161.569C71.6978 161.891 71.8565 162.145 72.0618 162.332C72.2718 162.514 72.5215 162.605 72.8108 162.605ZM73.4058 152.966L66.6018 163.256L65.7268 163.249L72.5588 152.966H73.4058Z" fill="#596B7A"/>
<path d="M78 158.2H84" stroke="#596B7A"/>
<path d="M47.0633 204.4V203.609V203.196C47.0633 202.678 47.159 202.23 47.3503 201.852C47.5463 201.474 47.803 201.145 48.1203 200.865C48.4423 200.58 48.7923 200.326 49.1703 200.102C49.553 199.878 49.9333 199.663 50.3113 199.458C50.694 199.248 51.044 199.031 51.3613 198.807C51.6786 198.578 51.933 198.322 52.1243 198.037C52.3203 197.748 52.4183 197.407 52.4183 197.015C52.4183 196.502 52.2363 196.084 51.8723 195.762C51.513 195.44 51.0253 195.279 50.4093 195.279C49.7466 195.279 49.2146 195.466 48.8133 195.839C48.412 196.212 48.1856 196.709 48.1343 197.33H46.8463C46.8603 196.747 47.005 196.215 47.2803 195.734C47.5556 195.249 47.9593 194.861 48.4913 194.572C49.0233 194.283 49.679 194.138 50.4583 194.138C51.135 194.138 51.723 194.259 52.2223 194.502C52.7216 194.74 53.1066 195.076 53.3773 195.51C53.6526 195.939 53.7903 196.441 53.7903 197.015C53.7903 197.538 53.6946 197.986 53.5033 198.359C53.312 198.732 53.0576 199.057 52.7403 199.332C52.4276 199.603 52.0846 199.845 51.7113 200.06C51.338 200.275 50.9623 200.482 50.5843 200.683C50.2063 200.879 49.861 201.087 49.5483 201.306C49.2356 201.521 48.9836 201.768 48.7923 202.048C48.601 202.328 48.5053 202.662 48.5053 203.049V203.252H53.8463V204.4H47.0633ZM59.9042 194.278H61.2202V200.676H62.9002V201.817H61.2202V204.4H59.9532V201.817H55.1862V200.634L59.9042 194.278ZM56.4252 200.676H59.9252V195.979L56.4252 200.676ZM66.4898 194.124C66.9425 194.124 67.3485 194.243 67.7078 194.481C68.0672 194.719 68.3495 195.055 68.5548 195.489C68.7602 195.923 68.8628 196.434 68.8628 197.022C68.8628 197.61 68.7602 198.119 68.5548 198.548C68.3542 198.977 68.0742 199.311 67.7148 199.549C67.3555 199.782 66.9472 199.899 66.4898 199.899C66.0278 199.899 65.6148 199.782 65.2508 199.549C64.8915 199.311 64.6068 198.977 64.3968 198.548C64.1868 198.119 64.0818 197.61 64.0818 197.022C64.0818 196.434 64.1868 195.923 64.3968 195.489C64.6068 195.055 64.8915 194.719 65.2508 194.481C65.6148 194.243 66.0278 194.124 66.4898 194.124ZM66.4758 199.178C66.9238 199.178 67.2668 198.98 67.5048 198.583C67.7475 198.186 67.8688 197.666 67.8688 197.022C67.8688 196.369 67.7475 195.844 67.5048 195.447C67.2622 195.046 66.9192 194.845 66.4758 194.845C66.1772 194.845 65.9228 194.938 65.7128 195.125C65.5075 195.307 65.3488 195.561 65.2368 195.888C65.1295 196.215 65.0758 196.593 65.0758 197.022C65.0758 197.661 65.1972 198.182 65.4398 198.583C65.6825 198.98 66.0278 199.178 66.4758 199.178ZM72.8248 198.751C73.2822 198.751 73.6905 198.872 74.0498 199.115C74.4092 199.353 74.6915 199.689 74.8968 200.123C75.1022 200.557 75.2048 201.066 75.2048 201.649C75.2048 202.237 75.1022 202.748 74.8968 203.182C74.6962 203.616 74.4162 203.952 74.0568 204.19C73.6975 204.423 73.2868 204.54 72.8248 204.54C72.3628 204.54 71.9498 204.423 71.5858 204.19C71.2218 203.952 70.9372 203.616 70.7318 203.182C70.5265 202.748 70.4238 202.237 70.4238 201.649C70.4238 201.066 70.5265 200.557 70.7318 200.123C70.9418 199.689 71.2288 199.353 71.5928 199.115C71.9568 198.872 72.3675 198.751 72.8248 198.751ZM72.8108 203.805C73.1002 203.805 73.3498 203.714 73.5598 203.532C73.7698 203.345 73.9308 203.091 74.0428 202.769C74.1548 202.447 74.2108 202.078 74.2108 201.663C74.2108 201.238 74.1525 200.863 74.0358 200.536C73.9238 200.205 73.7628 199.946 73.5528 199.759C73.3428 199.572 73.0955 199.479 72.8108 199.479C72.5262 199.479 72.2788 199.575 72.0688 199.766C71.8588 199.953 71.6978 200.212 71.5858 200.543C71.4738 200.87 71.4178 201.243 71.4178 201.663C71.4178 202.078 71.4738 202.447 71.5858 202.769C71.6978 203.091 71.8565 203.345 72.0618 203.532C72.2718 203.714 72.5215 203.805 72.8108 203.805ZM73.4058 194.166L66.6018 204.456L65.7268 204.449L72.5588 194.166H73.4058Z" fill="#596B7A"/>
<path d="M78 199.4H84" stroke="#596B7A"/>
<path d="M51.5337 245.6V237.543H49.5807V236.696C50.1874 236.696 50.6587 236.652 50.9947 236.563C51.3307 236.474 51.5687 236.339 51.7087 236.157C51.8534 235.975 51.9327 235.749 51.9467 235.478H52.8707V245.6H51.5337ZM59.2649 235.338C59.8249 235.338 60.3405 235.443 60.8119 235.653C61.2879 235.863 61.6822 236.164 61.9949 236.556C62.3075 236.948 62.5012 237.422 62.5759 237.977H61.3579C61.2225 237.496 60.9775 237.116 60.6229 236.836C60.2682 236.556 59.8225 236.416 59.2859 236.416C58.6885 236.416 58.1892 236.586 57.7879 236.927C57.3912 237.263 57.1019 237.758 56.9199 238.411C56.7379 239.06 56.6749 239.858 56.7309 240.805C56.8569 240.464 57.0482 240.166 57.3049 239.909C57.5662 239.648 57.8695 239.447 58.2149 239.307C58.5602 239.162 58.9335 239.09 59.3349 239.09C60.0022 239.09 60.5855 239.221 61.0849 239.482C61.5842 239.739 61.9739 240.107 62.2539 240.588C62.5339 241.064 62.6739 241.633 62.6739 242.296C62.6739 242.973 62.5292 243.572 62.2399 244.095C61.9552 244.613 61.5492 245.019 61.0219 245.313C60.4945 245.607 59.8715 245.754 59.1529 245.754C58.3689 245.754 57.6875 245.551 57.1089 245.145C56.5349 244.739 56.0892 244.16 55.7719 243.409C55.4592 242.653 55.3029 241.748 55.3029 240.693C55.3029 239.61 55.4545 238.668 55.7579 237.865C56.0659 237.062 56.5139 236.442 57.1019 236.003C57.6899 235.56 58.4109 235.338 59.2649 235.338ZM59.1249 240.14C58.7562 240.14 58.4015 240.229 58.0609 240.406C57.7249 240.579 57.4495 240.807 57.2349 241.092C57.0249 241.377 56.9199 241.692 56.9199 242.037C56.9152 242.55 57.0039 243.008 57.1859 243.409C57.3725 243.806 57.6339 244.118 57.9699 244.347C58.3059 244.571 58.6955 244.683 59.1389 244.683C59.5542 244.683 59.9229 244.585 60.2449 244.389C60.5669 244.193 60.8189 243.92 61.0009 243.57C61.1875 243.22 61.2809 242.816 61.2809 242.359C61.2809 241.897 61.1969 241.5 61.0289 241.169C60.8655 240.838 60.6229 240.583 60.3009 240.406C59.9789 240.229 59.5869 240.14 59.1249 240.14ZM66.4898 235.324C66.9425 235.324 67.3485 235.443 67.7078 235.681C68.0672 235.919 68.3495 236.255 68.5548 236.689C68.7602 237.123 68.8628 237.634 68.8628 238.222C68.8628 238.81 68.7602 239.319 68.5548 239.748C68.3542 240.177 68.0742 240.511 67.7148 240.749C67.3555 240.982 66.9472 241.099 66.4898 241.099C66.0278 241.099 65.6148 240.982 65.2508 240.749C64.8915 240.511 64.6068 240.177 64.3968 239.748C64.1868 239.319 64.0818 238.81 64.0818 238.222C64.0818 237.634 64.1868 237.123 64.3968 236.689C64.6068 236.255 64.8915 235.919 65.2508 235.681C65.6148 235.443 66.0278 235.324 66.4898 235.324ZM66.4758 240.378C66.9238 240.378 67.2668 240.18 67.5048 239.783C67.7475 239.386 67.8688 238.866 67.8688 238.222C67.8688 237.569 67.7475 237.044 67.5048 236.647C67.2622 236.246 66.9192 236.045 66.4758 236.045C66.1772 236.045 65.9228 236.138 65.7128 236.325C65.5075 236.507 65.3488 236.761 65.2368 237.088C65.1295 237.415 65.0758 237.793 65.0758 238.222C65.0758 238.861 65.1972 239.382 65.4398 239.783C65.6825 240.18 66.0278 240.378 66.4758 240.378ZM72.8248 239.951C73.2822 239.951 73.6905 240.072 74.0498 240.315C74.4092 240.553 74.6915 240.889 74.8968 241.323C75.1022 241.757 75.2048 242.266 75.2048 242.849C75.2048 243.437 75.1022 243.948 74.8968 244.382C74.6962 244.816 74.4162 245.152 74.0568 245.39C73.6975 245.623 73.2868 245.74 72.8248 245.74C72.3628 245.74 71.9498 245.623 71.5858 245.39C71.2218 245.152 70.9372 244.816 70.7318 244.382C70.5265 243.948 70.4238 243.437 70.4238 242.849C70.4238 242.266 70.5265 241.757 70.7318 241.323C70.9418 240.889 71.2288 240.553 71.5928 240.315C71.9568 240.072 72.3675 239.951 72.8248 239.951ZM72.8108 245.005C73.1002 245.005 73.3498 244.914 73.5598 244.732C73.7698 244.545 73.9308 244.291 74.0428 243.969C74.1548 243.647 74.2108 243.278 74.2108 242.863C74.2108 242.438 74.1525 242.063 74.0358 241.736C73.9238 241.405 73.7628 241.146 73.5528 240.959C73.3428 240.772 73.0955 240.679 72.8108 240.679C72.5262 240.679 72.2788 240.775 72.0688 240.966C71.8588 241.153 71.6978 241.412 71.5858 241.743C71.4738 242.07 71.4178 242.443 71.4178 242.863C71.4178 243.278 71.4738 243.647 71.5858 243.969C71.6978 244.291 71.8565 244.545 72.0618 244.732C72.2718 244.914 72.5215 245.005 72.8108 245.005ZM73.4058 235.366L66.6018 245.656L65.7268 245.649L72.5588 235.366H73.4058Z" fill="#596B7A"/>
<path d="M78 240.6H84" stroke="#596B7A"/>
<path d="M58.8044 276.538C59.4531 276.538 60.0341 276.645 60.5474 276.86C61.0607 277.075 61.4667 277.387 61.7654 277.798C62.0641 278.209 62.2134 278.708 62.2134 279.296C62.2134 279.847 62.0641 280.309 61.7654 280.682C61.4714 281.055 61.0911 281.34 60.6244 281.536C60.9651 281.601 61.2894 281.76 61.5974 282.012C61.9101 282.264 62.1667 282.57 62.3674 282.929C62.5681 283.288 62.6684 283.664 62.6684 284.056C62.6684 284.639 62.5074 285.148 62.1854 285.582C61.8681 286.016 61.4201 286.354 60.8414 286.597C60.2627 286.835 59.5837 286.954 58.8044 286.954C58.0297 286.954 57.3531 286.835 56.7744 286.597C56.1957 286.354 55.7454 286.016 55.4234 285.582C55.1061 285.148 54.9474 284.639 54.9474 284.056C54.9474 283.664 55.0454 283.288 55.2414 282.929C55.4421 282.57 55.6987 282.264 56.0114 282.012C56.3241 281.76 56.6507 281.601 56.9914 281.536C56.5294 281.34 56.1467 281.055 55.8434 280.682C55.5447 280.309 55.3954 279.847 55.3954 279.296C55.3954 278.708 55.5447 278.209 55.8434 277.798C56.1421 277.387 56.5481 277.075 57.0614 276.86C57.5794 276.645 58.1604 276.538 58.8044 276.538ZM58.8044 280.99C59.4204 280.99 59.9197 280.838 60.3024 280.535C60.6897 280.232 60.8834 279.809 60.8834 279.268C60.8834 278.722 60.6897 278.293 60.3024 277.98C59.9151 277.663 59.4157 277.504 58.8044 277.504C58.1931 277.504 57.6937 277.663 57.3064 277.98C56.9191 278.297 56.7254 278.727 56.7254 279.268C56.7254 279.809 56.9191 280.232 57.3064 280.535C57.6937 280.838 58.1931 280.99 58.8044 280.99ZM58.8044 285.904C59.5557 285.904 60.1554 285.736 60.6034 285.4C61.0514 285.059 61.2754 284.609 61.2754 284.049C61.2754 283.68 61.1727 283.351 60.9674 283.062C60.7667 282.773 60.4821 282.546 60.1134 282.383C59.7447 282.215 59.3084 282.131 58.8044 282.131C58.3051 282.131 57.8711 282.215 57.5024 282.383C57.1384 282.546 56.8537 282.773 56.6484 283.062C56.4477 283.351 56.3474 283.68 56.3474 284.049C56.3474 284.609 56.5691 285.059 57.0124 285.4C57.4604 285.736 58.0577 285.904 58.8044 285.904ZM66.4898 276.524C66.9425 276.524 67.3485 276.643 67.7078 276.881C68.0672 277.119 68.3495 277.455 68.5548 277.889C68.7602 278.323 68.8628 278.834 68.8628 279.422C68.8628 280.01 68.7602 280.519 68.5548 280.948C68.3542 281.377 68.0742 281.711 67.7148 281.949C67.3555 282.182 66.9472 282.299 66.4898 282.299C66.0278 282.299 65.6148 282.182 65.2508 281.949C64.8915 281.711 64.6068 281.377 64.3968 280.948C64.1868 280.519 64.0818 280.01 64.0818 279.422C64.0818 278.834 64.1868 278.323 64.3968 277.889C64.6068 277.455 64.8915 277.119 65.2508 276.881C65.6148 276.643 66.0278 276.524 66.4898 276.524ZM66.4758 281.578C66.9238 281.578 67.2668 281.38 67.5048 280.983C67.7475 280.586 67.8688 280.066 67.8688 279.422C67.8688 278.769 67.7475 278.244 67.5048 277.847C67.2622 277.446 66.9192 277.245 66.4758 277.245C66.1772 277.245 65.9228 277.338 65.7128 277.525C65.5075 277.707 65.3488 277.961 65.2368 278.288C65.1295 278.615 65.0758 278.993 65.0758 279.422C65.0758 280.061 65.1972 280.582 65.4398 280.983C65.6825 281.38 66.0278 281.578 66.4758 281.578ZM72.8248 281.151C73.2822 281.151 73.6905 281.272 74.0498 281.515C74.4092 281.753 74.6915 282.089 74.8968 282.523C75.1022 282.957 75.2048 283.466 75.2048 284.049C75.2048 284.637 75.1022 285.148 74.8968 285.582C74.6962 286.016 74.4162 286.352 74.0568 286.59C73.6975 286.823 73.2868 286.94 72.8248 286.94C72.3628 286.94 71.9498 286.823 71.5858 286.59C71.2218 286.352 70.9372 286.016 70.7318 285.582C70.5265 285.148 70.4238 284.637 70.4238 284.049C70.4238 283.466 70.5265 282.957 70.7318 282.523C70.9418 282.089 71.2288 281.753 71.5928 281.515C71.9568 281.272 72.3675 281.151 72.8248 281.151ZM72.8108 286.205C73.1002 286.205 73.3498 286.114 73.5598 285.932C73.7698 285.745 73.9308 285.491 74.0428 285.169C74.1548 284.847 74.2108 284.478 74.2108 284.063C74.2108 283.638 74.1525 283.263 74.0358 282.936C73.9238 282.605 73.7628 282.346 73.5528 282.159C73.3428 281.972 73.0955 281.879 72.8108 281.879C72.5262 281.879 72.2788 281.975 72.0688 282.166C71.8588 282.353 71.6978 282.612 71.5858 282.943C71.4738 283.27 71.4178 283.643 71.4178 284.063C71.4178 284.478 71.4738 284.847 71.5858 285.169C71.6978 285.491 71.8565 285.745 72.0618 285.932C72.2718 286.114 72.5215 286.205 72.8108 286.205ZM73.4058 276.566L66.6018 286.856L65.7268 286.849L72.5588 276.566H73.4058Z" fill="#596B7A"/>
<path d="M78 281.8H84" stroke="#596B7A"/>
<path d="M60.2687 318.471C61.287 318.471 62.0973 318.88 62.6997 319.699C63.3063 320.514 63.6097 321.721 63.6097 323.32C63.6097 324.91 63.3085 326.113 62.7062 326.927C62.1038 327.738 61.287 328.143 60.2557 328.143C59.2287 328.143 58.414 327.74 57.8117 326.934C57.2093 326.124 56.9082 324.925 56.9082 323.339C56.9082 322.269 57.0468 321.372 57.3242 320.648C57.6015 319.925 57.9915 319.381 58.4942 319.017C58.9968 318.653 59.5883 318.471 60.2687 318.471ZM60.2687 327.103C60.9403 327.103 61.4473 326.808 61.7897 326.219C62.1363 325.625 62.3097 324.661 62.3097 323.326C62.3097 321.966 62.1342 320.987 61.7832 320.388C61.4365 319.786 60.9295 319.485 60.2622 319.485C59.5992 319.485 59.0878 319.788 58.7282 320.395C58.3728 320.997 58.1952 321.974 58.1952 323.326C58.1952 324.657 58.3728 325.619 58.7282 326.212C59.0835 326.806 59.597 327.103 60.2687 327.103ZM67.1691 318.458C67.5895 318.458 67.9665 318.568 68.3001 318.789C68.6338 319.01 68.896 319.322 69.0866 319.725C69.2773 320.128 69.3726 320.603 69.3726 321.149C69.3726 321.695 69.2773 322.167 69.0866 322.566C68.9003 322.965 68.6403 323.274 68.3066 323.495C67.973 323.712 67.5938 323.82 67.1691 323.82C66.7401 323.82 66.3566 323.712 66.0186 323.495C65.685 323.274 65.4206 322.965 65.2256 322.566C65.0306 322.167 64.9331 321.695 64.9331 321.149C64.9331 320.603 65.0306 320.128 65.2256 319.725C65.4206 319.322 65.685 319.01 66.0186 318.789C66.3566 318.568 66.7401 318.458 67.1691 318.458ZM67.1561 323.151C67.5721 323.151 67.8906 322.967 68.1116 322.598C68.337 322.23 68.4496 321.747 68.4496 321.149C68.4496 320.542 68.337 320.055 68.1116 319.686C67.8863 319.314 67.5678 319.127 67.1561 319.127C66.8788 319.127 66.6426 319.214 66.4476 319.387C66.257 319.556 66.1096 319.793 66.0056 320.096C65.906 320.399 65.8561 320.75 65.8561 321.149C65.8561 321.743 65.9688 322.226 66.1941 322.598C66.4195 322.967 66.7401 323.151 67.1561 323.151ZM73.0516 322.754C73.4763 322.754 73.8555 322.867 74.1891 323.092C74.5228 323.313 74.785 323.625 74.9756 324.028C75.1663 324.431 75.2616 324.904 75.2616 325.445C75.2616 325.991 75.1663 326.466 74.9756 326.869C74.7893 327.272 74.5293 327.584 74.1956 327.805C73.862 328.022 73.4806 328.13 73.0516 328.13C72.6226 328.13 72.2391 328.022 71.9011 327.805C71.5631 327.584 71.2988 327.272 71.1081 326.869C70.9175 326.466 70.8221 325.991 70.8221 325.445C70.8221 324.904 70.9175 324.431 71.1081 324.028C71.3031 323.625 71.5696 323.313 71.9076 323.092C72.2456 322.867 72.627 322.754 73.0516 322.754ZM73.0386 327.447C73.3073 327.447 73.5391 327.363 73.7341 327.194C73.9291 327.021 74.0786 326.784 74.1826 326.485C74.2866 326.186 74.3386 325.844 74.3386 325.458C74.3386 325.064 74.2845 324.715 74.1761 324.412C74.0721 324.104 73.9226 323.864 73.7276 323.69C73.5326 323.517 73.303 323.43 73.0386 323.43C72.7743 323.43 72.5446 323.519 72.3496 323.697C72.1546 323.87 72.0051 324.111 71.9011 324.419C71.7971 324.722 71.7451 325.068 71.7451 325.458C71.7451 325.844 71.7971 326.186 71.9011 326.485C72.0051 326.784 72.1525 327.021 72.3431 327.194C72.5381 327.363 72.77 327.447 73.0386 327.447ZM73.5911 318.497L67.2731 328.052L66.4606 328.046L72.8046 318.497H73.5911Z" fill="#596B7A"/>
<path d="M78 323H84" stroke="#596B7A"/>
<path d="M84 323H1120" stroke="#596B7A"/>
<path d="M49.9998 384.667C45.3998 384.667 41.6665 388.4 41.6665 393C41.6665 397.6 45.3998 401.333 49.9998 401.333C54.5998 401.333 58.3332 397.6 58.3332 393C58.3332 388.4 54.5998 384.667 49.9998 384.667ZM49.9998 387.167C51.3832 387.167 52.4998 388.283 52.4998 389.667C52.4998 391.05 51.3832 392.167 49.9998 392.167C48.6165 392.167 47.4998 391.05 47.4998 389.667C47.4998 388.283 48.6165 387.167 49.9998 387.167ZM49.9998 399C47.9165 399 46.0748 397.933 44.9998 396.317C45.0248 394.658 48.3332 393.75 49.9998 393.75C51.6582 393.75 54.9748 394.658 54.9998 396.317C53.9248 397.933 52.0832 399 49.9998 399Z" fill="#596B7A"/>
<path d="M66.408 398V390.419H64.602V389.264C65.1807 389.264 65.6473 389.21 66.002 389.103C66.3613 388.991 66.6297 388.832 66.807 388.627C66.9843 388.417 67.0893 388.167 67.122 387.878H68.48V398H66.408ZM74.5103 387.738C75.7143 387.738 76.6639 388.188 77.3593 389.089C78.0546 389.985 78.4023 391.275 78.4023 392.96C78.4023 394.635 78.0593 395.921 77.3733 396.817C76.6873 397.708 75.7329 398.154 74.5103 398.154C73.2829 398.154 72.3239 397.708 71.6333 396.817C70.9473 395.926 70.6043 394.642 70.6043 392.967C70.6043 391.847 70.7629 390.897 71.0803 390.118C71.3976 389.339 71.8479 388.748 72.4313 388.347C73.0146 387.941 73.7076 387.738 74.5103 387.738ZM74.5103 396.481C75.1123 396.481 75.5533 396.213 75.8333 395.676C76.1133 395.135 76.2533 394.232 76.2533 392.967C76.2533 391.674 76.1109 390.748 75.8263 390.188C75.5416 389.628 75.1006 389.348 74.5033 389.348C73.9059 389.348 73.4603 389.63 73.1663 390.195C72.8769 390.76 72.7323 391.684 72.7323 392.967C72.7323 394.227 72.8769 395.128 73.1663 395.669C73.4556 396.21 73.9036 396.481 74.5103 396.481ZM83.4927 387.738C84.6967 387.738 85.6464 388.188 86.3417 389.089C87.037 389.985 87.3847 391.275 87.3847 392.96C87.3847 394.635 87.0417 395.921 86.3557 396.817C85.6697 397.708 84.7154 398.154 83.4927 398.154C82.2654 398.154 81.3064 397.708 80.6157 396.817C79.9297 395.926 79.5867 394.642 79.5867 392.967C79.5867 391.847 79.7454 390.897 80.0627 390.118C80.38 389.339 80.8304 388.748 81.4137 388.347C81.997 387.941 82.69 387.738 83.4927 387.738ZM83.4927 396.481C84.0947 396.481 84.5357 396.213 84.8157 395.676C85.0957 395.135 85.2357 394.232 85.2357 392.967C85.2357 391.674 85.0934 390.748 84.8087 390.188C84.524 389.628 84.083 389.348 83.4857 389.348C82.8884 389.348 82.4427 389.63 82.1487 390.195C81.8594 390.76 81.7147 391.684 81.7147 392.967C81.7147 394.227 81.8594 395.128 82.1487 395.669C82.438 396.21 82.886 396.481 83.4927 396.481ZM91.2071 387.724C91.6878 387.724 92.1195 387.852 92.5021 388.109C92.8848 388.366 93.1881 388.713 93.4121 389.152C93.6361 389.591 93.7481 390.081 93.7481 390.622C93.7481 391.159 93.6385 391.642 93.4191 392.071C93.1998 392.5 92.8965 392.841 92.5091 393.093C92.1265 393.34 91.6925 393.464 91.2071 393.464C90.7218 393.464 90.2855 393.34 89.8981 393.093C89.5108 392.841 89.2051 392.5 88.9811 392.071C88.7571 391.642 88.6451 391.159 88.6451 390.622C88.6451 390.081 88.7571 389.591 88.9811 389.152C89.2098 388.713 89.5178 388.366 89.9051 388.109C90.2925 387.852 90.7265 387.724 91.2071 387.724ZM91.1931 392.428C91.5618 392.428 91.8278 392.269 91.9911 391.952C92.1591 391.63 92.2431 391.187 92.2431 390.622C92.2431 390.039 92.1568 389.581 91.9841 389.25C91.8115 388.919 91.5478 388.753 91.1931 388.753C90.9598 388.753 90.7661 388.83 90.6121 388.984C90.4581 389.133 90.3415 389.348 90.2621 389.628C90.1875 389.908 90.1501 390.239 90.1501 390.622C90.1501 391.182 90.2341 391.623 90.4021 391.945C90.5701 392.267 90.8338 392.428 91.1931 392.428ZM97.8501 392.386C98.3308 392.386 98.7625 392.517 99.1451 392.778C99.5325 393.035 99.8381 393.382 100.062 393.821C100.286 394.26 100.398 394.747 100.398 395.284C100.398 395.821 100.288 396.306 100.069 396.74C99.8498 397.169 99.5465 397.51 99.1591 397.762C98.7765 398.014 98.3401 398.14 97.8501 398.14C97.3601 398.14 96.9215 398.014 96.5341 397.762C96.1468 397.51 95.8411 397.169 95.6171 396.74C95.3931 396.306 95.2811 395.821 95.2811 395.284C95.2811 394.747 95.3931 394.26 95.6171 393.821C95.8458 393.382 96.1538 393.035 96.5411 392.778C96.9331 392.517 97.3695 392.386 97.8501 392.386ZM97.8361 397.083C98.0741 397.083 98.2701 397.011 98.4241 396.866C98.5781 396.721 98.6925 396.516 98.7671 396.25C98.8465 395.979 98.8861 395.662 98.8861 395.298C98.8861 394.911 98.8465 394.579 98.7671 394.304C98.6878 394.024 98.5711 393.809 98.4171 393.66C98.2631 393.506 98.0695 393.429 97.8361 393.429C97.6028 393.429 97.4091 393.506 97.2551 393.66C97.1058 393.809 96.9915 394.024 96.9121 394.304C96.8375 394.584 96.8001 394.915 96.8001 395.298C96.8001 395.662 96.8375 395.979 96.9121 396.25C96.9868 396.516 97.1011 396.721 97.2551 396.866C97.4091 397.011 97.6028 397.083 97.8361 397.083ZM98.4311 387.766L91.6271 398.056L90.4231 398.035L97.2481 387.766H98.4311ZM108.109 398.14C107.433 398.14 106.84 397.995 106.331 397.706C105.827 397.412 105.435 396.987 105.155 396.432C104.88 395.877 104.742 395.205 104.742 394.416C104.742 393.655 104.873 392.99 105.134 392.421C105.4 391.852 105.785 391.411 106.289 391.098C106.793 390.781 107.402 390.622 108.116 390.622C108.798 390.622 109.388 390.771 109.887 391.07C110.387 391.364 110.774 391.796 111.049 392.365C111.325 392.93 111.462 393.613 111.462 394.416C111.462 395.149 111.332 395.795 111.07 396.355C110.814 396.915 110.436 397.354 109.936 397.671C109.442 397.984 108.833 398.14 108.109 398.14ZM108.116 396.985C108.527 396.985 108.87 396.878 109.145 396.663C109.425 396.444 109.635 396.138 109.775 395.746C109.915 395.349 109.985 394.892 109.985 394.374C109.985 393.893 109.922 393.457 109.796 393.065C109.675 392.668 109.477 392.353 109.201 392.12C108.926 391.887 108.564 391.77 108.116 391.77C107.696 391.77 107.346 391.877 107.066 392.092C106.786 392.302 106.574 392.603 106.429 392.995C106.289 393.382 106.219 393.842 106.219 394.374C106.219 394.845 106.282 395.279 106.408 395.676C106.534 396.073 106.737 396.39 107.017 396.628C107.297 396.866 107.664 396.985 108.116 396.985ZM116.991 390.762V391.84H115.297V398H113.792V391.84H112.315V390.762H113.792V389.663C113.792 389.084 113.946 388.643 114.254 388.34C114.562 388.032 115.015 387.878 115.612 387.878H117.054L117.061 388.914H116.018C115.729 388.914 115.53 388.991 115.423 389.145C115.32 389.294 115.269 389.525 115.269 389.838V390.762H116.991ZM124.29 398.14C123.926 398.135 123.579 398.082 123.247 397.979C122.916 397.876 122.62 397.722 122.358 397.517C122.102 397.312 121.896 397.057 121.742 396.754C121.593 396.451 121.518 396.098 121.518 395.697V390.762H123.023V395.536C123.023 395.97 123.159 396.322 123.429 396.593C123.7 396.864 124.108 396.999 124.654 396.999C125.149 396.999 125.546 396.871 125.844 396.614C126.143 396.353 126.292 395.972 126.292 395.473V390.762H127.783V398H126.621L126.453 396.6C126.369 396.978 126.218 397.281 125.998 397.51C125.784 397.734 125.527 397.897 125.228 398C124.934 398.098 124.622 398.145 124.29 398.14ZM132.363 398.14C131.859 398.14 131.386 398.061 130.942 397.902C130.504 397.743 130.135 397.494 129.836 397.153C129.542 396.812 129.358 396.376 129.283 395.844H130.62C130.681 396.119 130.795 396.348 130.963 396.53C131.136 396.707 131.341 396.84 131.579 396.929C131.822 397.013 132.081 397.055 132.356 397.055C132.814 397.055 133.182 396.973 133.462 396.81C133.747 396.642 133.889 396.385 133.889 396.04C133.889 395.793 133.812 395.594 133.658 395.445C133.509 395.296 133.271 395.186 132.944 395.116L131.502 394.773C130.905 394.633 130.427 394.411 130.067 394.108C129.708 393.8 129.526 393.371 129.521 392.82C129.521 392.395 129.626 392.017 129.836 391.686C130.051 391.355 130.368 391.096 130.788 390.909C131.208 390.718 131.731 390.622 132.356 390.622C133.173 390.622 133.829 390.804 134.323 391.168C134.818 391.532 135.075 392.059 135.093 392.75H133.798C133.752 392.419 133.6 392.16 133.343 391.973C133.091 391.782 132.758 391.686 132.342 391.686C131.913 391.686 131.561 391.772 131.285 391.945C131.01 392.113 130.872 392.372 130.872 392.722C130.872 392.96 130.973 393.149 131.173 393.289C131.374 393.424 131.675 393.536 132.076 393.625L133.448 393.968C133.803 394.061 134.095 394.185 134.323 394.339C134.552 394.488 134.732 394.654 134.862 394.836C134.993 395.018 135.084 395.207 135.135 395.403C135.191 395.599 135.219 395.783 135.219 395.956C135.219 396.413 135.103 396.805 134.869 397.132C134.641 397.454 134.312 397.704 133.882 397.881C133.458 398.054 132.951 398.14 132.363 398.14ZM138.049 394.731C138.049 395.165 138.119 395.555 138.259 395.9C138.404 396.241 138.621 396.511 138.91 396.712C139.2 396.908 139.559 397.006 139.988 397.006C140.418 397.006 140.789 396.908 141.101 396.712C141.419 396.516 141.626 396.224 141.724 395.837H143.11C143.026 396.332 142.828 396.752 142.515 397.097C142.207 397.442 141.834 397.704 141.395 397.881C140.957 398.054 140.497 398.14 140.016 398.14C139.33 398.14 138.726 397.993 138.203 397.699C137.681 397.4 137.272 396.976 136.978 396.425C136.689 395.874 136.544 395.219 136.544 394.458C136.544 393.707 136.677 393.044 136.943 392.47C137.209 391.891 137.594 391.439 138.098 391.112C138.602 390.785 139.209 390.622 139.918 390.622C140.618 390.622 141.206 390.771 141.682 391.07C142.163 391.369 142.527 391.789 142.774 392.33C143.022 392.867 143.145 393.501 143.145 394.234V394.731H138.049ZM138.049 393.758H141.717C141.717 393.38 141.652 393.037 141.521 392.729C141.391 392.416 141.19 392.171 140.919 391.994C140.653 391.812 140.317 391.721 139.911 391.721C139.496 391.721 139.151 391.821 138.875 392.022C138.6 392.223 138.392 392.479 138.252 392.792C138.117 393.105 138.049 393.427 138.049 393.758ZM144.818 398V390.762H146.253V392.246C146.374 391.891 146.542 391.595 146.757 391.357C146.976 391.114 147.23 390.932 147.52 390.811C147.809 390.685 148.115 390.622 148.437 390.622C148.535 390.622 148.628 390.629 148.717 390.643C148.805 390.652 148.875 390.671 148.927 390.699V392.141C148.866 392.113 148.787 392.094 148.689 392.085C148.595 392.076 148.514 392.069 148.444 392.064C148.126 392.041 147.837 392.057 147.576 392.113C147.314 392.169 147.088 392.262 146.897 392.393C146.71 392.524 146.565 392.694 146.463 392.904C146.365 393.114 146.316 393.361 146.316 393.646V398H144.818ZM152.926 398.14C152.422 398.14 151.948 398.061 151.505 397.902C151.066 397.743 150.697 397.494 150.399 397.153C150.105 396.812 149.92 396.376 149.846 395.844H151.183C151.243 396.119 151.358 396.348 151.526 396.53C151.698 396.707 151.904 396.84 152.142 396.929C152.384 397.013 152.643 397.055 152.919 397.055C153.376 397.055 153.745 396.973 154.025 396.81C154.309 396.642 154.452 396.385 154.452 396.04C154.452 395.793 154.375 395.594 154.221 395.445C154.071 395.296 153.833 395.186 153.507 395.116L152.065 394.773C151.467 394.633 150.989 394.411 150.63 394.108C150.27 393.8 150.088 393.371 150.084 392.82C150.084 392.395 150.189 392.017 150.399 391.686C150.613 391.355 150.931 391.096 151.351 390.909C151.771 390.718 152.293 390.622 152.919 390.622C153.735 390.622 154.391 390.804 154.886 391.168C155.38 391.532 155.637 392.059 155.656 392.75H154.361C154.314 392.419 154.162 392.16 153.906 391.973C153.654 391.782 153.32 391.686 152.905 391.686C152.475 391.686 152.123 391.772 151.848 391.945C151.572 392.113 151.435 392.372 151.435 392.722C151.435 392.96 151.535 393.149 151.736 393.289C151.936 393.424 152.237 393.536 152.639 393.625L154.011 393.968C154.365 394.061 154.657 394.185 154.886 394.339C155.114 394.488 155.294 394.654 155.425 394.836C155.555 395.018 155.646 395.207 155.698 395.403C155.754 395.599 155.782 395.783 155.782 395.956C155.782 396.413 155.665 396.805 155.432 397.132C155.203 397.454 154.874 397.704 154.445 397.881C154.02 398.054 153.514 398.14 152.926 398.14ZM162.163 390.762V398H160.721V390.762H162.163ZM162.191 387.885V389.362H160.686V387.885H162.191ZM164.396 398V390.762H165.859V391.805C165.976 391.609 166.132 391.425 166.328 391.252C166.529 391.079 166.774 390.939 167.063 390.832C167.357 390.725 167.695 390.671 168.078 390.671C168.531 390.671 168.948 390.762 169.331 390.944C169.718 391.121 170.029 391.401 170.262 391.784C170.495 392.162 170.612 392.652 170.612 393.254V398H169.114V393.415C169.114 392.897 168.974 392.512 168.694 392.26C168.419 392.008 168.062 391.882 167.623 391.882C167.329 391.882 167.049 391.931 166.783 392.029C166.517 392.127 166.302 392.276 166.139 392.477C165.976 392.673 165.894 392.92 165.894 393.219V398H164.396ZM175.478 390.622C176.019 390.622 176.5 390.729 176.92 390.944C177.344 391.154 177.687 391.448 177.949 391.826C178.21 392.204 178.369 392.645 178.425 393.149H177.13C177.088 392.911 176.997 392.689 176.857 392.484C176.721 392.279 176.537 392.115 176.304 391.994C176.075 391.868 175.802 391.805 175.485 391.805C174.906 391.805 174.435 392.017 174.071 392.442C173.707 392.867 173.525 393.518 173.525 394.395C173.525 395.198 173.693 395.837 174.029 396.313C174.369 396.789 174.864 397.027 175.513 397.027C175.825 397.027 176.096 396.962 176.325 396.831C176.558 396.7 176.742 396.532 176.878 396.327C177.013 396.122 177.099 395.909 177.137 395.69H178.411C178.359 396.175 178.201 396.602 177.935 396.971C177.673 397.34 177.33 397.627 176.906 397.832C176.486 398.037 176.01 398.14 175.478 398.14C174.82 398.14 174.236 397.998 173.728 397.713C173.219 397.424 172.82 397.001 172.531 396.446C172.246 395.886 172.104 395.207 172.104 394.409C172.104 393.658 172.237 392.997 172.503 392.428C172.769 391.859 173.154 391.415 173.658 391.098C174.166 390.781 174.773 390.622 175.478 390.622ZM182.038 398.098C181.608 398.098 181.263 398.042 181.002 397.93C180.745 397.818 180.549 397.669 180.414 397.482C180.278 397.291 180.187 397.076 180.141 396.838C180.099 396.595 180.078 396.346 180.078 396.089V387.598H181.555V395.935C181.555 396.271 181.62 396.528 181.751 396.705C181.886 396.882 182.091 396.983 182.367 397.006L182.745 397.02V397.972C182.628 398.009 182.507 398.04 182.381 398.063C182.259 398.086 182.145 398.098 182.038 398.098ZM186.798 398.14C186.434 398.135 186.086 398.082 185.755 397.979C185.424 397.876 185.127 397.722 184.866 397.517C184.609 397.312 184.404 397.057 184.25 396.754C184.101 396.451 184.026 396.098 184.026 395.697V390.762H185.531V395.536C185.531 395.97 185.666 396.322 185.937 396.593C186.208 396.864 186.616 396.999 187.162 396.999C187.657 396.999 188.053 396.871 188.352 396.614C188.651 396.353 188.8 395.972 188.8 395.473V390.762H190.291V398H189.129L188.961 396.6C188.877 396.978 188.725 397.281 188.506 397.51C188.291 397.734 188.035 397.897 187.736 398C187.442 398.098 187.129 398.145 186.798 398.14ZM194.857 398.14C193.905 398.14 193.156 397.816 192.61 397.167C192.064 396.514 191.791 395.573 191.791 394.346C191.791 393.595 191.901 392.941 192.12 392.386C192.339 391.826 192.666 391.392 193.1 391.084C193.539 390.776 194.08 390.622 194.724 390.622C195.051 390.622 195.34 390.662 195.592 390.741C195.849 390.82 196.073 390.923 196.264 391.049C196.46 391.175 196.621 391.31 196.747 391.455C196.878 391.6 196.978 391.735 197.048 391.861V387.598H198.553V398H197.433L197.265 396.516C197.214 396.675 197.134 396.847 197.027 397.034C196.92 397.221 196.773 397.398 196.586 397.566C196.404 397.734 196.171 397.872 195.886 397.979C195.601 398.086 195.258 398.14 194.857 398.14ZM195.144 397.013C195.816 397.013 196.301 396.803 196.6 396.383C196.899 395.958 197.048 395.263 197.048 394.297C197.043 393.751 196.976 393.289 196.845 392.911C196.714 392.533 196.511 392.248 196.236 392.057C195.965 391.861 195.608 391.763 195.165 391.763C194.61 391.763 194.157 391.964 193.807 392.365C193.457 392.762 193.282 393.406 193.282 394.297C193.282 395.174 193.441 395.846 193.758 396.313C194.08 396.78 194.542 397.013 195.144 397.013ZM201.719 394.731C201.719 395.165 201.789 395.555 201.929 395.9C202.074 396.241 202.291 396.511 202.58 396.712C202.87 396.908 203.229 397.006 203.658 397.006C204.088 397.006 204.459 396.908 204.771 396.712C205.089 396.516 205.296 396.224 205.394 395.837H206.78C206.696 396.332 206.498 396.752 206.185 397.097C205.877 397.442 205.504 397.704 205.065 397.881C204.627 398.054 204.167 398.14 203.686 398.14C203 398.14 202.396 397.993 201.873 397.699C201.351 397.4 200.942 396.976 200.648 396.425C200.359 395.874 200.214 395.219 200.214 394.458C200.214 393.707 200.347 393.044 200.613 392.47C200.879 391.891 201.264 391.439 201.768 391.112C202.272 390.785 202.879 390.622 203.588 390.622C204.288 390.622 204.876 390.771 205.352 391.07C205.833 391.369 206.197 391.789 206.444 392.33C206.692 392.867 206.815 393.501 206.815 394.234V394.731H201.719ZM201.719 393.758H205.387C205.387 393.38 205.322 393.037 205.191 392.729C205.061 392.416 204.86 392.171 204.589 391.994C204.323 391.812 203.987 391.721 203.581 391.721C203.166 391.721 202.821 391.821 202.545 392.022C202.27 392.223 202.062 392.479 201.922 392.792C201.787 393.105 201.719 393.427 201.719 393.758ZM211.127 398.14C210.175 398.14 209.426 397.816 208.88 397.167C208.334 396.514 208.061 395.573 208.061 394.346C208.061 393.595 208.17 392.941 208.39 392.386C208.609 391.826 208.936 391.392 209.37 391.084C209.808 390.776 210.35 390.622 210.994 390.622C211.32 390.622 211.61 390.662 211.862 390.741C212.118 390.82 212.342 390.923 212.534 391.049C212.73 391.175 212.891 391.31 213.017 391.455C213.147 391.6 213.248 391.735 213.318 391.861V387.598H214.823V398H213.703L213.535 396.516C213.483 396.675 213.404 396.847 213.297 397.034C213.189 397.221 213.042 397.398 212.856 397.566C212.674 397.734 212.44 397.872 212.156 397.979C211.871 398.086 211.528 398.14 211.127 398.14ZM211.414 397.013C212.086 397.013 212.571 396.803 212.87 396.383C213.168 395.958 213.318 395.263 213.318 394.297C213.313 393.751 213.245 393.289 213.115 392.911C212.984 392.533 212.781 392.248 212.506 392.057C212.235 391.861 211.878 391.763 211.435 391.763C210.879 391.763 210.427 391.964 210.077 392.365C209.727 392.762 209.552 393.406 209.552 394.297C209.552 395.174 209.71 395.846 210.028 396.313C210.35 396.78 210.812 397.013 211.414 397.013Z" fill="#596B7A"/>
<path d="M222.233 394.332C221.962 394.332 221.715 394.267 221.491 394.136C221.272 394.001 221.094 393.821 220.959 393.597C220.828 393.368 220.763 393.119 220.763 392.848C220.763 392.577 220.828 392.332 220.959 392.113C221.094 391.889 221.272 391.712 221.491 391.581C221.715 391.446 221.962 391.378 222.233 391.378C222.508 391.378 222.758 391.446 222.982 391.581C223.206 391.712 223.383 391.889 223.514 392.113C223.645 392.332 223.71 392.577 223.71 392.848C223.71 393.119 223.645 393.368 223.514 393.597C223.383 393.821 223.206 394.001 222.982 394.136C222.758 394.267 222.508 394.332 222.233 394.332Z" fill="#596B7A"/>
<path d="M237.988 398H235.867L234.222 394.101H232.171V398H230.134V387.878H234.404C235.211 387.878 235.872 388.006 236.385 388.263C236.898 388.52 237.276 388.877 237.519 389.334C237.762 389.787 237.883 390.309 237.883 390.902C237.883 391.434 237.799 391.884 237.631 392.253C237.468 392.617 237.251 392.92 236.98 393.163C236.714 393.406 236.422 393.604 236.105 393.758L237.988 398ZM234.04 392.526C234.586 392.526 235.018 392.379 235.335 392.085C235.657 391.791 235.818 391.413 235.818 390.951C235.818 390.484 235.664 390.116 235.356 389.845C235.048 389.574 234.658 389.439 234.187 389.439H232.171V392.526H234.04ZM241.043 394.85C241.039 395.219 241.097 395.541 241.218 395.816C241.34 396.087 241.515 396.297 241.743 396.446C241.977 396.591 242.257 396.663 242.583 396.663C242.933 396.663 243.239 396.588 243.5 396.439C243.766 396.29 243.951 396.045 244.053 395.704H245.894C245.815 396.217 245.61 396.656 245.278 397.02C244.952 397.384 244.555 397.662 244.088 397.853C243.622 398.044 243.136 398.14 242.632 398.14C241.918 398.14 241.288 397.991 240.742 397.692C240.201 397.389 239.779 396.962 239.475 396.411C239.172 395.86 239.02 395.212 239.02 394.465C239.02 393.742 239.158 393.091 239.433 392.512C239.709 391.929 240.108 391.469 240.63 391.133C241.158 390.792 241.79 390.622 242.527 390.622C243.265 390.622 243.883 390.778 244.382 391.091C244.886 391.399 245.264 391.831 245.516 392.386C245.773 392.937 245.901 393.574 245.901 394.297V394.85H241.043ZM241.036 393.632H243.99C243.99 393.343 243.937 393.077 243.829 392.834C243.722 392.591 243.559 392.4 243.339 392.26C243.125 392.12 242.854 392.05 242.527 392.05C242.21 392.05 241.939 392.127 241.715 392.281C241.496 392.43 241.328 392.626 241.211 392.869C241.095 393.112 241.036 393.366 241.036 393.632ZM254.019 400.254H251.975V396.915C251.877 397.088 251.758 397.249 251.618 397.398C251.478 397.543 251.32 397.671 251.142 397.783C250.97 397.895 250.781 397.981 250.575 398.042C250.37 398.107 250.151 398.14 249.917 398.14C249.376 398.14 248.877 398.012 248.419 397.755C247.967 397.498 247.605 397.09 247.334 396.53C247.064 395.965 246.928 395.23 246.928 394.325C246.928 393.508 247.043 392.827 247.271 392.281C247.5 391.73 247.824 391.317 248.244 391.042C248.664 390.762 249.157 390.622 249.721 390.622C249.964 390.622 250.197 390.652 250.421 390.713C250.645 390.769 250.853 390.851 251.044 390.958C251.236 391.065 251.408 391.191 251.562 391.336C251.721 391.476 251.854 391.632 251.961 391.805L251.975 390.762H254.019V400.254ZM250.414 396.642C250.764 396.642 251.056 396.535 251.289 396.32C251.523 396.105 251.695 395.823 251.807 395.473C251.924 395.123 251.982 394.745 251.982 394.339C251.982 393.704 251.854 393.175 251.597 392.75C251.341 392.321 250.946 392.106 250.414 392.106C249.976 392.106 249.605 392.295 249.301 392.673C248.998 393.046 248.846 393.602 248.846 394.339C248.846 395.1 248.989 395.674 249.273 396.061C249.563 396.448 249.943 396.642 250.414 396.642ZM258.437 398.14C258.101 398.14 257.769 398.089 257.443 397.986C257.121 397.883 256.827 397.732 256.561 397.531C256.295 397.33 256.08 397.083 255.917 396.789C255.758 396.495 255.679 396.154 255.679 395.767V390.762H257.723V395.508C257.723 395.844 257.832 396.119 258.052 396.334C258.271 396.549 258.593 396.656 259.018 396.656C259.419 396.656 259.736 396.553 259.97 396.348C260.208 396.138 260.327 395.846 260.327 395.473V390.762H262.35V398H260.81L260.572 396.565C260.488 396.99 260.329 397.316 260.096 397.545C259.867 397.769 259.603 397.923 259.305 398.007C259.011 398.096 258.721 398.14 258.437 398.14ZM266.113 390.762V398H264.16V390.762H266.113ZM266.134 387.885V389.726H264.146V387.885H266.134ZM268.006 398V390.762H269.973V392.477C270.09 392.108 270.253 391.786 270.463 391.511C270.678 391.231 270.937 391.014 271.24 390.86C271.543 390.701 271.886 390.622 272.269 390.622C272.334 390.622 272.395 390.627 272.451 390.636C272.512 390.641 272.556 390.65 272.584 390.664V392.61C272.542 392.591 272.491 392.58 272.43 392.575C272.374 392.57 272.323 392.566 272.276 392.561C271.875 392.528 271.532 392.54 271.247 392.596C270.962 392.652 270.731 392.748 270.554 392.883C270.377 393.018 270.248 393.184 270.169 393.38C270.09 393.576 270.05 393.795 270.05 394.038V398H268.006ZM275.346 394.85C275.341 395.219 275.4 395.541 275.521 395.816C275.642 396.087 275.817 396.297 276.046 396.446C276.279 396.591 276.559 396.663 276.886 396.663C277.236 396.663 277.542 396.588 277.803 396.439C278.069 396.29 278.253 396.045 278.356 395.704H280.197C280.118 396.217 279.912 396.656 279.581 397.02C279.254 397.384 278.858 397.662 278.391 397.853C277.924 398.044 277.439 398.14 276.935 398.14C276.221 398.14 275.591 397.991 275.045 397.692C274.504 397.389 274.081 396.962 273.778 396.411C273.475 395.86 273.323 395.212 273.323 394.465C273.323 393.742 273.461 393.091 273.736 392.512C274.011 391.929 274.41 391.469 274.933 391.133C275.46 390.792 276.093 390.622 276.83 390.622C277.567 390.622 278.186 390.778 278.685 391.091C279.189 391.399 279.567 391.831 279.819 392.386C280.076 392.937 280.204 393.574 280.204 394.297V394.85H275.346ZM275.339 393.632H278.293C278.293 393.343 278.239 393.077 278.132 392.834C278.025 392.591 277.861 392.4 277.642 392.26C277.427 392.12 277.157 392.05 276.83 392.05C276.513 392.05 276.242 392.127 276.018 392.281C275.799 392.43 275.631 392.626 275.514 392.869C275.397 393.112 275.339 393.366 275.339 393.632ZM284.311 398.14C283.34 398.14 282.584 397.806 282.043 397.139C281.502 396.467 281.231 395.534 281.231 394.339C281.231 393.583 281.341 392.927 281.56 392.372C281.779 391.817 282.104 391.387 282.533 391.084C282.962 390.776 283.487 390.622 284.108 390.622C284.369 390.622 284.612 390.652 284.836 390.713C285.065 390.769 285.272 390.848 285.459 390.951C285.646 391.054 285.809 391.173 285.949 391.308C286.089 391.443 286.203 391.588 286.292 391.742V387.598H288.343V398H286.859L286.628 396.516C286.563 396.717 286.472 396.913 286.355 397.104C286.238 397.295 286.089 397.47 285.907 397.629C285.725 397.783 285.501 397.907 285.235 398C284.974 398.093 284.666 398.14 284.311 398.14ZM284.759 396.67C285.272 396.67 285.655 396.49 285.907 396.131C286.164 395.772 286.292 395.165 286.292 394.311C286.287 393.816 286.229 393.406 286.117 393.079C286.005 392.752 285.837 392.51 285.613 392.351C285.394 392.188 285.114 392.106 284.773 392.106C284.33 392.106 283.961 392.276 283.667 392.617C283.373 392.953 283.226 393.518 283.226 394.311C283.226 395.118 283.364 395.713 283.639 396.096C283.914 396.479 284.288 396.67 284.759 396.67ZM297.577 390.762V391.84H295.883V398H294.378V391.84H292.901V390.762H294.378V389.663C294.378 389.084 294.532 388.643 294.84 388.34C295.148 388.032 295.6 387.878 296.198 387.878H297.64L297.647 388.914H296.604C296.314 388.914 296.116 388.991 296.009 389.145C295.906 389.294 295.855 389.525 295.855 389.838V390.762H297.577ZM301.916 398.14C301.239 398.14 300.647 397.995 300.138 397.706C299.634 397.412 299.242 396.987 298.962 396.432C298.687 395.877 298.549 395.205 298.549 394.416C298.549 393.655 298.68 392.99 298.941 392.421C299.207 391.852 299.592 391.411 300.096 391.098C300.6 390.781 301.209 390.622 301.923 390.622C302.604 390.622 303.195 390.771 303.694 391.07C304.193 391.364 304.581 391.796 304.856 392.365C305.131 392.93 305.269 393.613 305.269 394.416C305.269 395.149 305.138 395.795 304.877 396.355C304.62 396.915 304.242 397.354 303.743 397.671C303.248 397.984 302.639 398.14 301.916 398.14ZM301.923 396.985C302.334 396.985 302.677 396.878 302.952 396.663C303.232 396.444 303.442 396.138 303.582 395.746C303.722 395.349 303.792 394.892 303.792 394.374C303.792 393.893 303.729 393.457 303.603 393.065C303.482 392.668 303.283 392.353 303.008 392.12C302.733 391.887 302.371 391.77 301.923 391.77C301.503 391.77 301.153 391.877 300.873 392.092C300.593 392.302 300.381 392.603 300.236 392.995C300.096 393.382 300.026 393.842 300.026 394.374C300.026 394.845 300.089 395.279 300.215 395.676C300.341 396.073 300.544 396.39 300.824 396.628C301.104 396.866 301.47 396.985 301.923 396.985ZM306.878 398V390.762H308.313V392.246C308.435 391.891 308.603 391.595 308.817 391.357C309.037 391.114 309.291 390.932 309.58 390.811C309.87 390.685 310.175 390.622 310.497 390.622C310.595 390.622 310.689 390.629 310.777 390.643C310.866 390.652 310.936 390.671 310.987 390.699V392.141C310.927 392.113 310.847 392.094 310.749 392.085C310.656 392.076 310.574 392.069 310.504 392.064C310.187 392.041 309.898 392.057 309.636 392.113C309.375 392.169 309.149 392.262 308.957 392.393C308.771 392.524 308.626 392.694 308.523 392.904C308.425 393.114 308.376 393.361 308.376 393.646V398H306.878ZM318.193 398.14C317.829 398.135 317.481 398.082 317.15 397.979C316.818 397.876 316.522 397.722 316.261 397.517C316.004 397.312 315.799 397.057 315.645 396.754C315.495 396.451 315.421 396.098 315.421 395.697V390.762H316.926V395.536C316.926 395.97 317.061 396.322 317.332 396.593C317.602 396.864 318.011 396.999 318.557 396.999C319.051 396.999 319.448 396.871 319.747 396.614C320.045 396.353 320.195 395.972 320.195 395.473V390.762H321.686V398H320.524L320.356 396.6C320.272 396.978 320.12 397.281 319.901 397.51C319.686 397.734 319.429 397.897 319.131 398C318.837 398.098 318.524 398.145 318.193 398.14ZM326.266 398.14C325.762 398.14 325.288 398.061 324.845 397.902C324.406 397.743 324.037 397.494 323.739 397.153C323.445 396.812 323.26 396.376 323.186 395.844H324.523C324.583 396.119 324.698 396.348 324.866 396.53C325.038 396.707 325.244 396.84 325.482 396.929C325.724 397.013 325.983 397.055 326.259 397.055C326.716 397.055 327.085 396.973 327.365 396.81C327.649 396.642 327.792 396.385 327.792 396.04C327.792 395.793 327.715 395.594 327.561 395.445C327.411 395.296 327.173 395.186 326.847 395.116L325.405 394.773C324.807 394.633 324.329 394.411 323.97 394.108C323.61 393.8 323.428 393.371 323.424 392.82C323.424 392.395 323.529 392.017 323.739 391.686C323.953 391.355 324.271 391.096 324.691 390.909C325.111 390.718 325.633 390.622 326.259 390.622C327.075 390.622 327.731 390.804 328.226 391.168C328.72 391.532 328.977 392.059 328.996 392.75H327.701C327.654 392.419 327.502 392.16 327.246 391.973C326.994 391.782 326.66 391.686 326.245 391.686C325.815 391.686 325.463 391.772 325.188 391.945C324.912 392.113 324.775 392.372 324.775 392.722C324.775 392.96 324.875 393.149 325.076 393.289C325.276 393.424 325.577 393.536 325.979 393.625L327.351 393.968C327.705 394.061 327.997 394.185 328.226 394.339C328.454 394.488 328.634 394.654 328.765 394.836C328.895 395.018 328.986 395.207 329.038 395.403C329.094 395.599 329.122 395.783 329.122 395.956C329.122 396.413 329.005 396.805 328.772 397.132C328.543 397.454 328.214 397.704 327.785 397.881C327.36 398.054 326.854 398.14 326.266 398.14ZM331.952 394.731C331.952 395.165 332.022 395.555 332.162 395.9C332.306 396.241 332.523 396.511 332.813 396.712C333.102 396.908 333.461 397.006 333.891 397.006C334.32 397.006 334.691 396.908 335.004 396.712C335.321 396.516 335.529 396.224 335.627 395.837H337.013C336.929 396.332 336.73 396.752 336.418 397.097C336.11 397.442 335.736 397.704 335.298 397.881C334.859 398.054 334.399 398.14 333.919 398.14C333.233 398.14 332.628 397.993 332.106 397.699C331.583 397.4 331.175 396.976 330.881 396.425C330.591 395.874 330.447 395.219 330.447 394.458C330.447 393.707 330.58 393.044 330.846 392.47C331.112 391.891 331.497 391.439 332.001 391.112C332.505 390.785 333.111 390.622 333.821 390.622C334.521 390.622 335.109 390.771 335.585 391.07C336.065 391.369 336.429 391.789 336.677 392.33C336.924 392.867 337.048 393.501 337.048 394.234V394.731H331.952ZM331.952 393.758H335.62C335.62 393.38 335.554 393.037 335.424 392.729C335.293 392.416 335.092 392.171 334.822 391.994C334.556 391.812 334.22 391.721 333.814 391.721C333.398 391.721 333.053 391.821 332.778 392.022C332.502 392.223 332.295 392.479 332.155 392.792C332.019 393.105 331.952 393.427 331.952 393.758ZM338.72 398V390.762H340.155V392.246C340.276 391.891 340.444 391.595 340.659 391.357C340.878 391.114 341.133 390.932 341.422 390.811C341.711 390.685 342.017 390.622 342.339 390.622C342.437 390.622 342.53 390.629 342.619 390.643C342.708 390.652 342.778 390.671 342.829 390.699V392.141C342.768 392.113 342.689 392.094 342.591 392.085C342.498 392.076 342.416 392.069 342.346 392.064C342.029 392.041 341.739 392.057 341.478 392.113C341.217 392.169 340.99 392.262 340.799 392.393C340.612 392.524 340.468 392.694 340.365 392.904C340.267 393.114 340.218 393.361 340.218 393.646V398H338.72ZM347.374 398V390.762H348.809V392.246C348.931 391.891 349.099 391.595 349.313 391.357C349.533 391.114 349.787 390.932 350.076 390.811C350.366 390.685 350.671 390.622 350.993 390.622C351.091 390.622 351.185 390.629 351.273 390.643C351.362 390.652 351.432 390.671 351.483 390.699V392.141C351.423 392.113 351.343 392.094 351.245 392.085C351.152 392.076 351.07 392.069 351 392.064C350.683 392.041 350.394 392.057 350.132 392.113C349.871 392.169 349.645 392.262 349.453 392.393C349.267 392.524 349.122 392.694 349.019 392.904C348.921 393.114 348.872 393.361 348.872 393.646V398H347.374ZM353.881 394.731C353.881 395.165 353.951 395.555 354.091 395.9C354.236 396.241 354.453 396.511 354.742 396.712C355.032 396.908 355.391 397.006 355.82 397.006C356.25 397.006 356.621 396.908 356.933 396.712C357.251 396.516 357.458 396.224 357.556 395.837H358.942C358.858 396.332 358.66 396.752 358.347 397.097C358.039 397.442 357.666 397.704 357.227 397.881C356.789 398.054 356.329 398.14 355.848 398.14C355.162 398.14 354.558 397.993 354.035 397.699C353.513 397.4 353.104 396.976 352.81 396.425C352.521 395.874 352.376 395.219 352.376 394.458C352.376 393.707 352.509 393.044 352.775 392.47C353.041 391.891 353.426 391.439 353.93 391.112C354.434 390.785 355.041 390.622 355.75 390.622C356.45 390.622 357.038 390.771 357.514 391.07C357.995 391.369 358.359 391.789 358.606 392.33C358.854 392.867 358.977 393.501 358.977 394.234V394.731H353.881ZM353.881 393.758H357.549C357.549 393.38 357.484 393.037 357.353 392.729C357.223 392.416 357.022 392.171 356.751 391.994C356.485 391.812 356.149 391.721 355.743 391.721C355.328 391.721 354.983 391.821 354.707 392.022C354.432 392.223 354.224 392.479 354.084 392.792C353.949 393.105 353.881 393.427 353.881 393.758ZM363.731 400.394C362.555 400.394 361.645 400.228 361.001 399.897C360.357 399.57 360.035 399.113 360.035 398.525C360.035 398.268 360.096 398.051 360.217 397.874C360.343 397.692 360.49 397.543 360.658 397.426C360.831 397.309 360.989 397.218 361.134 397.153C361.279 397.083 361.372 397.034 361.414 397.006C361.335 396.959 361.232 396.901 361.106 396.831C360.985 396.756 360.875 396.658 360.777 396.537C360.679 396.411 360.63 396.248 360.63 396.047C360.63 395.814 360.74 395.599 360.959 395.403C361.183 395.202 361.517 395.055 361.96 394.962C361.521 394.747 361.181 394.458 360.938 394.094C360.7 393.73 360.581 393.343 360.581 392.932C360.581 392.461 360.714 392.055 360.98 391.714C361.246 391.369 361.619 391.105 362.1 390.923C362.585 390.741 363.155 390.65 363.808 390.65C364.284 390.65 364.683 390.704 365.005 390.811C365.327 390.918 365.623 391.068 365.894 391.259C365.983 391.226 366.109 391.177 366.272 391.112C366.435 391.042 366.615 390.967 366.811 390.888C367.012 390.809 367.201 390.732 367.378 390.657C367.56 390.582 367.707 390.522 367.819 390.475L367.812 391.777L366.552 392.008C366.617 392.148 366.669 392.302 366.706 392.47C366.748 392.638 366.769 392.792 366.769 392.932C366.769 393.352 366.655 393.739 366.426 394.094C366.197 394.444 365.854 394.724 365.397 394.934C364.94 395.144 364.368 395.249 363.682 395.249C363.617 395.249 363.533 395.249 363.43 395.249C363.327 395.244 363.241 395.237 363.171 395.228C362.737 395.242 362.438 395.293 362.275 395.382C362.112 395.466 362.03 395.559 362.03 395.662C362.03 395.793 362.135 395.881 362.345 395.928C362.555 395.975 362.9 396.014 363.381 396.047C363.554 396.061 363.773 396.075 364.039 396.089C364.31 396.103 364.608 396.122 364.935 396.145C365.728 396.192 366.333 396.39 366.748 396.74C367.168 397.09 367.378 397.554 367.378 398.133C367.378 398.796 367.077 399.337 366.475 399.757C365.873 400.182 364.958 400.394 363.731 400.394ZM363.99 399.477C364.629 399.477 365.11 399.384 365.432 399.197C365.759 399.015 365.922 398.742 365.922 398.378C365.922 398.107 365.817 397.886 365.607 397.713C365.397 397.54 365.084 397.44 364.669 397.412L362.737 397.286C362.546 397.277 362.354 397.319 362.163 397.412C361.976 397.505 361.82 397.636 361.694 397.804C361.573 397.967 361.512 398.149 361.512 398.35C361.512 398.714 361.713 398.992 362.114 399.183C362.52 399.379 363.145 399.477 363.99 399.477ZM363.724 394.332C364.209 394.332 364.599 394.215 364.893 393.982C365.192 393.744 365.341 393.403 365.341 392.96C365.341 392.503 365.192 392.15 364.893 391.903C364.599 391.651 364.209 391.525 363.724 391.525C363.234 391.525 362.837 391.651 362.534 391.903C362.235 392.155 362.086 392.507 362.086 392.96C362.086 393.389 362.228 393.725 362.513 393.968C362.802 394.211 363.206 394.332 363.724 394.332ZM370.9 390.762V398H369.458V390.762H370.9ZM370.928 387.885V389.362H369.423V387.885H370.928ZM375.703 398.14C375.199 398.14 374.725 398.061 374.282 397.902C373.843 397.743 373.475 397.494 373.176 397.153C372.882 396.812 372.698 396.376 372.623 395.844H373.96C374.021 396.119 374.135 396.348 374.303 396.53C374.476 396.707 374.681 396.84 374.919 396.929C375.162 397.013 375.421 397.055 375.696 397.055C376.153 397.055 376.522 396.973 376.802 396.81C377.087 396.642 377.229 396.385 377.229 396.04C377.229 395.793 377.152 395.594 376.998 395.445C376.849 395.296 376.611 395.186 376.284 395.116L374.842 394.773C374.245 394.633 373.766 394.411 373.407 394.108C373.048 393.8 372.866 393.371 372.861 392.82C372.861 392.395 372.966 392.017 373.176 391.686C373.391 391.355 373.708 391.096 374.128 390.909C374.548 390.718 375.071 390.622 375.696 390.622C376.513 390.622 377.168 390.804 377.663 391.168C378.158 391.532 378.414 392.059 378.433 392.75H377.138C377.091 392.419 376.94 392.16 376.683 391.973C376.431 391.782 376.097 391.686 375.682 391.686C375.253 391.686 374.9 391.772 374.625 391.945C374.35 392.113 374.212 392.372 374.212 392.722C374.212 392.96 374.312 393.149 374.513 393.289C374.714 393.424 375.015 393.536 375.416 393.625L376.788 393.968C377.143 394.061 377.434 394.185 377.663 394.339C377.892 394.488 378.071 394.654 378.202 394.836C378.333 395.018 378.424 395.207 378.475 395.403C378.531 395.599 378.559 395.783 378.559 395.956C378.559 396.413 378.442 396.805 378.209 397.132C377.98 397.454 377.651 397.704 377.222 397.881C376.797 398.054 376.291 398.14 375.703 398.14ZM383.998 391.84H382.374L382.381 396.159C382.381 396.397 382.404 396.572 382.451 396.684C382.502 396.791 382.586 396.861 382.703 396.894C382.824 396.922 382.988 396.936 383.193 396.936H384.04V397.909C383.947 397.946 383.807 397.979 383.62 398.007C383.438 398.035 383.202 398.049 382.913 398.049C382.376 398.049 381.959 397.977 381.66 397.832C381.366 397.687 381.161 397.48 381.044 397.209C380.932 396.934 380.876 396.602 380.876 396.215V391.84H379.7V390.762H380.918L381.289 388.634H382.374V390.755H383.998V391.84ZM385.765 398V390.762H387.2V392.246C387.321 391.891 387.489 391.595 387.704 391.357C387.923 391.114 388.178 390.932 388.467 390.811C388.756 390.685 389.062 390.622 389.384 390.622C389.482 390.622 389.575 390.629 389.664 390.643C389.753 390.652 389.823 390.671 389.874 390.699V392.141C389.813 392.113 389.734 392.094 389.636 392.085C389.543 392.076 389.461 392.069 389.391 392.064C389.074 392.041 388.784 392.057 388.523 392.113C388.262 392.169 388.035 392.262 387.844 392.393C387.657 392.524 387.513 392.694 387.41 392.904C387.312 393.114 387.263 393.361 387.263 393.646V398H385.765ZM393.141 398.14C392.674 398.14 392.259 398.056 391.895 397.888C391.535 397.72 391.253 397.477 391.048 397.16C390.842 396.843 390.74 396.46 390.74 396.012C390.74 395.209 391.024 394.61 391.594 394.213C392.163 393.816 393.071 393.606 394.317 393.583L395.507 393.548V393.023C395.507 392.608 395.383 392.281 395.136 392.043C394.888 391.805 394.508 391.688 393.995 391.693C393.607 391.693 393.262 391.782 392.959 391.959C392.66 392.136 392.464 392.428 392.371 392.834H391.069C391.097 392.353 391.234 391.95 391.482 391.623C391.734 391.292 392.079 391.042 392.518 390.874C392.956 390.706 393.472 390.622 394.065 390.622C394.723 390.622 395.264 390.713 395.689 390.895C396.113 391.072 396.428 391.334 396.634 391.679C396.844 392.024 396.949 392.444 396.949 392.939V398H395.682L395.563 396.67C395.292 397.225 394.949 397.61 394.534 397.825C394.123 398.035 393.659 398.14 393.141 398.14ZM393.61 397.097C393.838 397.097 394.065 397.057 394.289 396.978C394.513 396.894 394.716 396.782 394.898 396.642C395.08 396.497 395.224 396.336 395.332 396.159C395.444 395.982 395.502 395.8 395.507 395.613V394.416L394.527 394.437C394.027 394.442 393.603 394.493 393.253 394.591C392.907 394.689 392.641 394.841 392.455 395.046C392.273 395.251 392.182 395.524 392.182 395.865C392.182 396.252 392.317 396.556 392.588 396.775C392.858 396.99 393.199 397.097 393.61 397.097ZM402.592 391.84H400.968L400.975 396.159C400.975 396.397 400.998 396.572 401.045 396.684C401.096 396.791 401.18 396.861 401.297 396.894C401.418 396.922 401.582 396.936 401.787 396.936H402.634V397.909C402.541 397.946 402.401 397.979 402.214 398.007C402.032 398.035 401.796 398.049 401.507 398.049C400.97 398.049 400.553 397.977 400.254 397.832C399.96 397.687 399.755 397.48 399.638 397.209C399.526 396.934 399.47 396.602 399.47 396.215V391.84H398.294V390.762H399.512L399.883 388.634H400.968V390.755H402.592V391.84ZM405.941 390.762V398H404.499V390.762H405.941ZM405.969 387.885V389.362H404.464V387.885H405.969ZM411.031 398.14C410.355 398.14 409.762 397.995 409.253 397.706C408.749 397.412 408.357 396.987 408.077 396.432C407.802 395.877 407.664 395.205 407.664 394.416C407.664 393.655 407.795 392.99 408.056 392.421C408.322 391.852 408.707 391.411 409.211 391.098C409.715 390.781 410.324 390.622 411.038 390.622C411.72 390.622 412.31 390.771 412.809 391.07C413.309 391.364 413.696 391.796 413.971 392.365C414.247 392.93 414.384 393.613 414.384 394.416C414.384 395.149 414.254 395.795 413.992 396.355C413.736 396.915 413.358 397.354 412.858 397.671C412.364 397.984 411.755 398.14 411.031 398.14ZM411.038 396.985C411.449 396.985 411.792 396.878 412.067 396.663C412.347 396.444 412.557 396.138 412.697 395.746C412.837 395.349 412.907 394.892 412.907 394.374C412.907 393.893 412.844 393.457 412.718 393.065C412.597 392.668 412.399 392.353 412.123 392.12C411.848 391.887 411.486 391.77 411.038 391.77C410.618 391.77 410.268 391.877 409.988 392.092C409.708 392.302 409.496 392.603 409.351 392.995C409.211 393.382 409.141 393.842 409.141 394.374C409.141 394.845 409.204 395.279 409.33 395.676C409.456 396.073 409.659 396.39 409.939 396.628C410.219 396.866 410.586 396.985 411.038 396.985ZM415.994 398V390.762H417.457V391.805C417.573 391.609 417.73 391.425 417.926 391.252C418.126 391.079 418.371 390.939 418.661 390.832C418.955 390.725 419.293 390.671 419.676 390.671C420.128 390.671 420.546 390.762 420.929 390.944C421.316 391.121 421.626 391.401 421.86 391.784C422.093 392.162 422.21 392.652 422.21 393.254V398H420.712V393.415C420.712 392.897 420.572 392.512 420.292 392.26C420.016 392.008 419.659 391.882 419.221 391.882C418.927 391.882 418.647 391.931 418.381 392.029C418.115 392.127 417.9 392.276 417.737 392.477C417.573 392.673 417.492 392.92 417.492 393.219V398H415.994Z" fill="#596B7A"/>
<circle cx="933" cy="393" r="5" fill="#596B7A"/>
<path d="M954.876 394.402C954.876 395.191 954.745 395.865 954.484 396.425C954.223 396.98 953.812 397.405 953.252 397.699C952.697 397.993 951.971 398.14 951.075 398.14C950.17 398.14 949.437 397.991 948.877 397.692C948.322 397.393 947.916 396.957 947.659 396.383C947.407 395.809 947.281 395.109 947.281 394.283V387.878H948.828V394.472C948.828 395.275 949.024 395.872 949.416 396.264C949.813 396.651 950.366 396.845 951.075 396.845C951.546 396.845 951.952 396.761 952.293 396.593C952.638 396.42 952.902 396.159 953.084 395.809C953.266 395.454 953.357 395.009 953.357 394.472V387.878H954.876V394.402ZM959.566 398.14C959.062 398.14 958.589 398.061 958.145 397.902C957.707 397.743 957.338 397.494 957.039 397.153C956.745 396.812 956.561 396.376 956.486 395.844H957.823C957.884 396.119 957.998 396.348 958.166 396.53C958.339 396.707 958.544 396.84 958.782 396.929C959.025 397.013 959.284 397.055 959.559 397.055C960.017 397.055 960.385 396.973 960.665 396.81C960.95 396.642 961.092 396.385 961.092 396.04C961.092 395.793 961.015 395.594 960.861 395.445C960.712 395.296 960.474 395.186 960.147 395.116L958.705 394.773C958.108 394.633 957.63 394.411 957.27 394.108C956.911 393.8 956.729 393.371 956.724 392.82C956.724 392.395 956.829 392.017 957.039 391.686C957.254 391.355 957.571 391.096 957.991 390.909C958.411 390.718 958.934 390.622 959.559 390.622C960.376 390.622 961.032 390.804 961.526 391.168C962.021 391.532 962.278 392.059 962.296 392.75H961.001C960.955 392.419 960.803 392.16 960.546 391.973C960.294 391.782 959.961 391.686 959.545 391.686C959.116 391.686 958.764 391.772 958.488 391.945C958.213 392.113 958.075 392.372 958.075 392.722C958.075 392.96 958.176 393.149 958.376 393.289C958.577 393.424 958.878 393.536 959.279 393.625L960.651 393.968C961.006 394.061 961.298 394.185 961.526 394.339C961.755 394.488 961.935 394.654 962.065 394.836C962.196 395.018 962.287 395.207 962.338 395.403C962.394 395.599 962.422 395.783 962.422 395.956C962.422 396.413 962.306 396.805 962.072 397.132C961.844 397.454 961.515 397.704 961.085 397.881C960.661 398.054 960.154 398.14 959.566 398.14ZM965.253 394.731C965.253 395.165 965.323 395.555 965.463 395.9C965.607 396.241 965.824 396.511 966.114 396.712C966.403 396.908 966.762 397.006 967.192 397.006C967.621 397.006 967.992 396.908 968.305 396.712C968.622 396.516 968.83 396.224 968.928 395.837H970.314C970.23 396.332 970.031 396.752 969.719 397.097C969.411 397.442 969.037 397.704 968.599 397.881C968.16 398.054 967.7 398.14 967.22 398.14C966.534 398.14 965.929 397.993 965.407 397.699C964.884 397.4 964.476 396.976 964.182 396.425C963.892 395.874 963.748 395.219 963.748 394.458C963.748 393.707 963.881 393.044 964.147 392.47C964.413 391.891 964.798 391.439 965.302 391.112C965.806 390.785 966.412 390.622 967.122 390.622C967.822 390.622 968.41 390.771 968.886 391.07C969.366 391.369 969.73 391.789 969.978 392.33C970.225 392.867 970.349 393.501 970.349 394.234V394.731H965.253ZM965.253 393.758H968.921C968.921 393.38 968.855 393.037 968.725 392.729C968.594 392.416 968.393 392.171 968.123 391.994C967.857 391.812 967.521 391.721 967.115 391.721C966.699 391.721 966.354 391.821 966.079 392.022C965.803 392.223 965.596 392.479 965.456 392.792C965.32 393.105 965.253 393.427 965.253 393.758ZM972.021 398V390.762H973.456V392.246C973.577 391.891 973.745 391.595 973.96 391.357C974.179 391.114 974.434 390.932 974.723 390.811C975.012 390.685 975.318 390.622 975.64 390.622C975.738 390.622 975.831 390.629 975.92 390.643C976.009 390.652 976.079 390.671 976.13 390.699V392.141C976.069 392.113 975.99 392.094 975.892 392.085C975.799 392.076 975.717 392.069 975.647 392.064C975.33 392.041 975.04 392.057 974.779 392.113C974.518 392.169 974.291 392.262 974.1 392.393C973.913 392.524 973.769 392.694 973.666 392.904C973.568 393.114 973.519 393.361 973.519 393.646V398H972.021ZM980.129 398.14C979.625 398.14 979.151 398.061 978.708 397.902C978.269 397.743 977.901 397.494 977.602 397.153C977.308 396.812 977.124 396.376 977.049 395.844H978.386C978.447 396.119 978.561 396.348 978.729 396.53C978.902 396.707 979.107 396.84 979.345 396.929C979.588 397.013 979.847 397.055 980.122 397.055C980.579 397.055 980.948 396.973 981.228 396.81C981.513 396.642 981.655 396.385 981.655 396.04C981.655 395.793 981.578 395.594 981.424 395.445C981.275 395.296 981.037 395.186 980.71 395.116L979.268 394.773C978.671 394.633 978.192 394.411 977.833 394.108C977.474 393.8 977.292 393.371 977.287 392.82C977.287 392.395 977.392 392.017 977.602 391.686C977.817 391.355 978.134 391.096 978.554 390.909C978.974 390.718 979.497 390.622 980.122 390.622C980.939 390.622 981.594 390.804 982.089 391.168C982.584 391.532 982.84 392.059 982.859 392.75H981.564C981.517 392.419 981.366 392.16 981.109 391.973C980.857 391.782 980.523 391.686 980.108 391.686C979.679 391.686 979.326 391.772 979.051 391.945C978.776 392.113 978.638 392.372 978.638 392.722C978.638 392.96 978.738 393.149 978.939 393.289C979.14 393.424 979.441 393.536 979.842 393.625L981.214 393.968C981.569 394.061 981.86 394.185 982.089 394.339C982.318 394.488 982.497 394.654 982.628 394.836C982.759 395.018 982.85 395.207 982.901 395.403C982.957 395.599 982.985 395.783 982.985 395.956C982.985 396.413 982.868 396.805 982.635 397.132C982.406 397.454 982.077 397.704 981.648 397.881C981.223 398.054 980.717 398.14 980.129 398.14Z" fill="#596B7A"/>
<circle cx="1001" cy="393" r="5" fill="#ABB7C1"/>
<path d="M1014.31 389.243V387.878H1022.09V389.243H1019.03V398H1017.51V389.243H1014.31ZM1025.35 398.14C1024.67 398.14 1024.08 397.995 1023.57 397.706C1023.07 397.412 1022.68 396.987 1022.4 396.432C1022.12 395.877 1021.98 395.205 1021.98 394.416C1021.98 393.655 1022.12 392.99 1022.38 392.421C1022.64 391.852 1023.03 391.411 1023.53 391.098C1024.04 390.781 1024.64 390.622 1025.36 390.622C1026.04 390.622 1026.63 390.771 1027.13 391.07C1027.63 391.364 1028.02 391.796 1028.29 392.365C1028.57 392.93 1028.7 393.613 1028.7 394.416C1028.7 395.149 1028.57 395.795 1028.31 396.355C1028.06 396.915 1027.68 397.354 1027.18 397.671C1026.68 397.984 1026.07 398.14 1025.35 398.14ZM1025.36 396.985C1025.77 396.985 1026.11 396.878 1026.39 396.663C1026.67 396.444 1026.88 396.138 1027.02 395.746C1027.16 395.349 1027.23 394.892 1027.23 394.374C1027.23 393.893 1027.16 393.457 1027.04 393.065C1026.92 392.668 1026.72 392.353 1026.44 392.12C1026.17 391.887 1025.81 391.77 1025.36 391.77C1024.94 391.77 1024.59 391.877 1024.31 392.092C1024.03 392.302 1023.82 392.603 1023.67 392.995C1023.53 393.382 1023.46 393.842 1023.46 394.374C1023.46 394.845 1023.52 395.279 1023.65 395.676C1023.78 396.073 1023.98 396.39 1024.26 396.628C1024.54 396.866 1024.91 396.985 1025.36 396.985ZM1033.96 391.84H1032.34L1032.34 396.159C1032.34 396.397 1032.37 396.572 1032.41 396.684C1032.47 396.791 1032.55 396.861 1032.67 396.894C1032.79 396.922 1032.95 396.936 1033.16 396.936H1034V397.909C1033.91 397.946 1033.77 397.979 1033.58 398.007C1033.4 398.035 1033.17 398.049 1032.88 398.049C1032.34 398.049 1031.92 397.977 1031.62 397.832C1031.33 397.687 1031.12 397.48 1031.01 397.209C1030.9 396.934 1030.84 396.602 1030.84 396.215V391.84H1029.66V390.762H1030.88L1031.25 388.634H1032.34V390.755H1033.96V391.84ZM1037.72 398.14C1037.25 398.14 1036.83 398.056 1036.47 397.888C1036.11 397.72 1035.83 397.477 1035.62 397.16C1035.42 396.843 1035.32 396.46 1035.32 396.012C1035.32 395.209 1035.6 394.61 1036.17 394.213C1036.74 393.816 1037.65 393.606 1038.89 393.583L1040.08 393.548V393.023C1040.08 392.608 1039.96 392.281 1039.71 392.043C1039.46 391.805 1039.08 391.688 1038.57 391.693C1038.18 391.693 1037.84 391.782 1037.53 391.959C1037.24 392.136 1037.04 392.428 1036.95 392.834H1035.64C1035.67 392.353 1035.81 391.95 1036.06 391.623C1036.31 391.292 1036.66 391.042 1037.09 390.874C1037.53 390.706 1038.05 390.622 1038.64 390.622C1039.3 390.622 1039.84 390.713 1040.26 390.895C1040.69 391.072 1041 391.334 1041.21 391.679C1041.42 392.024 1041.52 392.444 1041.52 392.939V398H1040.26L1040.14 396.67C1039.87 397.225 1039.53 397.61 1039.11 397.825C1038.7 398.035 1038.23 398.14 1037.72 398.14ZM1038.19 397.097C1038.41 397.097 1038.64 397.057 1038.86 396.978C1039.09 396.894 1039.29 396.782 1039.47 396.642C1039.66 396.497 1039.8 396.336 1039.91 396.159C1040.02 395.982 1040.08 395.8 1040.08 395.613V394.416L1039.1 394.437C1038.6 394.442 1038.18 394.493 1037.83 394.591C1037.48 394.689 1037.22 394.841 1037.03 395.046C1036.85 395.251 1036.76 395.524 1036.76 395.865C1036.76 396.252 1036.89 396.556 1037.16 396.775C1037.43 396.99 1037.78 397.097 1038.19 397.097ZM1045.59 398.098C1045.16 398.098 1044.82 398.042 1044.55 397.93C1044.3 397.818 1044.1 397.669 1043.97 397.482C1043.83 397.291 1043.74 397.076 1043.69 396.838C1043.65 396.595 1043.63 396.346 1043.63 396.089V387.598H1045.11V395.935C1045.11 396.271 1045.17 396.528 1045.3 396.705C1045.44 396.882 1045.64 396.983 1045.92 397.006L1046.3 397.02V397.972C1046.18 398.009 1046.06 398.04 1045.93 398.063C1045.81 398.086 1045.7 398.098 1045.59 398.098ZM1051.05 400.254V390.762H1052.55L1052.57 391.966C1052.65 391.807 1052.77 391.651 1052.91 391.497C1053.05 391.338 1053.21 391.194 1053.41 391.063C1053.6 390.928 1053.82 390.82 1054.07 390.741C1054.32 390.662 1054.6 390.622 1054.9 390.622C1055.47 390.622 1055.98 390.755 1056.41 391.021C1056.85 391.282 1057.19 391.686 1057.43 392.232C1057.68 392.773 1057.8 393.462 1057.8 394.297C1057.8 395.137 1057.68 395.842 1057.43 396.411C1057.19 396.98 1056.84 397.412 1056.39 397.706C1055.94 397.995 1055.4 398.14 1054.78 398.14C1054.48 398.14 1054.21 398.098 1053.97 398.014C1053.74 397.93 1053.53 397.82 1053.34 397.685C1053.16 397.545 1053 397.396 1052.87 397.237C1052.75 397.074 1052.64 396.913 1052.56 396.754V400.254H1051.05ZM1054.46 396.999C1055.02 396.999 1055.47 396.784 1055.83 396.355C1056.19 395.921 1056.37 395.244 1056.37 394.325C1056.37 393.536 1056.2 392.913 1055.87 392.456C1055.54 391.994 1055.07 391.763 1054.46 391.763C1053.83 391.763 1053.36 392.003 1053.04 392.484C1052.71 392.96 1052.55 393.574 1052.55 394.325C1052.55 394.815 1052.62 395.263 1052.76 395.669C1052.91 396.07 1053.12 396.392 1053.41 396.635C1053.69 396.878 1054.04 396.999 1054.46 396.999ZM1062.35 398.14C1061.67 398.14 1061.08 397.995 1060.57 397.706C1060.07 397.412 1059.67 396.987 1059.39 396.432C1059.12 395.877 1058.98 395.205 1058.98 394.416C1058.98 393.655 1059.11 392.99 1059.37 392.421C1059.64 391.852 1060.02 391.411 1060.53 391.098C1061.03 390.781 1061.64 390.622 1062.35 390.622C1063.04 390.622 1063.63 390.771 1064.13 391.07C1064.62 391.364 1065.01 391.796 1065.29 392.365C1065.56 392.93 1065.7 393.613 1065.7 394.416C1065.7 395.149 1065.57 395.795 1065.31 396.355C1065.05 396.915 1064.67 397.354 1064.17 397.671C1063.68 397.984 1063.07 398.14 1062.35 398.14ZM1062.35 396.985C1062.77 396.985 1063.11 396.878 1063.38 396.663C1063.66 396.444 1063.87 396.138 1064.01 395.746C1064.15 395.349 1064.22 394.892 1064.22 394.374C1064.22 393.893 1064.16 393.457 1064.03 393.065C1063.91 392.668 1063.71 392.353 1063.44 392.12C1063.16 391.887 1062.8 391.77 1062.35 391.77C1061.93 391.77 1061.58 391.877 1061.3 392.092C1061.02 392.302 1060.81 392.603 1060.67 392.995C1060.53 393.382 1060.46 393.842 1060.46 394.374C1060.46 394.845 1060.52 395.279 1060.65 395.676C1060.77 396.073 1060.98 396.39 1061.26 396.628C1061.54 396.866 1061.9 396.985 1062.35 396.985ZM1067.31 400.254V390.762H1068.81L1068.82 391.966C1068.91 391.807 1069.02 391.651 1069.16 391.497C1069.3 391.338 1069.47 391.194 1069.66 391.063C1069.86 390.928 1070.08 390.82 1070.33 390.741C1070.58 390.662 1070.86 390.622 1071.16 390.622C1071.73 390.622 1072.23 390.755 1072.66 391.021C1073.1 391.282 1073.44 391.686 1073.69 392.232C1073.93 392.773 1074.06 393.462 1074.06 394.297C1074.06 395.137 1073.93 395.842 1073.69 396.411C1073.44 396.98 1073.1 397.412 1072.64 397.706C1072.19 397.995 1071.65 398.14 1071.03 398.14C1070.74 398.14 1070.47 398.098 1070.23 398.014C1069.99 397.93 1069.78 397.82 1069.6 397.685C1069.42 397.545 1069.26 397.396 1069.13 397.237C1069 397.074 1068.9 396.913 1068.81 396.754V400.254H1067.31ZM1070.72 396.999C1071.27 396.999 1071.73 396.784 1072.08 396.355C1072.44 395.921 1072.62 395.244 1072.62 394.325C1072.62 393.536 1072.46 392.913 1072.13 392.456C1071.8 391.994 1071.33 391.763 1070.72 391.763C1070.09 391.763 1069.61 392.003 1069.29 392.484C1068.97 392.96 1068.81 393.574 1068.81 394.325C1068.81 394.815 1068.88 395.263 1069.02 395.669C1069.16 396.07 1069.38 396.392 1069.66 396.635C1069.95 396.878 1070.3 396.999 1070.72 396.999ZM1078.21 398.14C1077.85 398.135 1077.5 398.082 1077.17 397.979C1076.84 397.876 1076.54 397.722 1076.28 397.517C1076.03 397.312 1075.82 397.057 1075.67 396.754C1075.52 396.451 1075.44 396.098 1075.44 395.697V390.762H1076.95V395.536C1076.95 395.97 1077.08 396.322 1077.35 396.593C1077.62 396.864 1078.03 396.999 1078.58 396.999C1079.07 396.999 1079.47 396.871 1079.77 396.614C1080.07 396.353 1080.22 395.972 1080.22 395.473V390.762H1081.71V398H1080.55L1080.38 396.6C1080.29 396.978 1080.14 397.281 1079.92 397.51C1079.71 397.734 1079.45 397.897 1079.15 398C1078.86 398.098 1078.55 398.145 1078.21 398.14ZM1085.68 398.098C1085.25 398.098 1084.9 398.042 1084.64 397.93C1084.38 397.818 1084.19 397.669 1084.05 397.482C1083.92 397.291 1083.83 397.076 1083.78 396.838C1083.74 396.595 1083.72 396.346 1083.72 396.089V387.598H1085.19V395.935C1085.19 396.271 1085.26 396.528 1085.39 396.705C1085.52 396.882 1085.73 396.983 1086.01 397.006L1086.38 397.02V397.972C1086.27 398.009 1086.15 398.04 1086.02 398.063C1085.9 398.086 1085.78 398.098 1085.68 398.098ZM1089.94 398.14C1089.48 398.14 1089.06 398.056 1088.7 397.888C1088.34 397.72 1088.06 397.477 1087.85 397.16C1087.65 396.843 1087.54 396.46 1087.54 396.012C1087.54 395.209 1087.83 394.61 1088.4 394.213C1088.97 393.816 1089.87 393.606 1091.12 393.583L1092.31 393.548V393.023C1092.31 392.608 1092.19 392.281 1091.94 392.043C1091.69 391.805 1091.31 391.688 1090.8 391.693C1090.41 391.693 1090.06 391.782 1089.76 391.959C1089.46 392.136 1089.27 392.428 1089.17 392.834H1087.87C1087.9 392.353 1088.04 391.95 1088.28 391.623C1088.54 391.292 1088.88 391.042 1089.32 390.874C1089.76 390.706 1090.27 390.622 1090.87 390.622C1091.53 390.622 1092.07 390.713 1092.49 390.895C1092.92 391.072 1093.23 391.334 1093.44 391.679C1093.65 392.024 1093.75 392.444 1093.75 392.939V398H1092.48L1092.37 396.67C1092.09 397.225 1091.75 397.61 1091.34 397.825C1090.93 398.035 1090.46 398.14 1089.94 398.14ZM1090.41 397.097C1090.64 397.097 1090.87 397.057 1091.09 396.978C1091.32 396.894 1091.52 396.782 1091.7 396.642C1091.88 396.497 1092.03 396.336 1092.13 396.159C1092.25 395.982 1092.3 395.8 1092.31 395.613V394.416L1091.33 394.437C1090.83 394.442 1090.41 394.493 1090.06 394.591C1089.71 394.689 1089.44 394.841 1089.26 395.046C1089.08 395.251 1088.98 395.524 1088.98 395.865C1088.98 396.252 1089.12 396.556 1089.39 396.775C1089.66 396.99 1090 397.097 1090.41 397.097ZM1099.39 391.84H1097.77L1097.78 396.159C1097.78 396.397 1097.8 396.572 1097.85 396.684C1097.9 396.791 1097.98 396.861 1098.1 396.894C1098.22 396.922 1098.38 396.936 1098.59 396.936H1099.44V397.909C1099.34 397.946 1099.2 397.979 1099.02 398.007C1098.83 398.035 1098.6 398.049 1098.31 398.049C1097.77 398.049 1097.36 397.977 1097.06 397.832C1096.76 397.687 1096.56 397.48 1096.44 397.209C1096.33 396.934 1096.27 396.602 1096.27 396.215V391.84H1095.1V390.762H1096.31L1096.69 388.634H1097.77V390.755H1099.39V391.84ZM1102.74 390.762V398H1101.3V390.762H1102.74ZM1102.77 387.885V389.362H1101.27V387.885H1102.77ZM1107.83 398.14C1107.16 398.14 1106.56 397.995 1106.06 397.706C1105.55 397.412 1105.16 396.987 1104.88 396.432C1104.6 395.877 1104.47 395.205 1104.47 394.416C1104.47 393.655 1104.6 392.99 1104.86 392.421C1105.12 391.852 1105.51 391.411 1106.01 391.098C1106.52 390.781 1107.13 390.622 1107.84 390.622C1108.52 390.622 1109.11 390.771 1109.61 391.07C1110.11 391.364 1110.5 391.796 1110.77 392.365C1111.05 392.93 1111.19 393.613 1111.19 394.416C1111.19 395.149 1111.06 395.795 1110.79 396.355C1110.54 396.915 1110.16 397.354 1109.66 397.671C1109.17 397.984 1108.56 398.14 1107.83 398.14ZM1107.84 396.985C1108.25 396.985 1108.59 396.878 1108.87 396.663C1109.15 396.444 1109.36 396.138 1109.5 395.746C1109.64 395.349 1109.71 394.892 1109.71 394.374C1109.71 393.893 1109.65 393.457 1109.52 393.065C1109.4 392.668 1109.2 392.353 1108.93 392.12C1108.65 391.887 1108.29 391.77 1107.84 391.77C1107.42 391.77 1107.07 391.877 1106.79 392.092C1106.51 392.302 1106.3 392.603 1106.15 392.995C1106.01 393.382 1105.94 393.842 1105.94 394.374C1105.94 394.845 1106.01 395.279 1106.13 395.676C1106.26 396.073 1106.46 396.39 1106.74 396.628C1107.02 396.866 1107.39 396.985 1107.84 396.985ZM1112.8 398V390.762H1114.26V391.805C1114.38 391.609 1114.53 391.425 1114.73 391.252C1114.93 391.079 1115.17 390.939 1115.46 390.832C1115.76 390.725 1116.1 390.671 1116.48 390.671C1116.93 390.671 1117.35 390.762 1117.73 390.944C1118.12 391.121 1118.43 391.401 1118.66 391.784C1118.9 392.162 1119.01 392.652 1119.01 393.254V398H1117.51V393.415C1117.51 392.897 1117.37 392.512 1117.09 392.26C1116.82 392.008 1116.46 391.882 1116.02 391.882C1115.73 391.882 1115.45 391.931 1115.18 392.029C1114.92 392.127 1114.7 392.276 1114.54 392.477C1114.38 392.673 1114.29 392.92 1114.29 393.219V398H1112.8Z" fill="#596B7A"/>
</svg>
