<svg xmlns="http://www.w3.org/2000/svg" width="15" height="18" viewBox="0 0 15 18">
    <g fill="#6B6B6B" fillRule="nonzero">
        <path d="M1.292 16.823c0 .617.506 1.116 1.129 1.116h10.158c.626 0 1.131-.5 1.131-1.116V5.327H1.292v11.496zM10.25 6.434H12v9.297c0 .48-.392.867-.873.867a.872.872 0 0 1-.876-.867V6.434zm-3.623 0h1.751v9.297c0 .48-.391.867-.875.867a.871.871 0 0 1-.876-.867V6.434zm-3.649 0h1.749v9.297c0 .48-.392.867-.874.867a.87.87 0 0 1-.874-.867V6.434zM13.707 1.256H9.276V.619S9.256.06 8.692.06h-2.42c-.565 0-.545.558-.545.558v.637H1.293c-.623 0-1.13.5-1.13 1.117V4.21h14.674V2.373c0-.617-.506-1.117-1.13-1.117z"/>
    </g>
</svg>
