<svg width="345" height="286" viewBox="0 0 345 286" fill="none" xmlns="http://www.w3.org/2000/svg">
<g clip-path="url(#clip0)">
<path opacity="0.1" d="M322.219 158.035C308.968 179.463 311.451 208.656 317.271 231.673C319.218 239.38 321.462 247.516 319.797 256.141C317.761 266.687 310.336 274.969 302.823 279.712C289.125 288.337 273.483 288.097 262.093 279.08C252.258 271.29 245.78 257.705 235.737 250.334C218.945 237.994 195.887 245.473 175.865 257.005C161.706 265.144 146.122 275.501 133.035 269.637C123.828 265.519 118.086 253.901 115.407 241.259C114.113 235.155 113.331 228.487 110.365 223.837C108.6 221.073 106.175 219.223 103.659 217.705C80.7044 203.87 49.6464 215.438 27.5095 199.77C12.5575 189.191 4.05794 167.342 1.26404 143.978C-1.52986 120.614 0.767427 95.6141 3.6435 71.0001C5.69069 53.5003 8.45958 34.7791 17.6487 20.5471C27.3702 5.49376 42.6938 -1.2383 56.013 0.190256C69.3323 1.61881 80.8973 10.0544 90.8653 20.365C103.324 33.2506 114.56 49.7075 130.684 53.8646C141.666 56.6967 153.66 53.4182 165.339 51.5646C184.84 48.4647 204.068 49.3539 223.161 50.5182C241.439 51.6325 259.828 53.0182 276.86 59.4467C288.911 64.0002 298.16 73.4786 309.407 79.6428C316.739 83.6606 325.01 84.1713 331.841 89.5284C340.255 96.1283 347.536 108.31 344.167 123.71C340.955 138.36 329.251 146.663 322.219 158.035Z" fill="#6C63FF"/>
<path d="M237.406 109.599C237.406 109.599 273.491 79.374 281.516 64.1349C289.54 48.8958 299.754 35.7638 299.754 35.7638" stroke="#535461" stroke-width="2" stroke-miterlimit="10"/>
<path d="M295.01 69.8313L279.4 66.3135C279.4 66.3135 283.084 82.7704 295.01 69.8313Z" fill="#6C63FF"/>
<path d="M271.158 53.0315L280.14 66.4778C280.14 66.4778 262.58 67.7456 271.158 53.0315Z" fill="#6C63FF"/>
<path d="M301.151 57.1921L286.885 54.6921C286.885 54.6921 295.845 68.317 301.151 57.1921Z" fill="#6C63FF"/>
<path d="M280.04 45.1744L287.068 54.3743C287.068 54.3743 274.627 55.5529 280.04 45.1744Z" fill="#6C63FF"/>
<path d="M294.264 43.3423C294.264 43.3423 306.411 43.9209 307.84 45.0816C309.269 46.2423 306.029 53.0457 301.409 51.935C296.79 50.8243 294.264 43.3423 294.264 43.3423Z" fill="#6C63FF"/>
<path d="M289.408 32.4889C289.408 32.4889 294.371 41.5281 294.185 43.2495C293.999 44.9709 286.621 46.903 285.132 40.3924C283.642 33.8817 289.408 32.4889 289.408 32.4889Z" fill="#6C63FF"/>
<path d="M304.84 39.3926C305.402 37.6144 304.415 35.7176 302.636 35.1561C300.857 34.5945 298.96 35.5808 298.398 37.3591C297.836 39.1373 298.823 41.0341 300.602 41.5956C302.381 42.1572 304.278 41.1709 304.84 39.3926Z" fill="#FFD037"/>
<path d="M299.552 35.9178C300.114 34.1395 299.127 32.2427 297.348 31.6812C295.569 31.1196 293.672 32.106 293.11 33.8842C292.548 35.6624 293.535 37.5592 295.314 38.1208C297.093 38.6823 298.99 37.696 299.552 35.9178Z" fill="#FFD037"/>
<path d="M124.854 228.079C124.854 228.079 130.645 210.858 93.9317 190.098C93.9317 190.098 56.6535 179.23 60.4657 141.909C60.4657 141.909 17.4925 173.38 46.5712 213.469C75.6499 253.558 100.749 244.808 100.749 244.808L124.854 228.079Z" fill="#6C63FF"/>
<path d="M113.66 235.858C113.66 235.858 95.7465 216.504 78.5758 209.022C75.1458 207.479 71.994 205.381 69.2473 202.812C58.3004 192.812 53.5272 177.723 56.3497 163.169L60.4762 141.909" stroke="#535461" stroke-width="2" stroke-miterlimit="10"/>
<path d="M272.845 11.8571H68.9795V248.472H272.845V11.8571Z" fill="url(#paint0_linear)"/>
<path d="M270.473 14.6105H71.3555V245.711H270.473V14.6105Z" fill="#F7F7FD"/>
<path d="M133.717 40.6602H83.3809V44.6673H133.717V40.6602Z" fill="#E2E2EC"/>
<path d="M169.352 50.4565H83.3809V54.4636H169.352V50.4565Z" fill="#E2E2EC"/>
<path d="M260.936 36.8317H225.212V67.6456H260.936V36.8317Z" fill="white"/>
<path d="M260.747 37.0102V67.467H225.377V37.0102H260.747ZM261.104 36.6531H225.02V67.8241H261.104V36.6531Z" fill="#E2E2EC"/>
<path d="M224.855 36.8317H189.131V67.6456H224.855V36.8317Z" fill="white"/>
<path d="M224.662 37.0102V67.467H189.292V37.0102H224.662ZM225.019 36.6531H188.935V67.8241H225.019V36.6531Z" fill="#E2E2EC"/>
<path d="M260.936 68.0027H225.212V98.8166H260.936V68.0027Z" fill="white"/>
<path d="M260.747 68.1812V98.638H225.377V68.1812H260.747ZM261.104 67.8241H225.02V98.9951H261.104V67.8241Z" fill="#E2E2EC"/>
<path d="M224.855 68.0027H189.131V98.8166H224.855V68.0027Z" fill="white"/>
<path d="M224.662 68.1812V98.638H189.292V68.1812H224.662ZM225.019 67.8241H188.935V98.9951H225.019V67.8241Z" fill="#E2E2EC"/>
<path d="M188.774 68.0027H153.05V98.8166H188.774V68.0027Z" fill="white"/>
<path d="M188.595 68.1812V98.638H153.224V68.1812H188.595ZM188.952 67.8241H152.867V98.9951H188.952V67.8241Z" fill="#E2E2EC"/>
<path d="M152.693 68.0027H116.969V98.8166H152.693V68.0027Z" fill="white"/>
<path d="M152.514 68.1812V98.638H117.143V68.1812H152.514ZM152.871 67.8241H116.786V98.9951H152.871V67.8241Z" fill="#E2E2EC"/>
<path d="M116.611 68.0027H80.8867V98.8166H116.611V68.0027Z" fill="white"/>
<path d="M116.433 68.1812V98.638H81.0624V68.1812H116.433ZM116.79 67.8241H80.7051V98.9951H116.79V67.8241Z" fill="#E2E2EC"/>
<path d="M260.936 99.1702H225.212V129.984H260.936V99.1702Z" fill="white"/>
<path d="M260.747 99.3524V129.809H225.377V99.3524H260.747ZM261.104 98.9952H225.02V130.166H261.104V98.9952Z" fill="#E2E2EC"/>
<path d="M224.855 99.1702H189.131V129.984H224.855V99.1702Z" fill="white"/>
<path d="M224.662 99.3524V129.809H189.292V99.3524H224.662ZM225.019 98.9952H188.935V130.166H225.019V98.9952Z" fill="#E2E2EC"/>
<path d="M188.774 99.1702H153.05V129.984H188.774V99.1702Z" fill="white"/>
<path d="M188.595 99.3524V129.809H153.224V99.3524H188.595ZM188.952 98.9952H152.867V130.166H188.952V98.9952Z" fill="#E2E2EC"/>
<path d="M152.693 99.1702H116.969V129.984H152.693V99.1702Z" fill="white"/>
<path d="M152.514 99.3524V129.809H117.143V99.3524H152.514ZM152.871 98.9952H116.786V130.166H152.871V98.9952Z" fill="#E2E2EC"/>
<path d="M116.611 99.1702H80.8867V129.984H116.611V99.1702Z" fill="white"/>
<path d="M116.433 99.3524V129.809H81.0624V99.3524H116.433ZM116.79 98.9952H80.7051V130.166H116.79V98.9952Z" fill="#E2E2EC"/>
<path d="M260.936 130.341H225.212V161.155H260.936V130.341Z" fill="white"/>
<path d="M260.747 130.52V160.977H225.377V130.52H260.747ZM261.104 130.163H225.02V161.334H261.104V130.163Z" fill="#E2E2EC"/>
<path d="M224.855 130.341H189.131V161.155H224.855V130.341Z" fill="white"/>
<path d="M224.662 130.52V160.977H189.292V130.52H224.662ZM225.019 130.163H188.935V161.334H225.019V130.163Z" fill="#E2E2EC"/>
<path d="M188.774 130.341H153.05V161.155H188.774V130.341Z" fill="white"/>
<path d="M188.595 130.52V160.977H153.224V130.52H188.595ZM188.952 130.163H152.867V161.334H188.952V130.163Z" fill="#E2E2EC"/>
<path d="M152.693 130.341H116.969V161.155H152.693V130.341Z" fill="white"/>
<path d="M152.514 130.52V160.977H117.143V130.52H152.514ZM152.871 130.163H116.786V161.334H152.871V130.163Z" fill="#E2E2EC"/>
<path d="M116.611 130.341H80.8867V161.155H116.611V130.341Z" fill="white"/>
<path d="M116.433 130.52V160.977H81.0624V130.52H116.433ZM116.79 130.163H80.7051V161.334H116.79V130.163Z" fill="#E2E2EC"/>
<path d="M260.936 161.509H225.212V192.323H260.936V161.509Z" fill="white"/>
<path d="M260.747 161.691V192.144H225.377V161.691H260.747ZM261.104 161.334H225.02V192.501H261.104V161.334Z" fill="#E2E2EC"/>
<path d="M224.855 161.509H189.131V192.323H224.855V161.509Z" fill="white"/>
<path d="M224.662 161.691V192.144H189.292V161.691H224.662ZM225.019 161.334H188.935V192.501H225.019V161.334Z" fill="#E2E2EC"/>
<path d="M188.774 161.509H153.05V192.323H188.774V161.509Z" fill="white"/>
<path d="M188.595 161.691V192.144H153.224V161.691H188.595ZM188.952 161.334H152.867V192.501H188.952V161.334Z" fill="#E2E2EC"/>
<path d="M152.693 161.509H116.969V192.323H152.693V161.509Z" fill="white"/>
<path d="M152.514 161.691V192.144H117.143V161.691H152.514ZM152.871 161.334H116.786V192.501H152.871V161.334Z" fill="#E2E2EC"/>
<path d="M116.611 161.509H80.8867V192.323H116.611V161.509Z" fill="white"/>
<path d="M116.433 161.691V192.144H81.0624V161.691H116.433ZM116.79 161.334H80.7051V192.501H116.79V161.334Z" fill="#E2E2EC"/>
<path d="M260.936 192.68H225.212V223.494H260.936V192.68Z" fill="white"/>
<path d="M260.747 192.858V223.315H225.377V192.858H260.747ZM261.104 192.501H225.02V223.672H261.104V192.501Z" fill="#E2E2EC"/>
<path d="M224.855 192.68H189.131V223.494H224.855V192.68Z" fill="white"/>
<path d="M224.662 192.858V223.315H189.292V192.858H224.662ZM225.019 192.501H188.935V223.672H225.019V192.501Z" fill="#E2E2EC"/>
<path d="M188.774 192.68H153.05V223.494H188.774V192.68Z" fill="white"/>
<path d="M188.595 192.858V223.315H153.224V192.858H188.595ZM188.952 192.501H152.867V223.672H188.952V192.501Z" fill="#E2E2EC"/>
<path d="M152.693 192.68H116.969V223.494H152.693V192.68Z" fill="white"/>
<path d="M152.514 192.858V223.315H117.143V192.858H152.514ZM152.871 192.501H116.786V223.672H152.871V192.501Z" fill="#E2E2EC"/>
<path d="M116.611 192.68H80.8867V223.494H116.611V192.68Z" fill="white"/>
<path d="M116.433 192.858V223.315H81.0624V192.858H116.433ZM116.79 192.501H80.7051V223.672H116.79V192.501Z" fill="#E2E2EC"/>
<path d="M155.922 251.743C156.944 250.968 157.905 250.054 158.202 248.94C158.354 248.35 158.273 247.724 157.976 247.192C157.68 246.661 157.19 246.263 156.608 246.083C155.147 245.625 153.586 246.44 152.399 247.286C151.213 248.133 149.859 249.072 148.309 248.897C149.913 247.736 150.677 245.854 150.234 244.143C150.158 243.775 149.971 243.438 149.698 243.179C148.887 242.465 147.415 242.775 146.444 243.333C143.353 245.118 142.492 248.529 142.474 251.611C142.163 250.5 142.424 249.343 142.417 248.2C142.41 247.058 142.028 245.797 140.849 245.183C140.094 244.856 139.277 244.698 138.455 244.722C137.065 244.679 135.518 244.793 134.571 245.622C133.392 246.65 133.7 248.379 134.725 249.511C135.75 250.643 137.312 251.354 138.744 252.136C139.838 252.732 140.945 253.429 141.602 254.372C141.689 254.497 141.761 254.631 141.817 254.772H150.524C152.442 253.989 154.255 252.972 155.922 251.743Z" fill="#6C63FF"/>
<path d="M264.642 166.294C266.875 167.612 270.358 168.469 274.77 165.637L274.728 171.909C275.042 176.194 280.362 191.876 280.362 191.876L284.113 204.769C286.801 213.877 288.189 223.319 288.236 232.815C288.236 235.961 288.529 239.204 289.433 241.643C291.43 247.04 288.647 253.993 287.439 256.582C285.407 257.269 283.34 257.851 281.248 258.325C281.06 258.369 280.875 258.425 280.694 258.493L280.669 258.457C280.669 258.457 275.038 260.69 272.537 260.382C270.672 260.154 269.504 262.479 270.965 264.19C269.586 264.547 268.171 264.8 267.218 264.682C264.717 264.375 263.463 268.675 268.157 269.904C272.852 271.132 299.451 269.904 299.451 269.904C300.199 269.53 300.802 268.917 301.164 268.164C301.526 267.41 301.627 266.557 301.452 265.739C303.495 265.661 304.771 265.6 304.771 265.6C304.771 265.6 309.465 263.457 304.771 257.611L304.521 257.8L303.517 254.847V250.858C303.517 250.858 309.462 222.286 307.586 218.908C305.71 215.529 304.771 198.326 304.771 198.326L305.407 179.587C307.104 176.087 307.972 170.601 308.411 166.312C309.05 164.266 309.453 162.153 309.612 160.016C309.687 159.009 309.748 157.952 309.787 156.855C309.803 154.45 309.409 152.06 308.622 149.787C310.409 147.216 313.313 143.241 315.711 140.891C319.466 137.205 318.526 132.902 318.526 132.902L316.961 122.456L313.206 104.638C313.678 99.6951 312.645 96.8487 311.505 95.2416C311.777 93.6452 312.031 92.0488 312.22 90.4452C313.052 83.472 312.681 76.4076 311.123 69.5598C310.58 67.1705 309.841 64.7206 308.165 62.9099C306.268 60.8599 303.188 59.6099 302.481 56.9242C302.306 56.2564 302.298 55.5457 302.045 54.9028C301.359 53.1457 299.187 52.5064 297.286 52.2779C293.899 51.8672 289.001 51.5636 285.746 52.885C283.474 53.8136 280.344 56.3707 279.101 59.1135C278.386 60.3742 278.054 61.6992 278.357 62.9456C278.477 63.4048 278.659 63.8457 278.897 64.2563C278.412 65.57 278.165 66.9595 278.168 68.3598C278.179 70.7668 278.915 73.1147 280.28 75.0976C281.645 77.0806 283.576 78.6068 285.821 79.4775C285.896 79.7132 285.964 79.9454 286.021 80.1739C286.163 80.7242 286.266 81.284 286.328 81.8489C286.268 82.9203 286.2 84.0239 286.15 85.1132C286.114 85.2632 286.076 85.4108 286.035 85.556C283.344 86.7471 280.72 88.0848 278.175 89.5631C280.054 92.3274 277.861 104.002 277.861 104.002C273.166 106.766 268.472 113.834 273.481 121.206C278.49 128.577 275.671 136.563 275.671 136.563L274.888 148.573V148.595L274.731 150.998H274.792L274.731 151.909L274.867 151.934V152.912C272.67 153.719 269.458 155.348 267.543 158.359C266.637 159.84 265.535 161.191 264.266 162.376C263.975 162.629 263.748 162.947 263.605 163.304C263.462 163.662 263.406 164.049 263.443 164.432C263.479 164.816 263.607 165.185 263.816 165.509C264.025 165.833 264.308 166.102 264.642 166.294ZM302.427 134.38C302.239 132.303 302.623 130.213 303.538 128.338C304.274 128.352 305.011 128.36 305.75 128.363C305.825 128.88 305.914 129.373 306.021 129.823C306.657 132.53 304.117 133.827 302.424 134.377L302.427 134.38Z" fill="url(#paint1_linear)"/>
<path d="M303.045 253.447L304.249 257.057L300.319 260.986L287.372 263.997L278.036 263.093L278.64 259.782C278.818 259.071 279.189 258.422 279.713 257.907C280.236 257.392 280.891 257.032 281.605 256.865C285.442 255.965 292.759 253.907 294.296 251.054L303.045 253.447Z" fill="#DB8B8B"/>
<path opacity="0.1" d="M303.045 253.447L304.249 257.057L300.319 260.986L287.372 263.997L278.036 263.093L278.64 259.782C278.818 259.071 279.189 258.422 279.713 257.907C280.236 257.392 280.891 257.032 281.605 256.865C285.442 255.965 292.759 253.907 294.296 251.054L303.045 253.447Z" fill="black"/>
<path d="M281.062 262.175L282.869 259.768L281.062 256.979C281.062 256.979 275.642 259.165 273.234 258.865C270.826 258.565 269.622 262.793 274.138 263.982C278.654 265.172 304.249 263.982 304.249 263.982C304.249 263.982 308.765 261.875 304.249 256.157L300.319 259.168C300.319 259.168 293.695 262.779 290.383 262.179L281.062 262.175Z" fill="#2E3037"/>
<path d="M272.931 267.286L282.266 268.189L295.214 265.179L299.144 261.25L298.826 260.293L298.376 258.95L297.926 257.643L289.194 255.236C288.748 255.964 288.136 256.576 287.408 257.022C284.571 258.961 279.476 260.361 276.486 261.061C276.364 261.091 276.245 261.128 276.128 261.172C275.495 261.384 274.925 261.753 274.472 262.244C274.019 262.734 273.696 263.331 273.534 263.979L272.931 267.286Z" fill="#DB8B8B"/>
<path opacity="0.1" d="M272.931 267.286L282.266 268.19L295.214 265.179L299.144 261.25L298.826 260.293L295.232 263.057C295.232 263.057 288.608 266.668 285.296 266.068H275.943L277.75 263.661L276.128 261.161C275.495 261.374 274.925 261.742 274.472 262.233C274.019 262.724 273.696 263.32 273.534 263.968L272.931 267.286Z" fill="black"/>
<path d="M275.942 266.39L277.75 263.982L275.942 261.193C275.942 261.193 270.523 263.379 268.115 263.079C265.706 262.779 264.502 267.007 269.018 268.197C273.534 269.386 299.13 268.197 299.13 268.197C299.13 268.197 303.646 266.09 299.13 260.372L295.2 263.382C295.2 263.382 288.576 266.993 285.264 266.393L275.942 266.39Z" fill="#2E3037"/>
<path d="M283.47 91.8095C283.47 91.8095 297.925 93.3131 295.817 87.2953C295.228 85.5888 295.074 83.762 295.371 81.9811C295.746 79.7731 296.619 77.6796 297.925 75.8597L284.374 77.9669C285.186 79.3242 285.804 80.7883 286.21 82.3168C287.825 88.6989 283.47 91.8095 283.47 91.8095Z" fill="#DB8B8B"/>
<path d="M308.161 160.437C308.161 160.437 307.861 173.38 304.849 179.701L304.245 198.062C304.245 198.062 305.149 214.919 306.957 218.229C308.765 221.54 303.027 249.533 303.027 249.533V254.35C303.027 254.35 293.381 257.961 290.68 253.747L293.391 217.926L292.187 168.262L308.161 160.437Z" fill="#474463"/>
<path opacity="0.1" d="M308.161 160.437C308.161 160.437 307.861 173.38 304.849 179.701L304.245 198.062C304.245 198.062 305.149 214.919 306.957 218.229C308.765 221.54 303.027 249.533 303.027 249.533V254.35C303.027 254.35 293.381 257.961 290.68 253.747L293.391 217.926L292.187 168.262L308.161 160.437Z" fill="black"/>
<path d="M314.185 118.899L315.992 123.716L317.497 133.952C317.7 135.378 317.56 136.832 317.088 138.192C316.617 139.553 315.827 140.782 314.785 141.777C311.173 145.388 306.353 152.912 306.353 152.912L300.637 135.77C300.637 135.77 306.353 134.866 305.456 130.952C304.56 127.038 304.849 119.788 304.849 119.788L314.185 118.899Z" fill="#FC6681"/>
<path opacity="0.05" d="M314.185 118.899L315.992 123.716L317.497 133.952C317.7 135.378 317.56 136.832 317.088 138.192C316.617 139.553 315.827 140.782 314.785 141.777C311.173 145.388 306.353 152.912 306.353 152.912L300.637 135.77C300.637 135.77 306.353 134.866 305.456 130.952C304.56 127.038 304.849 119.788 304.849 119.788L314.185 118.899Z" fill="black"/>
<path opacity="0.1" d="M287.421 257.025C291.283 263.097 297.296 259.657 298.361 258.972L297.925 257.643L289.193 255.236C288.751 255.964 288.144 256.577 287.421 257.025Z" fill="black"/>
<path d="M275.342 172.176C275.642 176.391 280.762 191.74 280.762 191.74L284.374 204.372C286.962 213.304 288.298 222.552 288.343 231.851C288.343 234.933 288.625 238.111 289.497 240.501C291.905 247.122 287.089 256.154 287.089 256.154C291.305 263.679 298.522 258.561 298.522 258.561V253.747C298.522 253.747 304.238 227.558 302.738 222.444C301.237 217.329 300.63 203.48 300.63 203.48V178.48C305.453 173.675 308.387 167.297 308.894 160.509C308.965 159.523 309.022 158.487 309.062 157.412C309.304 150.627 304.66 142.659 302.845 139.823C302.409 139.138 302.13 138.752 302.13 138.752L275.542 149.295L275.481 149.32V150.348V152.623L275.342 172.176Z" fill="#474463"/>
<path opacity="0.1" d="M284.374 77.9633C285.186 79.3206 285.804 80.7848 286.21 82.3132C287.682 82.8715 289.251 83.1294 290.825 83.0718C292.398 83.0141 293.944 82.642 295.371 81.9775C295.746 79.7707 296.62 77.6785 297.925 75.8597L284.374 77.9633Z" fill="black"/>
<path d="M290.398 82.474C296.884 82.474 302.142 77.2182 302.142 70.7349C302.142 64.2515 296.884 58.9957 290.398 58.9957C283.912 58.9957 278.654 64.2515 278.654 70.7349C278.654 77.2182 283.912 82.474 290.398 82.474Z" fill="#DB8B8B"/>
<path opacity="0.1" d="M275.342 152.612L275.47 152.637C288.097 155.234 303.949 142.077 303.949 142.077C303.524 141.361 303.157 140.612 302.852 139.838C302.416 139.152 302.138 138.766 302.138 138.766L275.549 149.309L275.481 150.362L275.342 152.612Z" fill="black"/>
<path d="M278.654 91.506C278.654 91.506 295.517 81.2704 300.937 85.4847L308.465 95.1274C308.465 95.1274 313.285 96.631 312.395 106.263L315.993 123.716L305.153 126.427C305.153 126.427 298.829 132.448 303.949 141.177C303.949 141.177 287.99 154.42 275.342 151.712L276.246 137.566C276.246 137.566 278.958 129.741 274.138 122.516C269.318 115.291 273.838 108.37 278.354 105.659C278.354 105.656 280.458 94.2167 278.654 91.506Z" fill="#FC6681"/>
<path d="M277.75 152.912C277.75 152.912 271.426 154.116 268.414 158.934C267.545 160.379 266.485 161.7 265.263 162.862C264.988 163.112 264.775 163.421 264.641 163.767C264.506 164.113 264.454 164.486 264.489 164.855C264.524 165.225 264.644 165.581 264.84 165.896C265.037 166.211 265.304 166.475 265.62 166.669C268.01 168.098 271.908 168.987 276.832 164.944C285.278 158.03 277.75 152.912 277.75 152.912Z" fill="#DB8B8B"/>
<path opacity="0.1" d="M287.086 97.2273C287.086 97.2273 293.11 96.6238 294.614 112.277C296.118 127.931 298.544 131.541 298.544 131.541C298.544 131.541 300.048 139.67 296.436 144.484C292.824 149.298 285.896 159.534 285.896 159.534C285.896 159.534 278.368 161.641 276.864 154.116L286.2 136.659C286.2 136.659 287.704 130.638 284.092 126.423C280.48 122.209 277.75 94.2166 287.086 97.2273Z" fill="black"/>
<path d="M286.471 96.3238C286.471 96.3238 292.494 95.7202 293.999 111.374C295.503 127.027 297.929 130.638 297.929 130.638C297.929 130.638 299.433 138.766 295.821 143.58C292.209 148.395 285.281 158.63 285.281 158.63C285.281 158.63 277.753 160.737 276.249 153.212L285.585 135.755C285.585 135.755 287.089 129.734 283.477 125.52C279.865 121.306 277.146 93.3131 286.471 96.3238Z" fill="#FC6681"/>
<path opacity="0.1" d="M281.512 107.609C281.512 107.609 280.912 116.931 283.613 122.059C286.314 127.188 286.324 133.798 283.613 137.416" fill="black"/>
<path opacity="0.1" d="M280.008 96.1738C280.008 96.1738 282.416 93.7667 289.343 93.4632C296.271 93.1596 299.279 91.056 299.279 91.056" fill="black"/>
<path opacity="0.1" d="M296.757 55.5672C298.586 55.7922 300.687 56.4208 301.337 58.1386C301.58 58.7707 301.587 59.4671 301.755 60.1207C302.437 62.7492 305.399 63.9742 307.225 65.9849C308.836 67.7706 309.547 70.1599 310.083 72.4991C311.587 79.2072 311.949 86.1205 311.155 92.9489C310.569 97.9488 309.369 102.856 309.033 107.87C308.697 112.884 309.311 118.159 312.052 122.374C313.231 124.184 314.788 125.777 315.624 127.77C313.899 129.17 311.516 129.37 309.29 129.445C306.701 129.533 304.111 129.533 301.519 129.445C300.162 129.398 298.743 129.309 297.571 128.623C296.704 128.069 295.991 127.303 295.499 126.398C294.016 123.898 293.645 120.863 293.713 117.949C293.781 115.034 294.238 112.134 294.291 109.217C294.32 107.627 294.195 105.938 293.28 104.638C292.619 103.699 291.615 103.067 290.758 102.306C287.543 99.4488 286.428 94.8703 286.321 90.5668C286.213 86.2632 286.924 81.9526 286.56 77.6633C286.417 75.9848 285.788 73.967 284.138 73.642C283.616 73.5384 283.066 73.642 282.566 73.442C281.24 72.9313 281.369 71.0634 280.99 69.6956C280.565 68.1599 279.254 66.9742 278.886 65.4099C278.018 61.7671 282.655 57.4207 285.695 56.1529C288.786 54.8601 293.498 55.1672 296.757 55.5672Z" fill="black"/>
<path d="M297.057 54.9672C298.887 55.1922 300.988 55.8208 301.638 57.5386C301.881 58.1707 301.888 58.8671 302.056 59.5207C302.738 62.1492 305.7 63.3742 307.526 65.3849C309.137 67.1706 309.848 69.5599 310.384 71.8991C311.887 78.6072 312.25 85.5205 311.456 92.3489C310.87 97.3488 309.669 102.256 309.333 107.27C308.998 112.284 309.612 117.559 312.352 121.773C313.531 123.584 315.089 125.177 315.925 127.17C314.2 128.57 311.817 128.77 309.591 128.845C307.002 128.933 304.411 128.933 301.82 128.845C300.462 128.798 299.044 128.709 297.872 128.023C297.004 127.469 296.291 126.703 295.8 125.798C294.317 123.298 293.946 120.263 294.013 117.349C294.081 114.434 294.539 111.534 294.592 108.617C294.621 107.027 294.496 105.338 293.581 104.038C292.92 103.099 291.916 102.467 291.059 101.706C287.843 98.8488 286.729 94.2703 286.621 89.9668C286.514 85.6632 287.225 81.3526 286.861 77.0633C286.718 75.3848 286.089 73.367 284.438 73.042C283.917 72.9384 283.367 73.042 282.866 72.842C281.541 72.3313 281.67 70.4634 281.291 69.0956C280.866 67.5599 279.555 66.3742 279.187 64.8099C278.318 61.1671 282.956 56.8207 285.996 55.5529C289.087 54.2565 293.799 54.5636 297.057 54.9672Z" fill="#472727"/>
</g>
<defs>
<linearGradient id="paint0_linear" x1="170.914" y1="248.468" x2="170.914" y2="11.8571" gradientUnits="userSpaceOnUse">
<stop stop-color="#808080" stop-opacity="0.25"/>
<stop offset="0.54" stop-color="#808080" stop-opacity="0.12"/>
<stop offset="1" stop-color="#808080" stop-opacity="0.1"/>
</linearGradient>
<linearGradient id="paint1_linear" x1="-100605" y1="176372" x2="-100605" y2="42659.5" gradientUnits="userSpaceOnUse">
<stop stop-color="#808080" stop-opacity="0.25"/>
<stop offset="0.54" stop-color="#808080" stop-opacity="0.12"/>
<stop offset="1" stop-color="#808080" stop-opacity="0.1"/>
</linearGradient>
<clipPath id="clip0">
<rect width="345" height="286" fill="white"/>
</clipPath>
</defs>
</svg>